<svg xmlns="http://www.w3.org/2000/svg" width="521.583" height="475.238" viewBox="0 0 521.583 475.238">
  <g id="Grupo_1013263" data-name="Grupo 1013263" transform="translate(-542 -1770)">
    <path id="Trazado_716103" data-name="Trazado 716103" d="M0,0H188.393V396.754H0Z" transform="translate(542 1770)" fill="#c36900"/>
    <path id="Trazado_713742" data-name="Trazado 713742" d="M279.781,660.105l-94.2,288.541H373.978Z" transform="translate(356.415 1218.108)" fill="#ffa031"/>
    <path id="Trazado_713743" data-name="Trazado 713743" d="M345.952,976.671H213.61a28.025,28.025,0,0,1-28.025-28.025H373.978A28.026,28.026,0,0,1,345.952,976.671Z" transform="translate(356.415 1218.108)" fill="#ffa031"/>
    <path id="Trazado_716104" data-name="Trazado 716104" d="M94.2,0c52.023,0,94.2,2.345,94.2,5.238s-42.173,5.238-94.2,5.238S0,8.131,0,5.238,42.173,0,94.2,0Z" transform="translate(542 2161.516)" fill="#874047"/>
    <path id="Trazado_716105" data-name="Trazado 716105" d="M0,0H188.393V324.948H0Z" transform="translate(875.19 1770)" fill="#008b8a"/>
    <path id="Trazado_713744" data-name="Trazado 713744" d="M612.972,588.3l-94.2,288.541H707.168Z" transform="translate(356.415 1218.108)" fill="#6fc6c6"/>
    <path id="Trazado_713745" data-name="Trazado 713745" d="M679.143,904.865H546.8a28.026,28.026,0,0,1-28.025-28.026H707.168A28.026,28.026,0,0,1,679.143,904.865Z" transform="translate(356.415 1218.108)" fill="#299b98"/>
    <path id="Trazado_716106" data-name="Trazado 716106" d="M94.2,0c52.023,0,94.2,2.345,94.2,5.238s-42.173,5.238-94.2,5.238S0,8.131,0,5.238,42.173,0,94.2,0Z" transform="translate(875.19 2089.709)" fill="#0c605c"/>
    <path id="Trazado_713746" data-name="Trazado 713746" d="M615.2,598.317l-332.983,73.1a10.86,10.86,0,0,1-12.937-8.279h0a10.861,10.861,0,0,1,8.279-12.938l332.983-73.1a10.861,10.861,0,0,1,12.938,8.279h0A10.862,10.862,0,0,1,615.2,598.317Z" transform="translate(356.415 1218.108)" fill="#3076b6"/>
    <path id="Trazado_713747" data-name="Trazado 713747" d="M424.2,736.905h44.355L446.377,604.588Z" transform="translate(356.415 1218.108)" fill="#3076b6"/>
    <path id="Trazado_716107" data-name="Trazado 716107" d="M22.041,0A22.041,22.041,0,1,1,0,22.041,22.041,22.041,0,0,1,22.041,0Z" transform="translate(780.206 1820.326)" fill="#134675"/>
    <path id="Trazado_713748" data-name="Trazado 713748" d="M464.173,763.042l4.381-26.138H424.2l4.381,26.138Z" transform="translate(356.415 1218.108)" fill="#134675"/>
    <path id="Trazado_713749" data-name="Trazado 713749" d="M428.58,763.042l-4.381,113.8h44.355l-4.381-113.8Z" transform="translate(356.415 1218.108)" fill="#3076b6"/>
    <path id="Trazado_713750" data-name="Trazado 713750" d="M454.173,990.636l14.381-113.8H424.2l14.381,113.8Z" transform="translate(356.415 1218.108)" fill="#134675"/>
    <path id="Trazado_716108" data-name="Trazado 716108" d="M25.072,0H70.2A25.072,25.072,0,0,1,95.275,25.072H0A25.072,25.072,0,0,1,25.072,0Z" transform="translate(754.609 2208.744)" fill="#3076b6"/>
    <path id="Trazado_713751" data-name="Trazado 713751" d="M602.541,1027.13H290.212a11.422,11.422,0,0,1,11.422-11.422H591.119a11.422,11.422,0,0,1,11.422,11.422Z" transform="translate(356.415 1218.108)" fill="#134675"/>
    <path id="Trazado_716109" data-name="Trazado 716109" d="M-37.324,0V-14.219h5.107a7.232,7.232,0,0,1,4.175,1.006,3.347,3.347,0,0,1,1.431,2.92,3.383,3.383,0,0,1-.508,1.885,2.959,2.959,0,0,1-1.494,1.152A3,3,0,0,1-26.9-6.162a3.18,3.18,0,0,1,.6,1.953,3.765,3.765,0,0,1-1.323,3.14A6.3,6.3,0,0,1-31.553,0ZM-33.9-6.045v3.408h2.246a2.136,2.136,0,0,0,1.426-.425,1.487,1.487,0,0,0,.5-1.2,1.576,1.576,0,0,0-1.768-1.787Zm0-2.246h1.787a2.539,2.539,0,0,0,1.6-.411,1.46,1.46,0,0,0,.479-1.185,1.533,1.533,0,0,0-.518-1.3,2.77,2.77,0,0,0-1.67-.4H-33.9ZM-18.623,0a3.716,3.716,0,0,1-.312-.947A3.06,3.06,0,0,1-21.475.2a3.749,3.749,0,0,1-2.539-.9,2.875,2.875,0,0,1-1.045-2.271,2.955,2.955,0,0,1,1.27-2.6A6.468,6.468,0,0,1-20.1-6.455h1.016v-.559q0-1.462-1.26-1.462a1.03,1.03,0,0,0-1.172,1.158H-24.8a2.95,2.95,0,0,1,1.3-2.487,5.479,5.479,0,0,1,3.325-.956,4.8,4.8,0,0,1,3.193.986,3.429,3.429,0,0,1,1.2,2.705v4.678a4.79,4.79,0,0,0,.449,2.227V0Zm-2.061-2.148a1.836,1.836,0,0,0,1.021-.264,1.653,1.653,0,0,0,.581-.6V-4.7h-.957q-1.719,0-1.719,1.543a.942.942,0,0,0,.3.728A1.1,1.1,0,0,0-20.684-2.148ZM-10.488,0h-3.3V-15h3.3ZM-2.51,0a3.716,3.716,0,0,1-.312-.947A3.06,3.06,0,0,1-5.361.2,3.749,3.749,0,0,1-7.9-.708,2.875,2.875,0,0,1-8.945-2.979a2.955,2.955,0,0,1,1.27-2.6,6.468,6.468,0,0,1,3.691-.879h1.016v-.559q0-1.462-1.26-1.462A1.03,1.03,0,0,0-5.4-7.319H-8.691a2.95,2.95,0,0,1,1.3-2.487,5.479,5.479,0,0,1,3.325-.956,4.8,4.8,0,0,1,3.193.986A3.429,3.429,0,0,1,.332-7.07v4.678A4.79,4.79,0,0,0,.781-.166V0ZM-4.57-2.148A1.836,1.836,0,0,0-3.55-2.412a1.653,1.653,0,0,0,.581-.6V-4.7h-.957q-1.719,0-1.719,1.543a.942.942,0,0,0,.3.728A1.1,1.1,0,0,0-4.57-2.148Zm9.746-8.418.107,1.24A3.583,3.583,0,0,1,8.3-10.762a3.015,3.015,0,0,1,2.466.986,4.7,4.7,0,0,1,.845,2.969V0h-3.3V-6.67a1.783,1.783,0,0,0-.322-1.177,1.491,1.491,0,0,0-1.172-.376,1.569,1.569,0,0,0-1.436.762V0H2.09V-10.566ZM17.314-2.539h4.814V0H13.154V-1.836l4.688-6.191H13.359v-2.539h8.662v1.777ZM29.678,0a3.716,3.716,0,0,1-.312-.947A3.06,3.06,0,0,1,26.826.2a3.749,3.749,0,0,1-2.539-.9,2.875,2.875,0,0,1-1.045-2.271,2.955,2.955,0,0,1,1.27-2.6A6.468,6.468,0,0,1,28.2-6.455h1.016v-.559q0-1.462-1.26-1.462a1.03,1.03,0,0,0-1.172,1.158H23.5a2.95,2.95,0,0,1,1.3-2.487,5.479,5.479,0,0,1,3.325-.956,4.8,4.8,0,0,1,3.193.986,3.429,3.429,0,0,1,1.2,2.705v4.678a4.79,4.79,0,0,0,.449,2.227V0ZM27.617-2.148a1.836,1.836,0,0,0,1.021-.264,1.653,1.653,0,0,0,.581-.6V-4.7h-.957q-1.719,0-1.719,1.543a.942.942,0,0,0,.3.728A1.1,1.1,0,0,0,27.617-2.148ZM-39.419,16.434l.107,1.24a3.633,3.633,0,0,1,3.018-1.436,2.675,2.675,0,0,1,2.705,1.592,3.517,3.517,0,0,1,3.105-1.592q3.213,0,3.3,3.887V27h-3.3V20.33a2.014,2.014,0,0,0-.273-1.182,1.164,1.164,0,0,0-1-.371,1.559,1.559,0,0,0-1.455.869l.01.137V27h-3.3V20.35a2.117,2.117,0,0,0-.264-1.2,1.161,1.161,0,0,0-1.006-.371,1.578,1.578,0,0,0-1.445.869V27H-42.5V16.434ZM-20.19,27.2a5.432,5.432,0,0,1-3.936-1.45,5.008,5.008,0,0,1-1.5-3.774V21.7a6.489,6.489,0,0,1,.6-2.861,4.395,4.395,0,0,1,1.753-1.919,5.292,5.292,0,0,1,2.734-.679,4.574,4.574,0,0,1,3.516,1.382,5.43,5.43,0,0,1,1.289,3.853v1.279H-22.28a2.372,2.372,0,0,0,.771,1.4,2.3,2.3,0,0,0,1.543.508,2.958,2.958,0,0,0,2.441-1.094l1.5,1.777a4.2,4.2,0,0,1-1.743,1.353A5.891,5.891,0,0,1-20.19,27.2Zm-.371-8.418q-1.445,0-1.719,1.914h3.32v-.254a1.63,1.63,0,0,0-.4-1.226A1.593,1.593,0,0,0-20.562,18.777Zm10.615,5.879a1.464,1.464,0,0,0,1.074-.376A1.379,1.379,0,0,0-8.5,23.23h3.086A3.653,3.653,0,0,1-6.66,26.082,4.631,4.631,0,0,1-9.868,27.2,4.689,4.689,0,0,1-13.5,25.75a5.7,5.7,0,0,1-1.328-4v-.137a6.436,6.436,0,0,1,.591-2.827,4.3,4.3,0,0,1,1.7-1.885A5.081,5.081,0,0,1-9.9,16.238a4.573,4.573,0,0,1,3.271,1.143,4.053,4.053,0,0,1,1.211,3.1H-8.5a1.807,1.807,0,0,0-.4-1.26,1.382,1.382,0,0,0-1.074-.439q-1.279,0-1.494,1.631a11.508,11.508,0,0,0-.068,1.426,4.52,4.52,0,0,0,.381,2.207A1.319,1.319,0,0,0-9.946,24.656ZM1.929,27a3.716,3.716,0,0,1-.312-.947A3.06,3.06,0,0,1-.923,27.2a3.749,3.749,0,0,1-2.539-.9,2.875,2.875,0,0,1-1.045-2.271,2.955,2.955,0,0,1,1.27-2.6,6.468,6.468,0,0,1,3.691-.879H1.47v-.559q0-1.462-1.26-1.462A1.03,1.03,0,0,0-.962,19.681H-4.253a2.95,2.95,0,0,1,1.3-2.487,5.479,5.479,0,0,1,3.325-.956,4.8,4.8,0,0,1,3.193.986,3.429,3.429,0,0,1,1.2,2.705v4.678a4.79,4.79,0,0,0,.449,2.227V27ZM-.132,24.852a1.836,1.836,0,0,0,1.021-.264,1.653,1.653,0,0,0,.581-.6V22.3H.513q-1.719,0-1.719,1.543a.942.942,0,0,0,.3.728A1.1,1.1,0,0,0-.132,24.852ZM.688,12H4.165L1.45,15.066l-2.686,0Zm8.926,4.434.107,1.24a3.583,3.583,0,0,1,3.018-1.436,3.015,3.015,0,0,1,2.466.986,4.7,4.7,0,0,1,.845,2.969V27h-3.3V20.33a1.783,1.783,0,0,0-.322-1.177,1.491,1.491,0,0,0-1.172-.376,1.569,1.569,0,0,0-1.436.762V27H6.528V16.434ZM21.343,27h-3.3V16.434h3.3Zm-3.5-13.291a1.469,1.469,0,0,1,.508-1.152,2.159,2.159,0,0,1,2.637,0,1.561,1.561,0,0,1,0,2.3,2.159,2.159,0,0,1-2.637,0A1.469,1.469,0,0,1,17.847,13.709Zm9.99,10.947a1.464,1.464,0,0,0,1.074-.376,1.379,1.379,0,0,0,.371-1.05h3.086a3.653,3.653,0,0,1-1.245,2.852A4.631,4.631,0,0,1,27.915,27.2a4.689,4.689,0,0,1-3.633-1.445,5.7,5.7,0,0,1-1.328-4v-.137a6.436,6.436,0,0,1,.591-2.827,4.3,4.3,0,0,1,1.7-1.885,5.081,5.081,0,0,1,2.637-.659,4.573,4.573,0,0,1,3.271,1.143,4.053,4.053,0,0,1,1.211,3.1H29.282a1.807,1.807,0,0,0-.4-1.26,1.382,1.382,0,0,0-1.074-.439q-1.279,0-1.494,1.631a11.508,11.508,0,0,0-.068,1.426,4.52,4.52,0,0,0,.381,2.207A1.319,1.319,0,0,0,27.837,24.656ZM39.712,27a3.716,3.716,0,0,1-.312-.947A3.06,3.06,0,0,1,36.86,27.2a3.749,3.749,0,0,1-2.539-.9,2.875,2.875,0,0,1-1.045-2.271,2.955,2.955,0,0,1,1.27-2.6,6.468,6.468,0,0,1,3.691-.879h1.016v-.559q0-1.462-1.26-1.462a1.03,1.03,0,0,0-1.172,1.158H33.53a2.95,2.95,0,0,1,1.3-2.487,5.479,5.479,0,0,1,3.325-.956,4.8,4.8,0,0,1,3.193.986,3.429,3.429,0,0,1,1.2,2.705v4.678A4.79,4.79,0,0,0,43,26.834V27Zm-2.061-2.148a1.836,1.836,0,0,0,1.021-.264,1.653,1.653,0,0,0,.581-.6V22.3H38.3q-1.719,0-1.719,1.543a.942.942,0,0,0,.3.728A1.1,1.1,0,0,0,37.651,24.852Z" transform="translate(642 2104)" fill="#12263f"/>
    <path id="Trazado_716110" data-name="Trazado 716110" d="M-42.446,0V-14.219h5.107a7.232,7.232,0,0,1,4.175,1.006,3.347,3.347,0,0,1,1.431,2.92,3.383,3.383,0,0,1-.508,1.885,2.959,2.959,0,0,1-1.494,1.152,3,3,0,0,1,1.709,1.094,3.18,3.18,0,0,1,.6,1.953,3.765,3.765,0,0,1-1.323,3.14A6.3,6.3,0,0,1-36.675,0Zm3.428-6.045v3.408h2.246a2.136,2.136,0,0,0,1.426-.425,1.487,1.487,0,0,0,.5-1.2,1.576,1.576,0,0,0-1.768-1.787Zm0-2.246h1.787a2.539,2.539,0,0,0,1.6-.411,1.46,1.46,0,0,0,.479-1.185,1.533,1.533,0,0,0-.518-1.3,2.77,2.77,0,0,0-1.67-.4h-1.68ZM-23.745,0a3.716,3.716,0,0,1-.312-.947A3.06,3.06,0,0,1-26.6.2a3.749,3.749,0,0,1-2.539-.9,2.875,2.875,0,0,1-1.045-2.271,2.955,2.955,0,0,1,1.27-2.6,6.468,6.468,0,0,1,3.691-.879H-24.2v-.559q0-1.462-1.26-1.462a1.03,1.03,0,0,0-1.172,1.158h-3.291a2.95,2.95,0,0,1,1.3-2.487,5.479,5.479,0,0,1,3.325-.956,4.8,4.8,0,0,1,3.193.986A3.429,3.429,0,0,1-20.9-7.07v4.678a4.79,4.79,0,0,0,.449,2.227V0Zm-2.061-2.148a1.836,1.836,0,0,0,1.021-.264,1.653,1.653,0,0,0,.581-.6V-4.7h-.957q-1.719,0-1.719,1.543a.942.942,0,0,0,.3.728A1.1,1.1,0,0,0-25.806-2.148ZM-15.61,0h-3.3V-15h3.3Zm7.979,0a3.716,3.716,0,0,1-.312-.947A3.06,3.06,0,0,1-10.483.2a3.749,3.749,0,0,1-2.539-.9,2.875,2.875,0,0,1-1.045-2.271,2.955,2.955,0,0,1,1.27-2.6,6.468,6.468,0,0,1,3.691-.879h1.016v-.559q0-1.462-1.26-1.462a1.03,1.03,0,0,0-1.172,1.158h-3.291a2.95,2.95,0,0,1,1.3-2.487,5.479,5.479,0,0,1,3.325-.956,4.8,4.8,0,0,1,3.193.986A3.429,3.429,0,0,1-4.79-7.07v4.678A4.79,4.79,0,0,0-4.341-.166V0ZM-9.692-2.148a1.836,1.836,0,0,0,1.021-.264,1.653,1.653,0,0,0,.581-.6V-4.7h-.957q-1.719,0-1.719,1.543a.942.942,0,0,0,.3.728A1.1,1.1,0,0,0-9.692-2.148ZM.054-10.566l.107,1.24a3.583,3.583,0,0,1,3.018-1.436,3.015,3.015,0,0,1,2.466.986,4.7,4.7,0,0,1,.845,2.969V0h-3.3V-6.67a1.783,1.783,0,0,0-.322-1.177,1.491,1.491,0,0,0-1.172-.376,1.569,1.569,0,0,0-1.436.762V0H-3.032V-10.566ZM12.192-2.539h4.814V0H8.032V-1.836L12.72-8.027H8.237v-2.539H16.9v1.777ZM24.556,0a3.716,3.716,0,0,1-.312-.947A3.06,3.06,0,0,1,21.7.2a3.749,3.749,0,0,1-2.539-.9A2.875,2.875,0,0,1,18.12-2.979a2.955,2.955,0,0,1,1.27-2.6,6.468,6.468,0,0,1,3.691-.879H24.1v-.559q0-1.462-1.26-1.462a1.03,1.03,0,0,0-1.172,1.158H18.374a2.95,2.95,0,0,1,1.3-2.487A5.479,5.479,0,0,1,23-10.762a4.8,4.8,0,0,1,3.193.986A3.429,3.429,0,0,1,27.4-7.07v4.678a4.79,4.79,0,0,0,.449,2.227V0ZM22.5-2.148a1.836,1.836,0,0,0,1.021-.264,1.653,1.653,0,0,0,.581-.6V-4.7H23.14q-1.719,0-1.719,1.543a.942.942,0,0,0,.3.728A1.1,1.1,0,0,0,22.5-2.148Zm12.256-.82a.76.76,0,0,0-.439-.674,6.685,6.685,0,0,0-1.67-.527,7.615,7.615,0,0,1-2.031-.718A3.4,3.4,0,0,1,29.39-5.967a2.577,2.577,0,0,1-.42-1.455,2.92,2.92,0,0,1,1.2-2.4,4.948,4.948,0,0,1,3.145-.942,5.482,5.482,0,0,1,3.359.947,2.962,2.962,0,0,1,1.27,2.49h-3.3q0-1.27-1.338-1.27a1.326,1.326,0,0,0-.869.288.892.892,0,0,0-.352.718.819.819,0,0,0,.43.713,4.06,4.06,0,0,0,1.372.449,11.857,11.857,0,0,1,1.655.42,3.007,3.007,0,0,1,2.383,2.939A2.767,2.767,0,0,1,36.641-.713,5.632,5.632,0,0,1,33.315.2a5.747,5.747,0,0,1-2.422-.488,4.05,4.05,0,0,1-1.66-1.328,3.007,3.007,0,0,1-.6-1.768h3.076A1.272,1.272,0,0,0,32.2-2.319a2.009,2.009,0,0,0,1.2.337,1.58,1.58,0,0,0,1.011-.273A.875.875,0,0,0,34.751-2.969ZM-51.963,27.2a5.432,5.432,0,0,1-3.936-1.45,5.008,5.008,0,0,1-1.5-3.774V21.7a6.489,6.489,0,0,1,.6-2.861,4.395,4.395,0,0,1,1.753-1.919,5.292,5.292,0,0,1,2.734-.679A4.574,4.574,0,0,1-48.8,17.62a5.43,5.43,0,0,1,1.289,3.853v1.279h-6.543a2.372,2.372,0,0,0,.771,1.4,2.3,2.3,0,0,0,1.543.508A2.958,2.958,0,0,0-49.3,23.563l1.5,1.777a4.2,4.2,0,0,1-1.743,1.353A5.891,5.891,0,0,1-51.963,27.2Zm-.371-8.418q-1.445,0-1.719,1.914h3.32v-.254a1.63,1.63,0,0,0-.4-1.226A1.593,1.593,0,0,0-52.334,18.777ZM-42.715,27h-3.3V12h3.3Zm7.139.2a5.432,5.432,0,0,1-3.936-1.45,5.008,5.008,0,0,1-1.5-3.774V21.7a6.489,6.489,0,0,1,.6-2.861,4.395,4.395,0,0,1,1.753-1.919,5.292,5.292,0,0,1,2.734-.679,4.574,4.574,0,0,1,3.516,1.382,5.43,5.43,0,0,1,1.289,3.853v1.279h-6.543a2.372,2.372,0,0,0,.771,1.4,2.3,2.3,0,0,0,1.543.508,2.958,2.958,0,0,0,2.441-1.094l1.5,1.777a4.2,4.2,0,0,1-1.743,1.353A5.891,5.891,0,0,1-35.576,27.2Zm-.371-8.418q-1.445,0-1.719,1.914h3.32v-.254a1.63,1.63,0,0,0-.4-1.226A1.593,1.593,0,0,0-35.947,18.777Zm10.615,5.879a1.464,1.464,0,0,0,1.074-.376,1.379,1.379,0,0,0,.371-1.05H-20.8a3.653,3.653,0,0,1-1.245,2.852A4.631,4.631,0,0,1-25.254,27.2a4.689,4.689,0,0,1-3.633-1.445,5.7,5.7,0,0,1-1.328-4v-.137a6.436,6.436,0,0,1,.591-2.827,4.3,4.3,0,0,1,1.7-1.885,5.081,5.081,0,0,1,2.637-.659,4.573,4.573,0,0,1,3.271,1.143,4.053,4.053,0,0,1,1.211,3.1h-3.086a1.807,1.807,0,0,0-.4-1.26,1.382,1.382,0,0,0-1.074-.439q-1.279,0-1.494,1.631a11.508,11.508,0,0,0-.068,1.426,4.52,4.52,0,0,0,.381,2.207A1.319,1.319,0,0,0-25.332,24.656Zm9.756-10.85v2.627h1.738v2.285h-1.738v4.834a1.234,1.234,0,0,0,.215.83,1.152,1.152,0,0,0,.85.234,4.828,4.828,0,0,0,.82-.059v2.354a6.074,6.074,0,0,1-1.855.283,3.448,3.448,0,0,1-2.51-.8,3.282,3.282,0,0,1-.811-2.432V18.719h-1.348V16.434h1.348V13.807Zm9.424,5.605-1.084-.078a1.947,1.947,0,0,0-1.992.977V27H-12.52V16.434h3.086l.107,1.357a2.548,2.548,0,0,1,2.314-1.553,3.209,3.209,0,0,1,.918.117Zm.42,2.207A6.236,6.236,0,0,1-5.117,18.8,4.4,4.4,0,0,1-3.35,16.9a5.323,5.323,0,0,1,2.705-.664,4.858,4.858,0,0,1,3.74,1.47,5.64,5.64,0,0,1,1.367,4v.117a5.472,5.472,0,0,1-1.372,3.921A4.871,4.871,0,0,1-.625,27.2a4.927,4.927,0,0,1-3.623-1.353,5.29,5.29,0,0,1-1.475-3.667Zm3.291.205a3.932,3.932,0,0,0,.459,2.148,1.529,1.529,0,0,0,1.357.684q1.758,0,1.8-2.705v-.332q0-2.842-1.816-2.842-1.65,0-1.787,2.451ZM-.2,12H3.281L.566,15.066l-2.686,0Zm9.131,4.434.107,1.24a3.583,3.583,0,0,1,3.018-1.436,3.015,3.015,0,0,1,2.466.986,4.7,4.7,0,0,1,.845,2.969V27h-3.3V20.33a1.783,1.783,0,0,0-.322-1.177,1.491,1.491,0,0,0-1.172-.376,1.569,1.569,0,0,0-1.436.762V27H5.85V16.434ZM20.664,27h-3.3V16.434h3.3Zm-3.5-13.291a1.469,1.469,0,0,1,.508-1.152,2.159,2.159,0,0,1,2.637,0,1.561,1.561,0,0,1,0,2.3,2.159,2.159,0,0,1-2.637,0A1.469,1.469,0,0,1,17.168,13.709Zm9.99,10.947a1.464,1.464,0,0,0,1.074-.376,1.379,1.379,0,0,0,.371-1.05h3.086a3.653,3.653,0,0,1-1.245,2.852A4.631,4.631,0,0,1,27.236,27.2,4.689,4.689,0,0,1,23.6,25.75a5.7,5.7,0,0,1-1.328-4v-.137a6.436,6.436,0,0,1,.591-2.827,4.3,4.3,0,0,1,1.7-1.885,5.081,5.081,0,0,1,2.637-.659,4.573,4.573,0,0,1,3.271,1.143,4.053,4.053,0,0,1,1.211,3.1H28.6a1.807,1.807,0,0,0-.4-1.26,1.382,1.382,0,0,0-1.074-.439q-1.279,0-1.494,1.631a11.508,11.508,0,0,0-.068,1.426,4.52,4.52,0,0,0,.381,2.207A1.319,1.319,0,0,0,27.158,24.656ZM39.033,27a3.716,3.716,0,0,1-.312-.947A3.06,3.06,0,0,1,36.182,27.2a3.749,3.749,0,0,1-2.539-.9A2.875,2.875,0,0,1,32.6,24.021a2.955,2.955,0,0,1,1.27-2.6,6.468,6.468,0,0,1,3.691-.879h1.016v-.559q0-1.462-1.26-1.462a1.03,1.03,0,0,0-1.172,1.158H32.852a2.95,2.95,0,0,1,1.3-2.487,5.479,5.479,0,0,1,3.325-.956,4.8,4.8,0,0,1,3.193.986,3.429,3.429,0,0,1,1.2,2.705v4.678a4.79,4.79,0,0,0,.449,2.227V27Zm-2.061-2.148a1.836,1.836,0,0,0,1.021-.264,1.653,1.653,0,0,0,.581-.6V22.3h-.957q-1.719,0-1.719,1.543a.942.942,0,0,0,.3.728A1.1,1.1,0,0,0,36.973,24.852Zm12.256-.82a.76.76,0,0,0-.439-.674,6.684,6.684,0,0,0-1.67-.527,7.615,7.615,0,0,1-2.031-.718,3.4,3.4,0,0,1-1.221-1.079,2.577,2.577,0,0,1-.42-1.455,2.92,2.92,0,0,1,1.2-2.4,4.948,4.948,0,0,1,3.145-.942,5.482,5.482,0,0,1,3.359.947,2.962,2.962,0,0,1,1.27,2.49h-3.3q0-1.27-1.338-1.27a1.326,1.326,0,0,0-.869.288.892.892,0,0,0-.352.718.819.819,0,0,0,.43.713,4.06,4.06,0,0,0,1.372.449,11.857,11.857,0,0,1,1.655.42A3.007,3.007,0,0,1,52.4,23.934a2.767,2.767,0,0,1-1.284,2.354,5.632,5.632,0,0,1-3.325.908,5.747,5.747,0,0,1-2.422-.488,4.05,4.05,0,0,1-1.66-1.328,3.007,3.007,0,0,1-.6-1.768h3.076a1.272,1.272,0,0,0,.488,1.069,2.009,2.009,0,0,0,1.2.337,1.58,1.58,0,0,0,1.011-.273A.875.875,0,0,0,49.229,24.031Z" transform="translate(977 2041)" fill="#12263f"/>
  </g>
</svg>
