<svg xmlns="http://www.w3.org/2000/svg" width="247.5" height="66" viewBox="0 0 247.5 66">
  <g id="Grupo_1013248" data-name="Grupo 1013248" transform="translate(6647.074 8434)">
    <path id="Trazado_715995" data-name="Trazado 715995" d="M0,0H247.5V66H0Z" transform="translate(-6647.074 -8434)" fill="#f6f6f6"/>
    <path id="Trazado_715996" data-name="Trazado 715996" d="M15.273,10H13.886L11.909,5.259,11.083,10H9.653l1.235-7.109H12.27l1.982,4.751.825-4.751H16.5Zm-.339,13H10.2l.161-1.025,2.524-2.368a5.592,5.592,0,0,0,1.03-1.182,1.384,1.384,0,0,0,.19-.889.663.663,0,0,0-.7-.62,1,1,0,0,0-.784.327,1.533,1.533,0,0,0-.383.884l-1.377,0a2.43,2.43,0,0,1,1.345-2.048,2.753,2.753,0,0,1,1.282-.3,2.184,2.184,0,0,1,1.543.557,1.722,1.722,0,0,1,.488,1.431,3.466,3.466,0,0,1-1.187,2.1l-.7.669-1.455,1.309,2.939.01Z" transform="translate(-6497.074 -8417)" fill="#12263f"/>
    <path id="Trazado_715997" data-name="Trazado 715997" d="M15.273,10H13.886L11.909,5.259,11.083,10H9.653l1.235-7.109H12.27l1.982,4.751.825-4.751H16.5Zm-.339,13H10.2l.161-1.025,2.524-2.368a5.592,5.592,0,0,0,1.03-1.182,1.384,1.384,0,0,0,.19-.889.663.663,0,0,0-.7-.62,1,1,0,0,0-.784.327,1.533,1.533,0,0,0-.383.884l-1.377,0a2.43,2.43,0,0,1,1.345-2.048,2.753,2.753,0,0,1,1.282-.3,2.184,2.184,0,0,1,1.543.557,1.722,1.722,0,0,1,.488,1.431,3.466,3.466,0,0,1-1.187,2.1l-.7.669-1.455,1.309,2.939.01Z" transform="translate(-6453.074 -8417)" fill="#12263f"/>
    <path id="Trazado_715998" data-name="Trazado 715998" d="M11,6.021h1.709l-.225,1.274h-1.7l-.347,1.992H9.118l.347-1.992H7.746l.225-1.274H9.685l.332-1.909H11.33ZM16.154,10H14.777l.938-5.41-1.729.522L14.2,3.906,17.17,2.881l.181,0Z" transform="translate(-6441.074 -8410)" fill="#12263f"/>
    <path id="Trazado_715999" data-name="Trazado 715999" d="M8.266,5.625l1.4,8.227,4.242-8.227h3.047L14.977,17h-2.3l.563-3.242L14.352,8.7,9.992,17H8.422L6.9,8.406l-.734,5.6L5.641,17H3.352L5.328,5.625ZM20.9,17.156a3.677,3.677,0,0,1-1.965-.543,3.292,3.292,0,0,1-1.277-1.469,4.093,4.093,0,0,1-.328-2.059l.023-.312a5.465,5.465,0,0,1,.719-2.266,4.341,4.341,0,0,1,1.547-1.59,3.827,3.827,0,0,1,2.094-.527,2.924,2.924,0,0,1,2.473,1.2,4.117,4.117,0,0,1,.637,2.962l-.125.962h-5.18a1.814,1.814,0,0,0,.4,1.313,1.521,1.521,0,0,0,1.172.508A2.7,2.7,0,0,0,23.2,14.4l1.008,1.25a3.135,3.135,0,0,1-1.375,1.121A4.5,4.5,0,0,1,20.9,17.156Zm.7-6.945a1.565,1.565,0,0,0-1.082.383,3.363,3.363,0,0,0-.848,1.383H22.7l.047-.2a2.071,2.071,0,0,0,.008-.594,1.134,1.134,0,0,0-.383-.707A1.2,1.2,0,0,0,21.6,10.211Zm7.945-1.828a2.4,2.4,0,0,1,1.906.945L32.281,5h2.211L32.414,17H30.445l.125-.906a2.736,2.736,0,0,1-2.2,1.07,2.433,2.433,0,0,1-1.383-.414,2.607,2.607,0,0,1-.918-1.168,4.7,4.7,0,0,1-.355-1.7,6.4,6.4,0,0,1,.023-.953l.047-.352A6.767,6.767,0,0,1,26.5,10.3a3.766,3.766,0,0,1,1.313-1.461A3.094,3.094,0,0,1,29.547,8.383Zm-1.6,4.547a6.327,6.327,0,0,0-.039,1q.078,1.375,1.109,1.4a1.885,1.885,0,0,0,1.617-.875l.6-3.359a1.248,1.248,0,0,0-1.219-.875,1.606,1.606,0,0,0-1.34.621A4.176,4.176,0,0,0,27.945,12.93ZM36.5,17H34.281L35.75,8.547h2.219ZM36.008,6.4a1.1,1.1,0,0,1,.344-.867,1.323,1.323,0,0,1,1.734-.039,1.1,1.1,0,0,1,.383.828,1.132,1.132,0,0,1-.324.844,1.215,1.215,0,0,1-.887.375,1.235,1.235,0,0,1-.863-.3A1.091,1.091,0,0,1,36.008,6.4ZM43.258,17a2.281,2.281,0,0,1-.086-.766,2.863,2.863,0,0,1-2.156.922,2.594,2.594,0,0,1-1.84-.723,2.186,2.186,0,0,1-.684-1.746,2.527,2.527,0,0,1,1.16-2.121,5.266,5.266,0,0,1,2.965-.738l1.031.016.109-.508a1.764,1.764,0,0,0,.023-.492.846.846,0,0,0-.277-.574.955.955,0,0,0-.629-.215,1.345,1.345,0,0,0-.875.254,1.231,1.231,0,0,0-.461.777l-2.211.008a2.457,2.457,0,0,1,1.113-1.965,4.312,4.312,0,0,1,2.613-.738,3.117,3.117,0,0,1,2.25.855,2.5,2.5,0,0,1,.68,2.121l-.648,4.047-.039.5a2.412,2.412,0,0,0,.133.938L45.422,17Zm-1.7-1.555a2.017,2.017,0,0,0,1.664-.828l.273-1.461-.766-.008a2.139,2.139,0,0,0-1.758.742,1.292,1.292,0,0,0-.242.633.75.75,0,0,0,.176.668A.891.891,0,0,0,41.563,15.445ZM50.25,8.539l-.187,1a3.042,3.042,0,0,1,2.461-1.148,2.028,2.028,0,0,1,1.766.875,3.526,3.526,0,0,1,.414,2.359L53.813,17h-2.2l.906-5.4a2.528,2.528,0,0,0,.016-.555.9.9,0,0,0-1-.82,1.9,1.9,0,0,0-1.555.8L48.922,17h-2.2l1.469-8.453ZM60.43,17a2.281,2.281,0,0,1-.086-.766,2.863,2.863,0,0,1-2.156.922,2.594,2.594,0,0,1-1.84-.723,2.186,2.186,0,0,1-.684-1.746,2.527,2.527,0,0,1,1.16-2.121,5.266,5.266,0,0,1,2.965-.738l1.031.016.109-.508a1.764,1.764,0,0,0,.023-.492.846.846,0,0,0-.277-.574.955.955,0,0,0-.629-.215,1.345,1.345,0,0,0-.875.254,1.231,1.231,0,0,0-.461.777l-2.211.008a2.457,2.457,0,0,1,1.113-1.965,4.312,4.312,0,0,1,2.613-.738,3.117,3.117,0,0,1,2.25.855,2.5,2.5,0,0,1,.68,2.121l-.648,4.047-.039.5a2.412,2.412,0,0,0,.133.938L62.594,17Zm-1.7-1.555a2.017,2.017,0,0,0,1.664-.828l.273-1.461-.766-.008a2.139,2.139,0,0,0-1.758.742,1.292,1.292,0,0,0-.242.633.75.75,0,0,0,.176.668A.891.891,0,0,0,58.734,15.445Zm17.133-4.273H69.078l.328-1.844H76.2Zm-.586,3.383H68.492l.328-1.844h6.789Zm10.563-8.93,1.4,8.227,4.242-8.227h3.047L92.555,17h-2.3l.563-3.242L91.93,8.7,87.57,17H86L84.477,8.406l-.734,5.6L83.219,17H80.93L82.906,5.625ZM98.477,17.156a3.677,3.677,0,0,1-1.965-.543,3.292,3.292,0,0,1-1.277-1.469,4.093,4.093,0,0,1-.328-2.059l.023-.312a5.465,5.465,0,0,1,.719-2.266A4.341,4.341,0,0,1,97.2,8.918a3.827,3.827,0,0,1,2.094-.527,2.924,2.924,0,0,1,2.473,1.2,4.117,4.117,0,0,1,.637,2.962l-.125.962h-5.18a1.814,1.814,0,0,0,.4,1.313,1.521,1.521,0,0,0,1.172.508,2.7,2.7,0,0,0,2.109-.937l1.008,1.25a3.135,3.135,0,0,1-1.375,1.121A4.5,4.5,0,0,1,98.477,17.156Zm.7-6.945a1.565,1.565,0,0,0-1.082.383,3.363,3.363,0,0,0-.848,1.383h3.031l.047-.2a2.071,2.071,0,0,0,.008-.594,1.134,1.134,0,0,0-.383-.707A1.2,1.2,0,0,0,99.18,10.211Zm15.68.961H108.07l.328-1.844h6.789Zm-.586,3.383h-6.789l.328-1.844H114.6Z" transform="translate(-6636.074 -8397)" fill="#12263f"/>
    <path id="Trazado_716000" data-name="Trazado 716000" d="M12.336,9.531l2.68-3.906h2.75l-4.18,5.75L15.945,17H13.414l-1.492-3.969L9.18,17H6.4l4.273-5.844L8.383,5.625h2.5Z" transform="translate(-6513.074 -8428)" fill="#12263f"/>
    <path id="Trazado_716001" data-name="Trazado 716001" d="M6.348,10.633H9.082l-.359,2.039H6l-.555,3.188H3.34l.555-3.187H1.145L1.5,10.633H4.246l.531-3.055h2.1Zm12.234-1.1,2.68-3.906h2.75l-4.18,5.75L22.191,17H19.66l-1.492-3.969L15.426,17H12.645l4.273-5.844L14.629,5.625h2.5Z" transform="translate(-6473.074 -8428)" fill="#12263f"/>
    <path id="Trazado_716002" data-name="Trazado 716002" d="M38.094,17H30.516l.258-1.641,4.039-3.789A8.947,8.947,0,0,0,36.461,9.68a2.214,2.214,0,0,0,.3-1.422,1.061,1.061,0,0,0-1.117-.992,1.6,1.6,0,0,0-1.254.523A2.453,2.453,0,0,0,33.781,9.2l-2.2.008A3.889,3.889,0,0,1,33.73,5.934a4.405,4.405,0,0,1,2.051-.473,3.5,3.5,0,0,1,2.469.891,2.756,2.756,0,0,1,.781,2.289A5.546,5.546,0,0,1,37.133,12l-1.125,1.07L33.68,15.164l4.7.016Z" transform="translate(-6501.074 -8387)" fill="#12263f"/>
    <path id="Trazado_716003" data-name="Trazado 716003" d="M0,0H96" transform="translate(-6514.574 -8387.5)" fill="none" stroke="#707070" stroke-width="1.5"/>
    <path id="Trazado_712375" data-name="Trazado 712375" d="M-6045.85-8453s-5,14.5,0,24.5" transform="translate(-446.074 36)" fill="none" stroke="#12263f" stroke-width="1"/>
    <path id="Trazado_712376" data-name="Trazado 712376" d="M-6048.072-8453s5,14.5,0,24.5" transform="translate(-428.225 36)" fill="none" stroke="#12263f" stroke-width="1"/>
    <path id="Trazado_712375-2" data-name="Trazado 712375" d="M-6045.85-8453s-5,14.5,0,24.5" transform="translate(-402.038 36)" fill="none" stroke="#12263f" stroke-width="1"/>
    <path id="Trazado_712376-2" data-name="Trazado 712376" d="M-6048.072-8453s5,14.5,0,24.5" transform="translate(-375.188 36)" fill="none" stroke="#12263f" stroke-width="1"/>
    <path id="Trazado_716004" data-name="Trazado 716004" d="M0,0H15" transform="translate(-6491.574 -8403.5)" fill="none" stroke="#12263f" stroke-width="1"/>
    <path id="Trazado_716005" data-name="Trazado 716005" d="M0,0H15" transform="translate(-6449.074 -8403.5)" fill="none" stroke="#12263f" stroke-width="1"/>
  </g>
</svg>
