<svg xmlns="http://www.w3.org/2000/svg" width="181" height="181" viewBox="0 0 181 181">
  <g id="Grupo_1013245" data-name="Grupo 1013245" transform="translate(-399 -862)">
    <g id="Grupo_1004758" data-name="Grupo 1004758">
      <circle id="Elipse_8399" data-name="Elipse 8399" cx="90.5" cy="90.5" r="90.5" transform="translate(399 862)" fill="#fff"/>
      <g id="Grupo_1004742" data-name="Grupo 1004742" transform="translate(437.749 900.75)">
        <g id="Grupo_1004740" data-name="Grupo 1004740" transform="translate(1.725 1.725)">
          <path id="Trazado_712618" data-name="Trazado 712618" d="M62.009,222.233a34.492,34.492,0,0,1-16.336,29.325H8.533V193.426a33.981,33.981,0,0,1,9.85-4.468,34.872,34.872,0,0,1,6.5-1.121c.863-.069,1.742-.1,2.622-.1a34.49,34.49,0,0,1,34.5,34.5Z" transform="translate(-8.533 -151.508)" fill="#afafaf"/>
          <path id="Trazado_712619" data-name="Trazado 712619" d="M56.834,222.642a34.93,34.93,0,0,1-.932,8v.017a34.052,34.052,0,0,1-4.761,10.954,33.273,33.273,0,0,1-2.174,2.95,34.069,34.069,0,0,1-8.47,7.4H8.533V193.834a33.981,33.981,0,0,1,9.85-4.468,34.87,34.87,0,0,1,6.5-1.121,34.3,34.3,0,0,1,26.255,15.422,33.74,33.74,0,0,1,4.744,10.971v.017A33.856,33.856,0,0,1,56.834,222.642Z" transform="translate(-8.533 -151.916)" fill="#cfd8dc"/>
          <path id="Trazado_712620" data-name="Trazado 712620" d="M20.367,197.38l-5.951,10.712H8.533V198.26a33.981,33.981,0,0,1,9.85-4.468l.017.052Z" transform="translate(-8.533 -156.342)" fill="#3076b6"/>
          <path id="Trazado_712621" data-name="Trazado 712621" d="M248.9,317.551a34.408,34.408,0,0,1-1.587,10.385l-.138-.035h-3.088l-1.294-2.329v-.017a34.929,34.929,0,0,0,.932-8,33.865,33.865,0,0,0-.949-7.987v-.017l1.311-2.346h3.088l.5,1.207A34,34,0,0,1,248.9,317.551Z" transform="translate(-195.421 -246.825)" fill="#3076b6"/>
          <path id="Trazado_712622" data-name="Trazado 712622" d="M226.225,326.878a34.931,34.931,0,0,1-.932,8l-4.451-8,4.433-7.987A33.864,33.864,0,0,1,226.225,326.878Z" transform="translate(-177.924 -256.152)" fill="#3076b6"/>
          <path id="Trazado_712623" data-name="Trazado 712623" d="M161.783,205.143l-.017.017-1.639,2.933h-1.346a34.529,34.529,0,0,0-15.335-12.8l.811-1.449.017-.052A34.384,34.384,0,0,1,161.783,205.143Z" transform="translate(-116.173 -156.342)" fill="#3076b6"/>
          <path id="Trazado_712624" data-name="Trazado 712624" d="M154.219,214.016h-10.54L137.728,203.3l1.156-2.087A34.531,34.531,0,0,1,154.219,214.016Z" transform="translate(-111.611 -162.265)" fill="#3076b6"/>
          <path id="Trazado_712625" data-name="Trazado 712625" d="M180.3,455.217a34.069,34.069,0,0,1-8.47,7.4h-5.175a34.069,34.069,0,0,0,8.47-7.4,33.272,33.272,0,0,0,2.174-2.95h1.346l1.639,2.933Z" transform="translate(-134.691 -362.566)" fill="#3076b6"/>
          <g id="Grupo_1004738" data-name="Grupo 1004738" transform="translate(0 60.376)">
            <path id="Trazado_712626" data-name="Trazado 712626" d="M155.036,452.267a33.272,33.272,0,0,1-2.174,2.95,34.069,34.069,0,0,1-8.47,7.4h-5.641l5.744-10.35Z" transform="translate(-112.428 -422.942)" fill="#3076b6"/>
            <path id="Trazado_712627" data-name="Trazado 712627" d="M20.16,462.617H8.533v-10.35h5.882Z" transform="translate(-8.533 -422.941)" fill="#3076b6"/>
            <path id="Trazado_712628" data-name="Trazado 712628" d="M62.724,327.9h-9.47a1.725,1.725,0,0,1-1.508-.887l-4.792-8.625a1.725,1.725,0,0,1,0-1.677l4.792-8.625a1.725,1.725,0,0,1,1.508-.887h9.47a1.725,1.725,0,0,1,1.508.887l4.792,8.625a1.725,1.725,0,0,1,0,1.677l-4.792,8.625A1.725,1.725,0,0,1,62.724,327.9Z" transform="translate(-39.014 -307.2)" fill="#3076b6"/>
          </g>
          <g id="Grupo_1004739" data-name="Grupo 1004739" transform="translate(0 1.725)">
            <path id="Trazado_712629" data-name="Trazado 712629" d="M86.16,27.417h-75.9a1.725,1.725,0,0,1-1.725-1.725v-6.9a1.725,1.725,0,0,1,1.725-1.725h75.9" transform="translate(-8.534 -17.067)" fill="#607d8b"/>
            <path id="Trazado_712630" data-name="Trazado 712630" d="M454.084,119.467v75.9a1.725,1.725,0,0,1-1.725,1.725h-6.9a1.725,1.725,0,0,1-1.725-1.725v-75.9" transform="translate(-355.758 -98.767)" fill="#607d8b"/>
          </g>
          <path id="Trazado_712631" data-name="Trazado 712631" d="M414.959,15.434v13.8a1.725,1.725,0,0,1-1.725,1.725h-10.35a1.725,1.725,0,0,1-1.725-1.725v-3.45a3.46,3.46,0,0,0-3.45-3.45h-3.45a1.725,1.725,0,0,1-1.725-1.725V10.259a1.725,1.725,0,0,1,1.725-1.725h13.8A6.9,6.9,0,0,1,414.959,15.434Z" transform="translate(-314.908 -8.534)" fill="#dc7c0d"/>
          <path id="Trazado_712632" data-name="Trazado 712632" d="M409.784,15.434v13.8a1.725,1.725,0,0,1-1.725,1.725h-5.175a1.725,1.725,0,0,1-1.725-1.725v-3.45a3.46,3.46,0,0,0-3.45-3.45h-3.45a1.725,1.725,0,0,1-1.725-1.725V10.259a1.725,1.725,0,0,1,1.725-1.725h8.625A6.9,6.9,0,0,1,409.784,15.434Z" transform="translate(-314.908 -8.534)" fill="#ffa031"/>
        </g>
        <g id="Grupo_1004741" data-name="Grupo 1004741">
          <path id="Trazado_712633" data-name="Trazado 712633" d="M94.876,0h-13.8a3.438,3.438,0,0,0-2.97,1.725H3.45A3.45,3.45,0,0,0,0,5.175v6.9a3.45,3.45,0,0,0,3.45,3.45v13.8H1.725a1.725,1.725,0,1,0,0,3.45H53.476V37.95a1.725,1.725,0,1,0,3.45,0V32.775h13.8V44.85H55.2a1.725,1.725,0,1,0,0,3.45H70.726V60.375H62.1a1.725,1.725,0,1,0,0,3.45h8.625V75.9H62.1a1.725,1.725,0,1,0,0,3.45h8.625V91.425h-13.8a1.725,1.725,0,1,0,0,3.45h13.8v6.9a1.725,1.725,0,0,0,3.45,0v-6.9h13.8v5.175a3.45,3.45,0,0,0,3.45,3.45h6.9a3.45,3.45,0,0,0,3.45-3.45V25.4a3.438,3.438,0,0,0,1.725-2.97V8.625A8.635,8.635,0,0,0,94.876,0Zm0,3.45a5.175,5.175,0,0,1,5.175,5.175v13.8H89.7v-3.45A5.175,5.175,0,0,0,84.526,13.8h-3.45V3.45ZM78.105,15.525a3.438,3.438,0,0,0,2.97,1.725h3.45a1.725,1.725,0,0,1,1.725,1.725v3.45a3.438,3.438,0,0,0,1.725,2.97v3.93h-13.8v-13.8ZM3.45,5.175H77.626v6.9H3.45Zm32.775,10.35v13.8h-13.8v-13.8Zm-29.325,0H18.975v13.8H6.9Zm32.776,13.8v-13.8h13.8v13.8Zm17.25,0v-13.8h13.8v13.8Zm17.25,3.45h13.8V44.85h-13.8Zm0,15.525h13.8V60.376h-13.8Zm0,15.525h13.8V75.9h-13.8Zm0,27.6V79.351h13.8V91.426Zm17.25,8.625V25.875h6.9v74.176Z"/>
          <path id="Trazado_712634" data-name="Trazado 712634" d="M20.7,179.2a36.323,36.323,0,0,0-9.581,1.285,35.677,35.677,0,0,0-10.35,4.7c-.048.031-.074.083-.117.117a1.846,1.846,0,0,0-.247.247,1.623,1.623,0,0,0-.3.564,1.84,1.84,0,0,0-.069.345c0,.057-.033.105-.033.162v58.135a1.725,1.725,0,0,0,1.725,1.725H38.867a1.725,1.725,0,0,0,.592-.119,1.65,1.65,0,0,0,.157-.069c.052-.026.105-.038.153-.067a35.832,35.832,0,0,0,8.9-7.763A36.225,36.225,0,0,0,20.7,179.2Zm30.705,44.851-4.794-8.625,4.794-8.625h.876a32.16,32.16,0,0,1,.024,17.25h-.9Zm-6.191-30.305-.537.98H34.812l-4.992-8.984.849-1.534A32.832,32.832,0,0,1,45.215,193.745Zm-18-10.441-.887,1.6a1.725,1.725,0,0,0,0,1.673l5.348,9.62-2.208,2.577a1.725,1.725,0,0,0,2.622,2.242l2.438-2.846H45.683a1.725,1.725,0,0,0,1.508-.885l.345-.623a32.737,32.737,0,0,1,3.607,6.683H50.4a1.725,1.725,0,0,0-1.508.887l-5.751,10.35a1.725,1.725,0,0,0,0,1.677l5.751,10.35a1.725,1.725,0,0,0,1.508.887h.744a32.557,32.557,0,0,1-3.591,6.707l-.36-.647a1.726,1.726,0,0,0-1.508-.885H34.531l-2.168-2.531a1.725,1.725,0,0,0-2.622,2.243l1.941,2.263-4.647,8.375H14.368l-4.647-8.371,2.212-2.588a1.725,1.725,0,1,0-2.622-2.242l-2.438,2.852H3.451V217.15H8.186l5.258,9.464a1.725,1.725,0,0,0,1.508.887h11.5a1.725,1.725,0,0,0,1.508-.887l5.258-9.464h4.735a1.725,1.725,0,1,0,0-3.45H33.216l-5.258-9.463a1.725,1.725,0,0,0-1.508-.887h-11.5a1.725,1.725,0,0,0-1.508.887L8.186,213.7H3.451V198.175H6.872l2.168,2.531a1.725,1.725,0,0,0,2.622-2.242L9.723,196.2l5.347-9.62a1.725,1.725,0,0,0,0-1.677l-.887-1.6a32.819,32.819,0,0,1,13.036,0h0Zm-16.476.918.845,1.518-4.994,8.986H3.451v-7.14A32.145,32.145,0,0,1,10.741,184.222Zm-7.29,58.8v-6.9H6.592l3.831,6.9Zm7.723-27.6,4.792-8.625h9.47l4.792,8.625-4.792,8.625h-9.47Zm27.167,27.6H30.979l3.831-6.9h9.858l.557,1A32.188,32.188,0,0,1,38.341,243.026Z" transform="translate(-0.001 -142.975)"/>
        </g>
      </g>
    </g>
  </g>
</svg>
