<svg xmlns="http://www.w3.org/2000/svg" width="423" height="85" viewBox="0 0 423 85">
  <g id="Grupo_1013250" data-name="Grupo 1013250" transform="translate(5978.074 8456)">
    <path id="Trazado_716011" data-name="Trazado 716011" d="M0,0H423V85H0Z" transform="translate(-5978.074 -8456)" fill="#f6f6f6"/>
    <path id="Trazado_716012" data-name="Trazado 716012" d="M12.451,9.531l2.68-3.906h2.75l-4.18,5.75L16.06,17H13.529l-1.492-3.969L9.294,17H6.513l4.273-5.844L8.5,5.625H11Zm5.189,9.789a7.7,7.7,0,0,1,.973-2.91,4.185,4.185,0,0,1,1.893-1.789l.219.734a5.683,5.683,0,0,0-1.973,3.823,11.3,11.3,0,0,0-.15,1.6,3.181,3.181,0,0,0,.857,2.6l-.287.688a2.992,2.992,0,0,1-1.376-1.891,6.34,6.34,0,0,1-.232-1.932,7.653,7.653,0,0,1,.059-.82Zm7.182-4.028-.1,1.089-.251,0a2.5,2.5,0,0,0-2.256,1.723,1.779,1.779,0,0,1,1.335-.542,1.469,1.469,0,0,1,.909.3,1.673,1.673,0,0,1,.545.8,2.728,2.728,0,0,1,.123,1.116,2.648,2.648,0,0,1-.39,1.192,2.356,2.356,0,0,1-.877.838,2.284,2.284,0,0,1-1.171.285,1.911,1.911,0,0,1-1.119-.367,1.978,1.978,0,0,1-.681-.955,3.007,3.007,0,0,1-.141-1.322l.05-.41a4.46,4.46,0,0,1,1.255-2.732,3.564,3.564,0,0,1,2.6-1.018Zm-1.709,3.322a1.011,1.011,0,0,0-.6.164,1.482,1.482,0,0,0-.437.443l-.059.411A3.479,3.479,0,0,0,22,20.08a1.2,1.2,0,0,0,.2.689.624.624,0,0,0,.529.265.877.877,0,0,0,.615-.219,1.359,1.359,0,0,0,.41-.625,1.835,1.835,0,0,0,.087-.8.98.98,0,0,0-.23-.564A.651.651,0,0,0,23.112,18.614Zm2.178,5.473-.219-.72A5.754,5.754,0,0,0,27.045,19.5a11.243,11.243,0,0,0,.141-1.572,3.215,3.215,0,0,0-.848-2.607l.287-.688a2.663,2.663,0,0,1,.923.85,3.923,3.923,0,0,1,.57,1.347,6.767,6.767,0,0,1,.175,1.622,8.088,8.088,0,0,1-.437,2.463,6.439,6.439,0,0,1-1.073,2.007A3.9,3.9,0,0,1,25.291,24.087Zm13-13.454h2.734l-.359,2.039H37.938l-.555,3.188h-2.1l.555-3.187h-2.75l.359-2.039h2.742l.531-3.055h2.1Zm12.234-1.1L53.2,5.625h2.75l-4.18,5.75L54.133,17H51.6l-1.492-3.969L47.367,17H44.586l4.273-5.844L46.57,5.625h2.5Zm5.189,9.789a7.7,7.7,0,0,1,.973-2.91,4.185,4.185,0,0,1,1.893-1.789l.219.734a5.683,5.683,0,0,0-1.973,3.823,11.3,11.3,0,0,0-.15,1.6,3.181,3.181,0,0,0,.857,2.6l-.287.688a2.992,2.992,0,0,1-1.376-1.891,6.34,6.34,0,0,1-.232-1.932,7.653,7.653,0,0,1,.059-.82Zm7.97-3.152L60.31,22H58.893l3.363-5.573H59.084l.169-1.062h4.552Zm-.319,7.919-.219-.72A5.754,5.754,0,0,0,65.118,19.5a11.243,11.243,0,0,0,.141-1.572,3.215,3.215,0,0,0-.848-2.607l.287-.688a2.663,2.663,0,0,1,.923.85,3.923,3.923,0,0,1,.57,1.347,6.767,6.767,0,0,1,.175,1.622,8.087,8.087,0,0,1-.437,2.463,6.439,6.439,0,0,1-1.073,2.007A3.9,3.9,0,0,1,63.363,24.087ZM40.094,41H32.516l.258-1.641,4.039-3.789a8.947,8.947,0,0,0,1.648-1.891,2.214,2.214,0,0,0,.3-1.422,1.061,1.061,0,0,0-1.117-.992,1.6,1.6,0,0,0-1.254.523,2.453,2.453,0,0,0-.613,1.414l-2.2.008a3.889,3.889,0,0,1,2.152-3.277,4.405,4.405,0,0,1,2.051-.473,3.5,3.5,0,0,1,2.469.891,2.756,2.756,0,0,1,.781,2.289A5.546,5.546,0,0,1,39.133,36l-1.125,1.07L35.68,39.164l4.7.016Z" transform="translate(-5809.074 -8428)" fill="#12263f"/>
    <path id="Trazado_716013" data-name="Trazado 716013" d="M12.211,17h-2.2l1.5-8.656L8.742,9.18l.344-1.93,4.75-1.641.289-.008Zm3.961,2.852-1.164-.633.57-.914a4.9,4.9,0,0,0,.641-1.57l.289-1.656h1.859l-.227,1.438A5.172,5.172,0,0,1,16.172,19.852ZM28.422,8.586a3.118,3.118,0,0,1-1.953,2.6,2.864,2.864,0,0,1,1.266,2.625,3.227,3.227,0,0,1-1.242,2.453,4.309,4.309,0,0,1-2.859.891,3.576,3.576,0,0,1-2.5-.891,2.765,2.765,0,0,1-.855-2.312,3.31,3.31,0,0,1,2.227-2.859,2.7,2.7,0,0,1-1.07-2.383,3.274,3.274,0,0,1,1.957-2.867,4.279,4.279,0,0,1,1.9-.375,3.315,3.315,0,0,1,2.344.879A2.736,2.736,0,0,1,28.422,8.586Zm-2.859,5.067a1.489,1.489,0,0,0-.242-1.115,1.166,1.166,0,0,0-.969-.46,1.677,1.677,0,0,0-1.223.46,2,2,0,0,0-.613,1.247,1.462,1.462,0,0,0,.238,1.1,1.185,1.185,0,0,0,.98.448,1.675,1.675,0,0,0,1.223-.452A1.974,1.974,0,0,0,25.563,13.652ZM26.2,8.7a1.423,1.423,0,0,0-.2-1.017.976.976,0,0,0-.812-.393,1.38,1.38,0,0,0-1.047.409,1.843,1.843,0,0,0-.516,1.126,1.534,1.534,0,0,0,.191,1.032.939.939,0,0,0,.816.417,1.371,1.371,0,0,0,1.047-.425A1.9,1.9,0,0,0,26.2,8.7Zm12.094,1.933h2.734l-.359,2.039H37.938l-.555,3.188h-2.1l.555-3.187h-2.75l.359-2.039h2.742l.531-3.055h2.1ZM50.484,17h-2.2l1.5-8.656-2.766.836.344-1.93,4.75-1.641L52.4,5.6Zm3.961,2.852-1.164-.633.57-.914a4.9,4.9,0,0,0,.641-1.57l.289-1.656h1.859l-.227,1.438A5.172,5.172,0,0,1,54.445,19.852Zm9.586-7.406a2.919,2.919,0,0,1-2.055.875,2.618,2.618,0,0,1-1.594-.5,2.88,2.88,0,0,1-.973-1.371,4.375,4.375,0,0,1-.223-1.9,4.716,4.716,0,0,1,.8-2.273,4.133,4.133,0,0,1,1.789-1.5,3.737,3.737,0,0,1,1.594-.3,2.925,2.925,0,0,1,2.242.984,4.19,4.19,0,0,1,.945,2.555,7.061,7.061,0,0,1-.023,1.1l-.086.672a7.587,7.587,0,0,1-2.121,4.656,6.149,6.149,0,0,1-4.457,1.68H59.7l.172-1.891h.117a4.212,4.212,0,0,0,2.531-.668A4.236,4.236,0,0,0,64.031,12.445ZM62.586,11.6a1.956,1.956,0,0,0,1.656-.959l.133-.944a6.308,6.308,0,0,0,.039-.741,2.247,2.247,0,0,0-.312-1.2,1,1,0,0,0-.859-.468,1.432,1.432,0,0,0-1.012.4,2.536,2.536,0,0,0-.68,1.119,3.519,3.519,0,0,0-.168,1.411,1.741,1.741,0,0,0,.371,1A1.059,1.059,0,0,0,62.586,11.6ZM40.094,41H32.516l.258-1.641,4.039-3.789a8.947,8.947,0,0,0,1.648-1.891,2.214,2.214,0,0,0,.3-1.422,1.061,1.061,0,0,0-1.117-.992,1.6,1.6,0,0,0-1.254.523,2.453,2.453,0,0,0-.613,1.414l-2.2.008a3.889,3.889,0,0,1,2.152-3.277,4.405,4.405,0,0,1,2.051-.473,3.5,3.5,0,0,1,2.469.891,2.756,2.756,0,0,1,.781,2.289A5.546,5.546,0,0,1,39.133,36l-1.125,1.07L35.68,39.164l4.7.016Z" transform="translate(-5719.074 -8428)" fill="#12263f"/>
    <path id="Trazado_716014" data-name="Trazado 716014" d="M10.676,10H9.3l.938-5.41-1.729.522.215-1.206,2.969-1.025.181,0Zm7.065,0H13l.161-1.025L15.69,6.606a5.592,5.592,0,0,0,1.03-1.182,1.384,1.384,0,0,0,.19-.889.663.663,0,0,0-.7-.62,1,1,0,0,0-.784.327,1.533,1.533,0,0,0-.383.884l-1.377,0a2.43,2.43,0,0,1,1.345-2.048,2.753,2.753,0,0,1,1.282-.3,2.184,2.184,0,0,1,1.543.557,1.722,1.722,0,0,1,.488,1.431,3.466,3.466,0,0,1-1.187,2.1l-.7.669L14.982,8.853l2.939.01ZM14.934,23H10.2l.161-1.025,2.524-2.368a5.592,5.592,0,0,0,1.03-1.182,1.384,1.384,0,0,0,.19-.889.663.663,0,0,0-.7-.62,1,1,0,0,0-.784.327,1.533,1.533,0,0,0-.383.884l-1.377,0a2.43,2.43,0,0,1,1.345-2.048,2.753,2.753,0,0,1,1.282-.3,2.184,2.184,0,0,1,1.543.557,1.722,1.722,0,0,1,.488,1.431,3.466,3.466,0,0,1-1.187,2.1l-.7.669-1.455,1.309,2.939.01Z" transform="translate(-5907.074 -8434)" fill="#12263f"/>
    <path id="Trazado_716015" data-name="Trazado 716015" d="M10.676,10H9.3l.938-5.41-1.729.522.215-1.206,2.969-1.025.181,0Zm7.065,0H13l.161-1.025L15.69,6.606a5.592,5.592,0,0,0,1.03-1.182,1.384,1.384,0,0,0,.19-.889.663.663,0,0,0-.7-.62,1,1,0,0,0-.784.327,1.533,1.533,0,0,0-.383.884l-1.377,0a2.43,2.43,0,0,1,1.345-2.048,2.753,2.753,0,0,1,1.282-.3,2.184,2.184,0,0,1,1.543.557,1.722,1.722,0,0,1,.488,1.431,3.466,3.466,0,0,1-1.187,2.1l-.7.669L14.982,8.853l2.939.01ZM14.934,23H10.2l.161-1.025,2.524-2.368a5.592,5.592,0,0,0,1.03-1.182,1.384,1.384,0,0,0,.19-.889.663.663,0,0,0-.7-.62,1,1,0,0,0-.784.327,1.533,1.533,0,0,0-.383.884l-1.377,0a2.43,2.43,0,0,1,1.345-2.048,2.753,2.753,0,0,1,1.282-.3,2.184,2.184,0,0,1,1.543.557,1.722,1.722,0,0,1,.488,1.431,3.466,3.466,0,0,1-1.187,2.1l-.7.669-1.455,1.309,2.939.01Z" transform="translate(-5863.074 -8434)" fill="#12263f"/>
    <path id="Trazado_716016" data-name="Trazado 716016" d="M11,6.021h1.709l-.225,1.274h-1.7l-.347,1.992H9.118l.347-1.992H7.746l.225-1.274H9.685l.332-1.909H11.33ZM16.154,10H14.777l.938-5.41-1.729.522L14.2,3.906,17.17,2.881l.181,0Z" transform="translate(-5851.074 -8427)" fill="#12263f"/>
    <path id="Trazado_716017" data-name="Trazado 716017" d="M7.027,5.625l1.4,8.227,4.242-8.227h3.047L13.738,17h-2.3L12,13.758,13.113,8.7,8.754,17H7.184L5.66,8.406l-.734,5.6L4.4,17H2.113L4.09,5.625ZM19.66,17.156a3.677,3.677,0,0,1-1.965-.543,3.292,3.292,0,0,1-1.277-1.469,4.093,4.093,0,0,1-.328-2.059l.023-.312a5.465,5.465,0,0,1,.719-2.266,4.341,4.341,0,0,1,1.547-1.59,3.827,3.827,0,0,1,2.094-.527,2.924,2.924,0,0,1,2.473,1.2,4.117,4.117,0,0,1,.637,2.962l-.125.962h-5.18a1.814,1.814,0,0,0,.4,1.313,1.521,1.521,0,0,0,1.172.508,2.7,2.7,0,0,0,2.109-.937l1.008,1.25A3.135,3.135,0,0,1,21.59,16.77,4.5,4.5,0,0,1,19.66,17.156Zm.7-6.945a1.565,1.565,0,0,0-1.082.383,3.363,3.363,0,0,0-.848,1.383h3.031l.047-.2a2.071,2.071,0,0,0,.008-.594,1.134,1.134,0,0,0-.383-.707A1.2,1.2,0,0,0,20.363,10.211Zm11.734.961H25.309l.328-1.844h6.789Zm-.586,3.383H24.723l.328-1.844H31.84Z" transform="translate(-5962.074 -8414)" fill="#12263f"/>
    <path id="Trazado_716018" data-name="Trazado 716018" d="M12.336,9.531l2.68-3.906h2.75l-4.18,5.75L15.945,17H13.414l-1.492-3.969L9.18,17H6.4l4.273-5.844L8.383,5.625h2.5Z" transform="translate(-5923.074 -8445)" fill="#12263f"/>
    <path id="Trazado_716019" data-name="Trazado 716019" d="M6.348,10.633H9.082l-.359,2.039H6l-.555,3.188H3.34l.555-3.187H1.145L1.5,10.633H4.246l.531-3.055h2.1Zm12.234-1.1,2.68-3.906h2.75l-4.18,5.75L22.191,17H19.66l-1.492-3.969L15.426,17H12.645l4.273-5.844L14.629,5.625h2.5Z" transform="translate(-5883.074 -8445)" fill="#12263f"/>
    <path id="Trazado_716020" data-name="Trazado 716020" d="M12.027,11.172H5.238l.328-1.844h6.789Zm-.586,3.383H4.652l.328-1.844H11.77Z" transform="translate(-5829.074 -8414)" fill="#12263f"/>
    <path id="Trazado_716021" data-name="Trazado 716021" d="M12.027,11.172H5.238l.328-1.844h6.789Zm-.586,3.383H4.652l.328-1.844H11.77Z" transform="translate(-5739.074 -8414)" fill="#12263f"/>
    <path id="Trazado_716022" data-name="Trazado 716022" d="M21.145,11.172H14.355l.328-1.844h6.789Zm-.586,3.383H13.77l.328-1.844h6.789ZM31.309,17h-2.2l1.5-8.656L27.84,9.18l.344-1.93,4.75-1.641.289-.008Zm3.961,2.852-1.164-.633.57-.914a4.9,4.9,0,0,0,.641-1.57l.289-1.656h1.859l-.227,1.438A5.172,5.172,0,0,1,35.27,19.852ZM47.52,8.586a3.118,3.118,0,0,1-1.953,2.6,2.864,2.864,0,0,1,1.266,2.625,3.227,3.227,0,0,1-1.242,2.453,4.309,4.309,0,0,1-2.859.891,3.576,3.576,0,0,1-2.5-.891,2.765,2.765,0,0,1-.855-2.312,3.31,3.31,0,0,1,2.227-2.859,2.7,2.7,0,0,1-1.07-2.383,3.274,3.274,0,0,1,1.957-2.867,4.279,4.279,0,0,1,1.9-.375,3.315,3.315,0,0,1,2.344.879A2.736,2.736,0,0,1,47.52,8.586ZM44.66,13.652a1.489,1.489,0,0,0-.242-1.115,1.166,1.166,0,0,0-.969-.46,1.677,1.677,0,0,0-1.223.46,2,2,0,0,0-.613,1.247,1.462,1.462,0,0,0,.238,1.1,1.185,1.185,0,0,0,.98.448,1.675,1.675,0,0,0,1.223-.452A1.974,1.974,0,0,0,44.66,13.652ZM45.293,8.7a1.423,1.423,0,0,0-.2-1.017.976.976,0,0,0-.812-.393A1.38,1.38,0,0,0,43.23,7.7a1.843,1.843,0,0,0-.516,1.126,1.534,1.534,0,0,0,.191,1.032.939.939,0,0,0,.816.417,1.371,1.371,0,0,0,1.047-.425A1.9,1.9,0,0,0,45.293,8.7Zm3.789,2.676,1.531-5.75h6.219l-.3,1.883H52.168l-.75,2.461a3.016,3.016,0,0,1,1.641-.437,2.693,2.693,0,0,1,2.262,1.035A3.855,3.855,0,0,1,56,13.3a4.423,4.423,0,0,1-.66,2.023A3.852,3.852,0,0,1,53.848,16.7a4.108,4.108,0,0,1-2.031.461,3.613,3.613,0,0,1-1.746-.441,3.12,3.12,0,0,1-1.223-1.2,3.409,3.409,0,0,1-.445-1.7h2.164a1.7,1.7,0,0,0,.383,1.09,1.259,1.259,0,0,0,.953.41,1.545,1.545,0,0,0,1.285-.57,2.845,2.845,0,0,0,.605-1.594,2.02,2.02,0,0,0-.27-1.406,1.3,1.3,0,0,0-1.105-.531,2.195,2.195,0,0,0-1.531.609Z" transform="translate(-5639.074 -8414)" fill="#12263f"/>
    <path id="Trazado_716023" data-name="Trazado 716023" d="M38.094,17H30.516l.258-1.641,4.039-3.789A8.947,8.947,0,0,0,36.461,9.68a2.214,2.214,0,0,0,.3-1.422,1.061,1.061,0,0,0-1.117-.992,1.6,1.6,0,0,0-1.254.523A2.453,2.453,0,0,0,33.781,9.2l-2.2.008A3.889,3.889,0,0,1,33.73,5.934a4.405,4.405,0,0,1,2.051-.473,3.5,3.5,0,0,1,2.469.891,2.756,2.756,0,0,1,.781,2.289A5.546,5.546,0,0,1,37.133,12l-1.125,1.07L33.68,15.164l4.7.016Z" transform="translate(-5911.074 -8404)" fill="#12263f"/>
    <path id="Trazado_716024" data-name="Trazado 716024" d="M0,0H69" transform="translate(-5808.574 -8404.5)" fill="none" stroke="#707070" stroke-width="1.5"/>
    <path id="Trazado_716025" data-name="Trazado 716025" d="M0,0H69" transform="translate(-5718.574 -8404.5)" fill="none" stroke="#707070" stroke-width="1.5"/>
    <path id="Trazado_716026" data-name="Trazado 716026" d="M0,0H96" transform="translate(-5924.574 -8404.5)" fill="none" stroke="#707070" stroke-width="1.5"/>
    <path id="Trazado_712375" data-name="Trazado 712375" d="M-6045.85-8453s-5,14.5,0,24.5" transform="translate(143.926 19)" fill="none" stroke="#12263f" stroke-width="1"/>
    <path id="Trazado_712376" data-name="Trazado 712376" d="M-6048.072-8453s5,14.5,0,24.5" transform="translate(161.775 19)" fill="none" stroke="#12263f" stroke-width="1"/>
    <path id="Trazado_712375-2" data-name="Trazado 712375" d="M-6045.85-8453s-5,14.5,0,24.5" transform="translate(187.962 19)" fill="none" stroke="#12263f" stroke-width="1"/>
    <path id="Trazado_712376-2" data-name="Trazado 712376" d="M-6048.072-8453s5,14.5,0,24.5" transform="translate(214.812 19)" fill="none" stroke="#12263f" stroke-width="1"/>
    <path id="Trazado_716027" data-name="Trazado 716027" d="M0,0H15" transform="translate(-5901.574 -8420.5)" fill="none" stroke="#12263f" stroke-width="1"/>
    <path id="Trazado_716028" data-name="Trazado 716028" d="M0,0H15" transform="translate(-5859.074 -8420.5)" fill="none" stroke="#12263f" stroke-width="1"/>
  </g>
</svg>
