<svg xmlns="http://www.w3.org/2000/svg" width="280" height="74" viewBox="0 0 280 74">
  <g id="Grupo_1013251" data-name="Grupo 1013251" transform="translate(6642 7780)">
    <path id="Trazado_716029" data-name="Trazado 716029" d="M0,0H280V74H0Z" transform="translate(-6642 -7780)" fill="#e8e8e8"/>
    <path id="Trazado_716030" data-name="Trazado 716030" d="M10.441,9.531l2.68-3.906h2.75l-4.18,5.75L14.051,17H11.52l-1.492-3.969L7.285,17H4.5l4.273-5.844L6.488,5.625h2.5ZM18.146,22H16.861l.875-5.049-1.613.488.2-1.126,2.771-.957.169,0ZM29.823,10.633h2.734L32.2,12.672H29.471l-.555,3.188h-2.1l.555-3.187H24.62l.359-2.039h2.742l.531-3.055h2.1Zm8.289-1.1,2.68-3.906h2.75l-4.18,5.75L41.721,17H39.19L37.7,13.031,34.955,17H32.174l4.273-5.844L34.159,5.625h2.5ZM47.169,22h-4.42l.15-.957,2.356-2.21a5.219,5.219,0,0,0,.962-1.1,1.292,1.292,0,0,0,.178-.829.619.619,0,0,0-.652-.579.932.932,0,0,0-.731.305,1.431,1.431,0,0,0-.358.825l-1.285,0a2.268,2.268,0,0,1,1.255-1.912,2.57,2.57,0,0,1,1.2-.276,2.039,2.039,0,0,1,1.44.52,1.608,1.608,0,0,1,.456,1.335,3.235,3.235,0,0,1-1.107,1.96l-.656.624-1.358,1.221,2.743.009Zm8.68-11.367h2.734l-.359,2.039H55.5l-.555,3.188h-2.1l.555-3.187h-2.75l.359-2.039h2.742l.531-3.055h2.1Zm12.234-1.1,2.68-3.906h2.75l-4.18,5.75L71.693,17H69.161l-1.492-3.969L64.927,17H62.146l4.273-5.844L64.13,5.625h2.5ZM74.639,18.1l.615,0a1.2,1.2,0,0,0,.786-.26,1.013,1.013,0,0,0,.367-.7.736.736,0,0,0-.141-.59.717.717,0,0,0-.561-.23.958.958,0,0,0-.64.2.872.872,0,0,0-.326.549l-1.285.009a1.722,1.722,0,0,1,.69-1.315,2.429,2.429,0,0,1,1.579-.5,2.168,2.168,0,0,1,1.486.524,1.6,1.6,0,0,1,.5,1.34A1.8,1.8,0,0,1,76.5,18.619a1.389,1.389,0,0,1,.654.608,1.649,1.649,0,0,1,.18.877,1.906,1.906,0,0,1-.369,1.057,2.16,2.16,0,0,1-.9.7,2.894,2.894,0,0,1-1.221.23,2.075,2.075,0,0,1-1.449-.531,1.767,1.767,0,0,1-.551-1.379h1.276a.824.824,0,0,0,.207.6.808.808,0,0,0,.6.244,1.128,1.128,0,0,0,.766-.254,1.027,1.027,0,0,0,.374-.688.833.833,0,0,0-.162-.7.906.906,0,0,0-.672-.256l-.756,0Zm8.88-7.466h2.734l-.359,2.039H83.168l-.555,3.188h-2.1l.555-3.187h-2.75l.359-2.039h2.742l.531-3.055h2.1Zm4.547,4.039a1.22,1.22,0,0,1,.895.324,1.111,1.111,0,0,1,.371.855,1.151,1.151,0,0,1-.344.879,1.323,1.323,0,0,1-1.766.051,1.149,1.149,0,0,1-.375-.852,1.161,1.161,0,0,1,.336-.883A1.238,1.238,0,0,1,88.066,14.672Zm4.586,0a1.22,1.22,0,0,1,.895.324,1.111,1.111,0,0,1,.371.855,1.151,1.151,0,0,1-.344.879,1.323,1.323,0,0,1-1.766.051,1.149,1.149,0,0,1-.375-.852,1.161,1.161,0,0,1,.336-.883A1.238,1.238,0,0,1,92.652,14.672Zm4.586,0a1.22,1.22,0,0,1,.895.324,1.111,1.111,0,0,1,.371.855,1.151,1.151,0,0,1-.344.879,1.323,1.323,0,0,1-1.766.051,1.149,1.149,0,0,1-.375-.852,1.161,1.161,0,0,1,.336-.883A1.238,1.238,0,0,1,97.238,14.672Zm8.586-4.039h2.734l-.359,2.039h-2.727l-.555,3.188h-2.1l.555-3.187h-2.75l.359-2.039h2.742l.531-3.055h2.1Zm8.289-1.1,2.68-3.906h2.75l-4.18,5.75L117.722,17h-2.531L113.7,13.031,110.957,17h-2.781l4.273-5.844L110.16,5.625h2.5Zm6.679,7.533-.109.583a1.774,1.774,0,0,1,1.435-.67,1.183,1.183,0,0,1,1.03.51,2.057,2.057,0,0,1,.242,1.376L122.87,22h-1.285l.529-3.149a1.474,1.474,0,0,0,.009-.324.522.522,0,0,0-.583-.478,1.106,1.106,0,0,0-.907.469L120.017,22h-1.285l.857-4.931ZM68.137,41H65.918l-3.164-7.586L61.434,41H59.145l1.977-11.375h2.211l3.172,7.6,1.32-7.6h2.281Z" transform="translate(-6599 -7763)" fill="#12263f"/>
    <path id="Trazado_716031" data-name="Trazado 716031" d="M13.773,17h-2.2l1.5-8.656L10.3,9.18l.344-1.93L15.4,5.609l.289-.008Zm2.863,24H14.418l-3.164-7.586L9.934,41H7.645L9.621,29.625h2.211L15,37.227l1.32-7.6h2.281Z" transform="translate(-6450 -7763)" fill="#12263f"/>
    <path id="Trazado_716032" data-name="Trazado 716032" d="M15.273,10H13.886L11.909,5.259,11.083,10H9.653l1.235-7.109H12.27l1.982,4.751.825-4.751H16.5Z" transform="translate(-6424 -7772)" fill="#12263f"/>
    <path id="Trazado_716033" data-name="Trazado 716033" d="M7.551,10H6.164l.918-5.283H8.469ZM7.243,3.374a.688.688,0,0,1,.215-.542.827.827,0,0,1,1.084-.024.685.685,0,0,1,.239.518.707.707,0,0,1-.2.527.76.76,0,0,1-.554.234.772.772,0,0,1-.54-.186A.682.682,0,0,1,7.243,3.374Zm6.465,2.983H9.465L9.67,5.205h4.243Zm-.366,2.114H9.1L9.3,7.319h4.243ZM17.595,10H16.218l.938-5.41-1.729.522.215-1.206L18.61,2.881l.181,0Z" transform="translate(-6424 -7726)" fill="#12263f"/>
    <path id="Trazado_716034" data-name="Trazado 716034" d="M17.021,22.482,8.73,31.5l11.045.029-.6,3.413H2.4l.425-2.417,9.917-10.51L6.43,11.649l.352-1.978H23.071l-.6,3.413H11.733l5.332,8.884Z" transform="translate(-6428 -7763)" fill="#12263f"/>
    <path id="Trazado_716035" data-name="Trazado 716035" d="M5.652,11.055,7.426,8.547H9.9L6.84,12.8,8.551,17H6.316L5.277,14.359,3.41,17H.918l3.188-4.422L2.473,8.547H4.707Zm15.836.117H14.7l.328-1.844h6.789ZM20.9,14.555H14.113l.328-1.844H21.23Z" transform="translate(-6627 -7749)" fill="#12263f"/>
    <path id="Trazado_716036" data-name="Trazado 716036" d="M10.882,11.055l1.773-2.508h2.477L12.069,12.8,13.78,17H11.546l-1.039-2.641L8.64,17H6.148l3.188-4.422L7.7,8.547H9.937ZM16.136,22H14.842l.857-4.931h1.294Zm-.287-6.184a.642.642,0,0,1,.2-.506.771.771,0,0,1,1.012-.023.639.639,0,0,1,.223.483.66.66,0,0,1-.189.492.709.709,0,0,1-.517.219.721.721,0,0,1-.5-.173A.636.636,0,0,1,15.849,15.816Z" transform="translate(-6402 -7749)" fill="#12263f"/>
    <path id="Trazado_716037" data-name="Trazado 716037" d="M12.027,11.172H5.238l.328-1.844h6.789Zm-.586,3.383H4.652l.328-1.844H11.77Z" transform="translate(-6467 -7749)" fill="#12263f"/>
    <path id="Trazado_716038" data-name="Trazado 716038" d="M0,0H132" transform="translate(-6598.5 -7739.5)" fill="none" stroke="#707070" stroke-width="1.5"/>
    <path id="Trazado_716039" data-name="Trazado 716039" d="M0,0H18.5" transform="translate(-6446 -7739.5)" fill="none" stroke="#707070" stroke-width="1.5"/>
    <path id="Trazado_716040" data-name="Trazado 716040" d="M0,0H8" transform="translate(-6625.5 -7746.5)" fill="none" stroke="#12263f" stroke-width="2"/>
  </g>
</svg>
