<svg xmlns="http://www.w3.org/2000/svg" width="295" height="74" viewBox="0 0 295 74">
  <g id="Grupo_1013253" data-name="Grupo 1013253" transform="translate(-600 -4481)">
    <path id="Trazado_716047" data-name="Trazado 716047" d="M0,0H295V74H0Z" transform="translate(600 4481)" fill="#f6f6f6"/>
    <path id="Trazado_716048" data-name="Trazado 716048" d="M10.2,5.5l-.172,1.867-.43.008a4.28,4.28,0,0,0-3.867,2.953A3.049,3.049,0,0,1,8.023,9.4a2.518,2.518,0,0,1,1.559.516,2.868,2.868,0,0,1,.934,1.367,4.677,4.677,0,0,1,.211,1.914,4.54,4.54,0,0,1-.668,2.043,4.039,4.039,0,0,1-1.5,1.438,3.915,3.915,0,0,1-2.008.488,3.276,3.276,0,0,1-1.918-.629A3.391,3.391,0,0,1,3.461,14.9a5.156,5.156,0,0,1-.242-2.266l.086-.7A7.646,7.646,0,0,1,5.457,7.246,6.109,6.109,0,0,1,9.906,5.5Zm-2.93,5.7a1.734,1.734,0,0,0-1.023.282,2.541,2.541,0,0,0-.75.759l-.1.7a5.964,5.964,0,0,0-.031.767A2.062,2.062,0,0,0,5.7,14.89a1.069,1.069,0,0,0,.906.454,1.5,1.5,0,0,0,1.055-.376,2.33,2.33,0,0,0,.7-1.072,3.145,3.145,0,0,0,.148-1.37,1.68,1.68,0,0,0-.395-.967A1.117,1.117,0,0,0,7.273,11.2Zm4.414,8.656-1.164-.633.57-.914a4.9,4.9,0,0,0,.641-1.57l.289-1.656h1.859l-.227,1.438A5.172,5.172,0,0,1,11.688,19.852ZM23.938,8.586a3.118,3.118,0,0,1-1.953,2.6,2.864,2.864,0,0,1,1.266,2.625,3.227,3.227,0,0,1-1.242,2.453,4.309,4.309,0,0,1-2.859.891,3.576,3.576,0,0,1-2.5-.891,2.765,2.765,0,0,1-.855-2.312,3.31,3.31,0,0,1,2.227-2.859,2.7,2.7,0,0,1-1.07-2.383A3.274,3.274,0,0,1,18.91,5.844a4.279,4.279,0,0,1,1.9-.375,3.315,3.315,0,0,1,2.344.879A2.736,2.736,0,0,1,23.938,8.586Zm-2.859,5.067a1.489,1.489,0,0,0-.242-1.115,1.166,1.166,0,0,0-.969-.46,1.677,1.677,0,0,0-1.223.46,2,2,0,0,0-.613,1.247,1.462,1.462,0,0,0,.238,1.1,1.185,1.185,0,0,0,.98.448,1.675,1.675,0,0,0,1.223-.452A1.974,1.974,0,0,0,21.078,13.652ZM21.711,8.7a1.423,1.423,0,0,0-.2-1.017.976.976,0,0,0-.812-.393,1.38,1.38,0,0,0-1.047.409,1.843,1.843,0,0,0-.516,1.126,1.534,1.534,0,0,0,.191,1.032.939.939,0,0,0,.816.417,1.371,1.371,0,0,0,1.047-.425A1.9,1.9,0,0,0,21.711,8.7ZM33.8,10.633h2.734l-.359,2.039H33.453L32.9,15.859H30.8l.555-3.187H28.6l.359-2.039H31.7l.531-3.055h2.1Zm8.133.742,1.531-5.75h6.219l-.3,1.883H45.023l-.75,2.461a3.016,3.016,0,0,1,1.641-.437,2.693,2.693,0,0,1,2.262,1.035,3.855,3.855,0,0,1,.676,2.73,4.423,4.423,0,0,1-.66,2.023A3.852,3.852,0,0,1,46.7,16.7a4.108,4.108,0,0,1-2.031.461,3.613,3.613,0,0,1-1.746-.441,3.12,3.12,0,0,1-1.223-1.2,3.409,3.409,0,0,1-.445-1.7h2.164a1.7,1.7,0,0,0,.383,1.09,1.259,1.259,0,0,0,.953.41,1.545,1.545,0,0,0,1.285-.57,2.845,2.845,0,0,0,.605-1.594,2.02,2.02,0,0,0-.27-1.406,1.3,1.3,0,0,0-1.105-.531,2.195,2.195,0,0,0-1.531.609Zm8.023,8.477L48.8,19.219l.57-.914a4.9,4.9,0,0,0,.641-1.57l.289-1.656h1.859l-.227,1.438A5.172,5.172,0,0,1,49.961,19.852ZM62.211,8.586a3.118,3.118,0,0,1-1.953,2.6,2.864,2.864,0,0,1,1.266,2.625,3.227,3.227,0,0,1-1.242,2.453,4.309,4.309,0,0,1-2.859.891,3.576,3.576,0,0,1-2.5-.891,2.765,2.765,0,0,1-.855-2.312A3.31,3.31,0,0,1,56.3,11.094a2.7,2.7,0,0,1-1.07-2.383,3.274,3.274,0,0,1,1.957-2.867,4.279,4.279,0,0,1,1.9-.375,3.315,3.315,0,0,1,2.344.879A2.736,2.736,0,0,1,62.211,8.586Zm-2.859,5.067a1.489,1.489,0,0,0-.242-1.115,1.166,1.166,0,0,0-.969-.46,1.677,1.677,0,0,0-1.223.46,2,2,0,0,0-.613,1.247,1.462,1.462,0,0,0,.238,1.1,1.185,1.185,0,0,0,.98.448,1.675,1.675,0,0,0,1.223-.452A1.974,1.974,0,0,0,59.352,13.652ZM59.984,8.7a1.423,1.423,0,0,0-.2-1.017.976.976,0,0,0-.812-.393,1.38,1.38,0,0,0-1.047.409,1.843,1.843,0,0,0-.516,1.126A1.534,1.534,0,0,0,57.6,9.857a.939.939,0,0,0,.816.417,1.371,1.371,0,0,0,1.047-.425A1.9,1.9,0,0,0,59.984,8.7Zm12.094,1.933h2.734l-.359,2.039H71.727l-.555,3.188h-2.1l.555-3.187h-2.75l.359-2.039h2.742l.531-3.055h2.1ZM86.75,5.5l-.172,1.867-.43.008a4.28,4.28,0,0,0-3.867,2.953A3.049,3.049,0,0,1,84.57,9.4a2.518,2.518,0,0,1,1.559.516,2.868,2.868,0,0,1,.934,1.367,4.677,4.677,0,0,1,.211,1.914,4.54,4.54,0,0,1-.668,2.043,4.039,4.039,0,0,1-1.5,1.438,3.915,3.915,0,0,1-2.008.488,3.276,3.276,0,0,1-1.918-.629A3.391,3.391,0,0,1,80.008,14.9a5.156,5.156,0,0,1-.242-2.266l.086-.7A7.646,7.646,0,0,1,82,7.246,6.109,6.109,0,0,1,86.453,5.5Zm-2.93,5.7a1.734,1.734,0,0,0-1.023.282,2.54,2.54,0,0,0-.75.759l-.1.7a5.964,5.964,0,0,0-.031.767,2.062,2.062,0,0,0,.336,1.182,1.069,1.069,0,0,0,.906.454,1.5,1.5,0,0,0,1.055-.376,2.33,2.33,0,0,0,.7-1.072,3.145,3.145,0,0,0,.148-1.37,1.68,1.68,0,0,0-.395-.967A1.117,1.117,0,0,0,83.82,11.2Zm4.414,8.656-1.164-.633.57-.914a4.9,4.9,0,0,0,.641-1.57l.289-1.656H90.43L90.2,16.516A5.172,5.172,0,0,1,88.234,19.852ZM99.445,17H91.867l.258-1.641,4.039-3.789A8.947,8.947,0,0,0,97.813,9.68a2.214,2.214,0,0,0,.3-1.422A1.061,1.061,0,0,0,97,7.266a1.6,1.6,0,0,0-1.254.523A2.453,2.453,0,0,0,95.133,9.2l-2.2.008a3.889,3.889,0,0,1,2.152-3.277,4.405,4.405,0,0,1,2.051-.473,3.5,3.5,0,0,1,2.469.891,2.756,2.756,0,0,1,.781,2.289A5.546,5.546,0,0,1,98.484,12l-1.125,1.07-2.328,2.094,4.7.016Zm10.906-6.367h2.734l-.359,2.039H110l-.555,3.188h-2.1l.555-3.187h-2.75l.359-2.039h2.742l.531-3.055h2.1ZM125.023,5.5l-.172,1.867-.43.008a4.28,4.28,0,0,0-3.867,2.953,3.049,3.049,0,0,1,2.289-.93,2.518,2.518,0,0,1,1.559.516,2.868,2.868,0,0,1,.934,1.367,4.677,4.677,0,0,1,.211,1.914,4.54,4.54,0,0,1-.668,2.043,4.039,4.039,0,0,1-1.5,1.438,3.915,3.915,0,0,1-2.008.488,3.276,3.276,0,0,1-1.918-.629,3.391,3.391,0,0,1-1.168-1.637,5.156,5.156,0,0,1-.242-2.266l.086-.7a7.646,7.646,0,0,1,2.152-4.684A6.109,6.109,0,0,1,124.727,5.5Zm-2.93,5.7a1.734,1.734,0,0,0-1.023.282,2.54,2.54,0,0,0-.75.759l-.1.7a5.964,5.964,0,0,0-.031.767,2.062,2.062,0,0,0,.336,1.182,1.069,1.069,0,0,0,.906.454,1.5,1.5,0,0,0,1.055-.376,2.33,2.33,0,0,0,.7-1.072,3.145,3.145,0,0,0,.148-1.37,1.68,1.68,0,0,0-.395-.967A1.117,1.117,0,0,0,122.094,11.2Zm4.414,8.656-1.164-.633.57-.914a4.9,4.9,0,0,0,.641-1.57l.289-1.656H128.7l-.227,1.438A5.172,5.172,0,0,1,126.508,19.852Zm9.586-7.406a2.919,2.919,0,0,1-2.055.875,2.618,2.618,0,0,1-1.594-.5,2.88,2.88,0,0,1-.973-1.371,4.375,4.375,0,0,1-.223-1.9,4.716,4.716,0,0,1,.8-2.273,4.133,4.133,0,0,1,1.789-1.5,3.737,3.737,0,0,1,1.594-.3,2.925,2.925,0,0,1,2.242.984,4.19,4.19,0,0,1,.945,2.555,7.063,7.063,0,0,1-.023,1.1l-.086.672a7.587,7.587,0,0,1-2.121,4.656,6.149,6.149,0,0,1-4.457,1.68h-.164l.172-1.891h.117a4.212,4.212,0,0,0,2.531-.668A4.236,4.236,0,0,0,136.094,12.445Zm-1.445-.844a1.956,1.956,0,0,0,1.656-.959l.133-.944a6.307,6.307,0,0,0,.039-.741,2.247,2.247,0,0,0-.312-1.2,1,1,0,0,0-.859-.468,1.432,1.432,0,0,0-1.012.4,2.536,2.536,0,0,0-.68,1.119,3.519,3.519,0,0,0-.168,1.411,1.741,1.741,0,0,0,.371,1A1.059,1.059,0,0,0,134.648,11.6Zm13.977-.969h2.734L151,12.672h-2.727l-.555,3.188h-2.1l.555-3.187h-2.75l.359-2.039h2.742l.531-3.055h2.1ZM163.3,5.5l-.172,1.867-.43.008a4.28,4.28,0,0,0-3.867,2.953,3.049,3.049,0,0,1,2.289-.93,2.518,2.518,0,0,1,1.559.516,2.868,2.868,0,0,1,.934,1.367,4.677,4.677,0,0,1,.211,1.914,4.54,4.54,0,0,1-.668,2.043,4.039,4.039,0,0,1-1.5,1.438,3.915,3.915,0,0,1-2.008.488,3.276,3.276,0,0,1-1.918-.629,3.391,3.391,0,0,1-1.168-1.637,5.156,5.156,0,0,1-.242-2.266l.086-.7a7.646,7.646,0,0,1,2.152-4.684A6.109,6.109,0,0,1,163,5.5Zm-2.93,5.7a1.734,1.734,0,0,0-1.023.282,2.541,2.541,0,0,0-.75.759l-.1.7a5.964,5.964,0,0,0-.031.767,2.062,2.062,0,0,0,.336,1.182,1.069,1.069,0,0,0,.906.454,1.5,1.5,0,0,0,1.055-.376,2.33,2.33,0,0,0,.7-1.072,3.145,3.145,0,0,0,.148-1.37,1.68,1.68,0,0,0-.395-.967A1.117,1.117,0,0,0,160.367,11.2ZM80.211,35.375l1.531-5.75h6.219l-.3,1.883H83.3l-.75,2.461a3.016,3.016,0,0,1,1.641-.437,2.693,2.693,0,0,1,2.262,1.035,3.855,3.855,0,0,1,.676,2.73,4.423,4.423,0,0,1-.66,2.023A3.852,3.852,0,0,1,84.977,40.7a4.108,4.108,0,0,1-2.031.461,3.613,3.613,0,0,1-1.746-.441,3.12,3.12,0,0,1-1.223-1.2,3.409,3.409,0,0,1-.445-1.7H81.7a1.7,1.7,0,0,0,.383,1.09,1.259,1.259,0,0,0,.953.41,1.545,1.545,0,0,0,1.285-.57,2.845,2.845,0,0,0,.605-1.594,2.02,2.02,0,0,0-.27-1.406,1.3,1.3,0,0,0-1.105-.531,2.195,2.195,0,0,0-1.531.609Z" transform="translate(651 4498)" fill="#12263f"/>
    <path id="Trazado_716049" data-name="Trazado 716049" d="M21.145,11.172H14.355l.328-1.844h6.789Zm-.586,3.383H13.77l.328-1.844h6.789ZM33.785,5.5l-.172,1.867-.43.008a4.28,4.28,0,0,0-3.867,2.953,3.049,3.049,0,0,1,2.289-.93,2.518,2.518,0,0,1,1.559.516,2.868,2.868,0,0,1,.934,1.367,4.677,4.677,0,0,1,.211,1.914,4.54,4.54,0,0,1-.668,2.043,4.039,4.039,0,0,1-1.5,1.438,3.915,3.915,0,0,1-2.008.488,3.276,3.276,0,0,1-1.918-.629A3.391,3.391,0,0,1,27.043,14.9a5.156,5.156,0,0,1-.242-2.266l.086-.7a7.646,7.646,0,0,1,2.152-4.684A6.109,6.109,0,0,1,33.488,5.5Zm-2.93,5.7a1.734,1.734,0,0,0-1.023.282,2.541,2.541,0,0,0-.75.759l-.1.7a5.964,5.964,0,0,0-.031.767,2.062,2.062,0,0,0,.336,1.182,1.069,1.069,0,0,0,.906.454,1.5,1.5,0,0,0,1.055-.376,2.33,2.33,0,0,0,.7-1.072,3.145,3.145,0,0,0,.148-1.37,1.68,1.68,0,0,0-.395-.967A1.117,1.117,0,0,0,30.855,11.2Zm4.414,8.656-1.164-.633.57-.914a4.9,4.9,0,0,0,.641-1.57l.289-1.656h1.859l-.227,1.438A5.172,5.172,0,0,1,35.27,19.852Zm6.922-9.539,1.055.008a2.055,2.055,0,0,0,1.348-.445,1.737,1.737,0,0,0,.629-1.2,1.261,1.261,0,0,0-.242-1.012,1.23,1.23,0,0,0-.961-.395,1.642,1.642,0,0,0-1.1.348,1.494,1.494,0,0,0-.559.941l-2.2.016a2.952,2.952,0,0,1,1.184-2.254,4.165,4.165,0,0,1,2.707-.863,3.716,3.716,0,0,1,2.547.9,2.739,2.739,0,0,1,.852,2.3,3.078,3.078,0,0,1-2.07,2.547A2.381,2.381,0,0,1,46.5,12.246a2.826,2.826,0,0,1,.309,1.5,3.267,3.267,0,0,1-.633,1.813,3.7,3.7,0,0,1-1.547,1.2,4.962,4.962,0,0,1-2.094.395,3.557,3.557,0,0,1-2.484-.91,3.03,3.03,0,0,1-.945-2.363h2.188a1.412,1.412,0,0,0,.355,1.035,1.385,1.385,0,0,0,1.035.418A1.933,1.933,0,0,0,44,14.9a1.761,1.761,0,0,0,.641-1.179,1.428,1.428,0,0,0-.277-1.2,1.553,1.553,0,0,0-1.152-.439l-1.3-.008Zm12.859,2.406H56.3l-.32,1.82H54.73L54.3,17H52.1l.43-2.461H48.012L48.168,13l5.8-7.375h2.3ZM50.457,12.7l2.391.016.773-4.047-.2.281Z" transform="translate(821 4512)" fill="#12263f"/>
    <path id="Trazado_716050" data-name="Trazado 716050" d="M0,0H169" transform="translate(651.5 4521.5)" fill="none" stroke="#707070" stroke-width="1.5"/>
    <path id="Trazado_716051" data-name="Trazado 716051" d="M5.652,11.055,7.426,8.547H9.9L6.84,12.8,8.551,17H6.316L5.277,14.359,3.41,17H.918l3.188-4.422L2.473,8.547H4.707Zm15.836.117H14.7l.328-1.844h6.789ZM20.9,14.555H14.113l.328-1.844H21.23Z" transform="translate(617 4512)" fill="#12263f"/>
    <path id="Trazado_716052" data-name="Trazado 716052" d="M0,0H8" transform="translate(619.5 4514.5)" fill="none" stroke="#12263f" stroke-width="2"/>
  </g>
</svg>
