<svg xmlns="http://www.w3.org/2000/svg" width="251" height="117" viewBox="0 0 251 117">
  <g id="Grupo_1013258" data-name="Grupo 1013258" transform="translate(5622 6942)">
    <path id="Trazado_716081" data-name="Trazado 716081" d="M0,0H251V117H0Z" transform="translate(-5622 -6942)" fill="#f6f6f6"/>
    <path id="Trazado_716072" data-name="Trazado 716072" d="M0,0H54" transform="translate(-5564 -6905)" fill="none" stroke="#707070" stroke-width="1.5"/>
    <path id="Trazado_716073" data-name="Trazado 716073" d="M0,0H80" transform="translate(-5482 -6882)" fill="none" stroke="#707070" stroke-width="1.5"/>
    <path id="Trazado_716074" data-name="Trazado 716074" d="M0,0H54" transform="translate(-5564 -6857)" fill="none" stroke="#707070" stroke-width="1.5"/>
    <path id="Trazado_716075" data-name="Trazado 716075" d="M7.379,6.469,7.012,8.547H8.418L8.129,10.2H6.723L6,14.438a1.077,1.077,0,0,0,.063.609q.109.211.531.227.125.008.672-.039l-.156,1.727a3.706,3.706,0,0,1-1.266.18,1.985,1.985,0,0,1-1.617-.68,2.456,2.456,0,0,1-.437-1.8L4.52,10.2h-1.2l.289-1.656h1.2l.359-2.078Zm12.781,4.7H13.371L13.7,9.328h6.789Zm-.586,3.383H12.785l.328-1.844H19.9Z" transform="translate(-5600 -6892)" fill="#12263f"/>
    <path id="Trazado_716076" data-name="Trazado 716076" d="M17.5,11.172H10.711l.328-1.844h6.789Zm-.586,3.383H10.125l.328-1.844h6.789Z" transform="translate(-5507 -6892)" fill="#12263f"/>
    <path id="Trazado_716077" data-name="Trazado 716077" d="M9.082,17h-2.2l1.5-8.656L5.613,9.18l.344-1.93,4.75-1.641L11,5.6Zm7.508.156a2.884,2.884,0,0,1-2.281-1,4.205,4.205,0,0,1-.828-2.7,8.6,8.6,0,0,1,.063-1.156l.32-2.133a6.638,6.638,0,0,1,1.508-3.531,3.652,3.652,0,0,1,2.883-1.164,2.9,2.9,0,0,1,2.285,1,4.161,4.161,0,0,1,.832,2.691,8.673,8.673,0,0,1-.062,1.164l-.328,2.117a6.781,6.781,0,0,1-1.5,3.551A3.63,3.63,0,0,1,16.59,17.156ZM19.238,8.9q0-1.552-1.094-1.606-1.578-.07-2.008,2.4l-.391,2.635a9.495,9.495,0,0,0-.125,1.372q-.039,1.583,1.086,1.637,1.586.1,2.016-2.472l.414-2.776A8.178,8.178,0,0,0,19.238,8.9Zm6.336,8.261a2.884,2.884,0,0,1-2.281-1,4.205,4.205,0,0,1-.828-2.7,8.6,8.6,0,0,1,.063-1.156l.32-2.133a6.638,6.638,0,0,1,1.508-3.531,3.652,3.652,0,0,1,2.883-1.164,2.9,2.9,0,0,1,2.285,1,4.161,4.161,0,0,1,.832,2.691,8.673,8.673,0,0,1-.062,1.164l-.328,2.117a6.781,6.781,0,0,1-1.5,3.551A3.63,3.63,0,0,1,25.574,17.156ZM28.223,8.9q0-1.552-1.094-1.606-1.578-.07-2.008,2.4l-.391,2.635a9.494,9.494,0,0,0-.125,1.372q-.039,1.583,1.086,1.637,1.586.1,2.016-2.472l.414-2.776A8.178,8.178,0,0,0,28.223,8.9Zm6.336,8.261a2.884,2.884,0,0,1-2.281-1,4.205,4.205,0,0,1-.828-2.7,8.6,8.6,0,0,1,.063-1.156l.32-2.133A6.638,6.638,0,0,1,33.34,6.633a3.652,3.652,0,0,1,2.883-1.164,2.9,2.9,0,0,1,2.285,1,4.161,4.161,0,0,1,.832,2.691,8.673,8.673,0,0,1-.062,1.164l-.328,2.117a6.781,6.781,0,0,1-1.5,3.551A3.63,3.63,0,0,1,34.559,17.156ZM37.207,8.9q0-1.552-1.094-1.606-1.578-.07-2.008,2.4l-.391,2.635A9.495,9.495,0,0,0,33.59,13.7q-.039,1.583,1.086,1.637,1.586.1,2.016-2.472l.414-2.776A8.178,8.178,0,0,0,37.207,8.9Zm9.273,6.222h4.828L50.98,17H43.863L45.84,5.625h2.289ZM28.773,41h-2.2l1.5-8.656L25.3,33.18l.344-1.93,4.75-1.641.289-.008Z" transform="translate(-5566 -6927)" fill="#12263f"/>
    <path id="Trazado_716078" data-name="Trazado 716078" d="M6.555,17h-2.2l1.5-8.656L3.086,9.18,3.43,7.25,8.18,5.609,8.469,5.6Zm7.508.156a2.884,2.884,0,0,1-2.281-1,4.205,4.205,0,0,1-.828-2.7,8.6,8.6,0,0,1,.063-1.156l.32-2.133a6.638,6.638,0,0,1,1.508-3.531,3.652,3.652,0,0,1,2.883-1.164,2.9,2.9,0,0,1,2.285,1,4.161,4.161,0,0,1,.832,2.691,8.673,8.673,0,0,1-.062,1.164l-.328,2.117a6.781,6.781,0,0,1-1.5,3.551A3.63,3.63,0,0,1,14.063,17.156ZM16.711,8.9q0-1.552-1.094-1.606-1.578-.07-2.008,2.4l-.391,2.635a9.495,9.495,0,0,0-.125,1.372q-.039,1.583,1.086,1.637,1.586.1,2.016-2.472l.414-2.776A8.178,8.178,0,0,0,16.711,8.9Zm6.336,8.261a2.884,2.884,0,0,1-2.281-1,4.205,4.205,0,0,1-.828-2.7A8.6,8.6,0,0,1,20,12.3l.32-2.133a6.638,6.638,0,0,1,1.508-3.531,3.652,3.652,0,0,1,2.883-1.164,2.9,2.9,0,0,1,2.285,1,4.161,4.161,0,0,1,.832,2.691,8.673,8.673,0,0,1-.062,1.164l-.328,2.117a6.781,6.781,0,0,1-1.5,3.551A3.63,3.63,0,0,1,23.047,17.156ZM25.7,8.9q0-1.552-1.094-1.606-1.578-.07-2.008,2.4L22.2,12.326a9.494,9.494,0,0,0-.125,1.372q-.039,1.583,1.086,1.637,1.586.1,2.016-2.472l.414-2.776A8.178,8.178,0,0,0,25.7,8.9Zm6.336,8.261a2.884,2.884,0,0,1-2.281-1,4.205,4.205,0,0,1-.828-2.7,8.6,8.6,0,0,1,.063-1.156l.32-2.133a6.638,6.638,0,0,1,1.508-3.531A3.652,3.652,0,0,1,33.7,5.469a2.9,2.9,0,0,1,2.285,1,4.161,4.161,0,0,1,.832,2.691,8.673,8.673,0,0,1-.062,1.164l-.328,2.117a6.781,6.781,0,0,1-1.5,3.551A3.63,3.63,0,0,1,32.031,17.156ZM34.68,8.9q0-1.552-1.094-1.606-1.578-.07-2.008,2.4l-.391,2.635a9.494,9.494,0,0,0-.125,1.372q-.039,1.583,1.086,1.637,1.586.1,2.016-2.472l.414-2.776A8.178,8.178,0,0,0,34.68,8.9Zm9.273,6.222h4.828L48.453,17H41.336L43.313,5.625H45.6ZM56.664,9.449l-2.281-.718L55.047,7.4l2.242,1,.336-2.778h1.5L58.5,8.333l2.4-.921.2,1.506-2.562.695L59.8,11.738l-1.258.813-.984-2.289L55.82,12.434l-1.164-.93Zm12.914,5.168q.125-.625-.867-.906L68,13.531q-2.523-.7-2.453-2.453a2.428,2.428,0,0,1,1.059-1.949,3.942,3.942,0,0,1,2.457-.738,3.536,3.536,0,0,1,2.313.758,2.5,2.5,0,0,1,.9,1.977l-2.187-.008a.963.963,0,0,0-1.078-1.1,1.552,1.552,0,0,0-.895.258,1.061,1.061,0,0,0-.465.7q-.117.625.945.883l.313.07a6.285,6.285,0,0,1,1.648.59,2.488,2.488,0,0,1,.879.824,2.04,2.04,0,0,1,.285,1.18,2.251,2.251,0,0,1-.52,1.406,3.18,3.18,0,0,1-1.359.93,4.736,4.736,0,0,1-1.816.3,3.568,3.568,0,0,1-2.344-.809,2.607,2.607,0,0,1-.953-2.051l2.078.016a1.142,1.142,0,0,0,1.3,1.227,1.845,1.845,0,0,0,1-.25A.987.987,0,0,0,69.578,14.617ZM23.656,41.156a2.884,2.884,0,0,1-2.281-1,4.205,4.205,0,0,1-.828-2.7,8.6,8.6,0,0,1,.063-1.156l.32-2.133a6.638,6.638,0,0,1,1.508-3.531,3.652,3.652,0,0,1,2.883-1.164,2.9,2.9,0,0,1,2.285,1,4.161,4.161,0,0,1,.832,2.691,8.673,8.673,0,0,1-.062,1.164l-.328,2.117a6.781,6.781,0,0,1-1.5,3.551A3.63,3.63,0,0,1,23.656,41.156ZM26.3,32.9q0-1.552-1.094-1.606-1.578-.07-2.008,2.4l-.391,2.635a9.494,9.494,0,0,0-.125,1.372q-.039,1.583,1.086,1.637,1.586.1,2.016-2.472l.414-2.776A8.178,8.178,0,0,0,26.3,32.9Zm2.789,10.956-1.164-.633.57-.914a4.9,4.9,0,0,0,.641-1.57l.289-1.656h1.859l-.227,1.438A5.172,5.172,0,0,1,29.094,43.852Zm10.8-7.133h1.25l-.32,1.82H39.57L39.141,41h-2.2l.43-2.461H32.852L33.008,37l5.8-7.375h2.3ZM35.3,36.7l2.391.016.773-4.047-.2.281ZM48.43,39.117h4.828L52.93,41H45.813l1.977-11.375h2.289Z" transform="translate(-5481 -6904)" fill="#12263f"/>
    <path id="Trazado_716079" data-name="Trazado 716079" d="M14.656,17.156a2.884,2.884,0,0,1-2.281-1,4.205,4.205,0,0,1-.828-2.7,8.6,8.6,0,0,1,.063-1.156l.32-2.133a6.638,6.638,0,0,1,1.508-3.531A3.652,3.652,0,0,1,16.32,5.469a2.9,2.9,0,0,1,2.285,1,4.161,4.161,0,0,1,.832,2.691,8.673,8.673,0,0,1-.062,1.164l-.328,2.117a6.781,6.781,0,0,1-1.5,3.551A3.63,3.63,0,0,1,14.656,17.156ZM17.3,8.9q0-1.552-1.094-1.606-1.578-.07-2.008,2.4l-.391,2.635a9.495,9.495,0,0,0-.125,1.372q-.039,1.583,1.086,1.637,1.586.1,2.016-2.472l.414-2.776A8.178,8.178,0,0,0,17.3,8.9Zm2.789,10.956-1.164-.633.57-.914a4.9,4.9,0,0,0,.641-1.57l.289-1.656h1.859l-.227,1.438A5.172,5.172,0,0,1,20.094,19.852Zm10.8-7.133h1.25l-.32,1.82H30.57L30.141,17h-2.2l.43-2.461H23.852L24.008,13l5.8-7.375h2.3ZM26.3,12.7l2.391.016.773-4.047-.2.281ZM39.43,15.117h4.828L43.93,17H36.813L38.789,5.625h2.289Zm-10.535,23.5q.125-.625-.867-.906l-.711-.18q-2.523-.7-2.453-2.453a2.428,2.428,0,0,1,1.059-1.949,3.942,3.942,0,0,1,2.457-.738,3.536,3.536,0,0,1,2.313.758,2.5,2.5,0,0,1,.9,1.977L29.4,35.117a.963.963,0,0,0-1.078-1.1,1.551,1.551,0,0,0-.895.258,1.061,1.061,0,0,0-.465.7q-.117.625.945.883l.313.07a6.285,6.285,0,0,1,1.648.59,2.488,2.488,0,0,1,.879.824,2.04,2.04,0,0,1,.285,1.18,2.251,2.251,0,0,1-.52,1.406,3.18,3.18,0,0,1-1.359.93,4.736,4.736,0,0,1-1.816.3A3.568,3.568,0,0,1,25,40.348a2.607,2.607,0,0,1-.953-2.051l2.078.016a1.142,1.142,0,0,0,1.3,1.227,1.845,1.845,0,0,0,1-.25A.988.988,0,0,0,28.895,38.617Z" transform="translate(-5566 -6879)" fill="#12263f"/>
    <path id="Trazado_716080" data-name="Trazado 716080" d="M0,0H72" transform="translate(-5573 -6882)" fill="none" stroke="#707070" stroke-width="1.5"/>
  </g>
</svg>
