<svg xmlns="http://www.w3.org/2000/svg" width="251" height="66" viewBox="0 0 251 66">
  <g id="Grupo_1013259" data-name="Grupo 1013259" transform="translate(6183 6295)">
    <path id="Trazado_716082" data-name="Trazado 716082" d="M0,0H251V66H0Z" transform="translate(-6183 -6295)" fill="#f6f6f6"/>
    <path id="Trazado_716083" data-name="Trazado 716083" d="M0,0H85" transform="translate(-6088 -6264)" fill="none" stroke="#707070" stroke-width="1.5"/>
    <path id="Trazado_716084" data-name="Trazado 716084" d="M7.379,6.469,7.012,8.547H8.418L8.129,10.2H6.723L6,14.438a1.077,1.077,0,0,0,.063.609q.109.211.531.227.125.008.672-.039l-.156,1.727a3.706,3.706,0,0,1-1.266.18,1.985,1.985,0,0,1-1.617-.68,2.456,2.456,0,0,1-.437-1.8L4.52,10.2h-1.2l.289-1.656h1.2l.359-2.078Zm12.781,4.7H13.371L13.7,9.328h6.789Zm-.586,3.383H12.785l.328-1.844H19.9Z" transform="translate(-6119 -6275)" fill="#12263f"/>
    <path id="Trazado_716085" data-name="Trazado 716085" d="M13.055,17h-2.2l1.5-8.656L9.586,9.18,9.93,7.25l4.75-1.641.289-.008Zm7.508.156a2.884,2.884,0,0,1-2.281-1,4.205,4.205,0,0,1-.828-2.7,8.6,8.6,0,0,1,.063-1.156l.32-2.133a6.638,6.638,0,0,1,1.508-3.531,3.652,3.652,0,0,1,2.883-1.164,2.9,2.9,0,0,1,2.285,1,4.161,4.161,0,0,1,.832,2.691,8.673,8.673,0,0,1-.062,1.164l-.328,2.117a6.781,6.781,0,0,1-1.5,3.551A3.63,3.63,0,0,1,20.563,17.156ZM23.211,8.9q0-1.552-1.094-1.606-1.578-.07-2.008,2.4l-.391,2.635a9.494,9.494,0,0,0-.125,1.372q-.039,1.583,1.086,1.637,1.586.1,2.016-2.472l.414-2.776A8.178,8.178,0,0,0,23.211,8.9Zm6.336,8.261a2.884,2.884,0,0,1-2.281-1,4.205,4.205,0,0,1-.828-2.7A8.6,8.6,0,0,1,26.5,12.3l.32-2.133a6.638,6.638,0,0,1,1.508-3.531,3.652,3.652,0,0,1,2.883-1.164,2.9,2.9,0,0,1,2.285,1,4.161,4.161,0,0,1,.832,2.691,8.673,8.673,0,0,1-.062,1.164l-.328,2.117a6.781,6.781,0,0,1-1.5,3.551A3.63,3.63,0,0,1,29.547,17.156ZM32.2,8.9q0-1.552-1.094-1.606-1.578-.07-2.008,2.4L28.7,12.326a9.494,9.494,0,0,0-.125,1.372q-.039,1.583,1.086,1.637,1.586.1,2.016-2.472l.414-2.776A8.178,8.178,0,0,0,32.2,8.9Zm6.336,8.261a2.884,2.884,0,0,1-2.281-1,4.205,4.205,0,0,1-.828-2.7,8.6,8.6,0,0,1,.063-1.156l.32-2.133a6.638,6.638,0,0,1,1.508-3.531A3.652,3.652,0,0,1,40.2,5.469a2.9,2.9,0,0,1,2.285,1,4.161,4.161,0,0,1,.832,2.691,8.673,8.673,0,0,1-.062,1.164l-.328,2.117a6.781,6.781,0,0,1-1.5,3.551A3.63,3.63,0,0,1,38.531,17.156ZM41.18,8.9q0-1.552-1.094-1.606-1.578-.07-2.008,2.4l-.391,2.635a9.495,9.495,0,0,0-.125,1.372q-.039,1.583,1.086,1.637,1.586.1,2.016-2.472l.414-2.776A8.178,8.178,0,0,0,41.18,8.9Zm9.273,6.222h4.828L54.953,17H47.836L49.813,5.625H52.1ZM63.164,9.449l-2.281-.718L61.547,7.4l2.242,1,.336-2.778h1.5L65,8.333l2.4-.921.2,1.506-2.562.695L66.3,11.738l-1.258.813-.984-2.289L62.32,12.434l-1.164-.93Zm12.914,5.168q.125-.625-.867-.906l-.711-.18q-2.523-.7-2.453-2.453a2.428,2.428,0,0,1,1.059-1.949,3.942,3.942,0,0,1,2.457-.738,3.536,3.536,0,0,1,2.313.758,2.5,2.5,0,0,1,.9,1.977l-2.187-.008a.963.963,0,0,0-1.078-1.1,1.552,1.552,0,0,0-.895.258,1.061,1.061,0,0,0-.465.7q-.117.625.945.883l.313.07a6.285,6.285,0,0,1,1.648.59,2.488,2.488,0,0,1,.879.824,2.04,2.04,0,0,1,.285,1.18,2.251,2.251,0,0,1-.52,1.406,3.18,3.18,0,0,1-1.359.93,4.736,4.736,0,0,1-1.816.3,3.568,3.568,0,0,1-2.344-.809,2.607,2.607,0,0,1-.953-2.051l2.078.016a1.142,1.142,0,0,0,1.3,1.227,1.845,1.845,0,0,0,1-.25A.987.987,0,0,0,76.078,14.617ZM30.156,41.156a2.884,2.884,0,0,1-2.281-1,4.205,4.205,0,0,1-.828-2.7,8.6,8.6,0,0,1,.063-1.156l.32-2.133a6.638,6.638,0,0,1,1.508-3.531,3.652,3.652,0,0,1,2.883-1.164,2.9,2.9,0,0,1,2.285,1,4.161,4.161,0,0,1,.832,2.691,8.673,8.673,0,0,1-.062,1.164l-.328,2.117a6.781,6.781,0,0,1-1.5,3.551A3.63,3.63,0,0,1,30.156,41.156ZM32.8,32.9q0-1.552-1.094-1.606-1.578-.07-2.008,2.4l-.391,2.635a9.494,9.494,0,0,0-.125,1.372q-.039,1.583,1.086,1.637,1.586.1,2.016-2.472l.414-2.776A8.178,8.178,0,0,0,32.8,32.9Zm2.789,10.956-1.164-.633L35,42.3a4.9,4.9,0,0,0,.641-1.57l.289-1.656h1.859l-.227,1.438A5.172,5.172,0,0,1,35.594,43.852Zm10.8-7.133h1.25l-.32,1.82H46.07L45.641,41h-2.2l.43-2.461H39.352L39.508,37l5.8-7.375h2.3ZM41.8,36.7l2.391.016.773-4.047-.2.281ZM54.93,39.117h4.828L59.43,41H52.313l1.977-11.375h2.289Z" transform="translate(-6089 -6286)" fill="#12263f"/>
    <path id="Trazado_716086" data-name="Trazado 716086" d="M0,0H9" transform="translate(-6042.5 -6275.5)" fill="none" stroke="#12263f" stroke-width="1"/>
    <path id="Trazado_716087" data-name="Trazado 716087" d="M0,0H9" transform="translate(-6038 -6251.5)" fill="none" stroke="#12263f" stroke-width="1"/>
  </g>
</svg>
