<svg xmlns="http://www.w3.org/2000/svg" xmlns:xlink="http://www.w3.org/1999/xlink" width="79.333" height="131.914" viewBox="0 0 79.333 131.914">
  <defs>
    <clipPath id="clip-path">
      <rect id="Rect치ngulo_346374" data-name="Rect치ngulo 346374" width="20.178" height="45.944" transform="translate(0 0)" fill="none" stroke="#12263f" stroke-width="1"/>
    </clipPath>
    <clipPath id="clip-path-2">
      <rect id="Rect치ngulo_346615" data-name="Rect치ngulo 346615" width="79.333" height="79.333" fill="none"/>
    </clipPath>
  </defs>
  <g id="Grupo_1002616" data-name="Grupo 1002616" transform="translate(-1270.8 -252.334)">
    <g id="Grupo_1002342" data-name="Grupo 1002342" transform="translate(-62.371 -52.09)">
      <g id="Grupo_1002315" data-name="Grupo 1002315" transform="translate(1347.438 436.338) rotate(-135)">
        <g id="Grupo_1002212" data-name="Grupo 1002212" clip-path="url(#clip-path)">
          <path id="Trazado_707910" data-name="Trazado 707910" d="M15,1.5C9.476,12.543,10.089,29.267,11.93,41.536" fill="none" stroke="#12263f" stroke-linecap="round" stroke-linejoin="round" stroke-width="3"/>
          <path id="Trazado_707911" data-name="Trazado 707911" d="M1.5,35.242c3.681,3.681,7.976,6.135,11.656,9.2a34.1,34.1,0,0,1,5.522-10.429" fill="none" stroke="#12263f" stroke-linecap="round" stroke-linejoin="round" stroke-width="3"/>
        </g>
      </g>
    </g>
    <g id="g1389" transform="translate(1270.8 252.334)">
      <g id="g1391" transform="translate(0 0)">
        <g id="Grupo_1002613" data-name="Grupo 1002613">
          <g id="Grupo_1002612" data-name="Grupo 1002612" clip-path="url(#clip-path-2)">
            <g id="g1393" transform="translate(1.665 0)">
              <g id="g1399" transform="translate(6.901 6.564)">
                <path id="path1401" d="M73.71,103.8c4.915-2.96,17.608-1.629,24.872,4.23,7.005-3.69,13.984-5.974,20.915-5.811L108.548,87.8a19.583,19.583,0,0,1-3.426-10.436l-.048-20.872H89.337L89.289,77.36A19.618,19.618,0,0,1,85.867,87.8Z" transform="translate(-73.71 -56.488)" fill="#f9f7f8" fill-rule="evenodd"/>
              </g>
              <g id="g1403" transform="translate(1.828 50.384)">
                <path id="path1405" d="M30.057,446.271c16.014,2.2,24.1-3.777,29.945-9.377-7.265-5.859-19.958-2.8-24.873.163l-1.976,2.6a19,19,0,0,0-3.1,6.615" transform="translate(-30.057 -433.563)" fill="#a1d4ff" fill-rule="evenodd"/>
              </g>
              <g id="g1407" transform="translate(1.177 49.727)">
                <path id="path1409" d="M33.746,456.348H73.6c3.373,0,5.7-1.212,7.185-3.1,3.386-5.367.993-14.819-1.506-18.408l-3.316-4.366c-8.077-4.642-13.91-2.271-20.915,1.419-7.361,3.878-16.018,9.21-29.945,9.377-1.827,7.019-.07,15.078,8.639,15.078" transform="translate(-24.456 -427.904)" fill="#22a6fe" fill-rule="evenodd"/>
              </g>
              <g id="g1411" transform="translate(56.004 12.178)">
                <path id="path1413" d="M503.9,133.952a7.44,7.44,0,0,0,7.647,0v-29.16H496.251v29.16a7.441,7.441,0,0,1,7.647,0" transform="translate(-496.251 -104.792)" fill="#f9f7f8" fill-rule="evenodd"/>
              </g>
              <g id="g1415" transform="translate(52.46 6.775)">
                <path id="path1417" d="M469.3,65.255H484.9a3.486,3.486,0,0,0,0-6.953H468.979a3.486,3.486,0,0,0,0,6.953Z" transform="translate(-465.751 -58.302)" fill="#a1d4ff" fill-rule="evenodd"/>
              </g>
              <g id="g1419" transform="translate(18.342 1.162)">
                <path id="path1421" d="M176.35,16.953h16.444a3.476,3.476,0,1,0,0-6.953H175.643a3.476,3.476,0,1,0,0,6.953Z" transform="translate(-172.164 -10)" fill="#a1d4ff" fill-rule="evenodd"/>
              </g>
              <g id="g1423" transform="translate(27.328 37.033)">
                <path id="path1425" d="M249.492,321.741a3.068,3.068,0,1,0,3.066-3.066,3.069,3.069,0,0,0-3.066,3.066" transform="translate(-249.492 -318.675)" fill="#a1d4ff" fill-rule="evenodd"/>
              </g>
              <g id="g1427" transform="translate(37.746 62.091)">
                <path id="path1429" d="M339.14,539a4.706,4.706,0,1,0,4.7-4.7,4.708,4.708,0,0,0-4.7,4.7" transform="translate(-339.14 -534.298)" fill="#a1d4ff" fill-rule="evenodd"/>
              </g>
              <g id="g1431" transform="translate(13.063 66.571)">
                <path id="path1433" d="M129.6,578.571a2.862,2.862,0,1,0-2.864-2.864,2.864,2.864,0,0,0,2.864,2.864" transform="translate(-126.736 -572.848)" fill="#a1d4ff" fill-rule="evenodd"/>
              </g>
              <g id="g1435" transform="translate(33.407 8.115)">
                <path id="path1437" d="M306.7,89.151l-.048-19.321H301.8l.048,19.321a19.585,19.585,0,0,0,3.426,10.436l9.1,12a18.513,18.513,0,0,1,6.7,2.429L310.131,99.587A19.584,19.584,0,0,1,306.7,89.151" transform="translate(-301.799 -69.83)" fill="#dddaec" fill-rule="evenodd"/>
              </g>
              <g id="g1439" transform="translate(43.258 49.867)">
                <path id="path1441" d="M399.181,435.723,396,431.542a18.51,18.51,0,0,0-6.7-2.429l1.849,2.429c4.743,6.254,5.916,25.874-4.577,25.874h7.067c3.373,0,5.7-1.212,7.185-3.1a7.612,7.612,0,0,1-1.507-4.546V435.908Z" transform="translate(-386.571 -429.113)" fill="#0593fc" fill-rule="evenodd"/>
              </g>
              <g id="g1443" transform="translate(34.114 1.162)">
                <path id="path1445" d="M316.221,13.474A3.488,3.488,0,0,0,312.743,10H307.9a3.476,3.476,0,0,1-.013,6.953h4.858a3.487,3.487,0,0,0,3.478-3.479" transform="translate(-307.885 -10)" fill="#80b4fb" fill-rule="evenodd"/>
              </g>
              <g id="g1447" transform="translate(67.371 13.728)">
                <path id="path1449" d="M597.99,144.191V118.132h-3.927v27.113a7.048,7.048,0,0,0,3.927-1.054" transform="translate(-594.063 -118.132)" fill="#dddaec" fill-rule="evenodd"/>
              </g>
              <g id="g1451" transform="translate(67.687 6.775)">
                <path id="path1453" d="M603.939,61.782a3.37,3.37,0,0,0-3.228-3.479h-3.918a3.486,3.486,0,0,1-.009,6.953h3.927a3.369,3.369,0,0,0,3.228-3.474" transform="translate(-596.784 -58.303)" fill="#80b4fb" fill-rule="evenodd"/>
              </g>
              <g id="g1455" transform="translate(56.004 38.73)">
                <path id="path1457" d="M496.251,351.205v13.862a7.667,7.667,0,0,0,7.484,7.647h.325a7.675,7.675,0,0,0,7.484-7.647V334.33a7.44,7.44,0,0,1-7.647,0,7.441,7.441,0,0,0-7.647,0Z" transform="translate(-496.251 -333.273)" fill="#ffa031" fill-rule="evenodd"/>
              </g>
              <g id="g1459" transform="translate(60.91 48.207)">
                <path id="path1461" d="M541.209,420.3a2.739,2.739,0,1,0-2.741-2.736,2.737,2.737,0,0,0,2.741,2.736" transform="translate(-538.468 -414.826)" fill="#a1d4ff" fill-rule="evenodd"/>
              </g>
              <g id="g1463" transform="translate(61.687 39.787)">
                <path id="path1465" d="M554.766,373.11V342.373a7.049,7.049,0,0,1-3.927,1.054V373.11a7.687,7.687,0,0,1-5.683,7.392,7.581,7.581,0,0,0,1.8.255h.325a7.674,7.674,0,0,0,7.484-7.647" transform="translate(-545.156 -342.373)" fill="#eebb81" fill-rule="evenodd"/>
              </g>
              <g id="g1467" transform="translate(17.18)">
                <path id="Trazado_711967" data-name="Trazado 711967" d="M183.956,9.277H166.8A4.639,4.639,0,1,1,166.8,0h17.151a4.639,4.639,0,1,1,0,9.277ZM166.8,2.324a2.314,2.314,0,1,0,0,4.629h17.151a2.314,2.314,0,1,0,0-4.629Z" transform="translate(-162.164)"/>
              </g>
              <g id="g1471" transform="translate(0.666 48.565)">
                <path id="Trazado_711968" data-name="Trazado 711968" d="M21.219,433.6a1.162,1.162,0,0,1-.014-2.324c12.431-.149,20.415-4.426,27.46-8.2,4.088-2.19,7.619-4.082,11.415-4.834,4.269-.846,8.266-.086,12.578,2.391a1.162,1.162,0,1,1-1.158,2.015c-8.258-4.745-13.912-1.716-21.738,2.476-6.919,3.706-15.53,8.319-28.529,8.474Z" transform="translate(-20.057 -417.906)"/>
              </g>
              <g id="g1475" transform="translate(5.738 49.222)">
                <path id="Trazado_711969" data-name="Trazado 711969" d="M64.871,429.381a1.162,1.162,0,0,1-.6-2.158,30.362,30.362,0,0,1,12.055-3.551c4.054-.348,9.8-.027,14.146,3.479a1.162,1.162,0,0,1-1.459,1.809c-6.582-5.309-18.641-2.7-23.543.253A1.158,1.158,0,0,1,64.871,429.381Z" transform="translate(-63.708 -423.564)"/>
              </g>
              <g id="g1479" transform="translate(23.342 62.747)">
                <path id="Trazado_711970" data-name="Trazado 711970" d="M216.352,542.283a1.162,1.162,0,0,1-.822-1.984l.013-.013a1.162,1.162,0,0,1,1.644,1.644l-.013.013A1.159,1.159,0,0,1,216.352,542.283Z" transform="translate(-215.19 -539.946)"/>
              </g>
              <g id="g1483" transform="translate(32.829 59.027)">
                <path id="Trazado_711971" data-name="Trazado 711971" d="M297.987,510.27a1.162,1.162,0,0,1-.822-1.984l.013-.013a1.162,1.162,0,0,1,1.643,1.644l-.013.013A1.159,1.159,0,0,1,297.987,510.27Z" transform="translate(-296.825 -507.933)"/>
              </g>
              <g id="g1487" transform="translate(26.166 35.871)">
                <path id="Trazado_711972" data-name="Trazado 711972" d="M243.724,317.135a4.23,4.23,0,1,1,4.228-4.232A4.237,4.237,0,0,1,243.724,317.135Zm0-6.136a1.906,1.906,0,1,0,1.9,1.9A1.908,1.908,0,0,0,243.724,311Z" transform="translate(-239.492 -308.675)"/>
              </g>
              <g id="g1491" transform="translate(36.584 60.928)">
                <path id="Trazado_711973" data-name="Trazado 711973" d="M335.007,536.034a5.868,5.868,0,1,1,5.87-5.87A5.875,5.875,0,0,1,335.007,536.034Zm0-9.413a3.544,3.544,0,1,0,3.546,3.542A3.546,3.546,0,0,0,335.007,526.621Z" transform="translate(-329.141 -524.297)"/>
              </g>
              <g id="g1495" transform="translate(54.842 12.566)">
                <path id="Trazado_711974" data-name="Trazado 711974" d="M495.06,174.9a8.819,8.819,0,0,1-8.809-8.809V109.3a1.162,1.162,0,1,1,2.324,0v56.8a6.485,6.485,0,1,0,12.969,0V127.207a1.162,1.162,0,0,1,2.324,0v38.884A8.819,8.819,0,0,1,495.06,174.9Zm7.647-51.894a1.162,1.162,0,0,1-1.162-1.162V109.3a1.162,1.162,0,0,1,2.324,0v12.548A1.162,1.162,0,0,1,502.706,123.006Z" transform="translate(-486.251 -108.133)"/>
              </g>
              <g id="g1499" transform="translate(0 6.953)">
                <path id="Trazado_711975" data-name="Trazado 711975" d="M64.654,132.21H24.8c-5.443,0-8-2.861-9.18-5.26a15.686,15.686,0,0,1-1-9.416,20.687,20.687,0,0,1,3.718-8.886l7.054-9.185a1.162,1.162,0,1,1,1.843,1.416l-7.054,9.184c-3.026,3.946-4.743,11.26-2.475,15.859,1.3,2.63,3.685,3.964,7.1,3.964H64.654a7.519,7.519,0,0,0,6.272-2.657,1.162,1.162,0,1,1,1.827,1.436A9.849,9.849,0,0,1,64.654,132.21Zm5.68-21.509a1.16,1.16,0,0,1-.914-.444c-.056-.071-.107-.142-.158-.213L55.142,91.452a20.848,20.848,0,0,1-3.662-11.136L51.431,61A1.162,1.162,0,0,1,52.59,59.83h0a1.162,1.162,0,0,1,1.162,1.159L53.8,80.31a18.507,18.507,0,0,0,3.189,9.735l14.13,18.606.021.028c.033.047.067.094.1.141a1.162,1.162,0,0,1-.913,1.88ZM29.5,97.024a1.162,1.162,0,0,1-.925-1.865l3.882-5.113a18.543,18.543,0,0,0,3.185-9.736l.048-19.321a1.162,1.162,0,0,1,1.162-1.159h0A1.162,1.162,0,0,1,38.018,61L37.97,80.316a20.885,20.885,0,0,1-3.658,11.135l-3.883,5.113A1.161,1.161,0,0,1,29.5,97.024Z" transform="translate(-14.328 -59.83)"/>
              </g>
              <g id="g1503" transform="translate(51.298 5.613)">
                <path id="Trazado_711976" data-name="Trazado 711976" d="M476.067,57.579H460.141a4.646,4.646,0,0,1,0-9.277h15.926a4.646,4.646,0,0,1,0,9.277Zm-15.926-6.953a2.329,2.329,0,0,0,0,4.629h15.926a2.329,2.329,0,0,0,0-4.629Z" transform="translate(-455.751 -48.302)"/>
              </g>
              <g id="g1507" transform="translate(11.901 65.409)">
                <path id="Trazado_711977" data-name="Trazado 711977" d="M120.762,570.9a4.024,4.024,0,1,1,4.026-4.026A4.03,4.03,0,0,1,120.762,570.9Zm0-5.723a1.7,1.7,0,1,0,1.7,1.7A1.7,1.7,0,0,0,120.762,565.173Z" transform="translate(-116.736 -562.849)"/>
              </g>
              <g id="g1511" transform="translate(60.692 59.655)">
                <path id="Trazado_711978" data-name="Trazado 711978" d="M537.754,515.675a1.162,1.162,0,0,1-.822-1.984l.013-.013a1.162,1.162,0,0,1,1.643,1.643l-.013.013A1.158,1.158,0,0,1,537.754,515.675Z" transform="translate(-536.592 -513.337)"/>
              </g>
              <g id="g1515" transform="translate(63.169 68.532)">
                <path id="Trazado_711979" data-name="Trazado 711979" d="M559.071,592.059a1.162,1.162,0,0,1-.822-1.984l.013-.013a1.162,1.162,0,0,1,1.644,1.644l-.013.013A1.159,1.159,0,0,1,559.071,592.059Z" transform="translate(-557.909 -589.722)"/>
              </g>
              <g id="g1519" transform="translate(59.748 47.045)">
                <path id="Trazado_711980" data-name="Trazado 711980" d="M532.371,412.627a3.9,3.9,0,1,1,3.9-3.9A3.905,3.905,0,0,1,532.371,412.627Zm0-5.477a1.576,1.576,0,1,0,1.574,1.579A1.58,1.58,0,0,0,532.371,407.15Z" transform="translate(-528.468 -404.826)"/>
              </g>
              <g id="g1523" transform="translate(21.366 13.15)">
                <path id="Trazado_711981" data-name="Trazado 711981" d="M204.4,115.484h-5.051a1.162,1.162,0,1,1,0-2.324H204.4a1.162,1.162,0,1,1,0,2.324Z" transform="translate(-198.182 -113.16)"/>
              </g>
              <g id="g1527" transform="translate(21.366 19.348)">
                <path id="Trazado_711982" data-name="Trazado 711982" d="M204.4,168.813h-5.051a1.162,1.162,0,1,1,0-2.324H204.4a1.162,1.162,0,1,1,0,2.324Z" transform="translate(-198.182 -166.489)"/>
              </g>
              <g id="g1531" transform="translate(21.366 25.545)">
                <path id="Trazado_711983" data-name="Trazado 711983" d="M204.4,222.142h-5.051a1.162,1.162,0,1,1,0-2.324H204.4a1.162,1.162,0,1,1,0,2.324Z" transform="translate(-198.182 -219.818)"/>
              </g>
              <g id="g1535" transform="translate(54.842 18.763)">
                <path id="Trazado_711984" data-name="Trazado 711984" d="M492.464,163.786h-5.051a1.162,1.162,0,1,1,0-2.324h5.051a1.162,1.162,0,1,1,0,2.324Z" transform="translate(-486.251 -161.462)"/>
              </g>
              <g id="g1539" transform="translate(54.842 24.961)">
                <path id="Trazado_711985" data-name="Trazado 711985" d="M492.464,217.115h-5.051a1.162,1.162,0,1,1,0-2.324h5.051a1.162,1.162,0,1,1,0,2.324Z" transform="translate(-486.251 -214.791)"/>
              </g>
              <g id="g1543" transform="translate(54.842 31.163)">
                <path id="Trazado_711986" data-name="Trazado 711986" d="M492.464,270.482h-5.051a1.162,1.162,0,1,1,0-2.324h5.051a1.162,1.162,0,1,1,0,2.324Z" transform="translate(-486.251 -268.158)"/>
              </g>
              <g id="g1547" transform="translate(54.842 37.566)">
                <path id="Trazado_711987" data-name="Trazado 711987" d="M498.88,327.706a8.121,8.121,0,0,1-4.468-1.256,6.287,6.287,0,0,0-6.355,0,1.162,1.162,0,0,1-1.29-1.933,8.588,8.588,0,0,1,8.937,0,6.281,6.281,0,0,0,6.356,0,1.162,1.162,0,1,1,1.29,1.933A8.139,8.139,0,0,1,498.88,327.706Z" transform="translate(-486.25 -323.263)"/>
              </g>
            </g>
          </g>
        </g>
      </g>
    </g>
  </g>
</svg>
