<svg xmlns="http://www.w3.org/2000/svg" xmlns:xlink="http://www.w3.org/1999/xlink" width="86.379" height="137.34" viewBox="0 0 86.379 137.34">
  <defs>
    <clipPath id="clip-path">
      <rect id="Rect치ngulo_346374" data-name="Rect치ngulo 346374" width="20.178" height="45.944" transform="translate(0 0)" fill="none" stroke="#12263f" stroke-width="1"/>
    </clipPath>
  </defs>
  <g id="Grupo_1002617" data-name="Grupo 1002617" transform="translate(-985.333 -140)">
    <g id="_13_Blood_test" data-name=" 13 Blood test" transform="translate(1305.333 -24)">
      <rect id="Rect치ngulo_346613" data-name="Rect치ngulo 346613" width="82.344" height="21.021" rx="10.51" transform="translate(-318.674 226.545)" fill="#a4e6ff"/>
      <path id="Trazado_711919" data-name="Trazado 711919" d="M-232.146,636.85H-309.51a2.49,2.49,0,0,1-2.49-2.49v2.988a2.49,2.49,0,0,0,2.49,2.49h77.363a2.49,2.49,0,0,0,2.49-2.49V634.36A2.49,2.49,0,0,1-232.146,636.85Z" transform="translate(-6.672 -392.273)" fill="#81ddfd"/>
      <g id="Grupo_1002604" data-name="Grupo 1002604" transform="translate(-308.466 223.435)">
        <circle id="Elipse_8340" data-name="Elipse 8340" cx="5.135" cy="5.135" r="5.135" transform="translate(25.831 8.485)" fill="#3076b6"/>
        <circle id="Elipse_8341" data-name="Elipse 8341" cx="5.135" cy="5.135" r="5.135" transform="translate(48.194 8.485)" fill="#3076b6"/>
        <path id="Trazado_711920" data-name="Trazado 711920" d="M-243.861,522.146a.6.6,0,0,1,.765,0c1.468,1.22,6.664,5.933,6.664,11.563a7.047,7.047,0,0,1-6.938,7.155,7.048,7.048,0,0,1-7.155-6.938q0-.108,0-.216C-250.524,528.08-245.328,523.367-243.861,522.146Z" transform="translate(250.525 -522.008)" fill="#4db1f0"/>
      </g>
      <path id="Trazado_711921" data-name="Trazado 711921" d="M-89.8,598.711a5.135,5.135,0,0,1-4.912-3.641,5.135,5.135,0,0,0,3.417,6.407,5.135,5.135,0,0,0,6.407-3.417,5.134,5.134,0,0,0,0-2.99A5.135,5.135,0,0,1-89.8,598.711Z" transform="translate(-187.698 -359.506)" fill="#4db1f0"/>
      <path id="Trazado_711922" data-name="Trazado 711922" d="M44.9,598.711a5.135,5.135,0,0,1-4.912-3.641,5.135,5.135,0,1,0,9.825,0A5.135,5.135,0,0,1,44.9,598.711Z" transform="translate(-300.036 -359.506)" fill="#4db1f0"/>
      <path id="Trazado_711923" data-name="Trazado 711923" d="M-243.477,588.544a7.051,7.051,0,0,1-6.91-5.664,9.628,9.628,0,0,0-.138,1.6,7.047,7.047,0,0,0,6.938,7.155,7.048,7.048,0,0,0,7.155-6.938q0-.108,0-.216a9.626,9.626,0,0,0-.138-1.6A7.049,7.049,0,0,1-243.477,588.544Z" transform="translate(-57.941 -349.34)" fill="#3076b6"/>
      <path id="Trazado_711924" data-name="Trazado 711924" d="M-191.016,256.41l-24.154,24.154a5.59,5.59,0,0,0-1.406,5.545l-4.492,4.492a2.659,2.659,0,0,0,0,3.76,2.659,2.659,0,0,0,3.76,0l4.494-4.482a5.586,5.586,0,0,0,5.55-1.411l24.149-24.155Z" transform="translate(-81.859 -77.069)" fill="#ffebf1"/>
      <path id="Trazado_711925" data-name="Trazado 711925" d="M-191.016,256.41l-24.154,24.154a5.59,5.59,0,0,0-1.406,5.545l-4.492,4.492a2.659,2.659,0,0,0,0,3.76,2.659,2.659,0,0,0,3.76,0l4.494-4.482a5.586,5.586,0,0,0,5.55-1.411l24.149-24.155Z" transform="translate(-81.859 -77.069)" fill="#eaeaea"/>
      <path id="Trazado_711926" data-name="Trazado 711926" d="M-37.872,190.96l7.179-7.179a6.925,6.925,0,0,0,0-9.793l0,0a6.925,6.925,0,0,0-9.793,0l0,0-7.174,7.184-1.265-1.265a1.494,1.494,0,0,0-2.1,0l-1.594,1.594a1.494,1.494,0,0,0,0,2.1l12.654,12.654a1.494,1.494,0,0,0,2.1,0l1.594-1.594a1.494,1.494,0,0,0,0-2.1Z" transform="translate(-222.626 -6.636)" fill="#827981"/>
      <path id="Trazado_711927" data-name="Trazado 711927" d="M-185,291.28l-24.155,24.154a5.587,5.587,0,0,1-5.543,1.406l-4.492,4.492a2.656,2.656,0,0,1-2.382.732,2.656,2.656,0,0,0,3.105,2.114,2.657,2.657,0,0,0,1.389-.738l4.494-4.482a5.586,5.586,0,0,0,5.55-1.411l24.149-24.155Z" transform="translate(-82.089 -106.15)" fill="#d6d6d6"/>
      <path id="Trazado_711928" data-name="Trazado 711928" d="M22.317,187.158l-6.592,6.591a.83.83,0,0,0,0,1.174h0l1.013,1.011a1.494,1.494,0,0,1,0,2.1l-1.594,1.594a1.494,1.494,0,0,1-2.1,0l2.113,2.113a1.494,1.494,0,0,0,2.1,0l1.594-1.594a1.494,1.494,0,0,0,0-2.1l-1.6-1.6,7.082-7.084a6.929,6.929,0,0,0-1.076-10.826A6.926,6.926,0,0,1,22.317,187.158Z" transform="translate(-277.75 -12.126)" fill="#706b70"/>
      <path id="Trazado_711929" data-name="Trazado 711929" d="M-210.382,373.07l-4.788,4.786a5.59,5.59,0,0,0-1.406,5.545l-4.492,4.492a2.659,2.659,0,0,0,0,3.76,2.659,2.659,0,0,0,3.76,0l4.494-4.482a5.586,5.586,0,0,0,5.55-1.411l12.69-12.689Z" transform="translate(-81.859 -174.361)" fill="#4db1f0"/>
      <path id="Trazado_711930" data-name="Trazado 711930" d="M-209.152,383.645a5.58,5.58,0,0,1-5.107,1.516.84.84,0,0,0-.769.222l-4.16,4.16a2.656,2.656,0,0,1-2.382.732,2.657,2.657,0,0,0,.805,1.453,2.715,2.715,0,0,0,3.745-.126l4.438-4.433a5.586,5.586,0,0,0,5.55-1.411l12.69-12.689h-4.233Z" transform="translate(-82.089 -174.361)" fill="#3076b6"/>
      <path id="Trazado_711935" data-name="Trazado 711935" d="M1.383,0A1.383,1.383,0,1,1,0,1.383,1.383,1.383,0,0,1,1.383,0Z" transform="translate(-279.842 233.909)" fill="#4db1f0"/>
      <circle id="Elipse_8343" data-name="Elipse 8343" cx="1.383" cy="1.383" r="1.383" transform="translate(-257.48 233.909)" fill="#4db1f0"/>
      <ellipse id="Elipse_8344" data-name="Elipse 8344" cx="2.704" cy="1.33" rx="2.704" ry="1.33" transform="matrix(0.454, -0.891, 0.891, 0.454, -305.601, 231.896)" fill="#3076b6"/>
      <path id="Trazado_711931" data-name="Trazado 711931" d="M-225.763,219.413A3.9,3.9,0,0,0-223,218.267l4.011-4.016a6.833,6.833,0,0,0,6.045-1.9L-189.619,189l1.494,1.494a2.747,2.747,0,0,0,3.871,0l1.6-1.6a2.746,2.746,0,0,0,0-3.876l-.719-.721,6.309-6.319a8.208,8.208,0,0,0,0-11.586A8.119,8.119,0,0,0-182.849,164a8.125,8.125,0,0,0-5.786,2.4l-6.309,6.319-.387-.385a2.738,2.738,0,0,0-3.871,0l-1.6,1.6a2.746,2.746,0,0,0,0,3.878l1.494,1.494-23.317,23.355a6.855,6.855,0,0,0-1.9,6.053l-4.011,4.016a3.916,3.916,0,0,0,0,5.538A3.916,3.916,0,0,0-225.763,219.413Zm26.729-43.715,1.6-1.6a.244.244,0,0,1,.344,0l1.267,1.268a1.252,1.252,0,0,0,1.765,0l7.193-7.2a5.681,5.681,0,0,1,8.034-.009l.009.009a5.706,5.706,0,0,1,0,8.053l-7.192,7.2a1.249,1.249,0,0,0,0,1.766h0l1.6,1.6a.244.244,0,0,1,0,.344l-1.6,1.6a.244.244,0,0,1-.344,0l-12.679-12.7a.236.236,0,0,1-.009-.333l.01-.01Zm7.652,11.545-10.24,10.253h-12.307l16.392-16.414Zm-35.385,27.25,4.506-4.506a1.249,1.249,0,0,0,.314-1.238,4.361,4.361,0,0,1,1.094-4.316l4.433-4.438h12.305l-10.585,10.6a4.34,4.34,0,0,1-4.316,1.1,1.247,1.247,0,0,0-1.237.315l-4.5,4.5a1.42,1.42,0,0,1-2.008,0,1.42,1.42,0,0,1,0-2.008h-.008Z" transform="translate(-75.326 0)"/>
      <path id="Trazado_711932" data-name="Trazado 711932" d="M-96.175,566.41a6.4,6.4,0,0,0-6.4,6.395,6.4,6.4,0,0,0,6.395,6.4,6.4,6.4,0,0,0,6.4-6.393,6.4,6.4,0,0,0-6.395-6.407Zm0,10.293a3.9,3.9,0,0,1-3.9-3.9,3.9,3.9,0,0,1,3.9-3.9,3.9,3.9,0,0,1,3.9,3.9v.017a3.9,3.9,0,0,1-3.9,3.895Z" transform="translate(-181.325 -335.604)"/>
      <path id="Trazado_711933" data-name="Trazado 711933" d="M38.791,566.41a6.4,6.4,0,1,0,6.388,6.411v0A6.4,6.4,0,0,0,38.791,566.41Zm0,10.293a3.9,3.9,0,1,1,3.893-3.91v.023a3.9,3.9,0,0,1-3.893,3.895Z" transform="translate(-293.879 -335.604)"/>
      <path id="Trazado_711934" data-name="Trazado 711934" d="M-238.742,518.253h-58.786a25.5,25.5,0,0,0-2.756-2.693,1.846,1.846,0,0,0-2.359,0,25.659,25.659,0,0,0-2.748,2.693h-10.867A3.75,3.75,0,0,0-320,522v16.092a3.749,3.749,0,0,0,3.742,3.747h77.516A3.749,3.749,0,0,0-235,538.094V522A3.75,3.75,0,0,0-238.742,518.253Zm-62.721-.413c1.589,1.408,5.811,5.591,5.811,10.283a5.811,5.811,0,0,1-5.811,5.811,5.811,5.811,0,0,1-5.811-5.811h0C-307.275,523.431-303.051,519.246-301.463,517.84Zm63.972,20.254a1.249,1.249,0,0,1-1.247,1.248h-77.521a1.248,1.248,0,0,1-1.252-1.245V522a1.25,1.25,0,0,1,1.252-1.245h8.948a13.613,13.613,0,0,0-2.46,7.371,8.307,8.307,0,0,0,8.307,8.307,8.308,8.308,0,0,0,8.307-8.307,13.626,13.626,0,0,0-2.46-7.371h56.874A1.25,1.25,0,0,1-237.49,522Z" transform="translate(0 -292.841)"/>
    </g>
    <g id="Grupo_1002605" data-name="Grupo 1002605" transform="matrix(-0.946, 0.326, -0.326, -0.946, 1071.712, 270.771)">
      <g id="Grupo_1002212" data-name="Grupo 1002212" clip-path="url(#clip-path)">
        <path id="Trazado_707910" data-name="Trazado 707910" d="M15,1.5C9.476,12.543,10.089,29.267,11.93,41.536" fill="none" stroke="#12263f" stroke-linecap="round" stroke-linejoin="round" stroke-width="3"/>
        <path id="Trazado_707911" data-name="Trazado 707911" d="M1.5,35.242c3.681,3.681,7.976,6.135,11.656,9.2a34.1,34.1,0,0,1,5.522-10.429" fill="none" stroke="#12263f" stroke-linecap="round" stroke-linejoin="round" stroke-width="3"/>
      </g>
    </g>
  </g>
</svg>
