<svg xmlns="http://www.w3.org/2000/svg" xmlns:xlink="http://www.w3.org/1999/xlink" width="111" height="91.586" viewBox="0 0 111 91.586">
  <defs>
    <clipPath id="clip-path">
      <rect id="Rectángulo_346374" data-name="Rectángulo 346374" width="20.178" height="45.944" fill="none" stroke="#12263f" stroke-width="1"/>
    </clipPath>
  </defs>
  <g id="Grupo_1002614" data-name="Grupo 1002614" transform="translate(-758.828 -391.559)">
    <g id="Grupo_1002341" data-name="Grupo 1002341" transform="translate(758.828 391.559)">
      <g id="Grupo_1002316" data-name="Grupo 1002316" transform="matrix(0.799, -0.602, 0.602, 0.799, 0, 12.144)">
        <g id="Grupo_1002212" data-name="Grupo 1002212" transform="translate(0)" clip-path="url(#clip-path)">
          <path id="Trazado_707910" data-name="Trazado 707910" d="M4.374,0C-1.147,11.043-.534,27.767,1.307,40.036" transform="translate(10.623 1.5)" fill="none" stroke="#12263f" stroke-linecap="round" stroke-linejoin="round" stroke-width="3"/>
          <path id="Trazado_707911" data-name="Trazado 707911" d="M0,1.227c3.681,3.681,7.976,6.135,11.656,9.2A34.1,34.1,0,0,1,17.178,0" transform="translate(1.5 34.015)" fill="none" stroke="#12263f" stroke-linecap="round" stroke-linejoin="round" stroke-width="3"/>
        </g>
      </g>
    </g>
    <g id="Grupo_1002611" data-name="Grupo 1002611" transform="translate(-138.105 190.644)">
      <g id="Grupo_1002610" data-name="Grupo 1002610" transform="translate(946.333 207)">
        <path id="Trazado_711942" data-name="Trazado 711942" d="M122.655,46.211v8.2H95.441v-8.2H79.5v76.532h59.1V46.211Z" transform="translate(-78.248 -38.494)" fill="#4db1f0"/>
        <path id="Trazado_711946" data-name="Trazado 711946" d="M161.856,77.145H151.749v3.037H124.534V77.145H114.426v65.339h47.43Z" transform="translate(-107.341 -64.262)" fill="#fff"/>
        <path id="Trazado_711947" data-name="Trazado 711947" d="M212.079,157.046l-6.241-6.241-1.725,1.725a18.636,18.636,0,0,0-29.25,13.729l-.074.074.064.064q-.052.695-.052,1.4a18.633,18.633,0,1,0,35.151-8.628Z" transform="translate(-157.624 -124.258)" fill="#e0e0e2"/>
        <path id="Trazado_711948" data-name="Trazado 711948" d="M158.79,188.5l-14-14,6.241-6.241,7.76,7.76,17.048-17.048,6.241,6.241Z" transform="translate(-132.634 -132.425)" fill="#ffa031"/>
        <path id="Trazado_711949" data-name="Trazado 711949" d="M174.957,37.48h27.214v9.661H174.957Z" transform="translate(-157.764 -31.221)" fill="#e0e0e2"/>
        <path id="Trazado_711950" data-name="Trazado 711950" d="M144.922,166.26a18.636,18.636,0,0,1,29.25-13.729l-15.323,15.323-7.76-7.76Zm13.927,14.075L144.911,166.4q-.052.695-.052,1.4a18.633,18.633,0,1,0,35.151-8.628Z" transform="translate(-132.692 -124.258)" fill="#3076b6"/>
        <path id="Trazado_711951" data-name="Trazado 711951" d="M337.922,77.145h5.01v3.038h-5.01Z" transform="translate(-293.514 -64.262)" fill="#e0e0e2"/>
        <path id="Trazado_711952" data-name="Trazado 711952" d="M114.426,77.145h5.01v65.339h-5.01Z" transform="translate(-107.341 -64.262)" fill="#e0e0e2"/>
        <path id="Trazado_711955" data-name="Trazado 711955" d="M174.957,37.48h5.01v9.661h-5.01Z" transform="translate(-157.764 -31.221)" fill="#c6c5ca"/>
        <g id="Grupo_1002609" data-name="Grupo 1002609" transform="translate(12.167 24.91)">
          <path id="Trazado_711956" data-name="Trazado 711956" d="M246.134,230.24l17.576-17.576a18.523,18.523,0,0,0-1.423-3.587l-18.658,18.657Z" transform="translate(-227.135 -199.073)" fill="#006df0"/>
          <path id="Trazado_711957" data-name="Trazado 711957" d="M197.156,217.095l2.5-2.5,5.255,5.255-2.5,2.5Z" transform="translate(-188.423 -203.664)" fill="#006df0"/>
          <path id="Trazado_711958" data-name="Trazado 711958" d="M150.295,257.728l-5.384-5.384q-.052.695-.052,1.4A18.647,18.647,0,0,0,166,272.212,18.649,18.649,0,0,1,150.295,257.728Z" transform="translate(-144.859 -235.113)" fill="#006df0"/>
          <path id="Trazado_711959" data-name="Trazado 711959" d="M151.708,160.4a18.653,18.653,0,0,1,14.6-11.067,18.892,18.892,0,0,0-2.5-.167,18.635,18.635,0,0,0-18.57,17.092l6.166-6.166Z" transform="translate(-145.171 -149.164)" fill="#006df0"/>
        </g>
        <path id="Trazado_711960" data-name="Trazado 711960" d="M167,148.367l-17.048,17.048-7.76-7.76-8.012,8.012,15.772,15.772,25.06-25.06Zm-29.278,17.3,4.47-4.47,7.76,7.761L167,151.909l4.469,4.47L149.952,177.9Z" transform="translate(-123.796 -123.59)"/>
        <path id="Trazado_711961" data-name="Trazado 711961" d="M119.747,38.711v2.5H131.1v74.027H74.5V41.216H85.853v-2.5H72v79.037h61.6V38.711Z" transform="translate(-72 -32.246)"/>
        <path id="Trazado_711962" data-name="Trazado 711962" d="M197.176,5.007h-11.1V3.755a3.755,3.755,0,0,0-7.511,0V5.006h-11.1V17.172h29.719V5.007Zm-16.11-1.251a1.251,1.251,0,0,1,2.5,0V5.006h-2.5Zm13.6,10.912H169.962V7.511h24.709v7.156Z" transform="translate(-151.516)"/>
        <path id="Trazado_711963" data-name="Trazado 711963" d="M154.356,134.984H109.431V72.15h5.516v-2.5h-8.021v67.844h49.935V69.645h-8.02v2.5h5.515Z" transform="translate(-101.094 -58.015)"/>
        <path id="Trazado_711964" data-name="Trazado 711964" d="M139.426,435.91h19.54v2.5h-19.54Z" transform="translate(-128.166 -363.115)"/>
        <path id="Trazado_711965" data-name="Trazado 711965" d="M178.2,227.1l-2.4.707a17.384,17.384,0,1,1-33.73,8.288l-2.457.484A19.889,19.889,0,1,0,178.2,227.1Z" transform="translate(-128.315 -189.18)"/>
        <path id="Trazado_711966" data-name="Trazado 711966" d="M148.875,152.968l2.262,1.077a17.432,17.432,0,0,1,22.855-8.38l1.033-2.282A19.9,19.9,0,0,0,148.875,152.968Z" transform="translate(-136.037 -117.967)"/>
      </g>
    </g>
  </g>
</svg>
