<svg xmlns="http://www.w3.org/2000/svg" width="398.035" height="452.852" viewBox="0 0 398.035 452.852">
  <g id="Grupo_1013270" data-name="Grupo 1013270" transform="translate(-285 -1475.734)">
    <g id="Grupo_1011328" data-name="Grupo 1011328" transform="translate(285 1475.734)">
      <g id="Grupo_1011304" data-name="Grupo 1011304" transform="translate(0 0)">
        <g id="Grupo_1011244" data-name="Grupo 1011244" transform="translate(8.863 0.003)">
          <g id="Grupo_1011243" data-name="Grupo 1011243">
            <g id="Grupo_1011242" data-name="Grupo 1011242">
              <g id="Grupo_1011241" data-name="Grupo 1011241">
                <g id="Grupo_1011240" data-name="Grupo 1011240">
                  <rect id="Rectángulo_347198" data-name="Rectángulo 347198" width="176.29" height="255.525" fill="#e0e0e0"/>
                </g>
              </g>
            </g>
          </g>
        </g>
        <g id="Grupo_1011249" data-name="Grupo 1011249" transform="translate(0.032 0.003)">
          <g id="Grupo_1011248" data-name="Grupo 1011248">
            <g id="Grupo_1011247" data-name="Grupo 1011247">
              <g id="Grupo_1011246" data-name="Grupo 1011246">
                <g id="Grupo_1011245" data-name="Grupo 1011245">
                  <rect id="Rectángulo_347199" data-name="Rectángulo 347199" width="176.29" height="255.525" fill="#f5f5f5"/>
                </g>
              </g>
            </g>
          </g>
        </g>
        <g id="Grupo_1011261" data-name="Grupo 1011261" transform="translate(21.455 27.199)">
          <g id="Grupo_1011254" data-name="Grupo 1011254" transform="translate(0.48 0.479)">
            <g id="Grupo_1011253" data-name="Grupo 1011253">
              <g id="Grupo_1011252" data-name="Grupo 1011252">
                <g id="Grupo_1011251" data-name="Grupo 1011251">
                  <g id="Grupo_1011250" data-name="Grupo 1011250">
                    <rect id="Rectángulo_347200" data-name="Rectángulo 347200" width="132.485" height="200.175" fill="#fff"/>
                  </g>
                </g>
              </g>
            </g>
          </g>
          <g id="Grupo_1011260" data-name="Grupo 1011260">
            <g id="Grupo_1011259" data-name="Grupo 1011259">
              <g id="Grupo_1011258" data-name="Grupo 1011258">
                <g id="Grupo_1011257" data-name="Grupo 1011257">
                  <g id="Grupo_1011256" data-name="Grupo 1011256">
                    <g id="Grupo_1011255" data-name="Grupo 1011255">
                      <path id="Trazado_715414" data-name="Trazado 715414" d="M186.367,283.977s-.017-.34-.025-.979c-.006-.661-.015-1.6-.027-2.839-.011-2.516-.029-6.2-.052-10.979-.028-9.595-.068-23.575-.119-41.235-.053-35.3-.129-85.281-.216-144.144l.439.44L53.9,84.28h-.016l.479-.479c-.038,75.514-.072,145.14-.1,200.175l-.382-.381,96.431.2,26.642.1,6.993.044c1.583.013,2.418.041,2.418.041s-.78.027-2.338.04l-6.921.044-26.556.1-96.669.2H53.5v-.383c-.027-55.035-.059-124.66-.1-200.175v-.479h.5c47.14.015,91.991.027,132.468.04h.44V83.8c-.089,58.98-.164,109.064-.217,144.431-.05,17.619-.09,31.565-.118,41.136-.023,4.743-.041,8.4-.053,10.892-.011,1.213-.019,2.14-.027,2.789C186.384,283.673,186.367,283.977,186.367,283.977Z" transform="translate(-53.403 -83.322)" fill="#e0e0e0"/>
                    </g>
                  </g>
                </g>
              </g>
            </g>
          </g>
        </g>
        <g id="Grupo_1011267" data-name="Grupo 1011267" transform="translate(148.277 29.014)">
          <g id="Grupo_1011266" data-name="Grupo 1011266">
            <g id="Grupo_1011265" data-name="Grupo 1011265">
              <g id="Grupo_1011264" data-name="Grupo 1011264">
                <g id="Grupo_1011263" data-name="Grupo 1011263">
                  <g id="Grupo_1011262" data-name="Grupo 1011262">
                    <path id="Trazado_715415" data-name="Trazado 715415" d="M157.942,84.818" transform="translate(-157.942 -84.818)" fill="none" stroke="#fbfbfb" stroke-miterlimit="10" stroke-width="0.25"/>
                  </g>
                </g>
              </g>
            </g>
          </g>
        </g>
        <g id="Grupo_1011273" data-name="Grupo 1011273" transform="translate(152.805 0)">
          <g id="Grupo_1011272" data-name="Grupo 1011272">
            <g id="Grupo_1011271" data-name="Grupo 1011271">
              <g id="Grupo_1011270" data-name="Grupo 1011270">
                <g id="Grupo_1011269" data-name="Grupo 1011269">
                  <g id="Grupo_1011268" data-name="Grupo 1011268">
                    <path id="Trazado_715416" data-name="Trazado 715416" d="M185.687,60.906a30.782,30.782,0,0,1-3.143,4.565c-2.048,2.738-4.955,6.464-8.271,10.491s-6.418,7.6-8.714,10.13a30.434,30.434,0,0,1-3.878,3.959,33.138,33.138,0,0,1,3.365-4.4l8.487-10.3,8.479-10.3A32.842,32.842,0,0,1,185.687,60.906Z" transform="translate(-161.675 -60.903)" fill="#e0e0e0"/>
                  </g>
                </g>
              </g>
            </g>
          </g>
        </g>
        <g id="Grupo_1011285" data-name="Grupo 1011285" transform="translate(155.087 227.206)">
          <g id="Grupo_1011278" data-name="Grupo 1011278" transform="translate(0.008 0.002)">
            <g id="Grupo_1011277" data-name="Grupo 1011277">
              <g id="Grupo_1011276" data-name="Grupo 1011276">
                <g id="Grupo_1011275" data-name="Grupo 1011275">
                  <g id="Grupo_1011274" data-name="Grupo 1011274">
                    <path id="Trazado_715417" data-name="Trazado 715417" d="M163.562,248.189a164.014,164.014,0,0,0,23.107,28.9" transform="translate(-163.562 -248.189)" fill="#fff"/>
                  </g>
                </g>
              </g>
            </g>
          </g>
          <g id="Grupo_1011284" data-name="Grupo 1011284">
            <g id="Grupo_1011283" data-name="Grupo 1011283">
              <g id="Grupo_1011282" data-name="Grupo 1011282">
                <g id="Grupo_1011281" data-name="Grupo 1011281">
                  <g id="Grupo_1011280" data-name="Grupo 1011280">
                    <g id="Grupo_1011279" data-name="Grupo 1011279">
                      <path id="Trazado_715418" data-name="Trazado 715418" d="M186.67,277.088a26.276,26.276,0,0,1-4.029-3.665,129.068,129.068,0,0,1-16.39-20.5,26.263,26.263,0,0,1-2.688-4.736,36.737,36.737,0,0,1,3.25,4.356c1.943,2.727,4.674,6.459,7.861,10.448s6.228,7.471,8.461,9.966A36.381,36.381,0,0,1,186.67,277.088Z" transform="translate(-163.556 -248.187)" fill="#e0e0e0"/>
                    </g>
                  </g>
                </g>
              </g>
            </g>
          </g>
        </g>
        <g id="Grupo_1011297" data-name="Grupo 1011297" transform="translate(0 226.833)">
          <g id="Grupo_1011290" data-name="Grupo 1011290" transform="translate(0.006 0.003)">
            <g id="Grupo_1011289" data-name="Grupo 1011289">
              <g id="Grupo_1011288" data-name="Grupo 1011288">
                <g id="Grupo_1011287" data-name="Grupo 1011287">
                  <g id="Grupo_1011286" data-name="Grupo 1011286">
                    <path id="Trazado_715419" data-name="Trazado 715419" d="M35.723,276.372q11.546-14.245,23.091-28.49" transform="translate(-35.723 -247.882)" fill="#fff"/>
                  </g>
                </g>
              </g>
            </g>
          </g>
          <g id="Grupo_1011296" data-name="Grupo 1011296">
            <g id="Grupo_1011295" data-name="Grupo 1011295">
              <g id="Grupo_1011294" data-name="Grupo 1011294">
                <g id="Grupo_1011293" data-name="Grupo 1011293">
                  <g id="Grupo_1011292" data-name="Grupo 1011292">
                    <g id="Grupo_1011291" data-name="Grupo 1011291">
                      <path id="Trazado_715420" data-name="Trazado 715420" d="M58.815,247.883c.206.167-4.8,6.68-11.172,14.546S35.93,276.54,35.724,276.372s4.8-6.678,11.174-14.547S58.61,247.716,58.815,247.883Z" transform="translate(-35.718 -247.879)" fill="#e0e0e0"/>
                    </g>
                  </g>
                </g>
              </g>
            </g>
          </g>
        </g>
        <g id="Grupo_1011303" data-name="Grupo 1011303" transform="translate(0.025)">
          <g id="Grupo_1011302" data-name="Grupo 1011302">
            <g id="Grupo_1011301" data-name="Grupo 1011301">
              <g id="Grupo_1011300" data-name="Grupo 1011300">
                <g id="Grupo_1011299" data-name="Grupo 1011299">
                  <g id="Grupo_1011298" data-name="Grupo 1011298">
                    <path id="Trazado_715421" data-name="Trazado 715421" d="M35.745,60.906c.209-.165,5.226,5.834,11.208,13.4S57.617,88.134,57.41,88.3,52.185,82.463,46.2,74.9,35.538,61.069,35.745,60.906Z" transform="translate(-35.739 -60.902)" fill="#e0e0e0"/>
                  </g>
                </g>
              </g>
            </g>
          </g>
        </g>
      </g>
      <g id="Grupo_1011327" data-name="Grupo 1011327" transform="translate(45.958 70.402)">
        <g id="Grupo_1011306" data-name="Grupo 1011306" transform="translate(42.993 46.432)">
          <g id="Grupo_1011305" data-name="Grupo 1011305">
            <ellipse id="Elipse_8462" data-name="Elipse 8462" cx="14.201" cy="14.201" rx="14.201" ry="14.201" fill="#e0e0e0"/>
          </g>
        </g>
        <g id="Grupo_1011308" data-name="Grupo 1011308" transform="translate(57.789)">
          <g id="Grupo_1011307" data-name="Grupo 1011307">
            <path id="Trazado_715422" data-name="Trazado 715422" d="M142.469,129.55a10.616,10.616,0,1,1-10.616-10.616A10.616,10.616,0,0,1,142.469,129.55Z" transform="translate(-121.236 -118.934)" fill="#e0e0e0"/>
          </g>
        </g>
        <g id="Grupo_1011310" data-name="Grupo 1011310" transform="translate(22.333 19.273)">
          <g id="Grupo_1011309" data-name="Grupo 1011309">
            <path id="Trazado_715423" data-name="Trazado 715423" d="M107.371,142.5a7.68,7.68,0,1,1-7.68-7.679A7.681,7.681,0,0,1,107.371,142.5Z" transform="translate(-92.01 -134.821)" fill="#e0e0e0"/>
          </g>
        </g>
        <g id="Grupo_1011312" data-name="Grupo 1011312" transform="translate(71.895 99.326)">
          <g id="Grupo_1011311" data-name="Grupo 1011311">
            <path id="Trazado_715424" data-name="Trazado 715424" d="M141.019,208.963a4.777,4.777,0,1,1,0-6.756A4.777,4.777,0,0,1,141.019,208.963Z" transform="translate(-132.863 -200.808)" fill="#e0e0e0"/>
          </g>
        </g>
        <g id="Grupo_1011314" data-name="Grupo 1011314" transform="translate(0 61.987)">
          <g id="Grupo_1011313" data-name="Grupo 1011313">
            <path id="Trazado_715425" data-name="Trazado 715425" d="M88.961,177.709a7.68,7.68,0,1,1-7.68-7.679A7.681,7.681,0,0,1,88.961,177.709Z" transform="translate(-73.601 -170.03)" fill="#e0e0e0"/>
          </g>
        </g>
        <g id="Grupo_1011317" data-name="Grupo 1011317" transform="translate(57.155 60.63)">
          <g id="Grupo_1011316" data-name="Grupo 1011316">
            <g id="Grupo_1011315" data-name="Grupo 1011315">
              <path id="Trazado_715426" data-name="Trazado 715426" d="M120.753,168.915c.478-.223,5.226,8.92,10.6,20.42s9.352,21.008,8.873,21.231-5.225-8.918-10.6-20.422S120.275,169.138,120.753,168.915Z" transform="translate(-120.714 -168.911)" fill="#e0e0e0"/>
            </g>
          </g>
        </g>
        <g id="Grupo_1011320" data-name="Grupo 1011320" transform="translate(9.485 61.945)">
          <g id="Grupo_1011319" data-name="Grupo 1011319">
            <g id="Grupo_1011318" data-name="Grupo 1011318">
              <path id="Trazado_715427" data-name="Trazado 715427" d="M127.986,170.124c.078.522-10.285,2.488-23.142,4.39s-23.347,3.023-23.424,2.5,10.283-2.487,23.143-4.39S127.908,169.6,127.986,170.124Z" transform="translate(-81.42 -169.995)" fill="#e0e0e0"/>
            </g>
          </g>
        </g>
        <g id="Grupo_1011323" data-name="Grupo 1011323" transform="translate(31.281 26.335)">
          <g id="Grupo_1011322" data-name="Grupo 1011322">
            <g id="Grupo_1011321" data-name="Grupo 1011321">
              <path id="Trazado_715428" data-name="Trazado 715428" d="M123.182,169.561c-.326.376-6.923-5-13.546-13.088-6.654-8.065-10.65-15.577-10.218-15.823.474-.292,5.14,6.669,11.695,14.61C117.633,163.225,123.562,169.151,123.182,169.561Z" transform="translate(-99.386 -140.642)" fill="#e0e0e0"/>
            </g>
          </g>
        </g>
        <g id="Grupo_1011326" data-name="Grupo 1011326" transform="translate(56.46 10.515)">
          <g id="Grupo_1011325" data-name="Grupo 1011325">
            <g id="Grupo_1011324" data-name="Grupo 1011324">
              <path id="Trazado_715429" data-name="Trazado 715429" d="M132.086,127.7l-.05-.012c-.053-.027.053.057.079.023l0,.042-.034.359-.24,1.372c-.352,1.617-.712,3.271-1.089,5-.968,4.213-2.385,10.013-4.013,16.4-3.283,12.778-6.022,23.1-6.509,23-.548-.113,1.37-10.677,4.657-23.473,1.629-6.4,3.255-12.155,4.56-16.287.653-2.066,1.227-3.727,1.68-4.859a11.053,11.053,0,0,1,.588-1.287,1.632,1.632,0,0,1,.224-.319l.058-.05c.049-.057.187.03.125.033A.066.066,0,0,1,132.086,127.7Z" transform="translate(-120.14 -127.601)" fill="#e0e0e0"/>
            </g>
          </g>
        </g>
      </g>
    </g>
    <g id="Character_3" data-name="Character 3" transform="translate(440.611 1632.667)">
      <g id="Grupo_1011230" data-name="Grupo 1011230" transform="translate(0 0)">
        <ellipse id="Elipse_8458" data-name="Elipse 8458" cx="117.326" cy="117.326" rx="117.326" ry="117.326" transform="translate(0 50.853)" fill="#4db1f0" opacity="0.38"/>
        <g id="Grupo_1011229" data-name="Grupo 1011229" transform="translate(6.049)">
          <g id="Grupo_1011222" data-name="Grupo 1011222" transform="translate(11.096 119.842)">
            <path id="Trazado_715345" data-name="Trazado 715345" d="M340.318,329.6l.4-93.821s-16.567,2.29-19.343,2.687-4.056-2.8-11.984-10.732-6.74-29.732,3.568-36.869,32.9-33.3,34.491-34.887,12.686,0,17.047.793,12.29,5.153,14.273,5.55,16.651,2.775,16.651,2.775S444.98,174.21,449.342,175s23.786,12.29,28.544,13.083,10.308,8.325,11.1,11.893,8.325,67,11.5,71.361,13.876,59.447,13.876,59.447" transform="translate(-304.224 -155.294)" fill="#fff" stroke="#263238" stroke-linecap="round" stroke-linejoin="round" stroke-width="1"/>
            <path id="Trazado_715346" data-name="Trazado 715346" d="M401.658,188.674h4.907l14.275,5.8L404.781,180.2Z" transform="translate(-274.832 -147.782)" fill="#263238" stroke="#263238" stroke-linecap="round" stroke-linejoin="round" stroke-width="1"/>
            <path id="Trazado_715347" data-name="Trazado 715347" d="M378.011,190.633l19.182-2.677-6.691-9.814Z" transform="translate(-281.966 -148.402)" fill="#263238" stroke="#263238" stroke-linecap="round" stroke-linejoin="round" stroke-width="1"/>
            <path id="Trazado_715348" data-name="Trazado 715348" d="M342.551,170.067s2.149,29.014-1.074,41.372-5.911,15.582-5.911,15.582" transform="translate(-294.769 -150.838)" fill="none" stroke="#263238" stroke-linecap="round" stroke-linejoin="round" stroke-width="1"/>
            <path id="Trazado_715349" data-name="Trazado 715349" d="M339.579,221.942q-.719,2.5-1.536,5.013" transform="translate(-294.022 -135.19)" fill="#fff" stroke="#263238" stroke-linecap="round" stroke-linejoin="round" stroke-width="1"/>
            <path id="Trazado_715350" data-name="Trazado 715350" d="M345.977,185.34a194.8,194.8,0,0,1-5.739,42.754" transform="translate(-293.36 -146.231)" fill="#fff" stroke="#263238" stroke-linecap="round" stroke-linejoin="round" stroke-width="1"/>
            <path id="Trazado_715351" data-name="Trazado 715351" d="M443.072,309.654s-7.734-34.355-6.942-37.923,3.171-67.793,3.171-67.793" transform="translate(-264.451 -140.621)" fill="none" stroke="#263238" stroke-linecap="round" stroke-linejoin="round" stroke-width="1"/>
            <path id="Trazado_715352" data-name="Trazado 715352" d="M365.227,176.542q1.072,2.942,2.281,6.323" transform="translate(-285.822 -148.885)" fill="none" stroke="#263238" stroke-linecap="round" stroke-linejoin="round" stroke-width="1"/>
            <path id="Trazado_715353" data-name="Trazado 715353" d="M359.669,161.907s2.157,5.27,5.91,15.438" transform="translate(-287.499 -153.3)" fill="none" stroke="#263238" stroke-linecap="round" stroke-linejoin="round" stroke-width="1"/>
            <path id="Trazado_715354" data-name="Trazado 715354" d="M372.074,205.532a65.287,65.287,0,0,1,.9,6.648" transform="translate(-283.756 -140.14)" fill="none" stroke="#263238" stroke-linecap="round" stroke-linejoin="round" stroke-width="1"/>
            <path id="Trazado_715355" data-name="Trazado 715355" d="M361.5,176.222s8.591,16.4,12.694,33.17" transform="translate(-286.947 -148.981)" fill="none" stroke="#263238" stroke-linecap="round" stroke-linejoin="round" stroke-width="1"/>
            <path id="Trazado_715356" data-name="Trazado 715356" d="M397.55,193.532s4.609,42.882,4.609,48.829,3.43,72.4,3.43,72.4" transform="translate(-276.072 -143.76)" fill="none" stroke="#263238" stroke-linecap="round" stroke-linejoin="round" stroke-width="1"/>
            <g id="Grupo_1011221" data-name="Grupo 1011221" transform="translate(142.342 55.978)">
              <path id="Trazado_715357" data-name="Trazado 715357" d="M440.537,250.374,413.579,247.8V205.689l26.958,2.579Z" transform="translate(-413.579 -196.071)" fill="#fff" stroke="#263238" stroke-linecap="round" stroke-linejoin="round" stroke-width="1"/>
              <path id="Trazado_715358" data-name="Trazado 715358" d="M427.628,211.789l-6.74-.407V198.3l6.74.407Z" transform="translate(-411.374 -198.3)" fill="#ffa031" stroke="#263238" stroke-linecap="round" stroke-linejoin="round" stroke-width="1"/>
            </g>
          </g>
          <path id="Trazado_715359" data-name="Trazado 715359" d="M383.852,155.14s-3.02-.335-3.692.672-8.388,9.73-8.388,9.73a70.939,70.939,0,0,1,1.007,13.421c0,8.724,4.026,22.144,4.026,22.144l16.44-10.736s8.389-2.35,10.737-3.02,6.375,0,6.375,0,23.486,19.8,24.828,19.125-4.026-22.817-7.716-32.547-14.093-15.1-14.093-15.1S389.556,154.47,383.852,155.14Z" transform="translate(-272.751 -35.52)" fill="#fff" stroke="#263238" stroke-linecap="round" stroke-linejoin="round" stroke-width="1"/>
          <g id="Grupo_1011225" data-name="Grupo 1011225" transform="translate(86.734 14.843)">
            <path id="Trazado_715360" data-name="Trazado 715360" d="M382.338,123.68s-9.394,1.342-16.776,6.71-1.007,24.158,8.052,28.855,15.434,3.356,19.125-5.034,2.012-25.5-.336-28.184S382.338,123.68,382.338,123.68Z" transform="translate(-362.333 -59.836)" fill="#263238"/>
            <path id="Trazado_715361" data-name="Trazado 715361" d="M384.665,129.605l-3.354,36.573a195.447,195.447,0,0,0,9.394,24.829c6.376,14.092,11.744,21.809,11.744,21.809s8.052-14.763,10.066-19.8,4.026-14.428,4.026-14.428l5.034-21.809s-9.06-2.348-20.131-10.736A84.783,84.783,0,0,1,384.665,129.605Z" transform="translate(-356.608 -58.045)" fill="#ffd1bd" stroke="#263238" stroke-linecap="round" stroke-linejoin="round" stroke-width="1"/>
            <path id="Trazado_715362" data-name="Trazado 715362" d="M418.817,154.594s-9.06-2.348-20.131-10.736a96.783,96.783,0,0,1-8.236-7V151.85s8.457,14.8,16.912,19.026a21.168,21.168,0,0,0,7.228,2.032Z" transform="translate(-353.851 -55.857)" fill="#263238"/>
            <g id="Grupo_1011224" data-name="Grupo 1011224" transform="translate(18.361)">
              <path id="Trazado_715363" data-name="Trazado 715363" d="M431.429,125.369s2.684-2.684,3.02,3.02-3.356,10.4-5.7,12.415a42,42,0,0,1-3.356,2.684Z" transform="translate(-361.673 -59.513)" fill="#ffd1bd" stroke="#263238" stroke-linecap="round" stroke-linejoin="round" stroke-width="1"/>
              <path id="Trazado_715364" data-name="Trazado 715364" d="M423.049,84.817a34,34,0,0,0-24.89,6.222c-11.926,8.815-12.963,30.076-12.963,30.076s-4.148-3.63-6.741,1.036-2.593,16.594-.518,17.631,4.666,2.074,4.666,2.074,3.111,15.556,6.222,20.224,14.52,16.592,21.261,16.592,18.148-3.629,23.333-10.37,8.815-15.038,10.89-20.742,5.7-33.186,5.7-33.186,1.555-12.445-8.3-21.26S423.049,84.817,423.049,84.817Z" transform="translate(-376.439 -71.663)" fill="#ffd1bd" stroke="#263238" stroke-linecap="round" stroke-linejoin="round" stroke-width="1"/>
              <path id="Trazado_715365" data-name="Trazado 715365" d="M387.347,153.586c3.111,4.666,14.519,16.592,21.26,16.592s18.148-3.629,23.334-10.37,8.815-15.038,10.89-20.742a56.361,56.361,0,0,0,1.694-7.212c-1.355-1.343-10.527-10.083-22.288-12.558-12.75-2.684-35.9-4.7-35.9-4.7l-2.618-1.976-2.378,21.772C382.093,137.94,384.719,149.644,387.347,153.586Z" transform="translate(-374.961 -63.168)" fill="#3076b6" stroke="#263238" stroke-linecap="round" stroke-linejoin="round" stroke-width="1"/>
              <g id="Grupo_1011223" data-name="Grupo 1011223" transform="translate(23.117 34.298)">
                <path id="Trazado_715366" data-name="Trazado 715366" d="M416.367,122.595s2.014-10.066,3.02-12.75,7.718-5.034,12.75,2.348" transform="translate(-387.512 -99.088)" fill="none" stroke="#263238" stroke-linecap="round" stroke-linejoin="round" stroke-width="1"/>
                <path id="Trazado_715367" data-name="Trazado 715367" d="M411.646,105.023s-6.71-8.388-17.447-1.006" transform="translate(-394.199 -100.978)" fill="none" stroke="#263238" stroke-linecap="round" stroke-linejoin="round" stroke-width="1"/>
                <path id="Trazado_715368" data-name="Trazado 715368" d="M400.6,110.387c-.368,1.341-1.391,2.227-2.286,1.981s-1.319-1.531-.95-2.87,1.391-2.227,2.286-1.982S400.973,109.047,400.6,110.387Z" transform="translate(-393.283 -99.019)" fill="#263238"/>
                <path id="Trazado_715369" data-name="Trazado 715369" d="M423.286,115.87c-.37,1.339-1.393,2.227-2.286,1.981s-1.319-1.531-.95-2.871,1.391-2.227,2.286-1.981S423.654,114.529,423.286,115.87Z" transform="translate(-386.441 -97.365)" fill="#263238"/>
              </g>
              <path id="Trazado_715370" data-name="Trazado 715370" d="M385.17,122.193a2.578,2.578,0,0,0,2.953-1.044c1.006-1.678-1.006-7.716,6.376-15.1s15.77-8.389,19.8-11.744,4.7-5.034,2.012-8.388-6.71-9.06-21.473-.672S374.7,99.006,377.052,106.386a41.463,41.463,0,0,0,5.7,11.744Z" transform="translate(-376.414 -72.741)" fill="#263238"/>
              <path id="Trazado_715371" data-name="Trazado 715371" d="M404.51,85.123s3.02,7.047,8.388,9.731,12.414,3.69,20.8,8.724,6.71,20.131,6.71,20.131,11.408,5.7,16.105-2.684,9.06-22.481-9.4-32.883S414.912,65.327,404.51,85.123Z" transform="translate(-367.971 -74.629)" fill="#263238"/>
            </g>
          </g>
          <g id="Grupo_1011228" data-name="Grupo 1011228">
            <g id="Grupo_1011226" data-name="Grupo 1011226" transform="translate(77.717 3.568)">
              <path id="Trazado_715372" data-name="Trazado 715372" d="M366.535,67.794v47.78a4.955,4.955,0,0,1-4.948,4.949h-.016a4.954,4.954,0,0,1-4.948-4.949V67.794Z" transform="translate(-355.038 -65.416)" fill="#fff" stroke="#263238" stroke-linecap="round" stroke-linejoin="round" stroke-width="1"/>
              <path id="Trazado_715373" data-name="Trazado 715373" d="M366.535,87.287v22.407a4.955,4.955,0,0,1-4.948,4.949h-.016a4.954,4.954,0,0,1-4.948-4.949V87.287Z" transform="translate(-355.038 -59.536)" fill="#4db1f0" stroke="#263238" stroke-linecap="round" stroke-linejoin="round" stroke-width="1"/>
              <rect id="Rectángulo_347194" data-name="Rectángulo 347194" width="13.083" height="3.964" fill="#fff" stroke="#263238" stroke-linecap="round" stroke-linejoin="round" stroke-width="1"/>
            </g>
            <path id="Trazado_715374" data-name="Trazado 715374" d="M349.417,142.787s0-1.19-5.55-5.155-26.562-4.361-30.923.793,11.1,19.426,15.462,21.408,12.289-1.585,14.668-4.361S349.417,142.787,349.417,142.787Z" transform="translate(-290.729 -41.693)" fill="#fff" stroke="#263238" stroke-linecap="round" stroke-linejoin="round" stroke-width="1"/>
            <path id="Trazado_715375" data-name="Trazado 715375" d="M319.776,117.744l-3.965,29.734s7.533,10.308,14.273,10.7,12.686-5.947,12.686-5.947l1.585-29.734S328.894,122.106,319.776,117.744Z" transform="translate(-289.633 -46.78)" fill="#ffd1bd" stroke="#263238" stroke-linecap="round" stroke-linejoin="round" stroke-width="1"/>
            <g id="Grupo_1011227" data-name="Grupo 1011227" transform="translate(29.746)">
              <path id="Trazado_715376" data-name="Trazado 715376" d="M323.31,114.368s.793-19.426,1.585-27.356,3.172-13.479,4.362-13.479,15.857-10.308,15.857-10.308,23.788,1.585,26.166,1.585,7.137,1.585,6.74,3.965l-.4,2.378a12.613,12.613,0,0,1,0,3.965,4.455,4.455,0,0,1-1.585,1.982s.793,1.982-1.585,3.171-12.29,6.344-12.29,6.344-4.758,9.911-6.343,15.461-7.93,11.5-7.93,11.5.4,5.55.4,9.118-1.982,9.118-1.982,9.118.4,5.153,0,6.343-1.585,2.775-2.775,2.775-9.911,1.585-14.271.793-10.7-5.946-10.7-5.946l1.982-7.93V121.5C320.534,119.126,323.31,114.368,323.31,114.368Z" transform="translate(-318.552 -63.226)" fill="#3076b6" stroke="#263238" stroke-linecap="round" stroke-linejoin="round" stroke-width="1"/>
              <path id="Trazado_715377" data-name="Trazado 715377" d="M332.562,108.155s8.325-3.172,9.119-8.325,4.756-18.238,4.756-18.238l11.5-.4" transform="translate(-314.326 -57.805)" fill="none" stroke="#263238" stroke-linecap="round" stroke-linejoin="round" stroke-width="1"/>
              <path id="Trazado_715378" data-name="Trazado 715378" d="M335.913,78.247S346.221,74.679,349,74.679s21.8-.793,21.8-.793" transform="translate(-313.315 -60.01)" fill="none" stroke="#263238" stroke-linecap="round" stroke-linejoin="round" stroke-width="1"/>
              <path id="Trazado_715379" data-name="Trazado 715379" d="M335.608,70.69a66.837,66.837,0,0,1,14.668-1.982c7.137,0,22.2.793,22.2.793" transform="translate(-313.407 -61.572)" fill="none" stroke="#263238" stroke-linecap="round" stroke-linejoin="round" stroke-width="1"/>
              <path id="Trazado_715380" data-name="Trazado 715380" d="M321.9,114.394s5.155,5.55,16.255,4.361" transform="translate(-317.541 -47.791)" fill="none" stroke="#263238" stroke-linecap="round" stroke-linejoin="round" stroke-width="1"/>
              <path id="Trazado_715381" data-name="Trazado 715381" d="M341.836,113.176s-1.982,1.188-11.1,1.188" transform="translate(-314.877 -48.158)" fill="none" stroke="#263238" stroke-linecap="round" stroke-linejoin="round" stroke-width="1"/>
            </g>
            <path id="Trazado_715382" data-name="Trazado 715382" d="M321.878,141.506l-3.965-3.965s-21.8,82.461-22.2,88.409,8.722,15.858,13.876,18.236,22.2.4,27.751-2.378,9.118-13.876,12.29-24.184-.4-28.544.4-34.094,4.361-41.627,4.361-41.627l-5.55,4.361S333.375,145.868,321.878,141.506Z" transform="translate(-295.699 -40.808)" fill="#fff" stroke="#263238" stroke-linecap="round" stroke-linejoin="round" stroke-width="1"/>
          </g>
        </g>
        <line id="Línea_2468" data-name="Línea 2468" x2="207.218" transform="translate(34.706 294.767)" fill="none" stroke="#263238" stroke-linecap="round" stroke-linejoin="round" stroke-width="1"/>
      </g>
    </g>
  </g>
</svg>
