<svg xmlns="http://www.w3.org/2000/svg" width="400" height="506" viewBox="0 0 400 506">
  <g id="Grupo_1013271" data-name="Grupo 1013271" transform="translate(-1020 -1445)">
    <path id="Trazado_715342" data-name="Trazado 715342" d="M19,0H381a19,19,0,0,1,19,19V487a19,19,0,0,1-19,19H19A19,19,0,0,1,0,487V19A19,19,0,0,1,19,0Z" transform="translate(1020 1445)" fill="#85c8f2"/>
    <path id="Trazado_716188" data-name="Trazado 716188" d="M0,0H399V46a20,20,0,0,1-20,20H20A20,20,0,0,1,0,46Z" transform="translate(1020 1885)" fill="#0071b3" opacity="0.9"/>
    <path id="Trazado_716189" data-name="Trazado 716189" d="M11.235-4.85a1.954,1.954,0,0,0-.762-1.657A9.991,9.991,0,0,0,7.731-7.725,19.439,19.439,0,0,1,4.6-8.988q-3.148-1.7-3.148-4.583a4.464,4.464,0,0,1,.844-2.672,5.507,5.507,0,0,1,2.425-1.834,9.127,9.127,0,0,1,3.548-.66,8.307,8.307,0,0,1,3.529.717A5.62,5.62,0,0,1,14.2-16a5.3,5.3,0,0,1,.857,2.971H11.248a2.493,2.493,0,0,0-.8-1.974A3.288,3.288,0,0,0,8.2-15.7a3.513,3.513,0,0,0-2.171.59,1.862,1.862,0,0,0-.774,1.555,1.783,1.783,0,0,0,.908,1.511,10.255,10.255,0,0,0,2.672,1.143A11.547,11.547,0,0,1,13.571-8.48a4.829,4.829,0,0,1,1.485,3.605,4.448,4.448,0,0,1-1.815,3.764A7.948,7.948,0,0,1,8.354.254,9.438,9.438,0,0,1,4.469-.527,6.147,6.147,0,0,1,1.8-2.666a5.478,5.478,0,0,1-.92-3.148H4.7q0,3.06,3.656,3.06a3.557,3.557,0,0,0,2.12-.552A1.8,1.8,0,0,0,11.235-4.85ZM16.821-7a8.146,8.146,0,0,1,.787-3.644,5.762,5.762,0,0,1,2.266-2.476,6.611,6.611,0,0,1,3.434-.876,6.255,6.255,0,0,1,4.539,1.7,6.827,6.827,0,0,1,1.961,4.621l.025.939a7.18,7.18,0,0,1-1.765,5.072A6.134,6.134,0,0,1,23.334.254a6.164,6.164,0,0,1-4.742-1.9,7.306,7.306,0,0,1-1.771-5.18Zm3.669.26a5.135,5.135,0,0,0,.736,2.994A2.429,2.429,0,0,0,23.334-2.7a2.435,2.435,0,0,0,2.082-1.024A5.618,5.618,0,0,0,26.165-7a5.083,5.083,0,0,0-.749-2.975,2.435,2.435,0,0,0-2.107-1.055,2.4,2.4,0,0,0-2.082,1.049A5.713,5.713,0,0,0,20.49-6.735Zm23.981-.007a8.318,8.318,0,0,1-1.409,5.148A4.668,4.668,0,0,1,39.127.254,4.289,4.289,0,0,1,35.56-1.46L35.395,0h-3.3V-19.5h3.669v7A4.178,4.178,0,0,1,39.1-13.99a4.706,4.706,0,0,1,3.942,1.847,8.33,8.33,0,0,1,1.428,5.2ZM40.8-7.008a5.464,5.464,0,0,0-.66-3.041,2.232,2.232,0,0,0-1.968-.958,2.42,2.42,0,0,0-2.412,1.435v5.421A2.453,2.453,0,0,0,38.2-2.7a2.265,2.265,0,0,0,2.336-1.752A9.038,9.038,0,0,0,40.8-7.008ZM54.45-10.3a9.968,9.968,0,0,0-1.32-.1A2.687,2.687,0,0,0,50.4-8.988V0H46.731V-13.736H50.2l.1,1.638a3.4,3.4,0,0,1,3.06-1.892,3.844,3.844,0,0,1,1.143.165ZM62.3.254A6.743,6.743,0,0,1,57.376-1.6a6.588,6.588,0,0,1-1.9-4.938v-.355a8.3,8.3,0,0,1,.8-3.7,5.87,5.87,0,0,1,2.266-2.514,6.36,6.36,0,0,1,3.345-.882,5.7,5.7,0,0,1,4.437,1.777,7.222,7.222,0,0,1,1.619,5.04v1.5H59.2a3.408,3.408,0,0,0,1.073,2.158,3.243,3.243,0,0,0,2.266.813A3.96,3.96,0,0,0,65.851-4.24l1.8,2.019A5.508,5.508,0,0,1,65.419-.4,7.331,7.331,0,0,1,62.3.254Zm-.419-11.286a2.293,2.293,0,0,0-1.771.74,3.83,3.83,0,0,0-.87,2.117h5.1v-.293a2.731,2.731,0,0,0-.66-1.894A2.365,2.365,0,0,0,61.877-11.032ZM77.467-3.8a1.182,1.182,0,0,0-.667-1.06,7.571,7.571,0,0,0-2.139-.692q-4.9-1.028-4.9-4.164a3.774,3.774,0,0,1,1.517-3.053,6.12,6.12,0,0,1,3.967-1.225,6.587,6.587,0,0,1,4.183,1.231A3.881,3.881,0,0,1,81-9.56H77.327a1.775,1.775,0,0,0-.508-1.3,2.149,2.149,0,0,0-1.587-.514,2.2,2.2,0,0,0-1.435.419A1.323,1.323,0,0,0,73.29-9.89a1.13,1.13,0,0,0,.578.984,5.942,5.942,0,0,0,1.949.647,15.917,15.917,0,0,1,2.311.616q2.907,1.066,2.907,3.694A3.583,3.583,0,0,1,79.422-.908,6.955,6.955,0,0,1,75.258.254a7.264,7.264,0,0,1-3.066-.616,5.144,5.144,0,0,1-2.1-1.688,3.923,3.923,0,0,1-.762-2.317h3.479a1.915,1.915,0,0,0,.724,1.5,2.87,2.87,0,0,0,1.8.521,2.657,2.657,0,0,0,1.593-.4A1.244,1.244,0,0,0,77.467-3.8ZM91.355,0a4.074,4.074,0,0,1-.368-1.231A4.439,4.439,0,0,1,87.521.254,4.877,4.877,0,0,1,84.176-.914,3.756,3.756,0,0,1,82.85-3.859a3.882,3.882,0,0,1,1.619-3.352,7.987,7.987,0,0,1,4.678-1.181h1.688v-.787a2.264,2.264,0,0,0-.489-1.523,1.923,1.923,0,0,0-1.542-.571,2.186,2.186,0,0,0-1.454.444,1.509,1.509,0,0,0-.527,1.219H83.154a3.686,3.686,0,0,1,.736-2.209,4.867,4.867,0,0,1,2.082-1.593,7.588,7.588,0,0,1,3.021-.578,6,6,0,0,1,4.031,1.276,4.463,4.463,0,0,1,1.492,3.586v5.954a6.567,6.567,0,0,0,.546,2.958V0ZM88.321-2.552a3.16,3.16,0,0,0,1.5-.362,2.376,2.376,0,0,0,1.016-.971V-6.246H89.464q-2.755,0-2.933,1.9l-.013.216A1.469,1.469,0,0,0,87-3,1.874,1.874,0,0,0,88.321-2.552Zm13.406-14.562v3.377h2.349v2.691h-2.349v6.855A1.637,1.637,0,0,0,102.02-3.1a1.467,1.467,0,0,0,1.117.33,5.851,5.851,0,0,0,1.079-.089v2.78a7.553,7.553,0,0,1-2.222.33q-3.859,0-3.936-3.9v-7.4H96.053v-2.691h2.006v-3.377ZM114.347-1.4a4.6,4.6,0,0,1-3.758,1.65,4.339,4.339,0,0,1-3.371-1.27,5.419,5.419,0,0,1-1.187-3.72v-9H109.7v8.884q0,2.148,1.955,2.148A2.649,2.649,0,0,0,114.22-4v-9.736H117.9V0h-3.453Zm14.041-8.9a9.968,9.968,0,0,0-1.32-.1,2.687,2.687,0,0,0-2.729,1.409V0h-3.669V-13.736h3.466l.1,1.638a3.4,3.4,0,0,1,3.06-1.892,3.844,3.844,0,0,1,1.143.165ZM137.731,0a4.074,4.074,0,0,1-.368-1.231A4.439,4.439,0,0,1,133.9.254a4.877,4.877,0,0,1-3.345-1.168,3.756,3.756,0,0,1-1.327-2.945,3.882,3.882,0,0,1,1.619-3.352,7.987,7.987,0,0,1,4.678-1.181h1.688v-.787a2.264,2.264,0,0,0-.489-1.523,1.923,1.923,0,0,0-1.542-.571,2.186,2.186,0,0,0-1.454.444A1.509,1.509,0,0,0,133.2-9.61H129.53a3.685,3.685,0,0,1,.736-2.209,4.867,4.867,0,0,1,2.082-1.593,7.588,7.588,0,0,1,3.021-.578,6,6,0,0,1,4.031,1.276,4.463,4.463,0,0,1,1.492,3.586v5.954a6.567,6.567,0,0,0,.546,2.958V0ZM134.7-2.552a3.16,3.16,0,0,0,1.5-.362,2.376,2.376,0,0,0,1.016-.971V-6.246H135.84q-2.755,0-2.933,1.9l-.013.216A1.469,1.469,0,0,0,133.377-3,1.874,1.874,0,0,0,134.7-2.552ZM143.14-6.97a8.278,8.278,0,0,1,1.441-5.116,4.675,4.675,0,0,1,3.942-1.9,4.207,4.207,0,0,1,3.313,1.5V-19.5h3.682V0H152.2l-.178-1.46A4.318,4.318,0,0,1,148.5.254a4.663,4.663,0,0,1-3.891-1.911A8.545,8.545,0,0,1,143.14-6.97Zm3.669.273a5.423,5.423,0,0,0,.673,2.963,2.192,2.192,0,0,0,1.955,1.03,2.455,2.455,0,0,0,2.4-1.437V-9.57a2.42,2.42,0,0,0-2.374-1.437Q146.809-11.007,146.809-6.7ZM166.321,0a4.074,4.074,0,0,1-.368-1.231A4.439,4.439,0,0,1,162.487.254a4.877,4.877,0,0,1-3.345-1.168,3.756,3.756,0,0,1-1.327-2.945,3.882,3.882,0,0,1,1.619-3.352,7.987,7.987,0,0,1,4.678-1.181H165.8v-.787a2.264,2.264,0,0,0-.489-1.523,1.923,1.923,0,0,0-1.542-.571,2.186,2.186,0,0,0-1.454.444,1.509,1.509,0,0,0-.527,1.219H158.12a3.685,3.685,0,0,1,.736-2.209,4.867,4.867,0,0,1,2.082-1.593,7.588,7.588,0,0,1,3.021-.578,6,6,0,0,1,4.031,1.276,4.463,4.463,0,0,1,1.492,3.586v5.954a6.567,6.567,0,0,0,.546,2.958V0Zm-3.034-2.552a3.16,3.16,0,0,0,1.5-.362,2.376,2.376,0,0,0,1.016-.971V-6.246H164.43q-2.755,0-2.933,1.9l-.013.216A1.469,1.469,0,0,0,161.967-3,1.874,1.874,0,0,0,163.287-2.552ZM179.74-3.8a1.182,1.182,0,0,0-.667-1.06,7.571,7.571,0,0,0-2.139-.692q-4.9-1.028-4.9-4.164a3.774,3.774,0,0,1,1.517-3.053,6.12,6.12,0,0,1,3.967-1.225,6.587,6.587,0,0,1,4.183,1.231,3.881,3.881,0,0,1,1.568,3.2H179.6a1.775,1.775,0,0,0-.508-1.3,2.149,2.149,0,0,0-1.587-.514,2.2,2.2,0,0,0-1.435.419,1.322,1.322,0,0,0-.508,1.066,1.131,1.131,0,0,0,.578.984,5.942,5.942,0,0,0,1.949.647,15.917,15.917,0,0,1,2.311.616q2.907,1.066,2.907,3.694A3.583,3.583,0,0,1,181.7-.908,6.955,6.955,0,0,1,177.531.254a7.264,7.264,0,0,1-3.066-.616,5.144,5.144,0,0,1-2.1-1.688,3.923,3.923,0,0,1-.762-2.317h3.479a1.915,1.915,0,0,0,.724,1.5,2.87,2.87,0,0,0,1.8.521,2.657,2.657,0,0,0,1.593-.4A1.244,1.244,0,0,0,179.74-3.8Z" transform="translate(1125 1928)" fill="#f6f6f6"/>
    <g id="Grupo_1011187" data-name="Grupo 1011187" transform="translate(830)">
      <g id="Grupo_1011184" data-name="Grupo 1011184" transform="translate(-195.897 -918.313)">
        <g id="Grupo_1011182" data-name="Grupo 1011182" transform="translate(480.897 2588.119)">
          <path id="Trazado_715323" data-name="Trazado 715323" d="M464.114,2623.48l33.564,9-.586,40.949-33-10.688Z" transform="translate(-464.093 -2614.583)" fill="#edf0f4"/>
          <path id="Trazado_715324" data-name="Trazado 715324" d="M532.254,2632.242l29.352-9.226-1.317,36.327-28.62,13.847Z" transform="translate(-498.668 -2614.346)" fill="#c8cddb"/>
          <path id="Trazado_715325" data-name="Trazado 715325" d="M464.137,2614.159l28.447-8.9,34.468,8.671-29.352,9.225Z" transform="translate(-464.115 -2605.262)" fill="#dadee5"/>
          <path id="Trazado_715326" data-name="Trazado 715326" d="M535.25,2653.948a.975.975,0,0,1,.342.324c.146.316-.187.626-.419.885a3.857,3.857,0,0,0-.734,2.185,5.544,5.544,0,0,0,.2,2.974,1.938,1.938,0,0,0,2.462,1.1,1.647,1.647,0,0,0-.861-1.178,1.432,1.432,0,0,0,1.772-.759,2.338,2.338,0,0,0-.145-2.054,6.92,6.92,0,0,0-1.353-1.641,1.9,1.9,0,0,0,1.971-1.067,2.308,2.308,0,0,0-.256-2.282,3.11,3.11,0,0,0,3.044-.74,1.98,1.98,0,0,0-.218-2.884,2.221,2.221,0,0,0,1.547.057,1.331,1.331,0,0,0,.884-1.193,2.052,2.052,0,0,0-.973-1.439,1.939,1.939,0,0,0-1.339-.548c-.492.057-.905.68-.59,1.062a3.632,3.632,0,0,0-1.776-1.057,1.487,1.487,0,0,0-1.7.887,1.732,1.732,0,0,0-1.082,3.095,5.774,5.774,0,0,0-1.334,2.035A2.057,2.057,0,0,0,535.25,2653.948Z" transform="translate(-500.031 -2625.939)" fill="#dadee5"/>
          <path id="Trazado_715327" data-name="Trazado 715327" d="M554.421,2639.548a1.023,1.023,0,0,0-.674.217.548.548,0,0,0-.147.653l-.568.023c-.053.624-.055,1.365.451,1.733a1.866,1.866,0,0,0,1.534.075l.273-.067a6.011,6.011,0,0,1,2.209-.253,1.816,1.816,0,0,0,.156-1.691.948.948,0,0,0-1.493-.034l-.279.031A1.89,1.89,0,0,0,554.421,2639.548Z" transform="translate(-509.587 -2622.804)" fill="#dadee5"/>
          <path id="Trazado_715328" data-name="Trazado 715328" d="M543.642,2683.185a1.354,1.354,0,0,0-1.053.42c-.4.55.106,1.286.583,1.77l1.459,1.481c.219.222.5.464.8.379-.551.755-1.005,1.844-.408,2.564.536.646,1.54.531,2.361.356a1.632,1.632,0,0,0,1.666-2.756,6.456,6.456,0,0,0,2.52-1.626,3.363,3.363,0,0,0,.878-2.787,2.3,2.3,0,0,0-2.067-1.887,3.854,3.854,0,0,0-.627.054l-1.1.157a12.3,12.3,0,0,0-2.2.453,1.529,1.529,0,0,0-1.006.763c-.16.4.171.979.594.878A7.923,7.923,0,0,0,543.642,2683.185Z" transform="translate(-504.182 -2644.064)" fill="#dadee5"/>
          <path id="Trazado_715329" data-name="Trazado 715329" d="M519.439,2629.015c.812-.07,1.614.475,2.406.283a2.01,2.01,0,0,0,1.278-2.058.724.724,0,0,0-.579-.814,3.9,3.9,0,0,0-3.157.254c.568-.158.657-1.008.285-1.467a2.685,2.685,0,0,0-1.565-.75,14.769,14.769,0,0,0-3.407-.486.537.537,0,0,0-.334.081.559.559,0,0,0-.15.424c-.037.6.027,1.366.6,1.565a9.956,9.956,0,0,0-2.049-.111,1.8,1.8,0,0,0-.831.188.7.7,0,0,0-.373.713c.1.467.719.56,1.2.55l2.835-.056q-.05.74-.1,1.481a4.139,4.139,0,0,0,3.075.412A5.3,5.3,0,0,1,519.439,2629.015Z" transform="translate(-488.373 -2614.837)" fill="#edf0f4"/>
          <path id="Trazado_715330" data-name="Trazado 715330" d="M505.512,2626.642a1.236,1.236,0,0,0-1.489.069,1.464,1.464,0,0,0-.175,1.115.45.45,0,0,0,.111.3.39.39,0,0,0,.215.08,1.687,1.687,0,0,0,1.633-.787.57.57,0,0,0,.1-.34C505.887,2626.874,505.694,2626.735,505.512,2626.642Z" transform="translate(-484.419 -2616.092)" fill="#edf0f4"/>
          <path id="Trazado_715331" data-name="Trazado 715331" d="M535.769,2622.872a3.763,3.763,0,0,0-2.271-.049c-.2.06-.442.262-.315.43a4.649,4.649,0,0,0,3.058.6.441.441,0,0,0,.092-.606A1.045,1.045,0,0,0,535.769,2622.872Z" transform="translate(-499.425 -2614.169)" fill="#edf0f4"/>
          <path id="Trazado_715332" data-name="Trazado 715332" d="M513.582,2615.928a3.937,3.937,0,0,0,2.312.574,1.224,1.224,0,0,0-.1.719,6.64,6.64,0,0,0,3.49-.12c.295-.092.64-.291.607-.6a4.048,4.048,0,0,0-1.62-.521,1.646,1.646,0,0,0,.795-.144c0-.153-.009-.306-.014-.459l-2.785-.748a5.037,5.037,0,0,0-1.364-.235l-.134.767A1.156,1.156,0,0,0,513.582,2615.928Z" transform="translate(-489.414 -2609.936)" fill="#edf0f4"/>
          <path id="Trazado_715333" data-name="Trazado 715333" d="M468.186,2629.607q.11.648.22,1.3l.056,33.735a1.512,1.512,0,0,0,2.147-.852c.059-.219.066-.45.141-.664a2.535,2.535,0,0,1,.637-.863,19.792,19.792,0,0,0,2.643-3.838,6.783,6.783,0,0,0,1.238-4.658q-.055-2.75-.11-5.5a2.377,2.377,0,0,0,1.662-1.729,7,7,0,0,0,.109-2.5,6.031,6.031,0,0,0,2.848.081,2.071,2.071,0,0,0,1.579-2.109,7.241,7.241,0,0,0,2.4.376,2.456,2.456,0,0,0,2.029-1.162,1.857,1.857,0,0,0,3.57-.514,2.755,2.755,0,0,0,4.239-.9,1.208,1.208,0,0,1,.336-.571,1.3,1.3,0,0,1,.84-.084,2.186,2.186,0,0,0,2.108-2.682,35.161,35.161,0,0,1-6.066-.724c-1.468-.307-2.914-.707-4.36-1.107C480.351,2632.945,474.286,2631.294,468.186,2629.607Z" transform="translate(-466.187 -2617.718)" fill="#fff"/>
        </g>
        <g id="Grupo_1011183" data-name="Grupo 1011183" transform="translate(609.915 2486.313)">
          <path id="Trazado_715334" data-name="Trazado 715334" d="M700.214,2495.952H631.693s-.165,183.4-.165,184.5a34.335,34.335,0,0,0,68.67,0c0-.043-.007-.085-.007-.118h.023Z" transform="translate(-625.455 -2488.359)" fill="#e3e8ec"/>
          <path id="Trazado_715335" data-name="Trazado 715335" d="M700.214,2495.952H631.693s-.165,183.4-.165,184.5a34.335,34.335,0,0,0,68.67,0c0-.043-.007-.085-.007-.118h.023Z" transform="translate(-625.455 -2488.359)" fill="#e3e8ec"/>
          <path id="Trazado_715336" data-name="Trazado 715336" d="M697.247,2557.888c-3.563-.159-3.688-3.243-7.447-3.243-3.852,0-3.852,3.272-7.714,3.272-3.845,0-3.845-3.272-7.7-3.272s-3.853,3.272-7.706,3.272-3.853-3.272-7.7-3.272-3.862,3.272-7.714,3.272-3.845-3.272-7.706-3.272c-3.571,0-3.869,2.784-6.968,3.19V2686.6h.008c-.008,3.1-.008,4.9-.008,5.011a30.314,30.314,0,1,0,60.627,0v-.106h.016v-4.9h.016Z" transform="translate(-626.529 -2500.818)" fill="#118e9f"/>
          <path id="Trazado_715337" data-name="Trazado 715337" d="M654.942,2693.763v-.012h0V2557.486a4.823,4.823,0,0,1-2.1.432c-3.845,0-3.845-3.272-7.706-3.272a5.4,5.4,0,0,0-1.075.106c-.008,49.491-.016,138.907-.016,139.011a5.446,5.446,0,0,0,10.892,0Z" transform="translate(-628.113 -2500.818)" fill="#8ccfda"/>
          <path id="Trazado_715338" data-name="Trazado 715338" d="M702.423,2495.952h-8.553V2673.19h-.024v.122a34.324,34.324,0,0,1-51.728,29.558,34.326,34.326,0,0,0,60.289-22.422v-.118h.016Z" transform="translate(-627.703 -2488.359)" fill="#d9d9d9" style="mix-blend-mode: multiply;isolation: isolate"/>
          <rect id="Rectángulo_347188" data-name="Rectángulo 347188" width="80.982" height="17.124" transform="translate(0)" fill="#c8d2d8"/>
          <path id="Trazado_715339" data-name="Trazado 715339" d="M702.358,2492.85a3.407,3.407,0,0,1-3.413,3.413H629.662a3.412,3.412,0,0,1-3.413-3.413h0a3.416,3.416,0,0,1,3.413-3.414h69.282a3.411,3.411,0,0,1,3.413,3.414Z" transform="translate(-624.334 -2486.976)" fill="#f5f5f5"/>
        </g>
      </g>
      <g id="Grupo_1011185" data-name="Grupo 1011185" transform="translate(3 -31)">
        <rect id="Rectángulo_347189" data-name="Rectángulo 347189" width="49" height="8" transform="translate(352 1725)" fill="#636363"/>
        <path id="Polígono_6" data-name="Polígono 6" d="M7.5,0,15,12H0Z" transform="translate(410.5 1721.5) rotate(90)" fill="#636363"/>
      </g>
    </g>
    <g id="Grupo_1011188" data-name="Grupo 1011188" transform="matrix(0.875, 0.485, -0.485, 0.875, 1272.334, 1721.441)" opacity="0.71">
      <path id="Trazado_715323-2" data-name="Trazado 715323" d="M464.11,2623.481l26.485,7.1-.462,32.312-26.04-8.434Z" transform="translate(-464.093 -2616.46)" fill="#edf0f4"/>
      <path id="Trazado_715324-2" data-name="Trazado 715324" d="M532.13,2630.3l23.161-7.28-1.039,28.665-22.584,10.927Z" transform="translate(-505.628 -2616.174)" fill="#c8cddb"/>
      <path id="Trazado_715325-2" data-name="Trazado 715325" d="M464.137,2612.282l22.447-7.021,27.2,6.842-23.161,7.28Z" transform="translate(-464.12 -2605.262)" fill="#dadee5"/>
      <path id="Trazado_715326-2" data-name="Trazado 715326" d="M536.166,2662.217a1.955,1.955,0,0,1,.684.647c.291.633-.373,1.251-.839,1.771a7.711,7.711,0,0,0-1.468,4.369c-.237,2-.446,4.118.4,5.946s3.141,3.143,4.922,2.2a3.291,3.291,0,0,0-1.721-2.355,2.865,2.865,0,0,0,3.543-1.518,4.672,4.672,0,0,0-.291-4.106,13.836,13.836,0,0,0-2.7-3.281,3.789,3.789,0,0,0,3.941-2.133,4.614,4.614,0,0,0-.513-4.562,6.22,6.22,0,0,0,6.087-1.479c1.472-1.626,1.412-4.584-.436-5.766a4.442,4.442,0,0,0,3.093.113,2.661,2.661,0,0,0,1.767-2.386,4.1,4.1,0,0,0-1.945-2.876,3.883,3.883,0,0,0-2.676-1.1c-.984.114-1.81,1.361-1.181,2.124a7.271,7.271,0,0,0-3.55-2.113,2.975,2.975,0,0,0-3.392,1.773,3.462,3.462,0,0,0-2.163,6.188,11.557,11.557,0,0,0-2.667,4.07A4.112,4.112,0,0,0,536.166,2662.217Z" transform="translate(-507.266 -2649.346)" fill="#dadee5"/>
      <path id="Trazado_715344" data-name="Trazado 715344" d="M536.166,2662.217a1.955,1.955,0,0,1,.684.647c.291.633-.373,1.251-.839,1.771a7.711,7.711,0,0,0-1.468,4.369c-.237,2-.446,4.118.4,5.946s3.141,3.143,4.922,2.2a3.291,3.291,0,0,0-1.721-2.355,2.865,2.865,0,0,0,3.543-1.518,4.672,4.672,0,0,0-.291-4.106,13.836,13.836,0,0,0-2.7-3.281,3.789,3.789,0,0,0,3.941-2.133,4.614,4.614,0,0,0-.513-4.562,6.22,6.22,0,0,0,6.087-1.479c1.472-1.626,1.412-4.584-.436-5.766a4.442,4.442,0,0,0,3.093.113,2.661,2.661,0,0,0,1.767-2.386,4.1,4.1,0,0,0-1.945-2.876,3.883,3.883,0,0,0-2.676-1.1c-.984.114-1.81,1.361-1.181,2.124a7.271,7.271,0,0,0-3.55-2.113,2.975,2.975,0,0,0-3.392,1.773,3.462,3.462,0,0,0-2.163,6.188,11.557,11.557,0,0,0-2.667,4.07A4.112,4.112,0,0,0,536.166,2662.217Z" transform="translate(-524.342 -2664.797)" fill="#dadee5"/>
      <path id="Trazado_715327-2" data-name="Trazado 715327" d="M554.123,2639.548a.808.808,0,0,0-.532.171.433.433,0,0,0-.116.515l-.448.018c-.042.492-.043,1.077.356,1.368a1.472,1.472,0,0,0,1.211.059l.216-.052a4.748,4.748,0,0,1,1.743-.2,1.433,1.433,0,0,0,.123-1.334.748.748,0,0,0-1.178-.027l-.22.024A1.491,1.491,0,0,0,554.123,2639.548Z" transform="translate(-518.745 -2626.336)" fill="#dadee5"/>
      <path id="Trazado_715328-2" data-name="Trazado 715328" d="M543.39,2682.745a1.069,1.069,0,0,0-.831.332c-.314.434.084,1.015.46,1.4l1.151,1.169c.173.175.4.366.634.3-.435.6-.793,1.455-.322,2.023.423.509,1.215.419,1.863.281a1.288,1.288,0,0,0,1.315-2.174,5.093,5.093,0,0,0,1.988-1.283,2.653,2.653,0,0,0,.693-2.2,1.815,1.815,0,0,0-1.631-1.489,3.054,3.054,0,0,0-.494.043l-.868.124a9.717,9.717,0,0,0-1.74.357,1.207,1.207,0,0,0-.794.6c-.126.319.135.772.469.693A6.251,6.251,0,0,0,543.39,2682.745Z" transform="translate(-512.253 -2651.875)" fill="#dadee5"/>
      <path id="Trazado_715329-2" data-name="Trazado 715329" d="M523.088,2639.792c1.187-.219,2.361,1.493,3.519.888,1.24-.645,1.884-3.72,1.869-6.461a5.581,5.581,0,0,0-.191-1.659,1.8,1.8,0,0,0-.656-.9c-1.5-1.154-3.225-.854-4.617.8.831-.5.961-3.163.417-4.6a3.973,3.973,0,0,0-2.289-2.354,11.262,11.262,0,0,0-4.982-1.527.5.5,0,0,0-.488.253,3.153,3.153,0,0,0-.22,1.331c-.054,1.888.04,4.29.871,4.915a6.964,6.964,0,0,0-3-.347,1.61,1.61,0,0,0-1.215.592,3.344,3.344,0,0,0-.545,2.238c.15,1.466,1.052,1.757,1.751,1.728q2.073-.089,4.146-.177-.074,2.325-.149,4.65c1.345,1.661,3,2.136,4.5,1.294A4.773,4.773,0,0,1,523.088,2639.792Z" transform="translate(-493.261 -2629.406)" fill="#edf0f4"/>
      <path id="Trazado_715343" data-name="Trazado 715343" d="M523.088,2639.792c1.187-.219,2.361,1.493,3.519.888,1.24-.645,1.884-3.72,1.869-6.461a5.581,5.581,0,0,0-.191-1.659,1.8,1.8,0,0,0-.656-.9c-1.5-1.154-3.225-.854-4.617.8.831-.5.961-3.163.417-4.6a3.973,3.973,0,0,0-2.289-2.354,11.262,11.262,0,0,0-4.982-1.527.5.5,0,0,0-.488.253,3.153,3.153,0,0,0-.22,1.331c-.054,1.888.04,4.29.871,4.915a6.964,6.964,0,0,0-3-.347,1.61,1.61,0,0,0-1.215.592,3.344,3.344,0,0,0-.545,2.238c.15,1.466,1.052,1.757,1.751,1.728q2.073-.089,4.146-.177-.074,2.325-.149,4.65c1.345,1.661,3,2.136,4.5,1.294A4.773,4.773,0,0,1,523.088,2639.792Z" transform="translate(-516.124 -2635.026)" fill="#edf0f4"/>
      <path id="Trazado_715330-2" data-name="Trazado 715330" d="M505.155,2626.6a.975.975,0,0,0-1.175.054,1.155,1.155,0,0,0-.138.88.356.356,0,0,0,.087.235.309.309,0,0,0,.169.063,1.33,1.33,0,0,0,1.288-.621.45.45,0,0,0,.08-.268C505.451,2626.78,505.3,2626.671,505.155,2626.6Z" transform="translate(-488.511 -2618.272)" fill="#edf0f4"/>
      <path id="Trazado_715331-2" data-name="Trazado 715331" d="M535.217,2622.83a2.967,2.967,0,0,0-1.792-.039c-.159.047-.349.207-.249.339a3.668,3.668,0,0,0,2.413.47.347.347,0,0,0,.073-.478A.823.823,0,0,0,535.217,2622.83Z" transform="translate(-506.538 -2615.963)" fill="#edf0f4"/>
      <path id="Trazado_715332-2" data-name="Trazado 715332" d="M513.582,2615.605a3.107,3.107,0,0,0,1.824.452.966.966,0,0,0-.08.568,5.237,5.237,0,0,0,2.754-.094c.233-.073.505-.229.479-.471a3.2,3.2,0,0,0-1.278-.411,1.3,1.3,0,0,0,.627-.114q-.005-.181-.011-.362l-2.2-.59a3.972,3.972,0,0,0-1.076-.185l-.106.6A.913.913,0,0,0,513.582,2615.605Z" transform="translate(-494.511 -2610.877)" fill="#edf0f4"/>
      <path id="Trazado_715333-2" data-name="Trazado 715333" d="M468.186,2629.607q.089.711.178,1.422l.045,37.033c.616.513,1.551.011,1.739-.935.048-.241.054-.494.114-.729a2.888,2.888,0,0,1,.516-.947,23.178,23.178,0,0,0,2.141-4.214,11.894,11.894,0,0,0,.889-2.655,13.422,13.422,0,0,0,.114-2.458q-.044-3.018-.089-6.037a2.406,2.406,0,0,0,1.346-1.9,10.355,10.355,0,0,0,.089-2.75,3.653,3.653,0,0,0,2.306.089,2.291,2.291,0,0,0,1.279-2.315,4.482,4.482,0,0,0,1.944.413,1.972,1.972,0,0,0,1.643-1.276,1.547,1.547,0,0,0,1.609,1.255,1.935,1.935,0,0,0,1.282-1.819c1,1.29,2.911.737,3.433-.99a1.48,1.48,0,0,1,.273-.627c.189-.184.448-.11.681-.092,1.077.081,2.02-1.543,1.707-2.944a21.4,21.4,0,0,1-4.913-.794c-1.189-.336-2.361-.776-3.531-1.215C478.039,2633.272,473.127,2631.459,468.186,2629.607Z" transform="translate(-466.609 -2631.097)" fill="#fff"/>
    </g>
    <path id="Trazado_716190" data-name="Trazado 716190" d="M-135.82-2.984A1.2,1.2,0,0,0-136.289-4a6.148,6.148,0,0,0-1.687-.75,11.962,11.962,0,0,1-1.93-.777,3.153,3.153,0,0,1-1.937-2.82,2.747,2.747,0,0,1,.52-1.645,3.389,3.389,0,0,1,1.492-1.129,5.616,5.616,0,0,1,2.184-.406,5.112,5.112,0,0,1,2.172.441A3.458,3.458,0,0,1-134-9.844a3.261,3.261,0,0,1,.527,1.828h-2.344A1.534,1.534,0,0,0-136.3-9.23a2.023,2.023,0,0,0-1.383-.434,2.162,2.162,0,0,0-1.336.363,1.146,1.146,0,0,0-.477.957,1.1,1.1,0,0,0,.559.93,6.311,6.311,0,0,0,1.645.7,7.106,7.106,0,0,1,2.914,1.492A2.972,2.972,0,0,1-133.469-3a2.737,2.737,0,0,1-1.117,2.316,4.891,4.891,0,0,1-3.008.84,5.808,5.808,0,0,1-2.391-.48,3.783,3.783,0,0,1-1.645-1.316,3.371,3.371,0,0,1-.566-1.937h2.352q0,1.883,2.25,1.883a2.189,2.189,0,0,0,1.3-.34A1.106,1.106,0,0,0-135.82-2.984Zm7.68,3.141a4.15,4.15,0,0,1-3.027-1.141,4.054,4.054,0,0,1-1.168-3.039v-.219a5.106,5.106,0,0,1,.492-2.277,3.612,3.612,0,0,1,1.395-1.547,3.914,3.914,0,0,1,2.059-.543,3.508,3.508,0,0,1,2.73,1.094,4.444,4.444,0,0,1,1,3.1v.922h-5.383a2.1,2.1,0,0,0,.66,1.328,2,2,0,0,0,1.395.5,2.437,2.437,0,0,0,2.039-.945l1.109,1.242a3.389,3.389,0,0,1-1.375,1.121A4.511,4.511,0,0,1-128.141.156Zm-.258-6.945a1.411,1.411,0,0,0-1.09.455,2.357,2.357,0,0,0-.535,1.3h3.141v-.181a1.681,1.681,0,0,0-.406-1.165A1.456,1.456,0,0,0-128.4-6.789Zm12.164,4.031,1.57-5.7h2.359L-115.156,0h-2.156l-2.852-8.453h2.359Zm9.984,1.9A2.831,2.831,0,0,1-108.562.156a2.67,2.67,0,0,1-2.074-.781,3.335,3.335,0,0,1-.73-2.289V-8.453h2.258v5.467q0,1.322,1.2,1.322a1.63,1.63,0,0,0,1.578-.8V-8.453h2.266V0h-2.125ZM-98.469.156A4.15,4.15,0,0,1-101.5-.984a4.054,4.054,0,0,1-1.168-3.039v-.219a5.106,5.106,0,0,1,.492-2.277,3.612,3.612,0,0,1,1.395-1.547,3.914,3.914,0,0,1,2.059-.543,3.508,3.508,0,0,1,2.73,1.094,4.444,4.444,0,0,1,1,3.1v.922h-5.383a2.1,2.1,0,0,0,.66,1.328,2,2,0,0,0,1.395.5,2.437,2.437,0,0,0,2.039-.945l1.109,1.242A3.389,3.389,0,0,1-96.547-.246,4.511,4.511,0,0,1-98.469.156Zm-.258-6.945a1.411,1.411,0,0,0-1.09.455,2.357,2.357,0,0,0-.535,1.3h3.141v-.181a1.681,1.681,0,0,0-.406-1.165A1.456,1.456,0,0,0-98.727-6.789ZM-91.328,0h-2.266V-12h2.266ZM-86.3-2.758l1.57-5.7h2.359L-85.227,0h-2.156l-2.852-8.453h2.359ZM-77.594.156A4.15,4.15,0,0,1-80.621-.984a4.054,4.054,0,0,1-1.168-3.039v-.219A5.106,5.106,0,0,1-81.3-6.52,3.612,3.612,0,0,1-79.9-8.066a3.914,3.914,0,0,1,2.059-.543,3.508,3.508,0,0,1,2.73,1.094,4.444,4.444,0,0,1,1,3.1v.922H-79.5a2.1,2.1,0,0,0,.66,1.328,2,2,0,0,0,1.395.5,2.437,2.437,0,0,0,2.039-.945L-74.3-1.367A3.389,3.389,0,0,1-75.672-.246,4.511,4.511,0,0,1-77.594.156Zm-.258-6.945a1.411,1.411,0,0,0-1.09.455,2.357,2.357,0,0,0-.535,1.3h3.141v-.181a1.681,1.681,0,0,0-.406-1.165A1.456,1.456,0,0,0-77.852-6.789ZM-66.469,0h-2.266V-8.453h2.266Zm-2.4-10.641a1.112,1.112,0,0,1,.34-.836A1.277,1.277,0,0,1-67.6-11.8a1.28,1.28,0,0,1,.922.328,1.105,1.105,0,0,1,.344.836,1.108,1.108,0,0,1-.348.844,1.283,1.283,0,0,1-.918.328A1.283,1.283,0,0,1-68.52-9.8,1.108,1.108,0,0,1-68.867-10.641Zm6.336,2.188.07.977a2.951,2.951,0,0,1,2.43-1.133,2.453,2.453,0,0,1,2,.789,3.682,3.682,0,0,1,.672,2.359V0h-2.258V-5.406a1.465,1.465,0,0,0-.312-1.043,1.4,1.4,0,0,0-1.039-.324,1.553,1.553,0,0,0-1.43.813V0h-2.258V-8.453ZM-51.758.156A4.15,4.15,0,0,1-54.785-.984a4.054,4.054,0,0,1-1.168-3.039v-.219a5.106,5.106,0,0,1,.492-2.277,3.612,3.612,0,0,1,1.395-1.547,3.914,3.914,0,0,1,2.059-.543,3.508,3.508,0,0,1,2.73,1.094,4.444,4.444,0,0,1,1,3.1v.922h-5.383A2.1,2.1,0,0,0-53-2.164a2,2,0,0,0,1.395.5,2.437,2.437,0,0,0,2.039-.945l1.109,1.242A3.389,3.389,0,0,1-49.836-.246,4.511,4.511,0,0,1-51.758.156Zm-.258-6.945a1.411,1.411,0,0,0-1.09.455,2.357,2.357,0,0,0-.535,1.3H-50.5v-.181a1.681,1.681,0,0,0-.406-1.165A1.456,1.456,0,0,0-52.016-6.789Zm9.594,4.453a.727.727,0,0,0-.41-.652,4.659,4.659,0,0,0-1.316-.426q-3.016-.633-3.016-2.562a2.323,2.323,0,0,1,.934-1.879,3.766,3.766,0,0,1,2.441-.754,4.053,4.053,0,0,1,2.574.758,2.388,2.388,0,0,1,.965,1.969h-2.258a1.092,1.092,0,0,0-.312-.8A1.322,1.322,0,0,0-43.8-7a1.351,1.351,0,0,0-.883.258.814.814,0,0,0-.312.656.7.7,0,0,0,.355.605,3.657,3.657,0,0,0,1.2.4,9.8,9.8,0,0,1,1.422.379A2.336,2.336,0,0,1-40.227-2.43a2.2,2.2,0,0,1-.992,1.871,4.28,4.28,0,0,1-2.562.715,4.47,4.47,0,0,1-1.887-.379,3.166,3.166,0,0,1-1.293-1.039,2.414,2.414,0,0,1-.469-1.426h2.141a1.179,1.179,0,0,0,.445.922,1.766,1.766,0,0,0,1.109.32,1.635,1.635,0,0,0,.98-.246A.766.766,0,0,0-42.422-2.336Zm6.352-8.2v2.078h1.445V-6.8H-36.07v4.219a1.007,1.007,0,0,0,.18.672.9.9,0,0,0,.688.2,3.6,3.6,0,0,0,.664-.055V-.047a4.648,4.648,0,0,1-1.367.2,2.156,2.156,0,0,1-2.422-2.4V-6.8h-1.234V-8.453h1.234v-2.078ZM-28.469,0A2.507,2.507,0,0,1-28.7-.758a2.732,2.732,0,0,1-2.133.914,3,3,0,0,1-2.059-.719A2.312,2.312,0,0,1-33.7-2.375a2.389,2.389,0,0,1,1-2.062,4.915,4.915,0,0,1,2.879-.727h1.039v-.484a1.393,1.393,0,0,0-.3-.937,1.183,1.183,0,0,0-.949-.352,1.345,1.345,0,0,0-.895.273.929.929,0,0,0-.324.75h-2.258a2.268,2.268,0,0,1,.453-1.359,3,3,0,0,1,1.281-.98,4.669,4.669,0,0,1,1.859-.355,3.689,3.689,0,0,1,2.48.785,2.747,2.747,0,0,1,.918,2.207v3.664a4.041,4.041,0,0,0,.336,1.82V0Zm-1.867-1.57a1.945,1.945,0,0,0,.922-.223,1.462,1.462,0,0,0,.625-.6V-3.844h-.844q-1.7,0-1.8,1.172l-.008.133a.9.9,0,0,0,.3.7A1.153,1.153,0,0,0-30.336-1.57Zm13.164-2.578A5.119,5.119,0,0,1-18.039-.98,2.872,2.872,0,0,1-20.461.156,2.639,2.639,0,0,1-22.656-.9l-.1.9h-2.031V-12h2.258v4.3a2.571,2.571,0,0,1,2.055-.914,2.9,2.9,0,0,1,2.426,1.137,5.126,5.126,0,0,1,.879,3.2Zm-2.258-.164a3.363,3.363,0,0,0-.406-1.871,1.374,1.374,0,0,0-1.211-.59,1.489,1.489,0,0,0-1.484.883v3.336a1.509,1.509,0,0,0,1.5.891,1.394,1.394,0,0,0,1.438-1.078A5.562,5.562,0,0,0-19.43-4.312ZM-13.4,0h-2.266V-12H-13.4Zm5.75.156A4.15,4.15,0,0,1-10.676-.984a4.054,4.054,0,0,1-1.168-3.039v-.219a5.106,5.106,0,0,1,.492-2.277A3.612,3.612,0,0,1-9.957-8.066,3.914,3.914,0,0,1-7.9-8.609a3.508,3.508,0,0,1,2.73,1.094,4.444,4.444,0,0,1,1,3.1v.922H-9.555a2.1,2.1,0,0,0,.66,1.328,2,2,0,0,0,1.395.5,2.437,2.437,0,0,0,2.039-.945l1.109,1.242A3.389,3.389,0,0,1-5.727-.246,4.511,4.511,0,0,1-7.648.156Zm-.258-6.945A1.411,1.411,0,0,0-9-6.334a2.357,2.357,0,0,0-.535,1.3h3.141v-.181A1.681,1.681,0,0,0-6.8-6.377,1.456,1.456,0,0,0-7.906-6.789Zm5.6,9.641-1.18-.617.281-.508a4.059,4.059,0,0,0,.539-1.9v-1.75H-.758L-.766-.359A4.059,4.059,0,0,1-1.2,1.391,4.486,4.486,0,0,1-2.3,2.852ZM9.578-2.336a.727.727,0,0,0-.41-.652,4.659,4.659,0,0,0-1.316-.426Q4.836-4.047,4.836-5.977A2.323,2.323,0,0,1,5.77-7.855a3.766,3.766,0,0,1,2.441-.754,4.053,4.053,0,0,1,2.574.758,2.388,2.388,0,0,1,.965,1.969H9.492a1.092,1.092,0,0,0-.312-.8A1.322,1.322,0,0,0,8.2-7a1.351,1.351,0,0,0-.883.258.814.814,0,0,0-.312.656.7.7,0,0,0,.355.605,3.657,3.657,0,0,0,1.2.4A9.8,9.8,0,0,1,9.984-4.7,2.336,2.336,0,0,1,11.773-2.43a2.2,2.2,0,0,1-.992,1.871A4.28,4.28,0,0,1,8.219.156,4.47,4.47,0,0,1,6.332-.223,3.166,3.166,0,0,1,5.039-1.262,2.414,2.414,0,0,1,4.57-2.687H6.711a1.179,1.179,0,0,0,.445.922,1.766,1.766,0,0,0,1.109.32,1.635,1.635,0,0,0,.98-.246A.766.766,0,0,0,9.578-2.336ZM17.117.156A4.15,4.15,0,0,1,14.09-.984a4.054,4.054,0,0,1-1.168-3.039v-.219a5.106,5.106,0,0,1,.492-2.277,3.612,3.612,0,0,1,1.395-1.547,3.914,3.914,0,0,1,2.059-.543A3.508,3.508,0,0,1,19.6-7.516a4.444,4.444,0,0,1,1,3.1v.922H15.211a2.1,2.1,0,0,0,.66,1.328,2,2,0,0,0,1.395.5A2.437,2.437,0,0,0,19.3-2.609l1.109,1.242A3.389,3.389,0,0,1,19.039-.246,4.511,4.511,0,0,1,17.117.156Zm-.258-6.945a1.411,1.411,0,0,0-1.09.455,2.357,2.357,0,0,0-.535,1.3h3.141v-.181a1.681,1.681,0,0,0-.406-1.165A1.456,1.456,0,0,0,16.859-6.789ZM26.477,0V-6.8H25.219V-8.453h1.258v-.719a2.918,2.918,0,0,1,.816-2.207,3.162,3.162,0,0,1,2.285-.785,5.278,5.278,0,0,1,1.148.156l-.023,1.75a2.878,2.878,0,0,0-.687-.07q-1.273,0-1.273,1.2v.68h1.68V-6.8h-1.68V0Zm4.766-4.3a5.013,5.013,0,0,1,.484-2.242A3.546,3.546,0,0,1,33.121-8.07a4.069,4.069,0,0,1,2.113-.539,3.849,3.849,0,0,1,2.793,1.047,4.2,4.2,0,0,1,1.207,2.844l.016.578A4.418,4.418,0,0,1,38.164-1.02,3.775,3.775,0,0,1,35.25.156a3.793,3.793,0,0,1-2.918-1.172A4.5,4.5,0,0,1,31.242-4.2Zm2.258.16A3.16,3.16,0,0,0,33.953-2.3a1.5,1.5,0,0,0,1.3.638,1.5,1.5,0,0,0,1.281-.63,3.457,3.457,0,0,0,.461-2.015,3.128,3.128,0,0,0-.461-1.831,1.5,1.5,0,0,0-1.3-.649,1.474,1.474,0,0,0-1.281.646A3.516,3.516,0,0,0,33.5-4.144ZM45.391-6.336a6.134,6.134,0,0,0-.812-.062,1.654,1.654,0,0,0-1.68.867V0H40.641V-8.453h2.133l.063,1.008a2.092,2.092,0,0,1,1.883-1.164,2.366,2.366,0,0,1,.7.1Zm3.2-2.117.07.945a2.971,2.971,0,0,1,2.43-1.1A2.255,2.255,0,0,1,53.336-7.32a2.9,2.9,0,0,1,2.539-1.289,2.521,2.521,0,0,1,2.047.8,3.681,3.681,0,0,1,.672,2.41V0H56.328V-5.391a1.61,1.61,0,0,0-.281-1.051,1.246,1.246,0,0,0-.992-.332,1.409,1.409,0,0,0-1.406.969L53.656,0H51.4V-5.383a1.59,1.59,0,0,0-.289-1.062,1.259,1.259,0,0,0-.984-.328,1.463,1.463,0,0,0-1.391.8V0H46.477V-8.453ZM65.227,0A2.507,2.507,0,0,1,65-.758a2.732,2.732,0,0,1-2.133.914,3,3,0,0,1-2.059-.719,2.312,2.312,0,0,1-.816-1.812,2.389,2.389,0,0,1,1-2.062,4.915,4.915,0,0,1,2.879-.727h1.039v-.484a1.393,1.393,0,0,0-.3-.937,1.183,1.183,0,0,0-.949-.352,1.345,1.345,0,0,0-.895.273.929.929,0,0,0-.324.75H60.18a2.268,2.268,0,0,1,.453-1.359,3,3,0,0,1,1.281-.98,4.669,4.669,0,0,1,1.859-.355,3.689,3.689,0,0,1,2.48.785,2.747,2.747,0,0,1,.918,2.207v3.664a4.041,4.041,0,0,0,.336,1.82V0ZM63.359-1.57a1.945,1.945,0,0,0,.922-.223,1.462,1.462,0,0,0,.625-.6V-3.844h-.844q-1.7,0-1.8,1.172l-.008.133a.9.9,0,0,0,.3.7A1.153,1.153,0,0,0,63.359-1.57Zm7.625-6.883.07.977a2.951,2.951,0,0,1,2.43-1.133,2.453,2.453,0,0,1,2,.789,3.682,3.682,0,0,1,.672,2.359V0H73.9V-5.406a1.465,1.465,0,0,0-.312-1.043,1.4,1.4,0,0,0-1.039-.324,1.553,1.553,0,0,0-1.43.813V0H68.859V-8.453ZM85.367-1.664a1.481,1.481,0,0,0,1.016-.344,1.2,1.2,0,0,0,.406-.914h2.117a2.9,2.9,0,0,1-.469,1.574A3.093,3.093,0,0,1,87.176-.238a3.949,3.949,0,0,1-1.77.395A3.67,3.67,0,0,1,82.547-1,4.56,4.56,0,0,1,81.5-4.18v-.148a4.508,4.508,0,0,1,1.039-3.117,3.627,3.627,0,0,1,2.852-1.164,3.555,3.555,0,0,1,2.543.9,3.2,3.2,0,0,1,.973,2.4H86.789a1.551,1.551,0,0,0-.406-1.072,1.354,1.354,0,0,0-1.031-.412,1.36,1.36,0,0,0-1.191.575,3.333,3.333,0,0,0-.4,1.866v.235a3.375,3.375,0,0,0,.4,1.878A1.377,1.377,0,0,0,85.367-1.664Zm9.578-4.672a6.134,6.134,0,0,0-.812-.062,1.654,1.654,0,0,0-1.68.867V0H90.2V-8.453h2.133l.063,1.008a2.092,2.092,0,0,1,1.883-1.164,2.366,2.366,0,0,1,.7.1ZM98.414,0H96.148V-8.453h2.266Zm-2.4-10.641a1.112,1.112,0,0,1,.34-.836,1.277,1.277,0,0,1,.926-.328,1.28,1.28,0,0,1,.922.328,1.105,1.105,0,0,1,.344.836A1.108,1.108,0,0,1,98.2-9.8a1.283,1.283,0,0,1-.918.328,1.283,1.283,0,0,1-.918-.328A1.108,1.108,0,0,1,96.016-10.641Zm8.836,8.3a.727.727,0,0,0-.41-.652,4.659,4.659,0,0,0-1.316-.426q-3.016-.633-3.016-2.562a2.323,2.323,0,0,1,.934-1.879,3.766,3.766,0,0,1,2.441-.754,4.053,4.053,0,0,1,2.574.758,2.388,2.388,0,0,1,.965,1.969h-2.258a1.092,1.092,0,0,0-.312-.8A1.322,1.322,0,0,0,103.477-7a1.351,1.351,0,0,0-.883.258.814.814,0,0,0-.312.656.7.7,0,0,0,.355.605,3.657,3.657,0,0,0,1.2.4,9.8,9.8,0,0,1,1.422.379,2.336,2.336,0,0,1,1.789,2.273,2.2,2.2,0,0,1-.992,1.871,4.28,4.28,0,0,1-2.562.715,4.47,4.47,0,0,1-1.887-.379,3.166,3.166,0,0,1-1.293-1.039,2.414,2.414,0,0,1-.469-1.426h2.141a1.179,1.179,0,0,0,.445.922,1.766,1.766,0,0,0,1.109.32,1.635,1.635,0,0,0,.98-.246A.766.766,0,0,0,104.852-2.336Zm6.352-8.2v2.078h1.445V-6.8H111.2v4.219a1.007,1.007,0,0,0,.18.672.9.9,0,0,0,.688.2,3.6,3.6,0,0,0,.664-.055V-.047a4.648,4.648,0,0,1-1.367.2,2.156,2.156,0,0,1-2.422-2.4V-6.8h-1.234V-8.453h1.234v-2.078ZM118.8,0a2.507,2.507,0,0,1-.227-.758,2.732,2.732,0,0,1-2.133.914,3,3,0,0,1-2.059-.719,2.312,2.312,0,0,1-.816-1.812,2.389,2.389,0,0,1,1-2.062,4.915,4.915,0,0,1,2.879-.727h1.039v-.484a1.393,1.393,0,0,0-.3-.937,1.183,1.183,0,0,0-.949-.352,1.345,1.345,0,0,0-.895.273.929.929,0,0,0-.324.75h-2.258a2.268,2.268,0,0,1,.453-1.359,3,3,0,0,1,1.281-.98,4.669,4.669,0,0,1,1.859-.355,3.689,3.689,0,0,1,2.48.785,2.747,2.747,0,0,1,.918,2.207v3.664a4.041,4.041,0,0,0,.336,1.82V0Zm-1.867-1.57a1.945,1.945,0,0,0,.922-.223,1.462,1.462,0,0,0,.625-.6V-3.844h-.844q-1.7,0-1.8,1.172l-.008.133a.9.9,0,0,0,.3.7A1.153,1.153,0,0,0,116.938-1.57ZM124.867,0H122.6V-12h2.266Zm5.75.156A4.15,4.15,0,0,1,127.59-.984a4.054,4.054,0,0,1-1.168-3.039v-.219a5.106,5.106,0,0,1,.492-2.277,3.612,3.612,0,0,1,1.395-1.547,3.914,3.914,0,0,1,2.059-.543,3.508,3.508,0,0,1,2.73,1.094,4.444,4.444,0,0,1,1,3.1v.922h-5.383a2.1,2.1,0,0,0,.66,1.328,2,2,0,0,0,1.395.5,2.437,2.437,0,0,0,2.039-.945l1.109,1.242a3.389,3.389,0,0,1-1.375,1.121A4.511,4.511,0,0,1,130.617.156Zm-.258-6.945a1.411,1.411,0,0,0-1.09.455,2.357,2.357,0,0,0-.535,1.3h3.141v-.181a1.681,1.681,0,0,0-.406-1.165A1.456,1.456,0,0,0,130.359-6.789Zm9.594,4.453a.727.727,0,0,0-.41-.652,4.659,4.659,0,0,0-1.316-.426q-3.016-.633-3.016-2.562a2.323,2.323,0,0,1,.934-1.879,3.766,3.766,0,0,1,2.441-.754,4.053,4.053,0,0,1,2.574.758,2.388,2.388,0,0,1,.965,1.969h-2.258a1.092,1.092,0,0,0-.312-.8A1.322,1.322,0,0,0,138.578-7a1.351,1.351,0,0,0-.883.258.814.814,0,0,0-.312.656.7.7,0,0,0,.355.605,3.657,3.657,0,0,0,1.2.4,9.8,9.8,0,0,1,1.422.379,2.336,2.336,0,0,1,1.789,2.273,2.205,2.205,0,0,1-.992,1.871,4.28,4.28,0,0,1-2.562.715,4.47,4.47,0,0,1-1.887-.379,3.166,3.166,0,0,1-1.293-1.039,2.414,2.414,0,0,1-.469-1.426h2.141a1.179,1.179,0,0,0,.445.922,1.766,1.766,0,0,0,1.109.32,1.635,1.635,0,0,0,.98-.246A.766.766,0,0,0,139.953-2.336Z" transform="translate(1215 1824)" fill="#12263f"/>
    <path id="Trazado_716191" data-name="Trazado 716191" d="M-78.219-2.984A1.2,1.2,0,0,0-78.687-4a6.148,6.148,0,0,0-1.687-.75,11.963,11.963,0,0,1-1.93-.777,3.153,3.153,0,0,1-1.937-2.82A2.747,2.747,0,0,1-83.723-10a3.389,3.389,0,0,1,1.492-1.129,5.616,5.616,0,0,1,2.184-.406,5.112,5.112,0,0,1,2.172.441,3.458,3.458,0,0,1,1.48,1.246,3.261,3.261,0,0,1,.527,1.828h-2.344A1.534,1.534,0,0,0-78.7-9.23a2.023,2.023,0,0,0-1.383-.434,2.162,2.162,0,0,0-1.336.363,1.146,1.146,0,0,0-.477.957,1.1,1.1,0,0,0,.559.93,6.311,6.311,0,0,0,1.645.7,7.106,7.106,0,0,1,2.914,1.492A2.972,2.972,0,0,1-75.867-3,2.737,2.737,0,0,1-76.984-.684a4.891,4.891,0,0,1-3.008.84,5.808,5.808,0,0,1-2.391-.48,3.783,3.783,0,0,1-1.645-1.316,3.371,3.371,0,0,1-.566-1.937h2.352q0,1.883,2.25,1.883a2.189,2.189,0,0,0,1.3-.34A1.106,1.106,0,0,0-78.219-2.984Zm3.438-1.32A5.013,5.013,0,0,1-74.3-6.547,3.546,3.546,0,0,1-72.9-8.07a4.069,4.069,0,0,1,2.113-.539A3.849,3.849,0,0,1-68-7.562a4.2,4.2,0,0,1,1.207,2.844l.016.578A4.418,4.418,0,0,1-67.859-1.02,3.775,3.775,0,0,1-70.773.156a3.793,3.793,0,0,1-2.918-1.172A4.5,4.5,0,0,1-74.781-4.2Zm2.258.16A3.16,3.16,0,0,0-72.07-2.3a1.5,1.5,0,0,0,1.3.638,1.5,1.5,0,0,0,1.281-.63,3.457,3.457,0,0,0,.461-2.015,3.128,3.128,0,0,0-.461-1.831,1.5,1.5,0,0,0-1.3-.649,1.474,1.474,0,0,0-1.281.646A3.516,3.516,0,0,0-72.523-4.144ZM-63,0h-2.266V-12H-63Zm6.922-.859A2.831,2.831,0,0,1-58.391.156a2.67,2.67,0,0,1-2.074-.781,3.335,3.335,0,0,1-.73-2.289V-8.453h2.258v5.467q0,1.322,1.2,1.322a1.63,1.63,0,0,0,1.578-.8V-8.453h2.266V0h-2.125Zm7.406-.8a1.481,1.481,0,0,0,1.016-.344,1.2,1.2,0,0,0,.406-.914h2.117A2.9,2.9,0,0,1-45.6-1.348,3.093,3.093,0,0,1-46.863-.238a3.949,3.949,0,0,1-1.77.395A3.67,3.67,0,0,1-51.492-1,4.56,4.56,0,0,1-52.539-4.18v-.148A4.508,4.508,0,0,1-51.5-7.445a3.627,3.627,0,0,1,2.852-1.164,3.555,3.555,0,0,1,2.543.9,3.2,3.2,0,0,1,.973,2.4H-47.25a1.551,1.551,0,0,0-.406-1.072,1.354,1.354,0,0,0-1.031-.412,1.36,1.36,0,0,0-1.191.575,3.333,3.333,0,0,0-.4,1.866v.235a3.375,3.375,0,0,0,.4,1.878A1.377,1.377,0,0,0-48.672-1.664ZM-41.461,0h-2.266V-8.453h2.266Zm-2.4-10.641a1.112,1.112,0,0,1,.34-.836,1.277,1.277,0,0,1,.926-.328,1.28,1.28,0,0,1,.922.328,1.105,1.105,0,0,1,.344.836,1.108,1.108,0,0,1-.348.844,1.283,1.283,0,0,1-.918.328,1.283,1.283,0,0,1-.918-.328A1.108,1.108,0,0,1-43.859-10.641ZM-39.953-4.3a5.013,5.013,0,0,1,.484-2.242A3.546,3.546,0,0,1-38.074-8.07a4.069,4.069,0,0,1,2.113-.539,3.849,3.849,0,0,1,2.793,1.047,4.2,4.2,0,0,1,1.207,2.844l.016.578A4.418,4.418,0,0,1-33.031-1.02,3.775,3.775,0,0,1-35.945.156a3.793,3.793,0,0,1-2.918-1.172A4.5,4.5,0,0,1-39.953-4.2Zm2.258.16A3.16,3.16,0,0,0-37.242-2.3a1.5,1.5,0,0,0,1.3.638,1.5,1.5,0,0,0,1.281-.63A3.457,3.457,0,0,0-34.2-4.309a3.128,3.128,0,0,0-.461-1.831,1.5,1.5,0,0,0-1.3-.649,1.474,1.474,0,0,0-1.281.646A3.516,3.516,0,0,0-37.7-4.144ZM-35.516-12h2.461l-2.164,2.422h-1.836Zm7.039,3.547.07.977a2.951,2.951,0,0,1,2.43-1.133,2.453,2.453,0,0,1,2,.789A3.682,3.682,0,0,1-23.3-5.461V0h-2.258V-5.406a1.465,1.465,0,0,0-.312-1.043,1.4,1.4,0,0,0-1.039-.324,1.553,1.553,0,0,0-1.43.813V0H-30.6V-8.453Zm15.445,6.117a.727.727,0,0,0-.41-.652,4.659,4.659,0,0,0-1.316-.426q-3.016-.633-3.016-2.562a2.323,2.323,0,0,1,.934-1.879A3.766,3.766,0,0,1-14.4-8.609a4.053,4.053,0,0,1,2.574.758,2.388,2.388,0,0,1,.965,1.969h-2.258a1.092,1.092,0,0,0-.312-.8A1.322,1.322,0,0,0-14.406-7a1.351,1.351,0,0,0-.883.258.814.814,0,0,0-.312.656.7.7,0,0,0,.355.605,3.657,3.657,0,0,0,1.2.4,9.8,9.8,0,0,1,1.422.379A2.336,2.336,0,0,1-10.836-2.43a2.2,2.2,0,0,1-.992,1.871,4.28,4.28,0,0,1-2.562.715,4.47,4.47,0,0,1-1.887-.379A3.166,3.166,0,0,1-17.57-1.262a2.414,2.414,0,0,1-.469-1.426H-15.9a1.179,1.179,0,0,0,.445.922,1.766,1.766,0,0,0,1.109.32,1.635,1.635,0,0,0,.98-.246A.766.766,0,0,0-13.031-2.336ZM-4.32-.859A2.831,2.831,0,0,1-6.633.156,2.67,2.67,0,0,1-8.707-.625a3.335,3.335,0,0,1-.73-2.289V-8.453H-7.18v5.467q0,1.322,1.2,1.322a1.63,1.63,0,0,0,1.578-.8V-8.453h2.266V0H-4.258ZM7.18-4.148A5.07,5.07,0,0,1,6.293-1.02,2.843,2.843,0,0,1,3.9.156a2.633,2.633,0,0,1-2.07-.891V3.25H-.43v-11.7H1.664l.078.828a2.654,2.654,0,0,1,2.141-.984,2.862,2.862,0,0,1,2.43,1.156A5.207,5.207,0,0,1,7.18-4.266ZM4.922-4.312A3.327,3.327,0,0,0,4.5-6.133a1.361,1.361,0,0,0-1.215-.641,1.478,1.478,0,0,0-1.461.813V-2.5A1.5,1.5,0,0,0,3.3-1.664Q4.922-1.664,4.922-4.312ZM12.469.156A4.15,4.15,0,0,1,9.441-.984,4.054,4.054,0,0,1,8.273-4.023v-.219A5.106,5.106,0,0,1,8.766-6.52,3.612,3.612,0,0,1,10.16-8.066a3.914,3.914,0,0,1,2.059-.543,3.508,3.508,0,0,1,2.73,1.094,4.444,4.444,0,0,1,1,3.1v.922H10.563a2.1,2.1,0,0,0,.66,1.328,2,2,0,0,0,1.395.5,2.437,2.437,0,0,0,2.039-.945l1.109,1.242A3.389,3.389,0,0,1,14.391-.246,4.511,4.511,0,0,1,12.469.156Zm-.258-6.945a1.411,1.411,0,0,0-1.09.455,2.357,2.357,0,0,0-.535,1.3h3.141v-.181a1.681,1.681,0,0,0-.406-1.165A1.456,1.456,0,0,0,12.211-6.789Zm9.766.453a6.134,6.134,0,0,0-.812-.062,1.654,1.654,0,0,0-1.68.867V0H17.227V-8.453h2.133l.063,1.008A2.092,2.092,0,0,1,21.3-8.609a2.366,2.366,0,0,1,.7.1Zm5.664,4a.727.727,0,0,0-.41-.652,4.659,4.659,0,0,0-1.316-.426Q22.9-4.047,22.9-5.977a2.323,2.323,0,0,1,.934-1.879,3.766,3.766,0,0,1,2.441-.754,4.053,4.053,0,0,1,2.574.758,2.388,2.388,0,0,1,.965,1.969H27.555a1.092,1.092,0,0,0-.312-.8A1.322,1.322,0,0,0,26.266-7a1.351,1.351,0,0,0-.883.258.814.814,0,0,0-.312.656.7.7,0,0,0,.355.605,3.657,3.657,0,0,0,1.2.4,9.8,9.8,0,0,1,1.422.379A2.336,2.336,0,0,1,29.836-2.43a2.2,2.2,0,0,1-.992,1.871,4.28,4.28,0,0,1-2.562.715,4.47,4.47,0,0,1-1.887-.379A3.166,3.166,0,0,1,23.1-1.262a2.414,2.414,0,0,1-.469-1.426h2.141a1.179,1.179,0,0,0,.445.922,1.766,1.766,0,0,0,1.109.32,1.635,1.635,0,0,0,.98-.246A.766.766,0,0,0,27.641-2.336ZM36.188,0a2.507,2.507,0,0,1-.227-.758,2.732,2.732,0,0,1-2.133.914A3,3,0,0,1,31.77-.562a2.312,2.312,0,0,1-.816-1.812,2.389,2.389,0,0,1,1-2.062,4.915,4.915,0,0,1,2.879-.727h1.039v-.484a1.393,1.393,0,0,0-.3-.937,1.183,1.183,0,0,0-.949-.352,1.345,1.345,0,0,0-.895.273.929.929,0,0,0-.324.75H31.141a2.268,2.268,0,0,1,.453-1.359,3,3,0,0,1,1.281-.98,4.669,4.669,0,0,1,1.859-.355,3.689,3.689,0,0,1,2.48.785,2.747,2.747,0,0,1,.918,2.207v3.664a4.041,4.041,0,0,0,.336,1.82V0ZM34.32-1.57a1.945,1.945,0,0,0,.922-.223,1.462,1.462,0,0,0,.625-.6V-3.844h-.844q-1.7,0-1.8,1.172l-.008.133a.9.9,0,0,0,.3.7A1.153,1.153,0,0,0,34.32-1.57Zm8.25-8.961v2.078h1.445V-6.8H42.57v4.219a1.007,1.007,0,0,0,.18.672.9.9,0,0,0,.688.2,3.6,3.6,0,0,0,.664-.055V-.047a4.648,4.648,0,0,1-1.367.2,2.156,2.156,0,0,1-2.422-2.4V-6.8H39.078V-8.453h1.234v-2.078ZM50.336-.859A2.831,2.831,0,0,1,48.023.156a2.67,2.67,0,0,1-2.074-.781,3.335,3.335,0,0,1-.73-2.289V-8.453h2.258v5.467q0,1.322,1.2,1.322a1.63,1.63,0,0,0,1.578-.8V-8.453h2.266V0H50.4Zm8.641-5.477a6.134,6.134,0,0,0-.812-.062,1.654,1.654,0,0,0-1.68.867V0H54.227V-8.453h2.133l.063,1.008A2.092,2.092,0,0,1,58.3-8.609a2.366,2.366,0,0,1,.7.1ZM64.727,0A2.507,2.507,0,0,1,64.5-.758a2.732,2.732,0,0,1-2.133.914,3,3,0,0,1-2.059-.719,2.312,2.312,0,0,1-.816-1.812,2.389,2.389,0,0,1,1-2.062,4.915,4.915,0,0,1,2.879-.727h1.039v-.484a1.393,1.393,0,0,0-.3-.937,1.183,1.183,0,0,0-.949-.352,1.345,1.345,0,0,0-.895.273.929.929,0,0,0-.324.75H59.68a2.268,2.268,0,0,1,.453-1.359,3,3,0,0,1,1.281-.98,4.669,4.669,0,0,1,1.859-.355,3.689,3.689,0,0,1,2.48.785,2.747,2.747,0,0,1,.918,2.207v3.664a4.041,4.041,0,0,0,.336,1.82V0ZM62.859-1.57a1.945,1.945,0,0,0,.922-.223,1.462,1.462,0,0,0,.625-.6V-3.844h-.844q-1.7,0-1.8,1.172l-.008.133a.9.9,0,0,0,.3.7A1.153,1.153,0,0,0,62.859-1.57Zm5.2-2.719a5.094,5.094,0,0,1,.887-3.148,2.877,2.877,0,0,1,2.426-1.172,2.589,2.589,0,0,1,2.039.922V-12h2.266V0H73.633l-.109-.9A2.657,2.657,0,0,1,71.352.156,2.869,2.869,0,0,1,68.957-1.02,5.258,5.258,0,0,1,68.055-4.289Zm2.258.168A3.337,3.337,0,0,0,70.727-2.3a1.349,1.349,0,0,0,1.2.634,1.511,1.511,0,0,0,1.477-.884V-5.889a1.489,1.489,0,0,0-1.461-.884Q70.313-6.773,70.313-4.121ZM82.32,0a2.507,2.507,0,0,1-.227-.758,2.732,2.732,0,0,1-2.133.914A3,3,0,0,1,77.9-.562a2.312,2.312,0,0,1-.816-1.812,2.389,2.389,0,0,1,1-2.062,4.915,4.915,0,0,1,2.879-.727H82v-.484a1.393,1.393,0,0,0-.3-.937,1.183,1.183,0,0,0-.949-.352,1.345,1.345,0,0,0-.895.273.929.929,0,0,0-.324.75H77.273a2.268,2.268,0,0,1,.453-1.359,3,3,0,0,1,1.281-.98,4.669,4.669,0,0,1,1.859-.355,3.689,3.689,0,0,1,2.48.785,2.747,2.747,0,0,1,.918,2.207v3.664A4.041,4.041,0,0,0,84.6-.133V0ZM80.453-1.57a1.945,1.945,0,0,0,.922-.223,1.462,1.462,0,0,0,.625-.6V-3.844h-.844q-1.7,0-1.8,1.172l-.008.133a.9.9,0,0,0,.3.7A1.153,1.153,0,0,0,80.453-1.57Z" transform="translate(1213 1549)" fill="#12263f"/>
  </g>
</svg>
