<svg xmlns="http://www.w3.org/2000/svg" width="392.637" height="262.684" viewBox="0 0 392.637 262.684">
  <g id="Grupo_1013270" data-name="Grupo 1013270" transform="translate(-915 -1151.699)">
    <g id="Grupo_1011329" data-name="Grupo 1011329" transform="translate(915 1157.76)">
      <g id="Grupo_1011304" data-name="Grupo 1011304" transform="translate(0 0)">
        <g id="Grupo_1011244" data-name="Grupo 1011244" transform="translate(8.863 0.003)">
          <g id="Grupo_1011243" data-name="Grupo 1011243">
            <g id="Grupo_1011242" data-name="Grupo 1011242">
              <g id="Grupo_1011241" data-name="Grupo 1011241">
                <g id="Grupo_1011240" data-name="Grupo 1011240">
                  <rect id="Rectángulo_347198" data-name="Rectángulo 347198" width="176.29" height="255.525" fill="#e0e0e0"/>
                </g>
              </g>
            </g>
          </g>
        </g>
        <g id="Grupo_1011249" data-name="Grupo 1011249" transform="translate(0.032 0.003)">
          <g id="Grupo_1011248" data-name="Grupo 1011248">
            <g id="Grupo_1011247" data-name="Grupo 1011247">
              <g id="Grupo_1011246" data-name="Grupo 1011246">
                <g id="Grupo_1011245" data-name="Grupo 1011245">
                  <rect id="Rectángulo_347199" data-name="Rectángulo 347199" width="176.29" height="255.525" fill="#f5f5f5"/>
                </g>
              </g>
            </g>
          </g>
        </g>
        <g id="Grupo_1011261" data-name="Grupo 1011261" transform="translate(21.455 27.199)">
          <g id="Grupo_1011254" data-name="Grupo 1011254" transform="translate(0.48 0.479)">
            <g id="Grupo_1011253" data-name="Grupo 1011253">
              <g id="Grupo_1011252" data-name="Grupo 1011252">
                <g id="Grupo_1011251" data-name="Grupo 1011251">
                  <g id="Grupo_1011250" data-name="Grupo 1011250">
                    <rect id="Rectángulo_347200" data-name="Rectángulo 347200" width="132.485" height="200.175" fill="#fff"/>
                  </g>
                </g>
              </g>
            </g>
          </g>
          <g id="Grupo_1011260" data-name="Grupo 1011260">
            <g id="Grupo_1011259" data-name="Grupo 1011259">
              <g id="Grupo_1011258" data-name="Grupo 1011258">
                <g id="Grupo_1011257" data-name="Grupo 1011257">
                  <g id="Grupo_1011256" data-name="Grupo 1011256">
                    <g id="Grupo_1011255" data-name="Grupo 1011255">
                      <path id="Trazado_715414" data-name="Trazado 715414" d="M186.367,283.977s-.017-.34-.025-.979c-.006-.661-.015-1.6-.027-2.839-.011-2.516-.029-6.2-.052-10.979-.028-9.595-.068-23.575-.119-41.235-.053-35.3-.129-85.281-.216-144.144l.439.44L53.9,84.28h-.016l.479-.479c-.038,75.514-.072,145.14-.1,200.175l-.382-.381,96.431.2,26.642.1,6.993.044c1.583.013,2.418.041,2.418.041s-.78.027-2.338.04l-6.921.044-26.556.1-96.669.2H53.5v-.383c-.027-55.035-.059-124.66-.1-200.175v-.479h.5c47.14.015,91.991.027,132.468.04h.44V83.8c-.089,58.98-.164,109.064-.217,144.431-.05,17.619-.09,31.565-.118,41.136-.023,4.743-.041,8.4-.053,10.892-.011,1.213-.019,2.14-.027,2.789C186.384,283.673,186.367,283.977,186.367,283.977Z" transform="translate(-53.403 -83.322)" fill="#e0e0e0"/>
                    </g>
                  </g>
                </g>
              </g>
            </g>
          </g>
        </g>
        <g id="Grupo_1011267" data-name="Grupo 1011267" transform="translate(148.277 29.014)">
          <g id="Grupo_1011266" data-name="Grupo 1011266">
            <g id="Grupo_1011265" data-name="Grupo 1011265">
              <g id="Grupo_1011264" data-name="Grupo 1011264">
                <g id="Grupo_1011263" data-name="Grupo 1011263">
                  <g id="Grupo_1011262" data-name="Grupo 1011262">
                    <path id="Trazado_715415" data-name="Trazado 715415" d="M157.942,84.818" transform="translate(-157.942 -84.818)" fill="none" stroke="#fbfbfb" stroke-miterlimit="10" stroke-width="0.25"/>
                  </g>
                </g>
              </g>
            </g>
          </g>
        </g>
        <g id="Grupo_1011273" data-name="Grupo 1011273" transform="translate(152.805 0)">
          <g id="Grupo_1011272" data-name="Grupo 1011272">
            <g id="Grupo_1011271" data-name="Grupo 1011271">
              <g id="Grupo_1011270" data-name="Grupo 1011270">
                <g id="Grupo_1011269" data-name="Grupo 1011269">
                  <g id="Grupo_1011268" data-name="Grupo 1011268">
                    <path id="Trazado_715416" data-name="Trazado 715416" d="M185.687,60.906a30.782,30.782,0,0,1-3.143,4.565c-2.048,2.738-4.955,6.464-8.271,10.491s-6.418,7.6-8.714,10.13a30.434,30.434,0,0,1-3.878,3.959,33.138,33.138,0,0,1,3.365-4.4l8.487-10.3,8.479-10.3A32.842,32.842,0,0,1,185.687,60.906Z" transform="translate(-161.675 -60.903)" fill="#e0e0e0"/>
                  </g>
                </g>
              </g>
            </g>
          </g>
        </g>
        <g id="Grupo_1011285" data-name="Grupo 1011285" transform="translate(155.087 227.206)">
          <g id="Grupo_1011278" data-name="Grupo 1011278" transform="translate(0.008 0.002)">
            <g id="Grupo_1011277" data-name="Grupo 1011277">
              <g id="Grupo_1011276" data-name="Grupo 1011276">
                <g id="Grupo_1011275" data-name="Grupo 1011275">
                  <g id="Grupo_1011274" data-name="Grupo 1011274">
                    <path id="Trazado_715417" data-name="Trazado 715417" d="M163.562,248.189a164.014,164.014,0,0,0,23.107,28.9" transform="translate(-163.562 -248.189)" fill="#fff"/>
                  </g>
                </g>
              </g>
            </g>
          </g>
          <g id="Grupo_1011284" data-name="Grupo 1011284">
            <g id="Grupo_1011283" data-name="Grupo 1011283">
              <g id="Grupo_1011282" data-name="Grupo 1011282">
                <g id="Grupo_1011281" data-name="Grupo 1011281">
                  <g id="Grupo_1011280" data-name="Grupo 1011280">
                    <g id="Grupo_1011279" data-name="Grupo 1011279">
                      <path id="Trazado_715418" data-name="Trazado 715418" d="M186.67,277.088a26.276,26.276,0,0,1-4.029-3.665,129.068,129.068,0,0,1-16.39-20.5,26.263,26.263,0,0,1-2.688-4.736,36.737,36.737,0,0,1,3.25,4.356c1.943,2.727,4.674,6.459,7.861,10.448s6.228,7.471,8.461,9.966A36.381,36.381,0,0,1,186.67,277.088Z" transform="translate(-163.556 -248.187)" fill="#e0e0e0"/>
                    </g>
                  </g>
                </g>
              </g>
            </g>
          </g>
        </g>
        <g id="Grupo_1011297" data-name="Grupo 1011297" transform="translate(0 226.833)">
          <g id="Grupo_1011290" data-name="Grupo 1011290" transform="translate(0.006 0.003)">
            <g id="Grupo_1011289" data-name="Grupo 1011289">
              <g id="Grupo_1011288" data-name="Grupo 1011288">
                <g id="Grupo_1011287" data-name="Grupo 1011287">
                  <g id="Grupo_1011286" data-name="Grupo 1011286">
                    <path id="Trazado_715419" data-name="Trazado 715419" d="M35.723,276.372q11.546-14.245,23.091-28.49" transform="translate(-35.723 -247.882)" fill="#fff"/>
                  </g>
                </g>
              </g>
            </g>
          </g>
          <g id="Grupo_1011296" data-name="Grupo 1011296">
            <g id="Grupo_1011295" data-name="Grupo 1011295">
              <g id="Grupo_1011294" data-name="Grupo 1011294">
                <g id="Grupo_1011293" data-name="Grupo 1011293">
                  <g id="Grupo_1011292" data-name="Grupo 1011292">
                    <g id="Grupo_1011291" data-name="Grupo 1011291">
                      <path id="Trazado_715420" data-name="Trazado 715420" d="M58.815,247.883c.206.167-4.8,6.68-11.172,14.546S35.93,276.54,35.724,276.372s4.8-6.678,11.174-14.547S58.61,247.716,58.815,247.883Z" transform="translate(-35.718 -247.879)" fill="#e0e0e0"/>
                    </g>
                  </g>
                </g>
              </g>
            </g>
          </g>
        </g>
        <g id="Grupo_1011303" data-name="Grupo 1011303" transform="translate(0.025)">
          <g id="Grupo_1011302" data-name="Grupo 1011302">
            <g id="Grupo_1011301" data-name="Grupo 1011301">
              <g id="Grupo_1011300" data-name="Grupo 1011300">
                <g id="Grupo_1011299" data-name="Grupo 1011299">
                  <g id="Grupo_1011298" data-name="Grupo 1011298">
                    <path id="Trazado_715421" data-name="Trazado 715421" d="M35.745,60.906c.209-.165,5.226,5.834,11.208,13.4S57.617,88.134,57.41,88.3,52.185,82.463,46.2,74.9,35.538,61.069,35.745,60.906Z" transform="translate(-35.739 -60.902)" fill="#e0e0e0"/>
                  </g>
                </g>
              </g>
            </g>
          </g>
        </g>
      </g>
      <g id="Grupo_1011327" data-name="Grupo 1011327" transform="translate(45.958 70.402)">
        <g id="Grupo_1011306" data-name="Grupo 1011306" transform="translate(42.993 46.432)">
          <g id="Grupo_1011305" data-name="Grupo 1011305">
            <ellipse id="Elipse_8462" data-name="Elipse 8462" cx="14.201" cy="14.201" rx="14.201" ry="14.201" fill="#e0e0e0"/>
          </g>
        </g>
        <g id="Grupo_1011308" data-name="Grupo 1011308" transform="translate(57.789)">
          <g id="Grupo_1011307" data-name="Grupo 1011307">
            <path id="Trazado_715422" data-name="Trazado 715422" d="M142.469,129.55a10.616,10.616,0,1,1-10.616-10.616A10.616,10.616,0,0,1,142.469,129.55Z" transform="translate(-121.236 -118.934)" fill="#e0e0e0"/>
          </g>
        </g>
        <g id="Grupo_1011310" data-name="Grupo 1011310" transform="translate(22.333 19.273)">
          <g id="Grupo_1011309" data-name="Grupo 1011309">
            <path id="Trazado_715423" data-name="Trazado 715423" d="M107.371,142.5a7.68,7.68,0,1,1-7.68-7.679A7.681,7.681,0,0,1,107.371,142.5Z" transform="translate(-92.01 -134.821)" fill="#e0e0e0"/>
          </g>
        </g>
        <g id="Grupo_1011312" data-name="Grupo 1011312" transform="translate(71.895 99.326)">
          <g id="Grupo_1011311" data-name="Grupo 1011311">
            <path id="Trazado_715424" data-name="Trazado 715424" d="M141.019,208.963a4.777,4.777,0,1,1,0-6.756A4.777,4.777,0,0,1,141.019,208.963Z" transform="translate(-132.863 -200.808)" fill="#e0e0e0"/>
          </g>
        </g>
        <g id="Grupo_1011314" data-name="Grupo 1011314" transform="translate(0 61.987)">
          <g id="Grupo_1011313" data-name="Grupo 1011313">
            <path id="Trazado_715425" data-name="Trazado 715425" d="M88.961,177.709a7.68,7.68,0,1,1-7.68-7.679A7.681,7.681,0,0,1,88.961,177.709Z" transform="translate(-73.601 -170.03)" fill="#e0e0e0"/>
          </g>
        </g>
        <g id="Grupo_1011317" data-name="Grupo 1011317" transform="translate(57.155 60.63)">
          <g id="Grupo_1011316" data-name="Grupo 1011316">
            <g id="Grupo_1011315" data-name="Grupo 1011315">
              <path id="Trazado_715426" data-name="Trazado 715426" d="M120.753,168.915c.478-.223,5.226,8.92,10.6,20.42s9.352,21.008,8.873,21.231-5.225-8.918-10.6-20.422S120.275,169.138,120.753,168.915Z" transform="translate(-120.714 -168.911)" fill="#e0e0e0"/>
            </g>
          </g>
        </g>
        <g id="Grupo_1011320" data-name="Grupo 1011320" transform="translate(9.485 61.945)">
          <g id="Grupo_1011319" data-name="Grupo 1011319">
            <g id="Grupo_1011318" data-name="Grupo 1011318">
              <path id="Trazado_715427" data-name="Trazado 715427" d="M127.986,170.124c.078.522-10.285,2.488-23.142,4.39s-23.347,3.023-23.424,2.5,10.283-2.487,23.143-4.39S127.908,169.6,127.986,170.124Z" transform="translate(-81.42 -169.995)" fill="#e0e0e0"/>
            </g>
          </g>
        </g>
        <g id="Grupo_1011323" data-name="Grupo 1011323" transform="translate(31.281 26.335)">
          <g id="Grupo_1011322" data-name="Grupo 1011322">
            <g id="Grupo_1011321" data-name="Grupo 1011321">
              <path id="Trazado_715428" data-name="Trazado 715428" d="M123.182,169.561c-.326.376-6.923-5-13.546-13.088-6.654-8.065-10.65-15.577-10.218-15.823.474-.292,5.14,6.669,11.695,14.61C117.633,163.225,123.562,169.151,123.182,169.561Z" transform="translate(-99.386 -140.642)" fill="#e0e0e0"/>
            </g>
          </g>
        </g>
        <g id="Grupo_1011326" data-name="Grupo 1011326" transform="translate(56.46 10.515)">
          <g id="Grupo_1011325" data-name="Grupo 1011325">
            <g id="Grupo_1011324" data-name="Grupo 1011324">
              <path id="Trazado_715429" data-name="Trazado 715429" d="M132.086,127.7l-.05-.012c-.053-.027.053.057.079.023l0,.042-.034.359-.24,1.372c-.352,1.617-.712,3.271-1.089,5-.968,4.213-2.385,10.013-4.013,16.4-3.283,12.778-6.022,23.1-6.509,23-.548-.113,1.37-10.677,4.657-23.473,1.629-6.4,3.255-12.155,4.56-16.287.653-2.066,1.227-3.727,1.68-4.859a11.053,11.053,0,0,1,.588-1.287,1.632,1.632,0,0,1,.224-.319l.058-.05c.049-.057.187.03.125.033A.066.066,0,0,1,132.086,127.7Z" transform="translate(-120.14 -127.601)" fill="#e0e0e0"/>
            </g>
          </g>
        </g>
      </g>
    </g>
    <g id="Character_1" data-name="Character 1" transform="translate(1051.423 1152.288)">
      <g id="Grupo_1011238" data-name="Grupo 1011238" transform="translate(0 0)">
        <ellipse id="Elipse_8459" data-name="Elipse 8459" cx="109.349" cy="109.349" rx="109.349" ry="109.349" transform="translate(22.447 36.413)" fill="#4db1f0" opacity="0.38"/>
        <g id="Grupo_1011237" data-name="Grupo 1011237">
          <path id="Trazado_715383" data-name="Trazado 715383" d="M88.811,317.7l2.428-55.432S81.932,291,77.077,298.279s-8.5,10.115-15.376,8.9-19.825-22.253-19.825-32.773S52.8,237.183,55.228,231.114,70.6,173.659,72.222,170.827s54.217-18.7,54.217-18.7l3.642-7.688s53.813-6.069,57.455-5.664,3.237,6.473,3.237,6.473,6.562,5.676,7.371,6.891,30.663,15.851,39.969,19.088,10.115,6.473,10.519,8.092,24.682,56.242,33.583,65.547-13.756,27.109-21.444,30.346-18.208,1.62-21.849-4.046-12.543-12.947-12.543-12.947l1.533,60.312" transform="translate(-32.57 -56.952)" fill="#fff" stroke="#263238" stroke-linecap="round" stroke-linejoin="round" stroke-width="1"/>
          <line id="Línea_2469" data-name="Línea 2469" x1="0.614" y1="40.448" transform="translate(58.054 164.869)" fill="none" stroke="#263238" stroke-linecap="round" stroke-linejoin="round" stroke-width="1"/>
          <line id="Línea_2470" data-name="Línea 2470" x2="0.941" y2="6.68" transform="translate(55.215 185.242)" fill="none" stroke="#263238" stroke-linecap="round" stroke-linejoin="round" stroke-width="1"/>
          <line id="Línea_2471" data-name="Línea 2471" x2="2.916" y2="20.706" transform="translate(51.41 158.224)" fill="none" stroke="#263238" stroke-linecap="round" stroke-linejoin="round" stroke-width="1"/>
          <g id="Grupo_1011231" data-name="Grupo 1011231" transform="translate(121.383 90.324)">
            <path id="Trazado_715384" data-name="Trazado 715384" d="M190.446,216.306a35.1,35.1,0,0,0-.488,5.561" transform="translate(-122.388 -130.747)" fill="none" stroke="#263238" stroke-linecap="round" stroke-linejoin="round" stroke-width="1"/>
            <path id="Trazado_715385" data-name="Trazado 715385" d="M201,192.208s-6.586,12-9.716,23.973" transform="translate(-122.105 -135.884)" fill="none" stroke="#263238" stroke-linecap="round" stroke-linejoin="round" stroke-width="1"/>
            <path id="Trazado_715386" data-name="Trazado 715386" d="M189.795,202.88s-3.237,10.924-2.832,19.827" transform="translate(-123.034 -133.609)" fill="none" stroke="#263238" stroke-linecap="round" stroke-linejoin="round" stroke-width="1"/>
            <path id="Trazado_715387" data-name="Trazado 715387" d="M152.393,161.124c-1,.969-2.048,1.918-3.124,2.829" transform="translate(-131.062 -142.509)" fill="none" stroke="#263238" stroke-linecap="round" stroke-linejoin="round" stroke-width="1"/>
            <path id="Trazado_715388" data-name="Trazado 715388" d="M165.938,145.78a98.875,98.875,0,0,1-11.35,15.188" transform="translate(-129.928 -145.78)" fill="none" stroke="#263238" stroke-linecap="round" stroke-linejoin="round" stroke-width="1"/>
            <line id="Línea_2472" data-name="Línea 2472" x1="0.082" y2="9.506" transform="translate(0.405 161.323)" fill="none" stroke="#263238" stroke-linecap="round" stroke-linejoin="round" stroke-width="1"/>
            <line id="Línea_2473" data-name="Línea 2473" x1="0.896" y2="104.203" transform="translate(0.536 51.3)" fill="none" stroke="#263238" stroke-linecap="round" stroke-linejoin="round" stroke-width="1"/>
            <path id="Trazado_715389" data-name="Trazado 715389" d="M134.261,159.454l1.618,7.688-.136,21.2" transform="translate(-134.261 -142.865)" fill="none" stroke="#263238" stroke-linecap="round" stroke-linejoin="round" stroke-width="1"/>
          </g>
          <path id="Trazado_715390" data-name="Trazado 715390" d="M68.454,250.8l-8.5-14.566-.405,16.589S65.621,254.439,68.454,250.8Z" transform="translate(-28.802 -36.175)" fill="#fff" stroke="#263238" stroke-linecap="round" stroke-linejoin="round" stroke-width="1"/>
          <g id="Grupo_1011232" data-name="Grupo 1011232" transform="translate(3.498 96.992)">
            <path id="Trazado_715391" data-name="Trazado 715391" d="M88.9,199.843l-6.086,5.93-43.278-46.1,6.086-5.93Z" transform="translate(-36.566 -150.751)" fill="#263238" stroke="#263238" stroke-linecap="round" stroke-linejoin="round" stroke-width="1"/>
            <rect id="Rectángulo_347195" data-name="Rectángulo 347195" width="11.747" height="3.46" transform="translate(0 8.198) rotate(-44.256)" fill="#fff" stroke="#263238" stroke-linecap="round" stroke-linejoin="round" stroke-width="1"/>
            <rect id="Rectángulo_347196" data-name="Rectángulo 347196" width="6.347" height="5.26" transform="translate(47.021 54.271) rotate(-44.256)" fill="#fff" stroke="#263238" stroke-linecap="round" stroke-linejoin="round" stroke-width="1"/>
            <path id="Trazado_715392" data-name="Trazado 715392" d="M84.385,197.705h0a2.156,2.156,0,0,1-3.05-.04l-32.9-35.451a2.158,2.158,0,0,1,.039-3.051h0a2.159,2.159,0,0,1,3.051.04l32.9,35.452A2.157,2.157,0,0,1,84.385,197.705Z" transform="translate(-34.801 -149.726)" fill="#fff" stroke="#263238" stroke-linecap="round" stroke-linejoin="round" stroke-width="1"/>
            <path id="Rectángulo_347197" data-name="Rectángulo 347197" d="M0,0H2.323a0,0,0,0,1,0,0V33.638a.875.875,0,0,1-.875.875H.875A.875.875,0,0,1,0,33.637V0A0,0,0,0,1,0,0Z" transform="matrix(0.716, -0.698, 0.698, 0.716, 52.127, 56.621)" fill="#fff" stroke="#263238" stroke-linecap="round" stroke-linejoin="round" stroke-width="1"/>
          </g>
          <g id="Grupo_1011233" data-name="Grupo 1011233" transform="translate(9.306 114.524)">
            <path id="Trazado_715393" data-name="Trazado 715393" d="M47.945,213.227l-5.665-17.4,3.237-19.016s8.9-10.115,10.117-10.521,12.138-.4,12.138-.4,2.024-.809,2.024,1.213a3.38,3.38,0,0,1-1.214,2.833s4.451.4,5.664.4,2.429.809,2.429,2.833-3.238,2.833-4.451,3.237-5.664,2.024-5.664,2.024l-6.879,7.687h7.688a21.942,21.942,0,0,1,4.45.81c.809,1.213,1.214,5.664,1.214,5.664a13.418,13.418,0,0,1,2.022,7.283c0,4.451,1.214,6.879,0,7.283s-4.046,2.429-4.046.405a23.679,23.679,0,0,0-.4-4.046l-4.451.809-1.618,3.237s3.642,8.092,3.642,11.33-1.618,14.161-1.618,14.161l-1.62,30.75a27.475,27.475,0,0,1-10.519-2.832c-6.069-2.833-12.543-13.353-12.543-13.353l7.283-25.086Z" transform="translate(-41.876 -165.728)" fill="#3076b6" stroke="#263238" stroke-linecap="round" stroke-linejoin="round" stroke-width="1"/>
            <path id="Trazado_715394" data-name="Trazado 715394" d="M54.014,229.913c-3.411-.569-6.547-3.181-8.928-5.8l-3.21,11.056s6.473,10.52,12.543,13.353a27.475,27.475,0,0,0,10.519,2.832l1.227-23.289C62.907,229.306,58.2,230.61,54.014,229.913Z" transform="translate(-41.876 -153.282)" fill="#ffd1bd" stroke="#263238" stroke-linecap="round" stroke-linejoin="round" stroke-width="1"/>
            <path id="Trazado_715395" data-name="Trazado 715395" d="M56.217,194.87s.809-2.022,2.024-2.428,12.138-3.237,12.138-3.237" transform="translate(-38.819 -160.724)" fill="none" stroke="#263238" stroke-linecap="round" stroke-linejoin="round" stroke-width="1"/>
            <path id="Trazado_715396" data-name="Trazado 715396" d="M52.215,189.009l1.214-4.046,4.046-2.428" transform="translate(-39.672 -162.146)" fill="none" stroke="#263238" stroke-linecap="round" stroke-linejoin="round" stroke-width="1"/>
            <path id="Trazado_715397" data-name="Trazado 715397" d="M48.213,184.569s5.259-9.3,6.879-10.923S66.016,170,67.229,169.2" transform="translate(-40.525 -164.989)" fill="none" stroke="#263238" stroke-linecap="round" stroke-linejoin="round" stroke-width="1"/>
          </g>
          <path id="Trazado_715398" data-name="Trazado 715398" d="M66.573,250.121l7.284,2.024s2.022,28.728,2.022,32.368-8.5,8.093-17.8,8.9S34.2,286.94,34.2,280.467s9.643-50.549,9.643-50.549S50.794,248.1,66.573,250.121Z" transform="translate(-34.205 -37.521)" fill="#fff" stroke="#263238" stroke-linecap="round" stroke-linejoin="round" stroke-width="1"/>
          <path id="Trazado_715399" data-name="Trazado 715399" d="M158.208,233.693a29.8,29.8,0,0,1-10.115-2.024,52.675,52.675,0,0,0-11.734-3.237c-2.428-.4-6.879,1.618-10.115-.4s-6.069-3.642-.809-5.665,13.757.405,16.994.809,9.306-.809,9.306-.809Z" transform="translate(-15.381 -39.301)" fill="#3076b6" stroke="#263238" stroke-linecap="round" stroke-linejoin="round" stroke-width="1"/>
          <ellipse id="Elipse_8460" data-name="Elipse 8460" cx="30.346" cy="11.127" rx="30.346" ry="11.127" transform="translate(59.073 176.185)" fill="#263238" stroke="#263238" stroke-linecap="round" stroke-linejoin="round" stroke-width="1"/>
          <g id="Grupo_1011234" data-name="Grupo 1011234" transform="translate(61.096 177.803)">
            <ellipse id="Elipse_8461" data-name="Elipse 8461" cx="28.323" cy="9.508" rx="28.323" ry="9.508" fill="#fff" stroke="#263238" stroke-linecap="round" stroke-linejoin="round" stroke-width="1"/>
          </g>
          <g id="Grupo_1011235" data-name="Grupo 1011235" transform="translate(90.657 160.81)">
            <path id="Trazado_715400" data-name="Trazado 715400" d="M182.47,259.454s-1.04-18.313-1.04-21.16,13.289,1.9,13.289,1.9S187.782,257.833,182.47,259.454Z" transform="translate(-93.48 -196.74)" fill="#fff" stroke="#263238" stroke-linecap="round" stroke-linejoin="round" stroke-width="1"/>
            <path id="Trazado_715401" data-name="Trazado 715401" d="M204.8,229.776s-14.566-4.046-18.612-5.664-23.871-10.521-27.513-12.948-14.161-3.237-14.161-3.237-9.306-4.046-10.52-4.046-18.612,6.879-22.253,8.5-3.237,5.259-1.618,6.473,17.4-6.069,17.4-6.069l-4.451,12.139s-5.664,4.45-3.641,7.283,8.092-2.022,10.115-3.237,13.756-6.879,13.756-6.879-10.519,11.734-12.543,14.97,2.833,3.238,4.451,2.428,12.948-9.3,12.948-9.3,16.589,11.328,21.04,11.328,11.734-2.833,11.734-2.833l25.086,14.162s4.046-6.879,4.45-11.734.405-10.924.405-10.924Z" transform="translate(-108.933 -203.881)" fill="#3076b6" stroke="#263238" stroke-linecap="round" stroke-linejoin="round" stroke-width="1"/>
            <path id="Trazado_715402" data-name="Trazado 715402" d="M120.586,223.286l9.306-8.092,7.688-3.642" transform="translate(-106.449 -202.246)" fill="none" stroke="#263238" stroke-linecap="round" stroke-linejoin="round" stroke-width="1"/>
            <line id="Línea_2474" data-name="Línea 2474" y1="4.451" x2="2.023" transform="translate(18.588 4.45)" fill="none" stroke="#263238" stroke-linecap="round" stroke-linejoin="round" stroke-width="1"/>
            <line id="Línea_2475" data-name="Línea 2475" y1="4.855" x2="1.618" transform="translate(27.085 6.878)" fill="none" stroke="#263238" stroke-linecap="round" stroke-linejoin="round" stroke-width="1"/>
            <line id="Línea_2476" data-name="Línea 2476" y1="2.832" x2="10.924" transform="translate(39.223 23.467)" fill="none" stroke="#263238" stroke-linecap="round" stroke-linejoin="round" stroke-width="1"/>
            <line id="Línea_2477" data-name="Línea 2477" y1="3.237" x2="5.665" transform="translate(34.368 14.97)" fill="none" stroke="#263238" stroke-linecap="round" stroke-linejoin="round" stroke-width="1"/>
            <path id="Trazado_715403" data-name="Trazado 715403" d="M184.8,224.228a23.264,23.264,0,0,1,.642,12.944,26.9,26.9,0,0,1-2.789,7.013L190.3,248.5s4.046-6.879,4.45-11.734.405-10.924.405-10.924l-6.069-.405S187.3,224.941,184.8,224.228Z" transform="translate(-93.218 -199.544)" fill="#ffd1bd" stroke="#263238" stroke-linecap="round" stroke-linejoin="round" stroke-width="1"/>
            <path id="Trazado_715404" data-name="Trazado 715404" d="M235.291,213.219s-10.924,2.833-15.374,5.26-22.254,4.855-23.872,5.664-11.161,2.431-11.161,2.431,4.688,9.708,2.26,17.4-4.856,20.635-4.856,20.635,20.636,5.665,38.439,1.214,29.537-17.4,32.773-19.017,4.855-8.5,4.855-11.734-10.521-14.97-12.948-15.78" transform="translate(-93.297 -201.891)" fill="#fff" stroke="#263238" stroke-linecap="round" stroke-linejoin="round" stroke-width="1"/>
          </g>
          <g id="Grupo_1011236" data-name="Grupo 1011236" transform="translate(90.354)">
            <path id="Trazado_715405" data-name="Trazado 715405" d="M134.857,73.04s-11.734,3.642-18.611,10.115-6.879,31.559-6.879,34.8-1.214,22.658-.405,28.322,16.994,29.537,27.918,29.941,27.918-12.543,30.75-16.589,7.284-11.328,8.9-15.376,3.642-18.612,4.046-23.062a96.522,96.522,0,0,0,0-11.33s2.428-11.734-2.024-19.421-16.993-16.993-27.108-18.612S134.857,73.04,134.857,73.04Z" transform="translate(-108.684 -71.326)" fill="#4db1f0" stroke="#263238" stroke-linecap="round" stroke-linejoin="round" stroke-width="1"/>
            <path id="Trazado_715406" data-name="Trazado 715406" d="M109.34,106.11s8.5-7.284,27.513-7.688a49.908,49.908,0,0,1,31.559,10.519s2.833-2.022,2.024,8.9-2.024,13.352-10.924,16.589-28.728,5.664-37.224,3.237S109.3,125.95,108.917,123.11,109.34,106.11,109.34,106.11Z" transform="translate(-108.656 -65.553)" fill="#ffd1bd" stroke="#263238" stroke-linecap="round" stroke-linejoin="round" stroke-width="1"/>
            <path id="Trazado_715407" data-name="Trazado 715407" d="M109.279,101.995s14.161,6.473,33.987,5.664,35.639-6.591,37.661-7,.423,3.17.423,3.17l-11.379,5.85s0,10.924-2.429,14.566-7.687,6.068-13.352,6.068-10.943-3.229-14.161-6.068c-1.356-1.2-4.451-.809-5.664.809s-2.833,4.046-8.093,3.641-11.328-1.618-13.756-4.855-3.237-12.138-3.237-12.138S108.873,103.613,109.279,101.995Z" transform="translate(-108.595 -65.08)" fill="#fff" stroke="#263238" stroke-linecap="round" stroke-linejoin="round" stroke-width="1"/>
            <path id="Trazado_715408" data-name="Trazado 715408" d="M123.008,156.1a19.348,19.348,0,0,0,6.2,8.582c4.768,3.814,7.628,5.244,12.873,3.814s21.93-10.012,16.209-9.059a73.141,73.141,0,0,0-10.011,2.384s10.488-5.721,17.163-11.918a12.521,12.521,0,0,0,3.337-13.826s-46.244,14.3-49.582,12.4S123.008,156.1,123.008,156.1Z" transform="translate(-106.633 -57.524)" fill="#263238"/>
            <path id="Trazado_715409" data-name="Trazado 715409" d="M180.578,113.233c.126-1.385.173-3.007.18-4.582-1.069,1.294-5.771,6.984-8.271,9.842-2.833,3.237-9.306,8.5-34.8,7.283s-28.728-4.855-28.728-4.855l-.017.006c-.251,6.587-.44,14.189.017,17.392.809,5.664,16.994,29.537,27.918,29.941s27.918-12.543,30.75-16.589,7.284-11.328,8.9-15.376L173.3,141.15l1.213-19.825Z" transform="translate(-108.684 -63.37)" fill="#3076b6" stroke="#263238" stroke-linecap="round" stroke-linejoin="round" stroke-width="1"/>
            <path id="Trazado_715410" data-name="Trazado 715410" d="M131.888,113.925s-4.855-6.069-14.97-4.451" transform="translate(-106.929 -63.253)" fill="none" stroke="#263238" stroke-linecap="round" stroke-linejoin="round" stroke-width="1"/>
            <path id="Trazado_715411" data-name="Trazado 715411" d="M139.6,113.523s6.473-3.642,17.4-2.024" transform="translate(-102.094 -62.851)" fill="none" stroke="#263238" stroke-linecap="round" stroke-linejoin="round" stroke-width="1"/>
            <path id="Trazado_715412" data-name="Trazado 715412" d="M117.918,115.763s3.642,6.069,10.924,2.428" transform="translate(-106.715 -61.854)" fill="none" stroke="#263238" stroke-linecap="round" stroke-linejoin="round" stroke-width="1"/>
            <path id="Trazado_715413" data-name="Trazado 715413" d="M140.931,118.1s4.046,6.473,13.757,0" transform="translate(-101.81 -61.357)" fill="none" stroke="#263238" stroke-linecap="round" stroke-linejoin="round" stroke-width="1"/>
          </g>
        </g>
        <line id="Línea_2478" data-name="Línea 2478" x2="231.572" transform="translate(12.119 261.46)" fill="none" stroke="#263238" stroke-linecap="round" stroke-linejoin="round" stroke-width="1"/>
      </g>
    </g>
  </g>
</svg>
