<svg xmlns="http://www.w3.org/2000/svg" width="396.327" height="432.025" viewBox="0 0 396.327 432.025">
  <g id="Grupo_1013266" data-name="Grupo 1013266" transform="translate(-811 -3521)">
    <path id="Trazado_716117" data-name="Trazado 716117" d="M0,0H396.327V432.025H0Z" transform="translate(811 3521)" fill="#d4e6ef"/>
    <path id="Trazado_716118" data-name="Trazado 716118" d="M153.257,12.658V17h-3.085V4.2h5.106a5.948,5.948,0,0,1,2.6.541,4.074,4.074,0,0,1,1.749,1.538,4.2,4.2,0,0,1,.62,2.263,3.7,3.7,0,0,1-1.34,2.993,5.561,5.561,0,0,1-3.678,1.121Zm0-2.382h2.021a1.906,1.906,0,0,0,1.367-.448,1.665,1.665,0,0,0,.47-1.266,2.059,2.059,0,0,0-.483-1.433,1.712,1.712,0,0,0-1.318-.545h-2.057ZM164.876,17h-2.971V7.49h2.971ZM161.73,5.038A1.322,1.322,0,0,1,162.187,4a1.943,1.943,0,0,1,2.373,0,1.322,1.322,0,0,1,.457,1.037,1.322,1.322,0,0,1-.457,1.037,1.943,1.943,0,0,1-2.373,0A1.322,1.322,0,0,1,161.73,5.038Zm13.8,7.277a5.735,5.735,0,0,1-1,3.538,3.2,3.2,0,0,1-2.694,1.323,2.742,2.742,0,0,1-2.153-.958v4.438h-2.962V7.49h2.769l.088.879a2.742,2.742,0,0,1,2.241-1.055,3.224,3.224,0,0,1,2.733,1.3,5.805,5.805,0,0,1,.976,3.564Zm-2.962-.185q0-2.531-1.477-2.531a1.394,1.394,0,0,0-1.406.756V14.1a1.439,1.439,0,0,0,1.424.791q1.415,0,1.459-2.443Zm8.868,5.045a4.889,4.889,0,0,1-3.542-1.305,4.507,4.507,0,0,1-1.354-3.4v-.246a5.84,5.84,0,0,1,.541-2.575,3.955,3.955,0,0,1,1.578-1.727,4.763,4.763,0,0,1,2.461-.611,4.117,4.117,0,0,1,3.164,1.244,4.887,4.887,0,0,1,1.16,3.467v1.151h-5.889a2.135,2.135,0,0,0,.694,1.257,2.066,2.066,0,0,0,1.389.457,2.662,2.662,0,0,0,2.2-.984l1.354,1.6a3.784,3.784,0,0,1-1.569,1.217A5.3,5.3,0,0,1,181.435,17.176ZM181.1,9.6q-1.3,0-1.547,1.723h2.988v-.229a1.467,1.467,0,0,0-.36-1.1A1.434,1.434,0,0,0,181.1,9.6Zm8.982-4.474V7.49h1.564V9.547h-1.564V13.9a1.111,1.111,0,0,0,.193.747,1.037,1.037,0,0,0,.765.211,4.345,4.345,0,0,0,.738-.053v2.118a5.466,5.466,0,0,1-1.67.255,3.1,3.1,0,0,1-2.259-.721,2.954,2.954,0,0,1-.729-2.188V9.547h-1.213V7.49h1.213V5.126ZM198.169,17a3.344,3.344,0,0,1-.281-.853,2.754,2.754,0,0,1-2.285,1.028,3.374,3.374,0,0,1-2.285-.813,2.588,2.588,0,0,1-.94-2.043,2.66,2.66,0,0,1,1.143-2.338,5.821,5.821,0,0,1,3.322-.791h.914v-.5q0-1.316-1.134-1.316a.927.927,0,0,0-1.055,1.042h-2.962a2.655,2.655,0,0,1,1.173-2.239,4.931,4.931,0,0,1,2.993-.86,4.323,4.323,0,0,1,2.874.888,3.086,3.086,0,0,1,1.081,2.435v4.21a4.311,4.311,0,0,0,.4,2V17Zm-1.854-1.934a1.652,1.652,0,0,0,.918-.237,1.487,1.487,0,0,0,.523-.536V12.772H196.9q-1.547,0-1.547,1.389a.848.848,0,0,0,.272.655A.986.986,0,0,0,196.315,15.066Z" transform="translate(834.02 3894.201)" fill="#12263f"/>
    <path id="Trazado_716119" data-name="Trazado 716119" d="M2,0H7.651a2,2,0,0,1,2,2V149.746a2,2,0,0,1-2,2H2a2,2,0,0,1-2-2V2A2,2,0,0,1,2,0Z" transform="translate(1127.473 3680.94)" fill="#afafaf"/>
    <path id="Trazado_716120" data-name="Trazado 716120" d="M2,0H7.651a2,2,0,0,1,2,2V149.746a2,2,0,0,1-2,2H2a2,2,0,0,1-2-2V2A2,2,0,0,1,2,0Z" transform="translate(899.476 3680.94)" fill="#afafaf"/>
    <g id="Grupo_1008002" data-name="Grupo 1008002" transform="translate(924.81 3671.763)">
      <path id="Trazado_714030" data-name="Trazado 714030" d="M294.017,333.127h-36.57a2.372,2.372,0,0,0-2.366,2.366v4.446a2.373,2.373,0,0,0,2.366,2.366h4.21V464.151c3.355,12.226,24.037,13.1,28.15,0V342.305h4.21a2.373,2.373,0,0,0,2.366-2.366v-4.446A2.372,2.372,0,0,0,294.017,333.127Z" transform="translate(-255.081 -333.127)" fill="#eef9fb"/>
      <line id="Línea_2454" data-name="Línea 2454" y1="121.846" transform="translate(34.726 9.178)" fill="#d7edf1"/>
      <g id="Grupo_1008001" data-name="Grupo 1008001" transform="translate(11.154 76.504)">
        <path id="Trazado_714031" data-name="Trazado 714031" d="M264.118,399.054v47.163c2.265,10.689,16.218,11.452,18.993,0V395.108C276.612,397.363,269.823,401.978,264.118,399.054Z" transform="translate(-264.118 -395.108)" fill="#60b780"/>
      </g>
      <rect id="Rectángulo_347042" data-name="Rectángulo 347042" width="5.676" height="115.612" rx="1.185" transform="translate(21.944 13.878)" fill="#d7edf1" style="mix-blend-mode: overlay;isolation: isolate"/>
    </g>
    <path id="Trazado_714032" data-name="Trazado 714032" d="M286.707,460.761v-5.881c-5.3,9.484-12.532,8.27-14.234,4.382C270.324,454.35,270.2,337.6,270.2,337.6c-7.192,0-11.579-.768-13.54-2.111l.025,3.145c0,1.271,1.47,2.086,2.535,2.086l4.344.047.1,120A11.8,11.8,0,0,0,286.707,460.761Z" transform="translate(670.097 3339.188)" fill="#cfe5eb" style="mix-blend-mode: multiply;isolation: isolate"/>
    <g id="Grupo_1008005" data-name="Grupo 1008005" transform="translate(973.368 3671.763)">
      <path id="Trazado_714033" data-name="Trazado 714033" d="M333.359,333.127H296.788a2.373,2.373,0,0,0-2.366,2.366v4.446a2.374,2.374,0,0,0,2.366,2.366H301V464.151c3.356,12.226,24.038,13.1,28.151,0V342.305h4.21a2.374,2.374,0,0,0,2.366-2.366v-4.446A2.373,2.373,0,0,0,333.359,333.127Z" transform="translate(-294.422 -333.127)" fill="#eef9fb"/>
      <line id="Línea_2455" data-name="Línea 2455" y1="121.846" transform="translate(34.727 9.178)" fill="#d7edf1"/>
      <g id="Grupo_1008004" data-name="Grupo 1008004" transform="translate(11.156 76.504)">
        <path id="Trazado_714034" data-name="Trazado 714034" d="M303.46,399.054v47.163c2.264,10.689,16.218,11.452,18.992,0V395.108C315.952,397.363,309.164,401.978,303.46,399.054Z" transform="translate(-303.46 -395.108)" fill="#fbc864"/>
      </g>
      <rect id="Rectángulo_347043" data-name="Rectángulo 347043" width="5.676" height="115.612" rx="1.185" transform="translate(21.945 13.878)" fill="#d7edf1" style="mix-blend-mode: overlay;isolation: isolate"/>
    </g>
    <path id="Trazado_714035" data-name="Trazado 714035" d="M326.049,460.761v-5.881c-5.3,9.484-12.532,8.27-14.234,4.382-2.149-4.911-2.279-121.666-2.279-121.666-7.191,0-11.578-.768-13.539-2.111l.025,3.145c0,1.271,1.469,2.086,2.535,2.086l4.343.047.1,120A11.8,11.8,0,0,0,326.049,460.761Z" transform="translate(679.315 3339.188)" fill="#cfe5eb" style="mix-blend-mode: multiply;isolation: isolate"/>
    <g id="Grupo_1008008" data-name="Grupo 1008008" transform="translate(1021.929 3671.763)">
      <path id="Trazado_714036" data-name="Trazado 714036" d="M372.7,333.127H336.13a2.372,2.372,0,0,0-2.366,2.366v4.446a2.373,2.373,0,0,0,2.366,2.366h4.21V464.151c3.355,12.226,24.037,13.1,28.15,0V342.305h4.21a2.373,2.373,0,0,0,2.366-2.366v-4.446A2.372,2.372,0,0,0,372.7,333.127Z" transform="translate(-333.764 -333.127)" fill="#eef9fb"/>
      <line id="Línea_2456" data-name="Línea 2456" y1="121.846" transform="translate(34.726 9.178)" fill="#d7edf1"/>
      <g id="Grupo_1008007" data-name="Grupo 1008007" transform="translate(11.154 76.504)">
        <path id="Trazado_714037" data-name="Trazado 714037" d="M342.8,399.054v47.163c2.265,10.689,16.218,11.452,18.993,0V395.108C355.295,397.363,348.506,401.978,342.8,399.054Z" transform="translate(-342.801 -395.108)" fill="#c0448e"/>
      </g>
      <rect id="Rectángulo_347044" data-name="Rectángulo 347044" width="5.676" height="115.612" rx="1.185" transform="translate(21.944 13.878)" fill="#d7edf1" style="mix-blend-mode: overlay;isolation: isolate"/>
    </g>
    <path id="Trazado_714038" data-name="Trazado 714038" d="M365.39,460.761v-5.881c-5.3,9.484-12.532,8.27-14.234,4.382-2.149-4.911-2.277-121.666-2.277-121.666-7.192,0-11.579-.768-13.54-2.111l.025,3.145c0,1.271,1.47,2.086,2.535,2.086l4.344.047.1,120A11.8,11.8,0,0,0,365.39,460.761Z" transform="translate(688.534 3339.188)" fill="#cfe5eb" style="mix-blend-mode: multiply;isolation: isolate"/>
    <g id="Grupo_1008011" data-name="Grupo 1008011" transform="translate(1070.487 3671.763)">
      <path id="Trazado_714039" data-name="Trazado 714039" d="M412.042,333.127H375.471a2.373,2.373,0,0,0-2.366,2.366v4.446a2.374,2.374,0,0,0,2.366,2.366h4.21V464.151c3.356,12.226,24.038,13.1,28.151,0V342.305h4.21a2.374,2.374,0,0,0,2.366-2.366v-4.446A2.373,2.373,0,0,0,412.042,333.127Z" transform="translate(-373.105 -333.127)" fill="#eef9fb"/>
      <line id="Línea_2457" data-name="Línea 2457" y1="121.846" transform="translate(34.727 9.178)" fill="#d7edf1"/>
      <g id="Grupo_1008010" data-name="Grupo 1008010" transform="translate(11.156 76.504)">
        <path id="Trazado_714040" data-name="Trazado 714040" d="M382.143,399.054v47.163c2.264,10.689,16.218,11.452,18.992,0V395.108C394.635,397.363,387.847,401.978,382.143,399.054Z" transform="translate(-382.143 -395.108)" fill="#da2046"/>
      </g>
      <rect id="Rectángulo_347045" data-name="Rectángulo 347045" width="5.676" height="115.612" rx="1.185" transform="translate(21.945 13.878)" fill="#d7edf1" style="mix-blend-mode: overlay;isolation: isolate"/>
    </g>
    <path id="Trazado_714041" data-name="Trazado 714041" d="M404.732,460.761v-5.881c-5.3,9.484-12.532,8.27-14.234,4.382-2.149-4.911-2.279-121.666-2.279-121.666-7.191,0-11.578-.768-13.539-2.111l.025,3.145c0,1.271,1.469,2.086,2.535,2.086l4.344.047.1,120A11.8,11.8,0,0,0,404.732,460.761Z" transform="translate(697.751 3339.188)" fill="#cfe5eb" style="mix-blend-mode: multiply;isolation: isolate"/>
    <path id="Trazado_716121" data-name="Trazado 716121" d="M4,0H257.336a4,4,0,0,1,4,4V9.316a4,4,0,0,1-4,4H4a4,4,0,0,1-4-4V4A4,4,0,0,1,4,0Z" transform="translate(887.632 3685.641)" fill="#636363"/>
    <path id="Trazado_716122" data-name="Trazado 716122" d="M0,0H252.087V4.738H0Z" transform="translate(892.256 3704.845)" fill="#636363"/>
    <path id="Trazado_714042" data-name="Trazado 714042" d="M209.947,480.134v-8.914c0-6.081,3.816-11.012,8.524-11.012h281.35c4.709,0,8.525,4.931,8.525,11.012v8.914" transform="translate(659.153 3368.411)" fill="#636363"/>
  </g>
</svg>
