<svg xmlns="http://www.w3.org/2000/svg" xmlns:xlink="http://www.w3.org/1999/xlink" width="505" height="318.809" viewBox="0 0 505 318.809">
  <defs>
    <clipPath id="clip-path">
      <rect id="Rectángulo_347175" data-name="Rectángulo 347175" width="504.132" height="284.251" fill="none"/>
    </clipPath>
  </defs>
  <g id="Grupo_1011172" data-name="Grupo 1011172" transform="translate(0 -26.116)">
    <g id="BACKGROUND" transform="translate(0 26.116)">
      <rect id="Rectángulo_347142" data-name="Rectángulo 347142" width="504.568" height="318.809" rx="84.193" fill="#d2e9ff"/>
    </g>
    <g id="OBJECTS" transform="translate(0 59.725)">
      <g id="Grupo_1011078" data-name="Grupo 1011078" transform="translate(154.687 15.368)">
        <g id="Grupo_1011074" data-name="Grupo 1011074" transform="translate(1.265 22.681)">
          <path id="Trazado_715116" data-name="Trazado 715116" d="M251.161,161.549a.37.37,0,0,1-.233-.083.374.374,0,0,1-.058-.526l10.952-13.676-16.6-2.656-7.62-10.748-5.129,6.23a.374.374,0,0,1-.578-.476l5.751-6.986,8.005,11.29,17.558,2.81-11.756,14.68A.375.375,0,0,1,251.161,161.549Z" transform="translate(-231.81 -132.629)" fill="#fff"/>
        </g>
        <g id="Grupo_1011075" data-name="Grupo 1011075" transform="translate(14.517 1.265)">
          <path id="Trazado_715117" data-name="Trazado 715117" d="M251.883,134.221a.374.374,0,0,1-.292-.608l12.266-15.35-8.9-8.592,6.193-8.717a.374.374,0,1,1,.61.433l-5.82,8.192,8.929,8.619L252.176,134.08A.373.373,0,0,1,251.883,134.221Z" transform="translate(-251.509 -100.796)" fill="#fff"/>
        </g>
        <g id="Grupo_1011076" data-name="Grupo 1011076" transform="translate(26.997 18.325)">
          <path id="Trazado_715118" data-name="Trazado 715118" d="M281.539,129.985a.4.4,0,0,1-.1-.013l-11.105-3.081a.374.374,0,0,1,.2-.721l11.105,3.081a.375.375,0,0,1-.1.735Z" transform="translate(-270.059 -126.155)" fill="#fff"/>
        </g>
        <g id="Grupo_1011077" data-name="Grupo 1011077">
          <path id="Trazado_715119" data-name="Trazado 715119" d="M262.58,173.16a3.906,3.906,0,1,1-3.906-3.907A3.906,3.906,0,0,1,262.58,173.16Z" transform="translate(-238.058 -121.933)" fill="#008b8a"/>
          <circle id="Elipse_8441" data-name="Elipse 8441" cx="3.906" cy="3.906" r="3.906" transform="translate(3.172 19.39)" fill="#86b6f8"/>
          <circle id="Elipse_8442" data-name="Elipse 8442" cx="3.906" cy="3.906" r="3.906" transform="translate(10.985 30.409)" fill="#ffc838"/>
          <circle id="Elipse_8443" data-name="Elipse 8443" cx="2.903" cy="2.903" r="2.903" transform="translate(15.552 7.191)" fill="#3076b6"/>
          <circle id="Elipse_8444" data-name="Elipse 8444" cx="4.866" cy="4.866" r="4.866" transform="translate(27.104 32.182)" fill="#86b6f8"/>
          <path id="Trazado_715120" data-name="Trazado 715120" d="M273.114,124.345a4.866,4.866,0,1,1-4.866-4.866A4.866,4.866,0,0,1,273.114,124.345Z" transform="translate(-240.877 -105.645)" fill="#4db1f0"/>
          <path id="Trazado_715121" data-name="Trazado 715121" d="M267.133,100.556a1.64,1.64,0,1,1-1.64-1.64A1.64,1.64,0,0,1,267.133,100.556Z" transform="translate(-241.031 -98.916)" fill="#008b8a"/>
          <path id="Trazado_715122" data-name="Trazado 715122" d="M287.964,130.494a1.639,1.639,0,1,1-1.639-1.64A1.639,1.639,0,0,1,287.964,130.494Z" transform="translate(-247.848 -108.713)" fill="#3076b6"/>
          <path id="Trazado_715123" data-name="Trazado 715123" d="M233.209,142.569a1.64,1.64,0,1,1-1.639-1.64A1.639,1.639,0,0,1,233.209,142.569Z" transform="translate(-229.93 -112.664)" fill="#008b8a"/>
        </g>
      </g>
      <g id="Grupo_1011083" data-name="Grupo 1011083" transform="translate(15.389 108.03)">
        <g id="Grupo_1011079" data-name="Grupo 1011079" transform="translate(24.233 28.589)">
          <rect id="Rectángulo_347143" data-name="Rectángulo 347143" width="14.365" height="3.403" rx="1.702" transform="translate(12.061)" fill="#faffff"/>
          <path id="Trazado_715124" data-name="Trazado 715124" d="M96.9,333.946,83.584,308.781V284.206H72.692v24.575L59.377,333.946a4.11,4.11,0,0,0,3.633,6.032H93.266A4.109,4.109,0,0,0,96.9,333.946Z" transform="translate(-58.895 -280.803)" fill="#faffff"/>
          <path id="Trazado_715125" data-name="Trazado 715125" d="M63.8,338.347a2.478,2.478,0,0,1-2.191-3.638l13.5-25.524v-24.98h7.628v24.98l13.5,25.524a2.479,2.479,0,0,1-2.191,3.638Z" transform="translate(-59.687 -280.803)" fill="#c5eaff"/>
          <rect id="Rectángulo_347144" data-name="Rectángulo 347144" width="10.891" height="1.618" transform="translate(13.798 3.403)" fill="#43c9c4" opacity="0.4" style="mix-blend-mode: multiply;isolation: isolate"/>
        </g>
        <rect id="Rectángulo_347145" data-name="Rectángulo 347145" width="10.891" height="1.67" transform="translate(38.031 46.962)" fill="#43c9c4" opacity="0.4" style="mix-blend-mode: multiply;isolation: isolate"/>
        <g id="Grupo_1011080" data-name="Grupo 1011080" transform="translate(0 42.886)">
          <path id="Trazado_715126" data-name="Trazado 715126" d="M60.731,303.008H24.18a1.305,1.305,0,1,1,0-2.611H60.731a1.305,1.305,0,0,1,0,2.611Z" transform="translate(-22.874 -300.397)" fill="#00426f"/>
        </g>
        <g id="Grupo_1011081" data-name="Grupo 1011081" transform="translate(6.571 36.315)">
          <path id="Trazado_715127" data-name="Trazado 715127" d="M33.946,363.244a1.306,1.306,0,0,1-1.305-1.306v-70a1.305,1.305,0,1,1,2.611,0v70A1.306,1.306,0,0,1,33.946,363.244Z" transform="translate(-32.641 -290.631)" fill="#00426f"/>
        </g>
        <g id="Grupo_1011082" data-name="Grupo 1011082" transform="translate(34.728 41.42)">
          <rect id="Rectángulo_347146" data-name="Rectángulo 347146" width="17.496" height="5.542" fill="#00426f"/>
        </g>
        <rect id="Rectángulo_347147" data-name="Rectángulo 347147" width="6.611" height="6.611" transform="translate(4.571 40.886)" fill="#faffff"/>
        <path id="Trazado_715128" data-name="Trazado 715128" d="M35.353,301.607a1.5,1.5,0,1,1-1.5-1.5A1.5,1.5,0,0,1,35.353,301.607Z" transform="translate(-25.974 -257.415)" fill="#ccd8ef"/>
        <rect id="Rectángulo_347148" data-name="Rectángulo 347148" width="73.337" height="7.091" transform="translate(1.306 104.055)" fill="#00426f"/>
        <path id="Trazado_715129" data-name="Trazado 715129" d="M95.89,351.6a2.516,2.516,0,0,0,.291-.371c.013-.021.018-.044.03-.066a2.464,2.464,0,0,0,.332-1.144,2.438,2.438,0,0,0-.163-.883,2.543,2.543,0,0,0-.131-.344l-2.561-4.839h0l-8.84-16.709a9.5,9.5,0,0,0-4.2,7.773,2.483,2.483,0,0,0-3.354,2.348H72.61a4.95,4.95,0,0,0-2.637-4.377l-4.632,8.755h0l-3.73,7.049a2.427,2.427,0,0,0,.067,2.437,2.427,2.427,0,0,0,1.481,1.119,2.549,2.549,0,0,0,.642.081H94.058a2.471,2.471,0,0,0,1.223-.314,2.353,2.353,0,0,0,.5-.377C95.822,351.7,95.852,351.647,95.89,351.6Z" transform="translate(-35.454 -266.298)" fill="#86b6f8"/>
        <path id="Trazado_715130" data-name="Trazado 715130" d="M86.275,329.375a1.257,1.257,0,1,1-1.257-1.257A1.257,1.257,0,0,1,86.275,329.375Z" transform="translate(-42.799 -266.583)" fill="#86b6f8"/>
        <path id="Trazado_715131" data-name="Trazado 715131" d="M88.228,270.764a1,1,0,1,1-1-1A1,1,0,0,1,88.228,270.764Z" transform="translate(-43.608 -247.488)" fill="#86b6f8"/>
        <circle id="Elipse_8445" data-name="Elipse 8445" cx="2.549" cy="2.549" r="2.549" transform="translate(36.529 10.752)" fill="#86b6f8"/>
        <path id="Trazado_715132" data-name="Trazado 715132" d="M89.2,260.881a2.66,2.66,0,1,0,2.66-2.66A2.66,2.66,0,0,0,89.2,260.881Z" transform="translate(-44.578 -243.71)" fill="#86b6f8"/>
        <path id="Trazado_715133" data-name="Trazado 715133" d="M93.785,250.428a1.229,1.229,0,1,1-1.229-1.228A1.229,1.229,0,0,1,93.785,250.428Z" transform="translate(-45.275 -240.758)" fill="#86b6f8"/>
        <path id="Trazado_715134" data-name="Trazado 715134" d="M88.1,237.422a.771.771,0,1,1-.771-.771A.77.77,0,0,1,88.1,237.422Z" transform="translate(-43.716 -236.651)" fill="#86b6f8"/>
        <circle id="Elipse_8446" data-name="Elipse 8446" cx="1.887" cy="1.887" r="1.887" transform="translate(34.728 75.05)" fill="#afcffb"/>
        <circle id="Elipse_8447" data-name="Elipse 8447" cx="2.156" cy="2.156" r="2.156" transform="translate(44.003 72.625)" fill="#afcffb"/>
        <path id="Trazado_715135" data-name="Trazado 715135" d="M86.746,354.814a1,1,0,1,1-1-1A1,1,0,0,1,86.746,354.814Z" transform="translate(-43.123 -274.992)" fill="#afcffb"/>
        <path id="Trazado_715136" data-name="Trazado 715136" d="M98.078,355.059a1.243,1.243,0,1,1-1.243-1.243A1.243,1.243,0,0,1,98.078,355.059Z" transform="translate(-46.671 -274.992)" fill="#afcffb"/>
      </g>
      <path id="Trazado_715137" data-name="Trazado 715137" d="M318.348,383.071l-7.059-13.341v-8.361h.018a.9.9,0,0,0,0-1.8H305.5a.9.9,0,0,0,0,1.8h.019v8.36l-7.059,13.342a2.179,2.179,0,0,0,1.926,3.2h16.041A2.178,2.178,0,0,0,318.348,383.071Z" transform="translate(-97.584 -168.843)" fill="#4db1f0"/>
      <path id="Trazado_715138" data-name="Trazado 715138" d="M687.72,366.25v-9.98h.021a1,1,0,0,0,0-2H681.3a1,1,0,1,0,0,2h.021v9.971a10.333,10.333,0,0,0-3.874,17.359,2.392,2.392,0,0,0,1.637.645h10.877a2.4,2.4,0,0,0,1.644-.65,10.326,10.326,0,0,0-3.88-17.345Z" transform="translate(-220.621 -167.111)" fill="#4db1f0"/>
      <g id="Grupo_1011084" data-name="Grupo 1011084" transform="translate(199.643 175.591)">
        <path id="Trazado_715139" data-name="Trazado 715139" d="M335.647,365.774H333.4v-8.111a4.947,4.947,0,0,0-3.505-5.077,6.163,6.163,0,0,0-2.287-.156,16.871,16.871,0,0,1-1.079,5.5c-1.181,3.007-2.866,4.729-5.009,5.115a4.255,4.255,0,0,1-4.54-2.11,4.5,4.5,0,0,1,.116-3.944,9.193,9.193,0,0,1,2.177-2.688,17.456,17.456,0,0,1,6.074-3.658,6.739,6.739,0,0,0-2.285-4.855,5.862,5.862,0,0,0-2.964-1.107,10.647,10.647,0,0,1-.427,4.6,14.969,14.969,0,0,1-2.088,4.209c-.965,1.372-2.968,4.226-6.347,3.687a5.635,5.635,0,0,1-4.524-4.825,7.612,7.612,0,0,1,2.549-6.42,13.458,13.458,0,0,1,5.875-2.993,17.693,17.693,0,0,1,1.833-.391,5.379,5.379,0,0,0-.548-.7,8.06,8.06,0,0,0-3.344-2.095c-5.5-1.87-10.075,2.687-14.108,6.706l-.636.632-1.581-1.6.631-.628c4.048-4.033,9.592-9.554,16.415-7.242a10.306,10.306,0,0,1,4.273,2.7,7.756,7.756,0,0,1,1.364,2.053,8.412,8.412,0,0,1,5,1.63,8.751,8.751,0,0,1,3.132,6.177,8.34,8.34,0,0,1,2.912.233,7.152,7.152,0,0,1,5.173,7.248Zm-10.321-12.752a15.831,15.831,0,0,0-4.533,2.932,7.208,7.208,0,0,0-1.677,2.017,2.3,2.3,0,0,0-.126,1.956,2.03,2.03,0,0,0,2.133.9c1.342-.242,2.427-1.461,3.317-3.726A14.157,14.157,0,0,0,325.326,353.022Zm-7.5-8.321a14.676,14.676,0,0,0-2.106.405,11.311,11.311,0,0,0-4.921,2.464,5.445,5.445,0,0,0-1.855,4.49,3.392,3.392,0,0,0,2.652,2.9c1.652.268,2.854-.914,4.154-2.762a12.727,12.727,0,0,0,1.779-3.576A8.243,8.243,0,0,0,317.823,344.7Z" transform="translate(-296.753 -337.074)" fill="#faffff"/>
      </g>
      <g id="Grupo_1011087" data-name="Grupo 1011087" transform="translate(164.82 164.529)">
        <path id="Trazado_715140" data-name="Trazado 715140" d="M274.185,324.165H262.8a1.767,1.767,0,0,1-1.767-1.767h0a1.766,1.766,0,0,1,1.767-1.767h11.38a1.766,1.766,0,0,1,1.767,1.767h0A1.766,1.766,0,0,1,274.185,324.165Z" transform="translate(-250.243 -320.632)" fill="#faffff"/>
        <path id="Trazado_715141" data-name="Trazado 715141" d="M281.484,360.177a18.354,18.354,0,0,0-12.586-16.67V325.884H257.591v17.607a18.246,18.246,0,0,0-6.842,30.652,4.224,4.224,0,0,0,2.892,1.138h19.205a4.236,4.236,0,0,0,2.9-1.148A18.2,18.2,0,0,0,281.484,360.177Z" transform="translate(-244.992 -322.351)" fill="#faffff"/>
        <g id="Grupo_1011085" data-name="Grupo 1011085" transform="translate(24.62 12.794)">
          <path id="Trazado_715142" data-name="Trazado 715142" d="M301.156,348.726l-6.6-6.6a1.45,1.45,0,0,1,0-2.05h0a1.45,1.45,0,0,1,2.05,0l6.6,6.6a1.45,1.45,0,0,1,0,2.05h0A1.45,1.45,0,0,1,301.156,348.726Z" transform="translate(-285.692 -339.649)" fill="#faffff"/>
          <rect id="Rectángulo_347149" data-name="Rectángulo 347149" width="12.563" height="9.277" transform="translate(0 11.379) rotate(-45)" fill="#faffff"/>
          <rect id="Rectángulo_347150" data-name="Rectángulo 347150" width="12.563" height="6.498" transform="translate(0.982 12.362) rotate(-45)" fill="#c5eaff"/>
          <rect id="Rectángulo_347151" data-name="Rectángulo 347151" width="1.378" height="9.277" transform="matrix(0.707, -0.707, 0.707, 0.707, 7.898, 3.481)" fill="#43c9c4" opacity="0.4" style="mix-blend-mode: multiply;isolation: isolate"/>
        </g>
        <path id="Trazado_715143" data-name="Trazado 715143" d="M254.465,373.588a2.519,2.519,0,0,1-1.733-.679,16.553,16.553,0,0,1,6.207-27.808l1.169-.381V325.884h7.92v18.847l1.163.384a16.538,16.538,0,0,1,6.222,27.785,2.53,2.53,0,0,1-1.742.688Z" transform="translate(-245.816 -322.351)" fill="#c5eaff"/>
        <path id="Trazado_715144" data-name="Trazado 715144" d="M278.874,366.9H249.232a16.57,16.57,0,0,0,3.5,19.432,2.519,2.519,0,0,0,1.733.679H273.67a2.53,2.53,0,0,0,1.742-.688,16.576,16.576,0,0,0,5.2-12.663A16.324,16.324,0,0,0,278.874,366.9Z" transform="translate(-245.816 -335.773)" fill="#66d3c4"/>
        <g id="Grupo_1011086" data-name="Grupo 1011086" transform="translate(13.215 15.51)">
          <path id="Trazado_715145" data-name="Trazado 715145" d="M275.611,377.924a2.729,2.729,0,1,1-2.729-2.73A2.729,2.729,0,0,1,275.611,377.924Z" transform="translate(-266.44 -353.997)" fill="#faffff" opacity="0.4" style="mix-blend-mode: screen;isolation: isolate"/>
          <path id="Trazado_715146" data-name="Trazado 715146" d="M281.8,387.726a.874.874,0,1,1-.874-.873A.874.874,0,0,1,281.8,387.726Z" transform="translate(-269.68 -357.812)" fill="#faffff" opacity="0.4" style="mix-blend-mode: screen;isolation: isolate"/>
          <circle id="Elipse_8448" data-name="Elipse 8448" cx="0.6" cy="0.6" r="0.6" transform="translate(0.873 17.141)" fill="#faffff" opacity="0.4" style="mix-blend-mode: screen;isolation: isolate"/>
          <path id="Trazado_715147" data-name="Trazado 715147" d="M273.038,344.723A1.037,1.037,0,1,1,272,343.686,1.037,1.037,0,0,1,273.038,344.723Z" transform="translate(-266.706 -343.686)" fill="#faffff" opacity="0.4" style="mix-blend-mode: screen;isolation: isolate"/>
          <circle id="Elipse_8449" data-name="Elipse 8449" cx="0.626" cy="0.626" r="0.626" transform="translate(10.153 10.925)" fill="#faffff" opacity="0.4" style="mix-blend-mode: screen;isolation: isolate"/>
          <circle id="Elipse_8450" data-name="Elipse 8450" cx="1.643" cy="1.643" r="1.643" transform="translate(11.791 17.141)" fill="#faffff" opacity="0.4" style="mix-blend-mode: screen;isolation: isolate"/>
          <circle id="Elipse_8451" data-name="Elipse 8451" cx="1.965" cy="1.965" r="1.965" transform="translate(1.856 8.516)" fill="#faffff" opacity="0.4" style="mix-blend-mode: screen;isolation: isolate"/>
          <circle id="Elipse_8452" data-name="Elipse 8452" cx="1.856" cy="1.856" r="1.856" transform="translate(0 27.403)" fill="#faffff" opacity="0.4" style="mix-blend-mode: screen;isolation: isolate"/>
          <circle id="Elipse_8453" data-name="Elipse 8453" cx="0.487" cy="0.487" r="0.487" transform="translate(5.037 18.014)" fill="#faffff" opacity="0.4" style="mix-blend-mode: screen;isolation: isolate"/>
        </g>
        <rect id="Rectángulo_347152" data-name="Rectángulo 347152" width="11.307" height="1.679" transform="translate(12.599 3.552)" fill="#43c9c4" opacity="0.4" style="mix-blend-mode: multiply;isolation: isolate"/>
      </g>
      <g id="Grupo_1011089" data-name="Grupo 1011089" transform="translate(49.683 197.606)">
        <path id="Trazado_715148" data-name="Trazado 715148" d="M91.772,388.375H74.292l-.4-2.513a3.06,3.06,0,0,1,3.021-3.544H89.154a3.06,3.06,0,0,1,3.021,3.544Z" transform="translate(-73.85 -373.896)" fill="#faffff"/>
        <g id="Grupo_1011088" data-name="Grupo 1011088" transform="translate(8.697 5.976)">
          <rect id="Rectángulo_347153" data-name="Rectángulo 347153" width="0.971" height="2.447" fill="#fff"/>
        </g>
        <path id="Trazado_715149" data-name="Trazado 715149" d="M88.733,374.246a2.4,2.4,0,1,1-4.807,0c0-1.327,2.4-4.447,2.4-4.447S88.733,372.919,88.733,374.246Z" transform="translate(-77.147 -369.799)" fill="#ffc838"/>
      </g>
      <g id="Grupo_1011091" data-name="Grupo 1011091" transform="translate(229.282 200.186)">
        <path id="Trazado_715150" data-name="Trazado 715150" d="M356.447,374.887H341.435a.626.626,0,0,1-.626-.626h0a.627.627,0,0,1,.626-.626h15.011a.626.626,0,0,1,.626.626h0A.626.626,0,0,1,356.447,374.887Z" transform="translate(-340.809 -373.634)" fill="#faffff"/>
        <path id="Rectángulo_347154" data-name="Rectángulo 347154" d="M1.813,0H13.077A1.813,1.813,0,0,1,14.89,1.813V16.02a0,0,0,0,1,0,0H0a0,0,0,0,1,0,0V1.813A1.813,1.813,0,0,1,1.813,0Z" transform="translate(15.577 17.273) rotate(180)" fill="#faffff"/>
        <path id="Rectángulo_347155" data-name="Rectángulo 347155" d="M0,0H14.682a.363.363,0,0,1,.363.363V12.576a.362.362,0,0,1-.362.362H0a0,0,0,0,1,0,0V0A0,0,0,0,1,0,0Z" transform="translate(14.601 1.253) rotate(90)" fill="#c5eaff"/>
        <path id="Trazado_715151" data-name="Trazado 715151" d="M343.28,383.466V392.9a.244.244,0,0,0,.244.244h12.451a.244.244,0,0,0,.244-.244v-9.439Z" transform="translate(-341.618 -376.852)" fill="#3076b6"/>
        <g id="Grupo_1011090" data-name="Grupo 1011090" transform="translate(5.241 8.525)">
          <circle id="Elipse_8454" data-name="Elipse 8454" cx="0.993" cy="0.993" r="0.993" transform="translate(0.548)" fill="#faffff" opacity="0.4" style="mix-blend-mode: screen;isolation: isolate"/>
          <path id="Trazado_715152" data-name="Trazado 715152" d="M356.05,389.167a1.13,1.13,0,1,1-1.13-1.13A1.13,1.13,0,0,1,356.05,389.167Z" transform="translate(-350.298 -386.873)" fill="#faffff" opacity="0.4" style="mix-blend-mode: screen;isolation: isolate"/>
          <circle id="Elipse_8455" data-name="Elipse 8455" cx="0.514" cy="0.514" r="0.514" transform="translate(0 3.766)" fill="#faffff" opacity="0.4" style="mix-blend-mode: screen;isolation: isolate"/>
          <circle id="Elipse_8456" data-name="Elipse 8456" cx="1.019" cy="1.019" r="1.019" transform="translate(2.583 4.507)" fill="#faffff" opacity="0.4" style="mix-blend-mode: screen;isolation: isolate"/>
        </g>
        <rect id="Rectángulo_347156" data-name="Rectángulo 347156" width="14.89" height="0.968" transform="translate(0.687 1.253)" fill="#43c9c4" opacity="0.4" style="mix-blend-mode: multiply;isolation: isolate"/>
      </g>
      <path id="Trazado_715153" data-name="Trazado 715153" d="M510.428,373.634H495.416a.626.626,0,0,0,0,1.253h.061v14.8a1.22,1.22,0,0,0,1.22,1.22h12.451a1.22,1.22,0,0,0,1.22-1.22v-14.8h.06a.626.626,0,1,0,0-1.253Z" transform="translate(-161.917 -173.448)" fill="#4db1f0"/>
      <g id="Grupo_1011092" data-name="Grupo 1011092" transform="translate(451.524 142.076)">
        <path id="Trazado_715154" data-name="Trazado 715154" d="M673.65,326.98h-2.5V290.168a2.914,2.914,0,0,1,2.91-2.911h11.109a3.718,3.718,0,0,1,2.646,1.1l13.523,13.522a3.719,3.719,0,0,1,1.1,2.647v14.81h-2.5v-14.81a1.237,1.237,0,0,0-.365-.882l-13.523-13.522a1.251,1.251,0,0,0-.881-.365H674.065a.416.416,0,0,0-.415.416Z" transform="translate(-671.155 -287.257)" fill="#faffff"/>
      </g>
      <g id="Grupo_1011093" data-name="Grupo 1011093" transform="translate(443.697 159.588)">
        <path id="Trazado_715155" data-name="Trazado 715155" d="M675.134,314.833H662.665a.772.772,0,0,1-.772-.772h0a.772.772,0,0,1,.772-.772h12.469a.772.772,0,0,1,.772.772h0A.772.772,0,0,1,675.134,314.833Z" transform="translate(-660.296 -313.288)" fill="#faffff"/>
        <rect id="Rectángulo_347157" data-name="Rectángulo 347157" width="12.343" height="52.65" transform="translate(14.774 54.194) rotate(180)" fill="#faffff"/>
        <path id="Rectángulo_347158" data-name="Rectángulo 347158" d="M0,0H49.659a1.788,1.788,0,0,1,1.788,1.788V8.149a1.788,1.788,0,0,1-1.788,1.788H0a0,0,0,0,1,0,0V0A0,0,0,0,1,0,0Z" transform="translate(13.572 1.544) rotate(90)" fill="#c5eaff"/>
        <path id="Trazado_715156" data-name="Trazado 715156" d="M664.922,346.3V375.88a1.2,1.2,0,0,0,1.2,1.2h7.532a1.2,1.2,0,0,0,1.2-1.2V346.3Z" transform="translate(-661.288 -324.092)" fill="#ffb900"/>
        <path id="Trazado_715157" data-name="Trazado 715157" d="M676.314,396.524l-.37-.37a1.6,1.6,0,0,1-.468-1.13,1.181,1.181,0,0,0-1.181-1.181H661.952a1.182,1.182,0,0,0-1.182,1.181,1.6,1.6,0,0,1-.468,1.13l-.37.37a1.407,1.407,0,0,0-.412,1h17.206A1.407,1.407,0,0,0,676.314,396.524Z" transform="translate(-659.52 -339.649)" fill="#fff"/>
        <rect id="Rectángulo_347159" data-name="Rectángulo 347159" width="12.343" height="1.193" transform="translate(2.432 1.544)" fill="#43c9c4" opacity="0.4" style="mix-blend-mode: multiply;isolation: isolate"/>
      </g>
      <g id="Grupo_1011094" data-name="Grupo 1011094" transform="translate(438.701 185.502)">
        <path id="Trazado_715158" data-name="Trazado 715158" d="M664.058,352.99H654.5a.592.592,0,0,1-.591-.592h0a.592.592,0,0,1,.591-.591h9.554a.592.592,0,0,1,.592.591h0A.592.592,0,0,1,664.058,352.99Z" transform="translate(-652.689 -351.807)" fill="#faffff"/>
        <rect id="Rectángulo_347160" data-name="Rectángulo 347160" width="9.457" height="27.956" transform="translate(11.321 29.14) rotate(180)" fill="#faffff"/>
        <path id="Rectángulo_347161" data-name="Rectángulo 347161" d="M0,0H25.665a1.37,1.37,0,0,1,1.37,1.37V6.244a1.37,1.37,0,0,1-1.37,1.37H0a0,0,0,0,1,0,0V0A0,0,0,0,1,0,0Z" transform="translate(10.399 1.183) rotate(90)" fill="#c5eaff"/>
        <path id="Trazado_715159" data-name="Trazado 715159" d="M656.234,377.1v10.279a.921.921,0,0,0,.922.922h5.771a.922.922,0,0,0,.922-.922V377.1Z" transform="translate(-653.449 -360.085)" fill="#ffb900"/>
        <path id="Trazado_715160" data-name="Trazado 715160" d="M664.962,397.175l-.283-.284a1.223,1.223,0,0,1-.359-.865.9.9,0,0,0-.906-.9h-9.457a.9.9,0,0,0-.9.9,1.223,1.223,0,0,1-.359.865l-.284.284a1.082,1.082,0,0,0-.316.764h13.184A1.08,1.08,0,0,0,664.962,397.175Z" transform="translate(-652.094 -365.981)" fill="#fff"/>
        <rect id="Rectángulo_347162" data-name="Rectángulo 347162" width="9.457" height="0.914" transform="translate(1.864 1.183)" fill="#43c9c4" opacity="0.4" style="mix-blend-mode: multiply;isolation: isolate"/>
      </g>
      <g id="Grupo_1011095" data-name="Grupo 1011095" transform="translate(341.261 179.276)">
        <path id="Trazado_715161" data-name="Trazado 715161" d="M521.552,343.965H510.137a.707.707,0,0,1-.707-.706h0a.707.707,0,0,1,.707-.707h11.415a.707.707,0,0,1,.707.707h0A.707.707,0,0,1,521.552,343.965Z" transform="translate(-507.968 -342.552)" fill="#faffff"/>
        <rect id="Rectángulo_347163" data-name="Rectángulo 347163" width="11.3" height="33.403" transform="translate(13.526 34.817) rotate(180)" fill="#faffff"/>
        <path id="Rectángulo_347164" data-name="Rectángulo 347164" d="M0,0H30.666A1.637,1.637,0,0,1,32.3,1.637V7.461A1.637,1.637,0,0,1,30.666,9.1H0a0,0,0,0,1,0,0V0A0,0,0,0,1,0,0Z" transform="translate(12.425 1.414) rotate(90)" fill="#c5eaff"/>
        <path id="Trazado_715162" data-name="Trazado 715162" d="M512.2,372.775v12.283a1.1,1.1,0,0,0,1.1,1.1h6.9a1.1,1.1,0,0,0,1.1-1.1V372.775Z" transform="translate(-508.876 -352.442)" fill="#ffb900"/>
        <path id="Trazado_715163" data-name="Trazado 715163" d="M522.632,396.759l-.339-.339a1.462,1.462,0,0,1-.428-1.033,1.082,1.082,0,0,0-1.082-1.082h-11.3a1.082,1.082,0,0,0-1.082,1.082,1.462,1.462,0,0,1-.428,1.033l-.339.339a1.289,1.289,0,0,0-.378.912H523.01A1.292,1.292,0,0,0,522.632,396.759Z" transform="translate(-507.257 -359.488)" fill="#fff"/>
        <rect id="Rectángulo_347165" data-name="Rectángulo 347165" width="11.3" height="1.092" transform="translate(2.227 1.414)" fill="#43c9c4" opacity="0.4" style="mix-blend-mode: multiply;isolation: isolate"/>
      </g>
      <g id="Grupo_1011099" data-name="Grupo 1011099" transform="translate(463.896 172.636)">
        <path id="Trazado_715164" data-name="Trazado 715164" d="M707.013,335.712h9.754a1.515,1.515,0,0,0,1.514-1.514h0a1.515,1.515,0,0,0-1.514-1.514h-9.754A1.515,1.515,0,0,0,705.5,334.2h0A1.514,1.514,0,0,0,707.013,335.712Z" transform="translate(-694.766 -332.683)" fill="#faffff"/>
        <path id="Trazado_715165" data-name="Trazado 715165" d="M689.975,373.611l11.849-22.394V337.185h9.692v14.032l11.849,22.394a3.657,3.657,0,0,1-3.233,5.368H693.208A3.657,3.657,0,0,1,689.975,373.611Z" transform="translate(-689.546 -334.156)" fill="#faffff"/>
        <g id="Grupo_1011096" data-name="Grupo 1011096" transform="translate(1.115 12.866)">
          <path id="Trazado_715166" data-name="Trazado 715166" d="M693.094,358.738l5.041-5.042a1.105,1.105,0,0,0,0-1.565h0a1.106,1.106,0,0,0-1.565,0l-5.042,5.042a1.106,1.106,0,0,0,0,1.565h0A1.106,1.106,0,0,0,693.094,358.738Z" transform="translate(-691.204 -351.807)" fill="#faffff"/>
          <rect id="Rectángulo_347166" data-name="Rectángulo 347166" width="7.084" height="9.593" transform="translate(1.906 6.915) rotate(-45)" fill="#faffff"/>
          <rect id="Rectángulo_347167" data-name="Rectángulo 347167" width="4.962" height="9.593" transform="translate(2.656 6.165) rotate(-45)" fill="#c5eaff"/>
          <rect id="Rectángulo_347168" data-name="Rectángulo 347168" width="7.084" height="1.052" transform="translate(1.914 6.923) rotate(-45)" fill="#43c9c4" opacity="0.4" style="mix-blend-mode: multiply;isolation: isolate"/>
        </g>
        <g id="Grupo_1011097" data-name="Grupo 1011097" transform="translate(19.434 12.866)">
          <path id="Trazado_715167" data-name="Trazado 715167" d="M733.376,358.738l-5.042-5.042a1.107,1.107,0,0,1,0-1.565h0a1.106,1.106,0,0,1,1.565,0l5.042,5.042a1.107,1.107,0,0,1,0,1.565h0A1.106,1.106,0,0,1,733.376,358.738Z" transform="translate(-721.568 -351.807)" fill="#faffff"/>
          <rect id="Rectángulo_347169" data-name="Rectángulo 347169" width="9.593" height="7.084" transform="translate(0 8.689) rotate(-45)" fill="#faffff"/>
          <rect id="Rectángulo_347170" data-name="Rectángulo 347170" width="9.593" height="4.962" transform="translate(0.75 9.44) rotate(-45)" fill="#c5eaff"/>
          <rect id="Rectángulo_347171" data-name="Rectángulo 347171" width="1.052" height="7.084" transform="translate(6.031 2.658) rotate(-45)" fill="#43c9c4" opacity="0.4" style="mix-blend-mode: multiply;isolation: isolate"/>
        </g>
        <path id="Trazado_715168" data-name="Trazado 715168" d="M720.837,377.528a2.206,2.206,0,0,0,1.95-3.237l-12.017-22.713V337.185h-6.789v14.393l-12.017,22.713a2.206,2.206,0,0,0,1.95,3.237Z" transform="translate(-690.251 -334.156)" fill="#c5eaff"/>
        <path id="Trazado_715169" data-name="Trazado 715169" d="M698.794,373.15h17.162l6.831,12.91a2.206,2.206,0,0,1-1.95,3.237H693.913a2.206,2.206,0,0,1-1.95-3.237Z" transform="translate(-690.251 -345.926)" fill="#86b6f8"/>
        <g id="Grupo_1011098" data-name="Grupo 1011098" transform="translate(8.605 31.448)" opacity="0.4" style="mix-blend-mode: screen;isolation: isolate">
          <path id="Trazado_715170" data-name="Trazado 715170" d="M708.709,391.634a.866.866,0,1,0,.866-.865A.866.866,0,0,0,708.709,391.634Z" transform="translate(-704.422 -383.139)" fill="#faffff"/>
          <path id="Trazado_715171" data-name="Trazado 715171" d="M711.736,384a1.1,1.1,0,1,0,1.1-1.1A1.1,1.1,0,0,0,711.736,384Z" transform="translate(-705.412 -380.565)" fill="#faffff"/>
          <path id="Trazado_715172" data-name="Trazado 715172" d="M717.591,381.133a1.706,1.706,0,1,0,1.706-1.705A1.706,1.706,0,0,0,717.591,381.133Z" transform="translate(-707.328 -379.428)" fill="#faffff"/>
          <path id="Trazado_715173" data-name="Trazado 715173" d="M709.617,380.577a.56.56,0,1,0,.56-.56A.56.56,0,0,0,709.617,380.577Z" transform="translate(-704.719 -379.621)" fill="#faffff"/>
          <path id="Trazado_715174" data-name="Trazado 715174" d="M723.306,391.584a.967.967,0,1,0,.967-.967A.968.968,0,0,0,723.306,391.584Z" transform="translate(-709.198 -383.09)" fill="#faffff"/>
          <circle id="Elipse_8457" data-name="Elipse 8457" cx="1.549" cy="1.549" r="1.549" transform="translate(0.746 1.706)" fill="#faffff"/>
          <path id="Trazado_715175" data-name="Trazado 715175" d="M702.336,389.944a.56.56,0,1,0,.56-.56A.56.56,0,0,0,702.336,389.944Z" transform="translate(-702.336 -382.686)" fill="#faffff"/>
          <path id="Trazado_715176" data-name="Trazado 715176" d="M716.077,389.136a.509.509,0,1,0,.509-.509A.509.509,0,0,0,716.077,389.136Z" transform="translate(-706.833 -382.438)" fill="#faffff"/>
          <path id="Trazado_715177" data-name="Trazado 715177" d="M719.37,387.546a.509.509,0,1,0,.509-.509A.509.509,0,0,0,719.37,387.546Z" transform="translate(-707.91 -381.918)" fill="#faffff"/>
        </g>
        <rect id="Rectángulo_347172" data-name="Rectángulo 347172" width="9.691" height="1.439" transform="translate(12.278 3.028)" fill="#43c9c4" opacity="0.4" style="mix-blend-mode: multiply;isolation: isolate"/>
      </g>
      <g id="Grupo_1011170" data-name="Grupo 1011170" transform="translate(0.868)">
        <g id="Grupo_1011169" data-name="Grupo 1011169" clip-path="url(#clip-path)">
          <g id="Grupo_1011168" data-name="Grupo 1011168" transform="translate(28.306 18.427)">
            <g id="Grupo_1011122" data-name="Grupo 1011122" transform="translate(303.964)">
              <g id="Grupo_1011111" data-name="Grupo 1011111" transform="translate(36.453 12.265)">
                <path id="Trazado_715178" data-name="Trazado 715178" d="M549.368,386.129s36.905,14.385,77.646-.311L615.8,325.962l-52.848,2.228Z" transform="translate(-549.368 -188.539)" fill="#002538"/>
                <path id="Trazado_715179" data-name="Trazado 715179" d="M569.188,311.38l-5.215,181.062,19.96,2.083,11.162-169.518,21.961,168.439L635.5,492.4,617.055,312.529Z" transform="translate(-554.147 -183.767)" fill="#00426f"/>
                <path id="Trazado_715180" data-name="Trazado 715180" d="M580.33,311.125l38.844,1.624-2.12-8.861-37.89-.208Z" transform="translate(-559.119 -181.247)" fill="#002538"/>
                <path id="Trazado_715181" data-name="Trazado 715181" d="M618.125,196.459a98.775,98.775,0,0,0-13.34-5.823s-10.643-.841-16.246.4a120.849,120.849,0,0,0-14.5,4.655l-2.011,73.888h44.362Z" transform="translate(-556.784 -144.163)" fill="#008b8a"/>
                <path id="Trazado_715182" data-name="Trazado 715182" d="M604.126,209.794a18.972,18.972,0,0,0,3.924-3.3l-5.456-5.441-4.8,5.193a14.608,14.608,0,0,0,3.548,3.636c-1.574,9.727-8.068,50.2-7.392,51.511.758,1.471,6.064,7.626,6.99,7.765s6.628-5.909,7.582-7.641C609.307,260.088,605.123,219.365,604.126,209.794Z" transform="translate(-563.941 -147.663)" fill="#002538"/>
                <path id="Trazado_715183" data-name="Trazado 715183" d="M593.8,191.174l-1.053.3a6.357,6.357,0,0,0-4.272,8.24c1.335,3.8,2.984,7.879,3.936,7.968,1.788.168,8.288-9.319,8.288-9.319s7.429,9.541,9.2,8.906c.986-.353,2.62-4.762,3.874-8.6a6.352,6.352,0,0,0-3.728-7.891h0Z" transform="translate(-562.047 -144.299)" fill="#fff"/>
                <g id="Grupo_1011110" data-name="Grupo 1011110" transform="translate(14.211)">
                  <path id="Trazado_715184" data-name="Trazado 715184" d="M581.945,128.014s-5.1,3.3-1.76,15.4c1.722,6.233,5.584-15.819,5.584-15.819Z" transform="translate(-573.292 -123.624)" fill="#002538"/>
                  <g id="Grupo_1011100" data-name="Grupo 1011100" transform="translate(0 18.931)">
                    <path id="Trazado_715185" data-name="Trazado 715185" d="M578.726,151.44s-6.754-4.606-8.084,1.776c-1.463,7.018,8.236,5.106,8.236,5.106Z" transform="translate(-570.492 -149.833)" fill="#ffb2a5"/>
                  </g>
                  <g id="Grupo_1011101" data-name="Grupo 1011101" transform="translate(6.578)">
                    <path id="Trazado_715186" data-name="Trazado 715186" d="M607.481,168.166l.854-18.9s7.4,2.7,8.1-3.377c.622-5.413-5.271-5.935-8.155-3.439,0,0,5.451-18.841-10.908-20.649s-16.931,20.633-17.094,26.064c-.287,9.564,6.494,14.282,11.447,14.85l-.49,5.858s-.217,5.995,4.939,6.2A11.9,11.9,0,0,0,607.481,168.166Z" transform="translate(-580.269 -121.693)" fill="#ffb2a5"/>
                  </g>
                  <path id="Trazado_715187" data-name="Trazado 715187" d="M607.543,128.264c-2.228-2.636-5.518-4.139-8.821-5.138a33.574,33.574,0,0,0-4.771-1.086c-6.075,1.141-9.226,6.417-10.877,12.018a20.389,20.389,0,0,0,14.071-4.639,6.072,6.072,0,0,0,2.509,4.339,6.768,6.768,0,0,0,5.205,1.029,6.907,6.907,0,0,0-.272,2.788,2.354,2.354,0,0,0,1.75,1.985,2.816,2.816,0,0,0,2.628-1.679C610.674,134.882,609.771,130.9,607.543,128.264Z" transform="translate(-574.609 -121.807)" fill="#c76470"/>
                  <path id="Trazado_715188" data-name="Trazado 715188" d="M582.164,156.908a2.535,2.535,0,1,0,1.734-3.138A2.535,2.535,0,0,0,582.164,156.908Z" transform="translate(-574.279 -132.158)" fill="#ff9f99"/>
                  <path id="Trazado_715189" data-name="Trazado 715189" d="M625.857,154.621a3.294,3.294,0,0,0-1.938,1.218,2.232,2.232,0,0,0-.258,2.214,2.313,2.313,0,0,0,2.415,1.144,3.77,3.77,0,0,0,2.339-1.525,2.077,2.077,0,0,0,.108-2.844C627.9,154.258,626.595,154.446,625.857,154.621Z" transform="translate(-587.83 -132.411)" fill="#c76470"/>
                  <g id="Grupo_1011102" data-name="Grupo 1011102" transform="translate(11.416 17.442)">
                    <path id="Trazado_715190" data-name="Trazado 715190" d="M590.971,149.166a1.761,1.761,0,1,1-1.963-1.533A1.762,1.762,0,0,1,590.971,149.166Z" transform="translate(-587.461 -147.62)" fill="#002538"/>
                  </g>
                  <g id="Grupo_1011103" data-name="Grupo 1011103" transform="translate(19.498 17.736)">
                    <path id="Trazado_715191" data-name="Trazado 715191" d="M602.984,149.6a1.761,1.761,0,1,1-1.963-1.533A1.762,1.762,0,0,1,602.984,149.6Z" transform="translate(-599.474 -148.057)" fill="#002538"/>
                  </g>
                  <g id="Grupo_1011104" data-name="Grupo 1011104" transform="translate(35.611 21.665)">
                    <path id="Trazado_715192" data-name="Trazado 715192" d="M623.7,157.127h-.029a.275.275,0,0,1-.245-.3,3.271,3.271,0,0,1,4.655-2.618.274.274,0,1,1-.235.5,2.722,2.722,0,0,0-3.874,2.179A.274.274,0,0,1,623.7,157.127Z" transform="translate(-623.424 -153.896)" fill="#4c2049"/>
                  </g>
                  <g id="Grupo_1011105" data-name="Grupo 1011105" transform="translate(36.817 22.422)">
                    <path id="Trazado_715193" data-name="Trazado 715193" d="M626.516,156.966a.274.274,0,0,1-.221-.112l-1.025-1.4a.275.275,0,0,1,.443-.324l1.025,1.4a.274.274,0,0,1-.059.383A.27.27,0,0,1,626.516,156.966Z" transform="translate(-625.217 -155.021)" fill="#4c2049"/>
                  </g>
                  <g id="Grupo_1011106" data-name="Grupo 1011106" transform="translate(20.377 12.097)">
                    <path id="Trazado_715194" data-name="Trazado 715194" d="M606.667,141.129a.27.27,0,0,1-.151-.045,5.406,5.406,0,0,0-5.336-.3.274.274,0,0,1-.249-.489,5.965,5.965,0,0,1,5.887.327.274.274,0,0,1-.151.5Z" transform="translate(-600.781 -139.675)" fill="#002538"/>
                  </g>
                  <g id="Grupo_1011107" data-name="Grupo 1011107" transform="translate(10.141 12.104)">
                    <path id="Trazado_715195" data-name="Trazado 715195" d="M591.142,141.31a.272.272,0,0,1-.194-.081,3.734,3.734,0,0,0-4.926-.146.274.274,0,0,1-.364-.41,4.3,4.3,0,0,1,5.677.168.274.274,0,0,1-.194.468Z" transform="translate(-585.566 -139.686)" fill="#002538"/>
                  </g>
                  <path id="Trazado_715196" data-name="Trazado 715196" d="M606.675,158.412a2.535,2.535,0,1,0,1.734-3.138A2.535,2.535,0,0,0,606.675,158.412Z" transform="translate(-582.3 -132.65)" fill="#ff9f99"/>
                  <g id="Grupo_1011108" data-name="Grupo 1011108" transform="translate(14.588 18.543)">
                    <path id="Trazado_715197" data-name="Trazado 715197" d="M592.63,155.131a.274.274,0,0,1-.246-.155,1.51,1.51,0,0,1-.082-1.366,1.889,1.889,0,0,1,1.134-.864l1.22-3.31a.275.275,0,0,1,.515.19l-1.268,3.442a.277.277,0,0,1-.2.173,1.475,1.475,0,0,0-.91.612,1,1,0,0,0,.083.883.274.274,0,0,1-.126.367A.283.283,0,0,1,592.63,155.131Z" transform="translate(-592.175 -149.257)" fill="#002538"/>
                  </g>
                  <g id="Grupo_1011109" data-name="Grupo 1011109" transform="translate(14.916 26.41)">
                    <path id="Trazado_715198" data-name="Trazado 715198" d="M594.257,163.512a7.877,7.877,0,0,1-1.368-.136.274.274,0,0,1,.1-.54c2.186.39,3.472-.14,4.17-1.722a.275.275,0,0,1,.5.221A3.423,3.423,0,0,1,594.257,163.512Z" transform="translate(-592.662 -160.95)" fill="#002538"/>
                  </g>
                </g>
              </g>
              <path id="Trazado_715199" data-name="Trazado 715199" d="M635.156,199.426l-8.875,12.324a11.7,11.7,0,0,0-2.193,7.388l5.486,116.9a76.605,76.605,0,0,1,21.887,8.372L640.738,231.064l3.165-25.436A62.263,62.263,0,0,0,635.156,199.426Z" transform="translate(-537.363 -134.866)" fill="#fff"/>
              <path id="Trazado_715200" data-name="Trazado 715200" d="M564.7,198.29l6.384,11.547a13.808,13.808,0,0,1,1.711,7.277L567.6,337.082c-9.563,1.179-20.161,7.268-20.161,7.268l6.46-107.021-10.418-1.142s8.456-28.885,10.8-31.421S564.7,198.29,564.7,198.29Z" transform="translate(-510.99 -134.494)" fill="#fff"/>
              <g id="Grupo_1011121" data-name="Grupo 1011121" transform="translate(50.315 83.552)">
                <g id="Grupo_1011112" data-name="Grupo 1011112" transform="translate(5.532 0)">
                  <path id="Trazado_715201" data-name="Trazado 715201" d="M580.26,231.785a2.064,2.064,0,1,1,2.065-2.065A2.067,2.067,0,0,1,580.26,231.785Zm0-3.433a1.369,1.369,0,1,0,1.368,1.368A1.369,1.369,0,0,0,580.26,228.352Z" transform="translate(-578.196 -227.656)" fill="#bccee9"/>
                </g>
                <g id="Grupo_1011113" data-name="Grupo 1011113" transform="translate(2.612 19.079)">
                  <path id="Trazado_715202" data-name="Trazado 715202" d="M575.92,260.146a2.065,2.065,0,1,1,2.065-2.065A2.067,2.067,0,0,1,575.92,260.146Zm0-3.434a1.369,1.369,0,1,0,1.368,1.368A1.37,1.37,0,0,0,575.92,256.712Z" transform="translate(-573.855 -256.016)" fill="#bccee9"/>
                </g>
                <g id="Grupo_1011114" data-name="Grupo 1011114" transform="translate(0 31.741)">
                  <path id="Trazado_715203" data-name="Trazado 715203" d="M572.039,278.966A2.065,2.065,0,1,1,574.1,276.9,2.067,2.067,0,0,1,572.039,278.966Zm0-3.433a1.368,1.368,0,1,0,1.368,1.369A1.37,1.37,0,0,0,572.039,275.533Z" transform="translate(-569.973 -274.837)" fill="#bccee9"/>
                </g>
                <g id="Grupo_1011115" data-name="Grupo 1011115" transform="translate(38.509 1.535)">
                  <path id="Trazado_715204" data-name="Trazado 715204" d="M630.765,233.006a.344.344,0,0,1-.207-.068l-3.2-2.372a.348.348,0,1,1,.414-.559l3.2,2.372a.347.347,0,0,1-.207.627Z" transform="translate(-627.214 -229.938)" fill="#bccee9"/>
                </g>
                <g id="Grupo_1011116" data-name="Grupo 1011116" transform="translate(39.099 1.16)">
                  <path id="Trazado_715205" data-name="Trazado 715205" d="M628.439,233.456a.348.348,0,0,1-.3-.527l2.022-3.381a.348.348,0,0,1,.6.357l-2.023,3.381A.348.348,0,0,1,628.439,233.456Z" transform="translate(-628.09 -229.38)" fill="#bccee9"/>
                </g>
                <g id="Grupo_1011117" data-name="Grupo 1011117" transform="translate(39.52 18.733)">
                  <path id="Trazado_715206" data-name="Trazado 715206" d="M632.268,258.57a.344.344,0,0,1-.207-.069l-3.2-2.372a.348.348,0,0,1,.414-.56l3.2,2.372a.348.348,0,0,1-.206.628Z" transform="translate(-628.717 -255.501)" fill="#bccee9"/>
                </g>
                <g id="Grupo_1011118" data-name="Grupo 1011118" transform="translate(40.11 18.358)">
                  <path id="Trazado_715207" data-name="Trazado 715207" d="M629.942,259.019a.352.352,0,0,1-.179-.049.348.348,0,0,1-.12-.478l2.022-3.38a.348.348,0,1,1,.6.357l-2.023,3.38A.348.348,0,0,1,629.942,259.019Z" transform="translate(-629.593 -254.943)" fill="#bccee9"/>
                </g>
                <g id="Grupo_1011119" data-name="Grupo 1011119" transform="translate(40.532 33.084)">
                  <path id="Trazado_715208" data-name="Trazado 715208" d="M633.772,279.9a.345.345,0,0,1-.207-.069l-3.2-2.371a.348.348,0,0,1,.414-.56l3.2,2.371a.348.348,0,0,1-.207.628Z" transform="translate(-630.221 -276.833)" fill="#bccee9"/>
                </g>
                <g id="Grupo_1011120" data-name="Grupo 1011120" transform="translate(41.122 32.708)">
                  <path id="Trazado_715209" data-name="Trazado 715209" d="M631.445,280.351a.344.344,0,0,1-.178-.049.349.349,0,0,1-.12-.478l2.022-3.38a.348.348,0,1,1,.6.357l-2.022,3.38A.347.347,0,0,1,631.445,280.351Z" transform="translate(-631.097 -276.274)" fill="#bccee9"/>
                </g>
              </g>
              <path id="Trazado_715210" data-name="Trazado 715210" d="M559.317,246.95l1.46-19.994-7.239,20.86Z" transform="translate(-514.28 -143.875)" fill="#f7f5f8"/>
              <path id="Trazado_715211" data-name="Trazado 715211" d="M627.8,307.763l18.312.582-.805-8.511a58.881,58.881,0,0,0-18.109-4.9Z" transform="translate(-538.386 -166.12)" fill="#f7f5f8"/>
              <path id="Trazado_715212" data-name="Trazado 715212" d="M559.449,251.957c7.218,0,8.689,23.831,4.374,40.252s-4.811,47.195-.636,63.136h-39.2s-6.247-26.365-3.57-46.358,10.154-47.376,7.486-53.856Z" transform="translate(-503.222 -152.056)" fill="#e2dce7"/>
              <path id="Trazado_715213" data-name="Trazado 715213" d="M555.137,251.957c-6.207.506-11.052,14.106-11.1,19.326-.055,6.448,5.086,31.759-2.947,31.759H506.845s6.348-2.526,3.341-14-4.972-18.015-2.472-27.686,7.464-8.78,20.621-8.956S555.137,251.957,555.137,251.957Z" transform="translate(-498.911 -152.056)" fill="#f7f5f8"/>
              <path id="Trazado_715214" data-name="Trazado 715214" d="M537.367,323.344c-5.227,1.6-5.369-9.349-5.369-9.349l-36.607,2.587s-1.859,7.918,5.577,9,22.576.193,27.49-.546C533.934,324.211,537.367,323.344,537.367,323.344Z" transform="translate(-495.184 -172.358)" fill="#fff"/>
              <path id="Trazado_715215" data-name="Trazado 715215" d="M593.593,123.121a16.186,16.186,0,0,1-14.122,2.993c-4.018-1.076-7.765-4.121-8.493-8.216a9.739,9.739,0,0,1,2.591-8.146,13.355,13.355,0,0,1,7.768-3.906,11.192,11.192,0,0,1,8.878-2.207,10.744,10.744,0,0,1,7.271,5.227,5.135,5.135,0,0,1,4.857,1.736,10.891,10.891,0,0,1,9.392,4.9,11.079,11.079,0,0,1,.383,10.686,5.414,5.414,0,0,1,3.9,3.6c.915,3.021-4.2,6.013-4.2,6.013s-2.829-1.565-6.627.672-6.352,2.991-4.83-.656c0,0-2.018-4.991,1.179-7.663a7.244,7.244,0,0,1-5.41-1.148A5.883,5.883,0,0,1,593.593,123.121Z" transform="translate(-519.945 -103.462)" fill="#002538"/>
              <path id="Trazado_715216" data-name="Trazado 715216" d="M601.766,116.012c2.964-2.537,2.2-8.321-1.557-10.22-3.062-1.545-5.942.1-7.225,2.635A20.243,20.243,0,0,1,601.766,116.012Z" transform="translate(-527.188 -104.029)" fill="#0d3049"/>
              <path id="Trazado_715217" data-name="Trazado 715217" d="M624.8,123.307a3.992,3.992,0,0,0-2.8-4.775c-.094-.029-.19-.055-.288-.075a5,5,0,0,0-4.672,1.707A17.36,17.36,0,0,1,624.8,123.307Z" transform="translate(-535.06 -108.341)" fill="#0d3049"/>
              <path id="Trazado_715218" data-name="Trazado 715218" d="M597.21,181.041l-.178,2.133c8.644.754,10.965-5.465,10.965-5.465C606.835,179.286,602.873,181.775,597.21,181.041Z" transform="translate(-528.513 -127.759)" fill="#c76470"/>
              <path id="Trazado_715219" data-name="Trazado 715219" d="M592.295,270.449l-5.009-2.868a21.725,21.725,0,0,0-4.767-3.134l.4,3.13s-6.565-.845-7.639-.993c-2.073-.287-2.495,2.053-2.427,2.507a3.572,3.572,0,0,0,1.076,1.555s-1.127,1.566-.777,2.129a5.181,5.181,0,0,0,1.353,1.179s-1.123,1.924-.659,2.878a3.106,3.106,0,0,0,1.165,1.109,4.1,4.1,0,0,0,1.448,1.835c.955.557,14.984-.2,14.984-.2Z" transform="translate(-520.6 -156.144)" fill="#ffb2a5"/>
              <path id="Trazado_715220" data-name="Trazado 715220" d="M634.634,208.646c4.725,5.483,20.79,48.8,13.471,61.86s-52.353-6.479-52.353-6.479l3.658-17.566,30.709,7.358-.577-24.894Z" transform="translate(-528.094 -137.883)" fill="#fff"/>
              <path id="Trazado_715221" data-name="Trazado 715221" d="M645.47,238.788l2.932,24.358-3.974-1.179Z" transform="translate(-544.023 -147.747)" fill="#f7f5f8"/>
            </g>
            <g id="Grupo_1011144" data-name="Grupo 1011144" transform="translate(0 7.049)">
              <path id="Trazado_715222" data-name="Trazado 715222" d="M101.345,398.151s35.561,22.959,88.146,5.087l-26.469-77-26.579,1.735Z" transform="translate(-62.339 -183.413)" fill="#002538"/>
              <path id="Trazado_715223" data-name="Trazado 715223" d="M193.614,579.452s21.667,8.977,22.441,11.763-36.783.155-38.151-.464,1.317-10.988,1.317-10.988Z" transform="translate(-87.265 -266.276)" fill="#002538"/>
              <path id="Trazado_715224" data-name="Trazado 715224" d="M65.819,579.452s-21.667,8.977-22.441,11.763,34.717.155,36.085-.464.749-10.988.749-10.988Z" transform="translate(-43.365 -266.276)" fill="#002538"/>
              <path id="Trazado_715225" data-name="Trazado 715225" d="M163.746,292.564c8.342,65.124-2.168,193.332-2.168,193.332l-21.509,1.4,2.626-164.5L91.989,486.633H69.237L115.1,320.44s-1.3-18.726,9.018-27.876Z" transform="translate(-51.832 -172.394)" fill="#00426f"/>
              <path id="Trazado_715226" data-name="Trazado 715226" d="M181.181,268.79c1.686-10.513,3.552-21,5.338-31.5,2.365-13.9,3.6-28.135,6.437-41.977-5.057-3.366-21.705-11.427-21.705-11.427l-11.828,1.364s-10.745,4.63-17.607,8.11c-.741,6.773-.234,13.625-.616,20.44-.5,8.938-1.037,17.862-1.4,26.808-.379,9.352-.827,18.7-1.272,28.049C152.744,268.277,166.967,268.346,181.181,268.79Z" transform="translate(-74.506 -136.831)" fill="#008b8a"/>
              <rect id="Rectángulo_347173" data-name="Rectángulo 347173" width="39.662" height="4.142" transform="matrix(0.995, 0.097, -0.097, 0.995, 70.642, 128.209)" fill="#002538"/>
              <path id="Trazado_715227" data-name="Trazado 715227" d="M183.645,202.822a16.523,16.523,0,0,0,2.591-2.507l-4.525-4.929-3.635,5.124s1.826,2.41,3.368,2.931c-.786,9.519-4.3,52.563-3.661,53.909.708,1.491,5.457,7.645,6.24,7.752s5.258-6.379,5.97-8.21C190.6,255.342,184.747,211.094,183.645,202.822Z" transform="translate(-87.328 -140.593)" fill="#002538"/>
              <path id="Trazado_715228" data-name="Trazado 715228" d="M168.592,185.062s-2.18,2.39-2.04,4.494,5.743,11.065,7.834,10.761,3.682-8.364,3.682-8.364,3.724,6.8,5.78,6.236.691-10.81-.33-12.309-4.429-2.579-4.429-2.579Z" transform="translate(-83.675 -136.638)" fill="#fff"/>
              <path id="Trazado_715229" data-name="Trazado 715229" d="M175.013,154.94a40.39,40.39,0,0,0,12.834,4.514c-2.779-2.552-3.383-6.749-2.784-10.475s2.186-7.215,3.124-10.87,1.153-7.768-.827-10.981a16.6,16.6,0,0,0-5.559-4.956,94.022,94.022,0,0,0-10.215-5.6c-3.369-1.583-7.02-2.994-10.716-2.556s-7.349,3.32-7.418,7.042c-3.275-.783-7.375,1.874-8.806,4.923-1.333,2.842-.742,6.171-.124,9.248q1.441,7.181,2.883,14.361a9.166,9.166,0,0,1,.108,4.734c-.517,1.512-2.184,2.756-3.69,2.22a11.818,11.818,0,0,0,12.665.427,3.722,3.722,0,0,1-2.328,2.33,7.471,7.471,0,0,0,5.615-1.25,53.443,53.443,0,0,1,4.992-3.158A11.1,11.1,0,0,1,175.013,154.94Z" transform="translate(-76.24 -113.941)" fill="#002538"/>
              <g id="Grupo_1011123" data-name="Grupo 1011123" transform="translate(73.832 7.178)">
                <path id="Trazado_715230" data-name="Trazado 715230" d="M164.347,166.525l-3.831-16.884s-6.571,2.6-7.344-2.83c-.689-4.838,4.581-5.449,7.227-3.282,0,0-5.345-16.76,9.278-18.777s15.681,18.087,15.959,22.952c.49,8.568-5.475,12.963-9.9,13.592l.582,5.24s.562,4.585-3.753,4.955C166.814,171.984,164.347,166.525,164.347,166.525Z" transform="translate(-153.111 -124.61)" fill="#ffb2a5"/>
              </g>
              <path id="Trazado_715231" data-name="Trazado 715231" d="M173.073,130.673s7.048,10.159,15.734,11.433c-1.033-7.478-4.211-18.442-14.835-17.4l-9.61,7.655,1.8,5.48A14.85,14.85,0,0,0,173.073,130.673Z" transform="translate(-82.96 -117.44)" fill="#c76470"/>
              <path id="Trazado_715232" data-name="Trazado 715232" d="M177.268,157.43a2.274,2.274,0,1,1-1.631-2.771A2.274,2.274,0,0,1,177.268,157.43Z" transform="translate(-85.72 -127.242)" fill="#ff9f99"/>
              <g id="Grupo_1011124" data-name="Grupo 1011124" transform="translate(92.25 23.434)">
                <path id="Trazado_715233" data-name="Trazado 715233" d="M180.5,150.2a1.58,1.58,0,1,0,1.723-1.422A1.579,1.579,0,0,0,180.5,150.2Z" transform="translate(-180.488 -148.774)" fill="#002538"/>
              </g>
              <g id="Grupo_1011125" data-name="Grupo 1011125" transform="translate(99.525 22.893)">
                <path id="Trazado_715234" data-name="Trazado 715234" d="M191.309,149.4a1.579,1.579,0,1,0,1.723-1.422A1.579,1.579,0,0,0,191.309,149.4Z" transform="translate(-191.302 -147.969)" fill="#002538"/>
              </g>
              <g id="Grupo_1011126" data-name="Grupo 1011126" transform="translate(93.344 30.805)">
                <path id="Trazado_715235" data-name="Trazado 715235" d="M185.978,161.7h0a5.744,5.744,0,0,1-3.771-1.492.274.274,0,0,1,.37-.4,5.192,5.192,0,0,0,3.408,1.348.274.274,0,0,1,0,.548Z" transform="translate(-182.114 -159.73)" fill="#002538"/>
              </g>
              <g id="Grupo_1011127" data-name="Grupo 1011127" transform="translate(75.897 26.99)">
                <path id="Trazado_715236" data-name="Trazado 715236" d="M160.336,156.94a.274.274,0,0,1-.272-.239,2.414,2.414,0,0,0-3.486-1.838.274.274,0,1,1-.248-.489,2.962,2.962,0,0,1,4.277,2.256.274.274,0,0,1-.236.307Z" transform="translate(-156.18 -154.059)" fill="#002538"/>
              </g>
              <g id="Grupo_1011128" data-name="Grupo 1011128" transform="translate(77.765 27.626)">
                <path id="Trazado_715237" data-name="Trazado 715237" d="M159.231,156.831a.275.275,0,0,1-.225-.431l.885-1.278a.274.274,0,0,1,.451.311l-.885,1.278A.275.275,0,0,1,159.231,156.831Z" transform="translate(-158.957 -155.004)" fill="#002538"/>
              </g>
              <g id="Grupo_1011129" data-name="Grupo 1011129" transform="translate(87.648 17.758)">
                <path id="Trazado_715238" data-name="Trazado 715238" d="M173.922,141.76a.275.275,0,0,1-.157-.5,5.294,5.294,0,0,1,5.218-.431.274.274,0,1,1-.235.5,4.735,4.735,0,0,0-4.67.386A.27.27,0,0,1,173.922,141.76Z" transform="translate(-173.647 -140.336)" fill="#002538"/>
              </g>
              <g id="Grupo_1011130" data-name="Grupo 1011130" transform="translate(96.564 18.203)">
                <path id="Trazado_715239" data-name="Trazado 715239" d="M187.175,142.563a.275.275,0,0,1-.2-.463,3.832,3.832,0,0,1,5.05-.287.275.275,0,0,1-.354.42,3.261,3.261,0,0,0-4.3.244A.275.275,0,0,1,187.175,142.563Z" transform="translate(-186.901 -140.998)" fill="#002538"/>
              </g>
              <path id="Trazado_715240" data-name="Trazado 715240" d="M182.508,178.263c-2.9.617-8.7-1.8-8.7-1.8a15.407,15.407,0,0,0,8.987,4.4Z" transform="translate(-86.052 -134.4)" fill="#c76470"/>
              <path id="Trazado_715241" data-name="Trazado 715241" d="M197.5,157.492a2.273,2.273,0,1,1-1.631-2.77A2.273,2.273,0,0,1,197.5,157.492Z" transform="translate(-92.34 -127.262)" fill="#ff9f99"/>
              <path id="Trazado_715242" data-name="Trazado 715242" d="M161.485,142.582c.949.963,1.975,8.141,2.657,7.458s-.581-13.158-.581-13.158,5.885-4.45,6.395-9.146c.209-.225,6.439,11.047,16.795,10.737,0,0-2.955-19.363-17.652-16.458s-12.564,15.893-12.564,15.893Z" transform="translate(-80.364 -116.485)" fill="#002538"/>
              <g id="Grupo_1011131" data-name="Grupo 1011131" transform="translate(96.469 24.374)">
                <path id="Trazado_715243" data-name="Trazado 715243" d="M188.347,154.688a5.364,5.364,0,0,1-.871-.083.274.274,0,1,1,.092-.541,2.841,2.841,0,0,0,1.259.009c.246-.453-.84-2.147-2-3.446a.274.274,0,0,1,.41-.365c.445.5,2.634,3.043,2.051,4.1C189.15,154.613,188.761,154.688,188.347,154.688Z" transform="translate(-186.76 -150.171)" fill="#002538"/>
              </g>
              <path id="Trazado_715244" data-name="Trazado 715244" d="M156.246,129.606a6.876,6.876,0,0,0-10.079,2.35C150.486,133.168,153.775,133.35,156.246,129.606Z" transform="translate(-77.007 -118.646)" fill="#0d3049"/>
              <path id="Trazado_715245" data-name="Trazado 715245" d="M184.911,124.2a26.721,26.721,0,0,0-13.115-6.837,13.045,13.045,0,0,0-6.094.024,7.28,7.28,0,0,0-4.71,3.926C169,120.228,177.7,120.3,184.911,124.2Z" transform="translate(-81.858 -114.948)" fill="#0d3049"/>
              <path id="Trazado_715246" data-name="Trazado 715246" d="M137.272,192.543l8.173,11.207a6.7,6.7,0,0,1,1.22,4.872L126.807,350.57s-15.927,1-25.462,3.831l22.487-108.267s3.127-48.609,5.816-49.939S137.272,192.543,137.272,192.543Z" transform="translate(-62.339 -139.663)" fill="#fff"/>
              <path id="Trazado_715247" data-name="Trazado 715247" d="M140.244,284.666l-18.508,1.7-20.391,98.179c1.213-.359,2.53-.69,3.9-.992l14.493-83.4L139.26,291.7Z" transform="translate(-62.339 -169.81)" fill="#f7f5f8"/>
              <path id="Trazado_715248" data-name="Trazado 715248" d="M131.922,197.973c-4.683,2.487-25.672,46.157-23.466,58.822s51.826,1.032,51.826,1.032l-.655-16.662-31.7,3.773Z" transform="translate(-64.613 -141.44)" fill="#fff"/>
              <path id="Trazado_715249" data-name="Trazado 715249" d="M257.007,218.38s1.111-4.665,1.223-6.213-.372-8.331,1.079-9.537,2.226,5.926,2.226,5.926,16.619-6.881,18.229-6.764-6.616,4.583-6.616,4.583,6.774-2.09,7.451-1.342-7.451,3.523-7.451,3.523,6.4-.373,7.168.409-7.265,1.685-7.265,1.685,4.645.549,5.032,1.42-11.322,2.649-11.322,2.649l-1.958,6.293Z" transform="translate(-113.278 -142.689)" fill="#ffb2a5"/>
              <path id="Trazado_715250" data-name="Trazado 715250" d="M205.921,195.018l-5.91,10.5a6.165,6.165,0,0,0-.792,3.123l2.264,142.429c9.21,2.577,20.037,9.228,20.037,9.228l-5.443-102.165s6.62,13.083,14.5,10.3,18.98-50.086,18.98-50.086l-13.8-3.416L225.542,237.03S214.323,200.75,213.57,199.6,205.921,195.018,205.921,195.018Z" transform="translate(-94.367 -140.473)" fill="#fff"/>
              <g id="Grupo_1011141" data-name="Grupo 1011141" transform="translate(74.242 69.304)">
                <g id="Grupo_1011132" data-name="Grupo 1011132" transform="translate(4.259 1.171)">
                  <path id="Trazado_715251" data-name="Trazado 715251" d="M162.04,222.675a1.99,1.99,0,1,1,1.99-1.99A1.992,1.992,0,0,1,162.04,222.675Zm0-3.309a1.319,1.319,0,1,0,1.319,1.319A1.32,1.32,0,0,0,162.04,219.367Z" transform="translate(-160.051 -218.696)" fill="#bccee9"/>
                </g>
                <g id="Grupo_1011133" data-name="Grupo 1011133" transform="translate(2.129 13.818)">
                  <path id="Trazado_715252" data-name="Trazado 715252" d="M158.875,241.473a1.99,1.99,0,1,1,1.989-1.989A1.992,1.992,0,0,1,158.875,241.473Zm0-3.309a1.319,1.319,0,1,0,1.319,1.319A1.321,1.321,0,0,0,158.875,238.165Z" transform="translate(-156.885 -237.494)" fill="#bccee9"/>
                </g>
                <g id="Grupo_1011134" data-name="Grupo 1011134" transform="translate(0 26.465)">
                  <path id="Trazado_715253" data-name="Trazado 715253" d="M155.709,260.271a1.989,1.989,0,1,1,1.99-1.989A1.991,1.991,0,0,1,155.709,260.271Zm0-3.308a1.319,1.319,0,1,0,1.319,1.319A1.32,1.32,0,0,0,155.709,256.963Z" transform="translate(-153.72 -256.293)" fill="#bccee9"/>
                </g>
                <g id="Grupo_1011135" data-name="Grupo 1011135" transform="translate(31.809 0.362)">
                  <path id="Trazado_715254" data-name="Trazado 715254" d="M204.423,220.451a.33.33,0,0,1-.2-.067l-3.087-2.285a.335.335,0,0,1,.4-.539l3.087,2.286a.336.336,0,0,1-.2.6Z" transform="translate(-201.001 -217.494)" fill="#bccee9"/>
                </g>
                <g id="Grupo_1011136" data-name="Grupo 1011136" transform="translate(32.377)">
                  <path id="Trazado_715255" data-name="Trazado 715255" d="M202.181,220.884a.336.336,0,0,1-.287-.508l1.95-3.258a.335.335,0,0,1,.575.344l-1.949,3.258A.337.337,0,0,1,202.181,220.884Z" transform="translate(-201.846 -216.955)" fill="#bccee9"/>
                </g>
                <g id="Grupo_1011137" data-name="Grupo 1011137" transform="translate(32.783 12.551)">
                  <path id="Trazado_715256" data-name="Trazado 715256" d="M205.872,238.568a.333.333,0,0,1-.2-.066l-3.087-2.285a.335.335,0,0,1,.4-.539l3.087,2.285a.335.335,0,0,1-.2.6Z" transform="translate(-202.45 -235.612)" fill="#bccee9"/>
                </g>
                <g id="Grupo_1011138" data-name="Grupo 1011138" transform="translate(33.352 12.188)">
                  <path id="Trazado_715257" data-name="Trazado 715257" d="M203.63,239a.331.331,0,0,1-.172-.047.335.335,0,0,1-.116-.46l1.949-3.258a.336.336,0,1,1,.576.344l-1.95,3.258A.335.335,0,0,1,203.63,239Z" transform="translate(-203.295 -235.072)" fill="#bccee9"/>
                </g>
                <g id="Grupo_1011139" data-name="Grupo 1011139" transform="translate(33.758 24.74)">
                  <path id="Trazado_715258" data-name="Trazado 715258" d="M207.321,256.685a.333.333,0,0,1-.2-.065l-3.087-2.286a.335.335,0,0,1,.4-.539l3.087,2.286a.335.335,0,0,1-.2.6Z" transform="translate(-203.899 -253.729)" fill="#bccee9"/>
                </g>
                <g id="Grupo_1011140" data-name="Grupo 1011140" transform="translate(34.327 24.377)">
                  <path id="Trazado_715259" data-name="Trazado 715259" d="M205.079,257.12a.336.336,0,0,1-.287-.508l1.949-3.258a.335.335,0,1,1,.575.344l-1.949,3.257A.335.335,0,0,1,205.079,257.12Z" transform="translate(-204.744 -253.19)" fill="#bccee9"/>
                </g>
              </g>
              <path id="Trazado_715260" data-name="Trazado 715260" d="M201.107,334l17.243-3.5-.631-11.847-.806-1.809-16.1-1.077Z" transform="translate(-94.89 -179.986)" fill="#f7f5f8"/>
              <path id="Trazado_715261" data-name="Trazado 715261" d="M235.07,274.422c-5.736-4.425-14.084-38.477-14.084-38.477l2.214,35.582s6.62,13.083,14.5,10.3c1.609-.567,3.353-2.992,5.109-6.491C240.014,276.011,237.154,276.029,235.07,274.422Z" transform="translate(-101.491 -153.866)" fill="#f7f5f8"/>
              <path id="Trazado_715262" data-name="Trazado 715262" d="M196.079,245.514l-14.03,48.324,30.659,6.454,13.986-47.823Z" transform="translate(-88.749 -156.997)" fill="#3076b6"/>
              <path id="Trazado_715263" data-name="Trazado 715263" d="M184.83,266.253l4.968-1.7a13.852,13.852,0,0,1,3.9-2.172l-.832,2.865s9.436.432,10.518.357.795,1.812.7,2.262c-.144.706-2.489,1.144-2.489,1.144a9.766,9.766,0,0,1-.8,1.939c-.379.543-2.148.416-2.148.416s-.278,1.929-.955,2.195a21.189,21.189,0,0,1-2.067.6,4.1,4.1,0,0,1-1.544,1.755c-.984.505-8.886-.5-8.886-.5Z" transform="translate(-89.659 -162.517)" fill="#ffb2a5"/>
              <path id="Trazado_715264" data-name="Trazado 715264" d="M137.473,257.364l7.546-21.419-3.442,20.306,8.755-.418Z" transform="translate(-74.162 -153.866)" fill="#f7f5f8"/>
              <g id="Grupo_1011142" data-name="Grupo 1011142" transform="translate(55.979 163.528)">
                <path id="Trazado_715265" data-name="Trazado 715265" d="M129.985,379.729a2.179,2.179,0,0,1-1.611-.71c-3.51-3.627-.824-20.987-.708-21.724a.327.327,0,0,1,.343-.283l10.854.37a.335.335,0,0,1,.321.379c-.114.865-2.861,21.2-8.888,21.949A2.461,2.461,0,0,1,129.985,379.729Zm-1.7-22.036c-.342,2.325-2.473,17.714.571,20.86a1.517,1.517,0,0,0,1.358.49c5.107-.631,7.852-18.226,8.253-21Z" transform="translate(-126.574 -357.012)" fill="#bccee9"/>
              </g>
              <g id="Grupo_1011143" data-name="Grupo 1011143" transform="translate(110.304 163.898)">
                <path id="Trazado_715266" data-name="Trazado 715266" d="M213.056,380.311a1.714,1.714,0,0,1-1.071-.4c-3.577-2.814-4.619-21.211-4.662-21.993a.335.335,0,0,1,.1-.254.361.361,0,0,1,.254-.1l10.268.473a.336.336,0,0,1,.32.339c-.028,2.155-.4,21.073-4.917,21.91A1.573,1.573,0,0,1,213.056,380.311Zm-5.04-22.062c.168,2.657,1.307,18.711,4.384,21.133a.994.994,0,0,0,.823.244c3.308-.612,4.261-15.013,4.363-20.935Z" transform="translate(-207.323 -357.562)" fill="#bccee9"/>
              </g>
            </g>
            <g id="Grupo_1011167" data-name="Grupo 1011167" transform="translate(182.289 6.703)">
              <path id="Trazado_715267" data-name="Trazado 715267" d="M374.411,394.186s39.732,17.4,80.472,2.705L441.1,325.962l-52.848,2.228Z" transform="translate(-333.986 -182.977)" fill="#002538"/>
              <path id="Trazado_715268" data-name="Trazado 715268" d="M394.617,311.38,389.4,492.441l19.96,2.083,11.162-169.518,21.961,168.439L460.93,492.4,442.484,312.529Z" transform="translate(-338.892 -178.205)" fill="#00426f"/>
              <path id="Trazado_715269" data-name="Trazado 715269" d="M405.759,311.125l38.844,1.624-2.12-8.861-37.89-.208Z" transform="translate(-343.863 -175.685)" fill="#002538"/>
              <path id="Trazado_715270" data-name="Trazado 715270" d="M442.5,196.8c-5.652-3.163-12.283-6.166-12.283-6.166s-10.643-.841-16.247.4a130.383,130.383,0,0,0-13.43,4l-3.077,74.543h44.362Z" transform="translate(-341.529 -138.602)" fill="#008b8a"/>
              <path id="Trazado_715271" data-name="Trazado 715271" d="M431.2,209.525a20.545,20.545,0,0,0,3.471-3.033l-5.456-5.441-4.8,5.193a15.1,15.1,0,0,0,3.405,3.545c-.99,9.548-4.7,45.492-4.84,49.946-.163,5.142,4.962,10.168,6.068,10.461s7.055-7.936,7.1-10.944C436.2,256.582,432.118,218.114,431.2,209.525Z" transform="translate(-349.88 -142.101)" fill="#002538"/>
              <path id="Trazado_715272" data-name="Trazado 715272" d="M419.23,191.174l-1.053.3a6.358,6.358,0,0,0-4.272,8.24c1.335,3.8,2.984,7.879,3.936,7.968,1.787.168,8.288-9.319,8.288-9.319s7.429,9.541,9.2,8.906c.987-.353,2.62-4.762,3.874-8.6a6.352,6.352,0,0,0-3.728-7.891h0Z" transform="translate(-346.791 -138.737)" fill="#fff"/>
              <g id="Grupo_1011154" data-name="Grupo 1011154" transform="translate(54.236 5.562)">
                <path id="Trazado_715273" data-name="Trazado 715273" d="M404.379,143.683a3.542,3.542,0,0,1-6.453-2.772,2.5,2.5,0,0,1-2.055-.793,3.378,3.378,0,0,1-.894-1.944,4.483,4.483,0,0,1,4.875-5.058c1.065-1.362,2.287-2.055,3.952-1.59a4.506,4.506,0,0,1,3.183,3.714,8.814,8.814,0,0,1-.165,2.443q-.161,1-.324,1.993a5.279,5.279,0,0,1-.382,1.459C405.6,142.211,405.553,143.456,404.379,143.683Z" transform="translate(-394.94 -124.864)" fill="#fff"/>
                <g id="Grupo_1011145" data-name="Grupo 1011145" transform="translate(0.66 18.931)">
                  <path id="Trazado_715274" data-name="Trazado 715274" d="M404.155,151.44s-6.754-4.606-8.085,1.776c-1.463,7.018,8.236,5.106,8.236,5.106Z" transform="translate(-395.921 -149.833)" fill="#ffb2a5"/>
                </g>
                <g id="Grupo_1011146" data-name="Grupo 1011146" transform="translate(7.238)">
                  <path id="Trazado_715275" data-name="Trazado 715275" d="M432.91,168.166l.853-18.9s7.4,2.7,8.1-3.377c.622-5.413-5.271-5.935-8.155-3.439,0,0,5.451-18.841-10.907-20.649s-16.931,20.633-17.095,26.064c-.287,9.564,6.493,14.282,11.448,14.85l-.491,5.858s-.217,5.995,4.939,6.2A11.9,11.9,0,0,0,432.91,168.166Z" transform="translate(-405.698 -121.693)" fill="#ffb2a5"/>
                </g>
                <path id="Trazado_715276" data-name="Trazado 715276" d="M407.593,156.908a2.535,2.535,0,1,0,1.734-3.138A2.535,2.535,0,0,0,407.593,156.908Z" transform="translate(-399.048 -132.158)" fill="#ff9f99"/>
                <path id="Trazado_715277" data-name="Trazado 715277" d="M451.287,154.621a3.292,3.292,0,0,0-1.938,1.218,2.232,2.232,0,0,0-.259,2.214,2.314,2.314,0,0,0,2.416,1.144,3.771,3.771,0,0,0,2.338-1.525,2.078,2.078,0,0,0,.107-2.844C453.33,154.258,452.024,154.446,451.287,154.621Z" transform="translate(-412.599 -132.411)" fill="#c76470"/>
                <g id="Grupo_1011147" data-name="Grupo 1011147" transform="translate(12.077 17.442)">
                  <path id="Trazado_715278" data-name="Trazado 715278" d="M416.4,149.166a1.761,1.761,0,1,1-1.963-1.533A1.761,1.761,0,0,1,416.4,149.166Z" transform="translate(-412.891 -147.62)" fill="#002538"/>
                </g>
                <g id="Grupo_1011148" data-name="Grupo 1011148" transform="translate(20.159 17.736)">
                  <path id="Trazado_715279" data-name="Trazado 715279" d="M428.413,149.6a1.761,1.761,0,1,1-1.963-1.533A1.761,1.761,0,0,1,428.413,149.6Z" transform="translate(-424.904 -148.057)" fill="#002538"/>
                </g>
                <g id="Grupo_1011149" data-name="Grupo 1011149" transform="translate(36.271 21.664)">
                  <path id="Trazado_715280" data-name="Trazado 715280" d="M449.128,157.126H449.1a.275.275,0,0,1-.244-.3,3.271,3.271,0,0,1,4.655-2.618.274.274,0,0,1-.235.5,2.722,2.722,0,0,0-3.874,2.179A.275.275,0,0,1,449.128,157.126Z" transform="translate(-448.854 -153.895)" fill="#4c2049"/>
                </g>
                <g id="Grupo_1011150" data-name="Grupo 1011150" transform="translate(37.477 22.422)">
                  <path id="Trazado_715281" data-name="Trazado 715281" d="M451.946,156.966a.274.274,0,0,1-.221-.112l-1.025-1.4a.274.274,0,1,1,.443-.324l1.025,1.4a.274.274,0,0,1-.059.383A.27.27,0,0,1,451.946,156.966Z" transform="translate(-450.646 -155.021)" fill="#4c2049"/>
                </g>
                <g id="Grupo_1011151" data-name="Grupo 1011151" transform="translate(21.038 12.097)">
                  <path id="Trazado_715282" data-name="Trazado 715282" d="M432.1,141.129a.267.267,0,0,1-.151-.045,5.405,5.405,0,0,0-5.336-.3.274.274,0,1,1-.248-.489,5.961,5.961,0,0,1,5.885.327.274.274,0,0,1-.15.5Z" transform="translate(-426.211 -139.674)" fill="#002538"/>
                </g>
                <g id="Grupo_1011152" data-name="Grupo 1011152" transform="translate(10.801 12.104)">
                  <path id="Trazado_715283" data-name="Trazado 715283" d="M416.572,141.31a.271.271,0,0,1-.194-.081,3.734,3.734,0,0,0-4.927-.146.274.274,0,1,1-.364-.41,4.3,4.3,0,0,1,5.678.168.274.274,0,0,1-.194.468Z" transform="translate(-410.995 -139.686)" fill="#002538"/>
                </g>
                <path id="Trazado_715284" data-name="Trazado 715284" d="M432.105,158.412a2.535,2.535,0,1,0,1.734-3.138A2.534,2.534,0,0,0,432.105,158.412Z" transform="translate(-407.069 -132.65)" fill="#ff9f99"/>
                <g id="Grupo_1011153" data-name="Grupo 1011153" transform="translate(13.426 18.543)">
                  <path id="Trazado_715285" data-name="Trazado 715285" d="M416.6,155.633a.277.277,0,0,1-.134-.035c-1.095-.612-1.622-1.287-1.567-2.006.1-1.349,2.232-2.252,2.694-2.431l1.659-1.814a.274.274,0,1,1,.4.369l-1.7,1.862a.273.273,0,0,1-.106.072c-.645.241-2.332,1.068-2.4,1.984-.036.487.4.986,1.288,1.485a.274.274,0,0,1-.134.514Z" transform="translate(-414.897 -149.257)" fill="#002538"/>
                </g>
              </g>
              <path id="Trazado_715286" data-name="Trazado 715286" d="M342.267,208.184l6.073,6.073c2.118,2.117,1.773.885,3.282,2.394l.493-.493c-1.509-1.509-.276-1.165-2.394-3.282l-6.073-6.073Z" transform="translate(-323.467 -143.983)" fill="#faffff"/>
              <g id="Grupo_1011155" data-name="Grupo 1011155" transform="translate(14.781 58.801)">
                <path id="Trazado_715287" data-name="Trazado 715287" d="M343.329,205.858a.4.4,0,0,0-.569,0l-1.438,1.438a.4.4,0,1,0,.569.568l1.438-1.437A.4.4,0,0,0,343.329,205.858Z" transform="translate(-337.901 -202.436)" fill="#66d3c4"/>
                <path id="Trazado_715288" data-name="Trazado 715288" d="M339.333,201.294a1.838,1.838,0,0,0-2.575,2.574c.772.8,1.794.656,2.315,1.178l.642.642,1.438-1.438-.642-.642C339.989,203.086,340.134,202.064,339.333,201.294Z" transform="translate(-336.294 -200.829)" fill="#66d3c4"/>
              </g>
              <path id="Trazado_715289" data-name="Trazado 715289" d="M330.165,211.228l-2.709-7.871s2.84.666,4.149-.791a3.509,3.509,0,0,0-.822-4.886c-1.308-.61-2.179,1.407-1.615,2.5s-2.123,1.469-2.571-1.346.486-6.057,3.159-6.193,1.514,1.751,2.6,2.556a1.755,1.755,0,0,0,2.872-1.271,4.069,4.069,0,0,0-4.074-4.47c-2.916.022-4.3.913-5.681,2.8a14.527,14.527,0,0,1,3.178-5.473c2.13-2.018,3.192-3.4,2.623-4.448s-4.418,1.682-5.8,3.85a38.652,38.652,0,0,0-2.411,4.485s1.813-4.747,2.748-6.541.64-3.157-.361-2.875c-1.026.29-4.311,6.142-4.834,8.2,0,0,2.013-7.365.747-7.256-1.162.1-4.149,5.309-5.009,12.848-.665,5.827,6.579,19.773,6.579,19.773Z" transform="translate(-314.974 -135.613)" fill="#ffb2a5"/>
              <path id="Trazado_715290" data-name="Trazado 715290" d="M373.331,197.315l7.176,13.169a14.967,14.967,0,0,1,1.823,7.415L380.2,344.88c-13.475.262-25.456,7.207-25.456,7.207l6.617-108.38s-11,20.851-19.435,22.286-24.276-30.618-27.606-47.626l16.045-6.339,12.505,27.08s17.659-31.456,20.621-35.219S373.331,197.315,373.331,197.315Z" transform="translate(-314.323 -140.878)" fill="#fff"/>
              <path id="Trazado_715291" data-name="Trazado 715291" d="M373.331,197.315l7.176,13.169a14.967,14.967,0,0,1,1.823,7.415L380.2,344.88c-13.475.262-25.456,7.207-25.456,7.207l6.617-108.38s-11,20.851-19.435,22.286-24.276-30.618-27.606-47.626l16.045-6.339,12.505,27.08s17.659-31.456,20.621-35.219S373.331,197.315,373.331,197.315Z" transform="translate(-314.323 -140.878)" fill="#fff"/>
              <g id="Grupo_1011159" data-name="Grupo 1011159" transform="translate(60.966 80.203)">
                <g id="Grupo_1011156" data-name="Grupo 1011156" transform="translate(1.685)">
                  <path id="Trazado_715292" data-name="Trazado 715292" d="M409.435,236.621a1.989,1.989,0,1,1,.205-.01C409.571,236.618,409.5,236.621,409.435,236.621Zm.007-3.309a1.294,1.294,0,0,0-.135.007,1.318,1.318,0,1,0,.135-.007Z" transform="translate(-407.449 -232.642)" fill="#bccee9"/>
                </g>
                <g id="Grupo_1011157" data-name="Grupo 1011157" transform="translate(0.843 12.796)">
                  <path id="Trazado_715293" data-name="Trazado 715293" d="M408.186,255.642a1.973,1.973,0,1,1,.2-.009C408.319,255.64,408.252,255.642,408.186,255.642Zm0-3.309a1.289,1.289,0,0,0-.136.007,1.319,1.319,0,1,0,1.444,1.179h0a1.32,1.32,0,0,0-1.309-1.186Z" transform="translate(-406.197 -251.663)" fill="#bccee9"/>
                </g>
                <g id="Grupo_1011158" data-name="Grupo 1011158" transform="translate(0 25.593)">
                  <path id="Trazado_715294" data-name="Trazado 715294" d="M406.933,274.664a1.989,1.989,0,0,1-.2-3.969,1.989,1.989,0,0,1,2.18,1.778h0a1.99,1.99,0,0,1-1.779,2.18C407.067,274.661,407,274.664,406.933,274.664Zm0-3.309a1.3,1.3,0,0,0-.136.007,1.318,1.318,0,1,0,.966.289A1.306,1.306,0,0,0,406.937,271.356Z" transform="translate(-404.944 -270.685)" fill="#bccee9"/>
                </g>
              </g>
              <path id="Trazado_715295" data-name="Trazado 715295" d="M364.829,224.551s-18.2,35.7-23.462,39.517c-3.377,2.449-14.339-13.111-21.752-24.562C325.7,256.25,337,276.04,343.66,274.906c8.432-1.436,19.435-22.286,19.435-22.286Z" transform="translate(-316.055 -149.791)" fill="#f7f5f8"/>
              <path id="Trazado_715296" data-name="Trazado 715296" d="M459.411,199.937l-8.644,12.71a9.38,9.38,0,0,0-1.608,5.8l7.046,125.532c10.245.454,23.134,11.674,23.134,11.674L466.008,230.6S466.5,204.329,459.411,199.937Z" transform="translate(-358.443 -141.736)" fill="#fff"/>
              <g id="Grupo_1011161" data-name="Grupo 1011161" transform="translate(11.34 77.3)">
                <path id="Trazado_715297" data-name="Trazado 715297" d="M368.392,232.929l-8.572-1.909a1.364,1.364,0,0,1-1.034-1.627h0a1.363,1.363,0,0,1,1.627-1.034l8.572,1.909a1.364,1.364,0,0,1,1.034,1.627h0A1.363,1.363,0,0,1,368.392,232.929Z" transform="translate(-340.203 -228.326)" fill="#faffff"/>
                <path id="Trazado_715298" data-name="Trazado 715298" d="M361.307,274.474l-6.029-22,4.063-18.242-8.516-1.9-4.063,18.242L331.968,267.94a3.292,3.292,0,0,0,1.79,5.349l23.658,5.269A3.292,3.292,0,0,0,361.307,274.474Z" transform="translate(-331.179 -229.64)" fill="#faffff"/>
                <path id="Trazado_715299" data-name="Trazado 715299" d="M334.678,272.153a1.986,1.986,0,0,1-1.08-3.226l15-17.605,4.133-18.559,5.965,1.329-4.133,18.558,6.115,22.309a1.986,1.986,0,0,1-2.347,2.463Z" transform="translate(-331.814 -229.778)" fill="#c5eaff"/>
                <path id="Trazado_715300" data-name="Trazado 715300" d="M357.206,275l-15.08-3.358L333.6,281.649a1.986,1.986,0,0,0,1.08,3.226l23.658,5.268a1.986,1.986,0,0,0,2.347-2.463Z" transform="translate(-331.814 -242.501)" fill="#86b6f8"/>
                <g id="Grupo_1011160" data-name="Grupo 1011160" transform="translate(6.807 33.048)" opacity="0.4" style="mix-blend-mode: screen;isolation: isolate">
                  <path id="Trazado_715301" data-name="Trazado 715301" d="M358.635,285.735a.78.78,0,1,1-.591-.93A.78.78,0,0,1,358.635,285.735Z" transform="translate(-346.467 -279.85)" fill="#faffff"/>
                  <path id="Trazado_715302" data-name="Trazado 715302" d="M352.332,286.545a.988.988,0,1,1-.749-1.179A.988.988,0,0,1,352.332,286.545Z" transform="translate(-344.27 -280.032)" fill="#faffff"/>
                  <path id="Trazado_715303" data-name="Trazado 715303" d="M354.454,279.319a1.536,1.536,0,1,1-1.165-1.832A1.535,1.535,0,0,1,354.454,279.319Z" transform="translate(-344.61 -277.45)" fill="#faffff"/>
                  <path id="Trazado_715304" data-name="Trazado 715304" d="M363.251,283.05a.5.5,0,1,1-.383-.6A.5.5,0,0,1,363.251,283.05Z" transform="translate(-348.156 -279.081)" fill="#faffff"/>
                  <path id="Trazado_715305" data-name="Trazado 715305" d="M364.382,290.052a.871.871,0,1,1-.661-1.039A.87.87,0,0,1,364.382,290.052Z" transform="translate(-348.289 -281.227)" fill="#faffff"/>
                  <path id="Trazado_715306" data-name="Trazado 715306" d="M344.054,286.654A1.395,1.395,0,1,1,343,284.99,1.395,1.395,0,0,1,344.054,286.654Z" transform="translate(-341.298 -279.906)" fill="#faffff"/>
                  <path id="Trazado_715307" data-name="Trazado 715307" d="M368.207,293.137a.5.5,0,1,1-.383-.6A.5.5,0,0,1,368.207,293.137Z" transform="translate(-349.777 -282.382)" fill="#faffff"/>
                  <path id="Trazado_715308" data-name="Trazado 715308" d="M358.209,290.16a.458.458,0,1,1-.348-.548A.459.459,0,0,1,358.209,290.16Z" transform="translate(-346.536 -281.426)" fill="#faffff"/>
                  <path id="Trazado_715309" data-name="Trazado 715309" d="M348.678,282.453a.458.458,0,1,1-.348-.547A.458.458,0,0,1,348.678,282.453Z" transform="translate(-343.417 -278.904)" fill="#faffff"/>
                </g>
                <rect id="Rectángulo_347174" data-name="Rectángulo 347174" width="1.296" height="8.725" transform="translate(19.364 3.965) rotate(-77.445)" fill="#43c9c4" opacity="0.4" style="mix-blend-mode: multiply;isolation: isolate"/>
              </g>
              <path id="Trazado_715310" data-name="Trazado 715310" d="M371.1,251.147l-3.9-4.255a8.687,8.687,0,0,0-2.39-4.053l-.69,3.225s-7.072-3.3-8.05-3.772c-1.888-.9-3,1.2-3.074,1.651a3.568,3.568,0,0,0,.552,1.809s-1.55,1.149-1.388,1.791a5.188,5.188,0,0,0,.931,1.535s-1.656,1.491-1.5,2.541a3.113,3.113,0,0,0,.773,1.411,4.1,4.1,0,0,0,.822,2.188c.741.821,14.336,4.364,14.336,4.364Z" transform="translate(-326.514 -155.523)" fill="#ffb2a5"/>
              <path id="Trazado_715311" data-name="Trazado 715311" d="M466.748,243.431s.031-1.691-.037-4.282l-8.481,10.818c-2.182,2.783-4.386,5.577-6.824,8.13l1.542,27.479a40.314,40.314,0,0,0,2.154-3.5,121.469,121.469,0,0,0,12.331-32.23Z" transform="translate(-359.182 -154.568)" fill="#f7f5f8"/>
              <path id="Trazado_715312" data-name="Trazado 715312" d="M403.094,293.228l.319-19.04a28.681,28.681,0,0,1-5.518-2.419c-3.541-1.995-14.2-7.238-17.348-9.806l2.489,2.9-.865,14.171A121.072,121.072,0,0,0,403.094,293.228Z" transform="translate(-335.994 -162.034)" fill="#f7f5f8"/>
              <path id="Trazado_715313" data-name="Trazado 715313" d="M433.583,199.937s9.832,6.886,11.324,17.228c1.008,6.987-17.081,45.63-26.843,50.079s-47.846-19.235-47.846-19.235l8.782-14.1,32.436,12.879,17.992-33.318Z" transform="translate(-332.615 -141.736)" fill="#fff"/>
              <path id="Trazado_715314" data-name="Trazado 715314" d="M449.523,230.747h0l5.776-10.7-6.026,6.251Z" transform="translate(-358.485 -148.318)" fill="#f7f5f8"/>
              <path id="Trazado_715315" data-name="Trazado 715315" d="M444.811,147.014c-.365,2.423-3.628,2.538-4.808.464a2.077,2.077,0,0,1,.774-3.054,3.3,3.3,0,0,1-.244-3.773,3.221,3.221,0,0,1,3.5-1.3,4.7,4.7,0,0,1,3.329-3.532,4.054,4.054,0,0,1,2.766.157,2.823,2.823,0,0,1,1.641,2.152,2.93,2.93,0,0,1,2.8-.268,3.035,3.035,0,0,1,1.886,2.247,2.888,2.888,0,0,1-1.027,2.733,3.007,3.007,0,0,1-.1,3.088,3.3,3.3,0,0,1-2.9,1.452,4.343,4.343,0,0,0-3.581-1.75A5.5,5.5,0,0,0,444.811,147.014Z" transform="translate(-355.327 -120.7)" fill="#fff"/>
              <g id="Grupo_1011162" data-name="Grupo 1011162" transform="translate(71.215 4.074)">
                <path id="Trazado_715316" data-name="Trazado 715316" d="M425.894,122.7a.273.273,0,0,1-.2-.087,8.018,8.018,0,0,0-5.26-2.58.274.274,0,0,1-.255-.292.271.271,0,0,1,.292-.256,8.572,8.572,0,0,1,5.624,2.754.274.274,0,0,1-.2.461Z" transform="translate(-420.178 -119.482)" fill="#fff"/>
              </g>
              <g id="Grupo_1011163" data-name="Grupo 1011163" transform="translate(73.215 0.06)">
                <path id="Trazado_715317" data-name="Trazado 715317" d="M430.994,123.666a.273.273,0,0,1-.274-.264,9.569,9.569,0,0,0-2.3-5.72,13.327,13.327,0,0,0-5.1-3.64.274.274,0,0,1,.211-.506,13.872,13.872,0,0,1,5.312,3.794,10.114,10.114,0,0,1,2.425,6.053.274.274,0,0,1-.264.284Z" transform="translate(-423.151 -113.515)" fill="#fff"/>
              </g>
              <g id="Grupo_1011164" data-name="Grupo 1011164" transform="translate(79.436)">
                <path id="Trazado_715318" data-name="Trazado 715318" d="M435.609,121.985a.341.341,0,0,1-.044,0,.274.274,0,0,1-.227-.315,8.583,8.583,0,0,0-2.842-7.758.274.274,0,0,1,.356-.417,9.142,9.142,0,0,1,3.028,8.263A.274.274,0,0,1,435.609,121.985Z" transform="translate(-432.399 -113.426)" fill="#fff"/>
              </g>
              <path id="Trazado_715319" data-name="Trazado 715319" d="M422.609,180.956l-.243,2.9c8.625-.075,11.766-6.4,11.766-6.4C432.419,179.231,428.307,181.561,422.609,180.956Z" transform="translate(-349.679 -134.377)" fill="#c76470"/>
              <path id="Trazado_715320" data-name="Trazado 715320" d="M414.5,158.232a6.926,6.926,0,0,0-4.5-.289,3.533,3.533,0,0,0-1.624.873,1.812,1.812,0,0,0-.5,1.709,1.484,1.484,0,0,0,1.9.922,2.211,2.211,0,0,0,.887,2.065,1.944,1.944,0,0,0,2.1,0,2.84,2.84,0,0,0,5.223.6c1.087.653,2.289,1.249,3.477.808a2.7,2.7,0,0,0,1.775-2.987,3.585,3.585,0,0,0-1.22-1.75A8.734,8.734,0,0,0,414.5,158.232Z" transform="translate(-344.917 -127.913)" fill="#fff"/>
              <g id="Grupo_1011165" data-name="Grupo 1011165" transform="translate(100.539 168.7)">
                <path id="Trazado_715321" data-name="Trazado 715321" d="M470.424,382.517a1.958,1.958,0,0,1-1.121-.379c-3.51-2.425-5.454-16.725-5.535-17.332a.341.341,0,0,1,.077-.262.336.336,0,0,1,.248-.117l10.407-.241a.342.342,0,0,1,.343.326,79.263,79.263,0,0,1-.305,8.486c-.566,5.843-1.814,9.03-3.713,9.473A1.789,1.789,0,0,1,470.424,382.517Zm-5.938-17.429c.332,2.29,2.225,14.444,5.2,16.5a1.205,1.205,0,0,0,.99.231c3.152-.735,3.6-12.176,3.508-16.953Z" transform="translate(-463.766 -364.185)" fill="#bccee9"/>
              </g>
              <g id="Grupo_1011166" data-name="Grupo 1011166" transform="translate(48.846 166.125)">
                <path id="Trazado_715322" data-name="Trazado 715322" d="M391.4,381.1a1.392,1.392,0,0,1-.885-.338c-3.015-2.431-3.56-19.338-3.582-20.057a.335.335,0,0,1,.335-.344h11.548a.335.335,0,0,1,.33.4c-.368,2.006-3.706,19.617-7.507,20.322A1.329,1.329,0,0,1,391.4,381.1Zm-3.786-20.07c.176,5.052,1.071,17.394,3.321,19.21a.69.69,0,0,0,.583.178c2.493-.462,5.454-11.7,6.9-19.388Z" transform="translate(-386.929 -360.358)" fill="#bccee9"/>
              </g>
            </g>
          </g>
        </g>
      </g>
      <g id="Grupo_1011171" data-name="Grupo 1011171" transform="translate(0 217.459)">
        <rect id="Rectángulo_347176" data-name="Rectángulo 347176" width="504.568" height="8.511" fill="#fff"/>
        <rect id="Rectángulo_347177" data-name="Rectángulo 347177" width="504.568" height="59.23" transform="translate(0 8.511)" fill="#3076b6"/>
        <rect id="Rectángulo_347178" data-name="Rectángulo 347178" width="504.568" height="3.029" transform="translate(0 8.511)" fill="#002d5a"/>
      </g>
    </g>
  </g>
</svg>
