<svg xmlns="http://www.w3.org/2000/svg" width="247.5" height="51" viewBox="0 0 247.5 51">
  <g id="Grupo_1013249" data-name="Grupo 1013249" transform="translate(6647.074 8317)">
    <path id="Trazado_716006" data-name="Trazado 716006" d="M0,0H247.5V51H0Z" transform="translate(-6647.074 -8317)" fill="#f6f6f6"/>
    <path id="Trazado_716007" data-name="Trazado 716007" d="M8.266,5.625l1.4,8.227,4.242-8.227h3.047L14.977,17h-2.3l.563-3.242L14.352,8.7,9.992,17H8.422L6.9,8.406l-.734,5.6L5.641,17H3.352L5.328,5.625ZM20.9,17.156a3.677,3.677,0,0,1-1.965-.543,3.292,3.292,0,0,1-1.277-1.469,4.093,4.093,0,0,1-.328-2.059l.023-.312a5.465,5.465,0,0,1,.719-2.266,4.341,4.341,0,0,1,1.547-1.59,3.827,3.827,0,0,1,2.094-.527,2.924,2.924,0,0,1,2.473,1.2,4.117,4.117,0,0,1,.637,2.962l-.125.962h-5.18a1.814,1.814,0,0,0,.4,1.313,1.521,1.521,0,0,0,1.172.508A2.7,2.7,0,0,0,23.2,14.4l1.008,1.25a3.135,3.135,0,0,1-1.375,1.121A4.5,4.5,0,0,1,20.9,17.156Zm.7-6.945a1.565,1.565,0,0,0-1.082.383,3.363,3.363,0,0,0-.848,1.383H22.7l.047-.2a2.071,2.071,0,0,0,.008-.594,1.134,1.134,0,0,0-.383-.707A1.2,1.2,0,0,0,21.6,10.211Zm7.945-1.828a2.4,2.4,0,0,1,1.906.945L32.281,5h2.211L32.414,17H30.445l.125-.906a2.736,2.736,0,0,1-2.2,1.07,2.433,2.433,0,0,1-1.383-.414,2.607,2.607,0,0,1-.918-1.168,4.7,4.7,0,0,1-.355-1.7,6.4,6.4,0,0,1,.023-.953l.047-.352A6.767,6.767,0,0,1,26.5,10.3a3.766,3.766,0,0,1,1.313-1.461A3.094,3.094,0,0,1,29.547,8.383Zm-1.6,4.547a6.327,6.327,0,0,0-.039,1q.078,1.375,1.109,1.4a1.885,1.885,0,0,0,1.617-.875l.6-3.359a1.248,1.248,0,0,0-1.219-.875,1.606,1.606,0,0,0-1.34.621A4.176,4.176,0,0,0,27.945,12.93ZM36.5,17H34.281L35.75,8.547h2.219ZM36.008,6.4a1.1,1.1,0,0,1,.344-.867,1.323,1.323,0,0,1,1.734-.039,1.1,1.1,0,0,1,.383.828,1.132,1.132,0,0,1-.324.844,1.215,1.215,0,0,1-.887.375,1.235,1.235,0,0,1-.863-.3A1.091,1.091,0,0,1,36.008,6.4ZM43.258,17a2.281,2.281,0,0,1-.086-.766,2.863,2.863,0,0,1-2.156.922,2.594,2.594,0,0,1-1.84-.723,2.186,2.186,0,0,1-.684-1.746,2.527,2.527,0,0,1,1.16-2.121,5.266,5.266,0,0,1,2.965-.738l1.031.016.109-.508a1.764,1.764,0,0,0,.023-.492.846.846,0,0,0-.277-.574.955.955,0,0,0-.629-.215,1.345,1.345,0,0,0-.875.254,1.231,1.231,0,0,0-.461.777l-2.211.008a2.457,2.457,0,0,1,1.113-1.965,4.312,4.312,0,0,1,2.613-.738,3.117,3.117,0,0,1,2.25.855,2.5,2.5,0,0,1,.68,2.121l-.648,4.047-.039.5a2.412,2.412,0,0,0,.133.938L45.422,17Zm-1.7-1.555a2.017,2.017,0,0,0,1.664-.828l.273-1.461-.766-.008a2.139,2.139,0,0,0-1.758.742,1.292,1.292,0,0,0-.242.633.75.75,0,0,0,.176.668A.891.891,0,0,0,41.563,15.445ZM50.25,8.539l-.187,1a3.042,3.042,0,0,1,2.461-1.148,2.028,2.028,0,0,1,1.766.875,3.526,3.526,0,0,1,.414,2.359L53.813,17h-2.2l.906-5.4a2.528,2.528,0,0,0,.016-.555.9.9,0,0,0-1-.82,1.9,1.9,0,0,0-1.555.8L48.922,17h-2.2l1.469-8.453ZM60.43,17a2.281,2.281,0,0,1-.086-.766,2.863,2.863,0,0,1-2.156.922,2.594,2.594,0,0,1-1.84-.723,2.186,2.186,0,0,1-.684-1.746,2.527,2.527,0,0,1,1.16-2.121,5.266,5.266,0,0,1,2.965-.738l1.031.016.109-.508a1.764,1.764,0,0,0,.023-.492.846.846,0,0,0-.277-.574.955.955,0,0,0-.629-.215,1.345,1.345,0,0,0-.875.254,1.231,1.231,0,0,0-.461.777l-2.211.008a2.457,2.457,0,0,1,1.113-1.965,4.312,4.312,0,0,1,2.613-.738,3.117,3.117,0,0,1,2.25.855,2.5,2.5,0,0,1,.68,2.121l-.648,4.047-.039.5a2.412,2.412,0,0,0,.133.938L62.594,17Zm-1.7-1.555a2.017,2.017,0,0,0,1.664-.828l.273-1.461-.766-.008a2.139,2.139,0,0,0-1.758.742,1.292,1.292,0,0,0-.242.633.75.75,0,0,0,.176.668A.891.891,0,0,0,58.734,15.445Zm17.133-4.273H69.078l.328-1.844H76.2Zm-.586,3.383H68.492l.328-1.844h6.789Zm10.563-8.93,1.4,8.227,4.242-8.227h3.047L92.555,17h-2.3l.563-3.242L91.93,8.7,87.57,17H86L84.477,8.406l-.734,5.6L83.219,17H80.93L82.906,5.625ZM98.477,17.156a3.677,3.677,0,0,1-1.965-.543,3.292,3.292,0,0,1-1.277-1.469,4.093,4.093,0,0,1-.328-2.059l.023-.312a5.465,5.465,0,0,1,.719-2.266A4.341,4.341,0,0,1,97.2,8.918a3.827,3.827,0,0,1,2.094-.527,2.924,2.924,0,0,1,2.473,1.2,4.117,4.117,0,0,1,.637,2.962l-.125.962h-5.18a1.814,1.814,0,0,0,.4,1.313,1.521,1.521,0,0,0,1.172.508,2.7,2.7,0,0,0,2.109-.937l1.008,1.25a3.135,3.135,0,0,1-1.375,1.121A4.5,4.5,0,0,1,98.477,17.156Zm.7-6.945a1.565,1.565,0,0,0-1.082.383,3.363,3.363,0,0,0-.848,1.383h3.031l.047-.2a2.071,2.071,0,0,0,.008-.594,1.134,1.134,0,0,0-.383-.707A1.2,1.2,0,0,0,99.18,10.211Zm15.68.961H108.07l.328-1.844h6.789Zm-.586,3.383h-6.789l.328-1.844H114.6Z" transform="translate(-6636.074 -8298)" fill="#12263f"/>
    <path id="Trazado_716008" data-name="Trazado 716008" d="M12.336,9.531l2.68-3.906h2.75l-4.18,5.75L15.945,17H13.414l-1.492-3.969L9.18,17H6.4l4.273-5.844L8.383,5.625h2.5Z" transform="translate(-6513.074 -8311)" fill="#12263f"/>
    <path id="Trazado_716009" data-name="Trazado 716009" d="M8.562,10H7.175L5.2,5.259,4.372,10H2.941L4.177,2.891H5.559L7.541,7.642l.825-4.751H9.792Zm7.119-3.979H17.39l-.225,1.274h-1.7l-.347,1.992H13.8l.347-1.992H12.429l.225-1.274h1.714L14.7,4.111h1.313ZM20.837,10H19.46L20.4,4.59l-1.729.522.215-1.206,2.969-1.025.181,0Zm-5.9,13H10.2l.161-1.025,2.524-2.368a5.592,5.592,0,0,0,1.03-1.182,1.384,1.384,0,0,0,.19-.889.663.663,0,0,0-.7-.62,1,1,0,0,0-.784.327,1.533,1.533,0,0,0-.383.884l-1.377,0a2.43,2.43,0,0,1,1.345-2.048,2.753,2.753,0,0,1,1.282-.3,2.184,2.184,0,0,1,1.543.557,1.722,1.722,0,0,1,.488,1.431,3.466,3.466,0,0,1-1.187,2.1l-.7.669-1.455,1.309,2.939.01Z" transform="translate(-6493.074 -8300)" fill="#12263f"/>
    <path id="Trazado_712375" data-name="Trazado 712375" d="M-6045.85-8453s-5,14.5,0,24.5" transform="translate(-447.038 153)" fill="none" stroke="#12263f" stroke-width="1"/>
    <path id="Trazado_712376" data-name="Trazado 712376" d="M-6048.072-8453s5,14.5,0,24.5" transform="translate(-420.188 153)" fill="none" stroke="#12263f" stroke-width="1"/>
    <path id="Trazado_716010" data-name="Trazado 716010" d="M0,0H25.574" transform="translate(-6494.074 -8286.5)" fill="none" stroke="#12263f" stroke-width="1"/>
  </g>
</svg>
