<svg xmlns="http://www.w3.org/2000/svg" width="181" height="181" viewBox="0 0 181 181">
  <g id="Grupo_1004760" data-name="Grupo 1004760" transform="translate(-1020 -862)">
    <g id="Grupo_1004759" data-name="Grupo 1004759" transform="translate(621)">
      <circle id="Elipse_8399" data-name="Elipse 8399" cx="90.5" cy="90.5" r="90.5" transform="translate(399 862)" fill="#fff"/>
    </g>
    <g id="Grupo_1004757" data-name="Grupo 1004757" transform="translate(1055.106 895.95)">
      <g id="Grupo_1004755" data-name="Grupo 1004755" transform="translate(1.819 2.132)">
        <g id="Grupo_1004743" data-name="Grupo 1004743" transform="translate(50.936 62.87)">
          <path id="Trazado_712635" data-name="Trazado 712635" d="M247.661,294.607l11.642,6.531a21.84,21.84,0,0,0-8.55,13.935H239.53v-5.767a18.764,18.764,0,0,1,7.568-15.044,5.878,5.878,0,0,0,.564.346Z" transform="translate(-239.53 -294.261)" fill="#aab2bd"/>
        </g>
        <g id="Grupo_1004744" data-name="Grupo 1004744" transform="translate(43.659)">
          <path id="Trazado_712636" data-name="Trazado 712636" d="M272.078,46.562c0,.2,0,.418-.018.619a12.738,12.738,0,0,0-12.716-12.061H219.323a12.716,12.716,0,0,0-12.716,12.152c-.018-.237-.018-.473-.018-.71a30.145,30.145,0,0,1,14.426-25.723L239.334,9.651l18.319,11.188a30.135,30.135,0,0,1,14.426,25.723Z" transform="translate(-206.589 -9.651)" fill="#aab2bd"/>
        </g>
        <g id="Grupo_1004745" data-name="Grupo 1004745" transform="translate(43.677 25.468)">
          <path id="Trazado_712637" data-name="Trazado 712637" d="M259.407,124.945h-1.819V135.86h3.638a3.649,3.649,0,0,1,3.638,3.638,3.665,3.665,0,0,1-3.638,3.638h-3.638a18.207,18.207,0,0,1-16.336,18.1c-.6.055-1.237.091-1.856.091a18.2,18.2,0,0,1-18.191-18.191h-3.638a3.665,3.665,0,0,1-3.638-3.638,3.649,3.649,0,0,1,3.638-3.638H221.2V124.945h-1.819A12.716,12.716,0,0,0,206.67,137.1a30.078,30.078,0,0,0,14.826,25.25,5.855,5.855,0,0,0,.564.346l11.642,6.531c.018-.018.018,0,.018,0a21.736,21.736,0,0,1,8.532-3.82,22.074,22.074,0,0,1,4.421-.436,21.608,21.608,0,0,1,7.24,1.237l3.529-2.347a33.123,33.123,0,0,0,10.788-11.9,32.765,32.765,0,0,0,3.893-14.953,12.738,12.738,0,0,0-12.715-12.061Z" transform="translate(-206.67 -124.945)" fill="#ccd1d9"/>
        </g>
        <g id="Grupo_1004746" data-name="Grupo 1004746" transform="translate(94.595 36.383)">
          <path id="Trazado_712638" data-name="Trazado 712638" d="M440.812,174.356a3.649,3.649,0,0,1,3.638,3.638,3.665,3.665,0,0,1-3.638,3.638h-3.638v-7.277Z" transform="translate(-437.174 -174.356)" fill="#f0d0b4"/>
        </g>
        <g id="Grupo_1004747" data-name="Grupo 1004747" transform="translate(58.213 25.468)">
          <path id="Trazado_712639" data-name="Trazado 712639" d="M308.854,135.86v7.277a18.207,18.207,0,0,1-16.336,18.1c-.6.055-1.237.091-1.856.091a18.2,18.2,0,0,1-18.191-18.191V124.945h36.383Z" transform="translate(-272.471 -124.945)" fill="#f0d0b4"/>
        </g>
        <g id="Grupo_1004748" data-name="Grupo 1004748" transform="translate(50.936 36.383)">
          <path id="Trazado_712640" data-name="Trazado 712640" d="M246.806,174.356v7.277h-3.638a3.665,3.665,0,0,1-3.638-3.638,3.649,3.649,0,0,1,3.638-3.638Z" transform="translate(-239.529 -174.356)" fill="#f0d0b4"/>
        </g>
        <g id="Grupo_1004749" data-name="Grupo 1004749" transform="translate(3.638 7.277)">
          <path id="Trazado_712641" data-name="Trazado 712641" d="M54.52,57.145V62.6A1.825,1.825,0,0,1,52.7,64.422H49.063A1.825,1.825,0,0,1,47.244,62.6V57.145a7.277,7.277,0,1,0-14.553,0V75.337H25.414V57.145a14.553,14.553,0,1,1,29.106,0Z" transform="translate(-25.414 -42.592)" fill="#aab2bd"/>
        </g>
        <g id="Grupo_1004750" data-name="Grupo 1004750" transform="translate(0 40.021)">
          <path id="Trazado_712642" data-name="Trazado 712642" d="M43.508,219.933H10.763a1.825,1.825,0,0,1-1.819-1.819V192.646a1.825,1.825,0,0,1,1.819-1.819H43.508a1.825,1.825,0,0,1,1.819,1.819v25.468A1.825,1.825,0,0,1,43.508,219.933Z" transform="translate(-8.944 -190.827)" fill="#008b8a"/>
        </g>
        <g id="Grupo_1004751" data-name="Grupo 1004751" transform="translate(14.553 47.298)">
          <ellipse id="Elipse_8398" data-name="Elipse 8398" cx="3.638" cy="3.638" rx="3.638" ry="3.638" fill="#fcd770"/>
        </g>
        <g id="Grupo_1004752" data-name="Grupo 1004752" transform="translate(7.276 90.958)">
          <path id="Trazado_712643" data-name="Trazado 712643" d="M63.713,421.413v9.1a1.825,1.825,0,0,1-1.819,1.819h-4.33a1.825,1.825,0,0,1-1.637-1l-.491-1.019a2.958,2.958,0,0,0-5.275,0l-.491,1.019a1.824,1.824,0,0,1-1.637,1H43.7a1.825,1.825,0,0,1-1.819-1.819v-9.1Z" transform="translate(-41.883 -421.413)" fill="#ffa031"/>
        </g>
        <g id="Grupo_1004753" data-name="Grupo 1004753" transform="translate(3.638 83.681)">
          <path id="Trazado_712644" data-name="Trazado 712644" d="M72.712,388.472H83.936a21.555,21.555,0,0,0,0,7.276h-56.7a1.825,1.825,0,0,1-1.819-1.819v-3.638a1.825,1.825,0,0,1,1.819-1.819Z" transform="translate(-25.414 -388.472)" fill="#ffa031"/>
        </g>
        <g id="Grupo_1004754" data-name="Grupo 1004754" transform="translate(61.851 65.49)">
          <path id="Trazado_712645" data-name="Trazado 712645" d="M318.01,307.359a21.8,21.8,0,1,1-20.211,3.02c.018-.018.018,0,.018,0a21.735,21.735,0,0,1,8.532-3.82,22.075,22.075,0,0,1,4.421-.436,21.6,21.6,0,0,1,7.24,1.237Zm7.313,20.593A14.553,14.553,0,1,0,310.77,342.5,14.549,14.549,0,0,0,325.323,327.951Z" transform="translate(-288.94 -306.122)" fill="#ffa031"/>
        </g>
      </g>
      <g id="Grupo_1004756" data-name="Grupo 1004756" transform="translate(0)">
        <path id="Trazado_712646" data-name="Trazado 712646" d="M57.222,39.756A31.978,31.978,0,0,0,70.825,65.2a20.658,20.658,0,0,0-6.349,14.844v3.946H20.817a3.642,3.642,0,0,0-3.638,3.638V91.27a3.642,3.642,0,0,0,3.638,3.638v7.277a3.642,3.642,0,0,0,3.638,3.638h4.333a3.616,3.616,0,0,0,3.255-2.01l.5-1a1.164,1.164,0,0,1,2.01,0l.5,1a3.611,3.611,0,0,0,3.255,2.012h4.335a3.642,3.642,0,0,0,3.638-3.638V94.908H76.052a23.637,23.637,0,1,0,33.992-26.372l.78-.52A34.73,34.73,0,0,0,126.3,39.858l.025-.811a32.162,32.162,0,0,0-15.293-27.271L91.764,0,72.494,11.775A32.162,32.162,0,0,0,57.2,39.046ZM74.391,14.881,91.764,4.264l17.373,10.617a28.443,28.443,0,0,1,11.626,13.984,14.521,14.521,0,0,0-8.988-3.084H71.753a14.515,14.515,0,0,0-8.99,3.093A28.431,28.431,0,0,1,74.391,14.881Zm37.384,25.453h1.819a1.819,1.819,0,1,1,0,3.638h-1.819ZM71.753,43.972H69.934a1.819,1.819,0,0,1,0-3.638h1.819Zm3.638-14.553h32.745V45.792a16.372,16.372,0,0,1-32.745,0ZM68.115,80.048a16.975,16.975,0,0,1,5.94-12.832l8.876,4.972a23.634,23.634,0,0,0-6.876,11.8H68.115ZM42.647,102.185H38.314l-.5-1.008a4.765,4.765,0,0,0-8.521,0l-.5,1.006H24.456V94.909H42.647ZM20.817,91.27V87.632H75.484c-.046.6-.093,1.2-.093,1.819s.046,1.217.093,1.819Zm98.234-1.819A20.011,20.011,0,1,1,99.041,69.44,20.034,20.034,0,0,1,119.051,89.451ZM99.04,65.8A23.507,23.507,0,0,0,86,69.74L75.315,63.754a28.341,28.341,0,0,1-14.453-24.02A10.873,10.873,0,0,1,71.753,29.419V36.7H69.934a5.458,5.458,0,0,0,0,10.915h1.912a20,20,0,0,0,39.835,0h1.912a5.458,5.458,0,0,0,0-10.915h-1.819V29.419a10.86,10.86,0,0,1,10.893,10.347,31.109,31.109,0,0,1-13.862,25.222l-2.8,1.865A23.534,23.534,0,0,0,99.04,65.8Z" transform="translate(-13.541)"/>
        <path id="Trazado_712647" data-name="Trazado 712647" d="M345.956,220.517l-2.572-2.572a10.675,10.675,0,0,1-7.5,3.105h-5.77v3.638h5.77A14.342,14.342,0,0,0,345.956,220.517Z" transform="translate(-257.351 -169.801)"/>
        <path id="Trazado_712648" data-name="Trazado 712648" d="M313.647,347.2a16.372,16.372,0,1,0,16.372-16.372A16.39,16.39,0,0,0,313.647,347.2Zm29.106,0a12.734,12.734,0,1,1-12.734-12.734A12.75,12.75,0,0,1,342.753,347.2Z" transform="translate(-244.519 -257.746)"/>
        <path id="Trazado_712649" data-name="Trazado 712649" d="M72.048,215.532a5.444,5.444,0,0,0-1.819,10.58v7.611h3.638v-7.611a5.444,5.444,0,0,0-1.819-10.58Zm0,7.277a1.819,1.819,0,1,1,1.819-1.819A1.82,1.82,0,0,1,72.048,222.809Z" transform="translate(-52.037 -167.921)"/>
        <path id="Trazado_712650" data-name="Trazado 712650" d="M37.091,99.847a3.642,3.642,0,0,0,3.638-3.638V70.741A3.642,3.642,0,0,0,37.091,67.1H15.261V50.73a5.458,5.458,0,0,1,10.915,0v5.458a3.642,3.642,0,0,0,3.638,3.638h3.638a3.642,3.642,0,0,0,3.638-3.638V50.73a16.372,16.372,0,0,0-32.745,0V67.1A3.642,3.642,0,0,0,.708,70.741V96.209a3.642,3.642,0,0,0,3.638,3.638ZM7.985,50.73a12.734,12.734,0,1,1,25.468,0v5.458H29.815V50.73a9.1,9.1,0,0,0-18.192,0V67.1H7.985V50.73ZM4.346,70.741H37.091l0,25.468H4.346Z" transform="translate(-0.708 -26.768)"/>
        <path id="Trazado_712651" data-name="Trazado 712651" d="M132.472,347.3h3.638v3.638h-3.638Z" transform="translate(-103.366 -270.579)"/>
        <path id="Trazado_712652" data-name="Trazado 712652" d="M165.413,347.3h3.638v3.638h-3.638Z" transform="translate(-129.03 -270.579)"/>
        <path id="Trazado_712653" data-name="Trazado 712653" d="M198.353,347.3h3.638v3.638h-3.638Z" transform="translate(-154.694 -270.579)"/>
      </g>
    </g>
  </g>
</svg>
