<svg xmlns="http://www.w3.org/2000/svg" width="401.036" height="304.062" viewBox="0 0 401.036 304.062">
  <g id="Grupo_1011360" data-name="Grupo 1011360" transform="translate(-979.5 -3153)">
    <ellipse id="Elipse_8465" data-name="Elipse 8465" cx="152.031" cy="152.031" rx="152.031" ry="152.031" transform="translate(1027.969 3153)" fill="#4db1f0" opacity="0.38"/>
    <g id="Grupo_1011359" data-name="Grupo 1011359" transform="translate(980 3192.403)">
      <g id="Character_4" data-name="Character 4" transform="translate(313.65)">
        <g id="Grupo_1011335" data-name="Grupo 1011335">
          <path id="Trazado_715430" data-name="Trazado 715430" d="M546.141,517.792l3.119,12.724,2.9,18.338s4.561,12.98,4.561,13.565a40.932,40.932,0,0,1-4.093,7.016c-.351.117-8.419-4.21-8.419-4.21l-8.77-22.1Z" transform="translate(-471.346 -463.853)" fill="#fff" stroke="#263238" stroke-linecap="round" stroke-linejoin="round" stroke-width="1"/>
          <path id="Trazado_715431" data-name="Trazado 715431" d="M542.259,606.434l-1.62,17.286s0,24.039-.54,28.362-3.512,41.056-3.512,41.056l1.35,3.781s3.241,4.322,4.592,6.752,3.241,4.052.27,4.862a11.948,11.948,0,0,1-8.1-.27c-2.971-1.081-8.1-6.482-8.1-6.482l-4.321-2.431a10.364,10.364,0,0,1-1.081-4.862c.27-2.161-.271-10.264-.271-10.264l-1.35-47.268-1.079-31.872,25.39-.541Z" transform="translate(-474.635 -447.021)" fill="#263238" stroke="#263238" stroke-linecap="round" stroke-linejoin="round" stroke-width="1"/>
          <path id="Trazado_715432" data-name="Trazado 715432" d="M497.571,606.434l1.62,17.286s0,24.039.54,28.362,3.512,41.056,3.512,41.056l-1.35,3.781s-3.242,4.322-4.592,6.752-3.241,4.052-.27,4.862a11.944,11.944,0,0,0,8.1-.27c2.972-1.081,8.1-6.482,8.1-6.482l4.321-2.431a10.381,10.381,0,0,0,1.081-4.862c-.27-2.161.27-10.264.27-10.264l1.351-47.268,1.081-31.872-25.39-.541Z" transform="translate(-479.105 -447.021)" fill="#263238" stroke="#263238" stroke-linecap="round" stroke-linejoin="round" stroke-width="1"/>
          <path id="Trazado_715433" data-name="Trazado 715433" d="M500.6,560s-11.251-42.739-11-43.5,16.665-9.245,19.071-10.384,3.039-1.393,3.42-1.393,22.921.633,22.921.633,20.128,14.049,20.381,14.81c.007.02.023.08.043.166L543.119,550.69l-.127,10.763,7.091,20.516s5.656,18.527,7.048,27.264,4.73,36.776,4.73,36.776-15.957,5.7-40.144,6.585-34.192-6.205-34.192-6.205Z" transform="translate(-480.643 -466.389)" fill="#fff" stroke="#263238" stroke-linecap="round" stroke-linejoin="round" stroke-width="1"/>
          <g id="Grupo_1011331" data-name="Grupo 1011331" transform="translate(26.246)">
            <path id="Trazado_715434" data-name="Trazado 715434" d="M526.6,473.829a14.066,14.066,0,0,1,8.515,10.109c1.241,5.3,3.069,13.93,2.657,17.113-.614,4.732-5.131,12.041-8.626,16.37s-10.646,12.859-10.619,13.306-12.558-23.267-13.7-24.781-1.288-6.3-.856-9.06,5.392-20.035,9.931-22.087,6.283-3.015,11.805-1.281Q526.164,473.662,526.6,473.829Z" transform="translate(-503.743 -472.618)" fill="#3076b6" stroke="#263238" stroke-linecap="round" stroke-linejoin="round" stroke-width="1"/>
            <path id="Trazado_715435" data-name="Trazado 715435" d="M523.025,478.559s3.481.33,5.76,5.612,2.985,14.361,2.58,17.565-4.639,7.773-7.992,9.532-4.985,2.106-7.653.327-7.612-8.843-7.87-10.615,2.607-16.392,6.007-19.808S520.555,477.506,523.025,478.559Z" transform="translate(-502.949 -471.572)" fill="#ffd1bd" stroke="#263238" stroke-linecap="round" stroke-linejoin="round" stroke-width="1"/>
            <path id="Trazado_715436" data-name="Trazado 715436" d="M521.644,478.559a5.862,5.862,0,0,1,3.021,1.6,30.537,30.537,0,0,1-6.284.462,14.374,14.374,0,0,1-3.426-1.415A7.168,7.168,0,0,1,521.644,478.559Z" transform="translate(-501.567 -471.572)" fill="#263238" stroke="#263238" stroke-linecap="round" stroke-linejoin="round" stroke-width="1"/>
            <path id="Trazado_715437" data-name="Trazado 715437" d="M516.669,491.984l-.6,5.542,4.194.3" transform="translate(-501.351 -468.86)" fill="none" stroke="#263238" stroke-linecap="round" stroke-linejoin="round" stroke-width="1"/>
            <path id="Trazado_715438" data-name="Trazado 715438" d="M521.26,499.208a5,5,0,0,1-5.692-.45" transform="translate(-501.448 -467.546)" fill="none" stroke="#263238" stroke-linecap="round" stroke-linejoin="round" stroke-width="1"/>
            <path id="Trazado_715439" data-name="Trazado 715439" d="M517.048,487.955s-1.048-2.546-5.243-.9" transform="translate(-502.178 -469.924)" fill="none" stroke="#263238" stroke-linecap="round" stroke-linejoin="round" stroke-width="1.5"/>
            <path id="Trazado_715440" data-name="Trazado 715440" d="M520.753,487.855s2.392-2.239,5.392.6" transform="translate(-500.442 -469.824)" fill="none" stroke="#263238" stroke-linecap="round" stroke-linejoin="round" stroke-width="1.5"/>
            <ellipse id="Elipse_8463" data-name="Elipse 8463" cx="0.749" cy="1.123" rx="0.749" ry="1.123" transform="translate(21.21 20.877)" fill="#263238"/>
            <path id="Trazado_715441" data-name="Trazado 715441" d="M512.934,491.227c0,.62.336,1.122.749,1.122s.75-.5.75-1.122-.336-1.124-.75-1.124S512.934,490.606,512.934,491.227Z" transform="translate(-501.959 -469.225)" fill="#263238"/>
            <line id="Línea_2479" data-name="Línea 2479" y2="1.417" transform="translate(15.915 53.161)" fill="none" stroke="#263238" stroke-linecap="round" stroke-linejoin="round" stroke-width="1"/>
            <line id="Línea_2480" data-name="Línea 2480" y2="9.425" transform="translate(15.915 41.547)" fill="none" stroke="#263238" stroke-linecap="round" stroke-linejoin="round" stroke-width="1"/>
            <path id="Trazado_715442" data-name="Trazado 715442" d="M520.555,509.8c-1.042,1.013-1.852,1.795-1.852,1.795" transform="translate(-500.84 -465.404)" fill="none" stroke="#263238" stroke-linecap="round" stroke-linejoin="round" stroke-width="1"/>
            <path id="Trazado_715443" data-name="Trazado 715443" d="M528.71,499.636s-2.14,6.306-4.7,8.869c-.38.38-.824.818-1.287,1.274" transform="translate(-500.061 -467.376)" fill="none" stroke="#263238" stroke-linecap="round" stroke-linejoin="round" stroke-width="1"/>
            <path id="Trazado_715444" data-name="Trazado 715444" d="M507.024,504.52s5.107,5.4,7.5,7.5" transform="translate(-503.106 -466.428)" fill="none" stroke="#263238" stroke-linecap="round" stroke-linejoin="round" stroke-width="1"/>
            <path id="Trazado_715445" data-name="Trazado 715445" d="M508.062,498.879s.273,1.654,2.67,4.948a25.194,25.194,0,0,0,3.894,4.494" transform="translate(-502.905 -467.523)" fill="none" stroke="#263238" stroke-linecap="round" stroke-linejoin="round" stroke-width="1"/>
          </g>
          <g id="Grupo_1011332" data-name="Grupo 1011332" transform="translate(28.537 40.65)">
            <line id="Línea_2481" data-name="Línea 2481" y2="15.07" transform="translate(12.157 23.894)" fill="none" stroke="#263238" stroke-linecap="round" stroke-linejoin="round" stroke-width="1"/>
            <line id="Línea_2482" data-name="Línea 2482" y2="4.585" transform="translate(12.58 116.011)" fill="#fff" stroke="#263238" stroke-linecap="round" stroke-linejoin="round" stroke-width="1"/>
            <line id="Línea_2483" data-name="Línea 2483" y2="33.696" transform="translate(12.58 79.112)" fill="#fff" stroke="#263238" stroke-linecap="round" stroke-linejoin="round" stroke-width="1"/>
            <path id="Trazado_715446" data-name="Trazado 715446" d="M533.457,506.663l-2.088,8.536-5.066.38,2.026,3.039-10.384,7.471-9.118-8.991,2.786-2.913-5.952-.38.326-6.637" transform="translate(-505.661 -506.663)" fill="none" stroke="#263238" stroke-linecap="round" stroke-linejoin="round" stroke-width="1"/>
          </g>
          <path id="Trazado_715447" data-name="Trazado 715447" d="M490.721,514.584s-8.283,53.567-8.789,54.834.253,2.912.506,3.926,8.611,2.153,9.245,2.153,7.471-9.625,7.471-9.625l1.647-12.536Z" transform="translate(-481.761 -464.475)" fill="#fff" stroke="#263238" stroke-linecap="round" stroke-linejoin="round" stroke-width="1"/>
          <path id="Trazado_715448" data-name="Trazado 715448" d="M530.5,569.549l2.026-24.314-31.533,1.9,3.419,23.808Z" transform="translate(-478.03 -458.528)" fill="#263238" stroke="#263238" stroke-linecap="round" stroke-linejoin="round" stroke-width="1"/>
          <g id="Grupo_1011333" data-name="Grupo 1011333" transform="translate(36.262 92.949)">
            <path id="Trazado_715449" data-name="Trazado 715449" d="M512.131,560.936l2.279-1.645s1.013-3.42,2.406-4.687,4.559-2.153,6.205-3.165,2.533-1.393,2.659-.38-.127,3.039-1.266,3.673-3.04,1.392-3.04,1.392l-.633.887s7.218.253,7.6.127a10,10,0,0,0,1.647-1.52s2.279-4.812,3.04-4.685.506,1.266.253,2.533a41.323,41.323,0,0,0-.887,6.712,7.115,7.115,0,0,1-1.773,4.812c-.759.634-6.712,2.787-6.712,2.787l-11.777,2.659Z" transform="translate(-512.131 -550.463)" fill="#3076b6" stroke="#263238" stroke-linecap="round" stroke-linejoin="round" stroke-width="1"/>
            <path id="Trazado_715450" data-name="Trazado 715450" d="M530.047,556.689s-.506,3.8-2.026,4.685a7.239,7.239,0,0,1-3.8.633" transform="translate(-509.785 -549.255)" fill="none" stroke="#263238" stroke-linecap="round" stroke-linejoin="round" stroke-width="1"/>
            <line id="Línea_2484" data-name="Línea 2484" x1="4.306" y2="0.76" transform="translate(14.183 14.526)" fill="#fff" stroke="#263238" stroke-linecap="round" stroke-linejoin="round" stroke-width="1"/>
            <line id="Línea_2485" data-name="Línea 2485" x2="0.887" y2="5.699" transform="translate(1.013 11.74)" fill="#fff" stroke="#263238" stroke-linecap="round" stroke-linejoin="round" stroke-width="1"/>
            <line id="Línea_2486" data-name="Línea 2486" x1="0.127" y2="5.825" transform="translate(2.912 10.474)" fill="#fff" stroke="#263238" stroke-linecap="round" stroke-linejoin="round" stroke-width="1"/>
          </g>
          <path id="Trazado_715451" data-name="Trazado 715451" d="M493.6,557.363l24.188,1.52.126,16.59-20.263-1.393s-11.777-2.279-12.156-2.659-3.167-6.205-3.167-6.205l2.66-8.738" transform="translate(-481.651 -456.347)" fill="#fff" stroke="#263238" stroke-linecap="round" stroke-linejoin="round" stroke-width="1"/>
          <path id="Trazado_715452" data-name="Trazado 715452" d="M537.751,530.049l-9.225,16.606-1.255.664.369-1.624,9.078-16.163Z" transform="translate(-472.931 -461.575)" fill="#263238" stroke="#263238" stroke-linecap="round" stroke-linejoin="round" stroke-width="1"/>
          <path id="Trazado_715453" data-name="Trazado 715453" d="M537.216,566.206l.09-16.665,8.645,2.5s-2.14,7.4-3.743,9.8A17.673,17.673,0,0,1,537.216,566.206Z" transform="translate(-471.002 -457.693)" fill="#fff" stroke="#263238" stroke-linecap="round" stroke-linejoin="round" stroke-width="1"/>
          <g id="Grupo_1011334" data-name="Grupo 1011334" transform="translate(55.451 74.968)">
            <path id="Trazado_715454" data-name="Trazado 715454" d="M546.75,551.038l-5.571-9.244s-1.393-5.952-2.279-6.205-7.472,1.014-7.472,1.014l-2.786,4.179a.961.961,0,0,0-.38,1.139c.253.761.633,1.773.633,1.773a4,4,0,0,0,0,1.773c.253.506,6.205,1.9,6.205,1.9a46.272,46.272,0,0,0,2.786,5.192c.887,1.14,5.573,3.546,5.573,3.546S546.244,555.978,546.75,551.038Z" transform="translate(-528.202 -535.375)" fill="#3076b6" stroke="#263238" stroke-linecap="round" stroke-linejoin="round" stroke-width="1"/>
            <path id="Trazado_715455" data-name="Trazado 715455" d="M538,537.815l-5.683.886-3.69,3.395" transform="translate(-528.119 -534.936)" fill="none" stroke="#263238" stroke-linecap="round" stroke-linejoin="round" stroke-width="1"/>
            <path id="Trazado_715456" data-name="Trazado 715456" d="M537.531,540.905h-4.724l-4.026,1.75" transform="translate(-528.089 -534.337)" fill="none" stroke="#263238" stroke-linecap="round" stroke-linejoin="round" stroke-width="1"/>
            <path id="Trazado_715457" data-name="Trazado 715457" d="M528.816,543.29l6.292-.041,2.27-.18" transform="translate(-528.083 -533.917)" fill="none" stroke="#263238" stroke-linecap="round" stroke-linejoin="round" stroke-width="1"/>
            <path id="Trazado_715458" data-name="Trazado 715458" d="M532.074,536.068a13.69,13.69,0,0,0-1.7-.664,8.7,8.7,0,0,0-1.993,3.174c0,.664,1.107.959,1.107.959l1.9-2.905Z" transform="translate(-528.167 -535.404)" fill="#92e3a9" stroke="#263238" stroke-linecap="round" stroke-linejoin="round" stroke-width="1"/>
          </g>
          <path id="Trazado_715459" data-name="Trazado 715459" d="M553.346,550.9s3.031,4.277,3.12,4.634,1.693,6.327.356,9.09-8.823,8.2-11.139,7.4-8.467-5.614-8.467-5.614l4.9-9.089L545,548.522l4.513,2.019" transform="translate(-471.002 -457.89)" fill="#fff" stroke="#263238" stroke-linecap="round" stroke-linejoin="round" stroke-width="1"/>
        </g>
      </g>
      <g id="Character_3" data-name="Character 3" transform="translate(208.812 4.083)">
        <g id="Grupo_1011345" data-name="Grupo 1011345">
          <path id="Trazado_715460" data-name="Trazado 715460" d="M399.2,511.065l.967-10.032a5.741,5.741,0,0,0,3.739.257,24.509,24.509,0,0,0,4.83-1.8l-.272,7.588S401.785,511.451,399.2,511.065Z" transform="translate(-392.943 -471.487)" fill="#ffd1bd" stroke="#263238" stroke-linecap="round" stroke-linejoin="round" stroke-width="1"/>
          <g id="Grupo_1011337" data-name="Grupo 1011337" transform="translate(29.246 111.882)">
            <path id="Trazado_715461" data-name="Trazado 715461" d="M424.89,574.1s3.113,70.712,3.9,77.112.128,32,1.384,34.909a69.5,69.5,0,0,1,2.605,8.727l-.06,7.273a8.683,8.683,0,0,1-3.379,3.49c-2.008.873-9.188,3.783-10.587,5.527s2.42,2.91,5.329,2.91,9.553-1.456,11-1.746,6.4,0,8.991-.873,3.144-1.746,3.4-2.909,1.256-43.344,1.256-43.344L445.106,607l-.659-33.546-19.7-3.711Z" transform="translate(-418.453 -569.739)" fill="#263238" stroke="#263238" stroke-linecap="round" stroke-linejoin="round" stroke-width="1"/>
            <g id="Grupo_1011336" data-name="Grupo 1011336" transform="translate(0 135.874)">
              <path id="Trazado_715462" data-name="Trazado 715462" d="M439.406,685.737c-2.912-.171-10.067-2.2-10.067-2.2-2.008.873-9.188,3.781-10.587,5.527s2.42,2.91,5.329,2.91,9.553-1.456,11-1.746,6.4,0,8.991-.873,3.144-1.746,3.4-2.909c.032-.153.033-1.015.01-2.389C445.555,684.677,441.565,685.864,439.406,685.737Z" transform="translate(-418.453 -683.533)" fill="#e8e8e8" stroke="#263238" stroke-linecap="round" stroke-linejoin="round" stroke-width="1"/>
              <path id="Trazado_715463" data-name="Trazado 715463" d="M447.466,686.042a3.421,3.421,0,0,0,.023-.444,6.855,6.855,0,0,0-.953.549c-1.473,1.032-6.928,1.475-9.139,1.622s-7.519,2.506-14,2.064c-2.782-.19-4.124-.6-4.752-1-1.015,1.648,2.629,2.735,5.439,2.735,2.909,0,9.553-1.455,11-1.746s6.4,0,8.991-.873S447.211,687.205,447.466,686.042Z" transform="translate(-418.451 -683.132)" fill="#e8e8e8" stroke="#263238" stroke-linecap="round" stroke-linejoin="round" stroke-width="1"/>
            </g>
          </g>
          <g id="Grupo_1011339" data-name="Grupo 1011339" transform="translate(52.5 117.169)">
            <path id="Trazado_715464" data-name="Trazado 715464" d="M438.431,609.255s4.5,41.778,5.185,46.8,3.311,37.284,3.9,39.134a44.571,44.571,0,0,1,1,6.346l-.965,2.909A18.612,18.612,0,0,1,443.226,710c-3.336,3.172-6.484,3.965-4.855,5.288s2.72,2.38,10.353,1.322,10.238-2.38,14.161-3.7,2.33-1.586,2.288-2.907.137-3.967.137-3.967-.053-18.245-1.014-23.533-.628-27.765-.183-30.408-.1-28.294-.1-28.294l.2-46.192-26.023-3.438" transform="translate(-437.928 -574.167)" fill="#263238" stroke="#263238" stroke-linecap="round" stroke-linejoin="round" stroke-width="1"/>
            <g id="Grupo_1011338" data-name="Grupo 1011338" transform="translate(0 130.278)">
              <path id="Trazado_715465" data-name="Trazado 715465" d="M465.173,688.828s-7.711-1.323-10.9-1.852-6.728-3.7-6.728-3.7a18.612,18.612,0,0,1-4.319,5.553c-3.336,3.172-6.484,3.965-4.855,5.288s2.719,2.38,10.353,1.322,10.238-2.38,14.161-3.7S465.215,690.15,465.173,688.828Z" transform="translate(-437.928 -683.275)" fill="#e8e8e8" stroke="#263238" stroke-linecap="round" stroke-linejoin="round" stroke-width="1"/>
              <path id="Trazado_715466" data-name="Trazado 715466" d="M465.173,687.935l-.322-.056a42.217,42.217,0,0,0-4.7,1.807c-1.916,1.032-12.235,3.538-16.511,3.685a13.716,13.716,0,0,1-5.676-1.058c-.1.3.008.59.4.911,1.627,1.322,2.719,2.38,10.353,1.322s10.238-2.38,14.161-3.7S465.215,689.257,465.173,687.935Z" transform="translate(-437.928 -682.382)" fill="#e8e8e8" stroke="#263238" stroke-linecap="round" stroke-linejoin="round" stroke-width="1"/>
            </g>
          </g>
          <path id="Trazado_715467" data-name="Trazado 715467" d="M436.635,521.867s9.1-5.869,18.559-4.593,8.546,4.5,8.546,4.5S455.411,540.981,453,554.409s-3.586,31.28-3.586,31.28-.867,2.528-12.617.632-10.179-7.109-10.179-7.109,3.438-30.964,6.844-38.072S436.635,521.867,436.635,521.867Z" transform="translate(-387.638 -468.072)" fill="#4db1f0" stroke="#263238" stroke-linecap="round" stroke-linejoin="round" stroke-width="1"/>
          <path id="Trazado_715468" data-name="Trazado 715468" d="M450.8,525.547s-11.435,30.85-12.518,41.269-2.818,80.189-2.8,80.7-.242,4.5-.242,4.5-8.059-6.688-9.664-8.617l-1.6-1.93s2.012-48.934,2.016-56.909,5.163-35.756,5.163-35.756l-.21-2.573s-12-1.157-17.334-3.087-11.325-4.245-12.681-6.431-5.085-14.277-5.251-15.435-1.713-9.389-1.713-9.389,13.553-6.56,14.437-7.075a16.5,16.5,0,0,0,2.5-2.315s1.076,17.622,1.088,18.007,6.993,5.531,14.574,5.274,12.25-3.088,16.855-3.859a16.443,16.443,0,0,1,8.123.644Z" transform="translate(-393.96 -470.902)" fill="#fff" stroke="#263238" stroke-linecap="round" stroke-linejoin="round" stroke-width="1"/>
          <path id="Trazado_715469" data-name="Trazado 715469" d="M409.937,521.787s-3.118,7.067-5.926,8.173" transform="translate(-392.01 -467.161)" fill="none" stroke="#263238" stroke-linecap="round" stroke-linejoin="round" stroke-width="1"/>
          <path id="Trazado_715470" data-name="Trazado 715470" d="M407.72,522.678a33.093,33.093,0,0,1-5.261,3.476" transform="translate(-392.311 -466.988)" fill="none" stroke="#263238" stroke-linecap="round" stroke-linejoin="round" stroke-width="1"/>
          <path id="Trazado_715471" data-name="Trazado 715471" d="M394.807,515.252s13.109-5.056,16.148-8.847" transform="translate(-393.796 -470.146)" fill="none" stroke="#263238" stroke-linecap="round" stroke-linejoin="round" stroke-width="1"/>
          <path id="Trazado_715472" data-name="Trazado 715472" d="M450.682,484.364s-.659-2.13-4.294-1.065-16.831,10.295-16.5,13.372,5.18,10.3,5.565,11.242,2.63,8.284,2.595,10.887-1.059,3.906-2,4.024a11.742,11.742,0,0,1-2.49-.118s1.45,4.615,4.682,5.8,4.989.592,6.6-.709a8.417,8.417,0,0,0,3.507-5.089c.967-3.077-4.075-23.9-4.075-23.9s12.473,16.331,16.035,16.685,8.677-9.94,7.624-13.254-1.37-9.586-4.227-13.846S454.5,481.641,450.682,484.364Z" transform="translate(-386.989 -474.687)" fill="#263238" stroke="#263238" stroke-linecap="round" stroke-linejoin="round" stroke-width="1"/>
          <g id="Grupo_1011340" data-name="Grupo 1011340" transform="translate(48.299 17.487)">
            <path id="Trazado_715473" data-name="Trazado 715473" d="M440.232,490.683s-3.044,1.065-3.942,2.6a20.311,20.311,0,0,0-1.821,9.7,120.56,120.56,0,0,0,2.079,13.254,4.541,4.541,0,0,0,4.248,3.313,14.774,14.774,0,0,0,3.18-.473l.656,2.012s-2.285,6.272-1.679,6.745,2.946,3.313,6.241,2.722,6.609-4.26,7.625-5.8,1.055-15.147,1.477-16.8-.73-.592-4.77-4.853c-.55-.579-3.435-2.79-4.133-3.432C444.968,495.607,440.232,490.683,440.232,490.683Z" transform="translate(-434.41 -490.683)" fill="#ffd1bd" stroke="#263238" stroke-linecap="round" stroke-linejoin="round" stroke-width="1"/>
            <path id="Trazado_715474" data-name="Trazado 715474" d="M455.252,501.462l-6.316,1.922s-8.429-.829-10.33-1.065a6.778,6.778,0,0,0-3.531.591l-.4.263a107.459,107.459,0,0,0,1.822,10.979,4.541,4.541,0,0,0,4.248,3.313,14.18,14.18,0,0,0,3.02-.432l.16-.041,6.67-2.367,6.845-.592.191-1.42-6.722.71-.875-8.875,6.248-1.979C455.975,502.171,455.633,501.838,455.252,501.462Z" transform="translate(-434.359 -488.592)" fill="#3076b6" stroke="#263238" stroke-linecap="round" stroke-linejoin="round" stroke-width="1"/>
            <path id="Trazado_715475" data-name="Trazado 715475" d="M443.017,500.264c.021.676-.308,1.223-.736,1.223s-.792-.547-.813-1.223.307-1.223.736-1.223S443,499.589,443.017,500.264Z" transform="translate(-433.041 -489.061)" fill="#263238"/>
            <path id="Trazado_715476" data-name="Trazado 715476" d="M436.662,500.325c.019.581-.255,1.052-.611,1.052s-.662-.47-.679-1.052.256-1.053.611-1.053S436.644,499.744,436.662,500.325Z" transform="translate(-434.224 -489.016)" fill="#263238"/>
            <path id="Trazado_715477" data-name="Trazado 715477" d="M440.024,498.444s1.254-1.538,4.841-.355" transform="translate(-433.321 -489.333)" fill="none" stroke="#263238" stroke-linecap="round" stroke-linejoin="round" stroke-width="1"/>
            <path id="Trazado_715478" data-name="Trazado 715478" d="M435.369,498.413s1.091.829,1.581,1.3.2,2.6.2,2.6" transform="translate(-434.224 -489.183)" fill="none" stroke="#263238" stroke-linecap="round" stroke-linejoin="round" stroke-width="1"/>
            <path id="Trazado_715479" data-name="Trazado 715479" d="M449.092,512.487l-6.014,4.379-.656-2.012Z" transform="translate(-432.856 -486.452)" fill="#263238" stroke="#263238" stroke-linecap="round" stroke-linejoin="round" stroke-width="1"/>
            <line id="Línea_2487" data-name="Línea 2487" x2="1.49" y2="5.917" transform="translate(10.222 30.413)" fill="#fff" stroke="#263238" stroke-linecap="round" stroke-linejoin="round" stroke-width="1"/>
          </g>
          <path id="Trazado_715480" data-name="Trazado 715480" d="M455.913,520.067a113.841,113.841,0,0,0-7.811,17.721c-3.048,9.261-5.175,23.281-7.657,46.3s-.808,70.542-.808,70.542a34.513,34.513,0,0,0,14.977,1.8,127.444,127.444,0,0,0,18.27-3.858s-.224-27.268-.6-39.1-.79-44.045-.79-44.045,3.9-22.9,4.492-28.554,2.628-14.406,1.14-16.721-9.835-5.917-9.835-5.917l-8.6-3.344Z" transform="translate(-385.205 -468.499)" fill="#fff" stroke="#263238" stroke-linecap="round" stroke-linejoin="round" stroke-width="1"/>
          <line id="Línea_2488" data-name="Línea 2488" x1="9.168" y2="0.451" transform="translate(63.717 120.831)" fill="none" stroke="#263238" stroke-linecap="round" stroke-linejoin="round" stroke-width="1"/>
          <path id="Trazado_715481" data-name="Trazado 715481" d="M445.694,574.611l21.783-.429-.63,3.149-7.781.383" transform="translate(-383.922 -456.995)" fill="none" stroke="#263238" stroke-linecap="round" stroke-linejoin="round" stroke-width="1"/>
          <path id="Trazado_715482" data-name="Trazado 715482" d="M452.426,499.039s.82,18.343-1.167,22.839-4.442,5.444-4.442,5.444,2.953,3.55,5.2,3.432,4.922-1.538,7.79-4.378a21.54,21.54,0,0,0,3.98-5.088l4.813,2.485s-.2-2.485-1.8-11.834-1.626-10.177-2.149-11.716-2.111-6.863-2.111-6.863" transform="translate(-383.704 -472.677)" fill="#263238" stroke="#263238" stroke-linecap="round" stroke-linejoin="round" stroke-width="1"/>
          <path id="Trazado_715483" data-name="Trazado 715483" d="M399.847,483.331a49.494,49.494,0,0,0,1.082-6.431c-.045-1.415,1.764-1.158,2.356,1.286a9.634,9.634,0,0,1,.136,4.245Z" transform="translate(-392.818 -476.038)" fill="#3076b6" stroke="#263238" stroke-linecap="round" stroke-linejoin="round" stroke-width="1"/>
          <g id="Grupo_1011341" data-name="Grupo 1011341" transform="translate(8.609 1.52)">
            <path id="Trazado_715484" data-name="Trazado 715484" d="M416.975,513.532l-.638.224-7.882-19.887,1.277-.447Z" transform="translate(-399.756 -474.185)" fill="#fff" stroke="#263238" stroke-linecap="round" stroke-linejoin="round" stroke-width="1"/>
            <path id="Trazado_715485" data-name="Trazado 715485" d="M414.219,503.036l-2.614.915-9.5-25.124,2.614-.915Z" transform="translate(-400.989 -477.194)" fill="#fff" stroke="#263238" stroke-linecap="round" stroke-linejoin="round" stroke-width="1"/>
            <path id="Trazado_715486" data-name="Trazado 715486" d="M415.125,501.9l-4.714,1.651-7.563-20,4.714-1.651Z" transform="translate(-400.844 -476.421)" fill="#fff" stroke="#263238" stroke-linecap="round" stroke-linejoin="round" stroke-width="1"/>
            <path id="Trazado_715487" data-name="Trazado 715487" d="M414.162,499.349,409.448,501l-1.638-4.332,4.714-1.651Z" transform="translate(-399.882 -473.875)" fill="#fff" stroke="#263238" stroke-linecap="round" stroke-linejoin="round" stroke-width="1"/>
            <path id="Trazado_715488" data-name="Trazado 715488" d="M406.014,478.065l-4.559,1.6-.285-.754,4.559-1.6Z" transform="translate(-401.17 -477.311)" fill="#fff" stroke="#263238" stroke-linecap="round" stroke-linejoin="round" stroke-width="1"/>
          </g>
          <g id="Grupo_1011342" data-name="Grupo 1011342" transform="translate(5.248 4.593)">
            <path id="Trazado_715489" data-name="Trazado 715489" d="M404.166,479.884s-6.332,3.087-5.777,4.372,2.837,12.347,2.837,12.347a49.745,49.745,0,0,1-1.617,5.789c-.6,1.286,1.14,3.472,3.6,3.858s5.859-1.8,5.859-1.8.079-1.543.263-3.858-1.977-5.531-1.977-5.531l2.752-2.444h3.216s.735-1.157-.045-1.415-1.43-.515-1.43-.515-1.081-5.66-1.35-6.045-.195-2.057-1.762-2.83S404.166,479.884,404.166,479.884Z" transform="translate(-398.355 -479.884)" fill="#3076b6" stroke="#263238" stroke-linecap="round" stroke-linejoin="round" stroke-width="1"/>
            <path id="Trazado_715490" data-name="Trazado 715490" d="M409.941,484.224s-4.572-2.186-5.6-2.186-3.146,2.186-3.146,2.186" transform="translate(-397.804 -479.466)" fill="none" stroke="#263238" stroke-linecap="round" stroke-linejoin="round" stroke-width="1"/>
            <path id="Trazado_715491" data-name="Trazado 715491" d="M410.08,486.361l-4.933-1.415-2.9,1.929" transform="translate(-397.599 -478.902)" fill="none" stroke="#263238" stroke-linecap="round" stroke-linejoin="round" stroke-width="1"/>
            <path id="Trazado_715492" data-name="Trazado 715492" d="M410.691,489.037l-3.879-.643-2.523,1.543" transform="translate(-397.204 -478.233)" fill="none" stroke="#263238" stroke-linecap="round" stroke-linejoin="round" stroke-width="1"/>
            <path id="Trazado_715493" data-name="Trazado 715493" d="M405.971,492.6s2.539,2.958-.508,4.245" transform="translate(-396.976 -477.418)" fill="none" stroke="#263238" stroke-linecap="round" stroke-linejoin="round" stroke-width="1"/>
          </g>
          <path id="Trazado_715494" data-name="Trazado 715494" d="M418.7,514.533h-4.245l-.1-3.087H418.6Z" transform="translate(-390.003 -469.167)" fill="#fff" stroke="#263238" stroke-linecap="round" stroke-linejoin="round" stroke-width="1"/>
          <path id="Trazado_715495" data-name="Trazado 715495" d="M432.841,523.618l5.408,8.233-8.119,7.588-3.937-10.547S432.352,524.391,432.841,523.618Z" transform="translate(-387.706 -466.806)" fill="#ffd1bd" stroke="#263238" stroke-linecap="round" stroke-linejoin="round" stroke-width="1"/>
          <g id="Grupo_1011343" data-name="Grupo 1011343" transform="translate(16.507 43.213)">
            <path id="Trazado_715496" data-name="Trazado 715496" d="M436.413,525.828a80.523,80.523,0,0,0-4.736-7.331c-1.6-1.93-7.76-5.4-8.81-6.045s-5.266.258-7.822.773-5.158,3.6-5.158,3.6l-1,1.029s-1.3-.258-.88.642,1.451,1.158,2.887,1.8,4.562,1.93,4.562,1.93-7.09-.515-7.472-.386-.357.9,1.216,1.8,9.836,1.93,9.836,1.93,6.264,2.83,7.949,3.216l1.684.386,1.091,1.93S434.724,529.3,436.413,525.828Z" transform="translate(-407.785 -512.228)" fill="#3076b6" stroke="#263238" stroke-linecap="round" stroke-linejoin="round" stroke-width="1"/>
            <path id="Trazado_715497" data-name="Trazado 715497" d="M408.712,516.961s4.626-.129,5.011-.129,4.82,1.93,4.82,1.93" transform="translate(-407.605 -511.335)" fill="none" stroke="#263238" stroke-linecap="round" stroke-linejoin="round" stroke-width="1"/>
            <path id="Trazado_715498" data-name="Trazado 715498" d="M409.546,516.245s6.141-1.029,6.527-1.029,4.639.258,4.639.258" transform="translate(-407.443 -511.649)" fill="none" stroke="#263238" stroke-linecap="round" stroke-linejoin="round" stroke-width="1"/>
          </g>
          <g id="Grupo_1011344" data-name="Grupo 1011344" transform="translate(36.979 54.626)">
            <path id="Trazado_715499" data-name="Trazado 715499" d="M478.035,521.787c1.294.258,3.784,1.673,3.862,4.116s-2.554,16.721-4.389,19.679-22.491,24.825-24.154,25.082-7.733-4.5-12.771-9.261S424.93,542.5,424.93,542.5l12.49-11.7,12.437,14.919a3.339,3.339,0,0,1,.964-2.057,23.852,23.852,0,0,1,2.008-1.544s8.694-13.762,11.969-15.949a18.121,18.121,0,0,1,5.83-2.7" transform="translate(-424.93 -521.787)" fill="#fff" stroke="#263238" stroke-linecap="round" stroke-linejoin="round" stroke-width="1"/>
            <path id="Trazado_715500" data-name="Trazado 715500" d="M427.044,543.262s8.167-6.476,12.761-11.058" transform="translate(-424.52 -519.766)" fill="#fff" stroke="#263238" stroke-linecap="round" stroke-linejoin="round" stroke-width="1"/>
            <path id="Trazado_715501" data-name="Trazado 715501" d="M454.925,547.448a9.827,9.827,0,0,1-1.752,2.93" transform="translate(-419.45 -516.808)" fill="#fff" stroke="#263238" stroke-linecap="round" stroke-linejoin="round" stroke-width="1"/>
            <path id="Trazado_715502" data-name="Trazado 715502" d="M446.907,542.577a61.166,61.166,0,0,1,7.589,3.147" transform="translate(-420.666 -517.753)" fill="#fff" stroke="#263238" stroke-linecap="round" stroke-linejoin="round" stroke-width="1"/>
            <path id="Trazado_715503" data-name="Trazado 715503" d="M447.1,541.72s6.29-.386,8.41,1.544" transform="translate(-420.629 -517.926)" fill="#fff" stroke="#263238" stroke-linecap="round" stroke-linejoin="round" stroke-width="1"/>
          </g>
        </g>
      </g>
      <g id="Character_1" data-name="Character 1" transform="translate(0 109.089)">
        <g id="Grupo_1011358" data-name="Grupo 1011358">
          <g id="Grupo_1011352" data-name="Grupo 1011352" transform="translate(0 37.017)">
            <g id="Grupo_1011346" data-name="Grupo 1011346" transform="translate(48.988 38.794)">
              <path id="Trazado_715504" data-name="Trazado 715504" d="M312.949,651.922l-2.288.493-1.653-2.116,4.575-.986Z" transform="translate(-306.652 -638.369)" fill="#fff" stroke="#263238" stroke-linecap="round" stroke-linejoin="round" stroke-width="1"/>
              <rect id="Rectángulo_347201" data-name="Rectángulo 347201" width="4.68" height="11.062" transform="translate(0 0.986) rotate(-12.158)" fill="#fff" stroke="#263238" stroke-linecap="round" stroke-linejoin="round" stroke-width="1"/>
            </g>
            <g id="Grupo_1011347" data-name="Grupo 1011347" transform="translate(45.214 38.688)">
              <path id="Trazado_715505" data-name="Trazado 715505" d="M306.988,652.347,304.9,651.3l.039-2.685,4.183,2.1Z" transform="translate(-304.896 -638.607)" fill="#fff" stroke="#263238" stroke-linecap="round" stroke-linejoin="round" stroke-width="1"/>
              <rect id="Rectángulo_347202" data-name="Rectángulo 347202" width="4.68" height="11.062" transform="translate(5.06 0) rotate(26.652)" fill="#fff" stroke="#263238" stroke-linecap="round" stroke-linejoin="round" stroke-width="1"/>
            </g>
            <g id="Grupo_1011348" data-name="Grupo 1011348" transform="translate(38.713 35.769)">
              <path id="Trazado_715506" data-name="Trazado 715506" d="M302.626,650.389l-2.091-1.05.038-2.685,4.183,2.1Z" transform="translate(-300.535 -636.649)" fill="#fff" stroke="#263238" stroke-linecap="round" stroke-linejoin="round" stroke-width="1"/>
              <rect id="Rectángulo_347203" data-name="Rectángulo 347203" width="4.68" height="11.062" transform="matrix(0.894, 0.449, -0.449, 0.894, 5.06, 0)" fill="#fff" stroke="#263238" stroke-linecap="round" stroke-linejoin="round" stroke-width="1"/>
            </g>
            <rect id="Rectángulo_347204" data-name="Rectángulo 347204" width="34.876" height="8.493" transform="translate(9.566 71.418)" fill="#263238" stroke="#263238" stroke-linecap="round" stroke-linejoin="round" stroke-width="1"/>
            <g id="Grupo_1011349" data-name="Grupo 1011349" transform="translate(17.914 90.602)">
              <path id="Rectángulo_347205" data-name="Rectángulo 347205" d="M0,0H48.6a8.134,8.134,0,0,1,8.134,8.134v6.558a0,0,0,0,1,0,0H0a0,0,0,0,1,0,0V0A0,0,0,0,1,0,0Z" fill="#fff" stroke="#263238" stroke-linecap="round" stroke-linejoin="round" stroke-width="1"/>
              <line id="Línea_2489" data-name="Línea 2489" x1="41.74" transform="translate(14.549 7.311)" fill="none" stroke="#263238" stroke-linecap="round" stroke-linejoin="round" stroke-width="1"/>
            </g>
            <rect id="Rectángulo_347206" data-name="Rectángulo 347206" width="22.776" height="33.876" transform="translate(9.566 71.418)" fill="#263238" stroke="#263238" stroke-linecap="round" stroke-linejoin="round" stroke-width="1"/>
            <g id="Grupo_1011350" data-name="Grupo 1011350" transform="translate(61.572)">
              <path id="Trazado_715507" data-name="Trazado 715507" d="M362.551,620.6,318.3,638.2l-1.842-4.652,44.256-17.6Z" transform="translate(-315.583 -615.948)" fill="#263238" stroke="#263238" stroke-linecap="round" stroke-linejoin="round" stroke-width="1"/>
              <rect id="Rectángulo_347207" data-name="Rectángulo 347207" width="2.458" height="6.572" transform="translate(28.166 5.952) rotate(-21.597)" fill="#fff" stroke="#263238" stroke-linecap="round" stroke-linejoin="round" stroke-width="1"/>
              <rect id="Rectángulo_347208" data-name="Rectángulo 347208" width="20.702" height="9.738" transform="matrix(0.93, -0.368, 0.368, 0.93, 0, 15.399)" fill="#263238" stroke="#263238" stroke-linecap="round" stroke-linejoin="round" stroke-width="1"/>
            </g>
            <path id="Trazado_715508" data-name="Trazado 715508" d="M346.573,638.214l-6.353,9.317-25.414.848L284.1,701.959s-9.53-14.612-9.53-21.6v-.209a27.775,27.775,0,0,1,4.87-15.548l27.531-40.366h32.191Z" transform="translate(-274.566 -611.882)" fill="#fff" stroke="#263238" stroke-linecap="round" stroke-linejoin="round" stroke-width="1"/>
            <line id="Línea_2490" data-name="Línea 2490" x1="48.498" transform="translate(23.508 26.331)" fill="none" stroke="#263238" stroke-linecap="round" stroke-linejoin="round" stroke-width="1"/>
            <rect id="Rectángulo_347209" data-name="Rectángulo 347209" width="15.884" height="5.083" transform="translate(41.722 7.232)" fill="#263238" stroke="#263238" stroke-linecap="round" stroke-linejoin="round" stroke-width="1"/>
            <g id="Grupo_1011351" data-name="Grupo 1011351" transform="translate(5.631 36.358)">
              <path id="Trazado_715509" data-name="Trazado 715509" d="M282.38,675.007a4.039,4.039,0,0,1-3.464-6.109l15.867-26.59a4.04,4.04,0,0,1,6.938,4.14l-15.867,26.59A4.039,4.039,0,0,1,282.38,675.007Z" transform="translate(-278.344 -640.338)" fill="#263238" stroke="#263238" stroke-linecap="round" stroke-linejoin="round" stroke-width="1"/>
            </g>
            <path id="Trazado_715510" data-name="Trazado 715510" d="M327.223,642.323l-5.8,10.324L301.048,644.5l5.79-9.649Z" transform="translate(-261.571 -606.673)" fill="#263238" stroke="#263238" stroke-linecap="round" stroke-linejoin="round" stroke-width="1"/>
            <rect id="Rectángulo_347210" data-name="Rectángulo 347210" width="32.381" height="2.505" transform="translate(36.097 60.944)" fill="#263238" stroke="#263238" stroke-linecap="round" stroke-linejoin="round" stroke-width="1"/>
            <rect id="Rectángulo_347211" data-name="Rectángulo 347211" width="20.93" height="7.501" transform="translate(36.097 63.554)" fill="#fff" stroke="#263238" stroke-linecap="round" stroke-linejoin="round" stroke-width="1"/>
            <circle id="Elipse_8464" data-name="Elipse 8464" cx="7.501" cy="7.501" r="7.501" transform="translate(18.791 74.443)" fill="#fff" stroke="#263238" stroke-linecap="round" stroke-linejoin="round" stroke-width="1"/>
            <path id="Trazado_715511" data-name="Trazado 715511" d="M305.211,667.626a3.315,3.315,0,1,0-3.314,3.314A3.315,3.315,0,0,0,305.211,667.626Z" transform="translate(-262.781 -592.216)" fill="#fff" stroke="#263238" stroke-linecap="round" stroke-linejoin="round" stroke-width="1"/>
          </g>
          <g id="Grupo_1011357" data-name="Grupo 1011357" transform="translate(65.745)">
            <path id="Trazado_715512" data-name="Trazado 715512" d="M374.984,683.635l-56.316,7.039,32.18,8.045,48.941-6.7Z" transform="translate(-318.668 -545.716)" fill="#fff" stroke="#263238" stroke-linecap="round" stroke-linejoin="round" stroke-width="1"/>
            <g id="Grupo_1011356" data-name="Grupo 1011356" transform="translate(17.478)">
              <path id="Trazado_715513" data-name="Trazado 715513" d="M373.109,606.818s10.121-3.463,16.936-.769c8.275,3.272,15.779,13.278,17.319,23.093s.962,14.049.962,14.049l-22.9-7.121s-2.694-15.972-6.35-20.013a33.35,33.35,0,0,0-5.772-5.389Z" transform="translate(-309.431 -584.293)" fill="#263238" stroke="#263238" stroke-linecap="round" stroke-linejoin="round" stroke-width="1"/>
              <path id="Trazado_715514" data-name="Trazado 715514" d="M361.223,636.629s-10.4,16.924-11.122,18.859.242,14.266-.241,15.475-6.045,10.881-6.528,11.605-6.529,8.947-7.98,13.783-2.177,17.409-2.177,17.409l15.475,4.353s8.946-11.607,10.155-13.542,3.144-12.814,3.627-13.54,2.659-5.077,2.659-5.077l12.09,17.167,2.9,10.156.241,4.11h53.437s-4.11-74.231-4.353-77.616-.242-7.5-1.692-8.7-20.553-10.639-29.257-11.848S364.608,630.342,361.223,636.629Z" transform="translate(-329.028 -577.367)" fill="#fff" stroke="#263238" stroke-linecap="round" stroke-linejoin="round" stroke-width="1"/>
              <path id="Trazado_715515" data-name="Trazado 715515" d="M346.721,619.031s-8.853-7.12-9.238-8.275,13.279-15.2,18.09-16.742,17.9-5.966,26.556.577c5.8,4.386,7.89,18.475,8.661,21.554s-3.919,10.474-5.358,11.927c-3.451,3.487-2.539,1.172-2.539,1.172s1.16-1.169-1.919-1.553-12.509-3.657-13.664-4.618-19.052-9.815-19.052-9.815Z" transform="translate(-326.918 -591.117)" fill="#263238" stroke="#263238" stroke-linecap="round" stroke-linejoin="round" stroke-width="1"/>
              <path id="Trazado_715516" data-name="Trazado 715516" d="M358.2,637.594l-.578,10.584,5.2,2.309-3.272,3.271,10.584,9.623,14.626-14.241-4.234-2.5,11.932-2.117s-.962-19.628-1.732-22.324-2.117-4.811-2.694-5.2-5.774-.577-5.774-.577S363.584,627.395,358.2,637.594Z" transform="translate(-317.033 -578.697)" fill="#fff" stroke="#263238" stroke-linecap="round" stroke-linejoin="round" stroke-width="1"/>
              <path id="Trazado_715517" data-name="Trazado 715517" d="M343.364,608.418s-1.732,14.049-1.348,15.2a50.183,50.183,0,0,0,2.5,4.811s-1.348,10.007-.386,10.584,5,.577,5,.577,3.849,9.43,5.58,10.584,11.163-3.271,11.163-3.271l11.546,17.9s2.887-4.234,6.929-15.587a117.066,117.066,0,0,0,5.319-20.15l-7.81-3.906L378,623.236l-6.158-4.426a1.575,1.575,0,0,1-1.732,1.54c-1.732,0-4.426-3.272-4.426-3.272s-6.543-5.2-9.43-6.735a37.374,37.374,0,0,1-4.426-2.694l11.547-10.2-11.355,7.89Z" transform="translate(-324.716 -588.01)" fill="#ffd1bd" stroke="#263238" stroke-linecap="round" stroke-linejoin="round" stroke-width="1"/>
              <path id="Trazado_715518" data-name="Trazado 715518" d="M349.053,627.239A7.308,7.308,0,0,0,353,626.11" transform="translate(-321.236 -573.945)" fill="none" stroke="#263238" stroke-linecap="round" stroke-linejoin="round" stroke-width="1"/>
              <path id="Trazado_715519" data-name="Trazado 715519" d="M346.517,613.7a7.155,7.155,0,0,1,6.543-.577" transform="translate(-322.48 -580.593)" fill="none" stroke="#263238" stroke-linecap="round" stroke-linejoin="round" stroke-width="2"/>
              <path id="Trazado_715520" data-name="Trazado 715520" d="M372.026,610.746l-12.7,5-18.473,2.886s-.31,1.61.678,2.033" transform="translate(-325.283 -581.485)" fill="none" stroke="#263238" stroke-linecap="round" stroke-linejoin="round" stroke-width="1"/>
              <path id="Trazado_715521" data-name="Trazado 715521" d="M356.966,614.1s.771,6.735-1.154,8.467a7.819,7.819,0,0,1-5.966,1.732c-1.348-.192-3.657-5.774-4.234-7.121" transform="translate(-322.924 -579.838)" fill="none" stroke="#263238" stroke-linecap="round" stroke-linejoin="round" stroke-width="1"/>
              <path id="Trazado_715522" data-name="Trazado 715522" d="M360.458,616.447s2.7-7.313,4.234-7.506,5,2.309,4.62,6.158-1.732,5.774-2.888,6.543-4.426.385-4.426.385" transform="translate(-315.639 -582.375)" fill="#ffd1bd" stroke="#263238" stroke-linecap="round" stroke-linejoin="round" stroke-width="1"/>
              <path id="Trazado_715523" data-name="Trazado 715523" d="M358.006,631.829l5.2-3.656.83,5.535Z" transform="translate(-316.843 -572.933)" fill="#263238" stroke="#263238" stroke-linecap="round" stroke-linejoin="round" stroke-width="1"/>
              <path id="Trazado_715524" data-name="Trazado 715524" d="M351.133,616.872c.139.959-.253,1.81-.875,1.9s-1.239-.614-1.379-1.574.253-1.811.875-1.9S350.993,615.912,351.133,616.872Z" transform="translate(-321.335 -579.255)" fill="#263238"/>
              <g id="Grupo_1011354" data-name="Grupo 1011354" transform="translate(27.298 130.538)">
                <g id="Grupo_1011353" data-name="Grupo 1011353">
                  <path id="Trazado_715525" data-name="Trazado 715525" d="M390.8,679.106,373.245,680.3s-13.8-2.045-15-1.534-5.624,4.942-6.647,6.306a43.587,43.587,0,0,0-2.9,5.964s4.089,2.215,5.453,2.215,5.623.341,6.134.341,6.989-3.749,6.989-3.749-4.432,4.26-4.091,4.772a3.628,3.628,0,0,0,3.408.51c1.194-.51,6.306-3.578,6.306-3.578s6.817,1.7,9.032,1.363,7.668-4.772,7.668-4.772l3.579-.17S394.037,681.662,390.8,679.106Z" transform="translate(-348.705 -678.684)" fill="#3076b6" stroke="#263238" stroke-linecap="round" stroke-linejoin="round" stroke-width="1"/>
                  <path id="Trazado_715526" data-name="Trazado 715526" d="M353.163,691.654s11.248-8.862,12.1-9.032l3.408-.681" transform="translate(-346.517 -677.086)" fill="#3076b6" stroke="#263238" stroke-linecap="round" stroke-linejoin="round" stroke-width="1"/>
                  <path id="Trazado_715527" data-name="Trazado 715527" d="M350.42,691.247s8.861-9.2,10.053-9.885a11.573,11.573,0,0,1,2.557-1.023" transform="translate(-347.863 -677.872)" fill="#3076b6" stroke="#263238" stroke-linecap="round" stroke-linejoin="round" stroke-width="1"/>
                </g>
                <path id="Trazado_715528" data-name="Trazado 715528" d="M361.166,687.516l4.6-3.749,2.386-.341" transform="translate(-342.59 -676.357)" fill="#3076b6" stroke="#263238" stroke-linecap="round" stroke-linejoin="round" stroke-width="1"/>
              </g>
              <path id="Trazado_715529" data-name="Trazado 715529" d="M395.336,642.759s-5.077,22.728-3.868,26.6,10.156,23.7,10.156,23.7-4.111,2.418-4.111,3.385.241,2.9.241,2.9l-22.245,6.045s1.935,1.209,3.385,6.529a26.1,26.1,0,0,1,.967,9.187s25.872-2.659,36.268-5.319a17.936,17.936,0,0,0,13.3-12.816c.484-1.692.484-6.286.484-7.254s-17.652-61.174-19.827-64.8-12.333-6.528-12.333-6.528" transform="translate(-308.253 -574.793)" fill="#fff" stroke="#263238" stroke-linecap="round" stroke-linejoin="round" stroke-width="1"/>
              <path id="Trazado_715530" data-name="Trazado 715530" d="M401.7,668.921a25.726,25.726,0,0,1,3.514.107" transform="translate(-295.401 -552.945)" fill="none" stroke="#263238" stroke-linecap="round" stroke-linejoin="round" stroke-width="1"/>
              <path id="Trazado_715531" data-name="Trazado 715531" d="M394.486,670.877a39.515,39.515,0,0,1,7.768-1.8" transform="translate(-298.941 -552.859)" fill="none" stroke="#263238" stroke-linecap="round" stroke-linejoin="round" stroke-width="1"/>
              <path id="Trazado_715532" data-name="Trazado 715532" d="M391.729,674.217s3.627-.968,11.848,2.659" transform="translate(-300.294 -550.395)" fill="none" stroke="#263238" stroke-linecap="round" stroke-linejoin="round" stroke-width="1"/>
              <path id="Trazado_715533" data-name="Trazado 715533" d="M355.045,643.528s-.853,18.406-.853,23.859.586,6.6.586,6.6" transform="translate(-318.714 -565.398)" fill="none" stroke="#263238" stroke-linecap="round" stroke-linejoin="round" stroke-width="1"/>
              <path id="Trazado_715534" data-name="Trazado 715534" d="M356.1,648.859s-3.238-5.283-5.113-6.817" transform="translate(-320.285 -566.127)" fill="none" stroke="#263238" stroke-linecap="round" stroke-linejoin="round" stroke-width="1"/>
              <path id="Trazado_715535" data-name="Trazado 715535" d="M344.932,655.646s5.453,7.67,11.589,10.566" transform="translate(-323.258 -559.451)" fill="none" stroke="#263238" stroke-linecap="round" stroke-linejoin="round" stroke-width="1"/>
              <path id="Trazado_715536" data-name="Trazado 715536" d="M343.992,664.317a23.493,23.493,0,0,1,10.264,5.139" transform="translate(-323.72 -555.196)" fill="none" stroke="#263238" stroke-linecap="round" stroke-linejoin="round" stroke-width="1"/>
              <path id="Trazado_715537" data-name="Trazado 715537" d="M339.9,663.649a29.648,29.648,0,0,1,3.078.367" transform="translate(-325.727 -555.524)" fill="none" stroke="#263238" stroke-linecap="round" stroke-linejoin="round" stroke-width="1"/>
              <path id="Trazado_715538" data-name="Trazado 715538" d="M345.161,661.477s6.134,3.238,8.521,7.157" transform="translate(-323.146 -556.59)" fill="none" stroke="#263238" stroke-linecap="round" stroke-linejoin="round" stroke-width="1"/>
              <path id="Trazado_715539" data-name="Trazado 715539" d="M376.2,671.782a21.606,21.606,0,0,0,1.787,3.213" transform="translate(-307.914 -551.533)" fill="none" stroke="#263238" stroke-linecap="round" stroke-linejoin="round" stroke-width="1"/>
              <path id="Trazado_715540" data-name="Trazado 715540" d="M393.792,661.019s-13.974,5.964-20.28,6.817c0,0,1.368,3.421,2.852,6.734" transform="translate(-309.233 -556.814)" fill="none" stroke="#263238" stroke-linecap="round" stroke-linejoin="round" stroke-width="1"/>
              <path id="Trazado_715541" data-name="Trazado 715541" d="M366.13,668.535c.73,1.65,1.291,2.77,1.291,2.77" transform="translate(-312.856 -553.126)" fill="none" stroke="#263238" stroke-linecap="round" stroke-linejoin="round" stroke-width="1"/>
              <path id="Trazado_715542" data-name="Trazado 715542" d="M365.952,649.816s-2.727,13.974-1.874,18.746a37.664,37.664,0,0,0,2.178,6.889" transform="translate(-313.944 -562.312)" fill="none" stroke="#263238" stroke-linecap="round" stroke-linejoin="round" stroke-width="1"/>
              <path id="Trazado_715543" data-name="Trazado 715543" d="M349.188,676.616s-.541,8.8-.677,10.425-1.895,3.927-1.895,3.927a3.427,3.427,0,0,1-.677,2.573c-.948,1.218-4.062,3.386-5.01,2.573s-4.6-1.761-5.009-1.761-2.573.812-2.437-1.761,3.655-12.321,4.6-12.862,4.875-1.489,5.957-2.437S348.647,674.991,349.188,676.616Z" transform="translate(-328.88 -549.532)" fill="#3076b6" stroke="#263238" stroke-linecap="round" stroke-linejoin="round" stroke-width="1"/>
              <g id="Grupo_1011355" data-name="Grupo 1011355" transform="translate(0 125.395)">
                <path id="Trazado_715544" data-name="Trazado 715544" d="M337,675.569s-3.657,2.166-3.792,3.25,3.927,7.852,5.146,8.394a2.79,2.79,0,0,0,3.384-2.032c.136-1.354-2.843-9.612-3.248-9.884S337.678,675.705,337,675.569Z" transform="translate(-329.013 -675.234)" fill="#3076b6" stroke="#263238" stroke-linecap="round" stroke-linejoin="round" stroke-width="1"/>
                <path id="Trazado_715545" data-name="Trazado 715545" d="M335.046,679.183s-4.061,5.28-3.925,6.769,1.218,2.707,1.895,2.707,7.041,2.3,7.718,2.3,2.437-.541,2.3-1.76-3.655-3.925-3.655-3.925Z" transform="translate(-330.037 -673.296)" fill="#3076b6" stroke="#263238" stroke-linecap="round" stroke-linejoin="round" stroke-width="1"/>
                <path id="Trazado_715546" data-name="Trazado 715546" d="M331.882,684.541l-1.489,3.655s1.489,3.114,2.166,3.25a55.635,55.635,0,0,0,7.989-.948c.813-.27,1.625-.812,1.625-1.489,0,0-2.437-1.082-3.114-1.354s-5.687-1.625-5.687-1.625Z" transform="translate(-330.393 -670.667)" fill="#3076b6" stroke="#263238" stroke-linecap="round" stroke-linejoin="round" stroke-width="1"/>
                <path id="Trazado_715547" data-name="Trazado 715547" d="M331.846,689.975s2.978,1.761,3.655,1.761,5.552-.677,6.228-1.354,1.489-1.625,1.084-2.032a5.619,5.619,0,0,0-1.354-.812l-1.625,1.489Z" transform="translate(-329.68 -669.196)" fill="#3076b6" stroke="#263238" stroke-linecap="round" stroke-linejoin="round" stroke-width="1"/>
              </g>
              <path id="Trazado_715548" data-name="Trazado 715548" d="M333.753,667.734l8.8,23.558,1.76,2.031.135-2.708-8.936-23.694Z" transform="translate(-328.744 -553.918)" fill="#fff" stroke="#263238" stroke-linecap="round" stroke-linejoin="round" stroke-width="1"/>
              <path id="Trazado_715549" data-name="Trazado 715549" d="M340.569,673.933s-1.366,7.588-.759,8.347,2.883,2.427,3.794,1.82,2.883-7.738,2.883-8.649S343.452,673.478,340.569,673.933Z" transform="translate(-325.848 -550.531)" fill="#3076b6" stroke="#263238" stroke-linecap="round" stroke-linejoin="round" stroke-width="1"/>
            </g>
          </g>
        </g>
      </g>
    </g>
  </g>
</svg>
