<svg xmlns="http://www.w3.org/2000/svg" width="251" height="66" viewBox="0 0 251 66">
  <g id="Grupo_1013260" data-name="Grupo 1013260" transform="translate(5645 6385)">
    <path id="Trazado_716088" data-name="Trazado 716088" d="M0,0H251V66H0Z" transform="translate(-5645 -6385)" fill="#f6f6f6"/>
    <path id="Trazado_716089" data-name="Trazado 716089" d="M0,0H59" transform="translate(-5579 -6352)" fill="none" stroke="#707070" stroke-width="1.5"/>
    <path id="Trazado_716090" data-name="Trazado 716090" d="M0,0H59" transform="translate(-5493 -6352)" fill="none" stroke="#707070" stroke-width="1.5"/>
    <path id="Trazado_716091" data-name="Trazado 716091" d="M7.379,6.469,7.012,8.547H8.418L8.129,10.2H6.723L6,14.438a1.077,1.077,0,0,0,.063.609q.109.211.531.227.125.008.672-.039l-.156,1.727a3.706,3.706,0,0,1-1.266.18,1.985,1.985,0,0,1-1.617-.68,2.456,2.456,0,0,1-.437-1.8L4.52,10.2h-1.2l.289-1.656h1.2l.359-2.078Zm12.781,4.7H13.371L13.7,9.328h6.789Zm-.586,3.383H12.785l.328-1.844H19.9Z" transform="translate(-5610 -6363)" fill="#12263f"/>
    <path id="Trazado_716092" data-name="Trazado 716092" d="M11.508,9.449,9.227,8.731,9.891,7.4l2.242,1,.336-2.778h1.5l-.625,2.708,2.4-.921.2,1.506-2.562.695,1.258,2.125-1.258.813L12.4,10.262l-1.734,2.172L9.5,11.5Z" transform="translate(-5518 -6360)" fill="#12263f"/>
    <path id="Trazado_716093" data-name="Trazado 716093" d="M13.8,17h-2.2l1.5-8.656-2.766.836.344-1.93,4.75-1.641.289-.008Zm7.508.156a2.884,2.884,0,0,1-2.281-1,4.205,4.205,0,0,1-.828-2.7,8.6,8.6,0,0,1,.063-1.156l.32-2.133a6.638,6.638,0,0,1,1.508-3.531,3.652,3.652,0,0,1,2.883-1.164,2.9,2.9,0,0,1,2.285,1,4.161,4.161,0,0,1,.832,2.691,8.673,8.673,0,0,1-.062,1.164L25.7,12.438a6.781,6.781,0,0,1-1.5,3.551A3.63,3.63,0,0,1,21.3,17.156ZM23.953,8.9q0-1.552-1.094-1.606-1.578-.07-2.008,2.4l-.391,2.635a9.494,9.494,0,0,0-.125,1.372q-.039,1.583,1.086,1.637,1.586.1,2.016-2.472l.414-2.776A8.178,8.178,0,0,0,23.953,8.9Zm6.336,8.261a2.884,2.884,0,0,1-2.281-1,4.205,4.205,0,0,1-.828-2.7,8.6,8.6,0,0,1,.063-1.156l.32-2.133A6.638,6.638,0,0,1,29.07,6.633a3.652,3.652,0,0,1,2.883-1.164,2.9,2.9,0,0,1,2.285,1,4.161,4.161,0,0,1,.832,2.691,8.673,8.673,0,0,1-.062,1.164l-.328,2.117a6.781,6.781,0,0,1-1.5,3.551A3.63,3.63,0,0,1,30.289,17.156ZM32.938,8.9q0-1.552-1.094-1.606-1.578-.07-2.008,2.4l-.391,2.635A9.494,9.494,0,0,0,29.32,13.7q-.039,1.583,1.086,1.637,1.586.1,2.016-2.472l.414-2.776A8.178,8.178,0,0,0,32.938,8.9Zm6.336,8.261a2.884,2.884,0,0,1-2.281-1,4.205,4.205,0,0,1-.828-2.7,8.6,8.6,0,0,1,.063-1.156l.32-2.133a6.638,6.638,0,0,1,1.508-3.531,3.652,3.652,0,0,1,2.883-1.164,2.9,2.9,0,0,1,2.285,1,4.161,4.161,0,0,1,.832,2.691,8.673,8.673,0,0,1-.062,1.164l-.328,2.117a6.781,6.781,0,0,1-1.5,3.551A3.63,3.63,0,0,1,39.273,17.156ZM41.922,8.9q0-1.552-1.094-1.606-1.578-.07-2.008,2.4l-.391,2.635A9.495,9.495,0,0,0,38.3,13.7q-.039,1.583,1.086,1.637,1.586.1,2.016-2.472l.414-2.776A8.178,8.178,0,0,0,41.922,8.9Zm11.414,5.722q.125-.625-.867-.906l-.711-.18q-2.523-.7-2.453-2.453a2.428,2.428,0,0,1,1.059-1.949,3.942,3.942,0,0,1,2.457-.738,3.536,3.536,0,0,1,2.313.758,2.5,2.5,0,0,1,.9,1.977l-2.187-.008a.963.963,0,0,0-1.078-1.1,1.552,1.552,0,0,0-.895.258,1.061,1.061,0,0,0-.465.7q-.117.625.945.883l.313.07a6.285,6.285,0,0,1,1.648.59,2.488,2.488,0,0,1,.879.824,2.04,2.04,0,0,1,.285,1.18,2.251,2.251,0,0,1-.52,1.406,3.18,3.18,0,0,1-1.359.93,4.736,4.736,0,0,1-1.816.3,3.568,3.568,0,0,1-2.344-.809,2.607,2.607,0,0,1-.953-2.051l2.078.016a1.142,1.142,0,0,0,1.3,1.227,1.845,1.845,0,0,0,1-.25A.987.987,0,0,0,53.336,14.617ZM25.371,41.156a2.884,2.884,0,0,1-2.281-1,4.205,4.205,0,0,1-.828-2.7,8.6,8.6,0,0,1,.063-1.156l.32-2.133a6.638,6.638,0,0,1,1.508-3.531,3.652,3.652,0,0,1,2.883-1.164,2.9,2.9,0,0,1,2.285,1,4.161,4.161,0,0,1,.832,2.691,8.673,8.673,0,0,1-.062,1.164l-.328,2.117a6.781,6.781,0,0,1-1.5,3.551A3.63,3.63,0,0,1,25.371,41.156ZM28.02,32.9q0-1.552-1.094-1.606-1.578-.07-2.008,2.4l-.391,2.635A9.494,9.494,0,0,0,24.4,37.7q-.039,1.583,1.086,1.637,1.586.1,2.016-2.472l.414-2.776A8.178,8.178,0,0,0,28.02,32.9Zm2.789,10.956-1.164-.633.57-.914a4.9,4.9,0,0,0,.641-1.57l.289-1.656H33l-.227,1.438A5.172,5.172,0,0,1,30.809,43.852Zm10.8-7.133h1.25l-.32,1.82h-1.25L40.855,41h-2.2l.43-2.461H34.566L34.723,37l5.8-7.375h2.3ZM37.012,36.7l2.391.016.773-4.047-.2.281Z" transform="translate(-5580 -6374)" fill="#12263f"/>
    <path id="Trazado_716094" data-name="Trazado 716094" d="M15.559,17h-2.2l1.5-8.656L12.09,9.18l.344-1.93,4.75-1.641.289-.008Zm11.2-8.461-.18.961a3.112,3.112,0,0,1,2.477-1.109,2.379,2.379,0,0,1,1.3.359,1.679,1.679,0,0,1,.7.93,3.255,3.255,0,0,1,2.625-1.289,2.126,2.126,0,0,1,1.754.8,3.271,3.271,0,0,1,.5,2.234l-.016.2L35.012,17H32.8l.9-5.4a3.908,3.908,0,0,0,.023-.54.837.837,0,0,0-.937-.845,1.86,1.86,0,0,0-1.555.97l-.023.18L30.223,17h-2.2l.9-5.383a3.9,3.9,0,0,0,.023-.539.836.836,0,0,0-.93-.852,1.867,1.867,0,0,0-1.508.789L25.449,17h-2.2l1.461-8.453ZM39.09,17H36.871L38.34,8.547h2.219ZM38.6,6.4a1.1,1.1,0,0,1,.344-.867,1.323,1.323,0,0,1,1.734-.039,1.1,1.1,0,0,1,.383.828,1.132,1.132,0,0,1-.324.844,1.215,1.215,0,0,1-.887.375,1.235,1.235,0,0,1-.863-.3A1.091,1.091,0,0,1,38.6,6.4Zm5.844,2.141-.187,1a3.042,3.042,0,0,1,2.461-1.148,2.028,2.028,0,0,1,1.766.875,3.526,3.526,0,0,1,.414,2.359L48,17H45.8l.906-5.4a2.528,2.528,0,0,0,.016-.555.9.9,0,0,0-1-.82,1.9,1.9,0,0,0-1.555.8L43.113,17h-2.2l1.469-8.453ZM22.758,29.5l-.172,1.867-.43.008a4.28,4.28,0,0,0-3.867,2.953,3.049,3.049,0,0,1,2.289-.93,2.518,2.518,0,0,1,1.559.516,2.868,2.868,0,0,1,.934,1.367,4.677,4.677,0,0,1,.211,1.914,4.54,4.54,0,0,1-.668,2.043,4.039,4.039,0,0,1-1.5,1.438,3.915,3.915,0,0,1-2.008.488,3.276,3.276,0,0,1-1.918-.629A3.391,3.391,0,0,1,16.016,38.9a5.156,5.156,0,0,1-.242-2.266l.086-.7a7.646,7.646,0,0,1,2.152-4.684A6.109,6.109,0,0,1,22.461,29.5Zm-2.93,5.7a1.734,1.734,0,0,0-1.023.282,2.541,2.541,0,0,0-.75.759l-.1.7a5.964,5.964,0,0,0-.031.767,2.062,2.062,0,0,0,.336,1.182,1.069,1.069,0,0,0,.906.454,1.5,1.5,0,0,0,1.055-.376,2.33,2.33,0,0,0,.7-1.072,3.145,3.145,0,0,0,.148-1.37,1.68,1.68,0,0,0-.395-.967A1.117,1.117,0,0,0,19.828,35.2Zm7.961,5.961a2.884,2.884,0,0,1-2.281-1,4.205,4.205,0,0,1-.828-2.7,8.6,8.6,0,0,1,.063-1.156l.32-2.133a6.638,6.638,0,0,1,1.508-3.531,3.652,3.652,0,0,1,2.883-1.164,2.9,2.9,0,0,1,2.285,1,4.161,4.161,0,0,1,.832,2.691,8.673,8.673,0,0,1-.062,1.164l-.328,2.117a6.781,6.781,0,0,1-1.5,3.551A3.63,3.63,0,0,1,27.789,41.156ZM30.438,32.9q0-1.552-1.094-1.606-1.578-.07-2.008,2.4l-.391,2.635A9.494,9.494,0,0,0,26.82,37.7q-.039,1.583,1.086,1.637,1.586.1,2.016-2.472l.414-2.776A8.178,8.178,0,0,0,30.438,32.9Zm11.414,5.722q.125-.625-.867-.906l-.711-.18q-2.523-.7-2.453-2.453a2.428,2.428,0,0,1,1.059-1.949,3.942,3.942,0,0,1,2.457-.738,3.536,3.536,0,0,1,2.313.758,2.5,2.5,0,0,1,.9,1.977l-2.187-.008a.963.963,0,0,0-1.078-1.1,1.551,1.551,0,0,0-.895.258,1.061,1.061,0,0,0-.465.7q-.117.625.945.883l.313.07a6.285,6.285,0,0,1,1.648.59,2.488,2.488,0,0,1,.879.824,2.04,2.04,0,0,1,.285,1.18,2.251,2.251,0,0,1-.52,1.406,3.18,3.18,0,0,1-1.359.93,4.736,4.736,0,0,1-1.816.3,3.568,3.568,0,0,1-2.344-.809A2.607,2.607,0,0,1,37,38.3l2.078.016a1.142,1.142,0,0,0,1.3,1.227,1.845,1.845,0,0,0,1-.25A.988.988,0,0,0,41.852,38.617Z" transform="translate(-5494 -6374)" fill="#12263f"/>
  </g>
</svg>
