<svg xmlns="http://www.w3.org/2000/svg" width="556.962" height="224.325" viewBox="0 0 556.962 224.325">
  <g id="Grupo_1013247" data-name="Grupo 1013247" transform="translate(-800 -2921.435)">
    <path id="Trazado_715982" data-name="Trazado 715982" d="M0,0H381V74H0Z" transform="translate(800 2935)" fill="#f6f6f6"/>
    <path id="Trazado_715983" data-name="Trazado 715983" d="M7.727,17h-2.2l1.5-8.656L4.258,9.18,4.6,7.25l4.75-1.641L9.641,5.6Zm3.961,2.852-1.164-.633.57-.914a4.9,4.9,0,0,0,.641-1.57l.289-1.656h1.859l-.227,1.438A5.172,5.172,0,0,1,11.688,19.852ZM23.938,8.586a3.118,3.118,0,0,1-1.953,2.6,2.864,2.864,0,0,1,1.266,2.625,3.227,3.227,0,0,1-1.242,2.453,4.309,4.309,0,0,1-2.859.891,3.576,3.576,0,0,1-2.5-.891,2.765,2.765,0,0,1-.855-2.312,3.31,3.31,0,0,1,2.227-2.859,2.7,2.7,0,0,1-1.07-2.383A3.274,3.274,0,0,1,18.91,5.844a4.279,4.279,0,0,1,1.9-.375,3.315,3.315,0,0,1,2.344.879A2.736,2.736,0,0,1,23.938,8.586Zm-2.859,5.067a1.489,1.489,0,0,0-.242-1.115,1.166,1.166,0,0,0-.969-.46,1.677,1.677,0,0,0-1.223.46,2,2,0,0,0-.613,1.247,1.462,1.462,0,0,0,.238,1.1,1.185,1.185,0,0,0,.98.448,1.675,1.675,0,0,0,1.223-.452A1.974,1.974,0,0,0,21.078,13.652ZM21.711,8.7a1.423,1.423,0,0,0-.2-1.017.976.976,0,0,0-.812-.393,1.38,1.38,0,0,0-1.047.409,1.843,1.843,0,0,0-.516,1.126,1.534,1.534,0,0,0,.191,1.032.939.939,0,0,0,.816.417,1.371,1.371,0,0,0,1.047-.425A1.9,1.9,0,0,0,21.711,8.7ZM33.8,10.633h2.734l-.359,2.039H33.453L32.9,15.859H30.8l.555-3.187H28.6l.359-2.039H31.7l.531-3.055h2.1ZM48.32,17H40.742L41,15.359l4.039-3.789A8.947,8.947,0,0,0,46.688,9.68a2.214,2.214,0,0,0,.3-1.422,1.061,1.061,0,0,0-1.117-.992,1.6,1.6,0,0,0-1.254.523A2.453,2.453,0,0,0,44.008,9.2l-2.2.008a3.889,3.889,0,0,1,2.152-3.277,4.405,4.405,0,0,1,2.051-.473,3.5,3.5,0,0,1,2.469.891,2.756,2.756,0,0,1,.781,2.289A5.546,5.546,0,0,1,47.359,12l-1.125,1.07-2.328,2.094,4.7.016Zm1.641,2.852L48.8,19.219l.57-.914a4.9,4.9,0,0,0,.641-1.57l.289-1.656h1.859l-.227,1.438A5.172,5.172,0,0,1,49.961,19.852Zm10.8-7.133h1.25l-.32,1.82h-1.25L60.008,17H57.8l.43-2.461H53.719L53.875,13l5.8-7.375h2.3ZM56.164,12.7l2.391.016.773-4.047-.2.281Zm15.914-2.07h2.734l-.359,2.039H71.727l-.555,3.188h-2.1l.555-3.187h-2.75l.359-2.039h2.742l.531-3.055h2.1ZM86.594,17H79.016l.258-1.641,4.039-3.789A8.947,8.947,0,0,0,84.961,9.68a2.214,2.214,0,0,0,.3-1.422,1.061,1.061,0,0,0-1.117-.992,1.6,1.6,0,0,0-1.254.523A2.453,2.453,0,0,0,82.281,9.2l-2.2.008A3.889,3.889,0,0,1,82.23,5.934a4.405,4.405,0,0,1,2.051-.473,3.5,3.5,0,0,1,2.469.891,2.756,2.756,0,0,1,.781,2.289A5.546,5.546,0,0,1,85.633,12l-1.125,1.07L82.18,15.164l4.7.016ZM97.5,10.633h2.734l-.359,2.039H97.148l-.555,3.188h-2.1l.555-3.187H92.3l.359-2.039H95.4l.531-3.055h2.1ZM109.7,17h-2.2l1.5-8.656-2.766.836.344-1.93,4.75-1.641.289-.008Zm3.961,2.852-1.164-.633.57-.914a4.9,4.9,0,0,0,.641-1.57l.289-1.656h1.859l-.227,1.438A5.172,5.172,0,0,1,113.656,19.852ZM125.023,5.5l-.172,1.867-.43.008a4.28,4.28,0,0,0-3.867,2.953,3.049,3.049,0,0,1,2.289-.93,2.518,2.518,0,0,1,1.559.516,2.868,2.868,0,0,1,.934,1.367,4.677,4.677,0,0,1,.211,1.914,4.54,4.54,0,0,1-.668,2.043,4.039,4.039,0,0,1-1.5,1.438,3.915,3.915,0,0,1-2.008.488,3.276,3.276,0,0,1-1.918-.629,3.391,3.391,0,0,1-1.168-1.637,5.156,5.156,0,0,1-.242-2.266l.086-.7a7.646,7.646,0,0,1,2.152-4.684A6.109,6.109,0,0,1,124.727,5.5Zm-2.93,5.7a1.734,1.734,0,0,0-1.023.282,2.54,2.54,0,0,0-.75.759l-.1.7a5.964,5.964,0,0,0-.031.767,2.062,2.062,0,0,0,.336,1.182,1.069,1.069,0,0,0,.906.454,1.5,1.5,0,0,0,1.055-.376,2.33,2.33,0,0,0,.7-1.072,3.145,3.145,0,0,0,.148-1.37,1.68,1.68,0,0,0-.395-.967A1.117,1.117,0,0,0,122.094,11.2Zm13.68-.562h2.734l-.359,2.039h-2.727l-.555,3.188h-2.1l.555-3.187h-2.75l.359-2.039h2.742l.531-3.055h2.1ZM147.969,17h-2.2l1.5-8.656L144.5,9.18l.344-1.93,4.75-1.641.289-.008Zm3.961,2.852-1.164-.633.57-.914a4.9,4.9,0,0,0,.641-1.57l.289-1.656h1.859l-.227,1.438A5.172,5.172,0,0,1,151.93,19.852Zm10.8-7.133h1.25l-.32,1.82h-1.25L161.977,17h-2.2l.43-2.461h-4.516L155.844,13l5.8-7.375h2.3Zm-4.594-.016,2.391.016.773-4.047-.2.281ZM80.211,35.375l1.531-5.75h6.219l-.3,1.883H83.3l-.75,2.461a3.016,3.016,0,0,1,1.641-.437,2.693,2.693,0,0,1,2.262,1.035,3.855,3.855,0,0,1,.676,2.73,4.423,4.423,0,0,1-.66,2.023A3.852,3.852,0,0,1,84.977,40.7a4.108,4.108,0,0,1-2.031.461,3.613,3.613,0,0,1-1.746-.441,3.12,3.12,0,0,1-1.223-1.2,3.409,3.409,0,0,1-.445-1.7H81.7a1.7,1.7,0,0,0,.383,1.09,1.259,1.259,0,0,0,.953.41,1.545,1.545,0,0,0,1.285-.57,2.845,2.845,0,0,0,.605-1.594,2.02,2.02,0,0,0-.27-1.406,1.3,1.3,0,0,0-1.105-.531,2.195,2.195,0,0,0-1.531.609Z" transform="translate(927 2952)" fill="#12263f"/>
    <path id="Trazado_715984" data-name="Trazado 715984" d="M13.773,17h-2.2l1.5-8.656L10.3,9.18l.344-1.93L15.4,5.609l.289-.008ZM9.711,35.375l1.531-5.75h6.219l-.3,1.883H12.8l-.75,2.461a3.016,3.016,0,0,1,1.641-.437,2.693,2.693,0,0,1,2.262,1.035,3.855,3.855,0,0,1,.676,2.73,4.423,4.423,0,0,1-.66,2.023A3.852,3.852,0,0,1,14.477,40.7a4.108,4.108,0,0,1-2.031.461,3.613,3.613,0,0,1-1.746-.441,3.12,3.12,0,0,1-1.223-1.2,3.409,3.409,0,0,1-.445-1.7H11.2a1.7,1.7,0,0,0,.383,1.09,1.259,1.259,0,0,0,.953.41,1.545,1.545,0,0,0,1.285-.57,2.845,2.845,0,0,0,.605-1.594,2.02,2.02,0,0,0-.27-1.406,1.3,1.3,0,0,0-1.105-.531,2.195,2.195,0,0,0-1.531.609Z" transform="translate(838 2952)" fill="#12263f"/>
    <path id="Trazado_715985" data-name="Trazado 715985" d="M10.944,6.484,11.9,2.891h3.887L15.6,4.067H12.873L12.4,5.605a1.885,1.885,0,0,1,1.025-.273,1.683,1.683,0,0,1,1.414.647,2.409,2.409,0,0,1,.422,1.707,2.764,2.764,0,0,1-.413,1.265,2.408,2.408,0,0,1-.93.864,2.567,2.567,0,0,1-1.27.288,2.258,2.258,0,0,1-1.091-.276A1.95,1.95,0,0,1,10.8,9.08a2.131,2.131,0,0,1-.278-1.062h1.353a1.063,1.063,0,0,0,.239.681.787.787,0,0,0,.6.256.966.966,0,0,0,.8-.356,1.778,1.778,0,0,0,.378-1,1.263,1.263,0,0,0-.168-.879.811.811,0,0,0-.691-.332,1.372,1.372,0,0,0-.957.381Z" transform="translate(864 2943)" fill="#12263f"/>
    <path id="Trazado_715986" data-name="Trazado 715986" d="M7.551,10H6.164l.918-5.283H8.469ZM7.243,3.374a.688.688,0,0,1,.215-.542.827.827,0,0,1,1.084-.024.685.685,0,0,1,.239.518.707.707,0,0,1-.2.527.76.76,0,0,1-.554.234.772.772,0,0,1-.54-.186A.682.682,0,0,1,7.243,3.374Zm6.465,2.983H9.465L9.67,5.205h4.243Zm-.366,2.114H9.1L9.3,7.319h4.243ZM17.595,10H16.218l.938-5.41-1.729.522.215-1.206L18.61,2.881l.181,0Z" transform="translate(864 2989)" fill="#12263f"/>
    <path id="Trazado_715987" data-name="Trazado 715987" d="M17.021,22.482,8.73,31.5l11.045.029-.6,3.413H2.4l.425-2.417,9.917-10.51L6.43,11.649l.352-1.978H23.071l-.6,3.413H11.733l5.332,8.884Z" transform="translate(860 2952)" fill="#12263f"/>
    <path id="Trazado_715988" data-name="Trazado 715988" d="M5.652,11.055,7.426,8.547H9.9L6.84,12.8,8.551,17H6.316L5.277,14.359,3.41,17H.918l3.188-4.422L2.473,8.547H4.707Zm15.836.117H14.7l.328-1.844h6.789ZM20.9,14.555H14.113l.328-1.844H21.23Z" transform="translate(814 2966)" fill="#12263f"/>
    <path id="Trazado_715989" data-name="Trazado 715989" d="M10.882,11.055l1.773-2.508h2.477L12.069,12.8,13.78,17H11.546l-1.039-2.641L8.64,17H6.148l3.188-4.422L7.7,8.547H9.937ZM16.136,22H14.842l.857-4.931h1.294Zm-.287-6.184a.642.642,0,0,1,.2-.506.771.771,0,0,1,1.012-.023.639.639,0,0,1,.223.483.66.66,0,0,1-.189.492.709.709,0,0,1-.517.219.721.721,0,0,1-.5-.173A.636.636,0,0,1,15.849,15.816Z" transform="translate(883 2966)" fill="#12263f"/>
    <path id="Trazado_715990" data-name="Trazado 715990" d="M12.027,11.172H5.238l.328-1.844h6.789Zm-.586,3.383H4.652l.328-1.844H11.77Z" transform="translate(907 2966)" fill="#12263f"/>
    <path id="Trazado_715991" data-name="Trazado 715991" d="M10.109,11.172H3.32l.328-1.844h6.789Zm-.586,3.383H2.734l.328-1.844H9.852ZM20.273,17h-2.2l1.5-8.656L16.8,9.18l.344-1.93L21.9,5.609l.289-.008Zm3.961,2.852-1.164-.633.57-.914a4.9,4.9,0,0,0,.641-1.57l.289-1.656H26.43L26.2,16.516A5.172,5.172,0,0,1,24.234,19.852ZM36.484,8.586a3.118,3.118,0,0,1-1.953,2.6A2.864,2.864,0,0,1,35.8,13.813a3.227,3.227,0,0,1-1.242,2.453,4.309,4.309,0,0,1-2.859.891,3.576,3.576,0,0,1-2.5-.891,2.765,2.765,0,0,1-.855-2.312,3.31,3.31,0,0,1,2.227-2.859A2.7,2.7,0,0,1,29.5,8.711a3.274,3.274,0,0,1,1.957-2.867,4.279,4.279,0,0,1,1.9-.375,3.315,3.315,0,0,1,2.344.879A2.736,2.736,0,0,1,36.484,8.586Zm-2.859,5.067a1.489,1.489,0,0,0-.242-1.115,1.166,1.166,0,0,0-.969-.46,1.677,1.677,0,0,0-1.223.46,2,2,0,0,0-.613,1.247,1.462,1.462,0,0,0,.238,1.1,1.185,1.185,0,0,0,.98.448,1.675,1.675,0,0,0,1.223-.452A1.974,1.974,0,0,0,33.625,13.652ZM34.258,8.7a1.423,1.423,0,0,0-.2-1.017.976.976,0,0,0-.812-.393A1.38,1.38,0,0,0,32.2,7.7a1.843,1.843,0,0,0-.516,1.126,1.534,1.534,0,0,0,.191,1.032.939.939,0,0,0,.816.417,1.371,1.371,0,0,0,1.047-.425A1.9,1.9,0,0,0,34.258,8.7Zm9.758,4.019h1.25l-.32,1.82H43.7L43.266,17h-2.2l.43-2.461H36.977L37.133,13l5.8-7.375h2.3ZM39.422,12.7l2.391.016.773-4.047-.2.281Zm12.7,4.3H49.906L51.992,5H54.2Zm2.445.977H52.836l6.2-12.352h1.742Zm10.2-3.359q.125-.625-.867-.906l-.711-.18q-2.523-.7-2.453-2.453a2.428,2.428,0,0,1,1.059-1.949,3.942,3.942,0,0,1,2.457-.738,3.536,3.536,0,0,1,2.313.758,2.5,2.5,0,0,1,.9,1.977l-2.187-.008a.963.963,0,0,0-1.078-1.1,1.552,1.552,0,0,0-.895.258,1.061,1.061,0,0,0-.465.7q-.117.625.945.883l.313.07a6.285,6.285,0,0,1,1.648.59,2.488,2.488,0,0,1,.879.824,2.04,2.04,0,0,1,.285,1.18,2.251,2.251,0,0,1-.52,1.406,3.18,3.18,0,0,1-1.359.93,4.736,4.736,0,0,1-1.816.3,3.568,3.568,0,0,1-2.344-.809,2.607,2.607,0,0,1-.953-2.051l2.078.016a1.142,1.142,0,0,0,1.3,1.227,1.845,1.845,0,0,0,1-.25A.987.987,0,0,0,64.766,14.617Z" transform="translate(1097 2966)" fill="#12263f"/>
    <path id="Trazado_715992" data-name="Trazado 715992" d="M0,0H169" transform="translate(927.5 2975.5)" fill="none" stroke="#707070" stroke-width="1.5"/>
    <path id="Trazado_715993" data-name="Trazado 715993" d="M0,0H18.5" transform="translate(842 2975.5)" fill="none" stroke="#707070" stroke-width="1.5"/>
    <path id="Trazado_715994" data-name="Trazado 715994" d="M0,0H8" transform="translate(816.5 2968.5)" fill="none" stroke="#12263f" stroke-width="2"/>
    <g id="Grupo_1002882" data-name="Grupo 1002882" transform="translate(1255.179 2921.435)">
      <g id="Grupo_1002881" data-name="Grupo 1002881">
        <g id="Grupo_1002880" data-name="Grupo 1002880">
          <g id="Grupo_1002725" data-name="Grupo 1002725">
            <g id="Grupo_1002724" data-name="Grupo 1002724">
              <g id="Grupo_1002723" data-name="Grupo 1002723">
                <g id="Grupo_1002722" data-name="Grupo 1002722">
                  <g id="Grupo_1002721" data-name="Grupo 1002721">
                    <g id="Grupo_1002720" data-name="Grupo 1002720">
                      <g id="Grupo_1002719" data-name="Grupo 1002719">
                        <g id="Grupo_1002718" data-name="Grupo 1002718">
                          <path id="Trazado_712202" data-name="Trazado 712202" d="M385.994,899.162a6.557,6.557,0,0,1-3.16-12.659,6.821,6.821,0,0,1,5.6-11.676,8.164,8.164,0,0,1,12.1-7.057,9.178,9.178,0,0,1,11.289-.568,6.528,6.528,0,0,1,6.095,10.9" transform="translate(-378.518 -865.529)" fill="#263238"/>
                        </g>
                      </g>
                    </g>
                  </g>
                </g>
              </g>
            </g>
          </g>
          <g id="Grupo_1002879" data-name="Grupo 1002879" transform="translate(5.556 2.928)">
            <g id="Grupo_1002861" data-name="Grupo 1002861" transform="translate(0 3.408)">
              <g id="Grupo_1002730" data-name="Grupo 1002730" transform="translate(0 1.763)">
                <g id="Grupo_1002729" data-name="Grupo 1002729">
                  <g id="Grupo_1002728" data-name="Grupo 1002728">
                    <g id="Grupo_1002727" data-name="Grupo 1002727">
                      <g id="Grupo_1002726" data-name="Grupo 1002726">
                        <path id="Trazado_712203" data-name="Trazado 712203" d="M415.442,876.563l-1.44.045a27.818,27.818,0,0,0-26.917,26.439c-.663,13.468-1.222,28.357-.908,35.561.652,14.918,15.651,16.771,15.651,16.771l-.7,17.969,36.183-2.256,1.168-65.125C439.33,890.429,431,876.984,415.442,876.563Z" transform="translate(-386.088 -876.563)" fill="#ae7461"/>
                      </g>
                    </g>
                  </g>
                </g>
              </g>
              <g id="Grupo_1002741" data-name="Grupo 1002741" transform="translate(15.571 74.225)">
                <g id="Grupo_1002740" data-name="Grupo 1002740">
                  <g id="Grupo_1002739" data-name="Grupo 1002739">
                    <g id="Grupo_1002738" data-name="Grupo 1002738">
                      <g id="Grupo_1002737" data-name="Grupo 1002737">
                        <g id="Grupo_1002736" data-name="Grupo 1002736">
                          <g id="Grupo_1002735" data-name="Grupo 1002735">
                            <g id="Grupo_1002734" data-name="Grupo 1002734">
                              <g id="Grupo_1002733" data-name="Grupo 1002733">
                                <g id="Grupo_1002732" data-name="Grupo 1002732">
                                  <g id="Grupo_1002731" data-name="Grupo 1002731">
                                    <path id="Trazado_712204" data-name="Trazado 712204" d="M407.348,981.631a36.214,36.214,0,0,0,19.375-6.335s-4.487,11.581-19.42,10.7Z" transform="translate(-407.303 -975.296)" fill="#6f4439"/>
                                  </g>
                                </g>
                              </g>
                            </g>
                          </g>
                        </g>
                      </g>
                    </g>
                  </g>
                </g>
              </g>
              <g id="Grupo_1002755" data-name="Grupo 1002755" transform="translate(4.966 40.895)">
                <g id="Grupo_1002754" data-name="Grupo 1002754">
                  <g id="Grupo_1002753" data-name="Grupo 1002753">
                    <g id="Grupo_1002752" data-name="Grupo 1002752">
                      <g id="Grupo_1002751" data-name="Grupo 1002751">
                        <g id="Grupo_1002750" data-name="Grupo 1002750">
                          <g id="Grupo_1002749" data-name="Grupo 1002749">
                            <g id="Grupo_1002748" data-name="Grupo 1002748">
                              <g id="Grupo_1002747" data-name="Grupo 1002747">
                                <g id="Grupo_1002746" data-name="Grupo 1002746">
                                  <g id="Grupo_1002745" data-name="Grupo 1002745">
                                    <g id="Grupo_1002744" data-name="Grupo 1002744">
                                      <g id="Grupo_1002743" data-name="Grupo 1002743">
                                        <g id="Grupo_1002742" data-name="Grupo 1002742">
                                          <path id="Trazado_712205" data-name="Trazado 712205" d="M392.854,931.874a2.131,2.131,0,0,0,2.122,2.086,2.039,2.039,0,0,0,2.136-1.99,2.133,2.133,0,0,0-2.12-2.087A2.041,2.041,0,0,0,392.854,931.874Z" transform="translate(-392.854 -929.882)" fill="#263238"/>
                                        </g>
                                      </g>
                                    </g>
                                  </g>
                                </g>
                              </g>
                            </g>
                          </g>
                        </g>
                      </g>
                    </g>
                  </g>
                </g>
              </g>
              <g id="Grupo_1002770" data-name="Grupo 1002770" transform="translate(4.397 33.073)">
                <g id="Grupo_1002769" data-name="Grupo 1002769">
                  <g id="Grupo_1002768" data-name="Grupo 1002768">
                    <g id="Grupo_1002767" data-name="Grupo 1002767">
                      <g id="Grupo_1002766" data-name="Grupo 1002766">
                        <g id="Grupo_1002765" data-name="Grupo 1002765">
                          <g id="Grupo_1002764" data-name="Grupo 1002764">
                            <g id="Grupo_1002763" data-name="Grupo 1002763">
                              <g id="Grupo_1002762" data-name="Grupo 1002762">
                                <g id="Grupo_1002761" data-name="Grupo 1002761">
                                  <g id="Grupo_1002760" data-name="Grupo 1002760">
                                    <g id="Grupo_1002759" data-name="Grupo 1002759">
                                      <g id="Grupo_1002758" data-name="Grupo 1002758">
                                        <g id="Grupo_1002757" data-name="Grupo 1002757">
                                          <g id="Grupo_1002756" data-name="Grupo 1002756">
                                            <path id="Trazado_712206" data-name="Trazado 712206" d="M392.116,921.6c.273.269,1.849-.976,4.144-1.041,2.29-.1,4.01,1.028,4.249.74.118-.128-.167-.622-.916-1.132a5.85,5.85,0,0,0-3.413-.936,5.619,5.619,0,0,0-3.287,1.176C392.2,920.968,391.981,921.478,392.116,921.6Z" transform="translate(-392.078 -919.225)" fill="#263238"/>
                                          </g>
                                        </g>
                                      </g>
                                    </g>
                                  </g>
                                </g>
                              </g>
                            </g>
                          </g>
                        </g>
                      </g>
                    </g>
                  </g>
                </g>
              </g>
              <g id="Grupo_1002784" data-name="Grupo 1002784" transform="translate(24.823 40.895)">
                <g id="Grupo_1002783" data-name="Grupo 1002783">
                  <g id="Grupo_1002782" data-name="Grupo 1002782">
                    <g id="Grupo_1002781" data-name="Grupo 1002781">
                      <g id="Grupo_1002780" data-name="Grupo 1002780">
                        <g id="Grupo_1002779" data-name="Grupo 1002779">
                          <g id="Grupo_1002778" data-name="Grupo 1002778">
                            <g id="Grupo_1002777" data-name="Grupo 1002777">
                              <g id="Grupo_1002776" data-name="Grupo 1002776">
                                <g id="Grupo_1002775" data-name="Grupo 1002775">
                                  <g id="Grupo_1002774" data-name="Grupo 1002774">
                                    <g id="Grupo_1002773" data-name="Grupo 1002773">
                                      <g id="Grupo_1002772" data-name="Grupo 1002772">
                                        <g id="Grupo_1002771" data-name="Grupo 1002771">
                                          <path id="Trazado_712207" data-name="Trazado 712207" d="M419.91,931.875a2.132,2.132,0,0,0,2.122,2.085,2.038,2.038,0,0,0,2.136-1.99,2.133,2.133,0,0,0-2.12-2.087A2.04,2.04,0,0,0,419.91,931.875Z" transform="translate(-419.91 -929.882)" fill="#263238"/>
                                        </g>
                                      </g>
                                    </g>
                                  </g>
                                </g>
                              </g>
                            </g>
                          </g>
                        </g>
                      </g>
                    </g>
                  </g>
                </g>
              </g>
              <g id="Grupo_1002799" data-name="Grupo 1002799" transform="translate(26.225 32.795)">
                <g id="Grupo_1002798" data-name="Grupo 1002798">
                  <g id="Grupo_1002797" data-name="Grupo 1002797">
                    <g id="Grupo_1002796" data-name="Grupo 1002796">
                      <g id="Grupo_1002795" data-name="Grupo 1002795">
                        <g id="Grupo_1002794" data-name="Grupo 1002794">
                          <g id="Grupo_1002793" data-name="Grupo 1002793">
                            <g id="Grupo_1002792" data-name="Grupo 1002792">
                              <g id="Grupo_1002791" data-name="Grupo 1002791">
                                <g id="Grupo_1002790" data-name="Grupo 1002790">
                                  <g id="Grupo_1002789" data-name="Grupo 1002789">
                                    <g id="Grupo_1002788" data-name="Grupo 1002788">
                                      <g id="Grupo_1002787" data-name="Grupo 1002787">
                                        <g id="Grupo_1002786" data-name="Grupo 1002786">
                                          <g id="Grupo_1002785" data-name="Grupo 1002785">
                                            <path id="Trazado_712208" data-name="Trazado 712208" d="M421.857,921.219c.273.269,1.852-.976,4.144-1.041,2.289-.1,4.009,1.029,4.249.74.118-.128-.164-.622-.917-1.132a5.848,5.848,0,0,0-3.412-.936,5.629,5.629,0,0,0-3.288,1.176C421.948,920.588,421.723,921.1,421.857,921.219Z" transform="translate(-421.82 -918.846)" fill="#263238"/>
                                          </g>
                                        </g>
                                      </g>
                                    </g>
                                  </g>
                                </g>
                              </g>
                            </g>
                          </g>
                        </g>
                      </g>
                    </g>
                  </g>
                </g>
              </g>
              <g id="Grupo_1002813" data-name="Grupo 1002813" transform="translate(13.303 33.295)">
                <g id="Grupo_1002812" data-name="Grupo 1002812">
                  <g id="Grupo_1002811" data-name="Grupo 1002811">
                    <g id="Grupo_1002810" data-name="Grupo 1002810">
                      <g id="Grupo_1002809" data-name="Grupo 1002809">
                        <g id="Grupo_1002808" data-name="Grupo 1002808">
                          <g id="Grupo_1002807" data-name="Grupo 1002807">
                            <g id="Grupo_1002806" data-name="Grupo 1002806">
                              <g id="Grupo_1002805" data-name="Grupo 1002805">
                                <g id="Grupo_1002804" data-name="Grupo 1002804">
                                  <g id="Grupo_1002803" data-name="Grupo 1002803">
                                    <g id="Grupo_1002802" data-name="Grupo 1002802">
                                      <g id="Grupo_1002801" data-name="Grupo 1002801">
                                        <g id="Grupo_1002800" data-name="Grupo 1002800">
                                          <path id="Trazado_712209" data-name="Trazado 712209" d="M410.11,938.669a15.19,15.19,0,0,0-3.745-.556c-.588-.041-1.146-.141-1.257-.537a2.981,2.981,0,0,1,.336-1.748q.76-2.151,1.592-4.514c2.207-6.424,3.783-11.7,3.524-11.785S408.3,924.579,406.1,931q-.8,2.376-1.519,4.538a3.4,3.4,0,0,0-.232,2.308,1.471,1.471,0,0,0,.99.826,3.968,3.968,0,0,0,1,.107A14.929,14.929,0,0,0,410.11,938.669Z" transform="translate(-404.214 -919.528)" fill="#263238"/>
                                        </g>
                                      </g>
                                    </g>
                                  </g>
                                </g>
                              </g>
                            </g>
                          </g>
                        </g>
                      </g>
                    </g>
                  </g>
                </g>
              </g>
              <g id="Grupo_1002823" data-name="Grupo 1002823" transform="translate(24.692 23.797)">
                <g id="Grupo_1002822" data-name="Grupo 1002822">
                  <g id="Grupo_1002821" data-name="Grupo 1002821">
                    <g id="Grupo_1002820" data-name="Grupo 1002820">
                      <g id="Grupo_1002819" data-name="Grupo 1002819">
                        <g id="Grupo_1002818" data-name="Grupo 1002818">
                          <g id="Grupo_1002817" data-name="Grupo 1002817">
                            <g id="Grupo_1002816" data-name="Grupo 1002816">
                              <g id="Grupo_1002815" data-name="Grupo 1002815">
                                <g id="Grupo_1002814" data-name="Grupo 1002814">
                                  <path id="Trazado_712210" data-name="Trazado 712210" d="M419.763,909.2c.321.572,2.266-.12,4.684-.274,2.413-.208,4.467.183,4.669-.428.086-.291-.36-.8-1.247-1.238a7.265,7.265,0,0,0-3.654-.649,7.007,7.007,0,0,0-3.471,1.184C419.959,908.355,419.62,908.923,419.763,909.2Z" transform="translate(-419.731 -906.586)" fill="#263238"/>
                                </g>
                              </g>
                            </g>
                          </g>
                        </g>
                      </g>
                    </g>
                  </g>
                </g>
              </g>
              <g id="Grupo_1002833" data-name="Grupo 1002833" transform="translate(3.949 23.464)">
                <g id="Grupo_1002832" data-name="Grupo 1002832">
                  <g id="Grupo_1002831" data-name="Grupo 1002831">
                    <g id="Grupo_1002830" data-name="Grupo 1002830">
                      <g id="Grupo_1002829" data-name="Grupo 1002829">
                        <g id="Grupo_1002828" data-name="Grupo 1002828">
                          <g id="Grupo_1002827" data-name="Grupo 1002827">
                            <g id="Grupo_1002826" data-name="Grupo 1002826">
                              <g id="Grupo_1002825" data-name="Grupo 1002825">
                                <g id="Grupo_1002824" data-name="Grupo 1002824">
                                  <path id="Trazado_712211" data-name="Trazado 712211" d="M391.546,908.662c.5.506,2.375-.095,4.651-.191,2.271-.164,4.214.218,4.641-.341.186-.271-.134-.783-.991-1.25a7.41,7.41,0,0,0-3.809-.735,7.284,7.284,0,0,0-3.678,1.163C391.572,907.87,391.324,908.415,391.546,908.662Z" transform="translate(-391.468 -906.132)" fill="#263238"/>
                                </g>
                              </g>
                            </g>
                          </g>
                        </g>
                      </g>
                    </g>
                  </g>
                </g>
              </g>
              <g id="Grupo_1002842" data-name="Grupo 1002842" transform="translate(2.165)">
                <g id="Grupo_1002841" data-name="Grupo 1002841">
                  <g id="Grupo_1002840" data-name="Grupo 1002840">
                    <g id="Grupo_1002839" data-name="Grupo 1002839">
                      <g id="Grupo_1002838" data-name="Grupo 1002838">
                        <g id="Grupo_1002837" data-name="Grupo 1002837">
                          <g id="Grupo_1002836" data-name="Grupo 1002836">
                            <g id="Grupo_1002835" data-name="Grupo 1002835">
                              <g id="Grupo_1002834" data-name="Grupo 1002834">
                                <path id="Trazado_712212" data-name="Trazado 712212" d="M389.091,895.518s3.643-9.469,8.081-11.791c5.373-2.811,7.909,3.1,13.062,1.488s10.283-4.313,15.721-.459c5.954,4.216,3.326,7.388,3.892,14,2.3,26.8,7.438,34.238,8.436,21.549.109-1.39,3.919-2.612,4.306-8.483.5-7.613.5-16.838-1.359-22.171-1.57-4.5-4.256-7.551-9.006-10.863-7.5-5.229-17.566-5.032-24.38-4.13S388.1,883.836,389.091,895.518Z" transform="translate(-389.037 -874.161)" fill="#263238"/>
                              </g>
                            </g>
                          </g>
                        </g>
                      </g>
                    </g>
                  </g>
                </g>
              </g>
              <g id="Grupo_1002851" data-name="Grupo 1002851" transform="translate(50.356 41.717)">
                <g id="Grupo_1002850" data-name="Grupo 1002850">
                  <g id="Grupo_1002849" data-name="Grupo 1002849">
                    <g id="Grupo_1002848" data-name="Grupo 1002848">
                      <g id="Grupo_1002847" data-name="Grupo 1002847">
                        <g id="Grupo_1002846" data-name="Grupo 1002846">
                          <g id="Grupo_1002845" data-name="Grupo 1002845">
                            <g id="Grupo_1002844" data-name="Grupo 1002844">
                              <g id="Grupo_1002843" data-name="Grupo 1002843">
                                <path id="Trazado_712213" data-name="Trazado 712213" d="M454.791,935.051a4.053,4.053,0,0,1,4.252-4.041c2.792.178,5.938,1.661,5.935,7.418-.007,10.213-10.258,8.1-10.276,7.807C454.69,946.036,454.751,939.325,454.791,935.051Z" transform="translate(-454.7 -931.002)" fill="#ae7461"/>
                              </g>
                            </g>
                          </g>
                        </g>
                      </g>
                    </g>
                  </g>
                </g>
              </g>
              <g id="Grupo_1002860" data-name="Grupo 1002860" transform="translate(52.573 45.03)">
                <g id="Grupo_1002859" data-name="Grupo 1002859">
                  <g id="Grupo_1002858" data-name="Grupo 1002858">
                    <g id="Grupo_1002857" data-name="Grupo 1002857">
                      <g id="Grupo_1002856" data-name="Grupo 1002856">
                        <g id="Grupo_1002855" data-name="Grupo 1002855">
                          <g id="Grupo_1002854" data-name="Grupo 1002854">
                            <g id="Grupo_1002853" data-name="Grupo 1002853">
                              <g id="Grupo_1002852" data-name="Grupo 1002852">
                                <path id="Trazado_712214" data-name="Trazado 712214" d="M457.73,943.6c.045-.033.178.125.479.262a1.775,1.775,0,0,0,1.33.029c1.079-.395,1.989-2.108,2.04-3.948a5.881,5.881,0,0,0-.5-2.547,2.053,2.053,0,0,0-1.337-1.366.906.906,0,0,0-1.05.487c-.137.286-.073.49-.126.507-.029.026-.219-.172-.137-.593a1.132,1.132,0,0,1,.4-.64,1.343,1.343,0,0,1,.984-.259,2.5,2.5,0,0,1,1.858,1.585,6.03,6.03,0,0,1,.615,2.846c-.067,2.059-1.121,3.984-2.6,4.409a1.9,1.9,0,0,1-1.627-.271C457.748,943.842,457.694,943.613,457.73,943.6Z" transform="translate(-457.72 -935.516)" fill="#6f4439"/>
                              </g>
                            </g>
                          </g>
                        </g>
                      </g>
                    </g>
                  </g>
                </g>
              </g>
            </g>
            <g id="Grupo_1002869" data-name="Grupo 1002869" transform="translate(8.685)">
              <g id="Grupo_1002868" data-name="Grupo 1002868">
                <g id="Grupo_1002867" data-name="Grupo 1002867">
                  <g id="Grupo_1002866" data-name="Grupo 1002866">
                    <g id="Grupo_1002865" data-name="Grupo 1002865">
                      <g id="Grupo_1002864" data-name="Grupo 1002864">
                        <g id="Grupo_1002863" data-name="Grupo 1002863">
                          <g id="Grupo_1002862" data-name="Grupo 1002862">
                            <path id="Trazado_712215" data-name="Trazado 712215" d="M438.865,898.93a9.686,9.686,0,0,1-4.258,2.131c-1.592.208-3.447-.652-3.765-2.224-.143-.707,0-1.536-.48-2.07-.578-.637-1.6-.4-2.451-.283-2.956.407-6.525-2.76-7.37-5.622a2.665,2.665,0,0,1-3.535.848,9.54,9.54,0,0,1-2.527-2.109,4.2,4.2,0,0,0-3.557-1.643,10.062,10.062,0,0,1-2.2.559c-1.344-.077-2.047-1.626-2.291-2.949s-.451-2.87-1.608-3.557c-1.072-.637-2.423-.207-3.651.013s-2.829-.019-3.182-1.215a2.422,2.422,0,0,1,.4-1.865,6.611,6.611,0,0,1,7.722-2.746,8.96,8.96,0,0,1,16.4-2.251,9.094,9.094,0,0,1,14.633,2.859,6.592,6.592,0,0,1,7.729,9.35c1.866.991,3.493,2.764,3.6,4.875s-1.887,4.279-3.943,3.787a3.65,3.65,0,0,1-6.2,3.837" transform="translate(-397.922 -869.518)" fill="#263238"/>
                          </g>
                        </g>
                      </g>
                    </g>
                  </g>
                </g>
              </g>
            </g>
            <g id="Grupo_1002878" data-name="Grupo 1002878" transform="translate(16.2 9.705)">
              <g id="Grupo_1002877" data-name="Grupo 1002877">
                <g id="Grupo_1002876" data-name="Grupo 1002876">
                  <g id="Grupo_1002875" data-name="Grupo 1002875">
                    <g id="Grupo_1002874" data-name="Grupo 1002874">
                      <g id="Grupo_1002873" data-name="Grupo 1002873">
                        <g id="Grupo_1002872" data-name="Grupo 1002872">
                          <g id="Grupo_1002871" data-name="Grupo 1002871">
                            <g id="Grupo_1002870" data-name="Grupo 1002870">
                              <path id="Trazado_712216" data-name="Trazado 712216" d="M408.165,882.743c-.009,0-.006.064.008.186s.03.307.082.543a6.383,6.383,0,0,0,.8,1.943,7.308,7.308,0,0,0,2.338,2.341,6.8,6.8,0,0,0,4.216,1.061l-.18-.221a3.7,3.7,0,0,0,.293,2.81,10.589,10.589,0,0,0,1.825,2.455A7.679,7.679,0,0,0,418.728,895a3.574,3.574,0,0,0,1.636.55,3.725,3.725,0,0,0,3.247-1.28l-.385-.1a7.658,7.658,0,0,0,3.411,5.193,5.585,5.585,0,0,0,3.385.992,10.079,10.079,0,0,0,3.279-.828l-.277-.111a8.038,8.038,0,0,0,2.514,3.074,4.282,4.282,0,0,0,3.584.857,5.622,5.622,0,0,0,4.189-4.533l-.228.114a5.263,5.263,0,0,0,3.522.406,5.715,5.715,0,0,0,2.411-1.167,4.946,4.946,0,0,0,1.1-1.283,2.4,2.4,0,0,0,.242-.536,6.154,6.154,0,0,1-1.45,1.684,5.676,5.676,0,0,1-2.354,1.059,5.038,5.038,0,0,1-3.325-.44l-.194-.1-.034.217a5.3,5.3,0,0,1-3.967,4.2,3.891,3.891,0,0,1-3.255-.815,7.669,7.669,0,0,1-2.362-2.917l-.087-.186-.19.075a9.721,9.721,0,0,1-3.137.789,5.153,5.153,0,0,1-3.125-.925,7.243,7.243,0,0,1-3.226-4.894l-.079-.48-.306.383a3.313,3.313,0,0,1-2.867,1.13,3.172,3.172,0,0,1-1.449-.475,7.4,7.4,0,0,1-1.11-1.064,10.294,10.294,0,0,1-1.783-2.348,3.345,3.345,0,0,1-.3-2.542l.076-.246-.256.025a6.554,6.554,0,0,1-4.038-.954,7.269,7.269,0,0,1-2.32-2.212A7.894,7.894,0,0,1,408.165,882.743Z" transform="translate(-408.16 -882.742)" fill="#455a64"/>
                            </g>
                          </g>
                        </g>
                      </g>
                    </g>
                  </g>
                </g>
              </g>
            </g>
          </g>
        </g>
      </g>
    </g>
    <g id="Grupo_1002885" data-name="Grupo 1002885" transform="translate(1279.416 2982.897)">
      <g id="Grupo_1002884" data-name="Grupo 1002884">
        <g id="Grupo_1002883" data-name="Grupo 1002883">
          <path id="Trazado_712217" data-name="Trazado 712217" d="M418.478,949.36a48.789,48.789,0,0,1-6.936,2.969c-.023,1.769,2.247,4.268,4.015,4.322a4.12,4.12,0,0,0,4.1-2.223c.64-1.34.3-3.108-.144-4.637A.725.725,0,0,0,418.478,949.36Z" transform="translate(-411.542 -949.275)" fill="#6f4439"/>
        </g>
      </g>
    </g>
    <g id="Grupo_1002889" data-name="Grupo 1002889" transform="translate(1278.934 2982.669)">
      <g id="Grupo_1002888" data-name="Grupo 1002888">
        <g id="Grupo_1002887" data-name="Grupo 1002887">
          <g id="Grupo_1002886" data-name="Grupo 1002886">
            <path id="Trazado_712218" data-name="Trazado 712218" d="M413.675,956.02c.018-.032.27.125.768.269a4.089,4.089,0,0,0,2.151-.01,4.265,4.265,0,0,0,2.527-1.832,3.53,3.53,0,0,0,.563-1.755,7.467,7.467,0,0,0-.242-2.027c-.081-.341-.172-.7-.263-1.018-.037-.147-.144-.329-.145-.3a.642.642,0,0,0-.381.064l-1.811.738-3.08,1.232-2.089.8a.413.413,0,1,1-.057-.137l2.042-.912,3.049-1.308,1.808-.761a.979.979,0,0,1,.619-.079.488.488,0,0,1,.3.271,1.872,1.872,0,0,1,.109.273c.1.357.187.686.273,1.047a7.6,7.6,0,0,1,.244,2.135,3.838,3.838,0,0,1-.64,1.924,4.468,4.468,0,0,1-2.759,1.9,3.964,3.964,0,0,1-2.261-.111,2.639,2.639,0,0,1-.553-.274C413.725,956.077,413.668,956.032,413.675,956.02Z" transform="translate(-410.886 -948.964)" fill="#263238"/>
          </g>
        </g>
      </g>
    </g>
    <g id="Grupo_1002893" data-name="Grupo 1002893" transform="translate(1334.404 3044.716)">
      <g id="Grupo_1002892" data-name="Grupo 1002892">
        <g id="Grupo_1002891" data-name="Grupo 1002891">
          <path id="Trazado_712219" data-name="Trazado 712219" d="M498.672,1033.505s10.857,61.667,10.333,67.433-3.411,14.939-9.962,16.511a28.813,28.813,0,0,1-12.578,0l7.863-75.743Z" transform="translate(-486.465 -1033.505)" fill="#4db1f0"/>
        </g>
      </g>
    </g>
    <g id="Grupo_1002896" data-name="Grupo 1002896" transform="translate(1245.097 3009.484)">
      <g id="Grupo_1002895" data-name="Grupo 1002895">
        <g id="Grupo_1002894" data-name="Grupo 1002894">
          <path id="Trazado_712220" data-name="Trazado 712220" d="M466.294,1020.732c.005-5.847-9.235-15.226-15.925-19.855-3.251-2.25-16.842-11.967-16.842-11.967l-1.259-3.409c-12.48,3.082-25.366,3.369-37.611,2.633l-1.121,3.343-15.153,4.432-13.6,54.085.395,71.782,91.2-.235.724-6.551S466.291,1024.823,466.294,1020.732Z" transform="translate(-364.78 -985.501)" fill="#4db1f0"/>
        </g>
      </g>
    </g>
    <g id="Grupo_1002900" data-name="Grupo 1002900" transform="translate(1338.658 3068.363)" opacity="0.3">
      <g id="Grupo_1002899" data-name="Grupo 1002899">
        <g id="Grupo_1002898" data-name="Grupo 1002898">
          <g id="Grupo_1002897" data-name="Grupo 1002897">
            <path id="Trazado_712221" data-name="Trazado 712221" d="M492.261,1126.2c8.029-18.8,7.4-40.055,6.31-60.472Z" transform="translate(-492.261 -1065.726)"/>
          </g>
        </g>
      </g>
    </g>
    <g id="Grupo_1002904" data-name="Grupo 1002904" transform="translate(1337.093 3055.461)">
      <g id="Grupo_1002903" data-name="Grupo 1002903">
        <g id="Grupo_1002902" data-name="Grupo 1002902">
          <g id="Grupo_1002901" data-name="Grupo 1002901">
            <path id="Trazado_712222" data-name="Trazado 712222" d="M499.646,1048.146c.1.012-1.94,19.388-4.566,43.272s-4.842,43.246-4.947,43.235,1.94-19.384,4.567-43.277S499.542,1048.135,499.646,1048.146Z" transform="translate(-490.129 -1048.146)" fill="#263238"/>
          </g>
        </g>
      </g>
    </g>
    <g id="Grupo_1002908" data-name="Grupo 1002908" transform="translate(1262.979 3092.065)">
      <g id="Grupo_1002907" data-name="Grupo 1002907">
        <g id="Grupo_1002906" data-name="Grupo 1002906">
          <g id="Grupo_1002905" data-name="Grupo 1002905">
            <path id="Trazado_712223" data-name="Trazado 712223" d="M389.177,1147.725c-.106,0,.063-11.132.376-24.855s.652-24.851.758-24.849-.062,11.13-.376,24.858S389.282,1147.728,389.177,1147.725Z" transform="translate(-389.145 -1098.021)" fill="#263238"/>
          </g>
        </g>
      </g>
    </g>
    <g id="Grupo_1002912" data-name="Grupo 1002912" transform="translate(1273.854 3012.89)">
      <g id="Grupo_1002911" data-name="Grupo 1002911">
        <g id="Grupo_1002910" data-name="Grupo 1002910">
          <g id="Grupo_1002909" data-name="Grupo 1002909">
            <path id="Trazado_712224" data-name="Trazado 712224" d="M443.953,990.144a1.634,1.634,0,0,1-.382.152l-1.12.365c-.485.161-1.085.339-1.789.519s-1.5.409-2.395.6c-1.779.429-3.927.806-6.319,1.162-2.4.323-5.045.587-7.833.735a108.14,108.14,0,0,1-14.279-.259c-1.822-.153-3.292-.314-4.3-.454l-1.165-.166a1.645,1.645,0,0,1-.4-.084,1.722,1.722,0,0,1,.412.007l1.172.095c1.016.095,2.488.214,4.308.332a124.831,124.831,0,0,0,14.24.147c2.777-.148,5.415-.4,7.805-.7,2.385-.335,4.528-.683,6.308-1.077.9-.172,1.7-.374,2.4-.541s1.311-.316,1.8-.454l1.138-.3A1.723,1.723,0,0,1,443.953,990.144Z" transform="translate(-403.962 -990.141)" fill="#263238"/>
          </g>
        </g>
      </g>
    </g>
    <g id="Grupo_1002953" data-name="Grupo 1002953" transform="translate(1159.5 2992.246)">
      <g id="Grupo_1002918" data-name="Grupo 1002918" transform="translate(6.784)">
        <g id="Grupo_1002917" data-name="Grupo 1002917">
          <g id="Grupo_1002916" data-name="Grupo 1002916">
            <g id="Grupo_1002915" data-name="Grupo 1002915">
              <g id="Grupo_1002914" data-name="Grupo 1002914">
                <path id="Trazado_712225" data-name="Trazado 712225" d="M264.191,971.44l12.026,7.853a7.8,7.8,0,0,0,2.49,1.229,2.353,2.353,0,0,0,2.655-3.644,7.792,7.792,0,0,0-2.207-2.22L265.6,964.283a10.906,10.906,0,0,0-3.689-2.12,3.712,3.712,0,0,0-3.894,1.062,2.978,2.978,0,0,0,.247,3.91,47.21,47.21,0,0,0,5.932,4.305" transform="translate(-257.395 -962.014)" fill="#fafafa"/>
              </g>
            </g>
          </g>
        </g>
      </g>
      <g id="Grupo_1002922" data-name="Grupo 1002922" transform="translate(0 2.247)">
        <g id="Grupo_1002921" data-name="Grupo 1002921">
          <g id="Grupo_1002920" data-name="Grupo 1002920">
            <g id="Grupo_1002919" data-name="Grupo 1002919">
              <path id="Trazado_712226" data-name="Trazado 712226" d="M288.153,1029.474l.885-.159L270.895,997.6l2.867-9.142s3.325-13.022.554-16.347c0,0-6.06-7.132-8.025-7.034s-3.539.491-3.932,1.965c0,0-3.342-.393-4.227.688a17.021,17.021,0,0,0-1.572,2.359s-3.637-.295-4.62,2.851c0,0-3.441,1.77-3.735,4.325s.688,14.449,1.769,17.5,5.112,9.437,6.291,18.873,5.336,15.561,9.032,29.352l10.037,3.969Z" transform="translate(-248.152 -965.076)" fill="#ae7461"/>
            </g>
          </g>
        </g>
      </g>
      <g id="Grupo_1002927" data-name="Grupo 1002927" transform="translate(14.377 4.004)">
        <g id="Grupo_1002926" data-name="Grupo 1002926">
          <g id="Grupo_1002925" data-name="Grupo 1002925">
            <g id="Grupo_1002924" data-name="Grupo 1002924">
              <g id="Grupo_1002923" data-name="Grupo 1002923">
                <path id="Trazado_712227" data-name="Trazado 712227" d="M267.744,967.479a10.77,10.77,0,0,1,3.41,5.423,6.15,6.15,0,0,0-3.41-5.423Z" transform="translate(-267.741 -967.47)" fill="#6f4439"/>
              </g>
            </g>
          </g>
        </g>
      </g>
      <g id="Grupo_1002932" data-name="Grupo 1002932" transform="translate(8.601 7.246)">
        <g id="Grupo_1002931" data-name="Grupo 1002931">
          <g id="Grupo_1002930" data-name="Grupo 1002930">
            <g id="Grupo_1002929" data-name="Grupo 1002929">
              <g id="Grupo_1002928" data-name="Grupo 1002928">
                <path id="Trazado_712228" data-name="Trazado 712228" d="M259.874,971.9a10.514,10.514,0,0,1,3.436,4.887,5.7,5.7,0,0,0-3.436-4.887Z" transform="translate(-259.871 -971.886)" fill="#6f4439"/>
              </g>
            </g>
          </g>
        </g>
      </g>
      <g id="Grupo_1002937" data-name="Grupo 1002937" transform="translate(3.977 10.004)">
        <g id="Grupo_1002936" data-name="Grupo 1002936">
          <g id="Grupo_1002935" data-name="Grupo 1002935">
            <g id="Grupo_1002934" data-name="Grupo 1002934">
              <g id="Grupo_1002933" data-name="Grupo 1002933">
                <path id="Trazado_712229" data-name="Trazado 712229" d="M253.574,975.652c-.076.1.827.885,1.656,2.084s1.27,2.312,1.386,2.272a6.409,6.409,0,0,0-3.041-4.356Z" transform="translate(-253.57 -975.645)" fill="#6f4439"/>
              </g>
            </g>
          </g>
        </g>
      </g>
      <g id="Grupo_1002942" data-name="Grupo 1002942" transform="translate(21.015 10.293)">
        <g id="Grupo_1002941" data-name="Grupo 1002941">
          <g id="Grupo_1002940" data-name="Grupo 1002940">
            <g id="Grupo_1002939" data-name="Grupo 1002939">
              <g id="Grupo_1002938" data-name="Grupo 1002938">
                <path id="Trazado_712230" data-name="Trazado 712230" d="M276.789,976.8a4.352,4.352,0,0,1,3.963.269c.036-.034-.1-.256-.426-.5a2.975,2.975,0,0,0-3.047-.206C276.919,976.56,276.758,976.761,276.789,976.8Z" transform="translate(-276.785 -976.038)" fill="#6f4439"/>
              </g>
            </g>
          </g>
        </g>
      </g>
      <g id="Grupo_1002947" data-name="Grupo 1002947" transform="translate(13.759 12.737)">
        <g id="Grupo_1002946" data-name="Grupo 1002946">
          <g id="Grupo_1002945" data-name="Grupo 1002945">
            <g id="Grupo_1002944" data-name="Grupo 1002944">
              <g id="Grupo_1002943" data-name="Grupo 1002943">
                <path id="Trazado_712231" data-name="Trazado 712231" d="M266.924,982.211a5.268,5.268,0,0,1,3.623-2.762c0-.05-.28-.115-.736-.057a3.619,3.619,0,0,0-2.746,2.094C266.887,981.91,266.876,982.2,266.924,982.211Z" transform="translate(-266.899 -979.368)" fill="#6f4439"/>
              </g>
            </g>
          </g>
        </g>
      </g>
      <g id="Grupo_1002952" data-name="Grupo 1002952" transform="translate(6.593 15.413)">
        <g id="Grupo_1002951" data-name="Grupo 1002951">
          <g id="Grupo_1002950" data-name="Grupo 1002950">
            <g id="Grupo_1002949" data-name="Grupo 1002949">
              <g id="Grupo_1002948" data-name="Grupo 1002948">
                <path id="Trazado_712232" data-name="Trazado 712232" d="M257.142,984.716a5.895,5.895,0,0,1,4.742-1.284c.018-.047-.24-.212-.718-.326a4.054,4.054,0,0,0-3.569.967C257.241,984.411,257.1,984.685,257.142,984.716Z" transform="translate(-257.135 -983.015)" fill="#6f4439"/>
              </g>
            </g>
          </g>
        </g>
      </g>
    </g>
    <g id="Grupo_1002956" data-name="Grupo 1002956" transform="translate(1164.751 3018.12)">
      <g id="Grupo_1002955" data-name="Grupo 1002955">
        <g id="Grupo_1002954" data-name="Grupo 1002954">
          <path id="Trazado_712233" data-name="Trazado 712233" d="M359.554,997.268s-9.471,1.582-10.3,1.772c-2.889.667-10.724,5.936-19.759,14.9-8.62,8.55-25.582,26.339-25.582,26.339s-3.049-3.078-6.525,1.03l-23.2-33.981-18.885,7.254,1.791,7.541c-5.218,9.234,11.47,31.885,14.848,37.515,0,0,18.678,31,33.432,25.384,13.476-5.126,29.978-18.372,33.126-21.084l19.47-14.841s13.589-25.914,7.585-38.872Z" transform="translate(-255.307 -997.268)" fill="#4db1f0"/>
        </g>
      </g>
    </g>
    <g id="Grupo_1002960" data-name="Grupo 1002960" transform="translate(1230.953 3070.475)">
      <g id="Grupo_1002959" data-name="Grupo 1002959">
        <g id="Grupo_1002958" data-name="Grupo 1002958">
          <g id="Grupo_1002957" data-name="Grupo 1002957">
            <path id="Trazado_712234" data-name="Trazado 712234" d="M345.509,1095.469a2.3,2.3,0,0,0,.393-.235l1.089-.727c.943-.637,2.3-1.573,3.961-2.742,3.33-2.337,7.893-5.617,12.868-9.326s9.422-7.151,12.612-9.675c1.595-1.262,2.878-2.292,3.757-3.014l1.008-.837a2.28,2.28,0,0,0,.337-.31,2.234,2.234,0,0,0-.38.255l-1.047.786-3.824,2.927c-3.227,2.475-7.694,5.881-12.668,9.591s-9.511,7.018-12.8,9.4l-3.9,2.83-1.052.78A2.25,2.25,0,0,0,345.509,1095.469Z" transform="translate(-345.509 -1068.603)" fill="#263238"/>
          </g>
        </g>
      </g>
    </g>
    <g id="Grupo_1002964" data-name="Grupo 1002964" transform="translate(1208.571 3060.319)">
      <g id="Grupo_1002963" data-name="Grupo 1002963">
        <g id="Grupo_1002962" data-name="Grupo 1002962">
          <g id="Grupo_1002961" data-name="Grupo 1002961">
            <path id="Trazado_712235" data-name="Trazado 712235" d="M315.134,1071.458c.06,0,.022-1,.138-2.6a27.329,27.329,0,0,1,3.687-11.864c.812-1.386,1.411-2.187,1.362-2.223a2.712,2.712,0,0,0-.467.528,17.334,17.334,0,0,0-1.1,1.568,24.281,24.281,0,0,0-3.722,11.978,17.21,17.21,0,0,0,.021,1.918A2.787,2.787,0,0,0,315.134,1071.458Z" transform="translate(-315.012 -1054.766)" fill="#263238"/>
          </g>
        </g>
      </g>
    </g>
    <g id="Grupo_1002968" data-name="Grupo 1002968" transform="translate(1204.029 3061.817)">
      <g id="Grupo_1002967" data-name="Grupo 1002967">
        <g id="Grupo_1002966" data-name="Grupo 1002966">
          <g id="Grupo_1002965" data-name="Grupo 1002965">
            <path id="Trazado_712236" data-name="Trazado 712236" d="M309.384,1070.5c.055-.01-.071-.784-.167-2.04a25.5,25.5,0,0,1,1.117-9.7c.379-1.2.677-1.927.626-1.949a1.761,1.761,0,0,0-.275.481,14.294,14.294,0,0,0-.582,1.389,21.338,21.338,0,0,0-1.128,9.807,14.284,14.284,0,0,0,.251,1.485A1.722,1.722,0,0,0,309.384,1070.5Z" transform="translate(-308.824 -1056.807)" fill="#263238"/>
          </g>
        </g>
      </g>
    </g>
    <g id="Grupo_1002972" data-name="Grupo 1002972" transform="translate(1259.096 3026.577)">
      <g id="Grupo_1002971" data-name="Grupo 1002971">
        <g id="Grupo_1002970" data-name="Grupo 1002970">
          <g id="Grupo_1002969" data-name="Grupo 1002969">
            <path id="Trazado_712237" data-name="Trazado 712237" d="M396.862,1045.065c-.03-.021.337-.541.925-1.522a23.713,23.713,0,0,0,2.024-4.385,24.041,24.041,0,0,0,1.309-7.014,22.482,22.482,0,0,0-5.766-16.079,24.021,24.021,0,0,0-5.468-4.584,23.7,23.7,0,0,0-4.349-2.1c-1.077-.383-1.691-.552-1.681-.587a2.032,2.032,0,0,1,.453.09c.291.082.734.163,1.276.357a21.682,21.682,0,0,1,4.441,2.008,23.569,23.569,0,0,1,5.591,4.582,22.467,22.467,0,0,1,5.855,16.327,23.6,23.6,0,0,1-1.405,7.09,21.706,21.706,0,0,1-2.153,4.373c-.3.494-.586.837-.759,1.086A2.087,2.087,0,0,1,396.862,1045.065Z" transform="translate(-383.855 -1008.791)" fill="#263238"/>
          </g>
        </g>
      </g>
    </g>
    <g id="Grupo_1002981" data-name="Grupo 1002981" transform="translate(1244.801 3068.236)">
      <g id="Grupo_1002976" data-name="Grupo 1002976" transform="translate(0 18.964)" opacity="0.3">
        <g id="Grupo_1002975" data-name="Grupo 1002975">
          <g id="Grupo_1002974" data-name="Grupo 1002974">
            <g id="Grupo_1002973" data-name="Grupo 1002973">
              <path id="Trazado_712238" data-name="Trazado 712238" d="M364.544,1091.424l.043-.032c-.07.009-.139.023-.208.032Z" transform="translate(-364.378 -1091.392)"/>
            </g>
          </g>
        </g>
      </g>
      <g id="Grupo_1002980" data-name="Grupo 1002980" transform="translate(0.208)" opacity="0.3">
        <g id="Grupo_1002979" data-name="Grupo 1002979">
          <g id="Grupo_1002978" data-name="Grupo 1002978">
            <g id="Grupo_1002977" data-name="Grupo 1002977">
              <path id="Trazado_712239" data-name="Trazado 712239" d="M389.393,1065.553s-16.645,12.99-24.731,18.964C375.294,1083.187,384.871,1075.27,389.393,1065.553Z" transform="translate(-364.662 -1065.553)"/>
            </g>
          </g>
        </g>
      </g>
    </g>
  </g>
</svg>
