<svg xmlns="http://www.w3.org/2000/svg" width="251" height="66" viewBox="0 0 251 66">
  <g id="Grupo_1013257" data-name="Grupo 1013257" transform="translate(5622 7069)">
    <path id="Trazado_716071" data-name="Trazado 716071" d="M0,0H251V66H0Z" transform="translate(-5622 -7069)" fill="#f6f6f6"/>
    <path id="Trazado_716065" data-name="Trazado 716065" d="M0,0H18" transform="translate(-5534 -7038)" fill="none" stroke="#707070" stroke-width="1.5"/>
    <path id="Trazado_716066" data-name="Trazado 716066" d="M0,0H54" transform="translate(-5498 -7038)" fill="none" stroke="#707070" stroke-width="1.5"/>
    <path id="Trazado_716067" data-name="Trazado 716067" d="M7.379,6.469,7.012,8.547H8.418L8.129,10.2H6.723L6,14.438a1.077,1.077,0,0,0,.063.609q.109.211.531.227.125.008.672-.039l-.156,1.727a3.706,3.706,0,0,1-1.266.18,1.985,1.985,0,0,1-1.617-.68,2.456,2.456,0,0,1-.437-1.8L4.52,10.2h-1.2l.289-1.656h1.2l.359-2.078Zm12.781,4.7H13.371L13.7,9.328h6.789Zm-.586,3.383H12.785l.328-1.844H19.9Z" transform="translate(-5558 -7049)" fill="#12263f"/>
    <path id="Trazado_716068" data-name="Trazado 716068" d="M15.527,11.172H8.738l.328-1.844h6.789Zm-.586,3.383H8.152l.328-1.844H15.27Z" transform="translate(-5521 -7049)" fill="#12263f"/>
    <path id="Trazado_716069" data-name="Trazado 716069" d="M11.617,14.211l2.406-5.664H16.4L12.313,17H10.2L8.758,8.547h2.234Zm2.469,26.047L15.664,41.8,14.1,43.031l-1.992-1.937a4.222,4.222,0,0,1-.828.055,3.6,3.6,0,0,1-2.75-1.156,4.818,4.818,0,0,1-1.164-3.07,8.686,8.686,0,0,1,.141-2.145,8.045,8.045,0,0,1,.7-2.176,6.368,6.368,0,0,1,1.207-1.7,4.91,4.91,0,0,1,1.629-1.082,4.8,4.8,0,0,1,1.938-.348,3.976,3.976,0,0,1,2,.539,3.617,3.617,0,0,1,1.359,1.484,5.451,5.451,0,0,1,.57,2.219,7.909,7.909,0,0,1-.039,1.359l-.133.9A6.124,6.124,0,0,1,14.086,40.258Zm.531-6a3.732,3.732,0,0,0-.395-2.137,1.571,1.571,0,0,0-1.348-.723,2.473,2.473,0,0,0-2.27,1.266,7.455,7.455,0,0,0-.949,3.672,3.762,3.762,0,0,0,.367,2.129,1.563,1.563,0,0,0,1.383.777,2.345,2.345,0,0,0,2.031-.957,5.79,5.79,0,0,0,1.055-2.863Q14.594,34.672,14.617,34.258Z" transform="translate(-5536 -7060)" fill="#12263f"/>
    <path id="Trazado_716070" data-name="Trazado 716070" d="M9.082,17h-2.2l1.5-8.656L5.613,9.18l.344-1.93,4.75-1.641L11,5.6Zm7.508.156a2.884,2.884,0,0,1-2.281-1,4.205,4.205,0,0,1-.828-2.7,8.6,8.6,0,0,1,.063-1.156l.32-2.133a6.638,6.638,0,0,1,1.508-3.531,3.652,3.652,0,0,1,2.883-1.164,2.9,2.9,0,0,1,2.285,1,4.161,4.161,0,0,1,.832,2.691,8.673,8.673,0,0,1-.062,1.164l-.328,2.117a6.781,6.781,0,0,1-1.5,3.551A3.63,3.63,0,0,1,16.59,17.156ZM19.238,8.9q0-1.552-1.094-1.606-1.578-.07-2.008,2.4l-.391,2.635a9.495,9.495,0,0,0-.125,1.372q-.039,1.583,1.086,1.637,1.586.1,2.016-2.472l.414-2.776A8.178,8.178,0,0,0,19.238,8.9Zm6.336,8.261a2.884,2.884,0,0,1-2.281-1,4.205,4.205,0,0,1-.828-2.7,8.6,8.6,0,0,1,.063-1.156l.32-2.133a6.638,6.638,0,0,1,1.508-3.531,3.652,3.652,0,0,1,2.883-1.164,2.9,2.9,0,0,1,2.285,1,4.161,4.161,0,0,1,.832,2.691,8.673,8.673,0,0,1-.062,1.164l-.328,2.117a6.781,6.781,0,0,1-1.5,3.551A3.63,3.63,0,0,1,25.574,17.156ZM28.223,8.9q0-1.552-1.094-1.606-1.578-.07-2.008,2.4l-.391,2.635a9.494,9.494,0,0,0-.125,1.372q-.039,1.583,1.086,1.637,1.586.1,2.016-2.472l.414-2.776A8.178,8.178,0,0,0,28.223,8.9Zm6.336,8.261a2.884,2.884,0,0,1-2.281-1,4.205,4.205,0,0,1-.828-2.7,8.6,8.6,0,0,1,.063-1.156l.32-2.133A6.638,6.638,0,0,1,33.34,6.633a3.652,3.652,0,0,1,2.883-1.164,2.9,2.9,0,0,1,2.285,1,4.161,4.161,0,0,1,.832,2.691,8.673,8.673,0,0,1-.062,1.164l-.328,2.117a6.781,6.781,0,0,1-1.5,3.551A3.63,3.63,0,0,1,34.559,17.156ZM37.207,8.9q0-1.552-1.094-1.606-1.578-.07-2.008,2.4l-.391,2.635A9.495,9.495,0,0,0,33.59,13.7q-.039,1.583,1.086,1.637,1.586.1,2.016-2.472l.414-2.776A8.178,8.178,0,0,0,37.207,8.9Zm9.273,6.222h4.828L50.98,17H43.863L45.84,5.625h2.289ZM7.691,41.156a2.884,2.884,0,0,1-2.281-1,4.205,4.205,0,0,1-.828-2.7A8.6,8.6,0,0,1,4.645,36.3l.32-2.133a6.638,6.638,0,0,1,1.508-3.531,3.652,3.652,0,0,1,2.883-1.164,2.9,2.9,0,0,1,2.285,1,4.161,4.161,0,0,1,.832,2.691,8.673,8.673,0,0,1-.062,1.164l-.328,2.117a6.781,6.781,0,0,1-1.5,3.551A3.63,3.63,0,0,1,7.691,41.156ZM10.34,32.9q0-1.552-1.094-1.606-1.578-.07-2.008,2.4l-.391,2.635A9.494,9.494,0,0,0,6.723,37.7q-.039,1.583,1.086,1.637,1.586.1,2.016-2.472l.414-2.776A8.178,8.178,0,0,0,10.34,32.9Zm2.789,10.956-1.164-.633.57-.914a4.9,4.9,0,0,0,.641-1.57l.289-1.656h1.859L15.1,40.516A5.172,5.172,0,0,1,13.129,43.852Zm10.8-7.133h1.25l-.32,1.82h-1.25L23.176,41h-2.2l.43-2.461H16.887L17.043,37l5.8-7.375h2.3ZM19.332,36.7l2.391.016.773-4.047-.2.281Zm13.133,2.414h4.828L36.965,41H29.848l1.977-11.375h2.289Zm6.3,2.859H37.035l6.2-12.352H44.98Zm10.2-3.359q.125-.625-.867-.906l-.711-.18q-2.523-.7-2.453-2.453a2.428,2.428,0,0,1,1.059-1.949,3.942,3.942,0,0,1,2.457-.738,3.536,3.536,0,0,1,2.313.758,2.5,2.5,0,0,1,.9,1.977l-2.187-.008a.963.963,0,0,0-1.078-1.1,1.551,1.551,0,0,0-.895.258,1.061,1.061,0,0,0-.465.7q-.117.625.945.883l.313.07a6.285,6.285,0,0,1,1.648.59,2.488,2.488,0,0,1,.879.824,2.04,2.04,0,0,1,.285,1.18,2.251,2.251,0,0,1-.52,1.406,3.18,3.18,0,0,1-1.359.93,4.736,4.736,0,0,1-1.816.3,3.568,3.568,0,0,1-2.344-.809,2.607,2.607,0,0,1-.953-2.051l2.078.016a1.142,1.142,0,0,0,1.3,1.227,1.845,1.845,0,0,0,1-.25A.988.988,0,0,0,48.965,38.617Z" transform="translate(-5500 -7060)" fill="#12263f"/>
  </g>
</svg>
