<svg xmlns="http://www.w3.org/2000/svg" width="342.06" height="373.171" viewBox="0 0 342.06 373.171">
  <g id="Grupo_1008967" data-name="Grupo 1008967" transform="translate(-38.798 -18.569)">
    <g id="OBJECTS" transform="translate(38.798 19.339)">
      <g id="Grupo_1008961" data-name="Grupo 1008961" transform="translate(65.788)">
        <path id="Trazado_714201" data-name="Trazado 714201" d="M316.9,360.78l-17.644,9.854a7.875,7.875,0,0,1-10.268-2.327l-60.246-85.135L266.8,261.918l45.389,81.265a7.878,7.878,0,0,0,3.875,3.441h0A7.875,7.875,0,0,1,316.9,360.78Z" transform="translate(-153.393 -73.976)" fill="#2c54ac"/>
        <path id="Trazado_714202" data-name="Trazado 714202" d="M313.4,362.739l-17.644,9.854a7.874,7.874,0,0,1-10.268-2.326l-60.246-85.136,38.053-21.253,45.389,81.264a7.874,7.874,0,0,0,3.875,3.441h0A7.875,7.875,0,0,1,313.4,362.739Z" transform="translate(-152.602 -74.417)" fill="#0a2a6b"/>
        <ellipse id="Elipse_8432" data-name="Elipse 8432" cx="16.676" cy="45.623" rx="16.676" ry="45.623" transform="translate(0 153.378) rotate(-29.185)" fill="#55a3f3"/>
        <g id="Grupo_1008957" data-name="Grupo 1008957" transform="translate(14.559 26.514)">
          <path id="Trazado_714203" data-name="Trazado 714203" d="M285.021,56.053a254.442,254.442,0,0,1-92.853,97.794c-3.464,8.616.843,27.147,11.405,46.057s24.081,32.3,33.234,33.866A254.436,254.436,0,0,1,368.771,206l2.821.171L286.355,53.561Z" transform="translate(-159.448 -53.561)" fill="#9ddcf9"/>
          <path id="Trazado_714204" data-name="Trazado 714204" d="M194.4,229.058C183.841,210.148,179.534,191.617,183,183q-3.674,2.217-7.425,4.318l-25.295,14.128,44.494,79.663,25.295-14.128q3.754-2.1,7.571-4.057C218.484,261.354,204.965,247.968,194.4,229.058Z" transform="translate(-150.278 -82.715)" fill="#55a3f3"/>
        </g>
        <g id="Grupo_1008958" data-name="Grupo 1008958" transform="translate(98.287 209.678)" opacity="0.3">
          <path id="Trazado_714205" data-name="Trazado 714205" d="M275.575,293.742l-14.235,7.951a2.013,2.013,0,0,1-2.739-.776h0a2.013,2.013,0,0,1,.776-2.739l14.234-7.951a2.014,2.014,0,0,1,2.739.776h0A2.012,2.012,0,0,1,275.575,293.742Z" transform="translate(-258.346 -289.972)" fill="#55a3f3"/>
          <path id="Trazado_714206" data-name="Trazado 714206" d="M280.6,302.733l-14.234,7.951a2.013,2.013,0,0,1-2.739-.776h0a2.013,2.013,0,0,1,.776-2.739l14.235-7.951a2.013,2.013,0,0,1,2.739.776h0A2.013,2.013,0,0,1,280.6,302.733Z" transform="translate(-259.477 -291.997)" fill="#55a3f3"/>
          <path id="Trazado_714207" data-name="Trazado 714207" d="M285.618,311.724l-14.234,7.951a2.013,2.013,0,0,1-2.739-.776h0a2.012,2.012,0,0,1,.776-2.739l14.234-7.95a2.012,2.012,0,0,1,2.739.776h0A2.012,2.012,0,0,1,285.618,311.724Z" transform="translate(-260.608 -294.022)" fill="#55a3f3"/>
          <path id="Trazado_714208" data-name="Trazado 714208" d="M290.64,320.715l-14.234,7.951a2.014,2.014,0,0,1-2.74-.776h0a2.013,2.013,0,0,1,.776-2.739l14.234-7.95a2.012,2.012,0,0,1,2.739.776h0A2.013,2.013,0,0,1,290.64,320.715Z" transform="translate(-261.739 -296.047)" fill="#55a3f3"/>
          <path id="Trazado_714209" data-name="Trazado 714209" d="M295.662,329.706l-14.235,7.95a2.013,2.013,0,0,1-2.739-.776h0a2.013,2.013,0,0,1,.776-2.739l14.234-7.951a2.013,2.013,0,0,1,2.739.776h0A2.013,2.013,0,0,1,295.662,329.706Z" transform="translate(-262.87 -298.072)" fill="#55a3f3"/>
          <path id="Trazado_714210" data-name="Trazado 714210" d="M300.683,338.7l-14.234,7.95a2.012,2.012,0,0,1-2.739-.776h0a2.013,2.013,0,0,1,.776-2.739l14.235-7.951a2.013,2.013,0,0,1,2.739.776h0A2.013,2.013,0,0,1,300.683,338.7Z" transform="translate(-264.001 -300.097)" fill="#55a3f3"/>
          <path id="Trazado_714211" data-name="Trazado 714211" d="M305.705,347.687l-14.234,7.951a2.012,2.012,0,0,1-2.739-.776h0a2.012,2.012,0,0,1,.776-2.739l14.234-7.951a2.013,2.013,0,0,1,2.739.776h0A2.012,2.012,0,0,1,305.705,347.687Z" transform="translate(-265.132 -302.122)" fill="#55a3f3"/>
          <path id="Trazado_714212" data-name="Trazado 714212" d="M310.727,356.678l-14.235,7.951a2.013,2.013,0,0,1-2.739-.776h0a2.013,2.013,0,0,1,.776-2.739l14.234-7.951a2.013,2.013,0,0,1,2.739.776h0A2.013,2.013,0,0,1,310.727,356.678Z" transform="translate(-266.263 -304.147)" fill="#55a3f3"/>
          <path id="Trazado_714213" data-name="Trazado 714213" d="M315.748,365.669l-14.234,7.951a2.013,2.013,0,0,1-2.739-.776h0a2.013,2.013,0,0,1,.776-2.739l14.235-7.95a2.013,2.013,0,0,1,2.739.776h0A2.013,2.013,0,0,1,315.748,365.669Z" transform="translate(-267.394 -306.172)" fill="#55a3f3"/>
        </g>
        <g id="Grupo_1008959" data-name="Grupo 1008959" transform="translate(32.954 144.121)" opacity="0.3" style="mix-blend-mode: multiply;isolation: isolate">
          <path id="Trazado_714214" data-name="Trazado 714214" d="M283.709,216.158c-39.4,11.3-76.188,30.593-109.688,54.286,9.923,12.334,20.246,18.969,26.1,15.7l16.934-9.458,56.9,80.4a7.874,7.874,0,0,0,10.268,2.326l17.644-9.854h0l2.718-1.518a7.875,7.875,0,0,0-.841-14.157,7.878,7.878,0,0,1-3.875-3.441l-41.287-73.919a254.4,254.4,0,0,1,106.372-16.339l2.82.171-.042-.075c4.491.933,8.519.551,11.88-1.326,7.825-4.37,10.663-16.058,9-31.745C353.646,202.811,317.663,206.426,283.709,216.158Z" transform="translate(-174.021 -205.358)" fill="#55a3f3"/>
        </g>
        <ellipse id="Elipse_8433" data-name="Elipse 8433" cx="35.079" cy="91.984" rx="35.079" ry="91.984" transform="translate(118.205 34.211) rotate(-29.185)" fill="#55a3f3"/>
        <ellipse id="Elipse_8434" data-name="Elipse 8434" cx="31.365" cy="85.159" rx="31.365" ry="85.159" transform="matrix(0.873, -0.488, 0.488, 0.873, 124.776, 38.359)" fill="#0a2a6b"/>
        <g id="Grupo_1008960" data-name="Grupo 1008960" transform="translate(156.303 58.517)">
          <path id="Trazado_714215" data-name="Trazado 714215" d="M418.619,95.9l-14.274,6.785c3.327,4.962,6.569,10.236,9.666,15.781q1.18,2.113,2.3,4.221l12.681-8.217a10.658,10.658,0,0,0,3.51-14.142h0A10.659,10.659,0,0,0,418.619,95.9Z" transform="translate(-349.246 -94.868)" fill="#2c54ac"/>
          <path id="Trazado_714216" data-name="Trazado 714216" d="M388.327,104.961l-55.1,26.195c2.864,6.606,6.2,13.377,10,20.175q2.2,3.942,4.5,7.7l52.57-34.066q-1.121-2.108-2.3-4.221C394.9,115.2,391.654,109.923,388.327,104.961Z" transform="translate(-333.228 -97.141)" fill="#2c54ac"/>
        </g>
      </g>
      <g id="Grupo_1008965" data-name="Grupo 1008965" transform="translate(0 173.396)">
        <path id="Trazado_714217" data-name="Trazado 714217" d="M129.075,384.488l54.043,17.6,34.084-44.3,11.874,9.173L189.8,430.839l-65.449-14.546Z" transform="translate(-64.093 -268.964)" fill="#1b588f"/>
        <path id="Trazado_714218" data-name="Trazado 714218" d="M79.37,332.339c.049,6.828.309,13.451.7,20.268,3.772,5.279,8.942,9.785,15.163,11.631a33.914,33.914,0,0,0,13.59.694,23.288,23.288,0,0,0,11.13-3.872c-1.861-2.909-3.759-5.91-4.406-9.3-.422-2.21-.786-24.822-.786-24.822s10.288-2.846,14.161-5.114a7.082,7.082,0,0,0,3-2.687,6.82,6.82,0,0,0,.308-3.9,50.781,50.781,0,0,0-1.436-7.143,21.446,21.446,0,0,1-11.788-4.993,50.9,50.9,0,0,0,9.578-1.192,27.679,27.679,0,0,1-1.413-3.624c2.382-2.728,4.81-5.528,6.988-8.422-4.46-2.279-8.974-4.96-13.2-7.648a55.686,55.686,0,0,0-7.031-12.54c-1.2-1.616-3.411-2.424-5.372-2.89a20.834,20.834,0,0,0-12.5,1.129,29.1,29.1,0,0,0-10.309,7.333,36.547,36.547,0,0,0-9.383,20.165,64.854,64.854,0,0,0,.494,15.863C77.727,318.356,79.319,325.2,79.37,332.339Z" transform="translate(-53.215 -248.354)" fill="#fdb5aa"/>
        <path id="Trazado_714219" data-name="Trazado 714219" d="M107.29,265.064s-13.993,7.61-22.01,7.5a72.453,72.453,0,0,0,2.961,7.867c2.052,4.87,3.791,9.563,5.842,14.434a34.225,34.225,0,0,1-5.614,2.1c-1.431-3.312-2.971-6.79-4.4-10.1-3-.735-6.273,1.281-7.415,4.154a9.164,9.164,0,0,0,1.515,8.734,8.868,8.868,0,0,0,4.083,3.064,15.334,15.334,0,0,0,5.756.275,35.987,35.987,0,0,1-4.061,30.219,21.051,21.051,0,0,0-.854-8.581A29.58,29.58,0,0,1,73.249,338.8c-.293-5.76-2.9-11.183-6.208-15.9s-7.347-8.883-11-13.349-6.97-9.361-8.509-14.919-1.459-12.369,1.949-17.022c-2.743-2.776-2.979-7.4-1.268-10.9s5.017-6.008,8.559-7.646,7.371-2.535,11.1-3.685a83.513,83.513,0,0,0,15.683-6.657c4.2-2.314,8.394-5.057,13.168-5.5a22.958,22.958,0,0,1,10.4,1.956c4.574,1.8,9.248,4.613,10.889,9.245,1.337,3.774,0,7.783-1.934,11.288a14.061,14.061,0,0,0-1.761-7.816c.515,4.225-.34,9.078-3.505,11.923A33.648,33.648,0,0,0,107.29,265.064Z" transform="translate(-46.574 -243.143)"/>
        <path id="Trazado_714220" data-name="Trazado 714220" d="M145.444,474.136s-1.084-41.769-4.988-58.9a90.8,90.8,0,0,0-13.367-30.067L115.1,387.949l11.865,86.187Z" transform="translate(-62.008 -275.131)" fill="#4db1f0"/>
        <path id="Trazado_714221" data-name="Trazado 714221" d="M46.574,469.955,73.249,366.6s21.844,3.676,30.736,14.737a78.54,78.54,0,0,1,12.638,23.187l42.884,19.105,51.477-40.146,11.972,16.794-58.678,46.559-45.721-9.977,4.081,33.093Z" transform="translate(-46.574 -270.95)" fill="#3076b6"/>
        <path id="Trazado_714222" data-name="Trazado 714222" d="M214.743,395.141l-44.774,34.918L93.028,397.416" transform="translate(-57.037 -277.377)" fill="none" stroke="#9ddcf9" stroke-miterlimit="10" stroke-width="1"/>
        <line id="Línea_2458" data-name="Línea 2458" x1="31.298" y1="7.582" transform="translate(40.684 158.33)" fill="none" stroke="#9ddcf9" stroke-miterlimit="10" stroke-width="1"/>
        <path id="Trazado_714223" data-name="Trazado 714223" d="M123.552,344.569l-8.454,2.277,8.527,1.772Z" transform="translate(-62.008 -265.987)" fill="#0a2a6b"/>
        <path id="Trazado_714224" data-name="Trazado 714224" d="M126.7,292.908a2.3,2.3,0,1,1-2.3-2.3A2.3,2.3,0,0,1,126.7,292.908Z" transform="translate(-63.583 -253.832)"/>
        <path id="Trazado_714225" data-name="Trazado 714225" d="M113.723,290.722a12.315,12.315,0,0,1,11.367-11.67" transform="translate(-61.698 -251.231)" fill="none" stroke="#080808" stroke-miterlimit="10" stroke-width="3"/>
        <g id="Grupo_1008963" data-name="Grupo 1008963" transform="translate(2.162 6.126)" opacity="0.2">
          <path id="Trazado_714229" data-name="Trazado 714229" d="M116.4,259.875a11.728,11.728,0,0,0-4.266-5.512c-2.433-1.924-5.378-3.507-8.471-3.294-2.994.207-5.588,2.037-8.1,3.675a53.96,53.96,0,0,1-17.315,7.776c-3.415.773-6.92,1.085-10.34,1.835a20.465,20.465,0,0,0-9.439,4.332c-2.6,2.34-4.267,5.947-3.57,9.379" transform="translate(-50.575 -251.049)" fill="none" stroke="#9ddcf9" stroke-miterlimit="10" stroke-width="1"/>
          <path id="Trazado_714230" data-name="Trazado 714230" d="M112.192,270.748c2.5-2.723,2.107-7.276-.158-10.2a6.664,6.664,0,0,0-4.392-2.733,7.931,7.931,0,0,0-4.97,1.581c-4.456,2.892-7.835,7.465-12.777,9.414-3.934,1.552-8.316,1.221-12.543,1.1s-8.732.086-12.221,2.476a22.266,22.266,0,0,0-5.367,6.051" transform="translate(-51.707 -252.568)" fill="none" stroke="#9ddcf9" stroke-miterlimit="10" stroke-width="1"/>
          <path id="Trazado_714231" data-name="Trazado 714231" d="M91.826,281.1a150.62,150.62,0,0,0-25.456,2.5" transform="translate(-53.195 -257.818)" fill="none" stroke="#9ddcf9" stroke-miterlimit="10" stroke-width="1"/>
          <path id="Trazado_714232" data-name="Trazado 714232" d="M71.125,288.062c3.782,2.637,5.554,7.389,6.014,11.977A29.749,29.749,0,0,1,65.725,326.2" transform="translate(-53.05 -259.386)" fill="none" stroke="#9ddcf9" stroke-miterlimit="10" stroke-width="1"/>
          <path id="Trazado_714233" data-name="Trazado 714233" d="M61.635,290.845a20.9,20.9,0,0,1-6.912,26.027" transform="translate(-50.572 -260.012)" fill="none" stroke="#9ddcf9" stroke-miterlimit="10" stroke-width="1"/>
          <path id="Trazado_714234" data-name="Trazado 714234" d="M49.365,308.488A16.46,16.46,0,0,0,54.41,290.7" transform="translate(-49.365 -259.98)" fill="none" stroke="#9ddcf9" stroke-miterlimit="10" stroke-width="1"/>
        </g>
        <g id="Grupo_1008964" data-name="Grupo 1008964" transform="translate(164.41 87.239)">
          <path id="Trazado_714235" data-name="Trazado 714235" d="M258.779,383.5l16.576-16.83,10.3,15.244a39.147,39.147,0,0,1-10.542,7.054,50.711,50.711,0,0,1-10.066,3.323Z" transform="translate(-258.779 -358.204)" fill="#fdb5aa"/>
          <path id="Trazado_714236" data-name="Trazado 714236" d="M280.095,364.392c4.883-3.839,10.175-7.591,16.307-8.578a2.6,2.6,0,0,1,1.37.043.975.975,0,0,1,.646,1.087,1,1,0,0,1-.305.449,7.3,7.3,0,0,1-1.574,1.048,99.428,99.428,0,0,0-14.776,9.462c6.121-2.812,12.164-5.618,18.871-6.235a5.925,5.925,0,0,1,3.06.311.87.87,0,0,1,.545.552c.07.368-.277.672-.592.876-2.788,1.8-6.087,2.578-9.232,3.631a52.858,52.858,0,0,0-10.508,4.855c7.237-2.406,14.122-4.613,21.723-5.244.122-.01.245-.019.368-.027a1.263,1.263,0,0,1,.891,2.217,7.91,7.91,0,0,1-2.18,1.287,26.973,26.973,0,0,1-3.9,1.17c-.862.188-1.736.335-2.584.583a22.41,22.41,0,0,0-2.629,1.017l-8.859,3.861a60.174,60.174,0,0,1,18.1-3.611c.407-.015.637.448.68.852a1.243,1.243,0,0,1-.507,1.054,3.185,3.185,0,0,1-1.054.5,20.382,20.382,0,0,1-5.716.972c-2.217.043-4.3,1.477-6.251,2.524a6.24,6.24,0,0,1-3.131,1.081,4.438,4.438,0,0,1-2.619-.315,11.737,11.737,0,0,1-6.2-14.115" transform="translate(-263.448 -355.743)" fill="#fdb5aa"/>
        </g>
        <path id="Trazado_714237" data-name="Trazado 714237" d="M244.2,354.043l12.646-12.88,10.625,14.979-11.4,7.074Z" transform="translate(-91.084 -265.22)" fill="#fdb5aa"/>
        <path id="Trazado_714238" data-name="Trazado 714238" d="M244.2,353.11s3.957-9.308,7.157-11.725,11.112-4.835,12.36-4.289.116,4.265-2.537,5.826-5.344,3.462-5.344,3.462Z" transform="translate(-91.084 -264.286)" fill="#fdb5aa"/>
        <path id="Trazado_714239" data-name="Trazado 714239" d="M262.435,345.971l-4.572,2.2s.084,3.576-.564,4.917" transform="translate(-94.036 -266.303)" fill="none" stroke="#0a2a6b" stroke-miterlimit="10" stroke-width="1"/>
      </g>
      <g id="Grupo_1008966" data-name="Grupo 1008966" transform="translate(224.038 1.56)">
        <line id="Línea_2459" data-name="Línea 2459" x1="36.107" y2="54.009" transform="translate(0 1.55)" fill="none" stroke="#9ddcf9" stroke-miterlimit="10" stroke-width="6"/>
        <line id="Línea_2460" data-name="Línea 2460" x1="91.975" y2="74.605" transform="translate(2.86)" fill="none" stroke="#9ddcf9" stroke-miterlimit="10" stroke-width="6"/>
        <line id="Línea_2461" data-name="Línea 2461" x1="65.756" y2="10.74" transform="translate(35.986 128.523)" fill="none" stroke="#9ddcf9" stroke-miterlimit="10" stroke-width="6"/>
        <line id="Línea_2462" data-name="Línea 2462" x1="94.582" y2="40.31" transform="translate(22.264 85.546)" fill="none" stroke="#9ddcf9" stroke-miterlimit="10" stroke-width="6"/>
      </g>
    </g>
  </g>
</svg>
