<svg xmlns="http://www.w3.org/2000/svg" xmlns:xlink="http://www.w3.org/1999/xlink" width="400" height="319.161" viewBox="0 0 400 319.161">
  <defs>
    <radialGradient id="radial-gradient" cx="0.697" cy="3.138" r="3.976" gradientTransform="matrix(-0.383, 0.253, 0.1, 0.967, -4.219, -0.809)" gradientUnits="objectBoundingBox">
      <stop offset="0" stop-color="#80000b"/>
      <stop offset="0.159" stop-color="#85050c"/>
      <stop offset="0.352" stop-color="#93140f"/>
      <stop offset="0.563" stop-color="#ab2c14"/>
      <stop offset="0.785" stop-color="#cc4e1c"/>
      <stop offset="1" stop-color="#f47725"/>
    </radialGradient>
    <radialGradient id="radial-gradient-2" cx="0.671" cy="3.527" r="4.701" gradientTransform="matrix(-0.352, 0.253, 0.092, 0.967, -4.889, -0.817)" xlink:href="#radial-gradient"/>
    <radialGradient id="radial-gradient-3" cx="0.504" cy="0.578" r="0.882" gradientTransform="matrix(-0.426, 0.253, 0.111, 0.967, -4.153, -0.959)" xlink:href="#radial-gradient"/>
  </defs>
  <g id="Grupo_1013262" data-name="Grupo 1013262" transform="translate(-180 -407.99)">
    <g id="Grupo_1007436" data-name="Grupo 1007436" transform="translate(180 407.99)">
      <g id="Grupo_1007399" data-name="Grupo 1007399" transform="translate(0 0)">
        <path id="Trazado_713382" data-name="Trazado 713382" d="M-338.455,452.256l18.638,4.616,17.667.841a16.671,16.671,0,0,1,7.64,2.273l18.373,10.776,43.268,16.389q2.616.993,5.308,1.766l52.314,15.073a5.9,5.9,0,0,1,1.882,10.4l-1.469,1.091a28.775,28.775,0,0,1-22.884,5.094L-265.961,506.7l-51.3-9.658a52.65,52.65,0,0,0-26.626,1.926Z" transform="translate(505.622 -432.246)" fill="#fbd4bf"/>
        <path id="Trazado_713383" data-name="Trazado 713383" d="M-338.455,452.256l18.638,4.616,17.667.841a16.677,16.677,0,0,1,7.64,2.273l18.373,10.776,43.268,16.389q2.616.993,5.308,1.766l52.314,15.073a5.9,5.9,0,0,1,1.882,10.4l-1.469,1.091a28.772,28.772,0,0,1-3.206,2.032c-4.9-4.9-40.5-6.622-60.416-5.219l-27.5-5.592-51.3-9.658a52.65,52.65,0,0,0-26.626,1.926Z" transform="translate(505.622 -432.246)" fill="#f9c3a1"/>
        <path id="Trazado_713384" data-name="Trazado 713384" d="M-359.094,448.979l21.813,3.291,20.3-.924A19.136,19.136,0,0,1-308,453.129l22.165,10.366,51.247,14.127q3.1.855,6.257,1.455l61.452,11.655a6.772,6.772,0,0,1,3.263,11.692l-1.563,1.4a33.057,33.057,0,0,1-25.634,8.272l-79.541-8.583-59.718-5.571a60.5,60.5,0,0,0-30.251,5.049Z" transform="translate(526.3 -435.01)" fill="#fbd4bf"/>
        <path id="Trazado_713385" data-name="Trazado 713385" d="M-359,448.979l21.813,3.291,20.3-.924a19.129,19.129,0,0,1,8.982,1.783l22.167,10.364,51.247,14.129q3.1.855,6.257,1.455l61.452,11.655a6.66,6.66,0,0,1,5.339,5.381c-20.878-3.87-89.531-.78-92.444,9.172l-16.372-1.766-59.716-5.573a60.5,60.5,0,0,0-30.251,5.049Z" transform="translate(526.204 -435.01)" fill="#fac9af"/>
        <path id="Trazado_713386" data-name="Trazado 713386" d="M-374.269,450.81l-.12.354a94.066,94.066,0,0,0-1.252,56.259h0A16.533,16.533,0,0,0-361.6,519.262l29.336,3.285h0a130.976,130.976,0,0,0,31.832,30.877l9.974,6.825c10.691,7.315,39.818,59.823,39.818,59.823,4.271,5.237,7.358,8.067,14.1,7.586h0a17.669,17.669,0,0,0,16.382-18.6l-.19-3.4a87.891,87.891,0,0,0-12.086-39.837l-3.285-5.558a22.319,22.319,0,0,1,1.329-24.7l6.764-9.061a70.98,70.98,0,0,1,52.863-28.407l70.145-3.98,93.637-3.954A38.718,38.718,0,0,0,17.266,476.1l1.565-1.9a7.934,7.934,0,0,0-5.822-12.975l-73.218-2.765q-3.764-.141-7.5-.59l-61.828-7.413-27.487-8.134a22.409,22.409,0,0,0-10.715-.5l-23.35,4.614h-93.587a27.022,27.022,0,0,0-11.614,2.625h0a31.393,31.393,0,0,1-17.9,2.738l-53.175-5.027A6.086,6.086,0,0,0-374.269,450.81Z" transform="translate(379.344 -441.402)" fill="#fbd2bb"/>
        <path id="Trazado_713387" data-name="Trazado 713387" d="M-229.781,526.17a8.621,8.621,0,0,1,10.025,7.116q.152.974.284,1.949l.546,4.071a12.021,12.021,0,0,1-9.881,13.462c-.422.07-.819.12-1.2.151-2.306.181-3.836.393-7.809-4.539-1.691-2.094-3.611-5.005-5.824-8.386a7.939,7.939,0,0,1,4.946-12.106Q-234.257,526.943-229.781,526.17Z" transform="translate(371.047 -370.007)" fill="#fcdac7"/>
        <path id="Trazado_713388" data-name="Trazado 713388" d="M-196.8,465.1a17.317,17.317,0,0,0-10.619-18.039l13.1,1.239a31.393,31.393,0,0,0,17.9-2.738C-182.609,448.622-189.97,453.353-196.8,465.1Z" transform="translate(259.463 -437.894)" fill="#f9c3a1"/>
        <path id="Trazado_713389" data-name="Trazado 713389" d="M-167.948,470.373a43.221,43.221,0,0,0,2.69,27.736l-22.65-2.537C-176.583,493.845-170.7,475.338-167.948,470.373Z" transform="translate(212.34 -416.963)" fill="#f9c3a1"/>
      </g>
      <g id="Grupo_1007435" data-name="Grupo 1007435" transform="translate(187.997 116.269)">
        <g id="Grupo_1007404" data-name="Grupo 1007404">
          <g id="Grupo_1007403" data-name="Grupo 1007403">
            <g id="Grupo_1007400" data-name="Grupo 1007400" transform="translate(0 31.124)">
              <path id="Trazado_713390" data-name="Trazado 713390" d="M-354.495,600.294c-1.58-8.268-2.2-16.892-.677-25.245a39.934,39.934,0,0,1,11.834-22.38c7.409-6.816,17.3-8.8,27.024-9.806a55.215,55.215,0,0,1,5.9-.784c4.4-.367,8.794-.8,13.163-1.438a113.63,113.63,0,0,0,13.032-2.621,111.656,111.656,0,0,0,12.634-4.281c2.345-.936,4.662-1.937,7-2.889.8-.325,1.593-.649,2.393-.966,0-.033.007-.066.009-.1,1.849-.819,3.685-1.648,5.512-2.448,9.1-3.984,18.859-7.241,28.826-4.887a39.941,39.941,0,0,1,21.278,13.716c5.424,6.535,9.1,14.359,11.775,22.342a137.75,137.75,0,0,1,5.509,24.37,147.038,147.038,0,0,1,1.449,31.038,93.91,93.91,0,0,1-6.93,29.9,117.155,117.155,0,0,1-6.721,13.176,85.68,85.68,0,0,1-8.34,12.173,40.819,40.819,0,0,1-10.707,9.347,25.947,25.947,0,0,1-6.4,2.647c-2.468.636-5.636.081-8.268,1.042-3.486,1.27-6.006,3.772-9.854,4.478-3.475.636-7.1.11-10.53,1.017-2.666.7-4.922,2.306-7.459,3.333a14.964,14.964,0,0,1-7.114,1.135,27.879,27.879,0,0,1-3.112.147,40.8,40.8,0,0,1-13.911-2.905,85.822,85.822,0,0,1-13.235-6.528,117.409,117.409,0,0,1-12.313-8.195,93.919,93.919,0,0,1-20.686-22.675,146.9,146.9,0,0,1-13.939-27.771A137.893,137.893,0,0,1-354.495,600.294Z" transform="translate(356.602 -521.097)" fill="#e31a2c"/>
              <path id="Trazado_713391" data-name="Trazado 713391" d="M-243.825,687.281a20.922,20.922,0,0,0,5.18-2.367,25.1,25.1,0,0,1,3.881-1.939,15.138,15.138,0,0,1,4.52-.629,17.673,17.673,0,0,0,3.7-.4,26.226,26.226,0,0,0,6.543-2.7,40.913,40.913,0,0,0,10.855-9.47,85.18,85.18,0,0,0,8.4-12.25A116.663,116.663,0,0,0-194,644.288a94.346,94.346,0,0,0,6.972-30.079,146.87,146.87,0,0,0-1.455-31.154,137.742,137.742,0,0,0-5.531-24.468c-3.1-9.26-6.983-16.627-11.872-22.519a40.176,40.176,0,0,0-21.575-13.9c-10.239-2.419-20.071.935-29.174,4.919-1.062.466-2.129.942-3.2,1.419-.769.343-1.539.688-2.314,1.029a.559.559,0,0,0-.229.188q-1.081.432-2.159.872c-1.021.417-2.037.841-3.055,1.266-1.311.547-2.622,1.1-3.941,1.622a110.7,110.7,0,0,1-12.571,4.259,111.967,111.967,0,0,1-12.969,2.61c-3.816.551-7.866.994-13.13,1.431a55.652,55.652,0,0,0-5.958.795c-9.153.94-19.6,2.861-27.293,9.94a40.192,40.192,0,0,0-12,22.687c-1.375,7.531-1.152,15.856.68,25.448a138,138,0,0,0,7.16,24.04,146.84,146.84,0,0,0,13.992,27.874,94.328,94.328,0,0,0,20.81,22.808,116.67,116.67,0,0,0,12.37,8.235,85.2,85.2,0,0,0,13.32,6.567,40.93,40.93,0,0,0,14.1,2.942,28.418,28.418,0,0,0,3.112-.146,15.521,15.521,0,0,0,7.326-1.178c1.021-.413,2-.92,2.951-1.41a21.949,21.949,0,0,1,4.443-1.9l.026-.007a25.742,25.742,0,0,1,5.654-.6,32.738,32.738,0,0,0,4.808-.4C-244.406,687.421-244.112,687.355-243.825,687.281Zm9.452-5.58a8.026,8.026,0,0,0-.769.238,25.949,25.949,0,0,0-4.052,2.021,17.682,17.682,0,0,1-5.711,2.433,31.571,31.571,0,0,1-4.646.38,26.647,26.647,0,0,0-5.9.64l-.029.007a23.087,23.087,0,0,0-4.666,1.987c-.927.479-1.886.974-2.859,1.368a14.335,14.335,0,0,1-6.84,1.1.559.559,0,0,0-.125,0,27.288,27.288,0,0,1-3.049.146,39.824,39.824,0,0,1-13.723-2.87,84.169,84.169,0,0,1-13.148-6.486,115.709,115.709,0,0,1-12.254-8.156,93.176,93.176,0,0,1-20.565-22.545,145.619,145.619,0,0,1-13.886-27.666,136.775,136.775,0,0,1-7.107-23.848c-1.807-9.455-2.03-17.648-.677-25.044A39.093,39.093,0,0,1-342.71,553.33c7.459-6.86,17.687-8.735,26.709-9.662a55,55,0,0,1,5.888-.785c5.287-.439,9.356-.883,13.2-1.44a113.924,113.924,0,0,0,13.095-2.636,111.627,111.627,0,0,0,12.7-4.3c1.324-.529,2.64-1.078,3.956-1.63q1.521-.636,3.047-1.261,1.192-.487,2.387-.964a.539.539,0,0,0,.258-.21q1.048-.465,2.089-.929,1.6-.716,3.193-1.416c8.926-3.906,18.555-7.2,28.477-4.856a39.092,39.092,0,0,1,20.981,13.531c4.8,5.785,8.62,13.036,11.677,22.165a136.926,136.926,0,0,1,5.484,24.272,145.77,145.77,0,0,1,1.444,30.922,93.169,93.169,0,0,1-6.888,29.727,115.537,115.537,0,0,1-6.688,13.113,84.335,84.335,0,0,1-8.287,12.1,39.866,39.866,0,0,1-10.558,9.223,25.479,25.479,0,0,1-6.194,2.572l-.076.019a16.848,16.848,0,0,1-3.464.363A19.053,19.053,0,0,0-234.373,681.7Z" transform="translate(356.347 -521.353)" fill="#a11519"/>
            </g>
            <path id="Trazado_713392" data-name="Trazado 713392" d="M-354.495,600.294c-1.58-8.268-2.2-16.892-.677-25.245a39.934,39.934,0,0,1,11.834-22.38c7.409-6.816,17.3-8.8,27.024-9.806a55.215,55.215,0,0,1,5.9-.784c4.4-.367,8.794-.8,13.163-1.438a113.63,113.63,0,0,0,13.032-2.621,111.656,111.656,0,0,0,12.634-4.281c2.345-.936,4.662-1.937,7-2.889.8-.325,1.593-.649,2.393-.966,0-.033.007-.066.009-.1,1.849-.819,3.685-1.648,5.512-2.448,9.1-3.984,18.859-7.241,28.826-4.887a39.941,39.941,0,0,1,21.278,13.716c5.424,6.535,9.1,14.359,11.775,22.342a137.75,137.75,0,0,1,5.509,24.37,147.038,147.038,0,0,1,1.449,31.038,93.91,93.91,0,0,1-6.93,29.9,117.155,117.155,0,0,1-6.721,13.176,85.68,85.68,0,0,1-8.34,12.173,40.819,40.819,0,0,1-10.707,9.347,25.947,25.947,0,0,1-6.4,2.647c-2.468.636-5.636.081-8.268,1.042-3.486,1.27-6.006,3.772-9.854,4.478-3.473.636-7.1.11-10.53,1.017-2.666.7-4.922,2.306-7.459,3.333a14.964,14.964,0,0,1-7.114,1.135,27.879,27.879,0,0,1-3.112.147,40.8,40.8,0,0,1-13.911-2.905,85.822,85.822,0,0,1-13.235-6.528,117.409,117.409,0,0,1-12.313-8.195,93.919,93.919,0,0,1-20.686-22.675,146.9,146.9,0,0,1-13.939-27.771A137.893,137.893,0,0,1-354.495,600.294Zm51.462,24.115c9.863,23.658,31.491,49.226,59.465,48.31,31.084-1.016,47.873-31.349,51.147-58.925a94.074,94.074,0,0,0-.492-26.464c-2.258-13.563-4.649-26.755-11.139-39.127a54.6,54.6,0,0,0-13.233-16.787c-12.413-10.311-32.548-10.475-39.929,5.879A20.122,20.122,0,0,1-264.34,546,34.153,34.153,0,0,1-273.3,550.4c-8.134,2.577-17.611,1.88-25.179,6.115-8.576,4.8-11.522,16.055-12.177,25.172C-311.684,596.073-308.675,610.872-303.032,624.41Z" transform="translate(356.602 -489.973)" fill="#e31a2c" style="mix-blend-mode: multiply;isolation: isolate"/>
            <path id="Trazado_713393" data-name="Trazado 713393" d="M-335.88,594.146c-1.58-8.268-2.2-16.892-.677-25.245a39.935,39.935,0,0,1,11.834-22.38c7.409-6.816,17.3-8.8,27.024-9.806a55.247,55.247,0,0,1,5.9-.784c4.4-.367,8.794-.8,13.163-1.438a113.63,113.63,0,0,0,13.032-2.622c3.086-.824,6.12-1.82,9.114-2.928a53.581,53.581,0,0,1-11.837,6.581c-6,2.3-12.283,2.614-18.622,3.064a67.86,67.86,0,0,0-9.111,1.125,45.972,45.972,0,0,0-7.861,2.426,37.3,37.3,0,0,0-12.37,8c-.684.684-1.318,1.4-1.928,2.131-6.017,5.51-8.416,14.046-9.068,22.036a79.313,79.313,0,0,0,3.182,28.184,105.428,105.428,0,0,0,9.632,22.122c1.967,3.518,4.05,6.967,6.176,10.39,2.063,3.326,4.122,6.657,6.333,9.889,7.715,11.273,17.075,22,28.573,29.547a61.843,61.843,0,0,0,12.925,6.74,22.953,22.953,0,0,0,5.427,1.322,12.915,12.915,0,0,0,10.455-2.1c1.912-1.412,3.672-3.219,6.157-3.484s4.725.684,7.1,1.2a8.879,8.879,0,0,0,6.169-.677,22.209,22.209,0,0,0,4.443-3.521,9.847,9.847,0,0,1,4.861-2.841c2.292-.376,4.31.959,6.342,1.8a9.116,9.116,0,0,0,6.266.2,25.438,25.438,0,0,1-5.077,1.934c-2.468.636-5.636.081-8.268,1.042-3.484,1.27-6.006,3.772-9.854,4.478-3.473.636-7.1.111-10.53,1.018-2.666.7-4.922,2.306-7.459,3.333a14.964,14.964,0,0,1-7.114,1.136,27.878,27.878,0,0,1-3.112.147,40.8,40.8,0,0,1-13.911-2.905,85.817,85.817,0,0,1-13.235-6.528,117.6,117.6,0,0,1-12.313-8.195,93.919,93.919,0,0,1-20.686-22.675,146.893,146.893,0,0,1-13.939-27.771A137.881,137.881,0,0,1-335.88,594.146Z" transform="translate(337.987 -483.825)" fill="#bc1723" style="mix-blend-mode: multiply;isolation: isolate"/>
            <path id="Trazado_713394" data-name="Trazado 713394" d="M-294.706,531.709c.3-.077.6-.16.9-.234,2.12-.52,4.271-.879,6.393-1.388,2.817-.673,13.041-3.643,13.526,1.624.146,1.56-1.045,3.007-2.046,4.069a24.114,24.114,0,0,1-3.9,3.259,34.084,34.084,0,0,1-12.37,5.149,60.642,60.642,0,0,1-11.216,1.021c-3.32.055-7.04.007-10.092-1.469-.793-.383-1.978-.992-2.175-1.956a2.26,2.26,0,0,1,.887-1.9,18,18,0,0,1,5.623-3.331c2.7-1.169,5.508-2.081,8.3-3q2.179-.722,4.386-1.353c.1-.026.2-.048.3-.074Q-295.454,531.922-294.706,531.709Z" transform="translate(368.586 -484.078)" fill="url(#radial-gradient)" style="mix-blend-mode: multiply;isolation: isolate"/>
            <path id="Trazado_713395" data-name="Trazado 713395" d="M-312.979,543.175a12.263,12.263,0,0,0,4.852-1.434,39.351,39.351,0,0,0,5.223-3.685,18.6,18.6,0,0,1,5.621-3.209,16.585,16.585,0,0,1,6.788-.378,29.405,29.405,0,0,0,6.609.282,7.935,7.935,0,0,0,4.366-1.891,8.263,8.263,0,0,0,2.229-2.828,3.557,3.557,0,0,1,.085.511c.146,1.56-1.045,3.007-2.046,4.069a24.109,24.109,0,0,1-3.9,3.259,34.083,34.083,0,0,1-12.37,5.149,60.653,60.653,0,0,1-11.216,1.021,25.5,25.5,0,0,1-8.976-1A10.37,10.37,0,0,0-312.979,543.175Z" transform="translate(371.902 -482.908)" fill="url(#radial-gradient-2)" style="mix-blend-mode: multiply;isolation: isolate"/>
            <g id="Grupo_1007402" data-name="Grupo 1007402" transform="translate(40.478)">
              <g id="Grupo_1007401" data-name="Grupo 1007401">
                <path id="Trazado_713396" data-name="Trazado 713396" d="M-302.948,506.661a12.721,12.721,0,0,1,3.164-1.891,25.663,25.663,0,0,1,3.576,3.523c1.56,1.814,2.929,3.753,4.38,5.641,10.89,14.162,19.175,31.469,21.719,49.184-.811.127-1.613.328-2.415.529-.719-2.094-1.368-3.864-1.541-4.384a130.387,130.387,0,0,0-5.689-14.293,95.885,95.885,0,0,0-16.924-25.452c-2.988-3.16-6.2-6.139-9.476-9.057A13.6,13.6,0,0,1-302.948,506.661Z" transform="translate(306.706 -504.218)" fill="#b96b4f"/>
                <path id="Trazado_713397" data-name="Trazado 713397" d="M-269.716,563.9a.554.554,0,0,0,.406-.612c-2.4-16.7-10.149-34.253-21.827-49.442-.43-.56-.853-1.125-1.278-1.691-.99-1.32-2.015-2.686-3.121-3.973a26.065,26.065,0,0,0-3.656-3.6.547.547,0,0,0-.551-.076,13.3,13.3,0,0,0-3.3,1.973h0a14.156,14.156,0,0,0-3.335,3.953.551.551,0,0,0,.112.686c2.686,2.395,6.189,5.584,9.441,9.026A95.626,95.626,0,0,1-280,545.456a130.746,130.746,0,0,1,5.665,14.232c.072.216.223.645.43,1.224.291.817.691,1.936,1.113,3.165a.55.55,0,0,0,.654.356c.771-.194,1.565-.394,2.365-.52Zm-29.9-58.243a25.8,25.8,0,0,1,3.246,3.245c1.082,1.259,2.094,2.609,3.073,3.916.428.568.854,1.138,1.287,1.7,11.441,14.879,19.075,32.046,21.533,48.4-.49.094-.975.208-1.434.323-.363-1.045-.7-1.987-.953-2.7-.2-.568-.352-.988-.422-1.2A131.521,131.521,0,0,0-279,544.989a96.653,96.653,0,0,0-17.023-25.6c-3.147-3.328-6.515-6.417-9.172-8.79a12.991,12.991,0,0,1,2.85-3.263h0A12.078,12.078,0,0,1-299.618,505.659Z" transform="translate(306.453 -504.47)" fill="#5f2711"/>
              </g>
              <path id="Trazado_713398" data-name="Trazado 713398" d="M-277.46,546.44a168.51,168.51,0,0,0-9.2-17.952q-2.561-4.386-5.332-8.657a74.334,74.334,0,0,0-5.391-7.636,29.494,29.494,0,0,0-3.259-3.361,8.09,8.09,0,0,0-3.438-1.927,5.35,5.35,0,0,0-1.37-.129c.048-.039.092-.079.138-.118a12.765,12.765,0,0,1,3.165-1.891,25.663,25.663,0,0,1,3.576,3.523c1.56,1.814,2.929,3.753,4.38,5.641,9.457,12.3,16.953,26.973,20.428,42.224C-274.822,552.86-276.079,549.622-277.46,546.44Z" transform="translate(309.072 -504.218)" fill="#b96b4f" style="mix-blend-mode: screen;isolation: isolate"/>
              <path id="Trazado_713399" data-name="Trazado 713399" d="M-283.391,505.742a2.567,2.567,0,0,1,.406,1.2c.125,1.868-1.8,3.422-3.619,4.082a7.568,7.568,0,0,1-3.184.435c-.371-.334-.737-.669-1.108-1a13.623,13.623,0,0,1,3.2-3.8,12.765,12.765,0,0,1,3.165-1.891C-284.134,505.079-283.758,505.407-283.391,505.742Z" transform="translate(291.448 -504.218)" fill="#b96b4f" style="mix-blend-mode: screen;isolation: isolate"/>
              <path id="Trazado_713400" data-name="Trazado 713400" d="M-302.372,506.219c-.026.083-.055.166-.076.249a1.605,1.605,0,0,0,1.532,2.019c1.224.063,2.116-1.125,2.6-1.995a9.9,9.9,0,0,0,.524-1.1l.039.037c.024.16.046.321.055.485a4.2,4.2,0,0,1-.3,2.046c-.245.516-.6.992-.852,1.5a2.254,2.254,0,0,0,.254,2.489,15.7,15.7,0,0,0,2.186,2.371c.359.341.726.677,1.077,1.025a11.7,11.7,0,0,1,1.139,1.429q2.923,3.968,5.61,8.077c1.746,2.673,3.516,5.332,5.166,8.056a106.08,106.08,0,0,1,8.379,16.927,125.411,125.411,0,0,1,4.366,13c-.391.09-.782.188-1.173.286-.719-2.094-1.368-3.864-1.541-4.384a130.38,130.38,0,0,0-5.689-14.293A95.885,95.885,0,0,0-296,518.993c-2.988-3.16-6.2-6.139-9.476-9.057A13.582,13.582,0,0,1-302.372,506.219Z" transform="translate(306.032 -503.693)" fill="#b96b4f" style="mix-blend-mode: multiply;isolation: isolate"/>
            </g>
            <path id="Trazado_713401" data-name="Trazado 713401" d="M-315.362,544.722a62.615,62.615,0,0,0,21.971-1.978,35.267,35.267,0,0,0,10.055-4.578,18.542,18.542,0,0,0,3.689-3.127,6.987,6.987,0,0,0,1.982-3.792c.124-2.116-2.636-2.021-4.056-1.742-1.877.369-3.658,1.112-5.514,1.56-.138.033-.337-.179-.151-.227,1.755-.446,3.355-1.375,5.108-1.847,1.534-.415,3.361-.592,4.721.4,2.745,2.008-.4,5.988-2.092,7.562-5.964,5.538-14.446,7.857-22.356,8.694a53.234,53.234,0,0,1-13.353-.184C-315.911,545.384-316.009,544.676-315.362,544.722Z" transform="translate(371.352 -484.064)" fill="url(#radial-gradient-3)" style="mix-blend-mode: multiply;isolation: isolate"/>
            <path id="Trazado_713402" data-name="Trazado 713402" d="M-350.52,553.919c1.956-1.4,5.011-.728,7.168-.345,2.636.468,5.638.973,8.2-.1s3.724-3.882,4.631-6.31a13.888,13.888,0,0,1,5.387-7.3,16.769,16.769,0,0,1,8.81-2.055c2.207-.009,4.378.418,6.58.452a3.949,3.949,0,0,0,2.244-.348c.531-.394.077-1.211-.247-1.713-1.305-2.01-3.366-3.425-4.828-5.319a4.043,4.043,0,0,1-1.106-2.618c.918-9.188,20.76,3.361,23.638,5.757,12.772,10.643,18.2,26.91,19.98,42.923a73.4,73.4,0,0,1,.562,12.433,32.708,32.708,0,0,1-.815,6,8.953,8.953,0,0,1-.948,2.852c-1.366,1.886-2.2-2.5-2.275-3.241-.243-2.408-.337-4.806-.715-7.2a64.878,64.878,0,0,0-3.842-13.945,59.71,59.71,0,0,0-13.266-20.585c-4.29-4.213-9.472-8.263-15.3-10.044-8.707-2.664-15.172,3.281-21.328,8.44a21.521,21.521,0,0,1-5.256,3.562,9.6,9.6,0,0,1-5.536.393c-1.936-.352-3.836-.859-5.8-1.025a11.59,11.59,0,0,0-2.426.053,11.746,11.746,0,0,1-2.314.157C-349.858,554.748-350.516,554.545-350.52,553.919Z" transform="translate(428.29 -487.197)" fill="#f9af79" style="mix-blend-mode: color-dodge;isolation: isolate"/>
          </g>
          <path id="Trazado_713403" data-name="Trazado 713403" d="M-337.451,528.815c3.545-2.338,8.657,1.034,10.809,3.812a4.841,4.841,0,0,1,1.217,3.009c-.133,4.1-5.805,1.587-7.656.623a13.607,13.607,0,0,1-4.076-2.957C-338.271,532.026-339.228,529.989-337.451,528.815Z" transform="translate(462.011 -484.595)" fill="#ffeac6" opacity="0.76" style="mix-blend-mode: screen;isolation: isolate"/>
          <path id="Trazado_713404" data-name="Trazado 713404" d="M-342.719,535.247a3.139,3.139,0,0,1,1.138-.14c1.655.055,2.727,1.279,3.61,2.492a4.025,4.025,0,0,1,.341.551c1.025,2.037-1.058,2.524-2.481,1.74a8.78,8.78,0,0,1-2.78-2.419,2.316,2.316,0,0,1-.531-1.15A.971.971,0,0,1-342.719,535.247Z" transform="translate(483.148 -478.629)" fill="#ffeac6" opacity="0.76" style="mix-blend-mode: screen;isolation: isolate"/>
        </g>
        <g id="Grupo_1007407" data-name="Grupo 1007407" transform="translate(113.58 82.301)">
          <path id="Trazado_713405" data-name="Trazado 713405" d="M-336.213,553.621a.318.318,0,0,1,.293-.288.622.622,0,0,1,.514.162.958.958,0,0,1,.1.118.287.287,0,0,1,.039.026,1.719,1.719,0,0,1,.369,1.123c.015.352-.042.85-.4,1.029a.489.489,0,0,1-.557-.094A2.54,2.54,0,0,1-336.213,553.621Z" transform="translate(353.928 -545.559)" fill="#ffeac6"/>
          <path id="Trazado_713406" data-name="Trazado 713406" d="M-333.624,549.386c.039-.317.433-.328.655-.184a1.187,1.187,0,0,1,.548.878,1.587,1.587,0,0,1-.007.31,2.51,2.51,0,0,1,.111.787c-.013.3-.4.267-.586.164A1.9,1.9,0,0,1-333.624,549.386Z" transform="translate(346.5 -549.113)" fill="#ffeac6"/>
          <path id="Trazado_713407" data-name="Trazado 713407" d="M-332.528,555.387v-.018l0-.009v0l0-.026a.059.059,0,0,1,.006-.026.153.153,0,0,1,.063-.074.225.225,0,0,1,.105-.03.318.318,0,0,1,.124.02.308.308,0,0,1,.107.066l.02.024.018.022,0,.005.005.009.009.018.022.037a.19.19,0,0,1,.035.107.145.145,0,0,1-.035.1l-.042.035a.262.262,0,0,1-.116.033.279.279,0,0,1-.1-.013.293.293,0,0,1-.1-.041.294.294,0,0,1-.094-.09.18.18,0,0,1-.035-.105Z" transform="translate(344.124 -543.977)" fill="#ffeac6"/>
          <g id="Grupo_1007405" data-name="Grupo 1007405" transform="translate(21.679 24.624)">
            <path id="Trazado_713408" data-name="Trazado 713408" d="M-338.1,563v-.011l.007-.037Z" transform="translate(338.802 -562.064)" fill="#ffeac6"/>
            <path id="Trazado_713409" data-name="Trazado 713409" d="M-338.122,562.878a.441.441,0,0,1,.052-.3.338.338,0,0,1,.148-.089.345.345,0,0,1,.1-.018.5.5,0,0,1,.264.07.534.534,0,0,1,.124.118l.015.018a.269.269,0,0,1,.048.122l.007.039-.013.076,0,.009-.009.039-.013.061c-.009.061-.018.123-.022.184a.326.326,0,0,1,.007.188.262.262,0,0,1-.061.148.293.293,0,0,1-.291.061.366.366,0,0,1-.14-.068.343.343,0,0,1-.105-.135A1.361,1.361,0,0,1-338.122,562.878Z" transform="translate(338.125 -562.47)" fill="#ffeac6"/>
          </g>
          <path id="Trazado_713410" data-name="Trazado 713410" d="M-339,554.308v0l.006-.03a.09.09,0,0,1,.02-.057l.017-.026.006-.007.011-.011.009-.009.048-.039,0,0,.007,0a.2.2,0,0,1,.063-.026v0l.064-.009h0c.007,0,.063,0,.07,0a.339.339,0,0,1,.074.018l.066.033h0l.055.042v0l.042.05,0,0,.026.053v0l0,0,0,.028.006.029v0l0,.013,0,.037c-.006.035-.011.068-.018.1l-.024.039a.125.125,0,0,1-.031.022.131.131,0,0,1-.037.048.167.167,0,0,1-.079.042l-.066.009a.273.273,0,0,1-.109-.013.172.172,0,0,1-.072-.028.266.266,0,0,1-.092-.061l-.042-.05A.2.2,0,0,1-339,554.4.742.742,0,0,1-339,554.308Z" transform="translate(362.444 -544.922)" fill="#ffeac6"/>
          <path id="Trazado_713411" data-name="Trazado 713411" d="M-326.363,552.348a.231.231,0,0,1-.055-.149l.013-.076a.168.168,0,0,1,.068-.09.145.145,0,0,1,.068-.041.276.276,0,0,1,.127-.031.534.534,0,0,1,.29.077.621.621,0,0,1,.111.083.523.523,0,0,1,.079.1.937.937,0,0,1,.068.144l.013.039a.3.3,0,0,1,.017.089.33.33,0,0,1-.017.083l-.007.028v0l0,.007,0,.017v-.005a.161.161,0,0,1-.1.133.312.312,0,0,1-.238,0,.727.727,0,0,1-.159-.088l0,0,0,0c-.028-.02-.057-.041-.085-.063l-.009-.007-.057-.066-.009-.018-.018-.035a.582.582,0,0,0-.048-.07l.059.07c-.035-.039-.066-.079-.1-.12Z" transform="translate(326.419 -546.711)" fill="#ffeac6"/>
          <g id="Grupo_1007406" data-name="Grupo 1007406" transform="translate(7.598 27.107)">
            <path id="Trazado_713412" data-name="Trazado 713412" d="M-330.388,563.886l-.013-.01,0,0Z" transform="translate(330.985 -563.767)" fill="#ffeac6"/>
            <path id="Trazado_713413" data-name="Trazado 713413" d="M-330.382,563.857l.037.03,0,0-.046-.035Z" transform="translate(330.918 -563.786)" fill="#ffeac6"/>
            <path id="Trazado_713414" data-name="Trazado 713414" d="M-330.385,563.879l0,0-.005-.005Z" transform="translate(330.969 -563.77)" fill="#ffeac6"/>
            <path id="Trazado_713415" data-name="Trazado 713415" d="M-330.442,564.18a.377.377,0,0,1-.006-.212.209.209,0,0,1,.094-.109.306.306,0,0,1,.155-.042.489.489,0,0,1,.147.017.41.41,0,0,1,.17.09.212.212,0,0,1,.055.052.248.248,0,0,1,.063.1l.011.072a.25.25,0,0,1-.024.105.664.664,0,0,0-.02.087.9.9,0,0,1-.018.122.792.792,0,0,0-.026.107l-.006.026a.091.091,0,0,1-.041.053.182.182,0,0,1-.114.042.352.352,0,0,1-.116-.019.294.294,0,0,1-.135-.1,1.281,1.281,0,0,1-.087-.12.621.621,0,0,1-.076-.168A1.067,1.067,0,0,1-330.442,564.18Z" transform="translate(330.462 -563.817)" fill="#ffeac6"/>
          </g>
        </g>
        <g id="Grupo_1007410" data-name="Grupo 1007410" transform="translate(85.997 129.297)" style="mix-blend-mode: multiply;isolation: isolate">
          <path id="Trazado_713416" data-name="Trazado 713416" d="M-321.251,579.113a.317.317,0,0,1,.291-.288.621.621,0,0,1,.514.162.958.958,0,0,1,.1.118.2.2,0,0,1,.039.026,1.709,1.709,0,0,1,.369,1.123c.015.352-.042.85-.4,1.029a.489.489,0,0,1-.557-.094A2.533,2.533,0,0,1-321.251,579.113Z" transform="translate(338.967 -571.051)" fill="#bc1723"/>
          <path id="Trazado_713417" data-name="Trazado 713417" d="M-318.663,574.878c.041-.315.435-.328.656-.184a1.185,1.185,0,0,1,.546.878,1.345,1.345,0,0,1-.007.31,2.458,2.458,0,0,1,.111.787c-.013.3-.4.267-.586.164A1.9,1.9,0,0,1-318.663,574.878Z" transform="translate(331.538 -574.605)" fill="#bc1723"/>
          <path id="Trazado_713418" data-name="Trazado 713418" d="M-317.567,580.881l0-.02v-.013l.005-.026a.04.04,0,0,1,0-.026.153.153,0,0,1,.063-.074.262.262,0,0,1,.105-.029.316.316,0,0,1,.124.02.307.307,0,0,1,.107.066l.02.024.02.022,0,.005.006.009.011.018.022.039a.194.194,0,0,1,.035.105.146.146,0,0,1-.037.1l-.042.035a.25.25,0,0,1-.116.033.267.267,0,0,1-.1-.013.284.284,0,0,1-.1-.04.338.338,0,0,1-.094-.09.194.194,0,0,1-.035-.105Z" transform="translate(329.163 -569.47)" fill="#bc1723"/>
          <g id="Grupo_1007408" data-name="Grupo 1007408" transform="translate(21.679 24.623)">
            <path id="Trazado_713419" data-name="Trazado 713419" d="M-323.139,588.491v-.011l.009-.037Z" transform="translate(323.84 -587.556)" fill="#bc1723"/>
            <path id="Trazado_713420" data-name="Trazado 713420" d="M-323.16,588.37a.453.453,0,0,1,.052-.3.338.338,0,0,1,.147-.089.342.342,0,0,1,.1-.018.488.488,0,0,1,.264.07.544.544,0,0,1,.125.118l.013.018a.293.293,0,0,1,.05.122l.006.039-.013.076,0,.009-.011.039-.013.061c-.009.061-.018.124-.022.184a.311.311,0,0,1,.007.188.263.263,0,0,1-.061.148.287.287,0,0,1-.289.061.375.375,0,0,1-.142-.068.312.312,0,0,1-.1-.135A1.364,1.364,0,0,1-323.16,588.37Z" transform="translate(323.163 -587.962)" fill="#bc1723"/>
          </g>
          <path id="Trazado_713421" data-name="Trazado 713421" d="M-324.035,579.8v0l.006-.03a.091.091,0,0,1,.02-.057l.017-.026.007-.007.009-.011.009-.009.05-.039,0,0,.007,0a.225.225,0,0,1,.061-.028h0l.065-.009h0l.072,0a.318.318,0,0,1,.072.018l.068.033h0l.055.042v0l.042.05,0,0,.026.054,0,0v0l.006.028.005.029v.017l0,.039c-.006.033-.011.066-.018.1l-.024.041a.135.135,0,0,1-.031.02.147.147,0,0,1-.035.048.184.184,0,0,1-.079.042l-.066.009a.267.267,0,0,1-.109-.013.189.189,0,0,1-.074-.028.247.247,0,0,1-.09-.061L-324,580a.227.227,0,0,1-.037-.114A.735.735,0,0,1-324.035,579.8Z" transform="translate(347.482 -570.415)" fill="#bc1723"/>
          <path id="Trazado_713422" data-name="Trazado 713422" d="M-311.4,577.84a.238.238,0,0,1-.055-.149l.013-.075a.178.178,0,0,1,.068-.09.156.156,0,0,1,.068-.041.283.283,0,0,1,.127-.031.529.529,0,0,1,.289.077.621.621,0,0,1,.111.083.459.459,0,0,1,.079.1.736.736,0,0,1,.068.144l.013.039a.257.257,0,0,1,.017.089.331.331,0,0,1-.017.083l-.007.028v0l0,.009-.006.016,0-.005a.166.166,0,0,1-.105.131.312.312,0,0,1-.238,0,.645.645,0,0,1-.157-.089l-.006,0,0,0-.085-.063-.009-.007-.057-.066L-311.3,578l-.018-.035a.6.6,0,0,0-.048-.07l.059.07c-.035-.039-.066-.079-.1-.12Z" transform="translate(311.457 -572.203)" fill="#bc1723"/>
          <g id="Grupo_1007409" data-name="Grupo 1007409" transform="translate(7.599 27.105)">
            <path id="Trazado_713423" data-name="Trazado 713423" d="M-315.427,589.378l-.013-.01,0,0Z" transform="translate(316.023 -589.257)" fill="#bc1723"/>
            <path id="Trazado_713424" data-name="Trazado 713424" d="M-315.422,589.351l.037.028,0,0-.044-.035Z" transform="translate(315.956 -589.277)" fill="#bc1723"/>
            <path id="Trazado_713425" data-name="Trazado 713425" d="M-315.423,589.372l0,0-.005,0Z" transform="translate(316.007 -589.261)" fill="#bc1723"/>
            <path id="Trazado_713426" data-name="Trazado 713426" d="M-315.48,589.673a.361.361,0,0,1-.006-.212.214.214,0,0,1,.092-.109.336.336,0,0,1,.157-.044.553.553,0,0,1,.146.019.41.41,0,0,1,.17.09.21.21,0,0,1,.055.052.259.259,0,0,1,.063.1l.013.072a.324.324,0,0,1-.024.105.458.458,0,0,0-.022.087.719.719,0,0,1-.018.124c-.009.035-.018.07-.026.105l0,.028a.1.1,0,0,1-.041.052.18.18,0,0,1-.116.042.363.363,0,0,1-.116-.019.3.3,0,0,1-.135-.1c-.029-.039-.059-.079-.087-.12a.688.688,0,0,1-.076-.168A.719.719,0,0,1-315.48,589.673Z" transform="translate(315.501 -589.308)" fill="#bc1723"/>
          </g>
        </g>
        <g id="Grupo_1007413" data-name="Grupo 1007413" transform="translate(7.553 73.872)" style="mix-blend-mode: multiply;isolation: isolate">
          <path id="Trazado_713427" data-name="Trazado 713427" d="M-278.7,549.049a.318.318,0,0,1,.293-.288.62.62,0,0,1,.514.16,1.122,1.122,0,0,1,.1.118.207.207,0,0,1,.039.028,1.719,1.719,0,0,1,.369,1.123c.015.35-.042.848-.4,1.029a.492.492,0,0,1-.557-.094A2.54,2.54,0,0,1-278.7,549.049Z" transform="translate(296.416 -540.986)" fill="#bc1723"/>
          <path id="Trazado_713428" data-name="Trazado 713428" d="M-276.112,544.814c.041-.317.435-.33.656-.184a1.181,1.181,0,0,1,.546.878,1.34,1.34,0,0,1-.007.31,2.448,2.448,0,0,1,.111.785c-.013.3-.4.269-.586.166A1.906,1.906,0,0,1-276.112,544.814Z" transform="translate(288.987 -544.541)" fill="#bc1723"/>
          <path id="Trazado_713429" data-name="Trazado 713429" d="M-275.016,550.815l0-.018v-.015l.006-.026a.042.042,0,0,1,0-.026.14.14,0,0,1,.063-.072.229.229,0,0,1,.105-.03.316.316,0,0,1,.124.02.3.3,0,0,1,.107.066l.02.022.018.022,0,.006.005.009.011.018.022.039a.2.2,0,0,1,.035.107.146.146,0,0,1-.037.1l-.042.035a.229.229,0,0,1-.116.031.237.237,0,0,1-.1-.013.258.258,0,0,1-.1-.041.332.332,0,0,1-.094-.089.205.205,0,0,1-.035-.107Z" transform="translate(286.612 -539.405)" fill="#bc1723"/>
          <g id="Grupo_1007411" data-name="Grupo 1007411" transform="translate(21.679 24.624)">
            <path id="Trazado_713430" data-name="Trazado 713430" d="M-280.587,558.428v-.011l.007-.039Z" transform="translate(281.288 -557.493)" fill="#bc1723"/>
            <path id="Trazado_713431" data-name="Trazado 713431" d="M-280.609,558.3a.446.446,0,0,1,.052-.3.321.321,0,0,1,.148-.088.288.288,0,0,1,.1-.018.458.458,0,0,1,.264.07.479.479,0,0,1,.125.118l.013.017a.3.3,0,0,1,.05.123l.005.037-.013.076,0,.009-.011.039-.013.063c-.009.061-.018.122-.022.184a.31.31,0,0,1,.007.188.272.272,0,0,1-.061.147.3.3,0,0,1-.289.061.423.423,0,0,1-.142-.068.334.334,0,0,1-.1-.135A1.372,1.372,0,0,1-280.609,558.3Z" transform="translate(280.612 -557.898)" fill="#bc1723"/>
          </g>
          <path id="Trazado_713432" data-name="Trazado 713432" d="M-281.484,549.735v0l.006-.03a.089.089,0,0,1,.02-.055l.017-.028.007-.006.009-.011.011-.009.048-.041,0,0,.007-.006a.3.3,0,0,1,.061-.026h0l.064-.011h0c.007,0,.063,0,.07.005a.244.244,0,0,1,.074.018l.068.033h0l.055.042h0l.042.05,0,0,.026.053,0,0v0l.005.029,0,.028,0,.006v.011l0,.039c-.006.033-.011.066-.018.1l-.024.041a.07.07,0,0,1-.031.02.116.116,0,0,1-.035.048.152.152,0,0,1-.079.042l-.066.011a.27.27,0,0,1-.109-.015.206.206,0,0,1-.074-.026.3.3,0,0,1-.09-.061l-.044-.052a.2.2,0,0,1-.037-.112A.768.768,0,0,1-281.484,549.735Z" transform="translate(304.931 -540.35)" fill="#bc1723"/>
          <path id="Trazado_713433" data-name="Trazado 713433" d="M-268.851,547.776a.246.246,0,0,1-.055-.151l.013-.074a.171.171,0,0,1,.068-.09.158.158,0,0,1,.068-.042.28.28,0,0,1,.127-.03.529.529,0,0,1,.289.077.613.613,0,0,1,.111.081.46.46,0,0,1,.079.1.709.709,0,0,1,.068.146l.013.039a.24.24,0,0,1,.017.087.3.3,0,0,1-.017.083l-.007.028v0l0,.009-.005.017,0-.005a.169.169,0,0,1-.105.133.321.321,0,0,1-.238,0,.785.785,0,0,1-.159-.09l0,0,0,0-.085-.063-.009-.007-.057-.068-.009-.018-.018-.035a.574.574,0,0,0-.048-.068l.059.07c-.035-.04-.066-.081-.1-.122Z" transform="translate(268.906 -542.138)" fill="#bc1723"/>
          <g id="Grupo_1007412" data-name="Grupo 1007412" transform="translate(7.599 27.106)">
            <path id="Trazado_713434" data-name="Trazado 713434" d="M-272.876,559.313l-.013-.01,0,0Z" transform="translate(273.472 -559.194)" fill="#bc1723"/>
            <path id="Trazado_713435" data-name="Trazado 713435" d="M-272.87,559.285l.037.028,0,0-.044-.035Z" transform="translate(273.405 -559.213)" fill="#bc1723"/>
            <path id="Trazado_713436" data-name="Trazado 713436" d="M-272.872,559.307l0,0-.005-.005Z" transform="translate(273.456 -559.197)" fill="#bc1723"/>
            <path id="Trazado_713437" data-name="Trazado 713437" d="M-272.93,559.609a.368.368,0,0,1-.006-.214.21.21,0,0,1,.092-.107.328.328,0,0,1,.157-.044.548.548,0,0,1,.146.017.458.458,0,0,1,.17.09.191.191,0,0,1,.055.053.243.243,0,0,1,.063.1l.013.072a.3.3,0,0,1-.026.107.725.725,0,0,0-.02.085.66.66,0,0,1-.018.123c-.009.035-.018.07-.026.107l0,.026a.108.108,0,0,1-.041.054.2.2,0,0,1-.116.042.367.367,0,0,1-.116-.02.277.277,0,0,1-.133-.1c-.031-.039-.061-.077-.088-.118a.734.734,0,0,1-.076-.17A.661.661,0,0,1-272.93,559.609Z" transform="translate(272.95 -559.244)" fill="#bc1723"/>
          </g>
        </g>
        <g id="Grupo_1007416" data-name="Grupo 1007416" transform="translate(11.568 111.311)" style="mix-blend-mode: multiply;isolation: isolate">
          <path id="Trazado_713438" data-name="Trazado 713438" d="M-275.928,567.616V567.6l0-.009v0l0-.022a.027.027,0,0,1,0-.02.111.111,0,0,1,.05-.059.193.193,0,0,1,.085-.024.3.3,0,0,1,.1.017.244.244,0,0,1,.087.053l.017.018.015.018,0,0,0,.009.009.015.017.029a.163.163,0,0,1,.029.087.128.128,0,0,1-.029.079l-.035.028a.177.177,0,0,1-.092.026.206.206,0,0,1-.083-.009.214.214,0,0,1-.081-.033.241.241,0,0,1-.077-.072.179.179,0,0,1-.028-.087Z" transform="translate(285.292 -562.642)" fill="#bc1723"/>
          <g id="Grupo_1007414" data-name="Grupo 1007414" transform="translate(12.333 9.887)">
            <path id="Trazado_713439" data-name="Trazado 713439" d="M-277.621,570.64v-.009l.005-.029Z" transform="translate(278.188 -569.884)" fill="#bc1723"/>
            <path id="Trazado_713440" data-name="Trazado 713440" d="M-277.638,570.54a.352.352,0,0,1,.042-.242.27.27,0,0,1,.118-.072.281.281,0,0,1,.077-.015.39.39,0,0,1,.212.057.42.42,0,0,1,.1.1l.011.015a.206.206,0,0,1,.039.1l.005.031-.009.061,0,.007-.007.031-.011.05c-.007.048-.015.1-.018.149a.249.249,0,0,1,.007.151.216.216,0,0,1-.05.12.235.235,0,0,1-.234.048.3.3,0,0,1-.114-.055.257.257,0,0,1-.083-.109A1.092,1.092,0,0,1-277.638,570.54Z" transform="translate(277.641 -570.212)" fill="#bc1723"/>
          </g>
          <path id="Trazado_713441" data-name="Trazado 713441" d="M-281.152,566.744l0,0,0-.024a.066.066,0,0,1,.017-.044l.013-.022.006-.006.007-.009.007-.007.039-.031,0,0,.007,0a.162.162,0,0,1,.048-.022h0l.052-.007h0l.055,0a.385.385,0,0,1,.061.016l.053.026h0l.044.035h0l.033.04,0,0,.02.042,0,0v0l0,.022,0,.024,0,0v.009l0,.031-.015.079-.018.033a.123.123,0,0,1-.026.016.087.087,0,0,1-.03.039.132.132,0,0,1-.063.035l-.053.007a.231.231,0,0,1-.089-.011.161.161,0,0,1-.059-.022.239.239,0,0,1-.074-.048l-.035-.042a.157.157,0,0,1-.029-.09C-281.156,566.793-281.154,566.768-281.152,566.744Z" transform="translate(300.084 -563.405)" fill="#bc1723"/>
          <path id="Trazado_713442" data-name="Trazado 713442" d="M-270.951,565.162a.19.19,0,0,1-.044-.122l.009-.061a.142.142,0,0,1,.057-.074.118.118,0,0,1,.055-.031.212.212,0,0,1,.1-.026.45.45,0,0,1,.234.063.4.4,0,0,1,.089.066.44.44,0,0,1,.064.079.766.766,0,0,1,.055.118l.009.031a.19.19,0,0,1,.015.07.4.4,0,0,1-.013.068l-.007.022v0l0,.005,0,.015v-.006a.129.129,0,0,1-.083.107.255.255,0,0,1-.192,0,.733.733,0,0,1-.129-.074l0,0,0,0c-.022-.017-.046-.031-.068-.05l-.007-.005-.046-.055-.007-.015-.017-.028a.392.392,0,0,0-.039-.057l.048.057c-.028-.031-.053-.065-.079-.1Z" transform="translate(270.995 -564.849)" fill="#bc1723"/>
          <g id="Grupo_1007415" data-name="Grupo 1007415" transform="translate(6.136 17.648)">
            <path id="Trazado_713443" data-name="Trazado 713443" d="M-274.2,574.478l-.01-.008h0Z" transform="translate(274.682 -574.382)" fill="#bc1723"/>
            <path id="Trazado_713444" data-name="Trazado 713444" d="M-274.2,574.455l.031.024,0,0-.037-.03Z" transform="translate(274.629 -574.398)" fill="#bc1723"/>
            <path id="Trazado_713445" data-name="Trazado 713445" d="M-274.2,574.473l0,0,0,0Z" transform="translate(274.669 -574.384)" fill="#bc1723"/>
            <path id="Trazado_713446" data-name="Trazado 713446" d="M-274.243,574.717a.308.308,0,0,1-.006-.173.174.174,0,0,1,.076-.087.272.272,0,0,1,.125-.035.519.519,0,0,1,.12.013.365.365,0,0,1,.137.074.158.158,0,0,1,.044.042.193.193,0,0,1,.05.083l.011.057a.229.229,0,0,1-.02.087.41.41,0,0,0-.017.068.587.587,0,0,1-.015.1c-.007.028-.015.057-.02.087l0,.02a.1.1,0,0,1-.033.044.154.154,0,0,1-.094.033.311.311,0,0,1-.092-.015.243.243,0,0,1-.109-.083,1.157,1.157,0,0,1-.07-.1.474.474,0,0,1-.061-.136A.684.684,0,0,1-274.243,574.717Z" transform="translate(274.26 -574.422)" fill="#bc1723"/>
          </g>
        </g>
        <g id="Grupo_1007419" data-name="Grupo 1007419" transform="translate(139.435 136.356)">
          <path id="Trazado_713447" data-name="Trazado 713447" d="M-345.288,581.2v-.015l0-.007v0l0-.02a.026.026,0,0,1,0-.02.106.106,0,0,1,.05-.059.173.173,0,0,1,.085-.024.227.227,0,0,1,.1.017.241.241,0,0,1,.087.052l.017.02.015.018,0,0,0,.007.009.015.017.031a.157.157,0,0,1,.03.085.12.12,0,0,1-.03.079l-.035.029a.221.221,0,0,1-.092.026.206.206,0,0,1-.083-.011.212.212,0,0,1-.081-.033.242.242,0,0,1-.077-.072.172.172,0,0,1-.028-.085Z" transform="translate(354.652 -576.227)" fill="#ffeac6"/>
          <g id="Grupo_1007417" data-name="Grupo 1007417" transform="translate(12.333 9.887)">
            <path id="Trazado_713448" data-name="Trazado 713448" d="M-346.981,584.224v-.009l.006-.029Z" transform="translate(347.548 -583.469)" fill="#ffeac6"/>
            <path id="Trazado_713449" data-name="Trazado 713449" d="M-347,584.125a.35.35,0,0,1,.042-.241.253.253,0,0,1,.118-.072.221.221,0,0,1,.077-.015.375.375,0,0,1,.212.057.378.378,0,0,1,.1.094l.011.015a.212.212,0,0,1,.039.1l.006.029-.009.061,0,.007-.007.031-.011.05a1.377,1.377,0,0,0-.017.149.262.262,0,0,1,.005.151.216.216,0,0,1-.05.12.234.234,0,0,1-.234.05.332.332,0,0,1-.114-.055.265.265,0,0,1-.083-.109A1.105,1.105,0,0,1-347,584.125Z" transform="translate(347.001 -583.797)" fill="#ffeac6"/>
          </g>
          <path id="Trazado_713450" data-name="Trazado 713450" d="M-350.512,580.329l0,0,0-.024a.067.067,0,0,1,.017-.046l.013-.022.005,0,.007-.009.007-.007.039-.033,0,0,.006,0a.284.284,0,0,1,.05-.02l0,0,.052-.007h0l.055,0a.246.246,0,0,1,.061.015l.053.028h0l.044.033,0,0,.033.039,0,0,.02.044h0v0l0,.022,0,.024,0,0v.009l0,.031-.015.081-.018.031a.081.081,0,0,1-.026.018.093.093,0,0,1-.03.037.119.119,0,0,1-.063.035l-.053.009a.237.237,0,0,1-.089-.011.166.166,0,0,1-.059-.022.22.22,0,0,1-.074-.05l-.035-.041a.165.165,0,0,1-.03-.092C-350.516,580.377-350.514,580.353-350.512,580.329Z" transform="translate(369.444 -576.991)" fill="#ffeac6"/>
          <path id="Trazado_713451" data-name="Trazado 713451" d="M-340.31,578.746a.191.191,0,0,1-.044-.122l.011-.061a.121.121,0,0,1,.055-.072.107.107,0,0,1,.055-.033.211.211,0,0,1,.1-.024.418.418,0,0,1,.234.063.46.46,0,0,1,.088.065.388.388,0,0,1,.065.081.674.674,0,0,1,.055.116l.009.031a.264.264,0,0,1,.015.072.424.424,0,0,1-.013.066l-.007.022v0l0,.007,0,.013,0,0a.137.137,0,0,1-.085.107.265.265,0,0,1-.192,0,.566.566,0,0,1-.127-.072l0,0,0,0-.068-.052-.007-.005-.046-.053-.007-.017-.017-.028a.361.361,0,0,0-.039-.055l.048.055c-.028-.031-.053-.065-.079-.1Z" transform="translate(340.355 -578.434)" fill="#ffeac6"/>
          <g id="Grupo_1007418" data-name="Grupo 1007418" transform="translate(6.136 17.646)">
            <path id="Trazado_713452" data-name="Trazado 713452" d="M-343.56,588.062l-.01-.008h0Z" transform="translate(344.042 -587.965)" fill="#ffeac6"/>
            <path id="Trazado_713453" data-name="Trazado 713453" d="M-343.557,588.04l.03.022,0,0-.037-.028Z" transform="translate(343.989 -587.981)" fill="#ffeac6"/>
            <path id="Trazado_713454" data-name="Trazado 713454" d="M-343.557,588.057l0,0,0,0Z" transform="translate(344.029 -587.968)" fill="#ffeac6"/>
            <path id="Trazado_713455" data-name="Trazado 713455" d="M-343.6,588.3a.3.3,0,0,1-.006-.172.186.186,0,0,1,.076-.088.274.274,0,0,1,.125-.035.439.439,0,0,1,.12.015.337.337,0,0,1,.136.072.2.2,0,0,1,.044.042.193.193,0,0,1,.05.083l.011.059a.271.271,0,0,1-.02.085.44.44,0,0,0-.017.07.574.574,0,0,1-.015.1.75.75,0,0,0-.02.087l0,.022a.094.094,0,0,1-.033.042.153.153,0,0,1-.092.033.231.231,0,0,1-.094-.015.23.23,0,0,1-.109-.083.7.7,0,0,1-.07-.1.532.532,0,0,1-.063-.136C-343.59,588.358-343.6,588.329-343.6,588.3Z" transform="translate(343.62 -588.006)" fill="#ffeac6"/>
          </g>
        </g>
        <g id="Grupo_1007422" data-name="Grupo 1007422" transform="translate(56.969 85.529)" style="mix-blend-mode: multiply;isolation: isolate">
          <path id="Trazado_713456" data-name="Trazado 713456" d="M-300.557,553.631l0-.015V553.6l0-.02a.065.065,0,0,1,0-.02.123.123,0,0,1,.052-.059.188.188,0,0,1,.083-.024.241.241,0,0,1,.1.017.251.251,0,0,1,.087.054l.017.018.015.018,0,0,.006.007.007.015.018.031a.146.146,0,0,1,.028.085.119.119,0,0,1-.03.081l-.033.028a.211.211,0,0,1-.094.026.213.213,0,0,1-.083-.011.234.234,0,0,1-.081-.033.256.256,0,0,1-.076-.072.141.141,0,0,1-.028-.085Z" transform="translate(309.92 -548.657)" fill="#bc1723"/>
          <g id="Grupo_1007420" data-name="Grupo 1007420" transform="translate(12.334 9.887)">
            <path id="Trazado_713457" data-name="Trazado 713457" d="M-302.249,556.656l0-.009.006-.031Z" transform="translate(302.814 -555.899)" fill="#bc1723"/>
            <path id="Trazado_713458" data-name="Trazado 713458" d="M-302.266,556.555a.351.351,0,0,1,.041-.242.276.276,0,0,1,.12-.072.274.274,0,0,1,.077-.015.378.378,0,0,1,.212.057.345.345,0,0,1,.1.094l.013.015a.221.221,0,0,1,.039.1l.006.031-.011.061,0,.007-.009.031-.009.048c-.007.05-.015.1-.018.149a.254.254,0,0,1,.007.153.223.223,0,0,1-.05.118.236.236,0,0,1-.234.05.331.331,0,0,1-.114-.055.271.271,0,0,1-.085-.109A1.1,1.1,0,0,1-302.266,556.555Z" transform="translate(302.269 -556.227)" fill="#bc1723"/>
          </g>
          <path id="Trazado_713459" data-name="Trazado 713459" d="M-305.778,552.759v0l0-.024a.066.066,0,0,1,.017-.044l.015-.022,0-.006.009-.009.007-.008.039-.031,0,0,.005,0a.274.274,0,0,1,.05-.02h0l.053-.009h0l.057,0a.164.164,0,0,1,.059.017l.055.026h0l.044.035h0l.035.039v0l.022.044v0l0,0,0,.024,0,.022v.013l0,.031c0,.028-.009.055-.015.081l-.018.033a.2.2,0,0,1-.026.017.1.1,0,0,1-.03.039.134.134,0,0,1-.065.033l-.053.009a.241.241,0,0,1-.089-.011.168.168,0,0,1-.057-.022.221.221,0,0,1-.074-.048l-.035-.042a.161.161,0,0,1-.031-.09C-305.781,552.807-305.781,552.783-305.778,552.759Z" transform="translate(324.711 -549.421)" fill="#bc1723"/>
          <path id="Trazado_713460" data-name="Trazado 713460" d="M-295.576,551.176a.2.2,0,0,1-.046-.12l.011-.061a.149.149,0,0,1,.055-.074.107.107,0,0,1,.055-.033.218.218,0,0,1,.1-.024.425.425,0,0,1,.234.063.441.441,0,0,1,.089.066.449.449,0,0,1,.064.079.942.942,0,0,1,.055.116l.009.033a.19.19,0,0,1,.013.07.194.194,0,0,1-.013.066l-.006.022v0l0,.007,0,.013v0a.134.134,0,0,1-.083.107.26.26,0,0,1-.194,0,.568.568,0,0,1-.127-.072l0,0,0,0-.068-.052-.007-.006-.044-.053-.009-.015-.015-.028a.385.385,0,0,0-.039-.057l.048.057c-.028-.033-.053-.066-.081-.1Z" transform="translate(295.622 -550.864)" fill="#bc1723"/>
          <g id="Grupo_1007421" data-name="Grupo 1007421" transform="translate(6.137 17.646)">
            <path id="Trazado_713461" data-name="Trazado 713461" d="M-298.828,560.492l-.01-.008h0Z" transform="translate(299.309 -560.395)" fill="#bc1723"/>
            <path id="Trazado_713462" data-name="Trazado 713462" d="M-298.822,560.47l.029.022,0,0-.037-.028Z" transform="translate(299.254 -560.411)" fill="#bc1723"/>
            <path id="Trazado_713463" data-name="Trazado 713463" d="M-298.825,560.487l0,0,0,0Z" transform="translate(299.296 -560.398)" fill="#bc1723"/>
            <path id="Trazado_713464" data-name="Trazado 713464" d="M-298.87,560.731a.3.3,0,0,1-.005-.172.173.173,0,0,1,.076-.087.273.273,0,0,1,.125-.037.418.418,0,0,1,.118.015.337.337,0,0,1,.138.074.159.159,0,0,1,.044.042.174.174,0,0,1,.05.081l.009.059a.221.221,0,0,1-.018.085c-.007.022-.013.046-.018.07a.91.91,0,0,1-.013.1.735.735,0,0,0-.022.085l0,.022a.07.07,0,0,1-.033.042.149.149,0,0,1-.092.035.28.28,0,0,1-.094-.017.248.248,0,0,1-.109-.081c-.024-.031-.048-.063-.07-.1a.533.533,0,0,1-.061-.136A.448.448,0,0,1-298.87,560.731Z" transform="translate(298.887 -560.436)" fill="#bc1723"/>
          </g>
        </g>
        <g id="Grupo_1007425" data-name="Grupo 1007425" transform="translate(35.488 124.78)" style="mix-blend-mode: multiply;isolation: isolate">
          <path id="Trazado_713465" data-name="Trazado 713465" d="M-288.9,574.922l0-.015v-.013l0-.02a.065.065,0,0,1,0-.02.124.124,0,0,1,.052-.059.186.186,0,0,1,.083-.024.274.274,0,0,1,.1.017.284.284,0,0,1,.087.053l.017.018.015.018,0,0,.006.007.007.017.018.03a.146.146,0,0,1,.028.085.119.119,0,0,1-.03.081l-.033.028a.19.19,0,0,1-.094.026.214.214,0,0,1-.083-.011.259.259,0,0,1-.081-.031.287.287,0,0,1-.076-.074.141.141,0,0,1-.028-.085Z" transform="translate(298.268 -569.948)" fill="#bc1723"/>
          <g id="Grupo_1007423" data-name="Grupo 1007423" transform="translate(12.334 9.887)">
            <path id="Trazado_713466" data-name="Trazado 713466" d="M-290.6,577.947l0-.009.005-.031Z" transform="translate(291.162 -577.19)" fill="#bc1723"/>
            <path id="Trazado_713467" data-name="Trazado 713467" d="M-290.614,577.846a.351.351,0,0,1,.041-.242.266.266,0,0,1,.12-.072.272.272,0,0,1,.077-.015.378.378,0,0,1,.212.057.373.373,0,0,1,.1.094l.013.015a.222.222,0,0,1,.039.1l.006.031-.011.061,0,.007-.009.031-.009.05c-.007.048-.015.1-.018.148a.254.254,0,0,1,.007.153.224.224,0,0,1-.05.118.236.236,0,0,1-.234.05.33.33,0,0,1-.114-.055.273.273,0,0,1-.085-.109A1.1,1.1,0,0,1-290.614,577.846Z" transform="translate(290.617 -577.518)" fill="#bc1723"/>
          </g>
          <path id="Trazado_713468" data-name="Trazado 713468" d="M-294.125,574.05v0l0-.024a.066.066,0,0,1,.017-.044l.015-.022,0-.005.009-.009.007-.007.039-.031,0,0,.006,0a.285.285,0,0,1,.05-.02h0l.053-.009h0l.057,0a.164.164,0,0,1,.059.017l.055.026h0l.044.035h0l.035.041v0l.022.042v0l0,0,0,.024,0,.022v.015l0,.029c0,.028-.009.055-.015.081l-.018.033a.2.2,0,0,1-.026.017.1.1,0,0,1-.03.039.135.135,0,0,1-.065.033l-.053.009a.245.245,0,0,1-.089-.011.168.168,0,0,1-.057-.022.222.222,0,0,1-.074-.048l-.035-.042a.162.162,0,0,1-.031-.09C-294.129,574.1-294.129,574.074-294.125,574.05Z" transform="translate(313.059 -570.712)" fill="#bc1723"/>
          <path id="Trazado_713469" data-name="Trazado 713469" d="M-283.924,572.469a.2.2,0,0,1-.046-.122l.011-.061a.149.149,0,0,1,.055-.074.115.115,0,0,1,.055-.033.218.218,0,0,1,.1-.024.424.424,0,0,1,.234.063.5.5,0,0,1,.089.066.453.453,0,0,1,.065.079.874.874,0,0,1,.055.118l.009.031a.188.188,0,0,1,.013.07.212.212,0,0,1-.013.068l-.006.02v0l0,.007,0,.013v0a.134.134,0,0,1-.083.107.26.26,0,0,1-.194,0,.568.568,0,0,1-.127-.072l0,0,0,0-.068-.052-.007-.005-.044-.053-.009-.015-.015-.028a.388.388,0,0,0-.039-.057l.048.057c-.028-.031-.053-.064-.081-.1Z" transform="translate(283.97 -572.155)" fill="#bc1723"/>
          <g id="Grupo_1007424" data-name="Grupo 1007424" transform="translate(6.137 17.648)">
            <path id="Trazado_713470" data-name="Trazado 713470" d="M-287.176,581.784l-.01-.008h0Z" transform="translate(287.657 -581.687)" fill="#bc1723"/>
            <path id="Trazado_713471" data-name="Trazado 713471" d="M-287.171,581.761l.03.024,0,0-.037-.029Z" transform="translate(287.602 -581.703)" fill="#bc1723"/>
            <path id="Trazado_713472" data-name="Trazado 713472" d="M-287.173,581.778l0,0,0,0Z" transform="translate(287.644 -581.69)" fill="#bc1723"/>
            <path id="Trazado_713473" data-name="Trazado 713473" d="M-287.218,582.021a.3.3,0,0,1-.006-.172.173.173,0,0,1,.076-.087.251.251,0,0,1,.125-.035.358.358,0,0,1,.118.013.357.357,0,0,1,.138.074.16.16,0,0,1,.044.042.174.174,0,0,1,.05.083l.009.057a.218.218,0,0,1-.018.085.489.489,0,0,0-.018.07.859.859,0,0,1-.013.1.713.713,0,0,0-.022.085l0,.022a.07.07,0,0,1-.033.042.151.151,0,0,1-.092.035.283.283,0,0,1-.094-.016.24.24,0,0,1-.109-.081c-.024-.031-.048-.063-.07-.1a.536.536,0,0,1-.061-.137A.431.431,0,0,1-287.218,582.021Z" transform="translate(287.235 -581.728)" fill="#bc1723"/>
          </g>
        </g>
        <g id="Grupo_1007428" data-name="Grupo 1007428" transform="translate(58.856 145.247)" style="mix-blend-mode: multiply;isolation: isolate">
          <path id="Trazado_713474" data-name="Trazado 713474" d="M-301.58,586.024V586l0-.02a.068.068,0,0,1,0-.02.116.116,0,0,1,.052-.059.19.19,0,0,1,.085-.024.231.231,0,0,1,.1.017.235.235,0,0,1,.087.053l.017.018.015.018,0,0,.006.007.007.015.018.031a.158.158,0,0,1,.029.085.131.131,0,0,1-.029.079l-.035.029a.211.211,0,0,1-.094.026.214.214,0,0,1-.083-.011.234.234,0,0,1-.081-.033.256.256,0,0,1-.076-.072.141.141,0,0,1-.028-.085Z" transform="translate(310.946 -581.05)" fill="#bc1723"/>
          <g id="Grupo_1007426" data-name="Grupo 1007426" transform="translate(12.334 9.887)">
            <path id="Trazado_713475" data-name="Trazado 713475" d="M-303.273,589.047l0-.007.006-.031Z" transform="translate(303.838 -588.292)" fill="#bc1723"/>
            <path id="Trazado_713476" data-name="Trazado 713476" d="M-303.29,588.948a.351.351,0,0,1,.041-.241.274.274,0,0,1,.12-.072.274.274,0,0,1,.077-.015.375.375,0,0,1,.212.057.38.38,0,0,1,.1.094l.011.015a.221.221,0,0,1,.039.1l.005.031-.011.059,0,.007-.007.031-.011.05c-.007.05-.015.1-.018.149a.253.253,0,0,1,.007.153.21.21,0,0,1-.05.118.236.236,0,0,1-.234.05.329.329,0,0,1-.114-.055.273.273,0,0,1-.085-.109A1.1,1.1,0,0,1-303.29,588.948Z" transform="translate(303.293 -588.62)" fill="#bc1723"/>
          </g>
          <path id="Trazado_713477" data-name="Trazado 713477" d="M-306.8,585.152v0l0-.024a.066.066,0,0,1,.017-.044l.015-.022,0-.006.009-.009.007-.007.039-.031,0,0,.005,0a.272.272,0,0,1,.05-.02h0l.052-.009h0l.057,0a.213.213,0,0,1,.059.015l.055.028h0l.044.033v0l.035.039,0,0,.02.044h0l0,0,0,.024,0,.022v.015l0,.029-.015.081-.018.033a.123.123,0,0,1-.026.016.087.087,0,0,1-.029.039.136.136,0,0,1-.065.033l-.053.009a.243.243,0,0,1-.089-.011.168.168,0,0,1-.057-.022.219.219,0,0,1-.074-.048l-.035-.042a.177.177,0,0,1-.031-.09Z" transform="translate(325.735 -581.814)" fill="#bc1723"/>
          <path id="Trazado_713478" data-name="Trazado 713478" d="M-296.6,583.569a.2.2,0,0,1-.046-.12l.011-.061a.147.147,0,0,1,.055-.074.123.123,0,0,1,.055-.033.218.218,0,0,1,.1-.024.423.423,0,0,1,.234.063.442.442,0,0,1,.089.066.384.384,0,0,1,.065.079.965.965,0,0,1,.055.116l.009.033a.189.189,0,0,1,.013.07.264.264,0,0,1-.011.066l-.007.022v0l0,.007,0,.013v0a.135.135,0,0,1-.083.107.255.255,0,0,1-.192,0,.541.541,0,0,1-.129-.072l0,0,0,0-.068-.052-.006-.005-.046-.053-.009-.015-.015-.029a.52.52,0,0,0-.039-.055l.048.055c-.028-.031-.053-.064-.081-.1Z" transform="translate(296.646 -583.257)" fill="#bc1723"/>
          <g id="Grupo_1007427" data-name="Grupo 1007427" transform="translate(6.137 17.646)">
            <path id="Trazado_713479" data-name="Trazado 713479" d="M-299.852,592.885l-.01-.008h0Z" transform="translate(300.333 -592.788)" fill="#bc1723"/>
            <path id="Trazado_713480" data-name="Trazado 713480" d="M-299.847,592.863l.03.022,0,0-.037-.028Z" transform="translate(300.278 -592.804)" fill="#bc1723"/>
            <path id="Trazado_713481" data-name="Trazado 713481" d="M-299.849,592.88l0,0,0,0Z" transform="translate(300.32 -592.791)" fill="#bc1723"/>
            <path id="Trazado_713482" data-name="Trazado 713482" d="M-299.9,593.124a.3.3,0,0,1-.005-.172.172.172,0,0,1,.076-.087.275.275,0,0,1,.125-.037.416.416,0,0,1,.118.015.335.335,0,0,1,.138.074.137.137,0,0,1,.044.042.176.176,0,0,1,.05.081l.011.059a.258.258,0,0,1-.02.085c-.007.022-.013.046-.018.07a.456.456,0,0,1-.013.1.71.71,0,0,0-.022.085l0,.022a.074.074,0,0,1-.031.042.147.147,0,0,1-.094.033.242.242,0,0,1-.094-.015.245.245,0,0,1-.107-.081,1.178,1.178,0,0,1-.072-.1.533.533,0,0,1-.061-.136C-299.882,593.181-299.89,593.154-299.9,593.124Z" transform="translate(299.912 -592.829)" fill="#bc1723"/>
          </g>
        </g>
        <g id="Grupo_1007431" data-name="Grupo 1007431" transform="translate(66.129 176.827)">
          <path id="Trazado_713483" data-name="Trazado 713483" d="M-305.524,603.153l0-.015v-.011l0-.02a.037.037,0,0,1,0-.02.113.113,0,0,1,.05-.059.179.179,0,0,1,.085-.024.239.239,0,0,1,.1.017.278.278,0,0,1,.087.052l.015.02.017.018,0,0,0,.007.009.015.018.031a.171.171,0,0,1,.028.085.112.112,0,0,1-.029.079l-.033.029a.237.237,0,0,1-.094.026.206.206,0,0,1-.083-.011.209.209,0,0,1-.081-.033.261.261,0,0,1-.077-.072.171.171,0,0,1-.028-.085Z" transform="translate(314.888 -598.18)" fill="#ffeac6"/>
          <g id="Grupo_1007429" data-name="Grupo 1007429" transform="translate(12.333 9.887)">
            <path id="Trazado_713484" data-name="Trazado 713484" d="M-307.218,606.177v-.007l.007-.031Z" transform="translate(307.785 -605.422)" fill="#ffeac6"/>
            <path id="Trazado_713485" data-name="Trazado 713485" d="M-307.235,606.078a.349.349,0,0,1,.042-.241.239.239,0,0,1,.118-.072.287.287,0,0,1,.077-.015.375.375,0,0,1,.212.057.379.379,0,0,1,.1.094l.011.015a.237.237,0,0,1,.041.1l.006.029-.011.061,0,.008-.009.031-.009.05a1.367,1.367,0,0,0-.018.149.267.267,0,0,1,.005.153.215.215,0,0,1-.05.118.23.23,0,0,1-.234.048.325.325,0,0,1-.114-.054.3.3,0,0,1-.083-.109A1.141,1.141,0,0,1-307.235,606.078Z" transform="translate(307.238 -605.75)" fill="#ffeac6"/>
          </g>
          <path id="Trazado_713486" data-name="Trazado 713486" d="M-310.747,602.282v0l0-.024a.067.067,0,0,1,.017-.046l.013-.022.006,0,.007-.009.009-.007.039-.033,0,0,.007,0a.213.213,0,0,1,.048-.02l0,0,.052-.007h0l.057,0a.217.217,0,0,1,.059.015l.053.026v0l.046.033h0l.033.041,0,0,.022.044h0v0l0,.022.006.024v.013l0,.031c0,.028-.007.053-.013.081l-.02.031a.083.083,0,0,1-.026.018.094.094,0,0,1-.03.037.119.119,0,0,1-.063.035l-.053.009a.2.2,0,0,1-.089-.013.141.141,0,0,1-.059-.02.216.216,0,0,1-.074-.05l-.035-.041a.181.181,0,0,1-.03-.092A.471.471,0,0,1-310.747,602.282Z" transform="translate(329.68 -598.944)" fill="#ffeac6"/>
          <path id="Trazado_713487" data-name="Trazado 713487" d="M-300.547,600.7a.191.191,0,0,1-.044-.122l.011-.061a.135.135,0,0,1,.055-.072.107.107,0,0,1,.055-.033.216.216,0,0,1,.1-.024.417.417,0,0,1,.234.063.452.452,0,0,1,.089.065.392.392,0,0,1,.065.081.671.671,0,0,1,.055.116l.011.031a.244.244,0,0,1,.013.072.283.283,0,0,1-.013.066l-.006.022v0l0,.007,0,.013,0,0a.14.14,0,0,1-.085.107.265.265,0,0,1-.192,0,.569.569,0,0,1-.127-.072l0,0,0,0c-.022-.015-.044-.031-.068-.05l-.007-.005-.046-.055-.007-.015-.015-.028a.611.611,0,0,0-.039-.055l.046.055c-.028-.031-.053-.064-.079-.1Z" transform="translate(300.591 -600.387)" fill="#ffeac6"/>
          <g id="Grupo_1007430" data-name="Grupo 1007430" transform="translate(6.136 17.646)">
            <path id="Trazado_713488" data-name="Trazado 713488" d="M-303.8,610.015l-.01-.008,0,0Z" transform="translate(304.278 -609.918)" fill="#ffeac6"/>
            <path id="Trazado_713489" data-name="Trazado 713489" d="M-303.791,609.993l.029.022,0,0-.037-.028Z" transform="translate(304.224 -609.934)" fill="#ffeac6"/>
            <path id="Trazado_713490" data-name="Trazado 713490" d="M-303.794,610.01l0,0,0,0Z" transform="translate(304.265 -609.921)" fill="#ffeac6"/>
            <path id="Trazado_713491" data-name="Trazado 713491" d="M-303.84,610.254a.287.287,0,0,1,0-.172.166.166,0,0,1,.074-.088.28.28,0,0,1,.127-.035.426.426,0,0,1,.118.015.338.338,0,0,1,.136.072.208.208,0,0,1,.046.042.238.238,0,0,1,.05.083l.009.059a.227.227,0,0,1-.02.085.439.439,0,0,0-.017.07.609.609,0,0,1-.015.1c-.007.028-.015.055-.02.085l0,.022a.093.093,0,0,1-.033.042.152.152,0,0,1-.092.033.23.23,0,0,1-.094-.015.23.23,0,0,1-.109-.083.9.9,0,0,1-.07-.1.52.52,0,0,1-.061-.135A.855.855,0,0,1-303.84,610.254Z" transform="translate(303.856 -609.959)" fill="#ffeac6"/>
          </g>
        </g>
        <g id="Grupo_1007434" data-name="Grupo 1007434" transform="translate(109.992 165.673)" style="mix-blend-mode: multiply;isolation: isolate">
          <path id="Trazado_713492" data-name="Trazado 713492" d="M-329.317,597.1v-.026l0-.02a.091.091,0,0,1,0-.022.119.119,0,0,1,.052-.057.168.168,0,0,1,.085-.024.239.239,0,0,1,.1.017.262.262,0,0,1,.087.052l.017.02.015.018,0,0,.006.007.007.015.018.031a.142.142,0,0,1,.028.085.114.114,0,0,1-.03.079l-.033.03a.24.24,0,0,1-.094.026.219.219,0,0,1-.083-.011.223.223,0,0,1-.081-.033.254.254,0,0,1-.076-.072.148.148,0,0,1-.028-.087Z" transform="translate(338.682 -592.13)" fill="#bc1723"/>
          <g id="Grupo_1007432" data-name="Grupo 1007432" transform="translate(12.334 9.887)">
            <path id="Trazado_713493" data-name="Trazado 713493" d="M-331.011,600.127l0-.009.005-.029Z" transform="translate(331.576 -599.372)" fill="#bc1723"/>
            <path id="Trazado_713494" data-name="Trazado 713494" d="M-331.028,600.028a.354.354,0,0,1,.041-.243.265.265,0,0,1,.12-.07.223.223,0,0,1,.077-.015.389.389,0,0,1,.212.055.42.42,0,0,1,.1.1l.011.015a.215.215,0,0,1,.039.1l.006.031-.011.061,0,.007-.007.031-.011.05c-.007.05-.015.1-.018.149a.248.248,0,0,1,.007.151.23.23,0,0,1-.05.12.232.232,0,0,1-.234.048.3.3,0,0,1-.114-.055.269.269,0,0,1-.085-.107A1.1,1.1,0,0,1-331.028,600.028Z" transform="translate(331.031 -599.7)" fill="#bc1723"/>
          </g>
          <path id="Trazado_713495" data-name="Trazado 713495" d="M-334.54,596.23v0l0-.024a.067.067,0,0,1,.017-.046l.015-.022,0,0,.009-.009.007-.007.039-.033,0,0,.005,0a.29.29,0,0,1,.05-.02l0,0,.052-.008h0l.057,0a.217.217,0,0,1,.059.015l.055.028h0l.044.033h0l.035.041v0l.022.044h0l0,0,0,.022,0,.024v.013l0,.031c0,.028-.009.054-.015.081l-.018.031a.108.108,0,0,1-.026.018.113.113,0,0,1-.029.037.126.126,0,0,1-.065.035l-.053.009a.245.245,0,0,1-.088-.011.164.164,0,0,1-.057-.022.2.2,0,0,1-.074-.05l-.035-.041a.167.167,0,0,1-.031-.09Z" transform="translate(353.473 -592.894)" fill="#bc1723"/>
          <path id="Trazado_713496" data-name="Trazado 713496" d="M-324.338,594.649a.2.2,0,0,1-.046-.122l.011-.061a.137.137,0,0,1,.055-.072.126.126,0,0,1,.055-.033.219.219,0,0,1,.1-.024.441.441,0,0,1,.234.061.792.792,0,0,1,.089.066.39.39,0,0,1,.065.081.835.835,0,0,1,.055.116l.009.031a.2.2,0,0,1,.013.072.212.212,0,0,1-.013.066l-.006.022v0l0,.007,0,.013v0a.132.132,0,0,1-.083.105.26.26,0,0,1-.194,0,.573.573,0,0,1-.127-.072l0,0,0,0-.068-.05-.005-.005-.046-.053-.009-.017-.015-.028a.3.3,0,0,0-.039-.055l.048.055c-.028-.031-.053-.065-.081-.1Z" transform="translate(324.384 -594.337)" fill="#bc1723"/>
          <g id="Grupo_1007433" data-name="Grupo 1007433" transform="translate(6.137 17.646)">
            <path id="Trazado_713497" data-name="Trazado 713497" d="M-327.59,603.965l-.01-.008,0,0Z" transform="translate(328.071 -603.868)" fill="#bc1723"/>
            <path id="Trazado_713498" data-name="Trazado 713498" d="M-327.585,603.943l.029.022,0,0-.037-.028Z" transform="translate(328.016 -603.884)" fill="#bc1723"/>
            <path id="Trazado_713499" data-name="Trazado 713499" d="M-327.587,603.96l0,0,0,0Z" transform="translate(328.058 -603.871)" fill="#bc1723"/>
            <path id="Trazado_713500" data-name="Trazado 713500" d="M-327.632,604.2a.3.3,0,0,1-.006-.171.171.171,0,0,1,.076-.089.273.273,0,0,1,.125-.035.415.415,0,0,1,.118.015.333.333,0,0,1,.138.072.194.194,0,0,1,.044.042.194.194,0,0,1,.05.083l.009.059a.224.224,0,0,1-.018.085.433.433,0,0,0-.017.07.564.564,0,0,1-.015.1.751.751,0,0,0-.022.087l0,.022a.081.081,0,0,1-.031.042.158.158,0,0,1-.094.033.28.28,0,0,1-.094-.015.236.236,0,0,1-.107-.083.928.928,0,0,1-.072-.1.536.536,0,0,1-.061-.136A.61.61,0,0,1-327.632,604.2Z" transform="translate(327.649 -603.909)" fill="#bc1723"/>
          </g>
        </g>
      </g>
    </g>
  </g>
</svg>
