<svg xmlns="http://www.w3.org/2000/svg" xmlns:xlink="http://www.w3.org/1999/xlink" width="400" height="297.527" viewBox="0 0 400 297.527">
  <defs>
    <clipPath id="clip-path">
      <path id="Trazado_712002" data-name="Trazado 712002" d="M1154.3,1122.482c7.59,2.548,12.885,4.908,16.992,8.728,5.148,4.788,9.13,12.351,12.085,18.594,2.534,5.354,5.385,10.768,8.072,16.271q1.087-2.2,2.192-4.39,3.97-7.873,8.283-15.567c2.505-4.45,8.523-14.762,8.977-14.846.575-.107,4.482,1.739,5.261,2.105a78.023,78.023,0,0,1,12.277,7.2,5.5,5.5,0,0,1,1.65,1.592c.628,1.081.077,2.011-.345,3.028-3.932,9.457-7.488,19.067-11.453,28.513-3.794,9.037-7.391,18.951-13.08,27.016-4.2,5.96-9.4,11.228-17.273,10.637a6.678,6.678,0,0,1-1.06-.168l-.08-.019-.057-.014c-.081-.02-.16-.043-.238-.067l-.124-.039h0q-.3-.1-.6-.221a22.1,22.1,0,0,1-10.476-8.667c-10.618-16.4-16.985-37.284-21.018-56.259C1153.043,1140.069,1149.122,1127.152,1154.3,1122.482Z" transform="translate(-1151.691 -1122.482)" fill="#fff"/>
    </clipPath>
    <clipPath id="clip-path-2">
      <path id="Trazado_712006" data-name="Trazado 712006" d="M702.618,1204.241c3.817-38.252,7.585-60.625,11.734-87.452.829-5.359,2.445-11.111,4.7-13.855,3.513-4.267,8.6-6.121,13.61-7.992a64.469,64.469,0,0,1,19.129-4.4q1-.052,2-.054h0v-.136l.065.136h.042l.065-.136v.136h.057v-.136l.065.136h.042l.065-.136v.136h0q1,0,2,.054a64.467,64.467,0,0,1,19.129,4.4c5.006,1.871,10.1,3.725,13.61,7.992,2.259,2.744,3.875,8.5,4.7,13.855,4.149,26.827,7.917,49.2,11.734,87.452,2.307,23.122,5.1,56.744,3.985,58.338-2.126,3.05-26.607,3.758-29.9,4.068-5.4.508-10.829.545-16.251.581q-4.6.031-9.213,0-4.612.034-9.213,0c-5.422-.036-10.852-.073-16.251-.581-3.29-.31-27.771-1.018-29.9-4.068C697.522,1260.986,700.311,1227.363,702.618,1204.241Z" transform="translate(-698.381 -1090.348)" fill="#fff"/>
    </clipPath>
    <clipPath id="clip-path-3">
      <path id="Trazado_712019" data-name="Trazado 712019" d="M922.954,707.357a44.744,44.744,0,0,1,1.582-13.423c4.954-16.756,25.549-21.443,38.358-9.878,14.284,12.9,9.859,44.825-4.475,56.4a16.443,16.443,0,0,1-13.919,3.153C930,740.158,923.294,722.621,922.954,707.357Z" transform="translate(-922.94 -677.682)" fill="#f9ae8f"/>
    </clipPath>
    <clipPath id="clip-path-4">
      <path id="Rectángulo_346618" data-name="Rectángulo 346618" d="M4.682,0h0A4.682,4.682,0,0,1,9.364,4.682V41.1a0,0,0,0,1,0,0H0a0,0,0,0,1,0,0V4.682A4.682,4.682,0,0,1,4.682,0Z" transform="translate(9.364 41.096) rotate(180)" fill="#3076b6"/>
    </clipPath>
    <clipPath id="clip-path-5">
      <path id="Trazado_712050" data-name="Trazado 712050" d="M1851.967,1195.166c-3.817-38.252-7.585-60.625-11.734-87.452-.829-5.359-2.444-11.111-4.7-13.855-3.513-4.267-8.6-6.121-13.61-7.993a64.467,64.467,0,0,0-19.129-4.4q-1-.052-2-.054h0v-.136l-.065.136h-.042l-.065-.136v.136h-.057v-.136l-.065.136h-.042l-.065-.136v.136h0q-1,0-2,.054a64.468,64.468,0,0,0-19.129,4.4c-5.005,1.871-10.1,3.725-13.61,7.993-2.259,2.744-3.875,8.5-4.7,13.855-4.149,26.827-7.917,49.2-11.734,87.452-2.307,23.122-5.1,56.744-3.985,58.338,2.126,3.05,26.607,3.758,29.9,4.068,5.4.508,10.829.545,16.251.582q4.6.031,9.212,0,4.612.034,9.213,0c5.422-.036,10.852-.073,16.251-.582,3.29-.31,27.771-1.018,29.9-4.068C1857.063,1251.911,1854.274,1218.288,1851.967,1195.166Z" transform="translate(-1744.978 -1081.273)" fill="#fff"/>
    </clipPath>
    <clipPath id="clip-path-6">
      <path id="Trazado_712064" data-name="Trazado 712064" d="M1894.575,719.429a44.736,44.736,0,0,0-5.27-12.446c-9.438-14.7-30.523-13.45-39.59,1.233-10.111,16.375,2.667,45.411,18.033,54.129,4.285,2.431,15.711.741,19.389-2.537C1898.587,749.6,1898.513,734.18,1894.575,719.429Z" transform="translate(-1846.106 -696.559)" fill="#f9ae8f"/>
    </clipPath>
    <clipPath id="clip-path-7">
      <path id="Trazado_712088" data-name="Trazado 712088" d="M1612.445,1403.289l43.677-3.295-23.607-57.233-50.664,4.87Z" transform="translate(-1581.851 -1342.761)" fill="#ffa031"/>
    </clipPath>
    <clipPath id="clip-path-8">
      <path id="Rectángulo_346641" data-name="Rectángulo 346641" d="M0,0H9.364a0,0,0,0,1,0,0V36.414A4.682,4.682,0,0,1,4.682,41.1h0A4.682,4.682,0,0,1,0,36.414V0A0,0,0,0,1,0,0Z" fill="#52bbd0"/>
    </clipPath>
  </defs>
  <g id="Grupo_1002673" data-name="Grupo 1002673" transform="translate(-312.288 -375.946)">
    <path id="Trazado_711988" data-name="Trazado 711988" d="M637.54,668.535c6.7-.143,13.4-.177,20.1-.043,14.085.281,27.631.51,37.742-10.79,8.688-9.709,13.2-23.138,15.678-35.715,5.315-26.929-7.172-55.028-26.47-74.546-10.389-10.508-24.34-20.1-27.3-35.581-2.228-11.671,4.479-21.007,4.656-32.135.688-43.287-39.328-54.212-74.764-52.277-15.277.834-30.885,2.568-46.094.04C501.45,420.9,466.768,353.747,422.6,383.52c-10.98,7.4-17.763,19.632-22.311,32.069-5.667,15.5-10.371,30.848-16.652,46.025-6.421,15.515-18.06,28.272-29.636,40.135-14.745,15.111-30.557,30.384-37.656,50.268-9.715,27.212-.9,58.095,14.928,82.267,8.673,13.243,20.073,25.6,35.044,30.743,15.808,5.43,30.422.227,46.051,1.91,19.191,2.067,38.175,1.714,57.44,1.112,13.881-.434,27.99.978,41.754,2.674,13.714,1.69,27.975,1.217,41.867,1.118C581.51,671.641,609.545,669.133,637.54,668.535Z" transform="translate(0 0)" fill="#c8eff5"/>
    <g id="Grupo_1002618" data-name="Grupo 1002618" transform="translate(317.061 401.46)">
      <path id="Trazado_711989" data-name="Trazado 711989" d="M410.86,786.185q-1.1-1.278-2.211-2.55l.509-.444q1.111,1.274,2.214,2.553Zm-4.437-5.087q-1.116-1.265-2.24-2.525l.5-.45q1.125,1.261,2.242,2.527Zm-4.494-5.036q-1.13-1.253-2.268-2.5l.5-.455q1.139,1.248,2.271,2.5ZM691,774.325l-.378-.56c.924-.624,1.841-1.283,2.726-1.958l.41.537C692.861,773.027,691.933,773.694,691,774.325Zm-293.619-3.249q-1.144-1.239-2.3-2.474l.494-.461q1.153,1.235,2.3,2.476Zm299.015-.868-.44-.512c.846-.727,1.68-1.488,2.479-2.261l.47.485C698.094,768.7,697.25,769.471,696.394,770.208Zm-303.622-4.066q-1.158-1.227-2.324-2.448l.488-.466q1.167,1.223,2.326,2.45Zm308.5-.655-.5-.457c.754-.822,1.491-1.677,2.191-2.54l.524.426C702.78,763.79,702.034,764.655,701.271,765.487Zm-313.16-4.228q-1.172-1.214-2.351-2.422l.483-.472q1.18,1.209,2.354,2.424Zm317.435-1.044-.55-.392c.649-.91,1.276-1.849,1.861-2.79l.573.357C706.838,758.343,706.2,759.293,705.546,760.215ZM383.4,756.429q-1.185-1.2-2.378-2.4l.478-.477q1.194,1.2,2.38,2.4Zm325.736-1.979-.6-.319c.528-.986,1.028-2,1.485-3.006l.615.279C710.174,752.426,709.668,753.45,709.132,754.449Zm-330.51-2.784c-.77-.744-1.593-1.523-2.447-2.315l.459-.5c.857.795,1.684,1.577,2.457,2.324Zm333.31-3.4-.633-.236c.391-1.049.748-2.119,1.06-3.179l.648.191C712.691,746.113,712.329,747.2,711.933,748.262Zm-338.248-1.183c-.788-.708-1.614-1.44-2.522-2.239l.446-.508c.911.8,1.738,1.534,2.528,2.244Zm-5.066-4.457q-1.274-1.1-2.555-2.207l.441-.511q1.28,1.1,2.556,2.208Zm345.23-.879-.66-.143c.218-1.006.4-2.03.549-3.042l.036-.257.669.093-.037.26C714.257,739.683,714.07,740.722,713.848,741.743Zm-350.342-3.537q-1.279-1.107-2.55-2.219l.445-.508q1.268,1.111,2.547,2.216Zm351.277-3.2-.674-.042c.058-.927.088-1.872.088-2.808q0-.272,0-.542l.675-.008q0,.275,0,.55C714.872,733.11,714.842,734.069,714.783,735.01Zm-356.36-1.263c-.893-.8-1.712-1.542-2.506-2.274l.458-.5c.791.729,1.609,1.471,2.5,2.267Zm-4.974-4.591c-.841-.806-1.654-1.6-2.417-2.373l.479-.476c.759.765,1.569,1.56,2.405,2.362Zm360.581-.885c-.094-1.106-.231-2.226-.405-3.328l.667-.106c.177,1.117.315,2.253.411,3.376Zm-365.35-3.929c-.692-.741-1.365-1.484-2-2.208q-.137-.157-.271-.315l.516-.436q.13.154.263.306c.629.718,1.3,1.456,1.984,2.192Zm364.3-2.69c-.251-1.082-.543-2.172-.87-3.239l.646-.2c.331,1.082.628,2.187.882,3.284ZM344.4,719.045a23.78,23.78,0,0,1-1.578-3.037l.62-.268a23.076,23.076,0,0,0,1.533,2.951Zm366.621-3.8c-.4-1.037-.836-2.077-1.3-3.091l.613-.283c.475,1.028.919,2.081,1.321,3.133Zm-369.339-2.456a29.027,29.027,0,0,1-.725-3.336l.667-.105a28.269,28.269,0,0,0,.708,3.258Zm366.527-3.632c-.532-.976-1.105-1.949-1.7-2.891l.57-.362c.606.955,1.187,1.941,1.726,2.93Zm-367.6-3.1c-.034-.643-.051-1.3-.051-1.965,0-.474.009-.959.026-1.44l.675.024c-.017.474-.026.95-.026,1.416,0,.649.017,1.3.05,1.93Zm364.011-2.569c-.656-.9-1.351-1.789-2.065-2.646l.519-.433c.724.868,1.427,1.77,2.092,2.68Zm-363.108-4.153-.671-.076c.125-1.1.293-2.229.5-3.363l.664.121C341.8,697.136,341.635,698.253,341.511,699.335Zm358.811-1c-.309-.326-.622-.65-.936-.976-.462-.478-.94-.974-1.4-1.469l.5-.459c.454.49.93.983,1.389,1.459.316.327.631.653.941.981Zm-4.513-5.084a11.8,11.8,0,0,1-1.542-2.943c-.016-.045-.031-.09-.045-.135l.642-.209c.014.042.028.084.042.125a11.146,11.146,0,0,0,1.456,2.775Zm-353.1-.517-.656-.161c.264-1.076.566-2.177.9-3.275l.646.2C343.269,690.581,342.97,691.671,342.709,692.735Zm350.969-5.98q-.009-.287-.009-.576c0-.459.016-.958.047-1.525.025-.437.058-.879.1-1.313l.673.064c-.041.426-.074.858-.1,1.287-.031.554-.046,1.041-.046,1.487q0,.278.008.556ZM344.652,686.3l-.636-.227c.374-1.049.782-2.115,1.213-3.169l.625.256C345.427,684.207,345.022,685.264,344.652,686.3Zm350.321-6.2-.663-.13c.214-1.088.486-2.2.809-3.307l.648.189C695.45,677.939,695.182,679.032,694.972,680.1Zm-347.779-.023-.614-.282c.467-1.017.965-2.044,1.479-3.053l.6.307C348.15,678.049,347.656,679.068,347.193,680.077Zm3.055-5.994-.589-.331c.553-.985,1.132-1.968,1.72-2.924l.575.354C351.371,672.13,350.8,673.106,350.248,674.083Zm346.585-.4-.632-.239c.384-1.016.824-2.071,1.307-3.137l.615.279C697.646,671.633,697.212,672.675,696.833,673.678Zm-343.056-5.323-.56-.378c.637-.945,1.3-1.877,1.959-2.771l.543.4C355.062,666.494,354.409,667.418,353.777,668.355Zm345.812-.8-.6-.309c.489-.95,1.015-1.926,1.609-2.985l.589.331C700.6,665.645,700.074,666.615,699.589,667.557Zm-341.8-4.6-.522-.428c.736-.9,1.485-1.761,2.225-2.567l.5.457C359.253,661.214,358.512,662.068,357.784,662.956Zm345.087-1.282-.581-.344c.607-1.027,1.22-2.043,1.739-2.9l.578.35C704.088,659.635,703.477,660.649,702.871,661.674Zm-340.538-3.658-.472-.483c.615-.6,1.254-1.213,1.873-1.8l.563-.54.468.487-.564.54C363.584,656.806,362.946,657.417,362.333,658.016Zm344.022-2.128-.579-.348c.681-1.131,1.229-2.053,1.722-2.9l.584.34C707.587,653.829,707.038,654.754,706.355,655.888ZM367.189,653.31l-.478-.477c.884-.887,1.64-1.685,2.311-2.437l.5.449C368.846,651.607,368.082,652.413,367.189,653.31Zm342.564-3.275-.592-.325q.267-.487.529-.977c.345-.646.679-1.322.993-2.009l.614.281c-.32.7-.66,1.389-1.012,2.047Q710.022,649.544,709.753,650.034ZM371.677,648.2l-.546-.4a21.512,21.512,0,0,0,1.762-2.816l.6.31A22.215,22.215,0,0,1,371.677,648.2Zm340.9-4.351-.636-.228c.37-1.032.709-2.107,1.008-3.2l.651.179C713.3,641.711,712.953,642.8,712.577,643.85Zm-337.832-1.76-.653-.172a12.35,12.35,0,0,0,.4-2.8q0-.135,0-.27c0-.059,0-.118,0-.177l.675-.012q0,.094,0,.189,0,.144,0,.288A13.037,13.037,0,0,1,374.745,642.09Zm-8.57-3.944H365.8l.005-.675h.384c.983,0,1.982-.029,2.97-.087l.04.674c-1,.059-2.014.088-3.01.088Zm6.412-.4-.083-.67c1.1-.136,2.218-.311,3.316-.518l.125.664C374.834,637.434,373.7,637.611,372.588,637.749Zm341.8-.454-.662-.132c.216-1.084.4-2.2.544-3.311l.67.087C714.789,635.067,714.6,636.2,714.384,637.295Zm-335.12-.8-.166-.655c1.078-.274,2.164-.586,3.226-.927l.207.643C381.455,635.9,380.356,636.213,379.264,636.49Zm-16.473-.026a3.712,3.712,0,0,1-.317-1.523,4.185,4.185,0,0,1,.533-2.032l.59.329a3.508,3.508,0,0,0-.447,1.7,3.039,3.039,0,0,0,.258,1.248Zm11.084-.965a6.919,6.919,0,0,0-1.829-2.616l.447-.506a7.594,7.594,0,0,1,2.007,2.868Zm11.858-1.085-.246-.629c1.04-.406,2.079-.848,3.089-1.316l.284.613C387.838,633.555,386.786,634,385.734,634.414Zm6.166-2.855-.321-.594c.984-.532,1.961-1.1,2.9-1.689l.358.573C393.885,630.445,392.9,631.02,391.9,631.559Zm-25.865-.109-.178-.652a7.154,7.154,0,0,1,3.51-.011l-.158.657A6.475,6.475,0,0,0,366.035,631.45Zm349.229-.9-.674-.043c.07-1.095.106-2.206.106-3.3v-.052h.675v.052C715.371,628.321,715.335,629.446,715.264,630.555Zm-317.6-2.6-.394-.548c.91-.654,1.8-1.344,2.656-2.048l.43.521C399.488,626.594,398.582,627.292,397.66,627.955Zm316.923-4.15c-.075-1.116-.187-2.239-.335-3.338l.669-.09c.15,1.114.264,2.252.339,3.383ZM402.9,623.624l-.466-.489c.813-.774,1.6-1.581,2.342-2.4l.5.454C404.521,622.02,403.722,622.839,402.9,623.624Zm4.564-5.038-.534-.414c.688-.888,1.341-1.806,1.941-2.728l.566.368C408.824,616.75,408.16,617.683,407.461,618.585Zm306.224-1.423c-.227-1.1-.5-2.194-.8-3.255l.65-.185c.307,1.077.579,2.188.809,3.3ZM411.166,612.88l-.6-.317c.527-.99,1.01-2.006,1.435-3.02l.623.261C412.195,610.837,411.7,611.872,411.166,612.88Zm300.68-2.155c-.392-1.053-.828-2.092-1.3-3.085l.611-.288c.476,1.011.919,2.067,1.318,3.138ZM413.792,606.6l-.645-.2c.318-1.017.607-2.075.882-3.234l.657.156C414.408,604.5,414.115,605.569,413.792,606.6Zm295.2-1.921c-.568-.968-1.182-1.91-1.826-2.8l.547-.4c.657.906,1.283,1.866,1.862,2.853ZM415.387,600l-.664-.125c.224-1.183.42-2.341.583-3.319l.666.111C415.809,597.65,415.612,598.813,415.387,600Zm289.685-.723a31.306,31.306,0,0,0-2.355-2.367l.453-.5a31.933,31.933,0,0,1,2.406,2.419Zm-4.954-4.464c-.368-.265-.748-.525-1.129-.774-.541-.353-1.107-.7-1.681-1.032l.337-.585c.585.337,1.161.691,1.713,1.051.39.255.778.521,1.154.792Zm-283.591-1.477-.666-.113c.208-1.227.388-2.224.567-3.138l.038-.194.663.13-.038.193C416.912,591.125,416.733,592.117,416.526,593.338Zm277.812-1.874c-.976-.458-2.013-.9-3.084-1.312l.243-.63c1.085.418,2.138.866,3.128,1.331Zm-6.251-2.424c-1.018-.326-2.1-.645-3.225-.948l.176-.652c1.132.306,2.227.628,3.255.957Zm-6.49-1.766c-1.035-.241-2.112-.477-3.292-.72l.137-.661c1.186.244,2.268.481,3.309.723Zm-263.751-.534-.657-.158c.264-1.1.554-2.2.861-3.279l.649.185C418.4,584.555,418.108,585.649,417.846,586.74Zm257.147-.839c-1.187-.225-2.345-.437-3.321-.614l.121-.665c.978.177,2.137.389,3.326.614Zm-6.645-1.217c-1.3-.238-2.359-.435-3.322-.62l.128-.663c.961.185,2.015.381,3.316.619Zm-6.641-1.287c-1.184-.25-2.265-.494-3.3-.745l.158-.657c1.034.25,2.109.492,3.286.741Zm-6.586-1.6c-1.13-.32-2.221-.659-3.242-1.007l.218-.639c1.01.344,2.089.679,3.208,1Zm-235.429-1.518-.641-.214c.358-1.075.744-2.149,1.145-3.193l.63.243C420.429,578.147,420.047,579.212,419.692,580.277ZM648.7,579.59c-1.076-.448-2.115-.929-3.087-1.429l.309-.6c.956.492,1.977.965,3.037,1.406Zm-6.037-3.13a30.72,30.72,0,0,1-2.759-2l.427-.523a30.1,30.1,0,0,0,2.7,1.956Zm-220.555-2.454-.618-.272c.456-1.037.941-2.07,1.442-3.071l.6.3C423.039,571.956,422.559,572.979,422.107,574.006Zm215.287-1.857a28.759,28.759,0,0,1-2.21-2.6l.54-.406a28.063,28.063,0,0,0,2.158,2.541ZM425.112,568l-.588-.333c.557-.985,1.145-1.964,1.747-2.909l.57.363C426.245,566.057,425.664,567.026,425.112,568Zm208.165-1.279c-.562-.926-1.1-1.9-1.646-2.977l.6-.305c.538,1.062,1.068,2.021,1.621,2.932Zm-204.556-4.38-.549-.394c.658-.919,1.349-1.828,2.052-2.7l.526.423C430.055,560.534,429.372,561.433,428.721,562.342Zm201.46-1.665c-.4-.893-.807-1.853-1.329-3.114l.624-.258c.52,1.255.928,2.211,1.322,3.1Zm-197.254-3.561-.5-.453c.4-.442.811-.885,1.225-1.317.365-.381.743-.763,1.122-1.136l.474.482c-.375.369-.748.746-1.108,1.122C433.729,556.241,433.321,556.679,432.927,557.116Zm194.639-2.677c-.521-1.261-.928-2.217-1.319-3.1l.618-.273c.393.888.8,1.849,1.326,3.115ZM437.71,552.416l-.443-.51c.848-.736,1.733-1.459,2.63-2.148l.411.536C439.422,550.974,438.548,551.688,437.71,552.416Zm5.319-4.087-.379-.559c.93-.631,1.893-1.244,2.864-1.824l.346.58C444.9,547.1,443.948,547.705,443.029,548.329ZM624.8,548.31c-.524-1.01-1.082-1.99-1.657-2.912l.573-.357c.584.937,1.151,1.932,1.683,2.958Zm-90.4-.495h-.023v-.675h.023c1.131,0,2.251-.036,3.33-.106l.044.674C536.686,547.779,535.551,547.815,534.405,547.815Zm-3.417-.1c-1.091-.062-2.229-.155-3.381-.276l.07-.672c1.142.12,2.269.212,3.349.273Zm10.174-.35-.093-.669c1.117-.156,2.225-.356,3.3-.594l.147.659C543.424,547,542.3,547.207,541.163,547.365Zm-16.92-.349c-1.071-.156-2.2-.339-3.344-.543l.119-.665c1.141.2,2.259.385,3.323.54Zm23.557-1.14-.2-.644c.723-.229,1.446-.483,2.149-.754q.5-.194,1-.4l.255.626q-.5.2-1.009.4C549.272,545.385,548.536,545.643,547.8,545.876Zm-30.228-.042c-1.058-.217-2.141-.45-3.31-.712l.148-.659c1.165.262,2.243.494,3.3.709Zm82.7-.86a5.018,5.018,0,0,1-1.008-.1l.136-.662a4.378,4.378,0,0,0,1.882-.029,4.821,4.821,0,0,0,1.163-.435l.317.6a5.494,5.494,0,0,1-1.326.5A5.106,5.106,0,0,1,600.277,544.974Zm-151.487-.085-.312-.6c1-.52,2.024-1.02,3.053-1.484l.278.616C450.791,543.881,449.775,544.375,448.79,544.889Zm62.177-.531c-.968-.231-2.012-.484-3.286-.8l.161-.656c1.272.312,2.314.565,3.281.8Zm43.138-1.012-.286-.612c.973-.456,1.96-.943,3.015-1.49l.311.6C556.081,542.4,555.087,542.886,554.105,543.346Zm42.118-.261a6.354,6.354,0,0,1-1.571-3.153l.665-.115a5.672,5.672,0,0,0,1.4,2.813Zm-91.823-.333q-1.64-.405-3.279-.8l.159-.656q1.64.4,3.282.806Zm116.851-.112a31.25,31.25,0,0,0-2.154-2.552l.491-.464a31.9,31.9,0,0,1,2.2,2.607ZM454.9,542.127l-.243-.63c1.051-.405,2.128-.786,3.2-1.132l.207.643C457.009,541.349,455.944,541.726,454.9,542.127Zm150.328-.3-.6-.318a6.22,6.22,0,0,0,.725-2.6q.009-.183.009-.364c0-.04,0-.079,0-.119l.675-.011q0,.065,0,.13,0,.2-.01.4A6.9,6.9,0,0,1,605.233,541.825Zm-107.393-.659c-1.176-.273-2.251-.515-3.289-.739l.143-.66c1.041.225,2.121.468,3.3.742Zm62.288-.923-.327-.591c.875-.485,1.807-1.012,2.934-1.66l.337.585C561.941,539.226,561.006,539.755,560.128,540.242Zm-98.836-.176-.171-.653c1.09-.286,2.2-.544,3.306-.768l.134.662C463.47,539.529,462.37,539.784,461.292,540.066Zm29.959-.317c-1.141-.22-2.256-.42-3.315-.592l.109-.666c1.065.174,2.187.374,3.334.6Zm-23.383-1.017-.1-.669c1.116-.162,2.25-.294,3.372-.393l.059.673C470.093,538.441,468.972,538.572,467.868,538.732Zm16.738-.059c-1.141-.144-2.266-.262-3.344-.35l.055-.673c1.088.088,2.223.207,3.374.352Zm-10.053-.53-.021-.675q.407-.013.814-.02,1.276-.023,2.582.015l-.019.675q-1.292-.037-2.55-.015Q474.955,538.131,474.553,538.143Zm142.114-.334a22.816,22.816,0,0,0-2.712-1.923l.349-.579a23.47,23.47,0,0,1,2.792,1.98ZM566,536.885l-.339-.584c.934-.541,1.935-1.119,2.93-1.684l.333.587C567.928,535.767,566.928,536.345,566,536.885Zm29.9-.065-.569-.364a7.528,7.528,0,0,1,2.552-2.4l.344.581A6.858,6.858,0,0,0,595.893,536.82Zm8.742-1.522a9.878,9.878,0,0,0-1.376-2.15,14.014,14.014,0,0,0-2,.31l-.153-.658a14.576,14.576,0,0,1,1.806-.3l.37-.347q.137.146.268.295.485-.029.979-.03h0l0,.675h0q-.224,0-.446.006a10.335,10.335,0,0,1,1.162,1.912Zm6.35-.888a19.557,19.557,0,0,0-3.172-.96l.14-.661a20.246,20.246,0,0,1,3.282.994Zm-39.118-.841-.321-.594q.7-.378,1.408-.748c.543-.283,1.081-.556,1.6-.812l.3.606c-.515.253-1.048.524-1.587.805Q572.564,533.192,571.868,533.568Zm6.037-2.951-.264-.622c1.084-.46,2.152-.869,3.176-1.217l.217.64C580.026,529.761,578.973,530.165,577.9,530.618Zm22.355-.1a16.8,16.8,0,0,0-2.934-1.523l.252-.627a17.486,17.486,0,0,1,3.053,1.584Zm-16.013-2.028-.156-.657a29.677,29.677,0,0,1,3.36-.6l.08.671A29.079,29.079,0,0,0,584.246,528.487Zm9.9-.434a16.76,16.76,0,0,0-1.71-.244c-.522-.047-1.056-.075-1.587-.085l.012-.675c.548.01,1.1.039,1.636.087a17.432,17.432,0,0,1,1.779.254Z" transform="translate(-340.557 -527.049)" fill="#52bbd0"/>
    </g>
    <g id="Grupo_1002638" data-name="Grupo 1002638" transform="translate(346.786 418.345)">
      <path id="Trazado_711990" data-name="Trazado 711990" d="M799.326,823.815c-3.792,1.531-7.671,3.114-10.7,5.859-8.844,8.008-9.76,20.773-6.759,31.617.433,1.566.936,3.114,1.318,4.694,1.367,5.652,1.151,11.55.928,17.36" transform="translate(-735.787 -790.59)" fill="none" stroke="#6f4d38" stroke-miterlimit="10" stroke-width="4"/>
      <g id="Grupo_1002619" data-name="Grupo 1002619" transform="translate(0 207.642)">
        <path id="Trazado_711991" data-name="Trazado 711991" d="M523.991,1866.164c-1.021,1.769-2.235,3.461-3.372,5.15-2.341,3.479-4.509,7.492-3.925,11.645a9.232,9.232,0,0,0,1.162,2.677,8.776,8.776,0,0,1,.276,2.547,3.809,3.809,0,0,0,1.255,2.442,2,2,0,0,0,.6.344,3.1,3.1,0,0,0,1.766-.1c-.61,1.046-1.8,2.956-1.268,4.223.354.851,2.687,1.911,3.491,1.183a4.926,4.926,0,0,0-1.534,2.781,2.345,2.345,0,0,0,.966,2.576c1.073.507,3.508-.092,4.383-.773a11.032,11.032,0,0,0,1.561-1.582,101.236,101.236,0,0,0,8.018-10.734c1.44-2.22,3.229-4.848,3.18-7.582-.048-2.663-1.1-5.185-1.444-7.807a15.063,15.063,0,0,1,.2-5.105c.5-2.323,1.4-4.565-.289-6.589a13.367,13.367,0,0,0-7.764-4.515c-3.037-.564-4.505.051-4.99,3.253A17.1,17.1,0,0,1,523.991,1866.164Z" transform="translate(-516.598 -1856.759)" fill="#f9ae8f"/>
        <path id="Trazado_711992" data-name="Trazado 711992" d="M559.538,2031.509c.773-.933,1.37-1.962,2.133-2.925a8.663,8.663,0,0,1,.606-.7l.312-.32c.1-.1.188-.212.276-.324a9.238,9.238,0,0,0,.934-1.466c.285-.517.555-1.059.838-1.589s.568-1.061.869-1.583c.59-1.05,1.2-2.09,1.873-3.1-.421,1.136-.9,2.242-1.4,3.337-.245.551-.513,1.09-.769,1.635s-.529,1.078-.815,1.621a9.153,9.153,0,0,1-1.038,1.552c-.1.119-.215.234-.328.346l-.336.31c-.21.2-.42.406-.622.622A21.152,21.152,0,0,1,559.538,2031.509Z" transform="translate(-552.287 -1992.023)" fill="#f58f70"/>
        <path id="Trazado_711993" data-name="Trazado 711993" d="M548.192,2003.614c.263-.976.583-1.926.92-2.869s.693-1.878,1.066-2.806.763-1.849,1.179-2.76.842-1.819,1.331-2.7c-.226.985-.52,1.946-.84,2.9s-.668,1.891-1.043,2.82-.774,1.849-1.207,2.754S548.712,2002.747,548.192,2003.614Z" transform="translate(-542.857 -1969.559)" fill="#f58f70"/>
        <path id="Trazado_711994" data-name="Trazado 711994" d="M525.589,1996.189a16.4,16.4,0,0,1,.583-1.888q.339-.921.738-1.813t.853-1.762a16.155,16.155,0,0,1,1.014-1.7,13.919,13.919,0,0,1-.527,1.907q-.322.929-.723,1.825t-.874,1.758A14.109,14.109,0,0,1,525.589,1996.189Z" transform="translate(-524.071 -1966.696)" fill="#f58f70"/>
      </g>
      <path id="Trazado_711995" data-name="Trazado 711995" d="M797.28,831.615q-.16.245-.3.471a30.256,30.256,0,0,0-4.61,14.872c-.211,5.676.893,11.38,1.189,17.04a73.817,73.817,0,0,1-2.024,21.421c6.347-2.193,13.075-4.654,17.118-10.015,3.349-4.441,4.323-10.246,4.366-15.809s-.736-11.121-.435-16.675a42.967,42.967,0,0,1,2.128-11.209,12.125,12.125,0,0,0,.9-3.944,6.541,6.541,0,0,0-3.829-5.512C806.4,819.653,799.992,827.463,797.28,831.615Z" transform="translate(-745.11 -788.862)" fill="#6f4d38"/>
      <g id="Grupo_1002620" data-name="Grupo 1002620" transform="translate(60.425)">
        <path id="Trazado_711996" data-name="Trazado 711996" d="M910.179,627.117a49.21,49.21,0,0,0-19.932,3.147,25.242,25.242,0,0,0-13.018,11.076c-3.22,5.787-3.1,12.379-2.306,18.775,1.894,15.216,9.669,30.746,23.25,36.94a27.815,27.815,0,0,0,11.577,2.319c9.3.065,16.246-8.766,19.918-16.856A65.1,65.1,0,0,0,935,655.293c-.052-4.947-.289-10.916-2.484-15.458C928.384,631.28,919.542,627.659,910.179,627.117Z" transform="translate(-874.45 -627.046)" fill="#755946"/>
      </g>
      <path id="Trazado_711997" data-name="Trazado 711997" d="M1509.952,1063.5a26.968,26.968,0,0,0,2.539-6.487,3.326,3.326,0,0,1,.4-.921,3.437,3.437,0,0,1,.545-.567c2.733-2.439,4.649-5.891,7.159-8.595,1.108-1.194,2.023-2.526,3.152-3.672,1.673-1.7,3.142-3.373,3.672-5.782a3.631,3.631,0,0,0-.48-2.928.917.917,0,0,1-.242-.472.745.745,0,0,1,.081-.319c.847-1.981,1.169-4.119-.463-5.844.675-1.418,1.172-2.6.15-4.056-1.661-2.365-4.088-1.884-6.409-1.207a27.875,27.875,0,0,0-13.31,8.579c-.63.738-1.222,1.51-1.911,2.192-1.129,1.116-2.524,1.782-3.539,3.021a12.206,12.206,0,0,0-2.137,4.186,58.2,58.2,0,0,0-1.343,7.165,89.253,89.253,0,0,1-2.719,10.554" transform="translate(-1329.878 -955.393)" fill="#f8ab8a"/>
      <g id="Grupo_1002621" data-name="Grupo 1002621" transform="translate(2.899 82.604)">
        <path id="Trazado_711998" data-name="Trazado 711998" d="M539.043,1208.727a376.369,376.369,0,0,0-5.278,41.266c.041-.547,24.485,6.3,24.826,6.088.255-.158,3.633-20.792,5.8-30.648,6.592-29.919,13.416-58.622,26.968-86.281,2.626-5.36,9.4-17.111,5.52-22.9-4.163,0-12.5,3.149-17.417,5.854-8.413,4.629-13.079,12.959-17.675,21.03-6.039,10.6-11.492,21.63-14.993,33.356A314.12,314.12,0,0,0,539.043,1208.727Z" transform="translate(-533.765 -1116.251)" fill="#fff"/>
      </g>
      <g id="Grupo_1002622" data-name="Grupo 1002622" transform="translate(70.474 55.473)">
        <path id="Trazado_711999" data-name="Trazado 711999" d="M962.45,995.892c-4.869,5.536-14.229,5.976-20.78,3.711-4.459-1.542-7.611-5.058-7.7-9.891-.1-5.4,4.634-9.243,5.832-14.279a33.875,33.875,0,0,0,.542-8.7c-.082-3.39-.106-6.79-.27-10.175a36,36,0,0,1,9.641-.918c2.949.122,5.894-.186,8.842-.013a1.04,1.04,0,0,1,.662.2.95.95,0,0,1,.219.636c.4,4.578.007,9.214.317,13.8.285,4.215,1.229,8.458,3.7,11.949A11.148,11.148,0,0,1,962.45,995.892Z" transform="translate(-933.964 -955.571)" fill="#f8ab8a"/>
      </g>
      <g id="Grupo_1002624" data-name="Grupo 1002624" transform="translate(107.238 83.656)">
        <path id="Trazado_712000" data-name="Trazado 712000" d="M1154.3,1122.482c7.59,2.548,12.885,4.908,16.992,8.728,5.148,4.788,9.13,12.351,12.085,18.594,2.534,5.354,5.385,10.768,8.072,16.271q1.087-2.2,2.192-4.39,3.97-7.873,8.283-15.567c2.505-4.45,8.523-14.762,8.977-14.846.575-.107,4.482,1.739,5.261,2.105a78.023,78.023,0,0,1,12.277,7.2,5.5,5.5,0,0,1,1.65,1.592c.628,1.081.077,2.011-.345,3.028-3.932,9.457-7.488,19.067-11.453,28.513-3.794,9.037-7.391,18.951-13.08,27.016-4.2,5.96-9.4,11.228-17.273,10.637a6.678,6.678,0,0,1-1.06-.168l-.08-.019-.057-.014c-.081-.02-.16-.043-.238-.067l-.124-.039h0q-.3-.1-.6-.221a22.1,22.1,0,0,1-10.476-8.667c-10.618-16.4-16.985-37.284-21.018-56.259C1153.043,1140.069,1149.122,1127.152,1154.3,1122.482Z" transform="translate(-1151.691 -1122.482)" fill="#fff"/>
        <g id="Grupo_1002623" data-name="Grupo 1002623" clip-path="url(#clip-path)">
          <path id="Trazado_712001" data-name="Trazado 712001" d="M1308.593,1467.2c-10.975,9.1-19.571,3.208-25.235-3.377s-9.042-15.534-9.042-15.534l2.533,33.81s4.39,9.923,18.912,7.728,18.912-27.637,18.912-27.637Z" transform="translate(-1253.61 -1393.275)" fill="#e7f2f6"/>
        </g>
      </g>
      <g id="Grupo_1002625" data-name="Grupo 1002625" transform="translate(76.502 55.435)">
        <path id="Trazado_712003" data-name="Trazado 712003" d="M969.662,974.567a36.566,36.566,0,0,0,.41-8.06c-.082-3.39-.106-6.79-.27-10.175a35.989,35.989,0,0,1,9.641-.918c2.949.122,5.894-.186,8.841-.013a1.041,1.041,0,0,1,.662.2.952.952,0,0,1,.219.636c.4,4.578.007,9.214.317,13.8a33.607,33.607,0,0,0,.5,3.923c-.463.405-.934.794-1.419,1.152a15.109,15.109,0,0,1-12.9,2.35A19.481,19.481,0,0,1,969.662,974.567Z" transform="translate(-969.662 -955.346)" fill="#f58f70"/>
      </g>
      <g id="Grupo_1002628" data-name="Grupo 1002628" transform="translate(30.695 78.23)">
        <path id="Trazado_712004" data-name="Trazado 712004" d="M702.618,1204.241c3.817-38.252,7.585-60.625,11.734-87.452.829-5.359,2.445-11.111,4.7-13.855,3.513-4.267,8.6-6.121,13.61-7.992a64.469,64.469,0,0,1,19.129-4.4q1-.052,2-.054h0v-.136l.065.136h.042l.065-.136v.136h.057v-.136l.065.136h.042l.065-.136v.136h0q1,0,2,.054a64.467,64.467,0,0,1,19.129,4.4c5.006,1.871,10.1,3.725,13.61,7.992,2.259,2.744,3.875,8.5,4.7,13.855,4.149,26.827,7.917,49.2,11.734,87.452,2.307,23.122,5.1,56.744,3.985,58.338-2.126,3.05-26.607,3.758-29.9,4.068-5.4.508-10.829.545-16.251.581q-4.6.031-9.213,0-4.612.034-9.213,0c-5.422-.036-10.852-.073-16.251-.581-3.29-.31-27.771-1.018-29.9-4.068C697.522,1260.986,700.311,1227.363,702.618,1204.241Z" transform="translate(-698.381 -1090.348)" fill="#fff"/>
        <g id="Grupo_1002627" data-name="Grupo 1002627" clip-path="url(#clip-path-2)">
          <g id="Grupo_1002626" data-name="Grupo 1002626" transform="translate(32.601 -32.71)">
            <path id="Trazado_712005" data-name="Trazado 712005" d="M902.449,1063.726l21.2-8.444v-.29l21.505,8.567-14.364,65.353Z" transform="translate(-900.592 -1028.252)" fill="#72c7db"/>
            <ellipse id="Elipse_8345" data-name="Elipse 8345" cx="18.632" cy="23.269" rx="18.632" ry="23.269" transform="translate(0 8.036) rotate(-12.453)" fill="#55adbc"/>
            <ellipse id="Elipse_8346" data-name="Elipse 8346" cx="15.527" cy="19.391" rx="15.527" ry="19.391" transform="matrix(0.976, -0.216, 0.216, 0.976, 3.869, 11.153)" fill="#f8ab8a"/>
          </g>
        </g>
      </g>
      <path id="Trazado_712007" data-name="Trazado 712007" d="M736.188,1745.27l19.792-3.54s-2.59,36.222-13.281,34.854S736.188,1745.27,736.188,1745.27Z" transform="translate(-698.441 -1553.511)" fill="#e7f2f6"/>
      <path id="Trazado_712008" data-name="Trazado 712008" d="M1219.633,1745.27l-19.792-3.54s2.59,36.222,13.281,34.854S1219.633,1745.27,1219.633,1745.27Z" transform="translate(-1084.473 -1553.511)" fill="#e7f2f6"/>
      <path id="Trazado_712009" data-name="Trazado 712009" d="M1170.679,853.064c6.273-3.664,8.484,5.1,7.512,9.524a14.016,14.016,0,0,1-2.151,5.139,8.779,8.779,0,0,1-6.79,3.932.316.316,0,0,1-.232-.049.305.305,0,0,1-.076-.187c-.377-2.415,1.026-4.833.705-7.256a5.222,5.222,0,0,0-1.588-3.093C1165.625,858.786,1168.254,854.481,1170.679,853.064Z" transform="translate(-1057.252 -814.174)" fill="#f58f70"/>
      <g id="Grupo_1002631" data-name="Grupo 1002631" transform="translate(68.613 8.55)">
        <path id="Trazado_712010" data-name="Trazado 712010" d="M922.954,707.357a44.744,44.744,0,0,1,1.582-13.423c4.954-16.756,25.549-21.443,38.358-9.878,14.284,12.9,9.859,44.825-4.475,56.4a16.443,16.443,0,0,1-13.919,3.153C930,740.158,923.294,722.621,922.954,707.357Z" transform="translate(-922.94 -677.682)" fill="#f9ae8f"/>
        <g id="Grupo_1002630" data-name="Grupo 1002630" clip-path="url(#clip-path-3)">
          <path id="Trazado_712011" data-name="Trazado 712011" d="M912.436,694.1a23.712,23.712,0,0,1,9.928-13.33,24.837,24.837,0,0,1,15.563-3.67,24.093,24.093,0,0,1,11.367,4.048c2.771,1.912,5.172,4.359,7.951,6.295,1.779,1.239,3.411,2.413,3.5,4.719q.339,9.171.188,18.351c0-1.029-1.5-2.962-1.977-3.9q-.959-1.893-1.852-3.807a14.034,14.034,0,0,0-4.909-5.7c-2.167-1.391-4.648-2.438-6.23-4.566a47.208,47.208,0,0,1-12.483,7.012c-4.477,1.681-10.841,2.333-14.356,5.828-2.457,2.443-2.734,6.211-4.38,9.143-.611,1.089-1.823,1.96-2.68.6-1.152-1.825-1.247-4.791-1.294-6.895A47.1,47.1,0,0,1,912.436,694.1Z" transform="translate(-912.813 -677.106)" fill="#f58f70"/>
          <g id="Grupo_1002629" data-name="Grupo 1002629" transform="translate(4.727 22.946)">
            <path id="Trazado_712012" data-name="Trazado 712012" d="M968.257,822.67a1.63,1.63,0,0,1-1.124-.446c-.846-1.034.427-2.509,1.262-3.072,1.583-1.068,6.936-2.774,8.383-.7,1.349,1.932-1.391,2.9-2.821,3.287A20.089,20.089,0,0,1,968.257,822.67Z" transform="translate(-964.167 -816.814)" fill="#6f4d38"/>
            <path id="Trazado_712013" data-name="Trazado 712013" d="M1138.4,818.438a1.629,1.629,0,0,0,1.1-.509c.787-1.08-.568-2.481-1.433-3-1.641-.977-7.082-2.378-8.41-.228-1.238,2,1.553,2.816,3,3.123A20.1,20.1,0,0,0,1138.4,818.438Z" transform="translate(-1099.223 -813.574)" fill="#6f4d38"/>
            <path id="Trazado_712014" data-name="Trazado 712014" d="M998.745,864.726c.273,2.044,1.5,3.566,2.746,3.4s2.031-1.958,1.758-4-1.5-3.566-2.746-3.4S998.472,862.683,998.745,864.726Z" transform="translate(-990.627 -852.753)" fill="#061f33"/>
            <path id="Trazado_712015" data-name="Trazado 712015" d="M1134.552,860.559c.058,2.061,1.122,3.7,2.377,3.668s2.224-1.735,2.166-3.8-1.122-3.7-2.376-3.668S1134.493,858.5,1134.552,860.559Z" transform="translate(-1103.546 -849.47)" fill="#061f33"/>
            <ellipse id="Elipse_8347" data-name="Elipse 8347" cx="3.882" cy="1.792" rx="3.882" ry="1.792" transform="translate(18.725 20.119) rotate(-1.619)" fill="#f58f70"/>
            <path id="Trazado_712018" data-name="Trazado 712018" d="M1037.338,971.226a6.139,6.139,0,0,1-1.877,1.332,10.077,10.077,0,0,1-2.209.733,15.3,15.3,0,0,1-4.62.224,16.862,16.862,0,0,1-4.492-1.055,11.942,11.942,0,0,1-2.068-1.041c-.161-.109-.325-.209-.478-.329a6.649,6.649,0,0,1-1.249-1.189,11.153,11.153,0,0,0,1.992,1,18.752,18.752,0,0,0,2.093.675,27.807,27.807,0,0,0,4.314.761,23.137,23.137,0,0,0,4.365.037,14.022,14.022,0,0,0,2.153-.36A9.1,9.1,0,0,0,1037.338,971.226Z" transform="translate(-1008.625 -943.505)" fill="#f9604b"/>
          </g>
        </g>
      </g>
      <path id="Trazado_712020" data-name="Trazado 712020" d="M898.4,860.992c-6.47-3.3-8.182,5.574-6.962,9.933a14.019,14.019,0,0,0,2.438,5.009,8.779,8.779,0,0,0,7,3.542.316.316,0,0,0,.229-.062.306.306,0,0,0,.066-.191c.24-2.433-1.19-4.492-1.006-6.93.089-1.179.465-3.161,1.28-4.017C903.743,865.856,900.9,862.27,898.4,860.992Z" transform="translate(-827.838 -820.89)" fill="#f9ae8f"/>
      <path id="Trazado_712021" data-name="Trazado 712021" d="M1571.344,1056.625c-2.045,6.015,2.074,11.89,5.888,16.148,1.084,1.211,2.475,3.038,4.02,1.237,1.985-2.315.486-4.977,1.1-7.6.23-.984.556-1.953.74-2.96a23.746,23.746,0,0,0,.34-8.667,7.933,7.933,0,0,0-.632-2.271,4.916,4.916,0,0,0-4.155-2.551C1574.823,1049.795,1572.432,1053.421,1571.344,1056.625Z" transform="translate(-1392.794 -978.546)" fill="#f58f70"/>
      <g id="Grupo_1002636" data-name="Grupo 1002636" transform="translate(179.499 55.951)">
        <rect id="Rectángulo_346616" data-name="Rectángulo 346616" width="9.364" height="20.134" transform="translate(11.098 22.001) rotate(180)" fill="#fff"/>
        <g id="Grupo_1002634" data-name="Grupo 1002634" transform="translate(1.734 12.281)">
          <path id="Rectángulo_346617" data-name="Rectángulo 346617" d="M4.682,0h0A4.682,4.682,0,0,1,9.364,4.682V41.1a0,0,0,0,1,0,0H0a0,0,0,0,1,0,0V4.682A4.682,4.682,0,0,1,4.682,0Z" transform="translate(9.364 41.096) rotate(180)" fill="#3076b6"/>
          <g id="Grupo_1002633" data-name="Grupo 1002633" transform="translate(0 0)" clip-path="url(#clip-path-4)">
            <g id="Grupo_1002632" data-name="Grupo 1002632" transform="translate(-0.394 2.009)">
              <circle id="Elipse_8348" data-name="Elipse 8348" cx="1.61" cy="1.61" r="1.61" transform="translate(5.277 21.589) rotate(-53.5)" fill="#3076b6" style="mix-blend-mode: multiply;isolation: isolate"/>
              <circle id="Elipse_8349" data-name="Elipse 8349" cx="1.61" cy="1.61" r="1.61" transform="translate(7.529 9.282)" fill="#3076b6" style="mix-blend-mode: multiply;isolation: isolate"/>
              <circle id="Elipse_8350" data-name="Elipse 8350" cx="1.61" cy="1.61" r="1.61" transform="translate(0 4.798)" fill="#3076b6" style="mix-blend-mode: multiply;isolation: isolate"/>
              <circle id="Elipse_8351" data-name="Elipse 8351" cx="1.61" cy="1.61" r="1.61" transform="translate(0.674 27.474) rotate(-13.338)" fill="#3076b6" style="mix-blend-mode: multiply;isolation: isolate"/>
              <path id="Trazado_712022" data-name="Trazado 712022" d="M1603.042,1121.259a1,1,0,1,0,1-1A1,1,0,0,0,1603.042,1121.259Z" transform="translate(-1600.43 -1107.218)" fill="#3076b6" style="mix-blend-mode: multiply;isolation: isolate"/>
              <path id="Trazado_712023" data-name="Trazado 712023" d="M1617.637,1044.036a1,1,0,1,0,1-1A1,1,0,0,0,1617.637,1044.036Z" transform="translate(-1612.561 -1043.034)" fill="#3076b6" style="mix-blend-mode: multiply;isolation: isolate"/>
              <path id="Trazado_712024" data-name="Trazado 712024" d="M1620.29,1247.083a1,1,0,1,0,1-1A1,1,0,0,0,1620.29,1247.083Z" transform="translate(-1614.766 -1211.796)" fill="#3076b6" style="mix-blend-mode: multiply;isolation: isolate"/>
            </g>
          </g>
        </g>
        <path id="Trazado_712025" data-name="Trazado 712025" d="M1581.648,962.421h8.817a2.008,2.008,0,0,0,2.008-2.008h0a2.008,2.008,0,0,0-2.008-2.008h-8.817a2.008,2.008,0,0,0-2.008,2.008h0A2.008,2.008,0,0,0,1581.648,962.421Z" transform="translate(-1579.64 -958.405)" fill="#fff"/>
        <g id="Grupo_1002635" data-name="Grupo 1002635" transform="translate(8.024 4.895)" opacity="0.5">
          <path id="Trazado_712026" data-name="Trazado 712026" d="M1627.16,988.21v33.73a.845.845,0,0,0,1.689,0V988.21a.845.845,0,0,0-1.689,0Z" transform="translate(-1627.16 -987.394)" fill="#fff"/>
        </g>
      </g>
      <path id="Trazado_712027" data-name="Trazado 712027" d="M1514.17,1036.63c.6-7.107.953-10.578,3.673-13.434a21.523,21.523,0,0,1,3.1-2.5,44.924,44.924,0,0,0,7.474-6.485,4.239,4.239,0,0,1,2.145-1.61c2.746-.533,1.8,4.375,1.177,5.614-1.675,3.352-5.356,5.48-5.689,9.557a23.11,23.11,0,0,0,.208,3.255,19.82,19.82,0,0,1-.818,5.984,59.7,59.7,0,0,1-2.306,8.09" transform="translate(-1345.726 -947.461)" fill="#f8ab8a"/>
      <path id="Trazado_712028" data-name="Trazado 712028" d="M1638.628,996.9a2.56,2.56,0,0,0,.98,1.906,1.808,1.808,0,0,0,.746.23,3.106,3.106,0,0,0,2.875-1.713,4.62,4.62,0,0,0-2.614-5.848,1.511,1.511,0,0,0-1.227-.022,2.132,2.132,0,0,0-.87,1.928A17.715,17.715,0,0,0,1638.628,996.9Z" transform="translate(-1449.047 -929.818)" fill="#f8ab8a"/>
      <path id="Trazado_712029" data-name="Trazado 712029" d="M1109.525,1139.471q-.58,3.459-1.2,6.91t-1.254,6.9c-.419,2.3-.863,4.594-1.293,6.891l-1.327,6.884-.062.32-.331.052q-1.864.292-3.731.566l-3.732.556.134-.952q1.576.706,3.147,1.423l3.143,1.433.426.194-.171.434c-1.043,2.648-2.108,5.287-3.169,7.928s-2.136,5.276-3.208,7.913l-1.623,3.949-1.635,3.944q-1.641,3.942-3.327,7.866,1.436-4.023,2.925-8.024l1.491-4,1.5-4c1.013-2.66,2.016-5.324,3.044-7.977s2.042-5.313,3.083-7.962l.255.629-3.151-1.415q-1.577-.7-3.147-1.425l-1.554-.711,1.688-.242,3.735-.535q1.867-.27,3.737-.525l-.393.372,1.439-6.862c.492-2.285.97-4.572,1.473-6.855s1-4.567,1.512-6.847S1108.99,1141.747,1109.525,1139.471Z" transform="translate(-993.441 -1052.946)" fill="#e7f2f6"/>
      <path id="Trazado_712030" data-name="Trazado 712030" d="M845.316,1153.145q1.528,3.266,3.022,6.546t2.969,6.568c.989,2.19,1.955,4.39,2.933,6.584l2.9,6.6-.46-.283q2.014-.141,4.03-.264l4.031-.254,1.774-.112-1.457,1.023q-1.5,1.056-3.015,2.1l-3.021,2.092.119-.691c1.835,2.559,3.651,5.133,5.471,7.7s3.626,5.151,5.437,7.728l2.7,3.876,2.691,3.884q2.686,3.888,5.332,7.8-2.865-3.759-5.684-7.551l-2.817-3.793-2.807-3.8c-1.861-2.541-3.732-5.075-5.579-7.626s-3.709-5.092-5.545-7.65l-.29-.4.409-.287,3.009-2.108q1.5-1.057,3.016-2.1l.317.911-4.032.233q-2.016.119-4.033.222l-.333.017-.126-.3-2.8-6.643c-.921-2.219-1.854-4.433-2.764-6.657s-1.828-4.444-2.728-6.672S846.2,1155.382,845.316,1153.145Z" transform="translate(-789.811 -1064.311)" fill="#e7f2f6"/>
      <g id="Grupo_1002637" data-name="Grupo 1002637" transform="translate(64.655 5.068)">
        <path id="Trazado_712031" data-name="Trazado 712031" d="M906.436,662.306c4.187-2.22,9.463-3.017,13.727-3.825,5.506-1.042,11.293-2.117,16.854-.835a21.692,21.692,0,0,1,12.294,8.114c3.046,4.059,4.121,8.291,4.271,13.276.182,6.039-.1,12.272-2.505,17.9,0-2.194-.879-4.505-1.391-6.6-.788-3.222-1.679-7.887-4.065-10.349-1.554-1.6-3.193-3.066-4.622-4.8-.408-.495-3.9-4.6-3.588-5.045-2.183,3.119-6.3,5.21-9.56,7.017a65.653,65.653,0,0,1-11.384,4.975,36.648,36.648,0,0,0-5.792,2.164c-2.263,1.2-4.086,2.937-4.347,5.5-.34,3.34-1.789,9.986-1.789,9.986s-3.078-10.563-3.565-12.7C899.078,678.763,897.488,667.05,906.436,662.306Z" transform="translate(-899.501 -657.061)" fill="#755946"/>
      </g>
      <path id="Trazado_712032" data-name="Trazado 712032" d="M982.1,830.468l-.666,13.564a2.2,2.2,0,0,1-1.937,2.073l-13.819,1.622a2.194,2.194,0,0,1-2.38-1.628c-.647-2.491-2.048-6.608-4.244-6.654-2.285-.048-3.891,4.627-4.6,7.2a2.192,2.192,0,0,1-2.165,1.605l-15.1-.348a2.195,2.195,0,0,1-2.125-1.907L933.3,832.641Z" transform="translate(-862.935 -796.119)" fill="#c8eff5" opacity="0.3"/>
      <path id="Trazado_712033" data-name="Trazado 712033" d="M1050.121,875.843a3.317,3.317,0,0,1-1.8-.159,2.886,2.886,0,0,1-1.453-1.2,2.77,2.77,0,0,1-.207-.449l-.152-.416q-.155-.415-.322-.825c-.224-.545-.451-1.087-.707-1.613a13.246,13.246,0,0,0-1.821-2.916,4.9,4.9,0,0,0-1.222-1.051,2.435,2.435,0,0,0-1.422-.344,2.536,2.536,0,0,0-.71.171,3.726,3.726,0,0,0-.672.382,6.3,6.3,0,0,0-1.175,1.154,16.246,16.246,0,0,0-1.812,2.951c-.262.525-.5,1.064-.734,1.6-.117.271-.231.543-.341.818l-.163.413-.079.207-.04.1-.049.114a2.74,2.74,0,0,1-1.322,1.347,3.265,3.265,0,0,1-1.783.307,3.437,3.437,0,0,0,1.643-.55,2.412,2.412,0,0,0,1-1.278l.247-.854q.128-.433.27-.862c.188-.573.4-1.137.636-1.7a16.723,16.723,0,0,1,.784-1.649,12.57,12.57,0,0,1,.993-1.565,6.93,6.93,0,0,1,1.34-1.37,4.647,4.647,0,0,1,.876-.5,3.494,3.494,0,0,1,1.019-.25,3.44,3.44,0,0,1,2,.5,5.517,5.517,0,0,1,1.457,1.289,12.594,12.594,0,0,1,1.81,3.215c.225.564.435,1.132.609,1.71q.133.433.251.869l.116.436.058.192c.019.063.05.122.073.185a2.573,2.573,0,0,0,1.131,1.176,3.065,3.065,0,0,0,.807.309A3.74,3.74,0,0,0,1050.121,875.843Z" transform="translate(-945.084 -825.53)" fill="#fff"/>
      <path id="Trazado_712034" data-name="Trazado 712034" d="M933.3,832.641l48.8-2.173-.217,4.419-5.516-2.157L939.436,834.1l-5.474,3.586Z" transform="translate(-862.935 -796.119)" fill="#52bbd0"/>
      <path id="Trazado_712035" data-name="Trazado 712035" d="M1250.462,1196.239c.513,1.433.981,2.887,1.372,4.36.1.368.207.734.3,1.1l.278,1.109c.19.739.364,1.481.536,2.223.681,2.972,1.287,5.96,1.841,8.956s1.052,6,1.542,9.009.913,6.024,1.346,9.038q.617,4.527,1.193,9.058c.364,3.024.735,6.046,1.058,9.074.665,6.054,1.256,12.116,1.7,18.192-.859-6.031-1.669-12.063-2.481-18.1l-1.225-9.046c-.408-3.015-.817-6.03-1.244-9.042s-.847-6.025-1.289-9.034-.905-6.015-1.372-9.02c-.487-3-.984-6-1.549-8.989-.138-.747-.277-1.495-.433-2.239l-.227-1.117-.243-1.114-.245-1.114-.271-1.108-.133-.555c-.046-.184-.1-.367-.149-.55Z" transform="translate(-1126.546 -1100.128)" fill="#e7f2f6"/>
      <path id="Trazado_712036" data-name="Trazado 712036" d="M1070.28,1492.768c.235,4.535.393,9.073.579,13.609l.23,6.806.2,6.807q.1,3.4.183,6.807l.166,6.808.276,13.616.211,13.618c.049,4.539.116,9.079.144,13.618s.061,9.079.073,13.62l-.007,6.81,0,3.405-.025,3.405-.129-3.4-.111-3.4-.222-6.807q-.2-6.807-.367-13.615-.089-3.4-.161-6.807l-.151-6.807-.264-13.616-.22-13.617-.179-13.617-.139-13.618-.045-6.81-.029-3.4Z" transform="translate(-976.789 -1346.587)" fill="#e7f2f6"/>
      <circle id="Elipse_8352" data-name="Elipse 8352" cx="2.364" cy="2.364" r="2.364" transform="translate(84.379 171.597)" fill="#e7f2f6"/>
      <circle id="Elipse_8353" data-name="Elipse 8353" cx="2.364" cy="2.364" r="2.364" transform="translate(84.988 200.646)" fill="#e7f2f6"/>
      <path id="Trazado_712037" data-name="Trazado 712037" d="M1162.305,850.675c.862-.112,1.724-.178,2.587-.247l.647-.045a2.935,2.935,0,0,1,.71.012,2.467,2.467,0,0,1,.713.223l.584.3c.381.2.762.4,1.141.611l.284.154.142.077.071.039.084.05a2.635,2.635,0,0,1,1.247,1.92,2.3,2.3,0,0,1,.021.4l0,.1,0,.081-.009.161-.037.646c-.055.86-.116,1.72-.187,2.58-.037.43-.072.859-.114,1.289l-.031.322-.016.165a1.6,1.6,0,0,1-.037.217,1.586,1.586,0,0,1-.422.751,1.536,1.536,0,0,1-.74.411c-.034.01-.069.014-.1.02l-.052.009-.041,0-.161.019-.322.035q-.644.07-1.29.129c-.862.073-1.723.149-2.592.179.832-.253,1.672-.46,2.51-.67q.63-.152,1.262-.3l.316-.071.158-.035.039-.009.027-.008a.5.5,0,0,0,.054-.017.821.821,0,0,0,.354-.248.76.76,0,0,0,.17-.38,1,1,0,0,0,.009-.1l0-.158.01-.323c.011-.431.031-.862.047-1.293.036-.862.083-1.723.135-2.583l.043-.645.011-.161.005-.081,0-.063a1.616,1.616,0,0,0-.009-.249,1.743,1.743,0,0,0-.754-1.256l-.532-.336c-.366-.228-.729-.461-1.092-.695l-.533-.346a1.959,1.959,0,0,0-.5-.218,2.474,2.474,0,0,0-.577-.077l-.647-.045C1164.029,850.854,1163.167,850.787,1162.305,850.675Z" transform="translate(-1053.275 -812.659)" fill="#fff"/>
      <path id="Trazado_712038" data-name="Trazado 712038" d="M933.268,843.335c.389,1.344.678,2.7.937,4.061s.47,2.728.652,4.1.329,2.746.436,4.127q.04.518.071,1.037a1.978,1.978,0,0,0,.236.865,2.137,2.137,0,0,0,1.558,1.072,2.149,2.149,0,0,1-1.968-.79,2.39,2.39,0,0,1-.485-1.059q-.1-.509-.2-1.02-.382-2.042-.65-4.1t-.435-4.127C933.315,846.119,933.242,844.733,933.268,843.335Z" transform="translate(-862.907 -806.814)" fill="#fff"/>
      <path id="Trazado_712039" data-name="Trazado 712039" d="M731.115,1361.308c1.085-5.664,2.286-11.308,3.655-16.912l.5-2.1.532-2.1c.36-1.4.7-2.8,1.076-4.191l1.123-4.178,1.154-4.169,2.4-8.309,1.212-4.147.594-2.076.3-1.037.29-1.039.58-2.079.548-2.086.277-1.043.253-1.048.5-2.1c.635-2.805,1.138-5.638,1.529-8.5a74.391,74.391,0,0,1-1.041,8.6c-.544,2.837-1.158,5.664-1.883,8.457-.7,2.8-1.478,5.579-2.24,8.36l-2.345,8.32-1.175,4.158-1.153,4.164c-.394,1.385-.761,2.777-1.143,4.166l-.569,2.084-.559,2.087C734.022,1350.151,732.609,1355.736,731.115,1361.308Z" transform="translate(-694.893 -1181.548)" fill="#e7f2f6"/>
      <path id="Trazado_712040" data-name="Trazado 712040" d="M932.878,649.068c-1.078-.046-2.156-.081-3.233-.091s-2.153.017-3.224.093a28.039,28.039,0,0,0-3.192.37c-.263.047-.528.085-.79.14l-.784.17-.392.085-.387.1-.774.207a29.578,29.578,0,0,0-5.91,2.434,28.314,28.314,0,0,0-5.236,3.651c-.411.34-.788.717-1.177,1.081-.2.179-.375.378-.561.569l-.552.578a28.831,28.831,0,0,0-2,2.488,28.283,28.283,0,0,0-3.13,5.57,29.813,29.813,0,0,0-2.354,12.556l-.059-.807c-.019-.269-.044-.539-.045-.809-.008-.54-.027-1.081,0-1.622l.028-.812.064-.81c.031-.542.119-1.077.182-1.616a28.193,28.193,0,0,1,1.694-6.281,27.466,27.466,0,0,1,3.1-5.741,27.825,27.825,0,0,1,2.036-2.561l.562-.595c.19-.2.371-.4.572-.585.4-.375.78-.764,1.2-1.113a28.456,28.456,0,0,1,5.378-3.7c.485-.249.966-.5,1.467-.722.249-.112.494-.23.745-.336l.758-.3.379-.152c.127-.048.257-.091.385-.136l.772-.268c.257-.091.522-.157.782-.236s.521-.158.785-.223a28.41,28.41,0,0,1,6.443-.9c1.084-.026,2.166,0,3.245.058.539.028,1.078.067,1.616.109S932.341,649.011,932.878,649.068Z" transform="translate(-834.48 -645.07)" fill="#936c51"/>
    </g>
    <g id="Grupo_1002652" data-name="Grupo 1002652" transform="translate(526.658 410.175)">
      <g id="Grupo_1002639" data-name="Grupo 1002639" transform="translate(8.912 89.242)">
        <path id="Trazado_712041" data-name="Trazado 712041" d="M1639.12,1200.97c6.712,5.931,18.793.279,21.992-8.191,4.2-11.119,5.426-23.164,9.359-34.414,3.448-9.861,8.752-18.937,13.333-28.288,2.626-5.36,9.4-17.111,5.52-22.9-4.163,0-12.5,3.15-17.417,5.854-8.412,4.629-13.079,12.959-17.675,21.03-6.039,10.6-11.492,21.63-14.993,33.356-2.61,8.741-6.85,20.106-3.172,29.1A11.8,11.8,0,0,0,1639.12,1200.97Z" transform="translate(-1634.631 -1107.176)" fill="#fff"/>
      </g>
      <path id="Trazado_712042" data-name="Trazado 712042" d="M1812.31,1246.116l-6.167,32.605,10.314-3.079Z" transform="translate(-1768.27 -1133.414)" fill="#e7f2f6"/>
      <path id="Trazado_712043" data-name="Trazado 712043" d="M1840.931,611.09a28.3,28.3,0,0,0-.031-12.258c-1.091-4.283-3.818-8.539-7.888-10.5-4.015-1.939-7.3-4.642-10.884-7.228a12.046,12.046,0,0,0-5.19-2.371c-4.2-.608-6.693,2.99-9.173,5.738A14.542,14.542,0,0,1,1797.2,589.2c-3.267.021-6.466-1.071-9.733-1.049a13.415,13.415,0,0,0-9.388,3.647c-3.192,3.274-2.224,7.515-2.688,11.656a20.075,20.075,0,0,1-4.294,10.3" transform="translate(-1739.144 -578.66)" fill="none" stroke="#382121" stroke-miterlimit="10" stroke-width="4"/>
      <path id="Trazado_712044" data-name="Trazado 712044" d="M1833.2,620.061a23.118,23.118,0,0,1,.463,2.474c.455,3.465-.125,6.959-.433,10.426A117.375,117.375,0,0,1,1831,650.519c-.924,4.82-1.888,9.75-4.389,13.973-2.45,4.138-6.211,7.315-9.983,10.3a18.131,18.131,0,0,1-5.1,3.155,17.013,17.013,0,0,1-6.129.634,20.523,20.523,0,0,1-6.46-.972c-3.112-1.139-6.1-3.682-8.7-5.686a102.573,102.573,0,0,1-9.357-8.483,140.609,140.609,0,0,1-15.809-18.68c-2.537-3.591-5.014-7.931-3.791-12.155.921-3.182,3.717-5.4,5.58-8.143,3.331-4.9,3.982-11.855,8.957-15.069,4.755-3.072,11.154-1.161,16.573-2.8,3.369-1.017,6.194-3.361,9.509-4.541a14.862,14.862,0,0,1,11.475.7c1.869.933,3.521,2.255,5.382,3.2,2.118,1.08,4.469,1.658,6.55,2.807C1829.452,611.052,1832.068,615.41,1833.2,620.061Z" transform="translate(-1730.713 -597.411)" fill="#4d3030"/>
      <path id="Trazado_712045" data-name="Trazado 712045" d="M1860.35,820.948a13.558,13.558,0,0,1-1.69,1.753,20.639,20.639,0,0,1-9,4.136,28.7,28.7,0,0,1-9.125.72,24.192,24.192,0,0,1-14.214-6.607,48.628,48.628,0,0,1-6.41-8.087c-2.692-3.967-5.33-7.97-7.969-11.973-1.94-2.943-3.968-6.29-3.3-9.751a7.115,7.115,0,0,1,6.879-5.538c3.416.168,6.545,2.584,9.407,4.23a59.125,59.125,0,0,0,12.522,5.385c6.034,1.8,12.361,2.645,18.205,4.991a12.451,12.451,0,0,1,7.843,11.744A14.194,14.194,0,0,1,1860.35,820.948Z" transform="translate(-1770.234 -750.652)" fill="#382121"/>
      <g id="Grupo_1002640" data-name="Grupo 1002640" transform="translate(102.276 89.242)">
        <path id="Trazado_712046" data-name="Trazado 712046" d="M2238.936,1200.97c-6.712,5.931-18.793.279-21.992-8.191-4.2-11.119-5.426-23.164-9.359-34.414-3.448-9.861-8.752-18.937-13.333-28.288-2.626-5.36-9.4-17.111-5.52-22.9,4.163,0,12.5,3.15,17.417,5.854,8.412,4.629,13.079,12.959,17.675,21.03,6.039,10.6,11.492,21.63,14.993,33.356,2.61,8.741,6.85,20.106,3.172,29.1A11.8,11.8,0,0,1,2238.936,1200.97Z" transform="translate(-2187.559 -1107.176)" fill="#fff"/>
      </g>
      <g id="Grupo_1002641" data-name="Grupo 1002641" transform="translate(66.701 62.111)">
        <path id="Trazado_712047" data-name="Trazado 712047" d="M1979.939,986.816c5.151,5.536,15.052,5.976,21.983,3.711,4.717-1.542,8.051-5.058,8.15-9.891.111-5.4-4.9-9.243-6.17-14.279a32.055,32.055,0,0,1-.573-8.7c.087-3.39.112-6.79.286-10.175a40.207,40.207,0,0,0-10.2-.918c-3.12.122-6.236-.186-9.353-.013a1.145,1.145,0,0,0-.7.2.919.919,0,0,0-.232.636c-.418,4.578-.007,9.214-.335,13.8-.3,4.215-1.3,8.458-3.911,11.949A10.68,10.68,0,0,0,1979.939,986.816Z" transform="translate(-1976.876 -946.496)" fill="#f8ab8a"/>
      </g>
      <g id="Grupo_1002644" data-name="Grupo 1002644" transform="translate(27.545 84.868)">
        <path id="Trazado_712048" data-name="Trazado 712048" d="M1851.967,1195.166c-3.817-38.252-7.585-60.625-11.734-87.452-.829-5.359-2.444-11.111-4.7-13.855-3.513-4.267-8.6-6.121-13.61-7.993a64.467,64.467,0,0,0-19.129-4.4q-1-.052-2-.054h0v-.136l-.065.136h-.042l-.065-.136v.136h-.057v-.136l-.065.136h-.042l-.065-.136v.136h0q-1,0-2,.054a64.468,64.468,0,0,0-19.129,4.4c-5.005,1.871-10.1,3.725-13.61,7.993-2.259,2.744-3.875,8.5-4.7,13.855-4.149,26.827-7.917,49.2-11.734,87.452-2.307,23.122-5.1,56.744-3.985,58.338,2.126,3.05,26.607,3.758,29.9,4.068,5.4.508,10.829.545,16.251.582q4.6.031,9.212,0,4.612.034,9.213,0c5.422-.036,10.852-.073,16.251-.582,3.29-.31,27.771-1.018,29.9-4.068C1857.063,1251.911,1854.274,1218.288,1851.967,1195.166Z" transform="translate(-1744.978 -1081.273)" fill="#fff"/>
        <g id="Grupo_1002643" data-name="Grupo 1002643" clip-path="url(#clip-path-5)">
          <g id="Grupo_1002642" data-name="Grupo 1002642" transform="translate(32.202 -32.71)">
            <path id="Trazado_712049" data-name="Trazado 712049" d="M1989.428,1054.651l-21.2-8.445v-.29l-21.505,8.567,14.364,65.353Z" transform="translate(-1944.861 -1019.177)" fill="#72c7db"/>
            <ellipse id="Elipse_8354" data-name="Elipse 8354" cx="23.269" cy="18.632" rx="23.269" ry="18.632" transform="translate(0 45.444) rotate(-77.547)" fill="#55adbc"/>
            <ellipse id="Elipse_8355" data-name="Elipse 8355" cx="19.391" cy="15.527" rx="19.391" ry="15.527" transform="translate(3.869 42.326) rotate(-77.547)" fill="#f8ab8a"/>
          </g>
        </g>
      </g>
      <g id="Grupo_1002645" data-name="Grupo 1002645" transform="translate(70.405 62.073)">
        <path id="Trazado_712051" data-name="Trazado 712051" d="M2021.927,965.247s-.346-2.8-.391-3.712c-.074-1.493-.01-2.814.028-4.307.087-3.391.04-6.587.214-9.972a40.206,40.206,0,0,0-10.2-.918c-3.119.122-6.235-.186-9.353-.013a1.145,1.145,0,0,0-.7.2.919.919,0,0,0-.232.636c-.3,3.236-.176,6.487-.2,9.731a24.861,24.861,0,0,1,.077,3.684c-.236,1.39-1.413,2.713-1.92,4.03-.61,1.583-.708,3.566.456,4.8a5.543,5.543,0,0,0,3.089,1.358,23.429,23.429,0,0,0,10.063-.219,19.938,19.938,0,0,0,4.843-1.919c1.237-.693,3.312-1.744,4.008-3.033C2021.739,965.542,2021.927,965.247,2021.927,965.247Z" transform="translate(-1998.809 -946.271)" fill="#f58f70"/>
      </g>
      <path id="Trazado_712052" data-name="Trazado 712052" d="M2264.5,1736.194l-19.792-3.54s2.59,36.222,13.281,34.854S2264.5,1736.194,2264.5,1736.194Z" transform="translate(-2132.782 -1537.798)" fill="#e7f2f6"/>
      <path id="Trazado_712053" data-name="Trazado 712053" d="M1781.055,1736.194l19.792-3.54s-2.59,36.222-13.281,34.854S1781.055,1736.194,1781.055,1736.194Z" transform="translate(-1746.75 -1537.798)" fill="#e7f2f6"/>
      <path id="Trazado_712054" data-name="Trazado 712054" d="M1850.341,908.8c-7.047-1.765-6.72,7.27-4.552,11.244a14.016,14.016,0,0,0,3.5,4.333,8.779,8.779,0,0,0,7.618,1.878.316.316,0,0,0,.209-.112.306.306,0,0,0,.021-.2c-.313-2.424-2.336-4.354-2.7-6.77a5.222,5.222,0,0,1,.66-3.413C1856.793,912.883,1853.065,909.484,1850.341,908.8Z" transform="translate(-1800.083 -852.868)" fill="#f58f70"/>
      <g id="Grupo_1002648" data-name="Grupo 1002648" transform="translate(44.62 19.908)">
        <path id="Trazado_712055" data-name="Trazado 712055" d="M1894.575,719.429a44.736,44.736,0,0,0-5.27-12.446c-9.438-14.7-30.523-13.45-39.59,1.233-10.111,16.375,2.667,45.411,18.033,54.129,4.285,2.431,15.711.741,19.389-2.537C1898.587,749.6,1898.513,734.18,1894.575,719.429Z" transform="translate(-1846.106 -696.559)" fill="#f9ae8f"/>
        <g id="Grupo_1002647" data-name="Grupo 1002647" clip-path="url(#clip-path-6)">
          <path id="Trazado_712056" data-name="Trazado 712056" d="M1892.7,705.241a23.711,23.711,0,0,0-13.257-10.025,24.836,24.836,0,0,0-15.968.824,24.094,24.094,0,0,0-9.784,7.063c-1.028,1.262-1.928,2.617-2.833,3.967-.859,1.281-2.495,2.865-3.026,4.278-1.026,2.729,2.838,4.651,5.142,5.2,5.866,1.409,11.976-.342,17.753-2.079l12.337-3.709a8.006,8.006,0,0,1,2.786-.488c2.42.157,4.13,2.389,5.313,4.506a43.317,43.317,0,0,1,3.678,8.7c.713,2.383,3.719,4.427,4.2.855a16.549,16.549,0,0,0-.8-5.99A47.1,47.1,0,0,0,1892.7,705.241Z" transform="translate(-1847.398 -694.657)" fill="#f58f70"/>
          <g id="Grupo_1002646" data-name="Grupo 1002646" transform="translate(4.022 20.134)">
            <path id="Trazado_712057" data-name="Trazado 712057" d="M2025.691,820.136a1.91,1.91,0,0,0,1.119-.87c.614-1.441-1.3-2.684-2.426-3.044-2.131-.683-8.714-.851-9.665,1.955-.886,2.616,2.515,2.807,4.251,2.776C2020.151,820.931,2023.789,820.9,2025.691,820.136Z" transform="translate(-1990.15 -815.799)" fill="#382121"/>
            <path id="Trazado_712058" data-name="Trazado 712058" d="M1871.858,856.286a1.878,1.878,0,0,1-1.376-.21c-1.218-.941-.17-2.927.62-3.774,1.5-1.608,7.066-4.909,9.226-2.958,2.014,1.819-.811,3.614-2.315,4.419C1876.991,854.311,1873.855,856.026,1871.858,856.286Z" transform="translate(-1869.926 -843.182)" fill="#382121"/>
            <path id="Trazado_712059" data-name="Trazado 712059" d="M2046.411,866.477c.309,2.039-.446,3.843-1.687,4.032s-2.5-1.312-2.806-3.351.446-3.843,1.687-4.032S2046.1,864.438,2046.411,866.477Z" transform="translate(-2012.819 -855.121)" fill="#061f33"/>
            <path id="Trazado_712060" data-name="Trazado 712060" d="M1914.651,900.709c.52,2-.043,3.869-1.257,4.186s-2.62-1.045-3.14-3.04.043-3.869,1.257-4.186S1914.131,898.714,1914.651,900.709Z" transform="translate(-1903.283 -883.807)" fill="#061f33"/>
            <ellipse id="Elipse_8356" data-name="Elipse 8356" cx="3.882" cy="1.792" rx="3.882" ry="1.792" transform="translate(18.17 24.098) rotate(-14.606)" fill="#f58f70"/>
            <path id="Trazado_712063" data-name="Trazado 712063" d="M1972.828,984.383a6.145,6.145,0,0,0,2.175.755,10.081,10.081,0,0,0,2.326.086,15.3,15.3,0,0,0,4.5-1.076,16.861,16.861,0,0,0,4.019-2.268,11.944,11.944,0,0,0,1.694-1.577c.124-.149.253-.291.367-.449a6.644,6.644,0,0,0,.867-1.491,11.174,11.174,0,0,1-1.633,1.518,18.746,18.746,0,0,1-1.821,1.233,27.815,27.815,0,0,1-3.93,1.936,23.138,23.138,0,0,1-4.18,1.255,14.01,14.01,0,0,1-2.168.256A9.1,9.1,0,0,1,1972.828,984.383Z" transform="translate(-1955.453 -950.913)" fill="#f9604b"/>
          </g>
        </g>
      </g>
      <path id="Trazado_712065" data-name="Trazado 712065" d="M1896.049,701.4a76.073,76.073,0,0,0,1.532-13.68,23.312,23.312,0,0,0-3.658-12.154,24.138,24.138,0,0,0-7.7-7.467,35.693,35.693,0,0,0-29.942-3.514c-5.479,1.8-11.84,6.319-13.611,12.063-.863,2.8-.362,6.721,2.385,8.188,4,2.135,9.876,1.549,14.122.727,5.115-.99,10-2.893,15.014-4.318a13.564,13.564,0,0,1,5.351-.71c3.125.394,5.709,2.792,7.168,5.583,1.483,2.837,1.58,6,2.72,8.909,1,2.552,1.793,5.178,2.554,7.809a13.287,13.287,0,0,1,.537,1.888c.045.351-.1.774-.029,1.1a1.248,1.248,0,0,0,2.148.683,2.443,2.443,0,0,0,.452-1.026Q1895.628,703.458,1896.049,701.4Z" transform="translate(-1798.312 -648.593)" fill="#4d3030"/>
      <path id="Trazado_712066" data-name="Trazado 712066" d="M2113.379,838.129c5.289-4.98,9.414,3.066,9.46,7.592a14.007,14.007,0,0,1-.941,5.491,8.779,8.779,0,0,1-5.732,5.357.317.317,0,0,1-.237,0,.308.308,0,0,1-.117-.165c-.91-2.268-.113-4.646-.97-6.935-.415-1.107-1.33-2.905-2.351-3.5C2109.6,844.292,2111.334,840.054,2113.379,838.129Z" transform="translate(-2021.621 -793.01)" fill="#f9ae8f"/>
      <path id="Trazado_712067" data-name="Trazado 712067" d="M1891.064,650.86c.538-.1,1.08-.193,1.616-.311s1.073-.238,1.6-.383l.8-.208.792-.229c.53-.147,1.051-.319,1.577-.482,2.091-.679,4.142-1.473,6.18-2.284s4.063-1.648,6.112-2.41c.511-.193,1.024-.38,1.538-.565a15.836,15.836,0,0,1,1.535-.5,5.646,5.646,0,0,1,1.536-.2,3.659,3.659,0,0,1,1.457.341c1.874.859,3.057,2.977,5.18,3.978a13.81,13.81,0,0,0,3.2,1c1.081.228,2.145.427,3.191.72a19,19,0,0,1,3.048,1.108,12.685,12.685,0,0,1,2.741,1.71,10.15,10.15,0,0,1,2.15,2.417,8.687,8.687,0,0,1,.732,1.455,7.7,7.7,0,0,1,.441,1.576,7.752,7.752,0,0,0-.344-1.611,8.71,8.71,0,0,0-.675-1.512,10.4,10.4,0,0,0-2.087-2.576,12.937,12.937,0,0,0-2.763-1.857,18.675,18.675,0,0,0-3.1-1.216c-.531-.16-1.066-.3-1.6-.432l-1.606-.36a13.232,13.232,0,0,1-3.047-1,7,7,0,0,1-1.315-.857c-.411-.334-.8-.708-1.194-1.088s-.792-.769-1.227-1.131a6.539,6.539,0,0,0-1.447-.943,4.335,4.335,0,0,0-1.723-.394,6.294,6.294,0,0,0-1.714.231,16.407,16.407,0,0,0-1.591.523c-.517.189-1.034.378-1.544.582-2.049.8-4.07,1.658-6.084,2.52A76.283,76.283,0,0,1,1891.064,650.86Z" transform="translate(-1838.852 -631.82)" fill="#634444"/>
      <path id="Trazado_712068" data-name="Trazado 712068" d="M2289.968,1246.116l6.166,49.368-10.313-4.662Z" transform="translate(-2166.952 -1133.414)" fill="#e7f2f6"/>
      <path id="Trazado_712069" data-name="Trazado 712069" d="M1897.991,1130.4q.58,3.459,1.2,6.91t1.254,6.9c.419,2.3.863,4.594,1.293,6.891l1.327,6.884.062.32.331.052q1.864.292,3.731.566l3.732.556-.134-.952q-1.576.706-3.147,1.423l-3.143,1.433-.426.194.171.434c1.043,2.648,2.108,5.287,3.169,7.928s2.137,5.276,3.208,7.913l1.623,3.949,1.635,3.944q1.641,3.941,3.327,7.866-1.436-4.022-2.925-8.024l-1.491-4-1.5-4c-1.013-2.66-2.016-5.323-3.044-7.977s-2.042-5.313-3.083-7.962l-.255.628,3.151-1.415q1.577-.7,3.147-1.425l1.554-.711-1.688-.242-3.735-.535q-1.867-.27-3.737-.525l.392.372-1.439-6.862c-.492-2.285-.97-4.572-1.473-6.855s-1-4.567-1.512-6.847S1898.526,1132.671,1897.991,1130.4Z" transform="translate(-1844.609 -1037.232)" fill="#e7f2f6"/>
      <path id="Trazado_712070" data-name="Trazado 712070" d="M2082.213,1144.07q-1.528,3.265-3.022,6.545t-2.969,6.568c-.989,2.19-1.955,4.39-2.933,6.584l-2.9,6.6.46-.283q-2.015-.142-4.03-.264l-4.031-.254-1.774-.112,1.457,1.023q1.5,1.055,3.014,2.1l3.021,2.092-.119-.691c-1.835,2.56-3.651,5.133-5.471,7.7s-3.626,5.151-5.437,7.728l-2.7,3.876-2.691,3.884q-2.685,3.888-5.332,7.8,2.865-3.759,5.684-7.551l2.817-3.793,2.806-3.8c1.862-2.541,3.732-5.075,5.58-7.626s3.708-5.092,5.545-7.65l.291-.4-.409-.286-3.009-2.108q-1.5-1.057-3.016-2.1l-.316.911,4.032.233q2.016.119,4.033.222l.333.017.126-.3,2.8-6.643c.921-2.219,1.854-4.433,2.764-6.656s1.828-4.444,2.728-6.672S2081.333,1146.307,2082.213,1144.07Z" transform="translate(-1968.253 -1048.598)" fill="#e7f2f6"/>
      <path id="Trazado_712071" data-name="Trazado 712071" d="M1839.377,836.727l4.43,12.838a2.2,2.2,0,0,0,2.439,1.449l13.722-2.3a2.194,2.194,0,0,0,1.83-2.228c-.074-2.572.12-6.917,2.216-7.575,2.181-.684,5.029,3.356,6.428,5.627a2.192,2.192,0,0,0,2.527.936l14.4-4.553a2.195,2.195,0,0,0,1.508-2.425l-2.038-13.314Z" transform="translate(-1795.893 -783.552)" fill="#c8eff5" opacity="0.3"/>
      <path id="Trazado_712072" data-name="Trazado 712072" d="M1946.1,900.856a3.317,3.317,0,0,0,1.686-.656,2.886,2.886,0,0,0,1.059-1.558,2.741,2.741,0,0,0,.074-.489l.03-.442c.022-.294.048-.589.079-.882.062-.586.13-1.169.228-1.746a13.25,13.25,0,0,1,.934-3.309,4.9,4.9,0,0,1,.879-1.35,2.436,2.436,0,0,1,1.269-.727,2.536,2.536,0,0,1,.73-.034,3.734,3.734,0,0,1,.752.179,6.311,6.311,0,0,1,1.451.779,16.247,16.247,0,0,1,2.565,2.327c.4.431.776.882,1.153,1.335q.282.341.556.69l.272.351.134.177.067.089.078.1a2.739,2.739,0,0,0,1.646.924,3.264,3.264,0,0,0,1.8-.2,3.436,3.436,0,0,1-1.732-.069,2.413,2.413,0,0,1-1.313-.949l-.476-.751q-.244-.379-.5-.752c-.341-.5-.706-.978-1.084-1.452a16.774,16.774,0,0,0-1.213-1.365,12.6,12.6,0,0,0-1.391-1.225,6.929,6.929,0,0,0-1.67-.941,4.652,4.652,0,0,0-.982-.24,3.5,3.5,0,0,0-1.049.045,3.441,3.441,0,0,0-1.777,1.035,5.515,5.515,0,0,0-1.038,1.645,12.591,12.591,0,0,0-.84,3.593c-.058.6-.1,1.208-.107,1.812,0,.3,0,.6,0,.9l.011.451,0,.2c0,.066-.014.132-.019.2a2.573,2.573,0,0,1-.757,1.445,3.064,3.064,0,0,1-.688.522A3.741,3.741,0,0,1,1946.1,900.856Z" transform="translate(-1884.599 -836.299)" fill="#fff"/>
      <path id="Trazado_712073" data-name="Trazado 712073" d="M1886.841,825.178l-47.463,11.549,1.443,4.183,4.694-3.613,35.838-9,6.258,1.914Z" transform="translate(-1795.893 -783.553)" fill="#52bbd0"/>
      <path id="Trazado_712074" data-name="Trazado 712074" d="M1796.655,1187.163c-.513,1.433-.981,2.887-1.373,4.36-.1.368-.207.734-.3,1.1l-.278,1.109c-.19.739-.364,1.481-.536,2.223-.681,2.972-1.287,5.96-1.841,8.956s-1.052,6-1.542,9.009-.913,6.023-1.346,9.038q-.617,4.527-1.193,9.058c-.364,3.024-.735,6.046-1.058,9.074-.665,6.053-1.256,12.116-1.7,18.191.859-6.03,1.669-12.063,2.481-18.1l1.225-9.046c.408-3.015.817-6.03,1.245-9.042s.847-6.025,1.289-9.034.905-6.015,1.372-9.02c.487-3,.984-6,1.549-8.988.138-.748.277-1.495.433-2.239l.227-1.117.242-1.114.245-1.114.271-1.108.133-.555c.046-.184.1-.367.149-.55Z" transform="translate(-1751.106 -1084.415)" fill="#e7f2f6"/>
      <path id="Trazado_712075" data-name="Trazado 712075" d="M2021.627,1483.693c-.235,4.535-.393,9.072-.579,13.609l-.23,6.806-.2,6.807q-.1,3.4-.183,6.807l-.166,6.808-.276,13.616-.211,13.617c-.049,4.54-.116,9.079-.144,13.619s-.061,9.08-.073,13.62l.007,6.81,0,3.405.025,3.406.129-3.4.111-3.4.222-6.807q.2-6.807.367-13.614.089-3.4.161-6.808l.151-6.808.264-13.616.22-13.616.18-13.617.139-13.618.045-6.81.029-3.405Z" transform="translate(-1945.653 -1330.875)" fill="#e7f2f6"/>
      <circle id="Elipse_8357" data-name="Elipse 8357" cx="2.364" cy="2.364" r="2.364" transform="translate(80.358 178.234)" fill="#e7f2f6"/>
      <circle id="Elipse_8358" data-name="Elipse 8358" cx="2.364" cy="2.364" r="2.364" transform="translate(79.75 207.283)" fill="#e7f2f6"/>
      <path id="Trazado_712076" data-name="Trazado 712076" d="M1868.362,897.668c-.859.134-1.705.311-2.553.485l-.633.138a2.932,2.932,0,0,0-.678.21,2.468,2.468,0,0,0-.622.414l-.476.456c-.31.3-.619.6-.924.906l-.23.227-.115.114-.057.058-.066.072a2.672,2.672,0,0,0-.438.649,2.644,2.644,0,0,0-.224,1.543,2.313,2.313,0,0,0,.091.386l.03.094.027.076.054.152.216.609q.44,1.216.9,2.425c.156.4.309.805.47,1.205l.12.3.061.154a1.563,1.563,0,0,0,.1.2,1.587,1.587,0,0,0,.615.6,1.539,1.539,0,0,0,.825.188c.035,0,.07-.006.105-.01l.052-.006.04-.007.159-.027.319-.056q.638-.113,1.274-.236c.848-.171,1.7-.339,2.539-.552-.869-.01-1.733.026-2.6.058q-.647.03-1.294.069l-.323.02-.162.011-.04,0h-.028a.463.463,0,0,1-.056,0,.821.821,0,0,1-.409-.139.761.761,0,0,1-.269-.318.951.951,0,0,1-.037-.1l-.049-.15-.1-.308c-.131-.411-.27-.819-.406-1.228q-.413-1.226-.852-2.442l-.222-.607-.055-.152-.028-.076-.02-.06a1.625,1.625,0,0,1-.061-.242,1.742,1.742,0,0,1,.373-1.416l.417-.472c.287-.322.571-.647.854-.972l.415-.481a1.958,1.958,0,0,1,.417-.348,2.476,2.476,0,0,1,.532-.235l.608-.224C1866.756,898.321,1867.565,898.016,1868.362,897.668Z" transform="translate(-1814.125 -843.802)" fill="#fff"/>
      <path id="Trazado_712077" data-name="Trazado 712077" d="M2120.468,825.178c0,1.4.1,2.782.235,4.161s.311,2.75.52,4.117.452,2.729.734,4.085q.106.508.222,1.015a1.983,1.983,0,0,1,.016.9,2.138,2.138,0,0,1-1.2,1.464,2.15,2.15,0,0,0,1.67-1.309,2.391,2.391,0,0,0,.17-1.152q-.042-.518-.092-1.035-.2-2.068-.521-4.117t-.736-4.084C2121.2,827.864,2120.885,826.513,2120.468,825.178Z" transform="translate(-2029.52 -783.552)" fill="#fff"/>
      <g id="Grupo_1002649" data-name="Grupo 1002649" transform="translate(54.84 122.518)">
        <path id="Trazado_712078" data-name="Trazado 712078" d="M1978.279,1366.932c.935.562,7.051,4.667,4.062,5.58a3.37,3.37,0,0,1-1.759-.111c-5.845-1.414-12.04-2.251-17.828-.62-.481.135-1.167.185-1.31-.293a.956.956,0,0,1,.109-.63l1.707-4.035a4.616,4.616,0,0,1,.786-1.385c2.033-2.189,5.979-.878,8.411-.461a19.916,19.916,0,0,1,3.416.782A13.532,13.532,0,0,1,1978.279,1366.932Z" transform="translate(-1952.17 -1354.081)" fill="#f9ae8f"/>
        <rect id="Rectángulo_346619" data-name="Rectángulo 346619" width="3.461" height="41.468" transform="translate(35.25 0.644) rotate(58.216)" fill="#0b2d4e"/>
        <rect id="Rectángulo_346620" data-name="Rectángulo 346620" width="1.819" height="9.472" transform="matrix(0.527, 0.85, -0.85, 0.527, 37.939, 0)" fill="#0b2d4e"/>
        <path id="Trazado_712079" data-name="Trazado 712079" d="M1948.041,1405.572c-2.042-.023-4.117.16-6.15.278-4.186.242-8.744.063-12.02-2.554a9.237,9.237,0,0,1-1.712-2.364c-.537-.755-1.355-.974-2.051-1.534a3.809,3.809,0,0,1-1.462-2.324,2,2,0,0,1,.007-.688,3.107,3.107,0,0,1,.985-1.469c-1.211-.007-3.458.04-4.28-1.06-.552-.738-.276-3.286.76-3.607a4.925,4.925,0,0,1-3.175-.1,2.344,2.344,0,0,1-1.725-2.143c.111-1.182,1.866-2.972,2.9-3.378a11.06,11.06,0,0,1,2.156-.537,101.282,101.282,0,0,1,13.321-1.432c2.644-.108,5.816-.308,8.144,1.126,2.268,1.4,3.9,3.586,5.983,5.22a15.066,15.066,0,0,0,4.5,2.428c2.251.757,4.641,1.121,5.523,3.605a13.368,13.368,0,0,1-.07,8.981c-1.062,2.9-2.339,3.851-5.341,2.637A17.109,17.109,0,0,0,1948.041,1405.572Z" transform="translate(-1915.426 -1369.359)" fill="#f9ae8f"/>
        <path id="Trazado_712080" data-name="Trazado 712080" d="M1946.053,1421.664c1.2-.19,2.386-.18,3.6-.345a8.668,8.668,0,0,0,.911-.164l.434-.106c.139-.029.279-.054.42-.073a9.223,9.223,0,0,1,1.737-.057c.589.019,1.194.062,1.795.089s1.2.052,1.806.059c1.2.027,2.41.03,3.62-.034-1.192-.217-2.389-.367-3.587-.492-.6-.069-1.2-.114-1.8-.171s-1.2-.094-1.81-.125a9.177,9.177,0,0,0-1.865.1c-.156.029-.311.065-.465.106l-.437.131c-.28.079-.564.154-.853.218A21.144,21.144,0,0,0,1946.053,1421.664Z" transform="translate(-1939.396 -1400.652)" fill="#f58f70"/>
        <path id="Trazado_712081" data-name="Trazado 712081" d="M1967.951,1454.832c.974.271,1.954.48,2.938.671s1.969.36,2.957.512,1.979.285,2.975.392,1.994.2,3,.232c-.963-.307-1.939-.544-2.92-.753s-1.967-.388-2.958-.539-1.985-.276-2.984-.364S1968.962,1454.826,1967.951,1454.832Z" transform="translate(-1957.597 -1429.405)" fill="#f58f70"/>
        <path id="Trazado_712082" data-name="Trazado 712082" d="M1979.685,1487.687a16.365,16.365,0,0,0,1.921.46q.965.177,1.936.288t1.95.164a16.2,16.2,0,0,0,1.976-.009,13.926,13.926,0,0,0-1.909-.518q-.964-.2-1.939-.307c-.65-.075-1.3-.124-1.958-.144A14.089,14.089,0,0,0,1979.685,1487.687Z" transform="translate(-1967.349 -1456.651)" fill="#f58f70"/>
      </g>
      <path id="Trazado_712083" data-name="Trazado 712083" d="M1581.851,1340.22l74.271,52.363.7-1.506-23.607-57.233-50.664,4.87Z" transform="translate(-1581.851 -1206.329)" fill="#f0652c"/>
      <path id="Trazado_712084" data-name="Trazado 712084" d="M2146.776,1417.908c3.543,1.9,6.674,4.329,8.1,8.346,1.86,5.257.819,12.643-4.85,15.087-3.529,1.521-7.8.887-11.416.058-7.8-1.786-55.2-19.554-55.316-20.981a2.231,2.231,0,0,1,.345-1.158,61.632,61.632,0,0,0,6.6-24.594c.044-.815,37.42,14.224,49.2,19.8C2141.8,1415.588,2144.383,1416.626,2146.776,1417.908Z" transform="translate(-1998.617 -1256.855)" fill="#fff"/>
      <path id="Trazado_712085" data-name="Trazado 712085" d="M2152.4,1568.171a11.7,11.7,0,0,1-2.128.577,14.634,14.634,0,0,1-2.187.191,20.626,20.626,0,0,1-2.192-.1c-.728-.072-1.452-.187-2.173-.317s-1.437-.288-2.152-.457-1.41-.364-2.115-.583c-1.4-.438-2.8-.9-4.193-1.384-2.784-.97-5.567-1.95-8.338-2.961s-5.549-2.008-8.316-3.034q-4.159-1.514-8.305-3.065c-2.771-1.016-5.53-2.063-8.3-3.091l-4.141-1.563q-2.071-.781-4.133-1.582t-4.116-1.626c-.683-.278-1.364-.561-2.038-.86-.338-.148-.673-.3-1-.463-.165-.082-.329-.166-.488-.258-.079-.047-.158-.094-.233-.148a.46.46,0,0,1-.184-.2.468.468,0,0,0,.173.212c.071.059.148.112.224.165.154.1.313.2.472.293.32.186.646.362.974.533.657.34,1.323.662,1.99.979,1.337.633,2.688,1.232,4.04,1.829q4.066,1.767,8.177,3.422c2.735,1.117,5.491,2.182,8.244,3.251s5.525,2.092,8.3,3.118c2.776,1.009,5.555,2.013,8.345,2.985s5.588,1.923,8.411,2.807c1.412.442,2.823.884,4.256,1.271.358.1.718.19,1.081.278s.732.163,1.094.236c.729.143,1.459.278,2.2.38a22.2,22.2,0,0,0,4.455.21,14.662,14.662,0,0,0,2.207-.321A11.828,11.828,0,0,0,2152.4,1568.171Z" transform="translate(-2000.596 -1383.699)" fill="#e7f2f6"/>
      <g id="Grupo_1002651" data-name="Grupo 1002651" transform="translate(0 129.022)">
        <path id="Trazado_712086" data-name="Trazado 712086" d="M1612.445,1403.289l43.677-3.295-23.607-57.233-50.664,4.87Z" transform="translate(-1581.851 -1342.761)" fill="#ffa031"/>
        <g id="Grupo_1002650" data-name="Grupo 1002650" clip-path="url(#clip-path-7)">
          <path id="Trazado_712087" data-name="Trazado 712087" d="M1622.92,1496.918a19.123,19.123,0,0,0,3.14,7.9,5.261,5.261,0,0,0,1.039,1.128,5.012,5.012,0,0,0,2.513.857,8.708,8.708,0,0,0,4.578-.65c2.353-1.084,3.074-3.154,3.78-5.492l3.107-.581c1.568-.293,3.251-.648,4.331-1.821a1.865,1.865,0,0,0,.576-1.339c-.055-.774-.8-1.3-1.492-1.648,1.952-.634,4.777-.273,6.115-2.122a1.8,1.8,0,0,0-.978-2.891,12.905,12.905,0,0,1-1.741-.271l1.047-.144a2.9,2.9,0,0,0,1.447-.471c.9-.716.4-2.129-.306-2.759a5.041,5.041,0,0,0-1.752-.913c-5.354-1.837-11.22-1.076-16.787-.055a15.752,15.752,0,0,1,4.893-2.467,14.068,14.068,0,0,0,4.96-1.631,2.66,2.66,0,0,0,1.447-1.729c.35-2.652-6.117-1.745-7.56-1.609-2.636.248-5.213,1.692-7.661,2.665a9.188,9.188,0,0,0-4.138,2.587c-1.309,1.722-1.275,4.057-1.191,6.108A53.752,53.752,0,0,0,1622.92,1496.918Z" transform="translate(-1615.43 -1455.126)" fill="#ffa031" opacity="0.5" style="mix-blend-mode: multiply;isolation: isolate"/>
        </g>
      </g>
      <path id="Trazado_712089" data-name="Trazado 712089" d="M1628.226,1501.188a19.124,19.124,0,0,0,2.4,8.157,5.257,5.257,0,0,0,.93,1.219,5.018,5.018,0,0,0,2.423,1.086,8.707,8.707,0,0,0,4.618-.224c2.443-.862,3.353-2.856,4.272-5.119l3.148-.291c1.588-.147,3.3-.344,4.481-1.413a1.864,1.864,0,0,0,.7-1.28c.017-.776-.676-1.365-1.333-1.778,2-.451,4.782.17,6.285-1.547a1.8,1.8,0,0,0-.706-2.969,12.909,12.909,0,0,1-1.709-.431l1.055-.047a2.9,2.9,0,0,0,1.485-.335c.963-.63.6-2.083-.049-2.775a5.043,5.043,0,0,0-1.659-1.071c-5.161-2.324-11.072-2.109-16.71-1.607a15.746,15.746,0,0,1,5.1-2,14.065,14.065,0,0,0,5.089-1.165,2.66,2.66,0,0,0,1.6-1.587c.594-2.608-5.93-2.3-7.379-2.3-2.648,0-5.347,1.2-7.875,1.945a9.185,9.185,0,0,0-4.359,2.193c-1.462,1.594-1.645,3.922-1.75,5.972A53.749,53.749,0,0,0,1628.226,1501.188Z" transform="translate(-1620.303 -1330.875)" fill="#f9ae8f"/>
      <path id="Trazado_712090" data-name="Trazado 712090" d="M1720.366,1557.081a27.643,27.643,0,0,0-3.12-.467c-1.045-.107-2.094-.166-3.144-.191s-2.1-.011-3.149.048a27.445,27.445,0,0,0-3.137.328c1.051.1,2.1.156,3.141.2s2.087.076,3.131.1,2.086.041,3.132.04S1719.312,1557.136,1720.366,1557.081Z" transform="translate(-1686.547 -1391.314)" fill="#f58f70"/>
      <path id="Trazado_712091" data-name="Trazado 712091" d="M1722.3,1586.41a9.626,9.626,0,0,0-1.777-.468,14.089,14.089,0,0,0-1.819-.19,13.914,13.914,0,0,0-1.828.046,9.519,9.519,0,0,0-1.808.329c.611.1,1.213.156,1.814.2s1.2.075,1.8.1,1.2.038,1.8.042S1721.682,1586.465,1722.3,1586.41Z" transform="translate(-1692.574 -1415.691)" fill="#f58f70"/>
    </g>
    <path id="Trazado_712092" data-name="Trazado 712092" d="M825.709,2064.628H463.8a6.525,6.525,0,0,1-6.675-6.364h0a6.525,6.525,0,0,1,6.675-6.364H825.709a6.525,6.525,0,0,1,6.675,6.364h0A6.525,6.525,0,0,1,825.709,2064.628Z" transform="translate(-120.378 -1392.963)" fill="#52bbd0"/>
    <g id="Grupo_1002653" data-name="Grupo 1002653" transform="translate(572.217 597.95)">
      <path id="Rectángulo_346621" data-name="Rectángulo 346621" d="M0,0H40.163a0,0,0,0,1,0,0V0A7.863,7.863,0,0,1,32.3,7.863H0a0,0,0,0,1,0,0V0A0,0,0,0,1,0,0Z" transform="translate(40.163 61.05) rotate(180)" fill="#72c7db"/>
      <path id="Trazado_712093" data-name="Trazado 712093" d="M2048.43,1744.666l10.136-51.6a2.906,2.906,0,0,1,2.852-2.346H2128.8a2.881,2.881,0,0,1,2.335,1.2l.009-.009,3.112,3.679-2.76-.605-9.98,50.807a2.906,2.906,0,0,1-2.852,2.346h-67.383A2.906,2.906,0,0,1,2048.43,1744.666Z" transform="translate(-2015.159 -1690.716)" fill="#72c7db"/>
      <path id="Trazado_712094" data-name="Trazado 712094" d="M2136.911,1769.653h-67.384a2.906,2.906,0,0,1-2.852-3.467l10.136-51.6a2.906,2.906,0,0,1,2.852-2.346h67.383a2.906,2.906,0,0,1,2.852,3.466l-10.136,51.6A2.907,2.907,0,0,1,2136.911,1769.653Z" transform="translate(-2030.324 -1708.603)" fill="#e7f2f6"/>
      <path id="Trazado_712095" data-name="Trazado 712095" d="M2295.195,1843.66a7.868,7.868,0,0,1-7.428,6.3,5.052,5.052,0,0,1-5.087-6.3,7.957,7.957,0,0,1,7.428-6.3A5.1,5.1,0,0,1,2295.195,1843.66Z" transform="translate(-2209.803 -1812.596)" fill="#72c7db"/>
      <path id="Trazado_712096" data-name="Trazado 712096" d="M2560.149,1726.454" transform="translate(-2440.518 -1720.42)" fill="#3f91ac"/>
    </g>
    <g id="Grupo_1002655" data-name="Grupo 1002655" transform="translate(469.955 617.821)">
      <path id="Trazado_712097" data-name="Trazado 712097" d="M1258.11,1891.376l-11.572,20.043a3.715,3.715,0,0,0,3.217,5.572H1272.9a3.715,3.715,0,0,0,3.217-5.572l-11.572-20.043A3.715,3.715,0,0,0,1258.11,1891.376Z" transform="translate(-1246.035 -1875.821)" fill="#3076b6"/>
      <rect id="Rectángulo_346622" data-name="Rectángulo 346622" width="8.855" height="19.041" transform="translate(10.865 1.765)" fill="#fff"/>
      <rect id="Rectángulo_346623" data-name="Rectángulo 346623" width="8.855" height="9.192" transform="translate(10.865 11.613)" fill="#3076b6"/>
      <path id="Trazado_712098" data-name="Trazado 712098" d="M1310.9,1812.2h-8.337a1.9,1.9,0,0,1-1.9-1.9h0a1.9,1.9,0,0,1,1.9-1.9h8.337a1.9,1.9,0,0,1,1.9,1.9h0A1.9,1.9,0,0,1,1310.9,1812.2Z" transform="translate(-1291.444 -1808.398)" fill="#fff"/>
      <circle id="Elipse_8359" data-name="Elipse 8359" cx="1.522" cy="1.522" r="1.522" transform="translate(24.369 32.665)" fill="#e8394a" style="mix-blend-mode: multiply;isolation: isolate"/>
      <circle id="Elipse_8360" data-name="Elipse 8360" cx="1.522" cy="1.522" r="1.522" transform="translate(6.447 31.145) rotate(-76.77)" fill="#e8394a" style="mix-blend-mode: multiply;isolation: isolate"/>
      <circle id="Elipse_8361" data-name="Elipse 8361" cx="1.522" cy="1.522" r="1.522" transform="translate(16.418 19.573) rotate(-45)" fill="#e8394a" style="mix-blend-mode: multiply;isolation: isolate"/>
      <circle id="Elipse_8362" data-name="Elipse 8362" cx="1.522" cy="1.522" r="1.522" transform="translate(15.24 37.58) rotate(-45)" fill="#e8394a" style="mix-blend-mode: multiply;isolation: isolate"/>
      <circle id="Elipse_8363" data-name="Elipse 8363" cx="0.948" cy="0.948" r="0.948" transform="translate(16.675 25.844)" fill="#e8394a" style="mix-blend-mode: multiply;isolation: isolate"/>
      <path id="Trazado_712099" data-name="Trazado 712099" d="M1327.271,1889.376a.948.948,0,1,1-.948-.948A.948.948,0,0,1,1327.271,1889.376Z" transform="translate(-1311.979 -1874.915)" fill="#e8394a" style="mix-blend-mode: multiply;isolation: isolate"/>
      <circle id="Elipse_8364" data-name="Elipse 8364" cx="0.948" cy="0.948" r="0.948" transform="translate(7.33 36.632)" fill="#e8394a" style="mix-blend-mode: multiply;isolation: isolate"/>
      <g id="Grupo_1002654" data-name="Grupo 1002654" transform="translate(5.575 4.585)" opacity="0.5">
        <path id="Trazado_712100" data-name="Trazado 712100" d="M1285.6,1836.365c0,4.369-.1,8.748,0,13.116,0,.091,0,.183,0,.274,0,.158.074-.269.018-.15-.079.168-.136.351-.2.524l-1.03,2.663-3.151,8.152-2.129,5.506c-.392,1.014,1.24,1.453,1.628.449l4.975-12.869,1.173-3.033a4.766,4.766,0,0,0,.407-1.223c.065-.7,0-1.436,0-2.138v-11.271a.845.845,0,0,0-1.689,0Z" transform="translate(-1279.05 -1835.549)" fill="#fff"/>
      </g>
    </g>
    <g id="Grupo_1002656" data-name="Grupo 1002656" transform="translate(362.805 529.464)">
      <path id="Trazado_712101" data-name="Trazado 712101" d="M659.067,1528.957H642.941s-30.481,5.685-31.453,42.434c-.9,34.026,25.692,39.06,25.692,39.06h17.206v-14.4l7.639-7.922H645.641a9.864,9.864,0,0,1-7.021,3.241c-4.321,0-13.863-6.841-13.5-20.344s7.2-20.344,13.142-20.344,8.822,9.722,8.822,9.722l11.985.36Z" transform="translate(-611.466 -1487.785)" fill="#72c7db"/>
      <path id="Trazado_712102" data-name="Trazado 712102" d="M690.529,1670.864a12.739,12.739,0,0,1-9.067,4.185c-5.58,0-17.9-8.835-17.437-26.271s9.3-26.271,16.971-26.271,11.392,12.554,11.392,12.554l3.257,3.242-4.769-.147s-2.881-9.722-8.821-9.722-12.782,6.841-13.142,20.344,9.182,20.344,13.5,20.344a9.865,9.865,0,0,0,7.021-3.241Z" transform="translate(-655.14 -1565.538)" fill="#55adbc"/>
      <rect id="Rectángulo_346624" data-name="Rectángulo 346624" width="11.871" height="23.285" transform="translate(63.117 73.682) rotate(180)" fill="#e7f2f6"/>
      <rect id="Rectángulo_346625" data-name="Rectángulo 346625" width="19.161" height="43.244" transform="translate(66.762 69.77) rotate(180)" fill="#72c7db"/>
      <path id="Trazado_712103" data-name="Trazado 712103" d="M893.37,1417.406h19.161l-3.645-5.041H897.015Z" transform="translate(-845.77 -1390.88)" fill="#0b2d4e"/>
      <rect id="Rectángulo_346626" data-name="Rectángulo 346626" width="11.871" height="23.285" transform="translate(63.117 26.526) rotate(180)" fill="#0b2d4e"/>
      <circle id="Elipse_8365" data-name="Elipse 8365" cx="5.85" cy="5.85" r="5.85" transform="matrix(0.973, -0.23, 0.23, 0.973, 27.618, 103.794)" fill="#55adbc"/>
      <rect id="Rectángulo_346627" data-name="Rectángulo 346627" width="8.956" height="3.241" transform="translate(61.659 3.241) rotate(180)" fill="#52bbd0"/>
      <rect id="Rectángulo_346628" data-name="Rectángulo 346628" width="65.892" height="7.201" transform="translate(74.503 129.868) rotate(180)" fill="#0b2d4e"/>
      <path id="Trazado_712104" data-name="Trazado 712104" d="M721.828,1906.167v14.523H695.515l16.144-18.467Z" transform="translate(-681.323 -1798.023)" fill="#55adbc"/>
      <rect id="Rectángulo_346629" data-name="Rectángulo 346629" width="3.645" height="43.244" transform="translate(51.245 69.77) rotate(180)" fill="#55adbc"/>
      <rect id="Rectángulo_346630" data-name="Rectángulo 346630" width="48.789" height="5.041" transform="translate(82.964 100.342) rotate(180)" fill="#0b2d4e"/>
      <rect id="Rectángulo_346631" data-name="Rectángulo 346631" width="7.095" height="31.592" transform="translate(47.601 72.764) rotate(180)" fill="#55adbc"/>
      <circle id="Elipse_8366" data-name="Elipse 8366" cx="3.421" cy="3.421" r="3.421" transform="translate(30.186 109.995) rotate(-67.5)" fill="#0b2d4e"/>
      <rect id="Rectángulo_346632" data-name="Rectángulo 346632" width="9.511" height="3.041" transform="translate(83.544 66.906) rotate(142.197)" fill="#0b2d4e"/>
      <rect id="Rectángulo_346633" data-name="Rectángulo 346633" width="7.201" height="7.021" transform="translate(86.935 73.161) rotate(142.197)" fill="#061f33"/>
      <circle id="Elipse_8367" data-name="Elipse 8367" cx="5.85" cy="5.85" r="5.85" transform="translate(35.445 50.053) rotate(-45)" fill="#0b2d4e"/>
      <circle id="Elipse_8368" data-name="Elipse 8368" cx="4.134" cy="4.134" r="4.134" transform="translate(31.42 61.038) rotate(-9.217)" fill="#0b2d4e"/>
      <rect id="Rectángulo_346634" data-name="Rectángulo 346634" width="9.511" height="3.041" transform="translate(52.5 74.489)" fill="#0b2d4e"/>
      <rect id="Rectángulo_346635" data-name="Rectángulo 346635" width="7.201" height="7.021" transform="translate(53.653 77.529)" fill="#061f33"/>
      <path id="Trazado_712105" data-name="Trazado 712105" d="M1063.573,1687.681l5.69-4.414-.019-1.909-7.515,5.83Z" transform="translate(-985.7 -1614.453)" fill="#0b2d4e"/>
      <circle id="Elipse_8369" data-name="Elipse 8369" cx="3.421" cy="3.421" r="3.421" transform="translate(38.88 50.053) rotate(-45)" fill="#061f33"/>
      <circle id="Elipse_8370" data-name="Elipse 8370" cx="2.417" cy="2.417" r="2.417" transform="translate(33.745 62.039)" fill="#061f33"/>
      <path id="Trazado_712106" data-name="Trazado 712106" d="M934.707,1677.877c9.854-3.371,14.25-9.448,14.25-9.448l-31.3,10.709S924.853,1681.248,934.707,1677.877Z" transform="translate(-865.955 -1603.707)" fill="#52bbd0"/>
      <rect id="Rectángulo_346636" data-name="Rectángulo 346636" width="33.082" height="3.127" transform="translate(82.991 64.691) rotate(161.112)" fill="#0b2d4e"/>
      <rect id="Rectángulo_346637" data-name="Rectángulo 346637" width="9.511" height="3.041" transform="translate(73.633 73.926) rotate(160.622)" fill="#0b2d4e"/>
      <path id="Trazado_712107" data-name="Trazado 712107" d="M930.739,1745.787l-7.2,0-1.154-1.521,9.511,0Z" transform="translate(-869.883 -1666.736)" fill="#0b2d4e"/>
      <rect id="Rectángulo_346638" data-name="Rectángulo 346638" width="7.201" height="7.021" transform="translate(74.873 80.933) rotate(160.622)" fill="#061f33"/>
      <path id="Trazado_712108" data-name="Trazado 712108" d="M996,1727.142l6.793-2.389.585-1.818-8.972,3.156Z" transform="translate(-929.743 -1649.009)" fill="#0b2d4e"/>
    </g>
    <g id="Grupo_1002672" data-name="Grupo 1002672" transform="translate(506.97 599.98)">
      <g id="Grupo_1002661" data-name="Grupo 1002661" transform="translate(9.084)">
        <rect id="Rectángulo_346639" data-name="Rectángulo 346639" width="9.364" height="20.134" transform="translate(1.734 1.866)" fill="#fff"/>
        <g id="Grupo_1002659" data-name="Grupo 1002659" transform="translate(1.734 12.281)">
          <path id="Rectángulo_346640" data-name="Rectángulo 346640" d="M0,0H9.364a0,0,0,0,1,0,0V36.414A4.682,4.682,0,0,1,4.682,41.1h0A4.682,4.682,0,0,1,0,36.414V0A0,0,0,0,1,0,0Z" fill="#52bbd0"/>
          <g id="Grupo_1002658" data-name="Grupo 1002658" clip-path="url(#clip-path-8)">
            <g id="Grupo_1002657" data-name="Grupo 1002657" transform="translate(-1.481 2.009)">
              <circle id="Elipse_8371" data-name="Elipse 8371" cx="1.61" cy="1.61" r="1.61" transform="translate(2.101 19.642)" fill="#52bbd0" style="mix-blend-mode: multiply;isolation: isolate"/>
              <circle id="Elipse_8372" data-name="Elipse 8372" cx="1.61" cy="1.61" r="1.61" transform="translate(0 10.016) rotate(-22.363)" fill="#52bbd0" style="mix-blend-mode: multiply;isolation: isolate"/>
              <circle id="Elipse_8373" data-name="Elipse 8373" cx="1.61" cy="1.61" r="1.61" transform="translate(8.02 4.798)" fill="#52bbd0" style="mix-blend-mode: multiply;isolation: isolate"/>
              <circle id="Elipse_8374" data-name="Elipse 8374" cx="1.61" cy="1.61" r="1.61" transform="translate(7.018 27.059)" fill="#52bbd0" style="mix-blend-mode: multiply;isolation: isolate"/>
              <path id="Trazado_712109" data-name="Trazado 712109" d="M1561.774,1865.593a1,1,0,1,1-1-1A1,1,0,0,1,1561.774,1865.593Z" transform="translate(-1553.147 -1851.552)" fill="#52bbd0" style="mix-blend-mode: multiply;isolation: isolate"/>
              <path id="Trazado_712110" data-name="Trazado 712110" d="M1547.179,1788.37a1,1,0,1,1-1-1A1,1,0,0,1,1547.179,1788.37Z" transform="translate(-1541.016 -1787.368)" fill="#52bbd0" style="mix-blend-mode: multiply;isolation: isolate"/>
              <path id="Trazado_712111" data-name="Trazado 712111" d="M1544.526,1991.417a1,1,0,1,1-1-1A1,1,0,0,1,1544.526,1991.417Z" transform="translate(-1538.811 -1956.13)" fill="#52bbd0" style="mix-blend-mode: multiply;isolation: isolate"/>
            </g>
          </g>
        </g>
        <path id="Trazado_712112" data-name="Trazado 712112" d="M1529.873,1706.755h-8.816a2.008,2.008,0,0,1-2.008-2.008h0a2.008,2.008,0,0,1,2.008-2.008h8.816a2.008,2.008,0,0,1,2.008,2.008h0A2.008,2.008,0,0,1,1529.873,1706.755Z" transform="translate(-1519.049 -1702.739)" fill="#fff"/>
        <g id="Grupo_1002660" data-name="Grupo 1002660" transform="translate(3.119 4.895)" opacity="0.5">
          <path id="Trazado_712113" data-name="Trazado 712113" d="M1537.522,1732.544v33.729a.845.845,0,0,0,1.689,0v-33.729a.845.845,0,0,0-1.689,0Z" transform="translate(-1537.522 -1731.728)" fill="#fff"/>
        </g>
      </g>
      <g id="Grupo_1002666" data-name="Grupo 1002666" transform="translate(27.405)">
        <rect id="Rectángulo_346642" data-name="Rectángulo 346642" width="9.364" height="20.134" transform="translate(1.734 1.866)" fill="#fff"/>
        <g id="Grupo_1002664" data-name="Grupo 1002664" transform="translate(1.734 12.281)">
          <path id="Rectángulo_346643" data-name="Rectángulo 346643" d="M0,0H9.364a0,0,0,0,1,0,0V36.414A4.682,4.682,0,0,1,4.682,41.1h0A4.682,4.682,0,0,1,0,36.414V0A0,0,0,0,1,0,0Z" fill="#52bbd0"/>
          <g id="Grupo_1002663" data-name="Grupo 1002663" clip-path="url(#clip-path-8)">
            <g id="Grupo_1002662" data-name="Grupo 1002662" transform="translate(-1.481 2.009)">
              <circle id="Elipse_8375" data-name="Elipse 8375" cx="1.61" cy="1.61" r="1.61" transform="translate(2.101 19.642)" fill="#52bbd0" style="mix-blend-mode: multiply;isolation: isolate"/>
              <circle id="Elipse_8376" data-name="Elipse 8376" cx="1.61" cy="1.61" r="1.61" transform="translate(0 10.016) rotate(-22.363)" fill="#52bbd0" style="mix-blend-mode: multiply;isolation: isolate"/>
              <circle id="Elipse_8377" data-name="Elipse 8377" cx="1.61" cy="1.61" r="1.61" transform="translate(8.02 4.798)" fill="#52bbd0" style="mix-blend-mode: multiply;isolation: isolate"/>
              <circle id="Elipse_8378" data-name="Elipse 8378" cx="1.61" cy="1.61" r="1.61" transform="translate(7.018 27.059)" fill="#52bbd0" style="mix-blend-mode: multiply;isolation: isolate"/>
              <path id="Trazado_712114" data-name="Trazado 712114" d="M1670.274,1865.593a1,1,0,1,1-1-1A1,1,0,0,1,1670.274,1865.593Z" transform="translate(-1661.647 -1851.552)" fill="#52bbd0" style="mix-blend-mode: multiply;isolation: isolate"/>
              <path id="Trazado_712115" data-name="Trazado 712115" d="M1655.679,1788.37a1,1,0,1,1-1-1A1,1,0,0,1,1655.679,1788.37Z" transform="translate(-1649.516 -1787.368)" fill="#52bbd0" style="mix-blend-mode: multiply;isolation: isolate"/>
              <path id="Trazado_712116" data-name="Trazado 712116" d="M1653.026,1991.417a1,1,0,1,1-1-1A1,1,0,0,1,1653.026,1991.417Z" transform="translate(-1647.311 -1956.13)" fill="#52bbd0" style="mix-blend-mode: multiply;isolation: isolate"/>
            </g>
          </g>
        </g>
        <path id="Trazado_712117" data-name="Trazado 712117" d="M1638.373,1706.755h-8.816a2.008,2.008,0,0,1-2.008-2.008h0a2.008,2.008,0,0,1,2.008-2.008h8.816a2.008,2.008,0,0,1,2.008,2.008h0A2.008,2.008,0,0,1,1638.373,1706.755Z" transform="translate(-1627.549 -1702.739)" fill="#fff"/>
        <g id="Grupo_1002665" data-name="Grupo 1002665" transform="translate(3.119 4.895)" opacity="0.5">
          <path id="Trazado_712118" data-name="Trazado 712118" d="M1646.022,1732.544v33.729a.845.845,0,0,0,1.688,0v-33.729a.845.845,0,0,0-1.688,0Z" transform="translate(-1646.022 -1731.728)" fill="#fff"/>
        </g>
      </g>
      <g id="Grupo_1002671" data-name="Grupo 1002671" transform="translate(45.726)">
        <rect id="Rectángulo_346645" data-name="Rectángulo 346645" width="9.364" height="20.134" transform="translate(1.734 1.866)" fill="#fff"/>
        <g id="Grupo_1002669" data-name="Grupo 1002669" transform="translate(1.734 12.281)">
          <path id="Rectángulo_346646" data-name="Rectángulo 346646" d="M0,0H9.364a0,0,0,0,1,0,0V36.414A4.682,4.682,0,0,1,4.682,41.1h0A4.682,4.682,0,0,1,0,36.414V0A0,0,0,0,1,0,0Z" fill="#52bbd0"/>
          <g id="Grupo_1002668" data-name="Grupo 1002668" clip-path="url(#clip-path-8)">
            <g id="Grupo_1002667" data-name="Grupo 1002667" transform="translate(-1.481 2.009)">
              <circle id="Elipse_8379" data-name="Elipse 8379" cx="1.61" cy="1.61" r="1.61" transform="translate(2.101 19.642)" fill="#52bbd0" style="mix-blend-mode: multiply;isolation: isolate"/>
              <circle id="Elipse_8380" data-name="Elipse 8380" cx="1.61" cy="1.61" r="1.61" transform="translate(0 10.016) rotate(-22.363)" fill="#52bbd0" style="mix-blend-mode: multiply;isolation: isolate"/>
              <circle id="Elipse_8381" data-name="Elipse 8381" cx="1.61" cy="1.61" r="1.61" transform="translate(8.02 4.798)" fill="#52bbd0" style="mix-blend-mode: multiply;isolation: isolate"/>
              <circle id="Elipse_8382" data-name="Elipse 8382" cx="1.61" cy="1.61" r="1.61" transform="translate(7.018 27.059)" fill="#52bbd0" style="mix-blend-mode: multiply;isolation: isolate"/>
              <path id="Trazado_712119" data-name="Trazado 712119" d="M1778.774,1865.593a1,1,0,1,1-1-1A1,1,0,0,1,1778.774,1865.593Z" transform="translate(-1770.147 -1851.552)" fill="#52bbd0" style="mix-blend-mode: multiply;isolation: isolate"/>
              <path id="Trazado_712120" data-name="Trazado 712120" d="M1764.179,1788.37a1,1,0,1,1-1-1A1,1,0,0,1,1764.179,1788.37Z" transform="translate(-1758.016 -1787.368)" fill="#52bbd0" style="mix-blend-mode: multiply;isolation: isolate"/>
              <path id="Trazado_712121" data-name="Trazado 712121" d="M1761.526,1991.417a1,1,0,1,1-1-1A1,1,0,0,1,1761.526,1991.417Z" transform="translate(-1755.811 -1956.13)" fill="#52bbd0" style="mix-blend-mode: multiply;isolation: isolate"/>
            </g>
          </g>
        </g>
        <path id="Trazado_712122" data-name="Trazado 712122" d="M1746.873,1706.755h-8.816a2.008,2.008,0,0,1-2.008-2.008h0a2.008,2.008,0,0,1,2.008-2.008h8.816a2.008,2.008,0,0,1,2.008,2.008h0A2.008,2.008,0,0,1,1746.873,1706.755Z" transform="translate(-1736.049 -1702.739)" fill="#fff"/>
        <g id="Grupo_1002670" data-name="Grupo 1002670" transform="translate(3.119 4.895)" opacity="0.5">
          <path id="Trazado_712123" data-name="Trazado 712123" d="M1754.522,1732.544v33.729a.845.845,0,0,0,1.689,0v-33.729a.845.845,0,0,0-1.689,0Z" transform="translate(-1754.522 -1731.728)" fill="#fff"/>
        </g>
      </g>
      <rect id="Rectángulo_346648" data-name="Rectángulo 346648" width="68.842" height="3.576" transform="translate(0 55.381)" fill="#0b2d4e"/>
      <rect id="Rectángulo_346649" data-name="Rectángulo 346649" width="3.571" height="24.136" transform="translate(2.395 33.034)" fill="#0b2d4e"/>
      <rect id="Rectángulo_346650" data-name="Rectángulo 346650" width="3.571" height="24.136" transform="translate(62.619 33.034)" fill="#0b2d4e"/>
      <line id="Línea_2424" data-name="Línea 2424" x2="67.173" transform="translate(0.706 33.034)" fill="none" stroke="#0b2d4e" stroke-miterlimit="10" stroke-width="8"/>
      <line id="Línea_2425" data-name="Línea 2425" x2="67.173" transform="translate(0.706 45.101)" fill="none" stroke="#0b2d4e" stroke-miterlimit="10" stroke-width="8"/>
    </g>
  </g>
</svg>
