<svg xmlns="http://www.w3.org/2000/svg" width="400" height="506" viewBox="0 0 400 506">
  <g id="Grupo_1013269" data-name="Grupo 1013269" transform="translate(-180 -1445)">
    <path id="Trazado_715340" data-name="Trazado 715340" d="M19,0H381a19,19,0,0,1,19,19V487a19,19,0,0,1-19,19H19A19,19,0,0,1,0,487V19A19,19,0,0,1,19,0Z" transform="translate(180 1445)" fill="#85c8f2"/>
    <path id="Trazado_716178" data-name="Trazado 716178" d="M0,0H399V46a20,20,0,0,1-20,20H20A20,20,0,0,1,0,46Z" transform="translate(181 1885)" fill="#0071b3" opacity="0.9"/>
    <path id="Trazado_716179" data-name="Trazado 716179" d="M5.7,0H1.892V-18.484H5.7Zm6.665-13.736.114,1.587a4.8,4.8,0,0,1,3.948-1.841,3.986,3.986,0,0,1,3.25,1.282A5.983,5.983,0,0,1,20.77-8.874V0H17.1V-8.785a2.38,2.38,0,0,0-.508-1.695,2.273,2.273,0,0,0-1.688-.527,2.524,2.524,0,0,0-2.323,1.32V0H8.912V-13.736ZM30.989-3.8a1.182,1.182,0,0,0-.667-1.06,7.571,7.571,0,0,0-2.139-.692q-4.9-1.028-4.9-4.164A3.774,3.774,0,0,1,24.8-12.765a6.12,6.12,0,0,1,3.967-1.225,6.587,6.587,0,0,1,4.183,1.231,3.881,3.881,0,0,1,1.568,3.2H30.85a1.775,1.775,0,0,0-.508-1.3,2.149,2.149,0,0,0-1.587-.514,2.2,2.2,0,0,0-1.435.419,1.323,1.323,0,0,0-.508,1.066,1.131,1.131,0,0,0,.578.984,5.942,5.942,0,0,0,1.949.647,15.917,15.917,0,0,1,2.311.616q2.907,1.066,2.907,3.694A3.583,3.583,0,0,1,32.944-.908,6.955,6.955,0,0,1,28.78.254a7.264,7.264,0,0,1-3.066-.616,5.144,5.144,0,0,1-2.1-1.688,3.923,3.923,0,0,1-.762-2.317H26.33a1.915,1.915,0,0,0,.724,1.5,2.87,2.87,0,0,0,1.8.521,2.657,2.657,0,0,0,1.593-.4A1.244,1.244,0,0,0,30.989-3.8ZM44.878,0a4.074,4.074,0,0,1-.368-1.231A4.439,4.439,0,0,1,41.044.254,4.877,4.877,0,0,1,37.7-.914a3.756,3.756,0,0,1-1.327-2.945,3.882,3.882,0,0,1,1.619-3.352,7.987,7.987,0,0,1,4.678-1.181h1.688v-.787a2.264,2.264,0,0,0-.489-1.523,1.923,1.923,0,0,0-1.542-.571,2.186,2.186,0,0,0-1.454.444,1.509,1.509,0,0,0-.527,1.219H36.677a3.685,3.685,0,0,1,.736-2.209A4.867,4.867,0,0,1,39.5-13.413a7.588,7.588,0,0,1,3.021-.578,6,6,0,0,1,4.031,1.276,4.463,4.463,0,0,1,1.492,3.586v5.954a6.567,6.567,0,0,0,.546,2.958V0ZM41.844-2.552a3.16,3.16,0,0,0,1.5-.362,2.376,2.376,0,0,0,1.016-.971V-6.246H42.986q-2.755,0-2.933,1.9l-.013.216A1.469,1.469,0,0,0,40.523-3,1.874,1.874,0,0,0,41.844-2.552ZM55.25-17.113v3.377H57.6v2.691H55.25v6.855A1.637,1.637,0,0,0,55.542-3.1a1.467,1.467,0,0,0,1.117.33,5.851,5.851,0,0,0,1.079-.089v2.78a7.553,7.553,0,0,1-2.222.33q-3.859,0-3.936-3.9v-7.4H49.575v-2.691h2.006v-3.377ZM67.869-1.4A4.6,4.6,0,0,1,64.111.254a4.339,4.339,0,0,1-3.371-1.27,5.419,5.419,0,0,1-1.187-3.72v-9h3.669v8.884q0,2.148,1.955,2.148A2.649,2.649,0,0,0,67.742-4v-9.736h3.682V0H67.971ZM81.91-10.3a9.968,9.968,0,0,0-1.32-.1A2.687,2.687,0,0,0,77.86-8.988V0H74.191V-13.736h3.466l.1,1.638a3.4,3.4,0,0,1,3.06-1.892,3.844,3.844,0,0,1,1.143.165ZM91.254,0a4.074,4.074,0,0,1-.368-1.231A4.439,4.439,0,0,1,87.42.254,4.877,4.877,0,0,1,84.075-.914a3.756,3.756,0,0,1-1.327-2.945,3.882,3.882,0,0,1,1.619-3.352,7.987,7.987,0,0,1,4.678-1.181h1.688v-.787a2.264,2.264,0,0,0-.489-1.523,1.923,1.923,0,0,0-1.542-.571,2.186,2.186,0,0,0-1.454.444,1.509,1.509,0,0,0-.527,1.219H83.053a3.686,3.686,0,0,1,.736-2.209,4.867,4.867,0,0,1,2.082-1.593,7.588,7.588,0,0,1,3.021-.578,6,6,0,0,1,4.031,1.276,4.463,4.463,0,0,1,1.492,3.586v5.954a6.567,6.567,0,0,0,.546,2.958V0ZM88.22-2.552a3.16,3.16,0,0,0,1.5-.362,2.376,2.376,0,0,0,1.016-.971V-6.246H89.362q-2.755,0-2.933,1.9l-.013.216A1.469,1.469,0,0,0,86.9-3,1.874,1.874,0,0,0,88.22-2.552ZM96.662-6.97A8.278,8.278,0,0,1,98.1-12.086a4.675,4.675,0,0,1,3.942-1.9,4.207,4.207,0,0,1,3.313,1.5V-19.5h3.682V0h-3.313l-.178-1.46A4.318,4.318,0,0,1,102.02.254a4.663,4.663,0,0,1-3.891-1.911A8.545,8.545,0,0,1,96.662-6.97Zm3.669.273A5.423,5.423,0,0,0,101-3.734a2.192,2.192,0,0,0,1.955,1.03,2.455,2.455,0,0,0,2.4-1.437V-9.57a2.42,2.42,0,0,0-2.374-1.437Q100.331-11.007,100.331-6.7ZM119.844,0a4.074,4.074,0,0,1-.368-1.231A4.439,4.439,0,0,1,116.01.254a4.877,4.877,0,0,1-3.345-1.168,3.756,3.756,0,0,1-1.327-2.945,3.882,3.882,0,0,1,1.619-3.352,7.987,7.987,0,0,1,4.678-1.181h1.688v-.787a2.264,2.264,0,0,0-.489-1.523,1.923,1.923,0,0,0-1.542-.571,2.186,2.186,0,0,0-1.454.444,1.509,1.509,0,0,0-.527,1.219h-3.669a3.686,3.686,0,0,1,.736-2.209,4.867,4.867,0,0,1,2.082-1.593,7.588,7.588,0,0,1,3.021-.578,6,6,0,0,1,4.031,1.276A4.463,4.463,0,0,1,123-9.128v5.954a6.567,6.567,0,0,0,.546,2.958V0ZM116.81-2.552a3.16,3.16,0,0,0,1.5-.362,2.376,2.376,0,0,0,1.016-.971V-6.246h-1.371q-2.755,0-2.933,1.9l-.013.216A1.469,1.469,0,0,0,115.489-3,1.874,1.874,0,0,0,116.81-2.552ZM133.263-3.8a1.182,1.182,0,0,0-.667-1.06,7.571,7.571,0,0,0-2.139-.692q-4.9-1.028-4.9-4.164a3.774,3.774,0,0,1,1.517-3.053,6.12,6.12,0,0,1,3.967-1.225,6.587,6.587,0,0,1,4.183,1.231,3.881,3.881,0,0,1,1.568,3.2h-3.669a1.775,1.775,0,0,0-.508-1.3,2.149,2.149,0,0,0-1.587-.514,2.2,2.2,0,0,0-1.435.419,1.322,1.322,0,0,0-.508,1.066,1.131,1.131,0,0,0,.578.984,5.942,5.942,0,0,0,1.949.647,15.917,15.917,0,0,1,2.311.616q2.907,1.066,2.907,3.694a3.583,3.583,0,0,1-1.612,3.041A6.955,6.955,0,0,1,131.054.254a7.264,7.264,0,0,1-3.066-.616,5.144,5.144,0,0,1-2.1-1.688,3.923,3.923,0,0,1-.762-2.317H128.6a1.915,1.915,0,0,0,.724,1.5,2.87,2.87,0,0,0,1.8.521,2.657,2.657,0,0,0,1.593-.4A1.244,1.244,0,0,0,133.263-3.8Z" transform="translate(324 1928)" fill="#f6f6f6"/>
    <g id="Grupo_1011182" data-name="Grupo 1011182" transform="translate(285 1669.806)">
      <path id="Trazado_715323" data-name="Trazado 715323" d="M464.114,2623.48l33.564,9-.586,40.949-33-10.688Z" transform="translate(-464.093 -2614.583)" fill="#edf0f4"/>
      <path id="Trazado_715324" data-name="Trazado 715324" d="M532.254,2632.242l29.352-9.226-1.317,36.327-28.62,13.847Z" transform="translate(-498.668 -2614.346)" fill="#c8cddb"/>
      <path id="Trazado_715325" data-name="Trazado 715325" d="M464.137,2614.159l28.447-8.9,34.468,8.671-29.352,9.225Z" transform="translate(-464.115 -2605.262)" fill="#dadee5"/>
      <path id="Trazado_715326" data-name="Trazado 715326" d="M535.25,2653.948a.975.975,0,0,1,.342.324c.146.316-.187.626-.419.885a3.857,3.857,0,0,0-.734,2.185,5.544,5.544,0,0,0,.2,2.974,1.938,1.938,0,0,0,2.462,1.1,1.647,1.647,0,0,0-.861-1.178,1.432,1.432,0,0,0,1.772-.759,2.338,2.338,0,0,0-.145-2.054,6.92,6.92,0,0,0-1.353-1.641,1.9,1.9,0,0,0,1.971-1.067,2.308,2.308,0,0,0-.256-2.282,3.11,3.11,0,0,0,3.044-.74,1.98,1.98,0,0,0-.218-2.884,2.221,2.221,0,0,0,1.547.057,1.331,1.331,0,0,0,.884-1.193,2.052,2.052,0,0,0-.973-1.439,1.939,1.939,0,0,0-1.339-.548c-.492.057-.905.68-.59,1.062a3.632,3.632,0,0,0-1.776-1.057,1.487,1.487,0,0,0-1.7.887,1.732,1.732,0,0,0-1.082,3.095,5.774,5.774,0,0,0-1.334,2.035A2.057,2.057,0,0,0,535.25,2653.948Z" transform="translate(-500.031 -2625.939)" fill="#dadee5"/>
      <path id="Trazado_715327" data-name="Trazado 715327" d="M554.421,2639.548a1.023,1.023,0,0,0-.674.217.548.548,0,0,0-.147.653l-.568.023c-.053.624-.055,1.365.451,1.733a1.866,1.866,0,0,0,1.534.075l.273-.067a6.011,6.011,0,0,1,2.209-.253,1.816,1.816,0,0,0,.156-1.691.948.948,0,0,0-1.493-.034l-.279.031A1.89,1.89,0,0,0,554.421,2639.548Z" transform="translate(-509.587 -2622.804)" fill="#dadee5"/>
      <path id="Trazado_715328" data-name="Trazado 715328" d="M543.642,2683.185a1.354,1.354,0,0,0-1.053.42c-.4.55.106,1.286.583,1.77l1.459,1.481c.219.222.5.464.8.379-.551.755-1.005,1.844-.408,2.564.536.646,1.54.531,2.361.356a1.632,1.632,0,0,0,1.666-2.756,6.456,6.456,0,0,0,2.52-1.626,3.363,3.363,0,0,0,.878-2.787,2.3,2.3,0,0,0-2.067-1.887,3.854,3.854,0,0,0-.627.054l-1.1.157a12.3,12.3,0,0,0-2.2.453,1.529,1.529,0,0,0-1.006.763c-.16.4.171.979.594.878A7.923,7.923,0,0,0,543.642,2683.185Z" transform="translate(-504.182 -2644.064)" fill="#dadee5"/>
      <path id="Trazado_715329" data-name="Trazado 715329" d="M519.439,2629.015c.812-.07,1.614.475,2.406.283a2.01,2.01,0,0,0,1.278-2.058.724.724,0,0,0-.579-.814,3.9,3.9,0,0,0-3.157.254c.568-.158.657-1.008.285-1.467a2.685,2.685,0,0,0-1.565-.75,14.769,14.769,0,0,0-3.407-.486.537.537,0,0,0-.334.081.559.559,0,0,0-.15.424c-.037.6.027,1.366.6,1.565a9.956,9.956,0,0,0-2.049-.111,1.8,1.8,0,0,0-.831.188.7.7,0,0,0-.373.713c.1.467.719.56,1.2.55l2.835-.056q-.05.74-.1,1.481a4.139,4.139,0,0,0,3.075.412A5.3,5.3,0,0,1,519.439,2629.015Z" transform="translate(-488.373 -2614.837)" fill="#edf0f4"/>
      <path id="Trazado_715330" data-name="Trazado 715330" d="M505.512,2626.642a1.236,1.236,0,0,0-1.489.069,1.464,1.464,0,0,0-.175,1.115.45.45,0,0,0,.111.3.39.39,0,0,0,.215.08,1.687,1.687,0,0,0,1.633-.787.57.57,0,0,0,.1-.34C505.887,2626.874,505.694,2626.735,505.512,2626.642Z" transform="translate(-484.419 -2616.092)" fill="#edf0f4"/>
      <path id="Trazado_715331" data-name="Trazado 715331" d="M535.769,2622.872a3.763,3.763,0,0,0-2.271-.049c-.2.06-.442.262-.315.43a4.649,4.649,0,0,0,3.058.6.441.441,0,0,0,.092-.606A1.045,1.045,0,0,0,535.769,2622.872Z" transform="translate(-499.425 -2614.169)" fill="#edf0f4"/>
      <path id="Trazado_715332" data-name="Trazado 715332" d="M513.582,2615.928a3.937,3.937,0,0,0,2.312.574,1.224,1.224,0,0,0-.1.719,6.64,6.64,0,0,0,3.49-.12c.295-.092.64-.291.607-.6a4.048,4.048,0,0,0-1.62-.521,1.646,1.646,0,0,0,.795-.144c0-.153-.009-.306-.014-.459l-2.785-.748a5.037,5.037,0,0,0-1.364-.235l-.134.767A1.156,1.156,0,0,0,513.582,2615.928Z" transform="translate(-489.414 -2609.936)" fill="#edf0f4"/>
      <path id="Trazado_715333" data-name="Trazado 715333" d="M468.186,2629.607q.11.648.22,1.3l.056,33.735a1.512,1.512,0,0,0,2.147-.852c.059-.219.066-.45.141-.664a2.535,2.535,0,0,1,.637-.863,19.792,19.792,0,0,0,2.643-3.838,6.783,6.783,0,0,0,1.238-4.658q-.055-2.75-.11-5.5a2.377,2.377,0,0,0,1.662-1.729,7,7,0,0,0,.109-2.5,6.031,6.031,0,0,0,2.848.081,2.071,2.071,0,0,0,1.579-2.109,7.241,7.241,0,0,0,2.4.376,2.456,2.456,0,0,0,2.029-1.162,1.857,1.857,0,0,0,3.57-.514,2.755,2.755,0,0,0,4.239-.9,1.208,1.208,0,0,1,.336-.571,1.3,1.3,0,0,1,.84-.084,2.186,2.186,0,0,0,2.108-2.682,35.161,35.161,0,0,1-6.066-.724c-1.468-.307-2.914-.707-4.36-1.107C480.351,2632.945,474.286,2631.294,468.186,2629.607Z" transform="translate(-466.187 -2617.718)" fill="#fff"/>
    </g>
    <g id="Grupo_1011183" data-name="Grupo 1011183" transform="translate(414.018 1568)">
      <path id="Trazado_715334" data-name="Trazado 715334" d="M700.214,2495.952H631.693s-.165,183.4-.165,184.5a34.335,34.335,0,0,0,68.67,0c0-.043-.007-.085-.007-.118h.023Z" transform="translate(-625.455 -2488.359)" fill="#e3e8ec"/>
      <path id="Trazado_715335" data-name="Trazado 715335" d="M700.214,2495.952H631.693s-.165,183.4-.165,184.5a34.335,34.335,0,0,0,68.67,0c0-.043-.007-.085-.007-.118h.023Z" transform="translate(-625.455 -2488.359)" fill="#e3e8ec"/>
      <path id="Trazado_715336" data-name="Trazado 715336" d="M697.247,2557.888c-3.563-.159-3.688-3.243-7.447-3.243-3.852,0-3.852,3.272-7.714,3.272-3.845,0-3.845-3.272-7.7-3.272s-3.853,3.272-7.706,3.272-3.853-3.272-7.7-3.272-3.862,3.272-7.714,3.272-3.845-3.272-7.706-3.272c-3.571,0-3.869,2.784-6.968,3.19V2686.6h.008c-.008,3.1-.008,4.9-.008,5.011a30.314,30.314,0,1,0,60.627,0v-.106h.016v-4.9h.016Z" transform="translate(-626.529 -2500.818)" fill="#05b5ce"/>
      <path id="Trazado_715337" data-name="Trazado 715337" d="M654.942,2693.763v-.012h0V2557.486a4.823,4.823,0,0,1-2.1.432c-3.845,0-3.845-3.272-7.706-3.272a5.4,5.4,0,0,0-1.075.106c-.008,49.491-.016,138.907-.016,139.011a5.446,5.446,0,0,0,10.892,0Z" transform="translate(-628.113 -2500.818)" fill="#8ccfda"/>
      <path id="Trazado_715338" data-name="Trazado 715338" d="M702.423,2495.952h-8.553V2673.19h-.024v.122a34.324,34.324,0,0,1-51.728,29.558,34.326,34.326,0,0,0,60.289-22.422v-.118h.016Z" transform="translate(-627.703 -2488.359)" fill="#d9d9d9" style="mix-blend-mode: multiply;isolation: isolate"/>
      <rect id="Rectángulo_347188" data-name="Rectángulo 347188" width="80.982" height="17.124" transform="translate(0)" fill="#c8d2d8"/>
      <path id="Trazado_715339" data-name="Trazado 715339" d="M702.358,2492.85a3.407,3.407,0,0,1-3.413,3.413H629.662a3.412,3.412,0,0,1-3.413-3.413h0a3.416,3.416,0,0,1,3.413-3.414h69.282a3.411,3.411,0,0,1,3.413,3.414Z" transform="translate(-624.334 -2486.976)" fill="#f5f5f5"/>
    </g>
    <path id="Trazado_716180" data-name="Trazado 716180" d="M0,0H49V8H0Z" transform="translate(355 1694)" fill="#636363"/>
    <path id="Trazado_716181" data-name="Trazado 716181" d="M7.5,0,15,12H0Z" transform="translate(413.5 1690.5) rotate(90)" fill="#636363"/>
    <path id="Trazado_716182" data-name="Trazado 716182" d="M-78.07-11.375l2.922,8.25,2.906-8.25h3.078V0h-2.352V-3.109l.234-5.367L-74.352,0h-1.609l-3.062-8.469.234,5.359V0h-2.344V-11.375ZM-62.367,0a2.507,2.507,0,0,1-.227-.758,2.732,2.732,0,0,1-2.133.914,3,3,0,0,1-2.059-.719A2.312,2.312,0,0,1-67.6-2.375a2.389,2.389,0,0,1,1-2.062,4.915,4.915,0,0,1,2.879-.727h1.039v-.484a1.393,1.393,0,0,0-.3-.937,1.183,1.183,0,0,0-.949-.352,1.345,1.345,0,0,0-.895.273.929.929,0,0,0-.324.75h-2.258a2.268,2.268,0,0,1,.453-1.359,3,3,0,0,1,1.281-.98,4.669,4.669,0,0,1,1.859-.355,3.689,3.689,0,0,1,2.48.785,2.747,2.747,0,0,1,.918,2.207v3.664a4.041,4.041,0,0,0,.336,1.82V0Zm-1.867-1.57a1.945,1.945,0,0,0,.922-.223,1.462,1.462,0,0,0,.625-.6V-3.844h-.844q-1.7,0-1.8,1.172l-.008.133a.9.9,0,0,0,.3.7A1.153,1.153,0,0,0-64.234-1.57ZM-63.375-12h2.461l-2.164,2.422h-1.836Zm9.266,9.664a.727.727,0,0,0-.41-.652,4.659,4.659,0,0,0-1.316-.426q-3.016-.633-3.016-2.562a2.323,2.323,0,0,1,.934-1.879,3.766,3.766,0,0,1,2.441-.754,4.053,4.053,0,0,1,2.574.758,2.388,2.388,0,0,1,.965,1.969H-54.2a1.092,1.092,0,0,0-.312-.8A1.322,1.322,0,0,0-55.484-7a1.351,1.351,0,0,0-.883.258.814.814,0,0,0-.312.656.7.7,0,0,0,.355.605,3.657,3.657,0,0,0,1.2.4A9.8,9.8,0,0,1-53.7-4.7,2.336,2.336,0,0,1-51.914-2.43a2.2,2.2,0,0,1-.992,1.871,4.28,4.28,0,0,1-2.562.715,4.47,4.47,0,0,1-1.887-.379,3.166,3.166,0,0,1-1.293-1.039,2.414,2.414,0,0,1-.469-1.426h2.141a1.179,1.179,0,0,0,.445.922,1.766,1.766,0,0,0,1.109.32,1.635,1.635,0,0,0,.98-.246A.766.766,0,0,0-54.109-2.336Zm12.211,0a.727.727,0,0,0-.41-.652,4.659,4.659,0,0,0-1.316-.426q-3.016-.633-3.016-2.562a2.323,2.323,0,0,1,.934-1.879,3.766,3.766,0,0,1,2.441-.754,4.053,4.053,0,0,1,2.574.758,2.388,2.388,0,0,1,.965,1.969h-2.258a1.092,1.092,0,0,0-.312-.8A1.322,1.322,0,0,0-43.273-7a1.351,1.351,0,0,0-.883.258.814.814,0,0,0-.312.656.7.7,0,0,0,.355.605,3.657,3.657,0,0,0,1.2.4,9.8,9.8,0,0,1,1.422.379A2.336,2.336,0,0,1-39.7-2.43,2.2,2.2,0,0,1-40.7-.559a4.28,4.28,0,0,1-2.562.715,4.47,4.47,0,0,1-1.887-.379,3.166,3.166,0,0,1-1.293-1.039,2.414,2.414,0,0,1-.469-1.426h2.141a1.179,1.179,0,0,0,.445.922,1.766,1.766,0,0,0,1.109.32,1.635,1.635,0,0,0,.98-.246A.766.766,0,0,0-41.9-2.336ZM-38.6-4.3a5.013,5.013,0,0,1,.484-2.242A3.546,3.546,0,0,1-36.723-8.07a4.069,4.069,0,0,1,2.113-.539,3.849,3.849,0,0,1,2.793,1.047,4.2,4.2,0,0,1,1.207,2.844l.016.578A4.418,4.418,0,0,1-31.68-1.02,3.775,3.775,0,0,1-34.594.156a3.793,3.793,0,0,1-2.918-1.172A4.5,4.5,0,0,1-38.6-4.2Zm2.258.16A3.16,3.16,0,0,0-35.891-2.3a1.5,1.5,0,0,0,1.3.638,1.5,1.5,0,0,0,1.281-.63,3.457,3.457,0,0,0,.461-2.015,3.128,3.128,0,0,0-.461-1.831,1.5,1.5,0,0,0-1.3-.649,1.474,1.474,0,0,0-1.281.646A3.516,3.516,0,0,0-36.344-4.144ZM-26.82,0h-2.266V-12h2.266ZM-19.9-.859A2.831,2.831,0,0,1-22.211.156a2.67,2.67,0,0,1-2.074-.781,3.335,3.335,0,0,1-.73-2.289V-8.453h2.258v5.467q0,1.322,1.2,1.322a1.63,1.63,0,0,0,1.578-.8V-8.453h2.266V0h-2.125Zm6.594-9.672v2.078h1.445V-6.8H-13.3v4.219a1.007,1.007,0,0,0,.18.672.9.9,0,0,0,.688.2,3.6,3.6,0,0,0,.664-.055V-.047a4.648,4.648,0,0,1-1.367.2,2.156,2.156,0,0,1-2.422-2.4V-6.8H-16.8V-8.453h1.234v-2.078ZM-11.187-4.3A5.013,5.013,0,0,1-10.7-6.547,3.546,3.546,0,0,1-9.309-8.07,4.069,4.069,0,0,1-7.2-8.609,3.849,3.849,0,0,1-4.4-7.562,4.2,4.2,0,0,1-3.2-4.719l.016.578A4.418,4.418,0,0,1-4.266-1.02,3.775,3.775,0,0,1-7.18.156,3.793,3.793,0,0,1-10.1-1.016,4.5,4.5,0,0,1-11.187-4.2Zm2.258.16A3.16,3.16,0,0,0-8.477-2.3a1.5,1.5,0,0,0,1.3.638A1.5,1.5,0,0,0-5.9-2.294a3.457,3.457,0,0,0,.461-2.015A3.128,3.128,0,0,0-5.9-6.14a1.5,1.5,0,0,0-1.3-.649,1.474,1.474,0,0,0-1.281.646A3.516,3.516,0,0,0-8.93-4.144Zm15.7,1.808a.727.727,0,0,0-.41-.652,4.659,4.659,0,0,0-1.316-.426Q2.031-4.047,2.031-5.977a2.323,2.323,0,0,1,.934-1.879,3.766,3.766,0,0,1,2.441-.754,4.053,4.053,0,0,1,2.574.758,2.388,2.388,0,0,1,.965,1.969H6.688a1.092,1.092,0,0,0-.312-.8A1.322,1.322,0,0,0,5.4-7a1.351,1.351,0,0,0-.883.258.814.814,0,0,0-.312.656.7.7,0,0,0,.355.605,3.657,3.657,0,0,0,1.2.4A9.8,9.8,0,0,1,7.18-4.7,2.336,2.336,0,0,1,8.969-2.43,2.2,2.2,0,0,1,7.977-.559,4.28,4.28,0,0,1,5.414.156,4.47,4.47,0,0,1,3.527-.223,3.166,3.166,0,0,1,2.234-1.262a2.414,2.414,0,0,1-.469-1.426H3.906a1.179,1.179,0,0,0,.445.922,1.766,1.766,0,0,0,1.109.32,1.635,1.635,0,0,0,.98-.246A.766.766,0,0,0,6.773-2.336ZM14.313.156A4.15,4.15,0,0,1,11.285-.984a4.054,4.054,0,0,1-1.168-3.039v-.219a5.106,5.106,0,0,1,.492-2.277A3.612,3.612,0,0,1,12-8.066a3.914,3.914,0,0,1,2.059-.543,3.508,3.508,0,0,1,2.73,1.094,4.444,4.444,0,0,1,1,3.1v.922H12.406a2.1,2.1,0,0,0,.66,1.328,2,2,0,0,0,1.395.5A2.437,2.437,0,0,0,16.5-2.609l1.109,1.242A3.389,3.389,0,0,1,16.234-.246,4.511,4.511,0,0,1,14.313.156Zm-.258-6.945a1.411,1.411,0,0,0-1.09.455,2.357,2.357,0,0,0-.535,1.3H15.57v-.181a1.681,1.681,0,0,0-.406-1.165A1.456,1.456,0,0,0,14.055-6.789Zm8.648,2.5a5.094,5.094,0,0,1,.887-3.148,2.877,2.877,0,0,1,2.426-1.172,2.589,2.589,0,0,1,2.039.922V-12H30.32V0H28.281l-.109-.9A2.657,2.657,0,0,1,26,.156,2.869,2.869,0,0,1,23.605-1.02,5.258,5.258,0,0,1,22.7-4.289Zm2.258.168A3.337,3.337,0,0,0,25.375-2.3a1.349,1.349,0,0,0,1.2.634,1.511,1.511,0,0,0,1.477-.884V-5.889a1.489,1.489,0,0,0-1.461-.884Q24.961-6.773,24.961-4.121ZM34.453,0H32.188V-8.453h2.266Zm-2.4-10.641a1.112,1.112,0,0,1,.34-.836,1.277,1.277,0,0,1,.926-.328,1.28,1.28,0,0,1,.922.328,1.105,1.105,0,0,1,.344.836,1.108,1.108,0,0,1-.348.844,1.283,1.283,0,0,1-.918.328A1.283,1.283,0,0,1,32.4-9.8,1.108,1.108,0,0,1,32.055-10.641Zm8.836,8.3a.727.727,0,0,0-.41-.652,4.659,4.659,0,0,0-1.316-.426q-3.016-.633-3.016-2.562a2.323,2.323,0,0,1,.934-1.879,3.766,3.766,0,0,1,2.441-.754,4.053,4.053,0,0,1,2.574.758,2.388,2.388,0,0,1,.965,1.969H40.8a1.092,1.092,0,0,0-.312-.8A1.322,1.322,0,0,0,39.516-7a1.351,1.351,0,0,0-.883.258.814.814,0,0,0-.312.656.7.7,0,0,0,.355.605,3.657,3.657,0,0,0,1.2.4A9.8,9.8,0,0,1,41.3-4.7,2.336,2.336,0,0,1,43.086-2.43a2.2,2.2,0,0,1-.992,1.871,4.28,4.28,0,0,1-2.562.715,4.47,4.47,0,0,1-1.887-.379,3.166,3.166,0,0,1-1.293-1.039,2.414,2.414,0,0,1-.469-1.426h2.141a1.179,1.179,0,0,0,.445.922,1.766,1.766,0,0,0,1.109.32,1.635,1.635,0,0,0,.98-.246A.766.766,0,0,0,40.891-2.336ZM49.6-.859A2.831,2.831,0,0,1,47.289.156a2.67,2.67,0,0,1-2.074-.781,3.335,3.335,0,0,1-.73-2.289V-8.453h2.258v5.467q0,1.322,1.2,1.322a1.63,1.63,0,0,0,1.578-.8V-8.453h2.266V0H49.664ZM57.383.156A4.15,4.15,0,0,1,54.355-.984a4.054,4.054,0,0,1-1.168-3.039v-.219A5.106,5.106,0,0,1,53.68-6.52a3.612,3.612,0,0,1,1.395-1.547,3.914,3.914,0,0,1,2.059-.543,3.508,3.508,0,0,1,2.73,1.094,4.444,4.444,0,0,1,1,3.1v.922H55.477a2.1,2.1,0,0,0,.66,1.328,2,2,0,0,0,1.395.5,2.437,2.437,0,0,0,2.039-.945L60.68-1.367A3.389,3.389,0,0,1,59.3-.246,4.511,4.511,0,0,1,57.383.156Zm-.258-6.945a1.411,1.411,0,0,0-1.09.455,2.357,2.357,0,0,0-.535,1.3h3.141v-.181a1.681,1.681,0,0,0-.406-1.165A1.456,1.456,0,0,0,57.125-6.789ZM64.523,0H62.258V-12h2.266Zm5.023-2.758,1.57-5.7h2.359L70.625,0H68.469L65.617-8.453h2.359ZM78.258.156A4.15,4.15,0,0,1,75.23-.984a4.054,4.054,0,0,1-1.168-3.039v-.219a5.106,5.106,0,0,1,.492-2.277,3.612,3.612,0,0,1,1.395-1.547,3.914,3.914,0,0,1,2.059-.543,3.508,3.508,0,0,1,2.73,1.094,4.444,4.444,0,0,1,1,3.1v.922H76.352a2.1,2.1,0,0,0,.66,1.328,2,2,0,0,0,1.395.5,2.437,2.437,0,0,0,2.039-.945l1.109,1.242A3.389,3.389,0,0,1,80.18-.246,4.511,4.511,0,0,1,78.258.156ZM78-6.789a1.411,1.411,0,0,0-1.09.455,2.357,2.357,0,0,0-.535,1.3h3.141v-.181a1.681,1.681,0,0,0-.406-1.165A1.456,1.456,0,0,0,78-6.789Z" transform="translate(393 1824)" fill="#12263f"/>
    <path id="Trazado_716183" data-name="Trazado 716183" d="M-68.879-2.984A1.2,1.2,0,0,0-69.348-4a6.148,6.148,0,0,0-1.687-.75,11.963,11.963,0,0,1-1.93-.777A3.153,3.153,0,0,1-74.9-8.352,2.747,2.747,0,0,1-74.383-10a3.389,3.389,0,0,1,1.492-1.129,5.616,5.616,0,0,1,2.184-.406,5.112,5.112,0,0,1,2.172.441,3.458,3.458,0,0,1,1.48,1.246,3.261,3.261,0,0,1,.527,1.828h-2.344a1.534,1.534,0,0,0-.492-1.215,2.023,2.023,0,0,0-1.383-.434,2.162,2.162,0,0,0-1.336.363,1.146,1.146,0,0,0-.477.957,1.1,1.1,0,0,0,.559.93,6.311,6.311,0,0,0,1.645.7,7.106,7.106,0,0,1,2.914,1.492A2.972,2.972,0,0,1-66.527-3,2.737,2.737,0,0,1-67.645-.684a4.891,4.891,0,0,1-3.008.84,5.808,5.808,0,0,1-2.391-.48,3.783,3.783,0,0,1-1.645-1.316,3.371,3.371,0,0,1-.566-1.937H-72.9q0,1.883,2.25,1.883a2.189,2.189,0,0,0,1.3-.34A1.106,1.106,0,0,0-68.879-2.984Zm3.438-1.32a5.013,5.013,0,0,1,.484-2.242A3.546,3.546,0,0,1-63.562-8.07a4.069,4.069,0,0,1,2.113-.539,3.849,3.849,0,0,1,2.793,1.047,4.2,4.2,0,0,1,1.207,2.844l.016.578A4.418,4.418,0,0,1-58.52-1.02,3.775,3.775,0,0,1-61.434.156a3.793,3.793,0,0,1-2.918-1.172A4.5,4.5,0,0,1-65.441-4.2Zm2.258.16A3.16,3.16,0,0,0-62.73-2.3a1.5,1.5,0,0,0,1.3.638,1.5,1.5,0,0,0,1.281-.63,3.457,3.457,0,0,0,.461-2.015,3.128,3.128,0,0,0-.461-1.831,1.5,1.5,0,0,0-1.3-.649,1.474,1.474,0,0,0-1.281.646A3.516,3.516,0,0,0-63.184-4.144ZM-53.66,0h-2.266V-12h2.266Zm6.922-.859A2.831,2.831,0,0,1-49.051.156a2.67,2.67,0,0,1-2.074-.781,3.335,3.335,0,0,1-.73-2.289V-8.453H-49.6v5.467q0,1.322,1.2,1.322a1.63,1.63,0,0,0,1.578-.8V-8.453h2.266V0h-2.125Zm7.406-.8a1.481,1.481,0,0,0,1.016-.344,1.2,1.2,0,0,0,.406-.914h2.117a2.9,2.9,0,0,1-.469,1.574A3.093,3.093,0,0,1-37.523-.238a3.949,3.949,0,0,1-1.77.395A3.67,3.67,0,0,1-42.152-1,4.56,4.56,0,0,1-43.2-4.18v-.148A4.508,4.508,0,0,1-42.16-7.445a3.627,3.627,0,0,1,2.852-1.164,3.555,3.555,0,0,1,2.543.9,3.2,3.2,0,0,1,.973,2.4H-37.91a1.551,1.551,0,0,0-.406-1.072,1.354,1.354,0,0,0-1.031-.412,1.36,1.36,0,0,0-1.191.575,3.333,3.333,0,0,0-.4,1.866v.235a3.375,3.375,0,0,0,.4,1.878A1.377,1.377,0,0,0-39.332-1.664ZM-32.121,0h-2.266V-8.453h2.266Zm-2.4-10.641a1.112,1.112,0,0,1,.34-.836,1.277,1.277,0,0,1,.926-.328,1.28,1.28,0,0,1,.922.328,1.105,1.105,0,0,1,.344.836,1.108,1.108,0,0,1-.348.844,1.283,1.283,0,0,1-.918.328,1.283,1.283,0,0,1-.918-.328A1.108,1.108,0,0,1-34.52-10.641ZM-30.613-4.3a5.013,5.013,0,0,1,.484-2.242A3.546,3.546,0,0,1-28.734-8.07a4.069,4.069,0,0,1,2.113-.539,3.849,3.849,0,0,1,2.793,1.047,4.2,4.2,0,0,1,1.207,2.844l.016.578A4.418,4.418,0,0,1-23.691-1.02,3.775,3.775,0,0,1-26.605.156a3.793,3.793,0,0,1-2.918-1.172A4.5,4.5,0,0,1-30.613-4.2Zm2.258.16A3.16,3.16,0,0,0-27.9-2.3a1.5,1.5,0,0,0,1.3.638,1.5,1.5,0,0,0,1.281-.63,3.457,3.457,0,0,0,.461-2.015,3.128,3.128,0,0,0-.461-1.831,1.5,1.5,0,0,0-1.3-.649,1.474,1.474,0,0,0-1.281.646A3.516,3.516,0,0,0-28.355-4.144ZM-26.176-12h2.461l-2.164,2.422h-1.836Zm7.039,3.547.07.977a2.951,2.951,0,0,1,2.43-1.133,2.453,2.453,0,0,1,2,.789,3.682,3.682,0,0,1,.672,2.359V0h-2.258V-5.406a1.465,1.465,0,0,0-.312-1.043,1.4,1.4,0,0,0-1.039-.324A1.553,1.553,0,0,0-19-5.961V0h-2.258V-8.453Zm12.945,0,.07.977a2.951,2.951,0,0,1,2.43-1.133,2.453,2.453,0,0,1,2,.789A3.682,3.682,0,0,1-1.02-5.461V0H-3.277V-5.406A1.465,1.465,0,0,0-3.59-6.449a1.4,1.4,0,0,0-1.039-.324,1.553,1.553,0,0,0-1.43.813V0H-8.316V-8.453ZM.34-4.3A5.013,5.013,0,0,1,.824-6.547,3.546,3.546,0,0,1,2.219-8.07a4.069,4.069,0,0,1,2.113-.539A3.849,3.849,0,0,1,7.125-7.562,4.2,4.2,0,0,1,8.332-4.719l.016.578A4.418,4.418,0,0,1,7.262-1.02,3.775,3.775,0,0,1,4.348.156,3.793,3.793,0,0,1,1.43-1.016,4.5,4.5,0,0,1,.34-4.2Zm2.258.16A3.16,3.16,0,0,0,3.051-2.3a1.5,1.5,0,0,0,1.3.638,1.5,1.5,0,0,0,1.281-.63A3.457,3.457,0,0,0,6.09-4.309,3.128,3.128,0,0,0,5.629-6.14a1.5,1.5,0,0,0-1.3-.649,1.474,1.474,0,0,0-1.281.646A3.516,3.516,0,0,0,2.6-4.144ZM18.3-2.336a.727.727,0,0,0-.41-.652,4.659,4.659,0,0,0-1.316-.426q-3.016-.633-3.016-2.562a2.323,2.323,0,0,1,.934-1.879,3.766,3.766,0,0,1,2.441-.754,4.053,4.053,0,0,1,2.574.758,2.388,2.388,0,0,1,.965,1.969H18.215a1.092,1.092,0,0,0-.312-.8A1.322,1.322,0,0,0,16.926-7a1.351,1.351,0,0,0-.883.258.814.814,0,0,0-.312.656.7.7,0,0,0,.355.605,3.657,3.657,0,0,0,1.2.4,9.8,9.8,0,0,1,1.422.379A2.336,2.336,0,0,1,20.5-2.43,2.2,2.2,0,0,1,19.5-.559a4.28,4.28,0,0,1-2.562.715,4.47,4.47,0,0,1-1.887-.379,3.166,3.166,0,0,1-1.293-1.039,2.414,2.414,0,0,1-.469-1.426h2.141a1.179,1.179,0,0,0,.445.922,1.766,1.766,0,0,0,1.109.32,1.635,1.635,0,0,0,.98-.246A.766.766,0,0,0,18.3-2.336ZM26.848,0a2.507,2.507,0,0,1-.227-.758,2.732,2.732,0,0,1-2.133.914A3,3,0,0,1,22.43-.562a2.312,2.312,0,0,1-.816-1.812,2.389,2.389,0,0,1,1-2.062,4.915,4.915,0,0,1,2.879-.727h1.039v-.484a1.393,1.393,0,0,0-.3-.937,1.183,1.183,0,0,0-.949-.352,1.345,1.345,0,0,0-.895.273.929.929,0,0,0-.324.75H21.8a2.268,2.268,0,0,1,.453-1.359,3,3,0,0,1,1.281-.98,4.669,4.669,0,0,1,1.859-.355,3.689,3.689,0,0,1,2.48.785,2.747,2.747,0,0,1,.918,2.207v3.664a4.041,4.041,0,0,0,.336,1.82V0ZM24.98-1.57a1.945,1.945,0,0,0,.922-.223,1.462,1.462,0,0,0,.625-.6V-3.844h-.844q-1.7,0-1.8,1.172l-.008.133a.9.9,0,0,0,.3.7A1.153,1.153,0,0,0,24.98-1.57Zm8.25-8.961v2.078h1.445V-6.8H33.23v4.219a1.007,1.007,0,0,0,.18.672.9.9,0,0,0,.688.2,3.6,3.6,0,0,0,.664-.055V-.047a4.648,4.648,0,0,1-1.367.2,2.156,2.156,0,0,1-2.422-2.4V-6.8H29.738V-8.453h1.234v-2.078ZM41-.859A2.831,2.831,0,0,1,38.684.156a2.67,2.67,0,0,1-2.074-.781,3.335,3.335,0,0,1-.73-2.289V-8.453h2.258v5.467q0,1.322,1.2,1.322a1.63,1.63,0,0,0,1.578-.8V-8.453h2.266V0H41.059Zm8.641-5.477a6.134,6.134,0,0,0-.812-.062,1.654,1.654,0,0,0-1.68.867V0H44.887V-8.453H47.02l.063,1.008a2.092,2.092,0,0,1,1.883-1.164,2.366,2.366,0,0,1,.7.1ZM55.387,0a2.507,2.507,0,0,1-.227-.758,2.732,2.732,0,0,1-2.133.914,3,3,0,0,1-2.059-.719,2.312,2.312,0,0,1-.816-1.812,2.389,2.389,0,0,1,1-2.062,4.915,4.915,0,0,1,2.879-.727h1.039v-.484a1.393,1.393,0,0,0-.3-.937,1.183,1.183,0,0,0-.949-.352,1.345,1.345,0,0,0-.895.273.929.929,0,0,0-.324.75H50.34a2.268,2.268,0,0,1,.453-1.359,3,3,0,0,1,1.281-.98,4.669,4.669,0,0,1,1.859-.355,3.689,3.689,0,0,1,2.48.785,2.747,2.747,0,0,1,.918,2.207v3.664a4.041,4.041,0,0,0,.336,1.82V0ZM53.52-1.57a1.945,1.945,0,0,0,.922-.223,1.462,1.462,0,0,0,.625-.6V-3.844h-.844q-1.7,0-1.8,1.172l-.008.133a.9.9,0,0,0,.3.7A1.153,1.153,0,0,0,53.52-1.57Zm5.2-2.719A5.094,5.094,0,0,1,59.6-7.437a2.877,2.877,0,0,1,2.426-1.172,2.589,2.589,0,0,1,2.039.922V-12h2.266V0H64.293l-.109-.9A2.657,2.657,0,0,1,62.012.156,2.869,2.869,0,0,1,59.617-1.02,5.258,5.258,0,0,1,58.715-4.289Zm2.258.168A3.337,3.337,0,0,0,61.387-2.3a1.349,1.349,0,0,0,1.2.634,1.511,1.511,0,0,0,1.477-.884V-5.889a1.489,1.489,0,0,0-1.461-.884Q60.973-6.773,60.973-4.121ZM72.98,0a2.507,2.507,0,0,1-.227-.758,2.732,2.732,0,0,1-2.133.914,3,3,0,0,1-2.059-.719,2.312,2.312,0,0,1-.816-1.812,2.389,2.389,0,0,1,1-2.062,4.915,4.915,0,0,1,2.879-.727H72.66v-.484a1.393,1.393,0,0,0-.3-.937,1.183,1.183,0,0,0-.949-.352,1.345,1.345,0,0,0-.895.273.929.929,0,0,0-.324.75H67.934a2.268,2.268,0,0,1,.453-1.359,3,3,0,0,1,1.281-.98,4.669,4.669,0,0,1,1.859-.355,3.689,3.689,0,0,1,2.48.785,2.747,2.747,0,0,1,.918,2.207v3.664a4.041,4.041,0,0,0,.336,1.82V0ZM71.113-1.57a1.945,1.945,0,0,0,.922-.223,1.462,1.462,0,0,0,.625-.6V-3.844h-.844q-1.7,0-1.8,1.172L70-2.539a.9.9,0,0,0,.3.7A1.153,1.153,0,0,0,71.113-1.57Z" transform="translate(393 1549)" fill="#12263f"/>
  </g>
</svg>
