<svg xmlns="http://www.w3.org/2000/svg" xmlns:xlink="http://www.w3.org/1999/xlink" width="396.327" height="432.025" viewBox="0 0 396.327 432.025">
  <defs>
    <linearGradient id="linear-gradient" x1="0.5" y1="0.975" x2="0.5" y2="-0.282" gradientUnits="objectBoundingBox">
      <stop offset="0" stop-color="#7fb9d4"/>
      <stop offset="0.057" stop-color="#9ecade"/>
      <stop offset="0.132" stop-color="#c1ddea"/>
      <stop offset="0.208" stop-color="#dcecf3"/>
      <stop offset="0.284" stop-color="#eff6f9"/>
      <stop offset="0.363" stop-color="#fbfcfd"/>
      <stop offset="0.445" stop-color="#fff"/>
      <stop offset="0.544" stop-color="#dfeff6"/>
      <stop offset="0.675" stop-color="#bcdeed"/>
      <stop offset="0.799" stop-color="#a2d2e7"/>
      <stop offset="0.91" stop-color="#93cbe3"/>
      <stop offset="1" stop-color="#8ec9e2"/>
    </linearGradient>
    <linearGradient id="linear-gradient-2" x1="-0.141" y1="0.5" x2="1.141" y2="0.5" gradientUnits="objectBoundingBox">
      <stop offset="0" stop-color="#b4bac0"/>
      <stop offset="0.25" stop-color="#b0b7bd"/>
      <stop offset="1" stop-color="#adb4ba"/>
    </linearGradient>
    <linearGradient id="linear-gradient-3" x1="0.5" y1="3.035" x2="0.5" y2="-1.14" xlink:href="#linear-gradient"/>
    <linearGradient id="linear-gradient-4" x1="0.5" y1="5.386" x2="0.5" y2="-3.613" xlink:href="#linear-gradient"/>
    <linearGradient id="linear-gradient-5" x1="0" y1="0.5" x2="1" y2="0.5" xlink:href="#linear-gradient-2"/>
    <linearGradient id="linear-gradient-6" x1="-1.729" y1="0.5" x2="2.729" y2="0.5" xlink:href="#linear-gradient-2"/>
  </defs>
  <g id="Grupo_1013265" data-name="Grupo 1013265" transform="translate(-390 -3521)">
    <path id="Trazado_716115" data-name="Trazado 716115" d="M0,0H396.327V432.025H0Z" transform="translate(390 3521)" fill="#d4e6ef"/>
    <path id="Trazado_716116" data-name="Trazado 716116" d="M118.444,4.2l2.856,8.9,2.848-8.9h4.061V17h-3.094V14.012l.3-6.117L122.32,17h-2.039l-3.1-9.114.3,6.126V17h-3.085V4.2ZM135.389,17a3.344,3.344,0,0,1-.281-.853,2.754,2.754,0,0,1-2.285,1.028,3.374,3.374,0,0,1-2.285-.813,2.588,2.588,0,0,1-.94-2.043,2.66,2.66,0,0,1,1.143-2.338,5.821,5.821,0,0,1,3.322-.791h.914v-.5q0-1.316-1.134-1.316a.927.927,0,0,0-1.055,1.042h-2.962A2.655,2.655,0,0,1,131,8.175a4.931,4.931,0,0,1,2.993-.86,4.323,4.323,0,0,1,2.874.888,3.086,3.086,0,0,1,1.081,2.435v4.21a4.311,4.311,0,0,0,.4,2V17Zm-1.854-1.934a1.652,1.652,0,0,0,.918-.237,1.487,1.487,0,0,0,.523-.536V12.772h-.861q-1.547,0-1.547,1.389a.848.848,0,0,0,.272.655A.986.986,0,0,0,133.535,15.066Zm9.5-9.94V7.49H144.6V9.547h-1.564V13.9a1.111,1.111,0,0,0,.193.747,1.037,1.037,0,0,0,.765.211,4.345,4.345,0,0,0,.738-.053v2.118a5.466,5.466,0,0,1-1.67.255,3.1,3.1,0,0,1-2.259-.721,2.954,2.954,0,0,1-.729-2.188V9.547h-1.213V7.49h1.213V5.126Zm8.481,5.045-.976-.07a1.752,1.752,0,0,0-1.793.879V17h-2.962V7.49h2.777l.1,1.222a2.294,2.294,0,0,1,2.083-1.4,2.888,2.888,0,0,1,.826.105ZM157.678,17a3.344,3.344,0,0,1-.281-.853,2.754,2.754,0,0,1-2.285,1.028,3.374,3.374,0,0,1-2.285-.813,2.588,2.588,0,0,1-.94-2.043,2.66,2.66,0,0,1,1.143-2.338,5.821,5.821,0,0,1,3.322-.791h.914v-.5q0-1.316-1.134-1.316a.927.927,0,0,0-1.055,1.042h-2.962a2.655,2.655,0,0,1,1.173-2.239,4.931,4.931,0,0,1,2.993-.86,4.323,4.323,0,0,1,2.874.888,3.086,3.086,0,0,1,1.081,2.435v4.21a4.311,4.311,0,0,0,.4,2V17Zm-1.854-1.934a1.652,1.652,0,0,0,.918-.237,1.487,1.487,0,0,0,.523-.536V12.772H156.4q-1.547,0-1.547,1.389a.848.848,0,0,0,.272.655A.986.986,0,0,0,155.824,15.066Zm9.545-.352H169.7V17h-8.077V15.348l4.219-5.572h-4.034V7.49h7.8v1.6ZM180.978,17a3.344,3.344,0,0,1-.281-.853,2.754,2.754,0,0,1-2.285,1.028,3.374,3.374,0,0,1-2.285-.813,2.588,2.588,0,0,1-.94-2.043,2.66,2.66,0,0,1,1.143-2.338,5.821,5.821,0,0,1,3.322-.791h.914v-.5q0-1.316-1.134-1.316a.927.927,0,0,0-1.055,1.042h-2.962a2.655,2.655,0,0,1,1.173-2.239,4.931,4.931,0,0,1,2.993-.86,4.323,4.323,0,0,1,2.874.888,3.086,3.086,0,0,1,1.081,2.435v4.21a4.311,4.311,0,0,0,.4,2V17Zm-1.854-1.934a1.652,1.652,0,0,0,.918-.237,1.487,1.487,0,0,0,.523-.536V12.772H179.7q-1.547,0-1.547,1.389a.848.848,0,0,0,.272.655A.986.986,0,0,0,179.124,15.066ZM185.83,17V9.547h-1.38V7.49h1.38V6.734a3.286,3.286,0,0,1,.958-2.522,3.785,3.785,0,0,1,2.689-.9,5.89,5.89,0,0,1,1.389.185l.009,2.18a2.706,2.706,0,0,0-.729-.079q-1.345,0-1.345,1.16V7.49h1.854V9.547H188.8V17Zm5.493-4.843a5.613,5.613,0,0,1,.554-2.536,3.96,3.96,0,0,1,1.591-1.709,4.791,4.791,0,0,1,2.435-.6,4.373,4.373,0,0,1,3.366,1.323,5.076,5.076,0,0,1,1.23,3.6v.105a4.925,4.925,0,0,1-1.235,3.529,4.384,4.384,0,0,1-3.344,1.305,4.434,4.434,0,0,1-3.261-1.217,4.761,4.761,0,0,1-1.327-3.3Zm2.962.185a3.538,3.538,0,0,0,.413,1.934,1.376,1.376,0,0,0,1.222.615q1.582,0,1.617-2.435v-.3q0-2.558-1.635-2.558-1.485,0-1.608,2.206Zm13.271-2.171-.976-.07a1.752,1.752,0,0,0-1.793.879V17h-2.962V7.49H204.6l.1,1.222a2.294,2.294,0,0,1,2.083-1.4,2.888,2.888,0,0,1,.826.105ZM213.717,17a3.344,3.344,0,0,1-.281-.853,2.754,2.754,0,0,1-2.285,1.028,3.374,3.374,0,0,1-2.285-.813,2.588,2.588,0,0,1-.94-2.043,2.66,2.66,0,0,1,1.143-2.338,5.821,5.821,0,0,1,3.322-.791h.914v-.5q0-1.316-1.134-1.316a.927.927,0,0,0-1.055,1.042h-2.962a2.655,2.655,0,0,1,1.173-2.239,4.931,4.931,0,0,1,2.993-.86,4.323,4.323,0,0,1,2.874.888,3.086,3.086,0,0,1,1.081,2.435v4.21a4.311,4.311,0,0,0,.4,2V17Zm-1.854-1.934a1.652,1.652,0,0,0,.918-.237,1.487,1.487,0,0,0,.523-.536V12.772h-.861q-1.547,0-1.547,1.389a.848.848,0,0,0,.272.655A.986.986,0,0,0,211.863,15.066Zm5.678-2.892a5.809,5.809,0,0,1,.976-3.56,3.211,3.211,0,0,1,2.725-1.3,2.731,2.731,0,0,1,2.145,1V3.5h2.971V17h-2.663l-.149-1.02a2.8,2.8,0,0,1-2.32,1.2,3.205,3.205,0,0,1-2.689-1.3A5.993,5.993,0,0,1,217.541,12.175Zm2.962.185q0,2.531,1.477,2.531a1.458,1.458,0,0,0,1.406-.826V10.443A1.419,1.419,0,0,0,222,9.6q-1.371,0-1.485,2.215Zm7.163-.2a5.613,5.613,0,0,1,.554-2.536,3.96,3.96,0,0,1,1.591-1.709,4.791,4.791,0,0,1,2.435-.6,4.373,4.373,0,0,1,3.366,1.323,5.076,5.076,0,0,1,1.23,3.6v.105a4.925,4.925,0,0,1-1.235,3.529,4.384,4.384,0,0,1-3.344,1.305A4.434,4.434,0,0,1,229,15.958a4.761,4.761,0,0,1-1.327-3.3Zm2.962.185a3.538,3.538,0,0,0,.413,1.934,1.376,1.376,0,0,0,1.222.615q1.582,0,1.617-2.435v-.3q0-2.558-1.635-2.558-1.485,0-1.608,2.206Z" transform="translate(413.02 3894.201)" fill="#12263f"/>
    <g id="Grupo_1007996" data-name="Grupo 1007996" transform="translate(485 3586.986)">
      <g id="Grupo_1007990" data-name="Grupo 1007990" opacity="0.4">
        <path id="Trazado_714013" data-name="Trazado 714013" d="M173.427,353.334S101.32,223.109,98,215.3s-3.209-17.974-3.209-17.974V121.846h4.04a3.346,3.346,0,0,0,3.558-3.08,2.672,2.672,0,0,0-.125-.769c-.011-.036-.026-.069-.038-.105a2.916,2.916,0,0,0-.329-.666v0h0a3.67,3.67,0,0,0-3.064-1.539H44.039a3.668,3.668,0,0,0-3.065,1.539h0l0,0a2.872,2.872,0,0,0-.329.665c-.014.036-.027.069-.038.105a2.672,2.672,0,0,0-.125.769,3.346,3.346,0,0,0,3.558,3.08h4.039v75.485s.111,10.17-3.208,17.974-75.427,138.03-75.427,138.03-8.539,17.254,8.538,21.773H164.888C181.966,370.588,173.427,353.334,173.427,353.334Z" transform="translate(33.765 -114.617)" fill="#fff"/>
        <path id="Trazado_714014" data-name="Trazado 714014" d="M164.554,375.843H-22.354a1.063,1.063,0,0,1-.271-.037c-5.112-1.353-8.569-3.943-10.273-7.7-3.15-6.935.876-15.227,1.051-15.576.743-1.347,72.14-130.31,75.4-137.975,3.189-7.5,3.126-17.445,3.124-17.545V122.582H43.7a4.412,4.412,0,0,1-4.626-4.149,3.748,3.748,0,0,1,.169-1.074c.008-.028.047-.138.059-.165a3.927,3.927,0,0,1,.429-.872.241.241,0,0,1,.017-.025h0a4.709,4.709,0,0,1,3.952-2.012H98.5a4.711,4.711,0,0,1,3.951,2.012,4.1,4.1,0,0,1,.451.91l.05.143a3.765,3.765,0,0,1,.172,1.084,4.412,4.412,0,0,1-4.624,4.149H95.525V197c0,.111-.067,10.055,3.124,17.556,3.26,7.665,74.657,136.629,75.379,137.931.2.393,4.223,8.684,1.072,15.62-1.7,3.758-5.162,6.348-10.273,7.7A1.075,1.075,0,0,1,164.554,375.843Zm-186.767-2.136H164.414c4.387-1.189,7.328-3.37,8.743-6.485,2.735-6.025-.982-13.671-1.019-13.747-2.923-5.275-72.15-130.319-75.455-138.086-3.368-7.919-3.3-17.979-3.293-18.4V121.514a1.067,1.067,0,0,1,1.067-1.067H98.5a2.293,2.293,0,0,0,2.49-2.013,1.61,1.61,0,0,0-.081-.465,2.022,2.022,0,0,0-.233-.484,2.617,2.617,0,0,0-2.177-1.065H43.7a2.624,2.624,0,0,0-2.168,1.049l-.012.021a1.775,1.775,0,0,0-.206.416,1.674,1.674,0,0,0-.106.529,2.294,2.294,0,0,0,2.492,2.013h4.039a1.068,1.068,0,0,1,1.067,1.067V197c0,.412.074,10.472-3.292,18.391-3.308,7.766-72.532,132.81-75.478,138.129-.014.032-3.728,7.7-.993,13.712C-29.537,370.342-26.6,372.519-22.213,373.707Z" transform="translate(34.099 -114.284)" fill="#b1c1c2"/>
      </g>
      <g id="Grupo_1007994" data-name="Grupo 1007994">
        <g id="Grupo_1007993" data-name="Grupo 1007993" transform="translate(73.178)">
          <g id="Grupo_1007991" data-name="Grupo 1007991">
            <path id="Trazado_714015" data-name="Trazado 714015" d="M125.184,118.766a3.346,3.346,0,0,1-3.558,3.08H66.835a3.346,3.346,0,0,1-3.558-3.08h0a3.345,3.345,0,0,1,3.558-3.082h54.791a3.345,3.345,0,0,1,3.558,3.082Z" transform="translate(-62.21 -114.617)" fill="#fff"/>
            <path id="Trazado_714016" data-name="Trazado 714016" d="M121.294,122.582H66.5a4.174,4.174,0,1,1,0-8.3h54.791a4.173,4.173,0,1,1,0,8.3ZM66.5,116.419a2.06,2.06,0,1,0,0,4.027h54.791a2.059,2.059,0,1,0,0-4.027Z" transform="translate(-61.877 -114.284)" fill="#b1c1c2"/>
          </g>
          <g id="Grupo_1007992" data-name="Grupo 1007992" transform="translate(1.067 2.607)" opacity="0.5" style="mix-blend-mode: multiply;isolation: isolate">
            <path id="Trazado_714017" data-name="Trazado 714017" d="M121.627,119.245H66.835A3.665,3.665,0,0,1,63.77,117.7a2.748,2.748,0,0,0-.493,1.542,3.346,3.346,0,0,0,3.558,3.08h54.791a3.346,3.346,0,0,0,3.558-3.08,2.753,2.753,0,0,0-.493-1.542A3.667,3.667,0,0,1,121.627,119.245Z" transform="translate(-63.277 -117.703)" fill="#a1a3a6"/>
          </g>
        </g>
        <path id="Trazado_714018" data-name="Trazado 714018" d="M164.554,377.763H-22.354a1.063,1.063,0,0,1-.271-.037c-5.112-1.353-8.569-3.943-10.273-7.7-3.15-6.935.876-15.227,1.051-15.576.743-1.347,72.14-130.31,75.4-137.975,3.189-7.5,3.126-17.445,3.124-17.545v-75.5a1.068,1.068,0,0,1,1.067-1.067H94.457a1.068,1.068,0,0,1,1.068,1.067v75.485c0,.111-.067,10.055,3.124,17.556,3.26,7.665,74.657,136.629,75.379,137.931.2.393,4.223,8.684,1.072,15.62-1.7,3.758-5.162,6.348-10.273,7.7A1.075,1.075,0,0,1,164.554,377.763Zm-186.767-2.136H164.414c4.383-1.188,7.323-3.366,8.739-6.476,2.735-6.007-.978-13.68-1.017-13.756-2.922-5.275-72.148-130.319-75.453-138.085-3.368-7.919-3.3-17.979-3.293-18.4V124.5H48.811v74.416c0,.412.074,10.472-3.292,18.391-3.308,7.766-72.532,132.81-75.478,138.129-.014.032-3.728,7.7-.993,13.712C-29.537,372.261-26.6,374.439-22.213,375.627Z" transform="translate(34.099 -116.204)" fill="#b1c1c2"/>
      </g>
      <path id="Trazado_714019" data-name="Trazado 714019" d="M173.427,415.8s-8.716-15.74-20.224-36.6h-.64c-2.464,4.419-37.817,7.927-81.111,7.927-44.895,0-81.286-3.77-81.286-8.418,0-.014.011-.028.011-.042h-.22C-21.694,399.8-30.558,415.8-30.558,415.8s-8.539,17.254,8.538,21.773H164.888C181.966,433.058,173.427,415.8,173.427,415.8Z" transform="translate(33.765 -177.086)" opacity="0.6" fill="url(#linear-gradient)"/>
      <path id="Trazado_714020" data-name="Trazado 714020" d="M78.574,367.688c-44.895,0-81.286,3.769-81.286,8.418s36.392,8.418,81.286,8.418c44.465,0,80.567-3.7,81.252-8.287,0-.066.011-.133.014-.2C159.487,371.42,123.244,367.688,78.574,367.688Z" transform="translate(26.644 -174.477)" opacity="0.5" fill="url(#linear-gradient-2)" style="mix-blend-mode: multiply;isolation: isolate"/>
      <path id="Trazado_714021" data-name="Trazado 714021" d="M78.574,367.688c-44.895,0-81.286,3.769-81.286,8.418s36.392,8.418,81.286,8.418c44.465,0,80.567-3.7,81.252-8.287,0-.066.011-.133.014-.2C159.487,371.42,123.244,367.688,78.574,367.688Z" transform="translate(26.644 -174.477)" fill="url(#linear-gradient-3)"/>
      <g id="Grupo_1007995" data-name="Grupo 1007995" transform="translate(24.167 202.234)">
        <path id="Trazado_714022" data-name="Trazado 714022" d="M-2.4,379.525c3.012,4.364,38.135,7.81,81.051,7.81s78.038-3.446,81.044-7.813c-13.878,3.207-44.927,5.441-81.043,5.441S11.481,382.729-2.4,379.525Z" transform="translate(2.404 -379.522)" fill="url(#linear-gradient-4)" style="mix-blend-mode: screen;isolation: isolate"/>
      </g>
      <path id="Trazado_714023" data-name="Trazado 714023" d="M173.427,355.254S101.32,225.029,98,217.224s-3.209-17.974-3.209-17.974V123.766H48.078v75.485s.111,10.17-3.208,17.974-75.427,138.03-75.427,138.03-8.539,17.254,8.538,21.773H164.888C181.966,372.508,173.427,355.254,173.427,355.254ZM125.9,357.641s-130.4,4.447-136.98,0,0-17.077,0-17.077,51.59-99.622,61.2-113.676,20.1-12.809,25.44-13.7.889-3.2.889-3.2-5.692-.711-14.231-.889-8.539-6.582-8.539-6.582-.178-49.277,0-61.374,15.655-11.92,15.655-11.92c18.145.534,19.569,9.429,19.569,9.429s-.356,51.59,0,62.975,3.025,17.256,3.025,17.256S137.107,333.8,141.555,345.544,125.9,357.641,125.9,357.641Z" transform="translate(33.765 -116.536)" opacity="0.5" fill="url(#linear-gradient-5)" style="mix-blend-mode: multiply;isolation: isolate"/>
      <path id="Trazado_714024" data-name="Trazado 714024" d="M79.736,130.34c7.246-4.45,17.662-4.079,25.758-2.473,7.153,1.417,11.711,5.146,14.459,11.547V123.766H73.241v15.29C74.551,135.5,76.522,132.313,79.736,130.34Z" transform="translate(8.602 -116.536)" opacity="0.5" fill="url(#linear-gradient-6)" style="mix-blend-mode: multiply;isolation: isolate"/>
      <path id="Trazado_714025" data-name="Trazado 714025" d="M97.745,220.583s-2.669-5.871-3.025-17.256,0-62.975,0-62.975-1.424-8.895-19.569-9.429c0,0-15.477-.177-15.655,11.92s0,61.374,0,61.374,0,6.4,8.539,6.582,14.231.889,14.231.889,4.447,2.313-.889,3.2-15.833-.355-25.44,13.7-61.2,113.676-61.2,113.676-6.582,12.629,0,17.077,136.98,0,136.98,0,20.1-.356,15.654-12.1S97.745,220.583,97.745,220.583Z" transform="translate(27.943 -118.236)" fill="none"/>
    </g>
    <g id="Grupo_1007997" data-name="Grupo 1007997" transform="translate(486.073 3599.673)">
      <path id="Trazado_714026" data-name="Trazado 714026" d="M-5.257,359.341c6.582,4.447,136.98,0,136.98,0s20.1-.356,15.654-12.1S97.745,220.583,97.745,220.583s-2.669-5.871-3.025-17.256,0-62.975,0-62.975-1.424-8.895-19.569-9.429c0,0-15.477-.177-15.655,11.92s0,61.374,0,61.374,0,6.4,8.539,6.582,14.231.889,14.231.889,4.447,2.313-.889,3.2-15.833-.355-25.44,13.7-61.2,113.676-61.2,113.676S-11.839,354.893-5.257,359.341Z" transform="translate(26.871 -130.923)" fill="none"/>
      <path id="Trazado_714027" data-name="Trazado 714027" d="M138.716,246.34c.149.351.44.955.855,1.776Z" transform="translate(-8.023 -158.339)" fill="none"/>
      <path id="Trazado_714028" data-name="Trazado 714028" d="M173.427,384.923s-65.781-118.8-74.573-136.254c7.288,15.153,59.393,123.6,63.692,136.507,4.625,13.875-12.1,13.875-12.1,13.875s-141.248,2.491-162.24,0-8.538-24.905-8.538-24.905L-7.17,342.584c-13.037,23.644-23.388,42.34-23.388,42.34S-39.1,402.177-22.02,406.7H164.888C181.966,402.177,173.427,384.923,173.427,384.923Z" transform="translate(32.693 -158.892)" opacity="0.5" fill="url(#linear-gradient-5)" style="mix-blend-mode: multiply;isolation: isolate"/>
    </g>
    <path id="Trazado_714029" data-name="Trazado 714029" d="M62.747,258.5,2.5,379.241H28.355L73.9,257.072Z" transform="translate(510.406 3438.785)" fill="#fff" opacity="0.5" style="mix-blend-mode: screen;isolation: isolate"/>
  </g>
</svg>
