<svg xmlns="http://www.w3.org/2000/svg" xmlns:xlink="http://www.w3.org/1999/xlink" width="505" height="220.273" viewBox="0 0 505 220.273">
  <defs>
    <linearGradient id="linear-gradient" x1="11.865" y1="-1.619" x2="11.865" y2="1.196" gradientUnits="objectBoundingBox">
      <stop offset="0" stop-color="#b3babf"/>
      <stop offset="0.047" stop-color="#c0c6ca"/>
      <stop offset="0.163" stop-color="#dbdee1"/>
      <stop offset="0.281" stop-color="#eff0f1"/>
      <stop offset="0.4" stop-color="#fbfbfb"/>
      <stop offset="0.521" stop-color="#fff"/>
      <stop offset="0.544" stop-color="#f8f8f9"/>
      <stop offset="0.671" stop-color="#d7dadd"/>
      <stop offset="0.792" stop-color="#bfc4c9"/>
      <stop offset="0.905" stop-color="#b0b7bd"/>
      <stop offset="1" stop-color="#acb3b9"/>
    </linearGradient>
    <linearGradient id="linear-gradient-2" x1="0.5" y1="-0.22" x2="0.5" y2="1.732" gradientUnits="objectBoundingBox">
      <stop offset="0" stop-color="#4a9ac0"/>
      <stop offset="0.013" stop-color="#83bad4"/>
      <stop offset="0.153" stop-color="#3e9fce"/>
      <stop offset="0.299" stop-color="#59a8d0"/>
      <stop offset="0.443" stop-color="#91cbea"/>
      <stop offset="0.612" stop-color="#f1f7fa"/>
      <stop offset="0.786" stop-color="#fbfdfd"/>
      <stop offset="1" stop-color="#fff"/>
    </linearGradient>
    <linearGradient id="linear-gradient-3" x1="0.5" y1="-0.603" x2="0.5" y2="1.679" gradientUnits="objectBoundingBox">
      <stop offset="0" stop-color="#31a8e1"/>
      <stop offset="0.013" stop-color="#83bad4"/>
      <stop offset="0.153" stop-color="#52b3e1"/>
      <stop offset="0.299" stop-color="#6abae2"/>
      <stop offset="0.452" stop-color="#90ccec"/>
      <stop offset="0.612" stop-color="#c3e5f5"/>
      <stop offset="0.786" stop-color="#fbfdfd"/>
      <stop offset="1" stop-color="#fff"/>
    </linearGradient>
    <linearGradient id="linear-gradient-4" x1="-128776.219" y1="350.603" x2="-122803.867" y2="350.603" gradientUnits="objectBoundingBox">
      <stop offset="0" stop-color="#b6b6b6"/>
      <stop offset="0.064" stop-color="#c8c8c8"/>
      <stop offset="0.169" stop-color="#e0e0e0"/>
      <stop offset="0.28" stop-color="#f1f1f1"/>
      <stop offset="0.401" stop-color="#fbfbfb"/>
      <stop offset="0.549" stop-color="#fff"/>
      <stop offset="0.662" stop-color="#fbfbfb"/>
      <stop offset="0.755" stop-color="#f1f1f1"/>
      <stop offset="0.84" stop-color="#e1e0e0"/>
      <stop offset="0.921" stop-color="#c9c8c8"/>
      <stop offset="0.999" stop-color="#abaaa9"/>
      <stop offset="1" stop-color="#abaaa9"/>
    </linearGradient>
    <linearGradient id="linear-gradient-5" x1="-27.357" y1="0.302" x2="-27.357" y2="1.265" xlink:href="#linear-gradient"/>
    <linearGradient id="linear-gradient-6" x1="-25.34" y1="0.5" x2="-24.311" y2="0.5" xlink:href="#linear-gradient"/>
    <linearGradient id="linear-gradient-8" x1="0.5" y1="-0.22" x2="0.5" y2="1.732" gradientUnits="objectBoundingBox">
      <stop offset="0" stop-color="#80b8d3"/>
      <stop offset="0.013" stop-color="#83bad4"/>
      <stop offset="0.153" stop-color="#a9cfe1"/>
      <stop offset="0.299" stop-color="#c8e0ec"/>
      <stop offset="0.452" stop-color="#e0edf4"/>
      <stop offset="0.612" stop-color="#f1f7fa"/>
      <stop offset="0.786" stop-color="#fbfdfd"/>
      <stop offset="1" stop-color="#fff"/>
    </linearGradient>
    <linearGradient id="linear-gradient-9" x1="0.5" y1="-0.603" x2="0.5" y2="1.679" xlink:href="#linear-gradient-8"/>
  </defs>
  <g id="Grupo_1013269" data-name="Grupo 1013269" transform="translate(-285 -2459)">
    <path id="Trazado_716178" data-name="Trazado 716178" d="M0,0H230V40H0Z" transform="translate(285 2459)" fill="#4db1f0" opacity="0.27"/>
    <path id="Trazado_716179" data-name="Trazado 716179" d="M0,0H230V40H0Z" transform="translate(560 2459)" fill="#4db1f0" opacity="0.27"/>
    <path id="Trazado_716180" data-name="Trazado 716180" d="M-89.59-3.779a1.408,1.408,0,0,0-.532-1.172,6.615,6.615,0,0,0-1.87-.869,17.941,17.941,0,0,1-2.187-.869q-2.764-1.357-2.764-3.73a3.345,3.345,0,0,1,.688-2.085,4.453,4.453,0,0,1,1.948-1.406,7.582,7.582,0,0,1,2.832-.5,6.632,6.632,0,0,1,2.749.547,4.352,4.352,0,0,1,1.89,1.558A4.068,4.068,0,0,1-86.162-10H-89.58a1.719,1.719,0,0,0-.532-1.348,2.075,2.075,0,0,0-1.44-.479,2.339,2.339,0,0,0-1.45.405,1.243,1.243,0,0,0-.532,1.03,1.252,1.252,0,0,0,.586.991,7.389,7.389,0,0,0,2.061.918,12.623,12.623,0,0,1,2.422,1.021,4.07,4.07,0,0,1,2.3,3.662,3.472,3.472,0,0,1-1.406,2.93A6.255,6.255,0,0,1-91.426.2a7.653,7.653,0,0,1-3.13-.62,4.719,4.719,0,0,1-2.109-1.7,4.427,4.427,0,0,1-.708-2.485h3.438a2.181,2.181,0,0,0,.591,1.685,2.793,2.793,0,0,0,1.919.542,2.206,2.206,0,0,0,1.343-.366A1.209,1.209,0,0,0-89.59-3.779Zm4.619-1.6A6.236,6.236,0,0,1-84.355-8.2a4.4,4.4,0,0,1,1.768-1.9,5.323,5.323,0,0,1,2.705-.664,4.858,4.858,0,0,1,3.74,1.47,5.64,5.64,0,0,1,1.367,4v.117a5.472,5.472,0,0,1-1.372,3.921A4.871,4.871,0,0,1-79.863.2a4.927,4.927,0,0,1-3.623-1.353,5.29,5.29,0,0,1-1.475-3.667Zm3.291.205a3.932,3.932,0,0,0,.459,2.148,1.529,1.529,0,0,0,1.357.684q1.758,0,1.8-2.705v-.332q0-2.842-1.816-2.842-1.65,0-1.787,2.451ZM-69.854,0h-3.3V-15h3.3Zm8.32-1.143A3.393,3.393,0,0,1-64.355.2,3.328,3.328,0,0,1-66.987-.815a4.251,4.251,0,0,1-.894-2.905v-6.846h3.291V-3.7a1.183,1.183,0,0,0,1.318,1.357,1.72,1.72,0,0,0,1.611-.811v-7.412h3.311V0h-3.086Zm9.453-1.2a1.464,1.464,0,0,0,1.074-.376,1.379,1.379,0,0,0,.371-1.05h3.086A3.653,3.653,0,0,1-48.794-.918,4.631,4.631,0,0,1-52,.2,4.689,4.689,0,0,1-55.635-1.25a5.7,5.7,0,0,1-1.328-4v-.137a6.436,6.436,0,0,1,.591-2.827,4.3,4.3,0,0,1,1.7-1.885,5.081,5.081,0,0,1,2.637-.659A4.573,4.573,0,0,1-48.76-9.619a4.053,4.053,0,0,1,1.211,3.1h-3.086a1.807,1.807,0,0,0-.4-1.26,1.382,1.382,0,0,0-1.074-.439q-1.279,0-1.494,1.631a11.507,11.507,0,0,0-.068,1.426,4.52,4.52,0,0,0,.381,2.207A1.319,1.319,0,0,0-52.08-2.344ZM-42.686,0h-3.3V-10.566h3.3Zm-3.5-13.291a1.469,1.469,0,0,1,.508-1.152,1.916,1.916,0,0,1,1.318-.449,1.916,1.916,0,0,1,1.318.449,1.469,1.469,0,0,1,.508,1.152,1.469,1.469,0,0,1-.508,1.152,1.916,1.916,0,0,1-1.318.449,1.916,1.916,0,0,1-1.318-.449A1.469,1.469,0,0,1-46.182-13.291Zm5.107,7.91A6.236,6.236,0,0,1-40.459-8.2a4.4,4.4,0,0,1,1.768-1.9,5.323,5.323,0,0,1,2.705-.664,4.858,4.858,0,0,1,3.74,1.47,5.64,5.64,0,0,1,1.367,4v.117a5.472,5.472,0,0,1-1.372,3.921A4.871,4.871,0,0,1-35.967.2,4.927,4.927,0,0,1-39.59-1.157a5.29,5.29,0,0,1-1.475-3.667Zm3.291.205a3.932,3.932,0,0,0,.459,2.148,1.529,1.529,0,0,0,1.357.684q1.758,0,1.8-2.705v-.332q0-2.842-1.816-2.842-1.65,0-1.787,2.451ZM-35.537-15h3.477l-2.715,3.066-2.686,0Zm9.131,4.434.107,1.24a3.583,3.583,0,0,1,3.018-1.436,3.015,3.015,0,0,1,2.466.986,4.7,4.7,0,0,1,.845,2.969V0h-3.3V-6.67a1.783,1.783,0,0,0-.322-1.177,1.491,1.491,0,0,0-1.172-.376,1.569,1.569,0,0,0-1.436.762V0h-3.291V-10.566ZM-8.7-2.344A1.464,1.464,0,0,0-7.627-2.72a1.379,1.379,0,0,0,.371-1.05H-4.17A3.653,3.653,0,0,1-5.415-.918,4.631,4.631,0,0,1-8.623.2,4.689,4.689,0,0,1-12.256-1.25a5.7,5.7,0,0,1-1.328-4v-.137a6.436,6.436,0,0,1,.591-2.827,4.3,4.3,0,0,1,1.7-1.885,5.081,5.081,0,0,1,2.637-.659A4.573,4.573,0,0,1-5.381-9.619a4.053,4.053,0,0,1,1.211,3.1H-7.256a1.807,1.807,0,0,0-.4-1.26A1.382,1.382,0,0,0-8.73-8.223q-1.279,0-1.494,1.631a11.508,11.508,0,0,0-.068,1.426,4.52,4.52,0,0,0,.381,2.207A1.319,1.319,0,0,0-8.7-2.344Zm5.508-3.037A6.236,6.236,0,0,1-2.578-8.2,4.4,4.4,0,0,1-.811-10.1a5.323,5.323,0,0,1,2.705-.664,4.858,4.858,0,0,1,3.74,1.47A5.64,5.64,0,0,1,7-5.293v.117A5.472,5.472,0,0,1,5.63-1.255,4.871,4.871,0,0,1,1.914.2,4.927,4.927,0,0,1-1.709-1.157,5.29,5.29,0,0,1-3.184-4.824ZM.1-5.176A3.932,3.932,0,0,0,.557-3.027a1.529,1.529,0,0,0,1.357.684q1.758,0,1.8-2.705v-.332q0-2.842-1.816-2.842-1.65,0-1.787,2.451Zm11.377-5.391.107,1.24A3.583,3.583,0,0,1,14.6-10.762a3.015,3.015,0,0,1,2.466.986,4.7,4.7,0,0,1,.845,2.969V0h-3.3V-6.67a1.783,1.783,0,0,0-.322-1.177,1.491,1.491,0,0,0-1.172-.376,1.569,1.569,0,0,0-1.436.762V0H8.389V-10.566ZM24.2-2.344a1.464,1.464,0,0,0,1.074-.376,1.379,1.379,0,0,0,.371-1.05H28.73A3.653,3.653,0,0,1,27.485-.918,4.631,4.631,0,0,1,24.277.2,4.689,4.689,0,0,1,20.645-1.25a5.7,5.7,0,0,1-1.328-4v-.137a6.436,6.436,0,0,1,.591-2.827,4.3,4.3,0,0,1,1.7-1.885,5.081,5.081,0,0,1,2.637-.659A4.573,4.573,0,0,1,27.52-9.619a4.053,4.053,0,0,1,1.211,3.1H25.645a1.807,1.807,0,0,0-.4-1.26,1.382,1.382,0,0,0-1.074-.439q-1.279,0-1.494,1.631a11.508,11.508,0,0,0-.068,1.426,4.52,4.52,0,0,0,.381,2.207A1.319,1.319,0,0,0,24.2-2.344ZM35.234.2A5.432,5.432,0,0,1,31.3-1.255a5.008,5.008,0,0,1-1.5-3.774V-5.3a6.489,6.489,0,0,1,.6-2.861,4.395,4.395,0,0,1,1.753-1.919,5.292,5.292,0,0,1,2.734-.679A4.574,4.574,0,0,1,38.4-9.38a5.43,5.43,0,0,1,1.289,3.853v1.279H33.145a2.372,2.372,0,0,0,.771,1.4,2.3,2.3,0,0,0,1.543.508A2.958,2.958,0,0,0,37.9-3.437L39.4-1.66A4.2,4.2,0,0,1,37.661-.308,5.891,5.891,0,0,1,35.234.2Zm-.371-8.418q-1.445,0-1.719,1.914h3.32v-.254a1.63,1.63,0,0,0-.4-1.226A1.593,1.593,0,0,0,34.863-8.223Zm9.17-2.344.107,1.24a3.583,3.583,0,0,1,3.018-1.436,3.015,3.015,0,0,1,2.466.986,4.7,4.7,0,0,1,.845,2.969V0h-3.3V-6.67a1.783,1.783,0,0,0-.322-1.177,1.491,1.491,0,0,0-1.172-.376,1.569,1.569,0,0,0-1.436.762V0H40.947V-10.566Zm12.09-2.627v2.627h1.738v2.285H56.123v4.834a1.234,1.234,0,0,0,.215.83,1.152,1.152,0,0,0,.85.234,4.828,4.828,0,0,0,.82-.059V-.088A6.074,6.074,0,0,1,56.152.2a3.448,3.448,0,0,1-2.51-.8,3.282,3.282,0,0,1-.811-2.432V-8.281H51.484v-2.285h1.348v-2.627Zm9.424,5.605-1.084-.078a1.947,1.947,0,0,0-1.992.977V0H59.18V-10.566h3.086l.107,1.357a2.548,2.548,0,0,1,2.314-1.553,3.209,3.209,0,0,1,.918.117ZM72.393,0a3.716,3.716,0,0,1-.312-.947A3.06,3.06,0,0,1,69.541.2,3.749,3.749,0,0,1,67-.708a2.875,2.875,0,0,1-1.045-2.271,2.955,2.955,0,0,1,1.27-2.6,6.468,6.468,0,0,1,3.691-.879h1.016v-.559q0-1.462-1.26-1.462A1.03,1.03,0,0,0,69.5-7.319H66.211a2.95,2.95,0,0,1,1.3-2.487,5.479,5.479,0,0,1,3.325-.956,4.8,4.8,0,0,1,3.193.986,3.429,3.429,0,0,1,1.2,2.705v4.678a4.79,4.79,0,0,0,.449,2.227V0ZM70.332-2.148a1.836,1.836,0,0,0,1.021-.264,1.653,1.653,0,0,0,.581-.6V-4.7h-.957q-1.719,0-1.719,1.543a.942.942,0,0,0,.3.728A1.1,1.1,0,0,0,70.332-2.148Zm6.309-3.213a6.455,6.455,0,0,1,1.084-3.955,3.568,3.568,0,0,1,3.027-1.445,3.035,3.035,0,0,1,2.383,1.113V-15h3.3V0H83.477l-.166-1.133A3.116,3.116,0,0,1,80.732.2,3.562,3.562,0,0,1,77.744-1.25,6.659,6.659,0,0,1,76.641-5.361Zm3.291.205q0,2.813,1.641,2.813a1.62,1.62,0,0,0,1.563-.918V-7.285a1.576,1.576,0,0,0-1.543-.937q-1.523,0-1.65,2.461ZM94.258,0a3.716,3.716,0,0,1-.312-.947A3.06,3.06,0,0,1,91.406.2a3.749,3.749,0,0,1-2.539-.9,2.875,2.875,0,0,1-1.045-2.271,2.955,2.955,0,0,1,1.27-2.6,6.468,6.468,0,0,1,3.691-.879H93.8v-.559q0-1.462-1.26-1.462a1.03,1.03,0,0,0-1.172,1.158H88.076a2.95,2.95,0,0,1,1.3-2.487,5.479,5.479,0,0,1,3.325-.956,4.8,4.8,0,0,1,3.193.986A3.429,3.429,0,0,1,97.1-7.07v4.678a4.79,4.79,0,0,0,.449,2.227V0ZM92.2-2.148a1.836,1.836,0,0,0,1.021-.264,1.653,1.653,0,0,0,.581-.6V-4.7h-.957q-1.719,0-1.719,1.543a.942.942,0,0,0,.3.728A1.1,1.1,0,0,0,92.2-2.148Z" transform="translate(399 2486)" fill="#12263f"/>
    <path id="Trazado_716181" data-name="Trazado 716181" d="M-63.989-3.779a1.408,1.408,0,0,0-.532-1.172,6.615,6.615,0,0,0-1.87-.869,17.941,17.941,0,0,1-2.187-.869q-2.764-1.357-2.764-3.73a3.345,3.345,0,0,1,.688-2.085,4.453,4.453,0,0,1,1.948-1.406,7.582,7.582,0,0,1,2.832-.5,6.632,6.632,0,0,1,2.749.547,4.352,4.352,0,0,1,1.89,1.558A4.068,4.068,0,0,1-60.562-10h-3.418a1.719,1.719,0,0,0-.532-1.348,2.075,2.075,0,0,0-1.44-.479,2.339,2.339,0,0,0-1.45.405,1.243,1.243,0,0,0-.532,1.03,1.252,1.252,0,0,0,.586.991,7.389,7.389,0,0,0,2.061.918,12.623,12.623,0,0,1,2.422,1.021,4.07,4.07,0,0,1,2.3,3.662,3.472,3.472,0,0,1-1.406,2.93A6.255,6.255,0,0,1-65.825.2a7.653,7.653,0,0,1-3.13-.62,4.719,4.719,0,0,1-2.109-1.7,4.427,4.427,0,0,1-.708-2.485h3.438a2.181,2.181,0,0,0,.591,1.685,2.793,2.793,0,0,0,1.919.542,2.206,2.206,0,0,0,1.343-.366A1.209,1.209,0,0,0-63.989-3.779Zm4.619-1.6A6.236,6.236,0,0,1-58.755-8.2a4.4,4.4,0,0,1,1.768-1.9,5.323,5.323,0,0,1,2.705-.664,4.858,4.858,0,0,1,3.74,1.47,5.64,5.64,0,0,1,1.367,4v.117a5.472,5.472,0,0,1-1.372,3.921A4.871,4.871,0,0,1-54.263.2a4.927,4.927,0,0,1-3.623-1.353A5.29,5.29,0,0,1-59.36-4.824Zm3.291.205a3.932,3.932,0,0,0,.459,2.148,1.529,1.529,0,0,0,1.357.684q1.758,0,1.8-2.705v-.332q0-2.842-1.816-2.842-1.65,0-1.787,2.451ZM-44.253,0h-3.3V-15h3.3Zm8.32-1.143A3.393,3.393,0,0,1-38.755.2,3.328,3.328,0,0,1-41.387-.815a4.251,4.251,0,0,1-.894-2.905v-6.846h3.291V-3.7a1.183,1.183,0,0,0,1.318,1.357,1.72,1.72,0,0,0,1.611-.811v-7.412h3.311V0h-3.086Zm9.453-1.2a1.464,1.464,0,0,0,1.074-.376,1.379,1.379,0,0,0,.371-1.05h3.086A3.653,3.653,0,0,1-23.193-.918,4.631,4.631,0,0,1-26.4.2,4.689,4.689,0,0,1-30.034-1.25a5.7,5.7,0,0,1-1.328-4v-.137a6.436,6.436,0,0,1,.591-2.827,4.3,4.3,0,0,1,1.7-1.885,5.081,5.081,0,0,1,2.637-.659,4.573,4.573,0,0,1,3.271,1.143,4.053,4.053,0,0,1,1.211,3.1h-3.086a1.807,1.807,0,0,0-.4-1.26,1.382,1.382,0,0,0-1.074-.439q-1.279,0-1.494,1.631a11.508,11.508,0,0,0-.068,1.426,4.52,4.52,0,0,0,.381,2.207A1.319,1.319,0,0,0-26.479-2.344ZM-17.085,0h-3.3V-10.566h3.3Zm-3.5-13.291a1.469,1.469,0,0,1,.508-1.152,1.916,1.916,0,0,1,1.318-.449,1.916,1.916,0,0,1,1.318.449,1.469,1.469,0,0,1,.508,1.152,1.469,1.469,0,0,1-.508,1.152,1.916,1.916,0,0,1-1.318.449,1.916,1.916,0,0,1-1.318-.449A1.469,1.469,0,0,1-20.581-13.291Zm5.107,7.91A6.236,6.236,0,0,1-14.858-8.2a4.4,4.4,0,0,1,1.768-1.9,5.323,5.323,0,0,1,2.705-.664,4.858,4.858,0,0,1,3.74,1.47,5.64,5.64,0,0,1,1.367,4v.117A5.472,5.472,0,0,1-6.65-1.255,4.871,4.871,0,0,1-10.366.2a4.927,4.927,0,0,1-3.623-1.353,5.29,5.29,0,0,1-1.475-3.667Zm3.291.205a3.932,3.932,0,0,0,.459,2.148,1.529,1.529,0,0,0,1.357.684q1.758,0,1.8-2.705v-.332q0-2.842-1.816-2.842-1.65,0-1.787,2.451ZM-9.937-15H-6.46l-2.715,3.066-2.686,0Zm9.131,4.434L-.7-9.326a3.583,3.583,0,0,1,3.018-1.436,3.015,3.015,0,0,1,2.466.986A4.7,4.7,0,0,1,5.63-6.807V0h-3.3V-6.67a1.783,1.783,0,0,0-.322-1.177A1.491,1.491,0,0,0,.835-8.223,1.569,1.569,0,0,0-.6-7.461V0H-3.892V-10.566ZM12.017-5.361A6.455,6.455,0,0,1,13.1-9.316a3.568,3.568,0,0,1,3.027-1.445,3.035,3.035,0,0,1,2.383,1.113V-15h3.3V0H18.853l-.166-1.133A3.116,3.116,0,0,1,16.108.2,3.562,3.562,0,0,1,13.12-1.25,6.659,6.659,0,0,1,12.017-5.361Zm3.291.205q0,2.813,1.641,2.813a1.62,1.62,0,0,0,1.563-.918V-7.285a1.576,1.576,0,0,0-1.543-.937q-1.523,0-1.65,2.461ZM27.153,0h-3.3V-10.566h3.3Zm-3.5-13.291a1.469,1.469,0,0,1,.508-1.152,1.916,1.916,0,0,1,1.318-.449,1.916,1.916,0,0,1,1.318.449,1.469,1.469,0,0,1,.508,1.152,1.469,1.469,0,0,1-.508,1.152,1.916,1.916,0,0,1-1.318.449,1.916,1.916,0,0,1-1.318-.449A1.469,1.469,0,0,1,23.657-13.291ZM32.651,0h-3.3V-15h3.3Zm8.32-1.143A3.393,3.393,0,0,1,38.149.2,3.328,3.328,0,0,1,35.518-.815a4.251,4.251,0,0,1-.894-2.905v-6.846h3.291V-3.7a1.183,1.183,0,0,0,1.318,1.357,1.72,1.72,0,0,0,1.611-.811v-7.412h3.311V0H41.069ZM49.429,0h-3.3V-10.566h3.3Zm-3.5-13.291a1.469,1.469,0,0,1,.508-1.152,1.916,1.916,0,0,1,1.318-.449,1.916,1.916,0,0,1,1.318.449,1.469,1.469,0,0,1,.508,1.152,1.469,1.469,0,0,1-.508,1.152,1.916,1.916,0,0,1-1.318.449,1.916,1.916,0,0,1-1.318-.449A1.469,1.469,0,0,1,45.933-13.291Zm5.107,7.93a6.455,6.455,0,0,1,1.084-3.955,3.568,3.568,0,0,1,3.027-1.445,3.035,3.035,0,0,1,2.383,1.113V-15h3.3V0H57.876L57.71-1.133A3.116,3.116,0,0,1,55.132.2,3.562,3.562,0,0,1,52.144-1.25,6.659,6.659,0,0,1,51.04-5.361Zm3.291.205q0,2.813,1.641,2.813a1.62,1.62,0,0,0,1.563-.918V-7.285a1.576,1.576,0,0,0-1.543-.937q-1.523,0-1.65,2.461ZM68.657,0a3.716,3.716,0,0,1-.312-.947A3.06,3.06,0,0,1,65.806.2a3.749,3.749,0,0,1-2.539-.9,2.875,2.875,0,0,1-1.045-2.271,2.955,2.955,0,0,1,1.27-2.6,6.468,6.468,0,0,1,3.691-.879H68.2v-.559q0-1.462-1.26-1.462a1.03,1.03,0,0,0-1.172,1.158H62.476a2.95,2.95,0,0,1,1.3-2.487,5.479,5.479,0,0,1,3.325-.956,4.8,4.8,0,0,1,3.193.986A3.429,3.429,0,0,1,71.5-7.07v4.678a4.79,4.79,0,0,0,.449,2.227V0ZM66.6-2.148a1.836,1.836,0,0,0,1.021-.264,1.653,1.653,0,0,0,.581-.6V-4.7h-.957q-1.719,0-1.719,1.543a.942.942,0,0,0,.3.728A1.1,1.1,0,0,0,66.6-2.148Z" transform="translate(674 2486)" fill="#12263f"/>
    <g id="Grupo_1011011" data-name="Grupo 1011011" transform="translate(340 2530)">
      <path id="Trazado_714588" data-name="Trazado 714588" d="M77.619,141.513c0,5.265,25.659,9.534,57.312,9.534s57.312-4.269,57.312-9.534-25.659-9.539-57.312-9.539S77.619,136.245,77.619,141.513Z" transform="translate(-75.03 -1.774)" opacity="0.8" fill="url(#linear-gradient)" style="mix-blend-mode: multiply;isolation: isolate"/>
      <g id="Grupo_1011007" data-name="Grupo 1011007">
        <g id="Grupo_1011006" data-name="Grupo 1011006">
          <g id="Grupo_1010998" data-name="Grupo 1010998" transform="translate(0)" opacity="0.7">
            <path id="Trazado_714589" data-name="Trazado 714589" d="M193.744,93.511l-.005,0c-.234-5.853-24.777-10.467-56-10.52h-.59c-21.2,0-38.191,1.866-50.505,5.547A45.784,45.784,0,0,0,79.178,92H79.17l0,.005-.011.008c-2.14,1.358-2.918,2.554-2.312,3.562a12.546,12.546,0,0,0,1.491,1.871c1.627,1.8,3.466,3.835,3.325,9.268l-.186,113.112v.043c.207,5.858,24.769,10.48,56.015,10.531H138c30.9,0,55.215-4.521,55.534-10.307a.279.279,0,0,0,.013-.08l.2-126.412A.311.311,0,0,0,193.744,93.511Z" transform="translate(-76.645 -82.988)" fill="#fff" opacity="0.7" style="mix-blend-mode: screen;isolation: isolate"/>
          </g>
          <g id="Grupo_1010999" data-name="Grupo 1010999" transform="translate(7.211 81.701)">
            <path id="Trazado_714590" data-name="Trazado 714590" d="M79.39,106.918l-.032,49.125,0,.031c.2,3.994,23.8,7.144,53.82,7.181h.489c29.686,0,53.052-3.082,53.36-7.03a.188.188,0,0,0,.011-.055l.032-48.844Z" transform="translate(-79.358 -99.837)" fill="url(#linear-gradient-2)" style="mix-blend-mode: multiply;isolation: isolate"/>
            <path id="Trazado_714591" data-name="Trazado 714591" d="M187.072,111.446c0,3.979-24.112,7.2-53.854,7.2s-53.86-3.219-53.86-7.2,24.112-7.192,53.86-7.192S187.072,107.475,187.072,111.446Z" transform="translate(-79.358 -104.254)" fill="url(#linear-gradient-3)"/>
            <path id="Trazado_714592" data-name="Trazado 714592" d="M133.218,113.612c-28.756,0-52.244-3.009-53.775-6.8a1.025,1.025,0,0,0-.085.391c0,3.979,24.112,7.2,53.86,7.2s53.854-3.219,53.854-7.2a1.024,1.024,0,0,0-.085-.391C185.456,110.6,161.971,113.612,133.218,113.612Z" transform="translate(-79.358 -100.011)" fill="#fff" opacity="0.9" style="mix-blend-mode: screen;isolation: isolate"/>
          </g>
          <g id="Grupo_1011005" data-name="Grupo 1011005">
            <g id="Grupo_1011004" data-name="Grupo 1011004">
              <path id="Trazado_714593" data-name="Trazado 714593" d="M119.692,85.861l.1.056A.887.887,0,0,0,119.692,85.861Z" transform="translate(-5.278 -78.225)" fill="none"/>
              <g id="Grupo_1011000" data-name="Grupo 1011000" transform="translate(114.173 7.398)" opacity="0.6">
                <path id="Trazado_714594" data-name="Trazado 714594" d="M119.707,85.869l-.024-.013h0Z" transform="translate(-119.466 -85.631)" fill="url(#linear-gradient-4)"/>
                <path id="Trazado_714595" data-name="Trazado 714595" d="M119.853,86.236l-.029,0a.222.222,0,0,1-.09-.027h0l0,0h0l-.013-.011a.226.226,0,0,1,.159-.417l.048.019a.227.227,0,0,1,.157.215A.224.224,0,0,1,119.853,86.236Z" transform="translate(-119.601 -85.771)" fill="#5c2f10"/>
              </g>
              <g id="Grupo_1011002" data-name="Grupo 1011002">
                <g id="Grupo_1011001" data-name="Grupo 1011001">
                  <path id="Trazado_714596" data-name="Trazado 714596" d="M138,224.806h-.513c-31.246-.05-55.808-4.673-56.015-10.531v-.043l.186-113.112c.141-5.433-1.7-7.471-3.325-9.268a12.545,12.545,0,0,1-1.491-1.871c-.609-1.01.178-2.211,2.331-3.575a.3.3,0,0,1,.338.5c-.447.311-1.858,1.419-1.3,2.435.781,1.43,4.008,4.077,8.737,5.486C94.248,97,108.431,99.6,134.537,99.6c5.321,0,10.977-.112,16.809-.335,36.48-1.385,41.6-6.488,41.8-11.3a.3.3,0,0,1,.3-.287h.005a.3.3,0,0,1,.29.245.312.312,0,0,1,.011.085l-.2,126.412a.279.279,0,0,1-.013.08C193.218,220.285,168.9,224.806,138,224.806ZM82.075,214.2l0,.032c.085,5.361,25.463,9.927,55.412,9.978H138c14.73,0,28.567-1.045,38.957-2.942,10.105-1.845,15.931-4.343,15.982-6.852a.259.259,0,0,1,.005-.064l.2-123.834c-2.108,4.359-10.783,8.178-41.785,9.353-5.837.223-11.5.335-16.83.338-26.18,0-40.421-2.61-47.757-4.8-5.167-1.539-8.319-4.356-9.1-5.776a1.6,1.6,0,0,1-.191-1,.953.953,0,0,0-.133,1.047,12.18,12.18,0,0,0,1.425,1.778c1.613,1.789,3.628,4.013,3.477,9.683Z" transform="translate(-76.645 -77.399)" fill="#8facba"/>
                  <path id="Trazado_714597" data-name="Trazado 714597" d="M134.025,105.79h-.005c-26.183,0-40.427-2.607-47.76-4.8-5.167-1.539-8.319-4.356-9.1-5.776-.795-1.454.93-2.831,1.483-3.216a45.835,45.835,0,0,1,7.471-3.466c12.314-3.681,29.3-5.547,50.505-5.547h.59c31.329.053,55.933,4.7,56.015,10.576-.221,5.358-5.507,10.493-42.383,11.891C145.01,105.678,139.346,105.79,134.025,105.79Zm2.6-22.2c-21.144,0-38.074,1.853-50.317,5.518A44.66,44.66,0,0,0,78.98,92.5c-.433.3-1.845,1.411-1.286,2.427.781,1.43,4.008,4.077,8.737,5.486,7.3,2.177,21.478,4.771,47.587,4.771h.008c5.316,0,10.966-.109,16.8-.332,36.48-1.385,41.6-6.488,41.8-11.3-.072-5.342-25.447-9.911-55.414-9.962Zm1.119,20.3h-.521a258.589,258.589,0,0,1-39.65-2.86c-7.931-1.324-17.385-3.623-17.38-7.059C80.2,90.552,89.563,88.291,97.415,87a256.976,256.976,0,0,1,39.326-2.759h.513c14.5.027,28.142,1.039,38.4,2.86,7.36,1.3,16.125,3.588,16.12,7.059C191.762,100.251,164.293,103.892,137.743,103.892Zm-1-19.054c-29.795,0-55.941,4.271-55.949,9.135-.008,4.364,23.166,9.263,56.43,9.316l.521,0c25.8,0,53.421-3.673,53.429-9.138,0-2.347-5.691-4.7-15.623-6.467-10.228-1.813-23.825-2.823-38.295-2.847Z" transform="translate(-76.125 -82.988)" fill="#728996"/>
                  <path id="Trazado_714598" data-name="Trazado 714598" d="M135.729,103.113h-.524a258.587,258.587,0,0,1-39.65-2.86c-7.931-1.324-17.385-3.623-17.38-7.059.005-3.421,9.369-5.683,17.223-6.977a256.977,256.977,0,0,1,39.326-2.759h.513c14.5.027,28.142,1.039,38.4,2.86,7.36,1.3,16.125,3.588,16.12,7.059C189.745,99.472,162.281,103.113,135.729,103.113Zm-1-19.054c-29.8,0-55.941,4.271-55.949,9.135-.008,4.364,23.166,9.263,56.43,9.316l.521,0c25.8,0,53.421-3.673,53.429-9.138,0-2.347-5.691-4.7-15.623-6.467-10.228-1.813-23.825-2.823-38.295-2.847Z" transform="translate(-74.108 -82.209)" fill="#8facba"/>
                </g>
                <path id="Trazado_714599" data-name="Trazado 714599" d="M185.451,129.976c-.542-2.408-1.72,5.188-2.74,9.481s-4.292,4.21-4.292,4.21l-.008,0c-8.048-2.934-25.479-4.984-45.7-5.018-19.062-.029-35.653,1.741-44.241,4.375h-.005c-4.835.029-7.277-15.025-7.9-16.607s-.936,1.053-.936,1.053.287,14.374,1.06,17.611a5.836,5.836,0,0,0,3.035,4.152l0,0c5.47,3.74,25.306,6.538,48.948,6.578,25.316.04,46.277-3.094,49.921-7.219v0C185.225,146.869,185.991,132.386,185.451,129.976Z" transform="translate(-71.688 -11.822)" opacity="0.3" fill="url(#linear-gradient-5)" style="mix-blend-mode: multiply;isolation: isolate"/>
                <path id="Trazado_714600" data-name="Trazado 714600" d="M193.259,88.774c-.013-1-.816-1.97-2.294-2.889,1.223.824,4.024,4.856-2.581,7.66-6.831,2.9-23.291,7.184-60.72,6.118s-45.748-6.4-48.148-9.21c-1.688-1.972.88-3.71,2.568-4.574a27.644,27.644,0,0,0-2.937,1.573c-1.674,1.063-2.815,2.2-2.235,3.166,1.563,2.591,5.055,3.883,4.859,11.3l-.186,113.112h0c.09,5.627,24.995,10.222,55.712,10.273s55.643-4.463,55.749-10.087h.011l.2-126.412h-.005ZM170.422,216.566s-10.6,4-30.188,3.519c-19.589.417-30.17-3.617-30.17-3.617-18.055-4.619-16.495-36.775-16.495-36.775l.114-70.8c.46-5.114,5.132-9.172,14.31-7.5,6.089,1.106,22.247,1.438,32.434,1.536,10.19-.064,26.345-.34,32.44-1.43,9.183-1.64,13.845,2.432,14.286,7.551l-.117,70.8S188.491,212.008,170.422,216.566Z" transform="translate(-76.455 -78.193)" opacity="0.6" fill="url(#linear-gradient-6)" style="mix-blend-mode: multiply;isolation: isolate"/>
              </g>
              <g id="Grupo_1011003" data-name="Grupo 1011003" transform="translate(0.305 10.581)">
                <path id="Trazado_714601" data-name="Trazado 714601" d="M172,196.217c5.244-10.948,4.572-25.808,4.572-25.808l.117-70.8c-.441-5.119-5.1-9.191-14.286-7.551-6.095,1.09-22.249,1.366-32.44,1.43-10.188-.1-26.345-.431-32.434-1.536-9.178-1.672-13.85,2.387-14.31,7.5l-.114,70.8s-1.56,32.155,16.495,36.775c0,0,10.581,4.035,30.17,3.617,19.591.481,30.188-3.519,30.188-3.519,5.786-1.459,9.574-5.752,12.043-10.913Z" transform="translate(-66.296 -79.339)" fill="none"/>
                <path id="Trazado_714602" data-name="Trazado 714602" d="M116.225,95.642c6.347,1.276,9.175.13,9.175.13l2.376,22.063.011-.016L127.835,87h-.005v-.027C128.167,93.024,116.225,95.642,116.225,95.642Z" transform="translate(-11.33 -86.969)" fill="#b8c8d3" opacity="0.7" style="mix-blend-mode: multiply;isolation: isolate"/>
                <path id="Trazado_714603" data-name="Trazado 714603" d="M88.53,97.6c3.615.207,21.266.649,23.379.032,0,0-22.27-.731-29.588-5.358-4.223-2.671-5.449-4.13-5.143-5.191a1.306,1.306,0,0,0-.266,1.536c1.563,2.591,5.055,3.883,4.859,11.3l-.029,15.836,2.607-14.544S84.92,97.395,88.53,97.6Z" transform="translate(-76.76 -86.777)" fill="#b8c8d3" opacity="0.7" style="mix-blend-mode: multiply;isolation: isolate"/>
              </g>
              <path id="Trazado_714604" data-name="Trazado 714604" d="M84.028,205.022c-2.756-6.23-1.494-107.514-1.494-107.514s.144-3.886,3.126-4.51a22.657,22.657,0,0,1-4.16-1.563c-.7-.348-1.534-.723-2.32-1.188a19.153,19.153,0,0,1,1.193,7.636c-.109,6.095,0,104.232,0,104.232a7.011,7.011,0,0,0,4.558,7.527A69.392,69.392,0,0,0,104.7,214.4S86.784,211.252,84.028,205.022Z" transform="translate(-72.442 -70.955)" fill="#fff" opacity="0.7" style="mix-blend-mode: screen;isolation: isolate"/>
              <path id="Trazado_714605" data-name="Trazado 714605" d="M131.426,205.022c2.756-6.23,1.488-107.514,1.488-107.514s-.141-3.886-3.123-4.51a22.345,22.345,0,0,0,4.157-1.563c.7-.348,1.539-.723,2.323-1.188a19.217,19.217,0,0,0-1.191,7.636c.106,6.095,0,104.232,0,104.232a7.015,7.015,0,0,1-4.558,7.527,69.392,69.392,0,0,1-19.764,4.758S128.67,211.252,131.426,205.022Z" transform="translate(-20.089 -70.955)" fill="#fff" opacity="0.7" style="mix-blend-mode: screen;isolation: isolate"/>
            </g>
          </g>
        </g>
      </g>
      <g id="Grupo_1011010" data-name="Grupo 1011010" transform="translate(0.569 11.987)">
        <g id="Grupo_1011009" data-name="Grupo 1011009">
          <g id="Grupo_1011008" data-name="Grupo 1011008">
            <path id="Trazado_714606" data-name="Trazado 714606" d="M135.418,96.415H134.9a258.6,258.6,0,0,1-39.653-2.86c-7.134-1.191-15.5-3.171-17.1-6.057h.734c3.181,4.077,25.285,8.263,56.023,8.314l.518,0c24.477,0,50.585-3.309,53.2-8.317h.643C186.9,93.1,160.753,96.415,135.418,96.415Z" transform="translate(-74.73 -87.498)" fill="#728996"/>
            <path id="Trazado_714607" data-name="Trazado 714607" d="M77.521,87.5c.821,1.435,4.029,4.045,8.713,5.441,7.3,2.177,21.476,4.771,47.587,4.771h.005c5.316,0,10.969-.109,16.8-.332,32.9-1.249,40.3-5.523,41.575-9.879h.635c-1.207,4.824-8.569,9.2-42.186,10.48-5.839.223-11.5.335-16.824.335h-.005c-26.183,0-40.424-2.607-47.76-4.8-5.167-1.539-8.317-4.356-9.093-5.776a1.385,1.385,0,0,1-.109-.242Z" transform="translate(-76.859 -87.498)" fill="#728996"/>
            <path id="Trazado_714608" data-name="Trazado 714608" d="M78.877,87.5c3.181,4.077,25.285,8.263,56.023,8.314l.518,0c24.477,0,50.585-3.309,53.2-8.317h.643c-2.352,5.6-28.5,8.917-53.838,8.917H134.9a258.6,258.6,0,0,1-39.653-2.86c-7.134-1.191-15.5-3.171-17.1-6.057Z" transform="translate(-74.73 -87.498)" fill="#8facba"/>
          </g>
        </g>
      </g>
    </g>
    <path id="Trazado_716182" data-name="Trazado 716182" d="M0,0H32" transform="translate(359.5 2653.5)" fill="none" stroke="#707070" stroke-width="2"/>
    <path id="Trazado_716183" data-name="Trazado 716183" d="M0,0H32" transform="translate(359.5 2615.5)" fill="none" stroke="#707070" stroke-width="2"/>
    <path id="Trazado_716184" data-name="Trazado 716184" d="M0,0H32" transform="translate(359.5 2634.5)" fill="none" stroke="#707070" stroke-width="2"/>
    <path id="Trazado_716185" data-name="Trazado 716185" d="M0,0H32" transform="translate(359.5 2596.5)" fill="none" stroke="#707070" stroke-width="2"/>
    <path id="Trazado_716186" data-name="Trazado 716186" d="M0,0H32" transform="translate(359.5 2577.5)" fill="none" stroke="#707070" stroke-width="2"/>
    <path id="Trazado_716187" data-name="Trazado 716187" d="M-21.707-5.594l.656-5.781h6.375v1.883H-19.2l-.281,2.445a3.58,3.58,0,0,1,1.711-.43,3.279,3.279,0,0,1,2.547,1.008,4.026,4.026,0,0,1,.922,2.82,4.124,4.124,0,0,1-.465,1.973A3.281,3.281,0,0,1-16.1-.324a4.158,4.158,0,0,1-2.047.48,4.416,4.416,0,0,1-1.914-.418,3.4,3.4,0,0,1-1.395-1.176A3.2,3.2,0,0,1-22-3.164h2.234a1.669,1.669,0,0,0,.5,1.105,1.573,1.573,0,0,0,1.113.395,1.388,1.388,0,0,0,1.18-.551,2.551,2.551,0,0,0,.414-1.559,2.11,2.11,0,0,0-.477-1.484,1.749,1.749,0,0,0-1.352-.516,1.954,1.954,0,0,0-1.3.422l-.219.2Zm16.5.891a5.762,5.762,0,0,1-.977,3.609A3.409,3.409,0,0,1-9.043.156,3.433,3.433,0,0,1-11.887-1.07a5.594,5.594,0,0,1-1.008-3.516V-6.68a5.687,5.687,0,0,1,.988-3.617,3.434,3.434,0,0,1,2.848-1.234,3.437,3.437,0,0,1,2.844,1.223A5.576,5.576,0,0,1-5.207-6.8Zm-2.258-2.3a4.165,4.165,0,0,0-.387-2.061,1.307,1.307,0,0,0-1.207-.645,1.284,1.284,0,0,0-1.176.614,3.9,3.9,0,0,0-.4,1.92v2.768a4.372,4.372,0,0,0,.379,2.068,1.29,1.29,0,0,0,1.215.676,1.268,1.268,0,0,0,1.2-.649A4.268,4.268,0,0,0-7.465-4.3ZM3.973-4.7A5.762,5.762,0,0,1,3-1.094,3.409,3.409,0,0,1,.137.156,3.433,3.433,0,0,1-2.707-1.07,5.594,5.594,0,0,1-3.715-4.586V-6.68A5.687,5.687,0,0,1-2.727-10.3,3.434,3.434,0,0,1,.121-11.531a3.437,3.437,0,0,1,2.844,1.223A5.576,5.576,0,0,1,3.973-6.8Zm-2.258-2.3a4.165,4.165,0,0,0-.387-2.061A1.307,1.307,0,0,0,.121-9.711,1.284,1.284,0,0,0-1.055-9.1a3.9,3.9,0,0,0-.4,1.92v2.768a4.372,4.372,0,0,0,.379,2.068,1.29,1.29,0,0,0,1.215.676,1.268,1.268,0,0,0,1.2-.649A4.268,4.268,0,0,0,1.715-4.3ZM7.707-8.453l.07.945a2.971,2.971,0,0,1,2.43-1.1A2.255,2.255,0,0,1,12.449-7.32a2.9,2.9,0,0,1,2.539-1.289,2.521,2.521,0,0,1,2.047.8,3.681,3.681,0,0,1,.672,2.41V0H15.441V-5.391a1.61,1.61,0,0,0-.281-1.051,1.246,1.246,0,0,0-.992-.332,1.409,1.409,0,0,0-1.406.969L12.77,0H10.512V-5.383a1.59,1.59,0,0,0-.289-1.062,1.259,1.259,0,0,0-.984-.328,1.463,1.463,0,0,0-1.391.8V0H5.59V-8.453ZM21.824,0H19.559V-12h2.266Z" transform="translate(420 2583)" fill="#12263f"/>
    <g id="Grupo_1011011-2" data-name="Grupo 1011011" transform="translate(615 2530)">
      <path id="Trazado_714588-2" data-name="Trazado 714588" d="M77.619,141.513c0,5.265,25.659,9.534,57.312,9.534s57.312-4.269,57.312-9.534-25.659-9.539-57.312-9.539S77.619,136.245,77.619,141.513Z" transform="translate(-75.03 -1.774)" opacity="0.8" fill="url(#linear-gradient)" style="mix-blend-mode: multiply;isolation: isolate"/>
      <g id="Grupo_1011007-2" data-name="Grupo 1011007">
        <g id="Grupo_1011006-2" data-name="Grupo 1011006">
          <g id="Grupo_1010998-2" data-name="Grupo 1010998" transform="translate(0)" opacity="0.7">
            <path id="Trazado_714589-2" data-name="Trazado 714589" d="M193.744,93.511l-.005,0c-.234-5.853-24.777-10.467-56-10.52h-.59c-21.2,0-38.191,1.866-50.505,5.547A45.784,45.784,0,0,0,79.178,92H79.17l0,.005-.011.008c-2.14,1.358-2.918,2.554-2.312,3.562a12.546,12.546,0,0,0,1.491,1.871c1.627,1.8,3.466,3.835,3.325,9.268l-.186,113.112v.043c.207,5.858,24.769,10.48,56.015,10.531H138c30.9,0,55.215-4.521,55.534-10.307a.279.279,0,0,0,.013-.08l.2-126.412A.311.311,0,0,0,193.744,93.511Z" transform="translate(-76.645 -82.988)" fill="#fff" opacity="0.7" style="mix-blend-mode: screen;isolation: isolate"/>
          </g>
          <g id="Grupo_1010999-2" data-name="Grupo 1010999" transform="translate(7.211 42.3)">
            <path id="Trazado_714590-2" data-name="Trazado 714590" d="M79.39,106.918,79.358,190.4l0,.053c.2,6.786,23.8,12.14,53.82,12.2h.489c29.686,0,53.052-5.238,53.36-11.947a.522.522,0,0,0,.011-.094l.032-83Z" transform="translate(-79.358 -99.837)" fill="url(#linear-gradient-8)" style="mix-blend-mode: multiply;isolation: isolate"/>
            <path id="Trazado_714591-2" data-name="Trazado 714591" d="M187.072,111.446c0,3.979-24.112,7.2-53.854,7.2s-53.86-3.219-53.86-7.2,24.112-7.192,53.86-7.192S187.072,107.475,187.072,111.446Z" transform="translate(-79.358 -104.254)" fill="url(#linear-gradient-9)"/>
            <path id="Trazado_714592-2" data-name="Trazado 714592" d="M133.218,113.612c-28.756,0-52.244-3.009-53.775-6.8a1.025,1.025,0,0,0-.085.391c0,3.979,24.112,7.2,53.86,7.2s53.854-3.219,53.854-7.2a1.024,1.024,0,0,0-.085-.391C185.456,110.6,161.971,113.612,133.218,113.612Z" transform="translate(-79.358 -100.011)" fill="#fff" opacity="0.9" style="mix-blend-mode: screen;isolation: isolate"/>
          </g>
          <g id="Grupo_1011005-2" data-name="Grupo 1011005">
            <g id="Grupo_1011004-2" data-name="Grupo 1011004">
              <path id="Trazado_714593-2" data-name="Trazado 714593" d="M119.692,85.861l.1.056A.887.887,0,0,0,119.692,85.861Z" transform="translate(-5.278 -78.225)" fill="none"/>
              <g id="Grupo_1011000-2" data-name="Grupo 1011000" transform="translate(114.173 7.398)" opacity="0.6">
                <path id="Trazado_714594-2" data-name="Trazado 714594" d="M119.707,85.869l-.024-.013h0Z" transform="translate(-119.466 -85.631)" fill="url(#linear-gradient-4)"/>
                <path id="Trazado_714595-2" data-name="Trazado 714595" d="M119.853,86.236l-.029,0a.222.222,0,0,1-.09-.027h0l0,0h0l-.013-.011a.226.226,0,0,1,.159-.417l.048.019a.227.227,0,0,1,.157.215A.224.224,0,0,1,119.853,86.236Z" transform="translate(-119.601 -85.771)" fill="#5c2f10"/>
              </g>
              <g id="Grupo_1011002-2" data-name="Grupo 1011002">
                <g id="Grupo_1011001-2" data-name="Grupo 1011001">
                  <path id="Trazado_714596-2" data-name="Trazado 714596" d="M138,224.806h-.513c-31.246-.05-55.808-4.673-56.015-10.531v-.043l.186-113.112c.141-5.433-1.7-7.471-3.325-9.268a12.545,12.545,0,0,1-1.491-1.871c-.609-1.01.178-2.211,2.331-3.575a.3.3,0,0,1,.338.5c-.447.311-1.858,1.419-1.3,2.435.781,1.43,4.008,4.077,8.737,5.486C94.248,97,108.431,99.6,134.537,99.6c5.321,0,10.977-.112,16.809-.335,36.48-1.385,41.6-6.488,41.8-11.3a.3.3,0,0,1,.3-.287h.005a.3.3,0,0,1,.29.245.312.312,0,0,1,.011.085l-.2,126.412a.279.279,0,0,1-.013.08C193.218,220.285,168.9,224.806,138,224.806ZM82.075,214.2l0,.032c.085,5.361,25.463,9.927,55.412,9.978H138c14.73,0,28.567-1.045,38.957-2.942,10.105-1.845,15.931-4.343,15.982-6.852a.259.259,0,0,1,.005-.064l.2-123.834c-2.108,4.359-10.783,8.178-41.785,9.353-5.837.223-11.5.335-16.83.338-26.18,0-40.421-2.61-47.757-4.8-5.167-1.539-8.319-4.356-9.1-5.776a1.6,1.6,0,0,1-.191-1,.953.953,0,0,0-.133,1.047,12.18,12.18,0,0,0,1.425,1.778c1.613,1.789,3.628,4.013,3.477,9.683Z" transform="translate(-76.645 -77.399)" fill="#8facba"/>
                  <path id="Trazado_714597-2" data-name="Trazado 714597" d="M134.025,105.79h-.005c-26.183,0-40.427-2.607-47.76-4.8-5.167-1.539-8.319-4.356-9.1-5.776-.795-1.454.93-2.831,1.483-3.216a45.835,45.835,0,0,1,7.471-3.466c12.314-3.681,29.3-5.547,50.505-5.547h.59c31.329.053,55.933,4.7,56.015,10.576-.221,5.358-5.507,10.493-42.383,11.891C145.01,105.678,139.346,105.79,134.025,105.79Zm2.6-22.2c-21.144,0-38.074,1.853-50.317,5.518A44.66,44.66,0,0,0,78.98,92.5c-.433.3-1.845,1.411-1.286,2.427.781,1.43,4.008,4.077,8.737,5.486,7.3,2.177,21.478,4.771,47.587,4.771h.008c5.316,0,10.966-.109,16.8-.332,36.48-1.385,41.6-6.488,41.8-11.3-.072-5.342-25.447-9.911-55.414-9.962Zm1.119,20.3h-.521a258.589,258.589,0,0,1-39.65-2.86c-7.931-1.324-17.385-3.623-17.38-7.059C80.2,90.552,89.563,88.291,97.415,87a256.976,256.976,0,0,1,39.326-2.759h.513c14.5.027,28.142,1.039,38.4,2.86,7.36,1.3,16.125,3.588,16.12,7.059C191.762,100.251,164.293,103.892,137.743,103.892Zm-1-19.054c-29.795,0-55.941,4.271-55.949,9.135-.008,4.364,23.166,9.263,56.43,9.316l.521,0c25.8,0,53.421-3.673,53.429-9.138,0-2.347-5.691-4.7-15.623-6.467-10.228-1.813-23.825-2.823-38.295-2.847Z" transform="translate(-76.125 -82.988)" fill="#728996"/>
                  <path id="Trazado_714598-2" data-name="Trazado 714598" d="M135.729,103.113h-.524a258.587,258.587,0,0,1-39.65-2.86c-7.931-1.324-17.385-3.623-17.38-7.059.005-3.421,9.369-5.683,17.223-6.977a256.977,256.977,0,0,1,39.326-2.759h.513c14.5.027,28.142,1.039,38.4,2.86,7.36,1.3,16.125,3.588,16.12,7.059C189.745,99.472,162.281,103.113,135.729,103.113Zm-1-19.054c-29.8,0-55.941,4.271-55.949,9.135-.008,4.364,23.166,9.263,56.43,9.316l.521,0c25.8,0,53.421-3.673,53.429-9.138,0-2.347-5.691-4.7-15.623-6.467-10.228-1.813-23.825-2.823-38.295-2.847Z" transform="translate(-74.108 -82.209)" fill="#8facba"/>
                </g>
                <path id="Trazado_714599-2" data-name="Trazado 714599" d="M185.451,129.976c-.542-2.408-1.72,5.188-2.74,9.481s-4.292,4.21-4.292,4.21l-.008,0c-8.048-2.934-25.479-4.984-45.7-5.018-19.062-.029-35.653,1.741-44.241,4.375h-.005c-4.835.029-7.277-15.025-7.9-16.607s-.936,1.053-.936,1.053.287,14.374,1.06,17.611a5.836,5.836,0,0,0,3.035,4.152l0,0c5.47,3.74,25.306,6.538,48.948,6.578,25.316.04,46.277-3.094,49.921-7.219v0C185.225,146.869,185.991,132.386,185.451,129.976Z" transform="translate(-71.688 -11.822)" opacity="0.3" fill="url(#linear-gradient-5)" style="mix-blend-mode: multiply;isolation: isolate"/>
                <path id="Trazado_714600-2" data-name="Trazado 714600" d="M193.259,88.774c-.013-1-.816-1.97-2.294-2.889,1.223.824,4.024,4.856-2.581,7.66-6.831,2.9-23.291,7.184-60.72,6.118s-45.748-6.4-48.148-9.21c-1.688-1.972.88-3.71,2.568-4.574a27.644,27.644,0,0,0-2.937,1.573c-1.674,1.063-2.815,2.2-2.235,3.166,1.563,2.591,5.055,3.883,4.859,11.3l-.186,113.112h0c.09,5.627,24.995,10.222,55.712,10.273s55.643-4.463,55.749-10.087h.011l.2-126.412h-.005ZM170.422,216.566s-10.6,4-30.188,3.519c-19.589.417-30.17-3.617-30.17-3.617-18.055-4.619-16.495-36.775-16.495-36.775l.114-70.8c.46-5.114,5.132-9.172,14.31-7.5,6.089,1.106,22.247,1.438,32.434,1.536,10.19-.064,26.345-.34,32.44-1.43,9.183-1.64,13.845,2.432,14.286,7.551l-.117,70.8S188.491,212.008,170.422,216.566Z" transform="translate(-76.455 -78.193)" opacity="0.6" fill="url(#linear-gradient-6)" style="mix-blend-mode: multiply;isolation: isolate"/>
              </g>
              <g id="Grupo_1011003-2" data-name="Grupo 1011003" transform="translate(0.305 10.581)">
                <path id="Trazado_714601-2" data-name="Trazado 714601" d="M172,196.217c5.244-10.948,4.572-25.808,4.572-25.808l.117-70.8c-.441-5.119-5.1-9.191-14.286-7.551-6.095,1.09-22.249,1.366-32.44,1.43-10.188-.1-26.345-.431-32.434-1.536-9.178-1.672-13.85,2.387-14.31,7.5l-.114,70.8s-1.56,32.155,16.495,36.775c0,0,10.581,4.035,30.17,3.617,19.591.481,30.188-3.519,30.188-3.519,5.786-1.459,9.574-5.752,12.043-10.913Z" transform="translate(-66.296 -79.339)" fill="none"/>
                <path id="Trazado_714602-2" data-name="Trazado 714602" d="M116.225,95.642c6.347,1.276,9.175.13,9.175.13l2.376,22.063.011-.016L127.835,87h-.005v-.027C128.167,93.024,116.225,95.642,116.225,95.642Z" transform="translate(-11.33 -86.969)" fill="#b8c8d3" opacity="0.7" style="mix-blend-mode: multiply;isolation: isolate"/>
                <path id="Trazado_714603-2" data-name="Trazado 714603" d="M88.53,97.6c3.615.207,21.266.649,23.379.032,0,0-22.27-.731-29.588-5.358-4.223-2.671-5.449-4.13-5.143-5.191a1.306,1.306,0,0,0-.266,1.536c1.563,2.591,5.055,3.883,4.859,11.3l-.029,15.836,2.607-14.544S84.92,97.395,88.53,97.6Z" transform="translate(-76.76 -86.777)" fill="#b8c8d3" opacity="0.7" style="mix-blend-mode: multiply;isolation: isolate"/>
              </g>
              <path id="Trazado_714604-2" data-name="Trazado 714604" d="M84.028,205.022c-2.756-6.23-1.494-107.514-1.494-107.514s.144-3.886,3.126-4.51a22.657,22.657,0,0,1-4.16-1.563c-.7-.348-1.534-.723-2.32-1.188a19.153,19.153,0,0,1,1.193,7.636c-.109,6.095,0,104.232,0,104.232a7.011,7.011,0,0,0,4.558,7.527A69.392,69.392,0,0,0,104.7,214.4S86.784,211.252,84.028,205.022Z" transform="translate(-72.442 -70.955)" fill="#fff" opacity="0.7" style="mix-blend-mode: screen;isolation: isolate"/>
              <path id="Trazado_714605-2" data-name="Trazado 714605" d="M131.426,205.022c2.756-6.23,1.488-107.514,1.488-107.514s-.141-3.886-3.123-4.51a22.345,22.345,0,0,0,4.157-1.563c.7-.348,1.539-.723,2.323-1.188a19.217,19.217,0,0,0-1.191,7.636c.106,6.095,0,104.232,0,104.232a7.015,7.015,0,0,1-4.558,7.527,69.392,69.392,0,0,1-19.764,4.758S128.67,211.252,131.426,205.022Z" transform="translate(-20.089 -70.955)" fill="#fff" opacity="0.7" style="mix-blend-mode: screen;isolation: isolate"/>
            </g>
          </g>
        </g>
      </g>
      <g id="Grupo_1011010-2" data-name="Grupo 1011010" transform="translate(0.569 11.987)">
        <g id="Grupo_1011009-2" data-name="Grupo 1011009">
          <g id="Grupo_1011008-2" data-name="Grupo 1011008">
            <path id="Trazado_714606-2" data-name="Trazado 714606" d="M135.418,96.415H134.9a258.6,258.6,0,0,1-39.653-2.86c-7.134-1.191-15.5-3.171-17.1-6.057h.734c3.181,4.077,25.285,8.263,56.023,8.314l.518,0c24.477,0,50.585-3.309,53.2-8.317h.643C186.9,93.1,160.753,96.415,135.418,96.415Z" transform="translate(-74.73 -87.498)" fill="#728996"/>
            <path id="Trazado_714607-2" data-name="Trazado 714607" d="M77.521,87.5c.821,1.435,4.029,4.045,8.713,5.441,7.3,2.177,21.476,4.771,47.587,4.771h.005c5.316,0,10.969-.109,16.8-.332,32.9-1.249,40.3-5.523,41.575-9.879h.635c-1.207,4.824-8.569,9.2-42.186,10.48-5.839.223-11.5.335-16.824.335h-.005c-26.183,0-40.424-2.607-47.76-4.8-5.167-1.539-8.317-4.356-9.093-5.776a1.385,1.385,0,0,1-.109-.242Z" transform="translate(-76.859 -87.498)" fill="#728996"/>
            <path id="Trazado_714608-2" data-name="Trazado 714608" d="M78.877,87.5c3.181,4.077,25.285,8.263,56.023,8.314l.518,0c24.477,0,50.585-3.309,53.2-8.317h.643c-2.352,5.6-28.5,8.917-53.838,8.917H134.9a258.6,258.6,0,0,1-39.653-2.86c-7.134-1.191-15.5-3.171-17.1-6.057Z" transform="translate(-74.73 -87.498)" fill="#8facba"/>
          </g>
        </g>
      </g>
    </g>
    <path id="Trazado_716188" data-name="Trazado 716188" d="M0,0H32" transform="translate(634.5 2653.5)" fill="none" stroke="#707070" stroke-width="2"/>
    <path id="Trazado_716189" data-name="Trazado 716189" d="M0,0H32" transform="translate(634.5 2615.5)" fill="none" stroke="#707070" stroke-width="2"/>
    <path id="Trazado_716190" data-name="Trazado 716190" d="M0,0H32" transform="translate(634.5 2634.5)" fill="none" stroke="#707070" stroke-width="2"/>
    <path id="Trazado_716191" data-name="Trazado 716191" d="M0,0H32" transform="translate(634.5 2596.5)" fill="none" stroke="#707070" stroke-width="2"/>
    <path id="Trazado_716192" data-name="Trazado 716192" d="M0,0H32" transform="translate(634.5 2577.5)" fill="none" stroke="#707070" stroke-width="2"/>
    <path id="Trazado_716193" data-name="Trazado 716193" d="M-21.707-5.594l.656-5.781h6.375v1.883H-19.2l-.281,2.445a3.58,3.58,0,0,1,1.711-.43,3.279,3.279,0,0,1,2.547,1.008,4.026,4.026,0,0,1,.922,2.82,4.124,4.124,0,0,1-.465,1.973A3.281,3.281,0,0,1-16.1-.324a4.158,4.158,0,0,1-2.047.48,4.416,4.416,0,0,1-1.914-.418,3.4,3.4,0,0,1-1.395-1.176A3.2,3.2,0,0,1-22-3.164h2.234a1.669,1.669,0,0,0,.5,1.105,1.573,1.573,0,0,0,1.113.395,1.388,1.388,0,0,0,1.18-.551,2.551,2.551,0,0,0,.414-1.559,2.11,2.11,0,0,0-.477-1.484,1.749,1.749,0,0,0-1.352-.516,1.954,1.954,0,0,0-1.3.422l-.219.2Zm16.5.891a5.762,5.762,0,0,1-.977,3.609A3.409,3.409,0,0,1-9.043.156,3.433,3.433,0,0,1-11.887-1.07a5.594,5.594,0,0,1-1.008-3.516V-6.68a5.687,5.687,0,0,1,.988-3.617,3.434,3.434,0,0,1,2.848-1.234,3.437,3.437,0,0,1,2.844,1.223A5.576,5.576,0,0,1-5.207-6.8Zm-2.258-2.3a4.165,4.165,0,0,0-.387-2.061,1.307,1.307,0,0,0-1.207-.645,1.284,1.284,0,0,0-1.176.614,3.9,3.9,0,0,0-.4,1.92v2.768a4.372,4.372,0,0,0,.379,2.068,1.29,1.29,0,0,0,1.215.676,1.268,1.268,0,0,0,1.2-.649A4.268,4.268,0,0,0-7.465-4.3ZM3.973-4.7A5.762,5.762,0,0,1,3-1.094,3.409,3.409,0,0,1,.137.156,3.433,3.433,0,0,1-2.707-1.07,5.594,5.594,0,0,1-3.715-4.586V-6.68A5.687,5.687,0,0,1-2.727-10.3,3.434,3.434,0,0,1,.121-11.531a3.437,3.437,0,0,1,2.844,1.223A5.576,5.576,0,0,1,3.973-6.8Zm-2.258-2.3a4.165,4.165,0,0,0-.387-2.061A1.307,1.307,0,0,0,.121-9.711,1.284,1.284,0,0,0-1.055-9.1a3.9,3.9,0,0,0-.4,1.92v2.768a4.372,4.372,0,0,0,.379,2.068,1.29,1.29,0,0,0,1.215.676,1.268,1.268,0,0,0,1.2-.649A4.268,4.268,0,0,0,1.715-4.3ZM7.707-8.453l.07.945a2.971,2.971,0,0,1,2.43-1.1A2.255,2.255,0,0,1,12.449-7.32a2.9,2.9,0,0,1,2.539-1.289,2.521,2.521,0,0,1,2.047.8,3.681,3.681,0,0,1,.672,2.41V0H15.441V-5.391a1.61,1.61,0,0,0-.281-1.051,1.246,1.246,0,0,0-.992-.332,1.409,1.409,0,0,0-1.406.969L12.77,0H10.512V-5.383a1.59,1.59,0,0,0-.289-1.062,1.259,1.259,0,0,0-.984-.328,1.463,1.463,0,0,0-1.391.8V0H5.59V-8.453ZM21.824,0H19.559V-12h2.266Z" transform="translate(695 2583)" fill="#12263f"/>
  </g>
</svg>
