<svg xmlns="http://www.w3.org/2000/svg" width="400" height="506" viewBox="0 0 400 506">
  <g id="Grupo_1013270" data-name="Grupo 1013270" transform="translate(-600 -1445)">
    <path id="Trazado_715341" data-name="Trazado 715341" d="M19,0H381a19,19,0,0,1,19,19V487a19,19,0,0,1-19,19H19A19,19,0,0,1,0,487V19A19,19,0,0,1,19,0Z" transform="translate(600 1445)" fill="#85c8f2"/>
    <path id="Trazado_716186" data-name="Trazado 716186" d="M0,0H399V46a20,20,0,0,1-20,20H20A20,20,0,0,1,0,46Z" transform="translate(601 1885)" fill="#0071b3" opacity="0.9"/>
    <path id="Trazado_716187" data-name="Trazado 716187" d="M11.235-4.85a1.954,1.954,0,0,0-.762-1.657A9.991,9.991,0,0,0,7.731-7.725,19.439,19.439,0,0,1,4.6-8.988q-3.148-1.7-3.148-4.583a4.464,4.464,0,0,1,.844-2.672,5.507,5.507,0,0,1,2.425-1.834,9.127,9.127,0,0,1,3.548-.66,8.307,8.307,0,0,1,3.529.717A5.62,5.62,0,0,1,14.2-16a5.3,5.3,0,0,1,.857,2.971H11.248a2.493,2.493,0,0,0-.8-1.974A3.288,3.288,0,0,0,8.2-15.7a3.513,3.513,0,0,0-2.171.59,1.862,1.862,0,0,0-.774,1.555,1.783,1.783,0,0,0,.908,1.511,10.255,10.255,0,0,0,2.672,1.143A11.547,11.547,0,0,1,13.571-8.48a4.829,4.829,0,0,1,1.485,3.605,4.448,4.448,0,0,1-1.815,3.764A7.948,7.948,0,0,1,8.354.254,9.438,9.438,0,0,1,4.469-.527,6.147,6.147,0,0,1,1.8-2.666a5.478,5.478,0,0,1-.92-3.148H4.7q0,3.06,3.656,3.06a3.557,3.557,0,0,0,2.12-.552A1.8,1.8,0,0,0,11.235-4.85ZM25.353,0a4.074,4.074,0,0,1-.368-1.231A4.439,4.439,0,0,1,21.519.254,4.877,4.877,0,0,1,18.173-.914a3.756,3.756,0,0,1-1.327-2.945,3.882,3.882,0,0,1,1.619-3.352,7.987,7.987,0,0,1,4.678-1.181h1.688v-.787a2.264,2.264,0,0,0-.489-1.523,1.923,1.923,0,0,0-1.542-.571,2.186,2.186,0,0,0-1.454.444A1.509,1.509,0,0,0,20.82-9.61H17.151a3.685,3.685,0,0,1,.736-2.209,4.867,4.867,0,0,1,2.082-1.593,7.588,7.588,0,0,1,3.021-.578,6,6,0,0,1,4.031,1.276,4.463,4.463,0,0,1,1.492,3.586v5.954A6.567,6.567,0,0,0,29.06-.216V0ZM22.318-2.552a3.16,3.16,0,0,0,1.5-.362,2.376,2.376,0,0,0,1.016-.971V-6.246H23.461q-2.755,0-2.933,1.9l-.013.216A1.469,1.469,0,0,0,21-3,1.874,1.874,0,0,0,22.318-2.552ZM35.725-17.113v3.377h2.349v2.691H35.725v6.855A1.637,1.637,0,0,0,36.017-3.1a1.467,1.467,0,0,0,1.117.33,5.851,5.851,0,0,0,1.079-.089v2.78a7.553,7.553,0,0,1-2.222.33q-3.859,0-3.936-3.9v-7.4H30.05v-2.691h2.006v-3.377ZM48.344-1.4A4.6,4.6,0,0,1,44.586.254a4.339,4.339,0,0,1-3.371-1.27,5.419,5.419,0,0,1-1.187-3.72v-9H43.7v8.884Q43.7-2.7,45.652-2.7A2.649,2.649,0,0,0,48.217-4v-9.736H51.9V0H48.445Zm14.041-8.9a9.968,9.968,0,0,0-1.32-.1,2.687,2.687,0,0,0-2.729,1.409V0H54.666V-13.736h3.466l.1,1.638a3.4,3.4,0,0,1,3.06-1.892,3.844,3.844,0,0,1,1.143.165ZM71.729,0a4.074,4.074,0,0,1-.368-1.231A4.439,4.439,0,0,1,67.895.254,4.877,4.877,0,0,1,64.549-.914a3.756,3.756,0,0,1-1.327-2.945,3.882,3.882,0,0,1,1.619-3.352A7.987,7.987,0,0,1,69.52-8.392h1.688v-.787a2.264,2.264,0,0,0-.489-1.523,1.923,1.923,0,0,0-1.542-.571,2.186,2.186,0,0,0-1.454.444A1.509,1.509,0,0,0,67.2-9.61H63.527a3.685,3.685,0,0,1,.736-2.209,4.867,4.867,0,0,1,2.082-1.593,7.588,7.588,0,0,1,3.021-.578A6,6,0,0,1,73.4-12.714,4.463,4.463,0,0,1,74.89-9.128v5.954a6.567,6.567,0,0,0,.546,2.958V0ZM68.694-2.552a3.16,3.16,0,0,0,1.5-.362,2.376,2.376,0,0,0,1.016-.971V-6.246H69.837q-2.755,0-2.933,1.9l-.013.216A1.469,1.469,0,0,0,67.374-3,1.874,1.874,0,0,0,68.694-2.552ZM77.137-6.97a8.278,8.278,0,0,1,1.441-5.116,4.675,4.675,0,0,1,3.942-1.9,4.207,4.207,0,0,1,3.313,1.5V-19.5h3.682V0H86.2l-.178-1.46A4.318,4.318,0,0,1,82.494.254,4.663,4.663,0,0,1,78.6-1.657,8.545,8.545,0,0,1,77.137-6.97Zm3.669.273a5.423,5.423,0,0,0,.673,2.963A2.192,2.192,0,0,0,83.434-2.7a2.455,2.455,0,0,0,2.4-1.437V-9.57a2.42,2.42,0,0,0-2.374-1.437Q80.806-11.007,80.806-6.7ZM100.318,0a4.074,4.074,0,0,1-.368-1.231A4.439,4.439,0,0,1,96.484.254,4.877,4.877,0,0,1,93.139-.914a3.756,3.756,0,0,1-1.327-2.945,3.882,3.882,0,0,1,1.619-3.352,7.987,7.987,0,0,1,4.678-1.181H99.8v-.787a2.264,2.264,0,0,0-.489-1.523,1.923,1.923,0,0,0-1.542-.571,2.186,2.186,0,0,0-1.454.444,1.509,1.509,0,0,0-.527,1.219H92.117a3.686,3.686,0,0,1,.736-2.209,4.867,4.867,0,0,1,2.082-1.593,7.588,7.588,0,0,1,3.021-.578,6,6,0,0,1,4.031,1.276,4.463,4.463,0,0,1,1.492,3.586v5.954a6.567,6.567,0,0,0,.546,2.958V0ZM97.284-2.552a3.16,3.16,0,0,0,1.5-.362A2.376,2.376,0,0,0,99.8-3.885V-6.246H98.427q-2.755,0-2.933,1.9l-.013.216A1.469,1.469,0,0,0,95.964-3,1.874,1.874,0,0,0,97.284-2.552ZM113.737-3.8a1.182,1.182,0,0,0-.667-1.06,7.571,7.571,0,0,0-2.139-.692q-4.9-1.028-4.9-4.164a3.774,3.774,0,0,1,1.517-3.053,6.12,6.12,0,0,1,3.967-1.225,6.587,6.587,0,0,1,4.183,1.231,3.881,3.881,0,0,1,1.568,3.2H113.6a1.775,1.775,0,0,0-.508-1.3,2.149,2.149,0,0,0-1.587-.514,2.2,2.2,0,0,0-1.435.419,1.323,1.323,0,0,0-.508,1.066,1.13,1.13,0,0,0,.578.984,5.942,5.942,0,0,0,1.949.647,15.917,15.917,0,0,1,2.311.616Q117.3-6.576,117.3-3.948a3.583,3.583,0,0,1-1.612,3.041A6.955,6.955,0,0,1,111.528.254a7.264,7.264,0,0,1-3.066-.616,5.144,5.144,0,0,1-2.1-1.688,3.923,3.923,0,0,1-.762-2.317h3.479a1.915,1.915,0,0,0,.724,1.5,2.87,2.87,0,0,0,1.8.521,2.657,2.657,0,0,0,1.593-.4A1.244,1.244,0,0,0,113.737-3.8Z" transform="translate(744 1928)" fill="#f6f6f6"/>
    <g id="Grupo_1011187" data-name="Grupo 1011187" transform="translate(410)">
      <g id="Grupo_1011184" data-name="Grupo 1011184" transform="translate(-195.897 -918.313)">
        <g id="Grupo_1011182" data-name="Grupo 1011182" transform="translate(480.897 2588.119)">
          <path id="Trazado_715323" data-name="Trazado 715323" d="M464.114,2623.48l33.564,9-.586,40.949-33-10.688Z" transform="translate(-464.093 -2614.583)" fill="#edf0f4"/>
          <path id="Trazado_715324" data-name="Trazado 715324" d="M532.254,2632.242l29.352-9.226-1.317,36.327-28.62,13.847Z" transform="translate(-498.668 -2614.346)" fill="#c8cddb"/>
          <path id="Trazado_715325" data-name="Trazado 715325" d="M464.137,2614.159l28.447-8.9,34.468,8.671-29.352,9.225Z" transform="translate(-464.115 -2605.262)" fill="#dadee5"/>
          <path id="Trazado_715326" data-name="Trazado 715326" d="M535.25,2653.948a.975.975,0,0,1,.342.324c.146.316-.187.626-.419.885a3.857,3.857,0,0,0-.734,2.185,5.544,5.544,0,0,0,.2,2.974,1.938,1.938,0,0,0,2.462,1.1,1.647,1.647,0,0,0-.861-1.178,1.432,1.432,0,0,0,1.772-.759,2.338,2.338,0,0,0-.145-2.054,6.92,6.92,0,0,0-1.353-1.641,1.9,1.9,0,0,0,1.971-1.067,2.308,2.308,0,0,0-.256-2.282,3.11,3.11,0,0,0,3.044-.74,1.98,1.98,0,0,0-.218-2.884,2.221,2.221,0,0,0,1.547.057,1.331,1.331,0,0,0,.884-1.193,2.052,2.052,0,0,0-.973-1.439,1.939,1.939,0,0,0-1.339-.548c-.492.057-.905.68-.59,1.062a3.632,3.632,0,0,0-1.776-1.057,1.487,1.487,0,0,0-1.7.887,1.732,1.732,0,0,0-1.082,3.095,5.774,5.774,0,0,0-1.334,2.035A2.057,2.057,0,0,0,535.25,2653.948Z" transform="translate(-500.031 -2625.939)" fill="#dadee5"/>
          <path id="Trazado_715327" data-name="Trazado 715327" d="M554.421,2639.548a1.023,1.023,0,0,0-.674.217.548.548,0,0,0-.147.653l-.568.023c-.053.624-.055,1.365.451,1.733a1.866,1.866,0,0,0,1.534.075l.273-.067a6.011,6.011,0,0,1,2.209-.253,1.816,1.816,0,0,0,.156-1.691.948.948,0,0,0-1.493-.034l-.279.031A1.89,1.89,0,0,0,554.421,2639.548Z" transform="translate(-509.587 -2622.804)" fill="#dadee5"/>
          <path id="Trazado_715328" data-name="Trazado 715328" d="M543.642,2683.185a1.354,1.354,0,0,0-1.053.42c-.4.55.106,1.286.583,1.77l1.459,1.481c.219.222.5.464.8.379-.551.755-1.005,1.844-.408,2.564.536.646,1.54.531,2.361.356a1.632,1.632,0,0,0,1.666-2.756,6.456,6.456,0,0,0,2.52-1.626,3.363,3.363,0,0,0,.878-2.787,2.3,2.3,0,0,0-2.067-1.887,3.854,3.854,0,0,0-.627.054l-1.1.157a12.3,12.3,0,0,0-2.2.453,1.529,1.529,0,0,0-1.006.763c-.16.4.171.979.594.878A7.923,7.923,0,0,0,543.642,2683.185Z" transform="translate(-504.182 -2644.064)" fill="#dadee5"/>
          <path id="Trazado_715329" data-name="Trazado 715329" d="M519.439,2629.015c.812-.07,1.614.475,2.406.283a2.01,2.01,0,0,0,1.278-2.058.724.724,0,0,0-.579-.814,3.9,3.9,0,0,0-3.157.254c.568-.158.657-1.008.285-1.467a2.685,2.685,0,0,0-1.565-.75,14.769,14.769,0,0,0-3.407-.486.537.537,0,0,0-.334.081.559.559,0,0,0-.15.424c-.037.6.027,1.366.6,1.565a9.956,9.956,0,0,0-2.049-.111,1.8,1.8,0,0,0-.831.188.7.7,0,0,0-.373.713c.1.467.719.56,1.2.55l2.835-.056q-.05.74-.1,1.481a4.139,4.139,0,0,0,3.075.412A5.3,5.3,0,0,1,519.439,2629.015Z" transform="translate(-488.373 -2614.837)" fill="#edf0f4"/>
          <path id="Trazado_715330" data-name="Trazado 715330" d="M505.512,2626.642a1.236,1.236,0,0,0-1.489.069,1.464,1.464,0,0,0-.175,1.115.45.45,0,0,0,.111.3.39.39,0,0,0,.215.08,1.687,1.687,0,0,0,1.633-.787.57.57,0,0,0,.1-.34C505.887,2626.874,505.694,2626.735,505.512,2626.642Z" transform="translate(-484.419 -2616.092)" fill="#edf0f4"/>
          <path id="Trazado_715331" data-name="Trazado 715331" d="M535.769,2622.872a3.763,3.763,0,0,0-2.271-.049c-.2.06-.442.262-.315.43a4.649,4.649,0,0,0,3.058.6.441.441,0,0,0,.092-.606A1.045,1.045,0,0,0,535.769,2622.872Z" transform="translate(-499.425 -2614.169)" fill="#edf0f4"/>
          <path id="Trazado_715332" data-name="Trazado 715332" d="M513.582,2615.928a3.937,3.937,0,0,0,2.312.574,1.224,1.224,0,0,0-.1.719,6.64,6.64,0,0,0,3.49-.12c.295-.092.64-.291.607-.6a4.048,4.048,0,0,0-1.62-.521,1.646,1.646,0,0,0,.795-.144c0-.153-.009-.306-.014-.459l-2.785-.748a5.037,5.037,0,0,0-1.364-.235l-.134.767A1.156,1.156,0,0,0,513.582,2615.928Z" transform="translate(-489.414 -2609.936)" fill="#edf0f4"/>
          <path id="Trazado_715333" data-name="Trazado 715333" d="M468.186,2629.607q.11.648.22,1.3l.056,33.735a1.512,1.512,0,0,0,2.147-.852c.059-.219.066-.45.141-.664a2.535,2.535,0,0,1,.637-.863,19.792,19.792,0,0,0,2.643-3.838,6.783,6.783,0,0,0,1.238-4.658q-.055-2.75-.11-5.5a2.377,2.377,0,0,0,1.662-1.729,7,7,0,0,0,.109-2.5,6.031,6.031,0,0,0,2.848.081,2.071,2.071,0,0,0,1.579-2.109,7.241,7.241,0,0,0,2.4.376,2.456,2.456,0,0,0,2.029-1.162,1.857,1.857,0,0,0,3.57-.514,2.755,2.755,0,0,0,4.239-.9,1.208,1.208,0,0,1,.336-.571,1.3,1.3,0,0,1,.84-.084,2.186,2.186,0,0,0,2.108-2.682,35.161,35.161,0,0,1-6.066-.724c-1.468-.307-2.914-.707-4.36-1.107C480.351,2632.945,474.286,2631.294,468.186,2629.607Z" transform="translate(-466.187 -2617.718)" fill="#fff"/>
        </g>
        <g id="Grupo_1011183" data-name="Grupo 1011183" transform="translate(609.915 2486.313)">
          <path id="Trazado_715334" data-name="Trazado 715334" d="M700.214,2495.952H631.693s-.165,183.4-.165,184.5a34.335,34.335,0,0,0,68.67,0c0-.043-.007-.085-.007-.118h.023Z" transform="translate(-625.455 -2488.359)" fill="#e3e8ec"/>
          <path id="Trazado_715335" data-name="Trazado 715335" d="M700.214,2495.952H631.693s-.165,183.4-.165,184.5a34.335,34.335,0,0,0,68.67,0c0-.043-.007-.085-.007-.118h.023Z" transform="translate(-625.455 -2488.359)" fill="#e3e8ec"/>
          <path id="Trazado_715336" data-name="Trazado 715336" d="M697.247,2557.888c-3.563-.159-3.688-3.243-7.447-3.243-3.852,0-3.852,3.272-7.714,3.272-3.845,0-3.845-3.272-7.7-3.272s-3.853,3.272-7.706,3.272-3.853-3.272-7.7-3.272-3.862,3.272-7.714,3.272-3.845-3.272-7.706-3.272c-3.571,0-3.869,2.784-6.968,3.19V2686.6h.008c-.008,3.1-.008,4.9-.008,5.011a30.314,30.314,0,1,0,60.627,0v-.106h.016v-4.9h.016Z" transform="translate(-626.529 -2500.818)" fill="#118e9f"/>
          <path id="Trazado_715337" data-name="Trazado 715337" d="M654.942,2693.763v-.012h0V2557.486a4.823,4.823,0,0,1-2.1.432c-3.845,0-3.845-3.272-7.706-3.272a5.4,5.4,0,0,0-1.075.106c-.008,49.491-.016,138.907-.016,139.011a5.446,5.446,0,0,0,10.892,0Z" transform="translate(-628.113 -2500.818)" fill="#8ccfda"/>
          <path id="Trazado_715338" data-name="Trazado 715338" d="M702.423,2495.952h-8.553V2673.19h-.024v.122a34.324,34.324,0,0,1-51.728,29.558,34.326,34.326,0,0,0,60.289-22.422v-.118h.016Z" transform="translate(-627.703 -2488.359)" fill="#d9d9d9" style="mix-blend-mode: multiply;isolation: isolate"/>
          <rect id="Rectángulo_347188" data-name="Rectángulo 347188" width="80.982" height="17.124" transform="translate(0)" fill="#c8d2d8"/>
          <path id="Trazado_715339" data-name="Trazado 715339" d="M702.358,2492.85a3.407,3.407,0,0,1-3.413,3.413H629.662a3.412,3.412,0,0,1-3.413-3.413h0a3.416,3.416,0,0,1,3.413-3.414h69.282a3.411,3.411,0,0,1,3.413,3.414Z" transform="translate(-624.334 -2486.976)" fill="#f5f5f5"/>
        </g>
      </g>
      <g id="Grupo_1011185" data-name="Grupo 1011185" transform="translate(3 -31)">
        <rect id="Rectángulo_347189" data-name="Rectángulo 347189" width="49" height="8" transform="translate(352 1725)" fill="#636363"/>
        <path id="Polígono_6" data-name="Polígono 6" d="M7.5,0,15,12H0Z" transform="translate(410.5 1721.5) rotate(90)" fill="#636363"/>
      </g>
    </g>
    <g id="Grupo_1011188" data-name="Grupo 1011188" transform="matrix(0.875, 0.485, -0.485, 0.875, 852.334, 1721.441)" opacity="0.71">
      <path id="Trazado_715323-2" data-name="Trazado 715323" d="M464.11,2623.481l26.485,7.1-.462,32.312-26.04-8.434Z" transform="translate(-464.093 -2616.46)" fill="#edf0f4"/>
      <path id="Trazado_715324-2" data-name="Trazado 715324" d="M532.13,2630.3l23.161-7.28-1.039,28.665-22.584,10.927Z" transform="translate(-505.628 -2616.174)" fill="#c8cddb"/>
      <path id="Trazado_715325-2" data-name="Trazado 715325" d="M464.137,2612.282l22.447-7.021,27.2,6.842-23.161,7.28Z" transform="translate(-464.12 -2605.262)" fill="#dadee5"/>
      <path id="Trazado_715326-2" data-name="Trazado 715326" d="M535.056,2652.2a.771.771,0,0,1,.27.255c.115.25-.147.494-.331.7a3.044,3.044,0,0,0-.579,1.724,4.376,4.376,0,0,0,.156,2.347,1.529,1.529,0,0,0,1.943.87,1.3,1.3,0,0,0-.679-.929,1.13,1.13,0,0,0,1.4-.6,1.844,1.844,0,0,0-.115-1.621,5.463,5.463,0,0,0-1.067-1.295,1.5,1.5,0,0,0,1.555-.842,1.821,1.821,0,0,0-.2-1.8,2.454,2.454,0,0,0,2.4-.584,1.562,1.562,0,0,0-.172-2.275,1.754,1.754,0,0,0,1.221.044,1.05,1.05,0,0,0,.7-.942,1.619,1.619,0,0,0-.768-1.135,1.533,1.533,0,0,0-1.056-.432c-.388.045-.714.537-.466.838a2.87,2.87,0,0,0-1.4-.834,1.174,1.174,0,0,0-1.339.7,1.367,1.367,0,0,0-.854,2.442,4.559,4.559,0,0,0-1.053,1.606A1.623,1.623,0,0,0,535.056,2652.2Z" transform="translate(-507.266 -2630.101)" fill="#dadee5"/>
      <path id="Trazado_715327-2" data-name="Trazado 715327" d="M554.123,2639.548a.808.808,0,0,0-.532.171.433.433,0,0,0-.116.515l-.448.018c-.042.492-.043,1.077.356,1.368a1.472,1.472,0,0,0,1.211.059l.216-.052a4.748,4.748,0,0,1,1.743-.2,1.433,1.433,0,0,0,.123-1.334.748.748,0,0,0-1.178-.027l-.22.024A1.491,1.491,0,0,0,554.123,2639.548Z" transform="translate(-518.745 -2626.336)" fill="#dadee5"/>
      <path id="Trazado_715328-2" data-name="Trazado 715328" d="M543.39,2682.745a1.069,1.069,0,0,0-.831.332c-.314.434.084,1.015.46,1.4l1.151,1.169c.173.175.4.366.634.3-.435.6-.793,1.455-.322,2.023.423.509,1.215.419,1.863.281a1.288,1.288,0,0,0,1.315-2.174,5.093,5.093,0,0,0,1.988-1.283,2.653,2.653,0,0,0,.693-2.2,1.815,1.815,0,0,0-1.631-1.489,3.054,3.054,0,0,0-.494.043l-.868.124a9.717,9.717,0,0,0-1.74.357,1.207,1.207,0,0,0-.794.6c-.126.319.135.772.469.693A6.251,6.251,0,0,0,543.39,2682.745Z" transform="translate(-512.253 -2651.875)" fill="#dadee5"/>
      <path id="Trazado_715329-2" data-name="Trazado 715329" d="M517.774,2627.952c.641-.055,1.274.375,1.9.223a1.586,1.586,0,0,0,1.008-1.624.571.571,0,0,0-.457-.642,3.074,3.074,0,0,0-2.491.2c.449-.125.518-.8.225-1.157a2.117,2.117,0,0,0-1.235-.592,11.648,11.648,0,0,0-2.688-.384.424.424,0,0,0-.264.063.441.441,0,0,0-.119.335c-.029.474.022,1.078.47,1.235a7.858,7.858,0,0,0-1.617-.087,1.421,1.421,0,0,0-.655.149.555.555,0,0,0-.294.563c.081.368.568.442.945.434l2.237-.044q-.04.584-.08,1.169a3.267,3.267,0,0,0,2.427.325A4.2,4.2,0,0,1,517.774,2627.952Z" transform="translate(-493.261 -2616.765)" fill="#edf0f4"/>
      <path id="Trazado_715330-2" data-name="Trazado 715330" d="M505.155,2626.6a.975.975,0,0,0-1.175.054,1.155,1.155,0,0,0-.138.88.356.356,0,0,0,.087.235.309.309,0,0,0,.169.063,1.33,1.33,0,0,0,1.288-.621.45.45,0,0,0,.08-.268C505.451,2626.78,505.3,2626.671,505.155,2626.6Z" transform="translate(-488.511 -2618.272)" fill="#edf0f4"/>
      <path id="Trazado_715331-2" data-name="Trazado 715331" d="M535.217,2622.83a2.967,2.967,0,0,0-1.792-.039c-.159.047-.349.207-.249.339a3.668,3.668,0,0,0,2.413.47.347.347,0,0,0,.073-.478A.823.823,0,0,0,535.217,2622.83Z" transform="translate(-506.538 -2615.963)" fill="#edf0f4"/>
      <path id="Trazado_715332-2" data-name="Trazado 715332" d="M513.582,2615.605a3.107,3.107,0,0,0,1.824.452.966.966,0,0,0-.08.568,5.237,5.237,0,0,0,2.754-.094c.233-.073.505-.229.479-.471a3.2,3.2,0,0,0-1.278-.411,1.3,1.3,0,0,0,.627-.114q-.005-.181-.011-.362l-2.2-.59a3.972,3.972,0,0,0-1.076-.185l-.106.6A.913.913,0,0,0,513.582,2615.605Z" transform="translate(-494.511 -2610.877)" fill="#edf0f4"/>
      <path id="Trazado_715333-2" data-name="Trazado 715333" d="M468.186,2629.607q.087.511.174,1.022l.044,26.62a1.193,1.193,0,0,0,1.694-.672c.047-.173.052-.355.111-.524a2,2,0,0,1,.5-.681,15.613,15.613,0,0,0,2.086-3.029,5.352,5.352,0,0,0,.977-3.675q-.043-2.17-.087-4.34a1.875,1.875,0,0,0,1.311-1.365,5.519,5.519,0,0,0,.086-1.976,4.759,4.759,0,0,0,2.247.064,1.634,1.634,0,0,0,1.246-1.664,5.716,5.716,0,0,0,1.894.3,1.938,1.938,0,0,0,1.6-.917,1.465,1.465,0,0,0,2.817-.406,2.174,2.174,0,0,0,3.345-.711.952.952,0,0,1,.265-.451,1.024,1.024,0,0,1,.663-.066,1.725,1.725,0,0,0,1.663-2.116,27.718,27.718,0,0,1-4.787-.571c-1.158-.242-2.3-.558-3.44-.873C477.785,2632.241,473,2630.938,468.186,2629.607Z" transform="translate(-466.609 -2620.226)" fill="#fff"/>
    </g>
    <path id="Trazado_716185" data-name="Trazado 716185" d="M-83.965,0h-2.344l-4.562-7.484V0h-2.344V-11.375h2.344l4.57,7.5v-7.5h2.336Zm1.547-4.3a5.013,5.013,0,0,1,.484-2.242A3.546,3.546,0,0,1-80.539-8.07a4.069,4.069,0,0,1,2.113-.539,3.849,3.849,0,0,1,2.793,1.047,4.2,4.2,0,0,1,1.207,2.844l.016.578A4.418,4.418,0,0,1-75.5-1.02,3.775,3.775,0,0,1-78.41.156a3.793,3.793,0,0,1-2.918-1.172A4.5,4.5,0,0,1-82.418-4.2Zm2.258.16A3.16,3.16,0,0,0-79.707-2.3a1.5,1.5,0,0,0,1.3.638,1.5,1.5,0,0,0,1.281-.63,3.457,3.457,0,0,0,.461-2.015,3.128,3.128,0,0,0-.461-1.831,1.5,1.5,0,0,0-1.3-.649,1.474,1.474,0,0,0-1.281.646A3.516,3.516,0,0,0-80.16-4.144Zm13.242-4.309.07.945a2.971,2.971,0,0,1,2.43-1.1A2.255,2.255,0,0,1-62.176-7.32a2.9,2.9,0,0,1,2.539-1.289,2.521,2.521,0,0,1,2.047.8,3.681,3.681,0,0,1,.672,2.41V0h-2.266V-5.391a1.61,1.61,0,0,0-.281-1.051,1.246,1.246,0,0,0-.992-.332,1.409,1.409,0,0,0-1.406.969l.008,5.8h-2.258V-5.383A1.59,1.59,0,0,0-64.4-6.445a1.259,1.259,0,0,0-.984-.328,1.463,1.463,0,0,0-1.391.8V0h-2.258V-8.453ZM-50.285,0a2.507,2.507,0,0,1-.227-.758,2.732,2.732,0,0,1-2.133.914A3,3,0,0,1-54.7-.562a2.312,2.312,0,0,1-.816-1.812,2.389,2.389,0,0,1,1-2.062,4.915,4.915,0,0,1,2.879-.727h1.039v-.484a1.393,1.393,0,0,0-.3-.937,1.183,1.183,0,0,0-.949-.352,1.345,1.345,0,0,0-.895.273.929.929,0,0,0-.324.75h-2.258a2.268,2.268,0,0,1,.453-1.359,3,3,0,0,1,1.281-.98,4.669,4.669,0,0,1,1.859-.355,3.689,3.689,0,0,1,2.48.785,2.747,2.747,0,0,1,.918,2.207v3.664A4.041,4.041,0,0,0-48-.133V0Zm-1.867-1.57a1.945,1.945,0,0,0,.922-.223,1.462,1.462,0,0,0,.625-.6V-3.844h-.844q-1.7,0-1.8,1.172l-.008.133a.9.9,0,0,0,.3.7A1.153,1.153,0,0,0-52.152-1.57ZM-51.293-12h2.461L-51-9.578h-1.836Zm9.266,9.664a.727.727,0,0,0-.41-.652,4.659,4.659,0,0,0-1.316-.426q-3.016-.633-3.016-2.562a2.323,2.323,0,0,1,.934-1.879,3.766,3.766,0,0,1,2.441-.754,4.053,4.053,0,0,1,2.574.758,2.388,2.388,0,0,1,.965,1.969h-2.258a1.092,1.092,0,0,0-.312-.8A1.322,1.322,0,0,0-43.4-7a1.351,1.351,0,0,0-.883.258.814.814,0,0,0-.312.656.7.7,0,0,0,.355.605,3.657,3.657,0,0,0,1.2.4,9.8,9.8,0,0,1,1.422.379A2.336,2.336,0,0,1-39.832-2.43a2.2,2.2,0,0,1-.992,1.871,4.28,4.28,0,0,1-2.562.715,4.47,4.47,0,0,1-1.887-.379,3.166,3.166,0,0,1-1.293-1.039,2.414,2.414,0,0,1-.469-1.426h2.141a1.179,1.179,0,0,0,.445.922,1.766,1.766,0,0,0,1.109.32,1.635,1.635,0,0,0,.98-.246A.766.766,0,0,0-42.027-2.336Zm12.211,0a.727.727,0,0,0-.41-.652,4.659,4.659,0,0,0-1.316-.426q-3.016-.633-3.016-2.562a2.323,2.323,0,0,1,.934-1.879,3.766,3.766,0,0,1,2.441-.754,4.053,4.053,0,0,1,2.574.758,2.388,2.388,0,0,1,.965,1.969H-29.9a1.092,1.092,0,0,0-.312-.8A1.322,1.322,0,0,0-31.191-7a1.351,1.351,0,0,0-.883.258.814.814,0,0,0-.312.656.7.7,0,0,0,.355.605,3.657,3.657,0,0,0,1.2.4A9.8,9.8,0,0,1-29.41-4.7,2.336,2.336,0,0,1-27.621-2.43a2.2,2.2,0,0,1-.992,1.871,4.28,4.28,0,0,1-2.562.715,4.47,4.47,0,0,1-1.887-.379,3.166,3.166,0,0,1-1.293-1.039,2.414,2.414,0,0,1-.469-1.426h2.141a1.179,1.179,0,0,0,.445.922,1.766,1.766,0,0,0,1.109.32,1.635,1.635,0,0,0,.98-.246A.766.766,0,0,0-29.816-2.336Zm3.3-1.969a5.013,5.013,0,0,1,.484-2.242A3.546,3.546,0,0,1-24.641-8.07a4.069,4.069,0,0,1,2.113-.539,3.849,3.849,0,0,1,2.793,1.047,4.2,4.2,0,0,1,1.207,2.844l.016.578A4.418,4.418,0,0,1-19.6-1.02,3.775,3.775,0,0,1-22.512.156,3.793,3.793,0,0,1-25.43-1.016,4.5,4.5,0,0,1-26.52-4.2Zm2.258.16A3.16,3.16,0,0,0-23.809-2.3a1.5,1.5,0,0,0,1.3.638,1.5,1.5,0,0,0,1.281-.63,3.457,3.457,0,0,0,.461-2.015A3.128,3.128,0,0,0-21.23-6.14a1.5,1.5,0,0,0-1.3-.649,1.474,1.474,0,0,0-1.281.646A3.516,3.516,0,0,0-24.262-4.144ZM-14.738,0H-17V-12h2.266Zm6.922-.859A2.831,2.831,0,0,1-10.129.156,2.67,2.67,0,0,1-12.2-.625a3.335,3.335,0,0,1-.73-2.289V-8.453h2.258v5.467q0,1.322,1.2,1.322a1.63,1.63,0,0,0,1.578-.8V-8.453h2.266V0H-7.754Zm6.594-9.672v2.078H.223V-6.8H-1.223v4.219a1.007,1.007,0,0,0,.18.672.9.9,0,0,0,.688.2,3.6,3.6,0,0,0,.664-.055V-.047a4.648,4.648,0,0,1-1.367.2,2.156,2.156,0,0,1-2.422-2.4V-6.8H-4.715V-8.453H-3.48v-2.078ZM.895-4.3a5.013,5.013,0,0,1,.484-2.242A3.546,3.546,0,0,1,2.773-8.07a4.069,4.069,0,0,1,2.113-.539A3.849,3.849,0,0,1,7.68-7.562,4.2,4.2,0,0,1,8.887-4.719l.016.578A4.418,4.418,0,0,1,7.816-1.02,3.775,3.775,0,0,1,4.9.156,3.793,3.793,0,0,1,1.984-1.016,4.5,4.5,0,0,1,.895-4.2Zm2.258.16A3.16,3.16,0,0,0,3.605-2.3a1.5,1.5,0,0,0,1.3.638,1.5,1.5,0,0,0,1.281-.63,3.457,3.457,0,0,0,.461-2.015A3.128,3.128,0,0,0,6.184-6.14a1.5,1.5,0,0,0-1.3-.649,1.474,1.474,0,0,0-1.281.646A3.516,3.516,0,0,0,3.152-4.144Zm15.7,1.808a.727.727,0,0,0-.41-.652,4.659,4.659,0,0,0-1.316-.426q-3.016-.633-3.016-2.562a2.323,2.323,0,0,1,.934-1.879,3.766,3.766,0,0,1,2.441-.754,4.053,4.053,0,0,1,2.574.758,2.388,2.388,0,0,1,.965,1.969H18.77a1.092,1.092,0,0,0-.312-.8A1.322,1.322,0,0,0,17.48-7a1.351,1.351,0,0,0-.883.258.814.814,0,0,0-.312.656.7.7,0,0,0,.355.605,3.657,3.657,0,0,0,1.2.4,9.8,9.8,0,0,1,1.422.379A2.336,2.336,0,0,1,21.051-2.43a2.2,2.2,0,0,1-.992,1.871A4.28,4.28,0,0,1,17.5.156a4.47,4.47,0,0,1-1.887-.379,3.166,3.166,0,0,1-1.293-1.039,2.414,2.414,0,0,1-.469-1.426h2.141a1.179,1.179,0,0,0,.445.922,1.766,1.766,0,0,0,1.109.32,1.635,1.635,0,0,0,.98-.246A.766.766,0,0,0,18.855-2.336ZM26.395.156A4.15,4.15,0,0,1,23.367-.984,4.054,4.054,0,0,1,22.2-4.023v-.219a5.106,5.106,0,0,1,.492-2.277,3.612,3.612,0,0,1,1.395-1.547,3.914,3.914,0,0,1,2.059-.543,3.508,3.508,0,0,1,2.73,1.094,4.444,4.444,0,0,1,1,3.1v.922H24.488a2.1,2.1,0,0,0,.66,1.328,2,2,0,0,0,1.395.5,2.437,2.437,0,0,0,2.039-.945l1.109,1.242A3.389,3.389,0,0,1,28.316-.246,4.511,4.511,0,0,1,26.395.156Zm-.258-6.945a1.411,1.411,0,0,0-1.09.455,2.357,2.357,0,0,0-.535,1.3h3.141v-.181a1.681,1.681,0,0,0-.406-1.165A1.456,1.456,0,0,0,26.137-6.789Zm8.648,2.5a5.094,5.094,0,0,1,.887-3.148A2.877,2.877,0,0,1,38.1-8.609a2.589,2.589,0,0,1,2.039.922V-12H42.4V0H40.363l-.109-.9A2.657,2.657,0,0,1,38.082.156,2.869,2.869,0,0,1,35.688-1.02,5.258,5.258,0,0,1,34.785-4.289Zm2.258.168A3.337,3.337,0,0,0,37.457-2.3a1.349,1.349,0,0,0,1.2.634,1.511,1.511,0,0,0,1.477-.884V-5.889a1.489,1.489,0,0,0-1.461-.884Q37.043-6.773,37.043-4.121ZM46.535,0H44.27V-8.453h2.266Zm-2.4-10.641a1.112,1.112,0,0,1,.34-.836A1.277,1.277,0,0,1,45.4-11.8a1.28,1.28,0,0,1,.922.328,1.105,1.105,0,0,1,.344.836,1.108,1.108,0,0,1-.348.844,1.283,1.283,0,0,1-.918.328,1.283,1.283,0,0,1-.918-.328A1.108,1.108,0,0,1,44.137-10.641Zm8.836,8.3a.727.727,0,0,0-.41-.652,4.659,4.659,0,0,0-1.316-.426Q48.23-4.047,48.23-5.977a2.323,2.323,0,0,1,.934-1.879,3.766,3.766,0,0,1,2.441-.754,4.053,4.053,0,0,1,2.574.758,2.388,2.388,0,0,1,.965,1.969H52.887a1.092,1.092,0,0,0-.312-.8A1.322,1.322,0,0,0,51.6-7a1.351,1.351,0,0,0-.883.258.814.814,0,0,0-.312.656.7.7,0,0,0,.355.605,3.657,3.657,0,0,0,1.2.4,9.8,9.8,0,0,1,1.422.379A2.336,2.336,0,0,1,55.168-2.43a2.2,2.2,0,0,1-.992,1.871,4.28,4.28,0,0,1-2.562.715,4.47,4.47,0,0,1-1.887-.379,3.166,3.166,0,0,1-1.293-1.039,2.414,2.414,0,0,1-.469-1.426h2.141a1.179,1.179,0,0,0,.445.922,1.766,1.766,0,0,0,1.109.32,1.635,1.635,0,0,0,.98-.246A.766.766,0,0,0,52.973-2.336ZM61.684-.859A2.831,2.831,0,0,1,59.371.156,2.67,2.67,0,0,1,57.3-.625a3.335,3.335,0,0,1-.73-2.289V-8.453h2.258v5.467q0,1.322,1.2,1.322a1.63,1.63,0,0,0,1.578-.8V-8.453h2.266V0H61.746ZM69.465.156A4.15,4.15,0,0,1,66.438-.984,4.054,4.054,0,0,1,65.27-4.023v-.219a5.106,5.106,0,0,1,.492-2.277,3.612,3.612,0,0,1,1.395-1.547,3.914,3.914,0,0,1,2.059-.543,3.508,3.508,0,0,1,2.73,1.094,4.444,4.444,0,0,1,1,3.1v.922H67.559a2.1,2.1,0,0,0,.66,1.328,2,2,0,0,0,1.395.5,2.437,2.437,0,0,0,2.039-.945l1.109,1.242A3.389,3.389,0,0,1,71.387-.246,4.511,4.511,0,0,1,69.465.156Zm-.258-6.945a1.411,1.411,0,0,0-1.09.455,2.357,2.357,0,0,0-.535,1.3h3.141v-.181a1.681,1.681,0,0,0-.406-1.165A1.456,1.456,0,0,0,69.207-6.789ZM76.605,0H74.34V-12h2.266Zm5.023-2.758,1.57-5.7h2.359L82.707,0H80.551L77.7-8.453h2.359ZM90.34.156A4.15,4.15,0,0,1,87.313-.984a4.054,4.054,0,0,1-1.168-3.039v-.219a5.106,5.106,0,0,1,.492-2.277,3.612,3.612,0,0,1,1.395-1.547,3.914,3.914,0,0,1,2.059-.543,3.508,3.508,0,0,1,2.73,1.094,4.444,4.444,0,0,1,1,3.1v.922H88.434a2.1,2.1,0,0,0,.66,1.328,2,2,0,0,0,1.395.5,2.437,2.437,0,0,0,2.039-.945l1.109,1.242A3.389,3.389,0,0,1,92.262-.246,4.511,4.511,0,0,1,90.34.156Zm-.258-6.945a1.411,1.411,0,0,0-1.09.455,2.357,2.357,0,0,0-.535,1.3H91.6v-.181a1.681,1.681,0,0,0-.406-1.165A1.456,1.456,0,0,0,90.082-6.789Z" transform="translate(800 1824)" fill="#12263f"/>
    <path id="Trazado_716184" data-name="Trazado 716184" d="M-57.883-2.984A1.2,1.2,0,0,0-58.352-4a6.148,6.148,0,0,0-1.687-.75,11.962,11.962,0,0,1-1.93-.777,3.153,3.153,0,0,1-1.937-2.82A2.747,2.747,0,0,1-63.387-10a3.389,3.389,0,0,1,1.492-1.129,5.616,5.616,0,0,1,2.184-.406,5.112,5.112,0,0,1,2.172.441,3.458,3.458,0,0,1,1.48,1.246,3.261,3.261,0,0,1,.527,1.828h-2.344a1.534,1.534,0,0,0-.492-1.215,2.023,2.023,0,0,0-1.383-.434,2.162,2.162,0,0,0-1.336.363,1.146,1.146,0,0,0-.477.957,1.1,1.1,0,0,0,.559.93,6.311,6.311,0,0,0,1.645.7,7.106,7.106,0,0,1,2.914,1.492A2.972,2.972,0,0,1-55.531-3,2.737,2.737,0,0,1-56.648-.684a4.891,4.891,0,0,1-3.008.84,5.808,5.808,0,0,1-2.391-.48,3.783,3.783,0,0,1-1.645-1.316,3.371,3.371,0,0,1-.566-1.937h2.352q0,1.883,2.25,1.883a2.189,2.189,0,0,0,1.3-.34A1.106,1.106,0,0,0-57.883-2.984Zm3.438-1.32a5.013,5.013,0,0,1,.484-2.242A3.546,3.546,0,0,1-52.566-8.07a4.069,4.069,0,0,1,2.113-.539A3.849,3.849,0,0,1-47.66-7.562a4.2,4.2,0,0,1,1.207,2.844l.016.578A4.418,4.418,0,0,1-47.523-1.02,3.775,3.775,0,0,1-50.437.156a3.793,3.793,0,0,1-2.918-1.172A4.5,4.5,0,0,1-54.445-4.2Zm2.258.16A3.16,3.16,0,0,0-51.734-2.3a1.5,1.5,0,0,0,1.3.638,1.5,1.5,0,0,0,1.281-.63A3.457,3.457,0,0,0-48.7-4.309a3.128,3.128,0,0,0-.461-1.831,1.5,1.5,0,0,0-1.3-.649,1.474,1.474,0,0,0-1.281.646A3.516,3.516,0,0,0-52.187-4.144ZM-42.664,0H-44.93V-12h2.266Zm6.922-.859A2.831,2.831,0,0,1-38.055.156a2.67,2.67,0,0,1-2.074-.781,3.335,3.335,0,0,1-.73-2.289V-8.453H-38.6v5.467q0,1.322,1.2,1.322a1.63,1.63,0,0,0,1.578-.8V-8.453h2.266V0H-35.68Zm7.406-.8a1.481,1.481,0,0,0,1.016-.344,1.2,1.2,0,0,0,.406-.914H-24.8a2.9,2.9,0,0,1-.469,1.574A3.093,3.093,0,0,1-26.527-.238,3.949,3.949,0,0,1-28.3.156,3.67,3.67,0,0,1-31.156-1,4.56,4.56,0,0,1-32.2-4.18v-.148a4.508,4.508,0,0,1,1.039-3.117,3.627,3.627,0,0,1,2.852-1.164,3.555,3.555,0,0,1,2.543.9A3.2,3.2,0,0,1-24.8-5.3h-2.117a1.551,1.551,0,0,0-.406-1.072,1.354,1.354,0,0,0-1.031-.412,1.36,1.36,0,0,0-1.191.575,3.333,3.333,0,0,0-.4,1.866v.235a3.375,3.375,0,0,0,.4,1.878A1.377,1.377,0,0,0-28.336-1.664ZM-21.125,0h-2.266V-8.453h2.266Zm-2.4-10.641a1.112,1.112,0,0,1,.34-.836,1.277,1.277,0,0,1,.926-.328,1.28,1.28,0,0,1,.922.328,1.105,1.105,0,0,1,.344.836,1.108,1.108,0,0,1-.348.844,1.283,1.283,0,0,1-.918.328,1.283,1.283,0,0,1-.918-.328A1.108,1.108,0,0,1-23.523-10.641ZM-19.617-4.3a5.013,5.013,0,0,1,.484-2.242A3.546,3.546,0,0,1-17.738-8.07a4.069,4.069,0,0,1,2.113-.539,3.849,3.849,0,0,1,2.793,1.047,4.2,4.2,0,0,1,1.207,2.844l.016.578A4.418,4.418,0,0,1-12.7-1.02,3.775,3.775,0,0,1-15.609.156a3.793,3.793,0,0,1-2.918-1.172A4.5,4.5,0,0,1-19.617-4.2Zm2.258.16A3.16,3.16,0,0,0-16.906-2.3a1.5,1.5,0,0,0,1.3.638,1.5,1.5,0,0,0,1.281-.63,3.457,3.457,0,0,0,.461-2.015,3.128,3.128,0,0,0-.461-1.831,1.5,1.5,0,0,0-1.3-.649,1.474,1.474,0,0,0-1.281.646A3.516,3.516,0,0,0-17.359-4.144ZM-15.18-12h2.461l-2.164,2.422h-1.836Zm7.039,3.547.07.977a2.951,2.951,0,0,1,2.43-1.133,2.453,2.453,0,0,1,2,.789,3.682,3.682,0,0,1,.672,2.359V0H-5.227V-5.406a1.465,1.465,0,0,0-.312-1.043,1.4,1.4,0,0,0-1.039-.324,1.553,1.553,0,0,0-1.43.813V0h-2.258V-8.453ZM7.3-2.336a.727.727,0,0,0-.41-.652,4.659,4.659,0,0,0-1.316-.426Q2.563-4.047,2.563-5.977A2.323,2.323,0,0,1,3.5-7.855a3.766,3.766,0,0,1,2.441-.754,4.053,4.053,0,0,1,2.574.758,2.388,2.388,0,0,1,.965,1.969H7.219a1.092,1.092,0,0,0-.312-.8A1.322,1.322,0,0,0,5.93-7a1.351,1.351,0,0,0-.883.258.814.814,0,0,0-.312.656.7.7,0,0,0,.355.605,3.657,3.657,0,0,0,1.2.4A9.8,9.8,0,0,1,7.711-4.7,2.336,2.336,0,0,1,9.5-2.43,2.2,2.2,0,0,1,8.508-.559,4.28,4.28,0,0,1,5.945.156,4.47,4.47,0,0,1,4.059-.223,3.166,3.166,0,0,1,2.766-1.262,2.414,2.414,0,0,1,2.3-2.687H4.438a1.179,1.179,0,0,0,.445.922,1.766,1.766,0,0,0,1.109.32,1.635,1.635,0,0,0,.98-.246A.766.766,0,0,0,7.3-2.336ZM15.852,0a2.507,2.507,0,0,1-.227-.758,2.732,2.732,0,0,1-2.133.914,3,3,0,0,1-2.059-.719,2.312,2.312,0,0,1-.816-1.812,2.389,2.389,0,0,1,1-2.062,4.915,4.915,0,0,1,2.879-.727h1.039v-.484a1.393,1.393,0,0,0-.3-.937,1.183,1.183,0,0,0-.949-.352,1.345,1.345,0,0,0-.895.273.929.929,0,0,0-.324.75H10.8a2.268,2.268,0,0,1,.453-1.359,3,3,0,0,1,1.281-.98A4.669,4.669,0,0,1,14.4-8.609a3.689,3.689,0,0,1,2.48.785A2.747,2.747,0,0,1,17.8-5.617v3.664a4.041,4.041,0,0,0,.336,1.82V0ZM13.984-1.57a1.945,1.945,0,0,0,.922-.223,1.462,1.462,0,0,0,.625-.6V-3.844h-.844q-1.7,0-1.8,1.172l-.008.133a.9.9,0,0,0,.3.7A1.153,1.153,0,0,0,13.984-1.57Zm8.25-8.961v2.078H23.68V-6.8H22.234v4.219a1.007,1.007,0,0,0,.18.672.9.9,0,0,0,.688.2,3.6,3.6,0,0,0,.664-.055V-.047a4.648,4.648,0,0,1-1.367.2,2.156,2.156,0,0,1-2.422-2.4V-6.8H18.742V-8.453h1.234v-2.078ZM30-.859A2.831,2.831,0,0,1,27.688.156a2.67,2.67,0,0,1-2.074-.781,3.335,3.335,0,0,1-.73-2.289V-8.453h2.258v5.467q0,1.322,1.2,1.322a1.63,1.63,0,0,0,1.578-.8V-8.453h2.266V0H30.063Zm8.641-5.477a6.134,6.134,0,0,0-.812-.062,1.654,1.654,0,0,0-1.68.867V0H33.891V-8.453h2.133l.063,1.008a2.092,2.092,0,0,1,1.883-1.164,2.366,2.366,0,0,1,.7.1ZM44.391,0a2.507,2.507,0,0,1-.227-.758,2.732,2.732,0,0,1-2.133.914,3,3,0,0,1-2.059-.719,2.312,2.312,0,0,1-.816-1.812,2.389,2.389,0,0,1,1-2.062,4.915,4.915,0,0,1,2.879-.727H44.07v-.484a1.393,1.393,0,0,0-.3-.937,1.183,1.183,0,0,0-.949-.352,1.345,1.345,0,0,0-.895.273.929.929,0,0,0-.324.75H39.344A2.268,2.268,0,0,1,39.8-7.273a3,3,0,0,1,1.281-.98,4.669,4.669,0,0,1,1.859-.355,3.689,3.689,0,0,1,2.48.785,2.747,2.747,0,0,1,.918,2.207v3.664a4.041,4.041,0,0,0,.336,1.82V0ZM42.523-1.57a1.945,1.945,0,0,0,.922-.223,1.462,1.462,0,0,0,.625-.6V-3.844h-.844q-1.7,0-1.8,1.172l-.008.133a.9.9,0,0,0,.3.7A1.153,1.153,0,0,0,42.523-1.57Zm5.2-2.719a5.094,5.094,0,0,1,.887-3.148,2.877,2.877,0,0,1,2.426-1.172,2.589,2.589,0,0,1,2.039.922V-12h2.266V0H53.3l-.109-.9A2.657,2.657,0,0,1,51.016.156,2.869,2.869,0,0,1,48.621-1.02,5.258,5.258,0,0,1,47.719-4.289Zm2.258.168A3.337,3.337,0,0,0,50.391-2.3a1.349,1.349,0,0,0,1.2.634,1.511,1.511,0,0,0,1.477-.884V-5.889a1.489,1.489,0,0,0-1.461-.884Q49.977-6.773,49.977-4.121ZM61.984,0a2.507,2.507,0,0,1-.227-.758,2.732,2.732,0,0,1-2.133.914,3,3,0,0,1-2.059-.719,2.312,2.312,0,0,1-.816-1.812,2.389,2.389,0,0,1,1-2.062,4.915,4.915,0,0,1,2.879-.727h1.039v-.484a1.393,1.393,0,0,0-.3-.937,1.183,1.183,0,0,0-.949-.352,1.345,1.345,0,0,0-.895.273.929.929,0,0,0-.324.75H56.938a2.268,2.268,0,0,1,.453-1.359,3,3,0,0,1,1.281-.98,4.669,4.669,0,0,1,1.859-.355,3.689,3.689,0,0,1,2.48.785,2.747,2.747,0,0,1,.918,2.207v3.664a4.041,4.041,0,0,0,.336,1.82V0ZM60.117-1.57a1.945,1.945,0,0,0,.922-.223,1.462,1.462,0,0,0,.625-.6V-3.844H60.82q-1.7,0-1.8,1.172l-.008.133a.9.9,0,0,0,.3.7A1.153,1.153,0,0,0,60.117-1.57Z" transform="translate(800 1549)" fill="#12263f"/>
  </g>
</svg>
