<svg xmlns="http://www.w3.org/2000/svg" width="295" height="85" viewBox="0 0 295 85">
  <g id="Grupo_1013256" data-name="Grupo 1013256" transform="translate(-600 -4584)">
    <path id="Trazado_716053" data-name="Trazado 716053" d="M0,0H295V85H0Z" transform="translate(600 4584)" fill="#f6f6f6"/>
    <path id="Trazado_716054" data-name="Trazado 716054" d="M0,0H60" transform="translate(707.5 4635.201)" fill="none" stroke="#707070" stroke-width="1.5"/>
    <path id="Trazado_716061" data-name="Trazado 716061" d="M7.16,13.961q.164-.93-.914-1.422l-1.508-.6Q2.113,10.766,2.246,8.711a2.964,2.964,0,0,1,.625-1.687,3.758,3.758,0,0,1,1.6-1.152,5.67,5.67,0,0,1,2.227-.4,3.857,3.857,0,0,1,2.664.98,3.267,3.267,0,0,1,1,2.543H8.082a1.628,1.628,0,0,0-.34-1.2,1.531,1.531,0,0,0-1.176-.445A2.37,2.37,0,0,0,5.207,7.7a1.458,1.458,0,0,0-.687,1.02Q4.371,9.57,5.66,10.07l1.031.391.594.273q2.3,1.141,2.156,3.2A3.09,3.09,0,0,1,8.8,15.676,3.633,3.633,0,0,1,7.234,16.8a5.565,5.565,0,0,1-2.176.367A4.873,4.873,0,0,1,2.9,16.656a3.349,3.349,0,0,1-1.437-1.367,3.54,3.54,0,0,1-.43-1.875l2.289.008q-.109,1.852,1.82,1.883a2.392,2.392,0,0,0,1.375-.367A1.43,1.43,0,0,0,7.16,13.961Zm15.148-2.789H15.52l.328-1.844h6.789Zm-.586,3.383H14.934l.328-1.844h6.789Z" transform="translate(668 4625.701)" fill="#12263f"/>
    <path id="Trazado_716062" data-name="Trazado 716062" d="M8.145,11.172H1.355l.328-1.844H8.473Zm-.586,3.383H.77L1.1,12.711H7.887Zm9.273,2.6a2.884,2.884,0,0,1-2.281-1,4.205,4.205,0,0,1-.828-2.7,8.6,8.6,0,0,1,.063-1.156l.32-2.133a6.638,6.638,0,0,1,1.508-3.531A3.652,3.652,0,0,1,18.5,5.469a2.9,2.9,0,0,1,2.285,1,4.161,4.161,0,0,1,.832,2.691,8.673,8.673,0,0,1-.062,1.164l-.328,2.117a6.781,6.781,0,0,1-1.5,3.551A3.63,3.63,0,0,1,16.832,17.156ZM19.48,8.9q0-1.552-1.094-1.606-1.578-.07-2.008,2.4l-.391,2.635a9.495,9.495,0,0,0-.125,1.372q-.039,1.583,1.086,1.637,1.586.1,2.016-2.472l.414-2.776A8.178,8.178,0,0,0,19.48,8.9ZM22.27,19.852l-1.164-.633.57-.914a4.9,4.9,0,0,0,.641-1.57l.289-1.656h1.859l-.227,1.438A5.172,5.172,0,0,1,22.27,19.852Zm10.8-7.133h1.25L34,14.539h-1.25L32.316,17h-2.2l.43-2.461H26.027L26.184,13l5.8-7.375h2.3ZM28.473,12.7l2.391.016.773-4.047-.2.281Zm9.7-2.391,1.055.008a2.055,2.055,0,0,0,1.348-.445,1.737,1.737,0,0,0,.629-1.2,1.261,1.261,0,0,0-.242-1.012A1.23,1.23,0,0,0,40,7.273a1.642,1.642,0,0,0-1.1.348,1.494,1.494,0,0,0-.559.941l-2.2.016a2.952,2.952,0,0,1,1.184-2.254,4.165,4.165,0,0,1,2.707-.863,3.716,3.716,0,0,1,2.547.9,2.739,2.739,0,0,1,.852,2.3,3.078,3.078,0,0,1-2.07,2.547,2.381,2.381,0,0,1,1.121,1.043,2.826,2.826,0,0,1,.309,1.5,3.267,3.267,0,0,1-.633,1.813,3.7,3.7,0,0,1-1.547,1.2,4.962,4.962,0,0,1-2.094.395,3.557,3.557,0,0,1-2.484-.91,3.03,3.03,0,0,1-.945-2.363h2.188a1.412,1.412,0,0,0,.355,1.035,1.385,1.385,0,0,0,1.035.418A1.933,1.933,0,0,0,39.98,14.9a1.761,1.761,0,0,0,.641-1.179,1.428,1.428,0,0,0-.277-1.2,1.553,1.553,0,0,0-1.152-.439l-1.3-.008Z" transform="translate(775 4625.701)" fill="#12263f"/>
    <path id="Trazado_716063" data-name="Trazado 716063" d="M8.711,11.375l1.531-5.75h6.219l-.3,1.883H11.8l-.75,2.461a3.016,3.016,0,0,1,1.641-.437,2.693,2.693,0,0,1,2.262,1.035,3.855,3.855,0,0,1,.676,2.73,4.423,4.423,0,0,1-.66,2.023A3.852,3.852,0,0,1,13.477,16.7a4.108,4.108,0,0,1-2.031.461A3.613,3.613,0,0,1,9.7,16.723a3.12,3.12,0,0,1-1.223-1.2,3.409,3.409,0,0,1-.445-1.7H10.2a1.7,1.7,0,0,0,.383,1.09,1.259,1.259,0,0,0,.953.41,1.545,1.545,0,0,0,1.285-.57,2.845,2.845,0,0,0,.605-1.594,2.02,2.02,0,0,0-.27-1.406,1.3,1.3,0,0,0-1.105-.531,2.195,2.195,0,0,0-1.531.609Z" transform="translate(723 4637.701)" fill="#12263f"/>
    <path id="Trazado_716064" data-name="Trazado 716064" d="M6.887,17.156a2.884,2.884,0,0,1-2.281-1,4.205,4.205,0,0,1-.828-2.7A8.6,8.6,0,0,1,3.84,12.3l.32-2.133A6.638,6.638,0,0,1,5.668,6.633,3.652,3.652,0,0,1,8.551,5.469a2.9,2.9,0,0,1,2.285,1,4.161,4.161,0,0,1,.832,2.691,8.673,8.673,0,0,1-.062,1.164l-.328,2.117a6.781,6.781,0,0,1-1.5,3.551A3.63,3.63,0,0,1,6.887,17.156ZM9.535,8.9q0-1.552-1.094-1.606-1.578-.07-2.008,2.4l-.391,2.635A9.494,9.494,0,0,0,5.918,13.7Q5.879,15.281,7,15.336q1.586.1,2.016-2.472l.414-2.776A8.178,8.178,0,0,0,9.535,8.9Zm2.789,10.956-1.164-.633.57-.914a4.9,4.9,0,0,0,.641-1.57l.289-1.656H14.52l-.227,1.438A5.172,5.172,0,0,1,12.324,19.852Zm9.586-7.406a2.919,2.919,0,0,1-2.055.875,2.618,2.618,0,0,1-1.594-.5,2.88,2.88,0,0,1-.973-1.371,4.375,4.375,0,0,1-.223-1.9,4.716,4.716,0,0,1,.8-2.273,4.133,4.133,0,0,1,1.789-1.5,3.737,3.737,0,0,1,1.594-.3,2.925,2.925,0,0,1,2.242.984,4.19,4.19,0,0,1,.945,2.555,7.062,7.062,0,0,1-.023,1.1l-.086.672A7.587,7.587,0,0,1,22.2,15.438a6.149,6.149,0,0,1-4.457,1.68h-.164l.172-1.891h.117a4.212,4.212,0,0,0,2.531-.668A4.236,4.236,0,0,0,21.91,12.445ZM20.465,11.6a1.956,1.956,0,0,0,1.656-.959l.133-.944a6.308,6.308,0,0,0,.039-.741,2.247,2.247,0,0,0-.312-1.2,1,1,0,0,0-.859-.468,1.432,1.432,0,0,0-1.012.4,2.536,2.536,0,0,0-.68,1.119,3.519,3.519,0,0,0-.168,1.411,1.741,1.741,0,0,0,.371,1A1.059,1.059,0,0,0,20.465,11.6Zm5.672-.227,1.531-5.75h6.219l-.3,1.883H29.223l-.75,2.461a3.016,3.016,0,0,1,1.641-.437,2.693,2.693,0,0,1,2.262,1.035,3.855,3.855,0,0,1,.676,2.73,4.423,4.423,0,0,1-.66,2.023A3.852,3.852,0,0,1,30.9,16.7a4.108,4.108,0,0,1-2.031.461,3.613,3.613,0,0,1-1.746-.441,3.12,3.12,0,0,1-1.223-1.2,3.409,3.409,0,0,1-.445-1.7h2.164A1.7,1.7,0,0,0,28,14.918a1.259,1.259,0,0,0,.953.41,1.545,1.545,0,0,0,1.285-.57,2.845,2.845,0,0,0,.605-1.594,2.02,2.02,0,0,0-.27-1.406,1.3,1.3,0,0,0-1.105-.531,2.195,2.195,0,0,0-1.531.609ZM41.5,17H33.926l.258-1.641,4.039-3.789A8.947,8.947,0,0,0,39.871,9.68a2.214,2.214,0,0,0,.3-1.422,1.061,1.061,0,0,0-1.117-.992,1.6,1.6,0,0,0-1.254.523A2.453,2.453,0,0,0,37.191,9.2l-2.2.008a3.889,3.889,0,0,1,2.152-3.277,4.405,4.405,0,0,1,2.051-.473,3.5,3.5,0,0,1,2.469.891,2.756,2.756,0,0,1,.781,2.289A5.546,5.546,0,0,1,40.543,12l-1.125,1.07L37.09,15.164l4.7.016Z" transform="translate(711 4609.701)" fill="#12263f"/>
    <path id="Trazado_712654" data-name="Trazado 712654" d="M-7492-7823.7l4.8,7.7,6.2-66.7h67.15" transform="translate(8184 12475.701)" fill="none" stroke="#12263f" stroke-width="1.5"/>
  </g>
</svg>
