<svg xmlns="http://www.w3.org/2000/svg" width="209" height="85" viewBox="0 0 209 85">
  <g id="Grupo_1013255" data-name="Grupo 1013255" transform="translate(-696 -3808)">
    <path id="Trazado_716041" data-name="Trazado 716041" d="M0,0H209V85H0Z" transform="translate(696 3808)" fill="#f6f6f6"/>
    <path id="Trazado_716042" data-name="Trazado 716042" d="M0,0H132" transform="translate(750.5 3859.5)" fill="none" stroke="#707070" stroke-width="1.5"/>
    <path id="Trazado_716043" data-name="Trazado 716043" d="M7.16,13.961q.164-.93-.914-1.422l-1.508-.6Q2.113,10.766,2.246,8.711a2.964,2.964,0,0,1,.625-1.687,3.758,3.758,0,0,1,1.6-1.152,5.67,5.67,0,0,1,2.227-.4,3.857,3.857,0,0,1,2.664.98,3.267,3.267,0,0,1,1,2.543H8.082a1.628,1.628,0,0,0-.34-1.2,1.531,1.531,0,0,0-1.176-.445A2.37,2.37,0,0,0,5.207,7.7a1.458,1.458,0,0,0-.687,1.02Q4.371,9.57,5.66,10.07l1.031.391.594.273q2.3,1.141,2.156,3.2A3.09,3.09,0,0,1,8.8,15.676,3.633,3.633,0,0,1,7.234,16.8a5.565,5.565,0,0,1-2.176.367A4.873,4.873,0,0,1,2.9,16.656a3.349,3.349,0,0,1-1.437-1.367,3.54,3.54,0,0,1-.43-1.875l2.289.008q-.109,1.852,1.82,1.883a2.392,2.392,0,0,0,1.375-.367A1.43,1.43,0,0,0,7.16,13.961Zm15.148-2.789H15.52l.328-1.844h6.789Zm-.586,3.383H14.934l.328-1.844h6.789Z" transform="translate(711 3850)" fill="#12263f"/>
    <path id="Trazado_716044" data-name="Trazado 716044" d="M12.451,4.712l-.117.625a1.9,1.9,0,0,1,1.538-.718,1.267,1.267,0,0,1,1.1.547,2.2,2.2,0,0,1,.259,1.475L14.677,10H13.3l.566-3.374a1.58,1.58,0,0,0,.01-.347.559.559,0,0,0-.625-.513,1.185,1.185,0,0,0-.972.5L11.621,10H10.244l.918-5.283Z" transform="translate(784 3824)" fill="#12263f"/>
    <path id="Trazado_716045" data-name="Trazado 716045" d="M7.551,10H6.164l.918-5.283H8.469ZM7.243,3.374a.688.688,0,0,1,.215-.542.827.827,0,0,1,1.084-.024.685.685,0,0,1,.239.518.707.707,0,0,1-.2.527.76.76,0,0,1-.554.234.772.772,0,0,1-.54-.186A.682.682,0,0,1,7.243,3.374Zm6.465,2.983H9.465L9.67,5.205h4.243Zm-.366,2.114H9.1L9.3,7.319h4.243ZM17.595,10H16.218l.938-5.41-1.729.522.215-1.206L18.61,2.881l.181,0Z" transform="translate(786 3844)" fill="#12263f"/>
    <path id="Trazado_716046" data-name="Trazado 716046" d="M17.021,22.482,8.73,31.5l11.045.029-.6,3.413H2.4l.425-2.417,9.917-10.51L6.43,11.649l.352-1.978H23.071l-.6,3.413H11.733l5.332,8.884Z" transform="translate(768 3820)" fill="#12263f"/>
    <path id="Trazado_716055" data-name="Trazado 716055" d="M13.773,17h-2.2l1.5-8.656L10.3,9.18l.344-1.93L15.4,5.609l.289-.008Zm-1.652,9.539-.187,1a3.042,3.042,0,0,1,2.461-1.148,2.028,2.028,0,0,1,1.766.875,3.526,3.526,0,0,1,.414,2.359L15.684,35h-2.2l.906-5.4a2.528,2.528,0,0,0,.016-.555.9.9,0,0,0-1-.82,1.9,1.9,0,0,0-1.555.8L10.793,35H8.59l1.469-8.453Z" transform="translate(746 3819)" fill="#12263f"/>
    <path id="Trazado_716056" data-name="Trazado 716056" d="M0,0H18.5" transform="translate(750 3839.5)" fill="none" stroke="#707070" stroke-width="1.5"/>
    <path id="Trazado_716057" data-name="Trazado 716057" d="M15.637,17H13.418L10.254,9.414,8.934,17H6.645L8.621,5.625h2.211L14,13.227l1.32-7.6h2.281Z" transform="translate(800 3862)" fill="#12263f"/>
    <path id="Trazado_716058" data-name="Trazado 716058" d="M2.613,12.406A13.2,13.2,0,0,1,4.281,7.418,7.175,7.175,0,0,1,7.527,4.352L7.9,5.609Q5.23,7.648,4.52,12.164a19.376,19.376,0,0,0-.258,2.75q-.039,3.211,1.469,4.461l-.492,1.18a5.13,5.13,0,0,1-2.359-3.242A10.87,10.87,0,0,1,2.48,14a13.121,13.121,0,0,1,.1-1.406Zm12.609-1.352L17,8.547h2.477L16.41,12.8,18.121,17H15.887l-1.039-2.641L12.98,17H10.488l3.188-4.422L12.043,8.547h2.234ZM21.457,17H19.238l1.469-8.453h2.219ZM20.965,6.4a1.1,1.1,0,0,1,.344-.867,1.323,1.323,0,0,1,1.734-.039,1.1,1.1,0,0,1,.383.828,1.132,1.132,0,0,1-.324.844,1.215,1.215,0,0,1-.887.375,1.235,1.235,0,0,1-.863-.3A1.091,1.091,0,0,1,20.965,6.4ZM32.23,13.039H27.949l.313-1.82h4.289Z" transform="translate(814 3834)" fill="#12263f"/>
    <path id="Trazado_716059" data-name="Trazado 716059" d="M4.739,11.055,6.513,8.547H8.989L5.927,12.8,7.638,17H5.4L4.364,14.359,2.5,17H0l3.187-4.422L1.559,8.547H3.794Zm7.391,9.523-.375-1.234q2.68-2.07,3.383-6.625a19.275,19.275,0,0,0,.242-2.7q.039-3.211-1.453-4.469l.492-1.18A4.565,4.565,0,0,1,16,5.832a6.725,6.725,0,0,1,.977,2.309,11.6,11.6,0,0,1,.3,2.781,13.865,13.865,0,0,1-.75,4.223,11.039,11.039,0,0,1-1.84,3.441A6.68,6.68,0,0,1,12.13,20.578ZM22.539,12h-4.42l.15-.957,2.356-2.21a5.219,5.219,0,0,0,.962-1.1,1.292,1.292,0,0,0,.178-.829.619.619,0,0,0-.652-.579.932.932,0,0,0-.731.305,1.431,1.431,0,0,0-.358.825l-1.285,0a2.268,2.268,0,0,1,1.255-1.912,2.57,2.57,0,0,1,1.2-.276,2.039,2.039,0,0,1,1.44.52,1.608,1.608,0,0,1,.456,1.335,3.235,3.235,0,0,1-1.107,1.96l-.656.624-1.358,1.221,2.743.009Z" transform="translate(851 3834)" fill="#12263f"/>
    <path id="Trazado_716060" data-name="Trazado 716060" d="M0,0H8" transform="translate(852.5 3836.5)" fill="none" stroke="#12263f" stroke-width="2"/>
    <path id="Trazado_712654" data-name="Trazado 712654" d="M-7492-7823.7l4.8,7.7,6.2-66.7h140.15" transform="translate(8227 11700)" fill="none" stroke="#12263f" stroke-width="1.5"/>
  </g>
</svg>
