<svg id="Grupo_1003650" data-name="Grupo 1003650" xmlns="http://www.w3.org/2000/svg" width="197.978" height="241.282" viewBox="0 0 197.978 241.282">
  <g id="Grupo_1003355" data-name="Grupo 1003355" transform="translate(168.686 77.052)">
    <g id="Grupo_1003352" data-name="Grupo 1003352" transform="translate(0.173 0.126)">
      <path id="Trazado_712292" data-name="Trazado 712292" d="M1190.654,964.762l-10.826,5.846a6.666,6.666,0,0,0-1.943,1.372,2.015,2.015,0,0,0,1.659,3.488,6.675,6.675,0,0,0,2.573-.755l13.352-5.97a9.331,9.331,0,0,0,3.1-1.911,3.181,3.181,0,0,0,.792-3.366,2.552,2.552,0,0,0-3.045-1.411,40.429,40.429,0,0,0-5.665,2.707" transform="translate(-1177.241 -961.961)" fill="#fafafa"/>
    </g>
    <g id="Grupo_1003354" data-name="Grupo 1003354">
      <g id="Grupo_1003353" data-name="Grupo 1003353">
        <path id="Trazado_712293" data-name="Trazado 712293" d="M1190.591,964.716a2.969,2.969,0,0,1,.466-.3c.313-.183.778-.447,1.384-.774s1.352-.719,2.24-1.135a11.76,11.76,0,0,1,1.466-.592,2.827,2.827,0,0,1,1.8.046,2.673,2.673,0,0,1,1.459,1.35,2.832,2.832,0,0,1,.081,2.153,4.177,4.177,0,0,1-1.331,1.877,9.384,9.384,0,0,1-2.071,1.24l-9.654,4.338-5.014,2.227a4.4,4.4,0,0,1-2.648.381,2.579,2.579,0,0,1-1.189-.627,1.855,1.855,0,0,1-.574-1.2,2.767,2.767,0,0,1,1.03-2.22,10.012,10.012,0,0,1,1.929-1.205l3.552-1.891,5.156-2.715,1.411-.721a3.011,3.011,0,0,1,.5-.229,2.914,2.914,0,0,1-.467.3l-1.377.784-5.1,2.822-3.529,1.932a9.835,9.835,0,0,0-1.856,1.177,2.434,2.434,0,0,0-.9,1.94,1.781,1.781,0,0,0,1.5,1.5,4.059,4.059,0,0,0,2.423-.372l5-2.23,9.662-4.308a9.167,9.167,0,0,0,2.005-1.179,3.866,3.866,0,0,0,1.246-1.72,2.532,2.532,0,0,0-.046-1.924,2.394,2.394,0,0,0-1.29-1.225c-1.129-.459-2.21.126-3.085.489-.89.395-1.644.767-2.26,1.072l-1.416.71A3.12,3.12,0,0,1,1190.591,964.716Z" transform="translate(-1177.005 -961.789)" fill="#263238"/>
      </g>
    </g>
  </g>
  <g id="Grupo_1003522" data-name="Grupo 1003522" transform="translate(33.965)">
    <g id="Grupo_1003388" data-name="Grupo 1003388" transform="translate(12.738 8.681)">
      <g id="Grupo_1003387" data-name="Grupo 1003387">
        <g id="Grupo_1003386" data-name="Grupo 1003386">
          <g id="Grupo_1003370" data-name="Grupo 1003370">
            <g id="Grupo_1003369" data-name="Grupo 1003369">
              <g id="Grupo_1003368" data-name="Grupo 1003368">
                <g id="Grupo_1003367" data-name="Grupo 1003367">
                  <g id="Grupo_1003366" data-name="Grupo 1003366">
                    <g id="Grupo_1003365" data-name="Grupo 1003365">
                      <g id="Grupo_1003364" data-name="Grupo 1003364">
                        <g id="Grupo_1003363" data-name="Grupo 1003363">
                          <g id="Grupo_1003362" data-name="Grupo 1003362">
                            <g id="Grupo_1003361" data-name="Grupo 1003361">
                              <g id="Grupo_1003360" data-name="Grupo 1003360">
                                <g id="Grupo_1003359" data-name="Grupo 1003359">
                                  <g id="Grupo_1003358" data-name="Grupo 1003358">
                                    <g id="Grupo_1003357" data-name="Grupo 1003357">
                                      <g id="Grupo_1003356" data-name="Grupo 1003356">
                                        <path id="Trazado_712294" data-name="Trazado 712294" d="M1011.516,896.191l-.712,57.3c-.121,9.744,1.692,24.084,17.108,23.573h0c13.342-1.452,16.881-14.082,16.984-23.177.049-4.313.1-7.911.134-8.354,0,0,14.6-1.191,15.838-15.616.6-6.972.653-21.43.554-34.511a26.968,26.968,0,0,0-25.011-26.676l-1.393-.1C1019.932,868.414,1011.318,881.1,1011.516,896.191Z" transform="translate(-1010.799 -868.631)" fill="#ae7461"/>
                                      </g>
                                    </g>
                                  </g>
                                </g>
                              </g>
                            </g>
                          </g>
                        </g>
                      </g>
                    </g>
                  </g>
                </g>
              </g>
            </g>
          </g>
          <g id="Grupo_1003385" data-name="Grupo 1003385" transform="translate(15.838 69.977)">
            <g id="Grupo_1003384" data-name="Grupo 1003384">
              <g id="Grupo_1003383" data-name="Grupo 1003383">
                <g id="Grupo_1003382" data-name="Grupo 1003382">
                  <g id="Grupo_1003381" data-name="Grupo 1003381">
                    <g id="Grupo_1003380" data-name="Grupo 1003380">
                      <g id="Grupo_1003379" data-name="Grupo 1003379">
                        <g id="Grupo_1003378" data-name="Grupo 1003378">
                          <g id="Grupo_1003377" data-name="Grupo 1003377">
                            <g id="Grupo_1003376" data-name="Grupo 1003376">
                              <g id="Grupo_1003375" data-name="Grupo 1003375">
                                <g id="Grupo_1003374" data-name="Grupo 1003374">
                                  <g id="Grupo_1003373" data-name="Grupo 1003373">
                                    <g id="Grupo_1003372" data-name="Grupo 1003372">
                                      <g id="Grupo_1003371" data-name="Grupo 1003371">
                                        <path id="Trazado_712295" data-name="Trazado 712295" d="M1050.773,970.907a34.973,34.973,0,0,1-18.394-6.931s3.816,10.88,18.318,10.632Z" transform="translate(-1032.379 -963.977)" fill="#664d49"/>
                                      </g>
                                    </g>
                                  </g>
                                </g>
                              </g>
                            </g>
                          </g>
                        </g>
                      </g>
                    </g>
                  </g>
                </g>
              </g>
            </g>
          </g>
        </g>
      </g>
    </g>
    <g id="Grupo_1003472" data-name="Grupo 1003472" transform="translate(28.674 30.473)">
      <g id="Grupo_1003471" data-name="Grupo 1003471">
        <g id="Grupo_1003440" data-name="Grupo 1003440" transform="translate(1.153 8.348)">
          <g id="Grupo_1003439" data-name="Grupo 1003439">
            <g id="Grupo_1003438" data-name="Grupo 1003438">
              <g id="Grupo_1003405" data-name="Grupo 1003405">
                <g id="Grupo_1003404" data-name="Grupo 1003404">
                  <g id="Grupo_1003403" data-name="Grupo 1003403">
                    <g id="Grupo_1003402" data-name="Grupo 1003402">
                      <g id="Grupo_1003401" data-name="Grupo 1003401">
                        <g id="Grupo_1003400" data-name="Grupo 1003400">
                          <g id="Grupo_1003399" data-name="Grupo 1003399">
                            <g id="Grupo_1003398" data-name="Grupo 1003398">
                              <g id="Grupo_1003397" data-name="Grupo 1003397">
                                <g id="Grupo_1003396" data-name="Grupo 1003396">
                                  <g id="Grupo_1003395" data-name="Grupo 1003395">
                                    <g id="Grupo_1003394" data-name="Grupo 1003394">
                                      <g id="Grupo_1003393" data-name="Grupo 1003393">
                                        <g id="Grupo_1003392" data-name="Grupo 1003392">
                                          <g id="Grupo_1003391" data-name="Grupo 1003391">
                                            <g id="Grupo_1003390" data-name="Grupo 1003390">
                                              <g id="Grupo_1003389" data-name="Grupo 1003389">
                                                <path id="Trazado_712296" data-name="Trazado 712296" d="M1042.955,912.25c-.287.292-1.952-1.049-4.37-1.114-2.413-.1-4.222,1.121-4.475.81-.125-.139.174-.672.962-1.225a6.048,6.048,0,0,1,3.593-1.019,5.829,5.829,0,0,1,3.467,1.262C1042.859,911.57,1043.1,912.12,1042.955,912.25Z" transform="translate(-1034.083 -909.698)" fill="#263238"/>
                                              </g>
                                            </g>
                                          </g>
                                        </g>
                                      </g>
                                    </g>
                                  </g>
                                </g>
                              </g>
                            </g>
                          </g>
                        </g>
                      </g>
                    </g>
                  </g>
                </g>
              </g>
              <g id="Grupo_1003421" data-name="Grupo 1003421" transform="translate(4.893 5.643)">
                <g id="Grupo_1003420" data-name="Grupo 1003420">
                  <g id="Grupo_1003419" data-name="Grupo 1003419">
                    <g id="Grupo_1003418" data-name="Grupo 1003418">
                      <g id="Grupo_1003417" data-name="Grupo 1003417">
                        <g id="Grupo_1003416" data-name="Grupo 1003416">
                          <g id="Grupo_1003415" data-name="Grupo 1003415">
                            <g id="Grupo_1003414" data-name="Grupo 1003414">
                              <g id="Grupo_1003413" data-name="Grupo 1003413">
                                <g id="Grupo_1003412" data-name="Grupo 1003412">
                                  <g id="Grupo_1003411" data-name="Grupo 1003411">
                                    <g id="Grupo_1003410" data-name="Grupo 1003410">
                                      <g id="Grupo_1003409" data-name="Grupo 1003409">
                                        <g id="Grupo_1003408" data-name="Grupo 1003408">
                                          <g id="Grupo_1003407" data-name="Grupo 1003407">
                                            <g id="Grupo_1003406" data-name="Grupo 1003406">
                                              <path id="Trazado_712297" data-name="Trazado 712297" d="M1044.656,919.295a1.956,1.956,0,0,1-2.024,1.831,1.871,1.871,0,0,1-1.882-1.906,1.958,1.958,0,0,1,2.023-1.832A1.872,1.872,0,0,1,1044.656,919.295Z" transform="translate(-1040.749 -917.387)" fill="#263238"/>
                                            </g>
                                          </g>
                                        </g>
                                      </g>
                                    </g>
                                  </g>
                                </g>
                              </g>
                            </g>
                          </g>
                        </g>
                      </g>
                    </g>
                  </g>
                </g>
              </g>
              <g id="Grupo_1003437" data-name="Grupo 1003437" transform="translate(14.927 0.803)">
                <g id="Grupo_1003436" data-name="Grupo 1003436">
                  <g id="Grupo_1003435" data-name="Grupo 1003435">
                    <g id="Grupo_1003434" data-name="Grupo 1003434">
                      <g id="Grupo_1003433" data-name="Grupo 1003433">
                        <g id="Grupo_1003432" data-name="Grupo 1003432">
                          <g id="Grupo_1003431" data-name="Grupo 1003431">
                            <g id="Grupo_1003430" data-name="Grupo 1003430">
                              <g id="Grupo_1003429" data-name="Grupo 1003429">
                                <g id="Grupo_1003428" data-name="Grupo 1003428">
                                  <g id="Grupo_1003427" data-name="Grupo 1003427">
                                    <g id="Grupo_1003426" data-name="Grupo 1003426">
                                      <g id="Grupo_1003425" data-name="Grupo 1003425">
                                        <g id="Grupo_1003424" data-name="Grupo 1003424">
                                          <g id="Grupo_1003423" data-name="Grupo 1003423">
                                            <g id="Grupo_1003422" data-name="Grupo 1003422">
                                              <path id="Trazado_712298" data-name="Trazado 712298" d="M1054.421,929.353a14.769,14.769,0,0,1,3.651-.387c.571-.017,1.116-.09,1.239-.47a2.892,2.892,0,0,0-.255-1.707q-.649-2.115-1.361-4.437c-1.879-6.312-3.194-11.486-2.939-11.559s1.985,4.983,3.863,11.3q.675,2.334,1.289,4.457a3.3,3.3,0,0,1,.131,2.246,1.424,1.424,0,0,1-.992.76,3.858,3.858,0,0,1-.972.064A14.453,14.453,0,0,1,1054.421,929.353Z" transform="translate(-1054.421 -910.792)" fill="#263238"/>
                                            </g>
                                          </g>
                                        </g>
                                      </g>
                                    </g>
                                  </g>
                                </g>
                              </g>
                            </g>
                          </g>
                        </g>
                      </g>
                    </g>
                  </g>
                </g>
              </g>
            </g>
          </g>
        </g>
        <g id="Grupo_1003455" data-name="Grupo 1003455">
          <g id="Grupo_1003454" data-name="Grupo 1003454">
            <g id="Grupo_1003453" data-name="Grupo 1003453">
              <g id="Grupo_1003452" data-name="Grupo 1003452">
                <g id="Grupo_1003451" data-name="Grupo 1003451">
                  <g id="Grupo_1003450" data-name="Grupo 1003450">
                    <g id="Grupo_1003449" data-name="Grupo 1003449">
                      <g id="Grupo_1003448" data-name="Grupo 1003448">
                        <g id="Grupo_1003447" data-name="Grupo 1003447">
                          <g id="Grupo_1003446" data-name="Grupo 1003446">
                            <g id="Grupo_1003445" data-name="Grupo 1003445">
                              <g id="Grupo_1003444" data-name="Grupo 1003444">
                                <g id="Grupo_1003443" data-name="Grupo 1003443">
                                  <g id="Grupo_1003442" data-name="Grupo 1003442">
                                    <g id="Grupo_1003441" data-name="Grupo 1003441">
                                      <path id="Trazado_712299" data-name="Trazado 712299" d="M1041.509,900.137c-.233.536-2.169.132-4.485.251-2.319.07-4.222.63-4.49.115-.119-.246.242-.74,1.029-1.218a7.32,7.32,0,0,1,3.392-.954,7.241,7.241,0,0,1,3.446.676C1041.219,899.418,1041.611,899.881,1041.509,900.137Z" transform="translate(-1032.512 -898.324)" fill="#263238"/>
                                    </g>
                                  </g>
                                </g>
                              </g>
                            </g>
                          </g>
                        </g>
                      </g>
                    </g>
                  </g>
                </g>
              </g>
            </g>
          </g>
        </g>
        <g id="Grupo_1003470" data-name="Grupo 1003470" transform="translate(23.084 4.416)">
          <g id="Grupo_1003469" data-name="Grupo 1003469">
            <g id="Grupo_1003468" data-name="Grupo 1003468">
              <g id="Grupo_1003467" data-name="Grupo 1003467">
                <g id="Grupo_1003466" data-name="Grupo 1003466">
                  <g id="Grupo_1003465" data-name="Grupo 1003465">
                    <g id="Grupo_1003464" data-name="Grupo 1003464">
                      <g id="Grupo_1003463" data-name="Grupo 1003463">
                        <g id="Grupo_1003462" data-name="Grupo 1003462">
                          <g id="Grupo_1003461" data-name="Grupo 1003461">
                            <g id="Grupo_1003460" data-name="Grupo 1003460">
                              <g id="Grupo_1003459" data-name="Grupo 1003459">
                                <g id="Grupo_1003458" data-name="Grupo 1003458">
                                  <g id="Grupo_1003457" data-name="Grupo 1003457">
                                    <g id="Grupo_1003456" data-name="Grupo 1003456">
                                      <path id="Trazado_712300" data-name="Trazado 712300" d="M1072.832,906.216c-.253.437-2.139-.048-4.425-.118-2.285-.112-4.183.222-4.424-.235-.106-.218.271-.61,1.068-.957a7.981,7.981,0,0,1,3.38-.559,8.249,8.249,0,0,1,3.361.828C1072.578,905.586,1072.944,906.007,1072.832,906.216Z" transform="translate(-1063.965 -904.341)" fill="#263238"/>
                                    </g>
                                  </g>
                                </g>
                              </g>
                            </g>
                          </g>
                        </g>
                      </g>
                    </g>
                  </g>
                </g>
              </g>
            </g>
          </g>
        </g>
      </g>
    </g>
    <g id="Grupo_1003485" data-name="Grupo 1003485" transform="translate(3.73 46.303)">
      <g id="Grupo_1003484" data-name="Grupo 1003484">
        <g id="Grupo_1003483" data-name="Grupo 1003483">
          <g id="Grupo_1003482" data-name="Grupo 1003482">
            <g id="Grupo_1003481" data-name="Grupo 1003481">
              <g id="Grupo_1003480" data-name="Grupo 1003480">
                <g id="Grupo_1003479" data-name="Grupo 1003479">
                  <g id="Grupo_1003478" data-name="Grupo 1003478">
                    <g id="Grupo_1003477" data-name="Grupo 1003477">
                      <g id="Grupo_1003476" data-name="Grupo 1003476">
                        <g id="Grupo_1003475" data-name="Grupo 1003475">
                          <g id="Grupo_1003474" data-name="Grupo 1003474">
                            <g id="Grupo_1003473" data-name="Grupo 1003473">
                              <path id="Trazado_712301" data-name="Trazado 712301" d="M1008.649,920.607c-.238-.125-9.707-3.659-10.112,6.235s9.612,8.26,9.64,7.977S1008.649,920.607,1008.649,920.607Z" transform="translate(-998.525 -919.893)" fill="#ae7461"/>
                            </g>
                          </g>
                        </g>
                      </g>
                    </g>
                  </g>
                </g>
              </g>
            </g>
          </g>
        </g>
      </g>
    </g>
    <g id="Grupo_1003499" data-name="Grupo 1003499" transform="translate(6.243 49.453)">
      <g id="Grupo_1003498" data-name="Grupo 1003498">
        <g id="Grupo_1003497" data-name="Grupo 1003497">
          <g id="Grupo_1003496" data-name="Grupo 1003496">
            <g id="Grupo_1003495" data-name="Grupo 1003495">
              <g id="Grupo_1003494" data-name="Grupo 1003494">
                <g id="Grupo_1003493" data-name="Grupo 1003493">
                  <g id="Grupo_1003492" data-name="Grupo 1003492">
                    <g id="Grupo_1003491" data-name="Grupo 1003491">
                      <g id="Grupo_1003490" data-name="Grupo 1003490">
                        <g id="Grupo_1003489" data-name="Grupo 1003489">
                          <g id="Grupo_1003488" data-name="Grupo 1003488">
                            <g id="Grupo_1003487" data-name="Grupo 1003487">
                              <g id="Grupo_1003486" data-name="Grupo 1003486">
                                <path id="Trazado_712302" data-name="Trazado 712302" d="M1006.22,932.089c-.043-.034-.178.114-.474.235a1.723,1.723,0,0,1-1.29-.026c-1.029-.427-1.841-2.122-1.816-3.907a5.716,5.716,0,0,1,.583-2.448,1.994,1.994,0,0,1,1.351-1.27.879.879,0,0,1,1,.515c.121.282.05.476.1.5.026.026.219-.157.156-.57a1.1,1.1,0,0,0-.363-.636,1.3,1.3,0,0,0-.943-.291,2.424,2.424,0,0,0-1.863,1.46,5.865,5.865,0,0,0-.71,2.733c-.018,2,.926,3.9,2.339,4.376a1.85,1.85,0,0,0,1.588-.2C1006.192,932.328,1006.253,932.108,1006.22,932.089Z" transform="translate(-1001.949 -924.184)" fill="#664d49"/>
                              </g>
                            </g>
                          </g>
                        </g>
                      </g>
                    </g>
                  </g>
                </g>
              </g>
            </g>
          </g>
        </g>
      </g>
    </g>
    <g id="Grupo_1003500" data-name="Grupo 1003500" transform="translate(37.183 58.665)">
      <path id="Trazado_712303" data-name="Trazado 712303" d="M1049.342,943.107c.108-.25-1.83-.83-3.193-2.649a11.1,11.1,0,0,1-1.369-2.583c-.288-.719-.508-1.169-.614-1.136s-.076.517.083,1.3a7.313,7.313,0,0,0,1.273,2.894,5.918,5.918,0,0,0,2.528,1.935C1048.8,943.173,1049.315,943.192,1049.342,943.107Z" transform="translate(-1044.105 -936.737)" fill="#263238"/>
    </g>
    <g id="Grupo_1003501" data-name="Grupo 1003501">
      <path id="Trazado_712304" data-name="Trazado 712304" d="M1075.962,879.315a2.342,2.342,0,0,0-1.1-1.364,7.188,7.188,0,0,0-3.688-.6,20.833,20.833,0,0,1-10.849-3.3,48.55,48.55,0,0,0-5.049-6.118c-4.373-4.509-7.97-7.578-11.692-9.076-4.814-1.938-12.865-2.724-17.884-1.406s-9.527,5.389-10.225,10.531c-2.815-2.379-7.041-2.36-10.469-.981l-.086-.037c-3.818,1.361-5.987,5.394-7.113,9.288s-1.607,8.058-3.669,11.547c-.432.73-.944,1.6-.567,2.364a1.612,1.612,0,0,0,1.686.734,4.721,4.721,0,0,0,1.778-.8q-.64,1.529-1.278,3.059a9.027,9.027,0,0,0,4.153-.277,88.662,88.662,0,0,0,2.716,10.268c1.6,0,3.058.109,4.041.994,1.337,1.2,1.935,3.465,4.158,2.606,1.131-.437,2.163-2.81,2.542-3.962a56.311,56.311,0,0,0,2.438-23.832,18.08,18.08,0,0,1,5.588-4.033l-.171.153c4.031-1.4,8.592-2.778,12.417-.885,2.967,1.469,4.711,4.547,6.93,7a22.65,22.65,0,0,0,16.143,7.457c.213,4.062-.128,9.8.085,13.865l3.417-6.507,0,.032c.28-.476.511-.956.735-1.437l.077-.146v-.018a25.194,25.194,0,0,1,1.142-2.311l.039.034a2.538,2.538,0,0,0,3.708-3.394,5.712,5.712,0,0,0-1.227-1.233,4.014,4.014,0,0,0,3.825.992,3.15,3.15,0,0,0,2.227-3.115,2.677,2.677,0,0,0-1.6-2.149,9.049,9.049,0,0,0,5.146-1.134C1075.309,881.547,1076.306,880.592,1075.962,879.315Z" transform="translate(-993.443 -856.803)" fill="#263238"/>
    </g>
    <g id="Grupo_1003502" data-name="Grupo 1003502" transform="translate(5.4 12.839)">
      <path id="Trazado_712305" data-name="Trazado 712305" d="M1021.977,874.3a12.5,12.5,0,0,0-1.447,1.324,10.351,10.351,0,0,0-2.215,4.791,18.219,18.219,0,0,0-.368,3.667c-.006,1.329.1,2.752.2,4.252a38.227,38.227,0,0,1,.109,4.732,16.65,16.65,0,0,1-.326,2.5,5.2,5.2,0,0,1-1.018,2.421,2.178,2.178,0,0,1-2.037.685,3.242,3.242,0,0,1-1.833-1.036,7.488,7.488,0,0,1-1.391-3.669l.3.037a12.083,12.083,0,0,1-1.755,3.023,4.3,4.3,0,0,1-2.807,1.529,2.779,2.779,0,0,1-1.488-.261,2.408,2.408,0,0,1-1.011-1,2.477,2.477,0,0,1-.306-1.279,1.793,1.793,0,0,1,.463-1.122l.153.136a9.311,9.311,0,0,1-3.1,2.326,8.321,8.321,0,0,1-.961.373,1.574,1.574,0,0,1-.344.085,1.769,1.769,0,0,1,.326-.138c.214-.089.534-.217.931-.419a9.609,9.609,0,0,0,2.992-2.36l.153.137a1.85,1.85,0,0,0-.1,2.145,2.156,2.156,0,0,0,.914.881,2.514,2.514,0,0,0,1.348.22,4.026,4.026,0,0,0,2.605-1.453,11.917,11.917,0,0,0,1.691-2.958l.208-.463.1.5a7.234,7.234,0,0,0,1.324,3.506,2.917,2.917,0,0,0,1.64.925,1.836,1.836,0,0,0,1.731-.58,4.926,4.926,0,0,0,.94-2.266,16.425,16.425,0,0,0,.324-2.445,38.628,38.628,0,0,0-.089-4.692c-.093-1.5-.19-2.929-.172-4.275a18.083,18.083,0,0,1,.415-3.715,10.211,10.211,0,0,1,2.35-4.828A5.861,5.861,0,0,1,1021.977,874.3Z" transform="translate(-1000.8 -874.297)" fill="#455a64"/>
    </g>
    <g id="Grupo_1003503" data-name="Grupo 1003503" transform="translate(27.069 4.739)">
      <path id="Trazado_712306" data-name="Trazado 712306" d="M1074.474,885.4c0,.005-.036.038-.116.1l-.36.263a4.775,4.775,0,0,1-.611.392,7.618,7.618,0,0,1-.878.462,12.8,12.8,0,0,1-6.177,1.111,16.359,16.359,0,0,1-8.709-3.216,28.33,28.33,0,0,1-7.482-8.624c-1.05-1.747-1.905-3.539-2.848-5.193a19.145,19.145,0,0,0-3.224-4.393,9.852,9.852,0,0,0-4.158-2.523,7.027,7.027,0,0,0-2.192-.252,7.744,7.744,0,0,0-2.008.385,8.355,8.355,0,0,0-4.637,3.924,10,10,0,0,0-.745,2.164.518.518,0,0,1,.012-.152c.018-.12.041-.264.068-.442a7.238,7.238,0,0,1,.548-1.629,8.212,8.212,0,0,1,1.616-2.19,8.442,8.442,0,0,1,3.061-1.9,7.943,7.943,0,0,1,2.071-.421,7.313,7.313,0,0,1,2.281.243,10.1,10.1,0,0,1,4.3,2.57,19.284,19.284,0,0,1,3.3,4.453c.954,1.666,1.811,3.453,2.85,5.184a28.337,28.337,0,0,0,7.375,8.544,16.245,16.245,0,0,0,8.542,3.229,12.989,12.989,0,0,0,6.107-.992A20.116,20.116,0,0,0,1074.474,885.4Z" transform="translate(-1030.326 -863.26)" fill="#455a64"/>
    </g>
    <g id="Grupo_1003504" data-name="Grupo 1003504" transform="translate(57.238 20.535)">
      <path id="Trazado_712307" data-name="Trazado 712307" d="M1086.725,884.787a2.244,2.244,0,0,1-.517.36,11.158,11.158,0,0,1-1.532.778,14.885,14.885,0,0,1-2.426.8,15.732,15.732,0,0,1-6.226.2,14.994,14.994,0,0,1-2.473-.64,11.191,11.191,0,0,1-1.579-.679,2.245,2.245,0,0,1-.539-.327c.028-.056.825.353,2.193.779a17,17,0,0,0,2.447.559,16.829,16.829,0,0,0,6.108-.2,17.091,17.091,0,0,0,2.406-.715C1085.924,885.193,1086.693,884.732,1086.725,884.787Z" transform="translate(-1071.431 -884.783)" fill="#455a64"/>
    </g>
    <g id="Grupo_1003513" data-name="Grupo 1003513" transform="translate(51.861 39.731)">
      <g id="Grupo_1003512" data-name="Grupo 1003512">
        <g id="Grupo_1003511" data-name="Grupo 1003511">
          <g id="Grupo_1003510" data-name="Grupo 1003510">
            <g id="Grupo_1003509" data-name="Grupo 1003509">
              <g id="Grupo_1003508" data-name="Grupo 1003508">
                <g id="Grupo_1003507" data-name="Grupo 1003507">
                  <g id="Grupo_1003506" data-name="Grupo 1003506">
                    <g id="Grupo_1003505" data-name="Grupo 1003505">
                      <path id="Trazado_712308" data-name="Trazado 712308" d="M1072.977,913.49c-.286.292-1.952-1.049-4.369-1.113-2.413-.1-4.221,1.121-4.475.81-.125-.139.173-.672.961-1.225a6.05,6.05,0,0,1,3.593-1.019,5.838,5.838,0,0,1,3.467,1.262C1072.881,912.81,1073.117,913.36,1072.977,913.49Z" transform="translate(-1064.105 -910.938)" fill="#263238"/>
                    </g>
                  </g>
                </g>
              </g>
            </g>
          </g>
        </g>
      </g>
    </g>
    <g id="Grupo_1003521" data-name="Grupo 1003521" transform="translate(56.429 45.167)">
      <g id="Grupo_1003520" data-name="Grupo 1003520">
        <g id="Grupo_1003519" data-name="Grupo 1003519">
          <g id="Grupo_1003518" data-name="Grupo 1003518">
            <g id="Grupo_1003517" data-name="Grupo 1003517">
              <g id="Grupo_1003516" data-name="Grupo 1003516">
                <g id="Grupo_1003515" data-name="Grupo 1003515">
                  <g id="Grupo_1003514" data-name="Grupo 1003514">
                    <path id="Trazado_712309" data-name="Trazado 712309" d="M1074.236,920.252a1.955,1.955,0,0,1-2.024,1.83,1.87,1.87,0,0,1-1.882-1.905,1.956,1.956,0,0,1,2.023-1.832A1.871,1.871,0,0,1,1074.236,920.252Z" transform="translate(-1070.329 -918.344)" fill="#263238"/>
                  </g>
                </g>
              </g>
            </g>
          </g>
        </g>
      </g>
    </g>
  </g>
  <g id="Grupo_1003523" data-name="Grupo 1003523" transform="translate(160.076 78.604)">
    <path id="Trazado_712310" data-name="Trazado 712310" d="M1166.094,1023.6l-.821-.147,16.819-29.4-2.658-8.475s-3.082-12.071-.514-15.153c0,0,5.617-6.612,7.44-6.521s3.281.456,3.645,1.822c0,0,3.1-.364,3.919.638a15.83,15.83,0,0,1,1.458,2.187s3.372-.274,4.282,2.642c0,0,3.189,1.64,3.463,4.009s-.638,13.394-1.64,16.219-4.738,8.747-5.831,17.495-5,20.17-8.42,32.955l-9.257-2.067Z" transform="translate(-1165.274 -963.904)" fill="#ae7461"/>
  </g>
  <g id="Grupo_1003637" data-name="Grupo 1003637" transform="translate(0 83.38)">
    <g id="Grupo_1003524" data-name="Grupo 1003524" transform="translate(0 41.649)">
      <path id="Trazado_712311" data-name="Trazado 712311" d="M956.991,1027.16s-10.307,58.542-9.81,64.015,3.239,14.182,9.457,15.675a27.358,27.358,0,0,0,11.94,0l-7.464-71.906Z" transform="translate(-947.164 -1027.16)" fill="#4db1f0"/>
    </g>
    <g id="Grupo_1003525" data-name="Grupo 1003525" transform="translate(9.697)">
      <path id="Trazado_712312" data-name="Trazado 712312" d="M990.686,981.864s-12.335,8.768-15.062,11.347c-11.4,10.786-13.791,15.2-15.118,18.849s7.917,88.408,7.917,88.408l1.873,14.808,1.353,12.808,85.229-.433a51.12,51.12,0,0,1-.622-8.29l.622-79.522-13.007-53.247-8.005-2.278-1.615-6.347s-9.945-7.343-26.349-7.554c-5.046-.065-12.184,1.918-16.171,5.011h0Z" transform="translate(-960.376 -970.412)" fill="#4db1f0"/>
    </g>
    <g id="Grupo_1003526" data-name="Grupo 1003526" transform="translate(76.352 16.214)">
      <path id="Trazado_712313" data-name="Trazado 712313" d="M1058.351,992.691s9.653-.52,10.933.179a139.247,139.247,0,0,1,19.969,13.021c9,7.2,34.648,23.682,34.648,23.682s3.556-3.427,6.856.473l7.412-5.931s19.04,7.22,22.04,21.621a8.651,8.651,0,0,1-4.952,8.891s-15.927,14.244-28.81,12.865c-13.611-1.457-44.076-15.708-45.6-16.3l-20.991-9.3s-12.9-24.6-7.2-36.9Z" transform="translate(-1051.197 -992.504)" fill="#4db1f0"/>
    </g>
    <g id="Grupo_1003528" data-name="Grupo 1003528" transform="translate(154.552 53.479)">
      <g id="Grupo_1003527" data-name="Grupo 1003527">
        <path id="Trazado_712314" data-name="Trazado 712314" d="M1158.916,1056.342a6.945,6.945,0,0,1-.636-1.851,18.662,18.662,0,0,1,.137-9.38,6.909,6.909,0,0,1,.691-1.831,17.471,17.471,0,0,1-.428,1.9,22.56,22.56,0,0,0-.135,9.257A17.224,17.224,0,0,1,1158.916,1056.342Z" transform="translate(-1157.748 -1043.28)" fill="#263238"/>
      </g>
    </g>
    <g id="Grupo_1003530" data-name="Grupo 1003530" transform="translate(40.007 9.818)">
      <g id="Grupo_1003529" data-name="Grupo 1003529">
        <path id="Trazado_712315" data-name="Trazado 712315" d="M1046.854,987.874a2.143,2.143,0,0,1-.457-.093l-1.284-.339c-1.117-.284-2.74-.673-4.766-1.056a132.793,132.793,0,0,0-15.979-1.97,109.192,109.192,0,0,0-16.094.048c-2.053.176-3.7.432-4.834.638l-1.3.258a2.19,2.19,0,0,1-.462.065,2.157,2.157,0,0,1,.443-.139l1.291-.329a42.6,42.6,0,0,1,4.838-.76,98.85,98.85,0,0,1,16.145-.161,117.853,117.853,0,0,1,16.008,2.087c2.025.418,3.645.849,4.753,1.178l1.268.409A2.1,2.1,0,0,1,1046.854,987.874Z" transform="translate(-1001.675 -983.79)" fill="#263238"/>
      </g>
    </g>
    <g id="Grupo_1003532" data-name="Grupo 1003532" transform="translate(50.518 2.973)">
      <g id="Grupo_1003531" data-name="Grupo 1003531">
        <path id="Trazado_712316" data-name="Trazado 712316" d="M1016.941,980.988a28.534,28.534,0,0,1-.906-6.525,28.424,28.424,0,0,1,.906,6.525Z" transform="translate(-1015.996 -974.463)" fill="#263238"/>
      </g>
    </g>
    <g id="Grupo_1003534" data-name="Grupo 1003534" transform="translate(53.903 2.669)">
      <g id="Grupo_1003533" data-name="Grupo 1003533">
        <path id="Trazado_712317" data-name="Trazado 712317" d="M1021.4,980.6a10.322,10.322,0,0,1-.455-6.552c.113.016-.057,1.485.074,3.286S1021.511,980.569,1021.4,980.6Z" transform="translate(-1020.609 -974.049)" fill="#263238"/>
      </g>
    </g>
    <g id="Grupo_1003536" data-name="Grupo 1003536" transform="translate(90.281 67.736)">
      <g id="Grupo_1003535" data-name="Grupo 1003535">
        <path id="Trazado_712318" data-name="Trazado 712318" d="M1111.574,1080.434a2.089,2.089,0,0,1-.445-.114l-1.253-.4c-1.079-.37-2.631-.933-4.531-1.675-3.8-1.477-8.994-3.664-14.692-6.156s-10.827-4.825-14.528-6.533l-4.37-2.05-1.179-.577a.231.231,0,1,1,.031-.071l1.209.512,4.42,1.939,14.57,6.43c5.7,2.492,10.867,4.715,14.639,6.255,1.884.774,3.419,1.374,4.481,1.786l1.226.465A2.142,2.142,0,0,1,1111.574,1080.434Z" transform="translate(-1070.176 -1062.705)" fill="#263238"/>
      </g>
    </g>
    <g id="Grupo_1003538" data-name="Grupo 1003538" transform="translate(40.292 10.064)" opacity="0.3">
      <g id="Grupo_1003537" data-name="Grupo 1003537">
        <path id="Trazado_712319" data-name="Trazado 712319" d="M1002.064,985.439c13.55,2.4,27.285.022,41.624,1.719-13.845-2.866-28.265-4.224-41.624-1.719" transform="translate(-1002.064 -984.125)"/>
      </g>
    </g>
    <g id="Grupo_1003540" data-name="Grupo 1003540" transform="translate(19.819 145.84)" opacity="0.3">
      <g id="Grupo_1003539" data-name="Grupo 1003539">
        <path id="Trazado_712320" data-name="Trazado 712320" d="M1059.95,1169.136a.989.989,0,0,1-.221.027l-.65.04-2.5.12-9.195.352-30.34.984c-11.851.408-22.571.909-30.326,1.368l-9.182.571-2.5.153-.65.031a.975.975,0,0,1-.222,0,1,1,0,0,1,.219-.036l.647-.068,2.492-.226c2.164-.192,5.3-.429,9.176-.691,7.753-.528,18.477-1.072,30.329-1.48s22.578-.668,30.345-.873l9.2-.231,2.5-.048.651,0A.973.973,0,0,1,1059.95,1169.136Z" transform="translate(-974.168 -1169.124)" fill="#fff"/>
      </g>
    </g>
    <g id="Grupo_1003542" data-name="Grupo 1003542" transform="translate(18.107 128.126)">
      <g id="Grupo_1003541" data-name="Grupo 1003541">
        <path id="Trazado_712321" data-name="Trazado 712321" d="M1059.329,1144.995a6.346,6.346,0,0,1-.881.084l-2.547.158-9.373.5-30.931,1.5-30.942,1.383-9.378.375-2.551.082-.663.012a1.014,1.014,0,0,1-.227-.01,1.025,1.025,0,0,1,.225-.03l.662-.049,2.547-.154,9.373-.5,30.936-1.495,30.936-1.388,9.379-.382,2.55-.087.664-.014A1.032,1.032,0,0,1,1059.329,1144.995Z" transform="translate(-971.835 -1144.988)" fill="#fff"/>
      </g>
    </g>
    <g id="Grupo_1003544" data-name="Grupo 1003544" transform="translate(16.076 111.725)" opacity="0.3">
      <g id="Grupo_1003543" data-name="Grupo 1003543">
        <path id="Trazado_712322" data-name="Trazado 712322" d="M1058.593,1122.648c.006.1-20.032,1.326-44.75,2.726s-44.769,2.45-44.775,2.345,20.027-1.326,44.753-2.727S1058.587,1122.543,1058.593,1122.648Z" transform="translate(-969.069 -1122.641)" fill="#fff"/>
      </g>
    </g>
    <g id="Grupo_1003546" data-name="Grupo 1003546" transform="translate(14.242 90.49)">
      <g id="Grupo_1003545" data-name="Grupo 1003545">
        <path id="Trazado_712323" data-name="Trazado 712323" d="M1057.379,1093.712c.011.106-20.31,2.324-45.383,4.955s-45.416,4.681-45.427,4.576,20.306-2.323,45.387-4.956S1057.368,1093.607,1057.379,1093.712Z" transform="translate(-966.569 -1093.708)" fill="#fff"/>
      </g>
    </g>
    <g id="Grupo_1003548" data-name="Grupo 1003548" transform="translate(12.627 72.352)" opacity="0.3">
      <g id="Grupo_1003547" data-name="Grupo 1003547">
        <path id="Trazado_712324" data-name="Trazado 712324" d="M1051.223,1069c.013.1-19.42,2.683-43.4,5.759s-43.439,5.486-43.453,5.381,19.416-2.683,43.405-5.76S1051.209,1068.893,1051.223,1069Z" transform="translate(-964.369 -1068.995)" fill="#fff"/>
      </g>
    </g>
    <g id="Grupo_1003550" data-name="Grupo 1003550" transform="translate(12.288 57.629)">
      <g id="Grupo_1003549" data-name="Grupo 1003549">
        <path id="Trazado_712325" data-name="Trazado 712325" d="M1028.711,1048.937c.018.1-14.475,2.738-32.367,5.882s-32.418,5.61-32.437,5.507,14.472-2.738,32.37-5.883S1028.693,1048.833,1028.711,1048.937Z" transform="translate(-963.907 -1048.934)" fill="#fff"/>
      </g>
    </g>
    <g id="Grupo_1003552" data-name="Grupo 1003552" transform="translate(10.298 44.723)" opacity="0.3">
      <g id="Grupo_1003551" data-name="Grupo 1003551">
        <path id="Trazado_712326" data-name="Trazado 712326" d="M1022.419,1031.353c.017.1-13.675,2.445-30.579,5.229s-30.627,4.955-30.643,4.851,13.672-2.445,30.582-5.229S1022.4,1031.249,1022.419,1031.353Z" transform="translate(-961.196 -1031.349)" fill="#fff"/>
      </g>
    </g>
    <g id="Grupo_1003554" data-name="Grupo 1003554" transform="translate(10.047 28.068)">
      <g id="Grupo_1003553" data-name="Grupo 1003553">
        <path id="Trazado_712327" data-name="Trazado 712327" d="M1021.339,1008.659a3.91,3.91,0,0,1-.614.156l-1.774.371-6.528,1.335c-5.51,1.137-13.108,2.771-21.459,4.748s-15.877,3.932-21.311,5.39l-6.432,1.737-1.751.464a.317.317,0,1,1-.021-.073l1.732-.534c1.505-.458,3.692-1.093,6.4-1.855,5.417-1.524,12.935-3.518,21.294-5.5s15.969-3.572,21.494-4.641c2.763-.535,5-.949,6.553-1.216l1.787-.3A3.991,3.991,0,0,1,1021.339,1008.659Z" transform="translate(-960.853 -1008.656)" fill="#fff"/>
      </g>
    </g>
    <g id="Grupo_1003556" data-name="Grupo 1003556" transform="translate(24.433 16.48)" opacity="0.3">
      <g id="Grupo_1003555" data-name="Grupo 1003555">
        <path id="Trazado_712328" data-name="Trazado 712328" d="M1034.055,992.888a2.986,2.986,0,0,1-.548.055l-1.574.085c-1.368.06-3.346.165-5.788.317-4.884.3-11.625.857-19.032,1.792s-14.077,2.08-18.882,3.008c-2.4.461-4.345.852-5.684,1.134l-1.546.31a2.955,2.955,0,0,1-.545.083,3.024,3.024,0,0,1,.528-.158l1.531-.38c1.33-.327,3.265-.759,5.664-1.255,4.8-1,11.467-2.179,18.887-3.121s14.171-1.452,19.065-1.681c2.447-.118,4.428-.182,5.8-.2l1.577-.012A2.914,2.914,0,0,1,1034.055,992.888Z" transform="translate(-980.455 -992.867)" fill="#fff"/>
      </g>
    </g>
    <g id="Grupo_1003558" data-name="Grupo 1003558" transform="translate(83.632 16.874)">
      <g id="Grupo_1003557" data-name="Grupo 1003557">
        <path id="Trazado_712329" data-name="Trazado 712329" d="M1070.933,993.4a2.483,2.483,0,0,1-.227.449c-.183.319-.421.733-.715,1.248-.321.535-.7,1.2-1.1,1.989s-.9,1.666-1.35,2.688l-.736,1.587c-.253.553-.473,1.148-.724,1.753-.52,1.2-.958,2.534-1.447,3.923a62.935,62.935,0,0,0-3.165,18.83c.007,1.473-.013,2.873.085,4.181.04.654.053,1.287.111,1.893s.12,1.185.177,1.741c.088,1.113.273,2.1.4,2.982s.261,1.629.389,2.239c.111.583.2,1.052.268,1.413a.252.252,0,1,1-.075.018l-.338-1.4c-.151-.608-.317-1.355-.454-2.233s-.349-1.871-.454-2.986q-.1-.837-.2-1.747c-.066-.608-.087-1.244-.134-1.9-.112-1.314-.1-2.722-.121-4.2a60.877,60.877,0,0,1,3.183-18.937c.5-1.394.953-2.728,1.488-3.932.259-.605.486-1.2.748-1.753l.762-1.584c.465-1.019.984-1.891,1.406-2.674s.818-1.438,1.16-1.963l.777-1.213A2.474,2.474,0,0,1,1070.933,993.4Z" transform="translate(-1061.116 -993.404)" fill="#fff"/>
      </g>
    </g>
    <g id="Grupo_1003560" data-name="Grupo 1003560" transform="translate(96.344 24.429)" opacity="0.3">
      <g id="Grupo_1003559" data-name="Grupo 1003559">
        <path id="Trazado_712330" data-name="Trazado 712330" d="M1088.724,1003.7a2.227,2.227,0,0,1-.17.445l-.556,1.242c-.249.536-.549,1.193-.871,1.968s-.722,1.642-1.1,2.627c-.8,1.954-1.662,4.315-2.528,6.967-.844,2.658-1.678,5.611-2.4,8.749-.7,3.143-1.215,6.169-1.6,8.933-.356,2.767-.592,5.27-.709,7.378-.082,1.052-.1,2.007-.136,2.845s-.053,1.56-.059,2.151c-.012.558-.023,1.01-.031,1.361a.239.239,0,1,1-.077,0c-.01-.351-.024-.8-.04-1.361-.018-.592-.028-1.315-.007-2.156s.014-1.8.079-2.855c.083-2.115.291-4.63.63-7.409.363-2.776.87-5.816,1.573-8.971.72-3.151,1.568-6.113,2.433-8.775.888-2.655,1.78-5.015,2.614-6.961.395-.982.809-1.847,1.154-2.612s.662-1.418.932-1.944c.255-.5.461-.9.622-1.212A2.22,2.22,0,0,1,1088.724,1003.7Z" transform="translate(-1078.437 -1003.697)" fill="#fff"/>
      </g>
    </g>
    <g id="Grupo_1003562" data-name="Grupo 1003562" transform="translate(108.494 31.133)">
      <g id="Grupo_1003561" data-name="Grupo 1003561">
        <path id="Trazado_712331" data-name="Trazado 712331" d="M1095,1057.536c-.1-.018,1.514-10.04,3.614-22.383s3.887-22.339,3.991-22.322-1.514,10.039-3.615,22.385S1095.1,1057.554,1095,1057.536Z" transform="translate(-1094.992 -1012.832)" fill="#fff"/>
      </g>
    </g>
    <g id="Grupo_1003564" data-name="Grupo 1003564" transform="translate(120.076 39.931)" opacity="0.3">
      <g id="Grupo_1003563" data-name="Grupo 1003563">
        <path id="Trazado_712332" data-name="Trazado 712332" d="M1110.775,1065.534a1.808,1.808,0,0,1,.089-.415c.086-.307.194-.693.327-1.166.3-1.009.71-2.471,1.205-4.283.992-3.623,2.241-8.662,3.316-14.291s1.761-10.777,2.169-14.511c.206-1.867.358-3.38.454-4.426.05-.489.091-.887.124-1.2a1.865,1.865,0,0,1,.069-.418,1.769,1.769,0,0,1,.008.423c-.014.319-.032.719-.053,1.21-.05,1.051-.161,2.57-.333,4.443-.341,3.747-.991,8.911-2.063,14.556s-2.371,10.683-3.43,14.292c-.529,1.805-.984,3.259-1.324,4.255l-.4,1.145A1.808,1.808,0,0,1,1110.775,1065.534Z" transform="translate(-1110.772 -1024.819)" fill="#fff"/>
      </g>
    </g>
    <g id="Grupo_1003566" data-name="Grupo 1003566" transform="translate(135.181 46.999)">
      <g id="Grupo_1003565" data-name="Grupo 1003565">
        <path id="Trazado_712333" data-name="Trazado 712333" d="M1131.4,1074.32a1.7,1.7,0,0,1-.032-.408c0-.31-.01-.7-.016-1.17-.009-1.016.01-2.487.06-4.3.1-3.633.371-8.651.942-14.168s1.339-10.486,1.989-14.062c.324-1.788.608-3.231.826-4.224l.256-1.142a1.681,1.681,0,0,1,.115-.393,1.636,1.636,0,0,1-.039.408l-.186,1.154-.706,4.241c-.581,3.583-1.3,8.547-1.875,14.056s-.885,10.513-1.052,14.139c-.075,1.773-.136,3.228-.181,4.3-.023.473-.041.859-.056,1.168A1.655,1.655,0,0,1,1131.4,1074.32Z" transform="translate(-1131.353 -1034.45)" fill="#fff"/>
      </g>
    </g>
    <g id="Grupo_1003568" data-name="Grupo 1003568" transform="translate(144.161 53.35)" opacity="0.3">
      <g id="Grupo_1003567" data-name="Grupo 1003567">
        <path id="Trazado_712334" data-name="Trazado 712334" d="M1148.7,1080.367a1.5,1.5,0,0,1-.2-.337l-.5-1c-.219-.434-.473-.971-.727-1.612s-.585-1.356-.858-2.181c-.3-.818-.611-1.716-.883-2.7-.311-.975-.549-2.041-.819-3.158a48.151,48.151,0,0,1-.926-14.875c.128-1.143.233-2.23.42-3.236.148-1.012.349-1.943.542-2.79.168-.853.4-1.605.58-2.271s.359-1.232.522-1.69c.15-.423.272-.771.371-1.054a1.487,1.487,0,0,1,.154-.358,1.544,1.544,0,0,1-.081.383l-.3,1.073c-.141.463-.305,1.031-.458,1.7s-.372,1.421-.522,2.273c-.173.846-.359,1.774-.492,2.781-.173,1-.265,2.084-.383,3.218a50.342,50.342,0,0,0,.919,14.77c.258,1.111.484,2.173.78,3.145.257.983.556,1.881.834,2.7.255.826.56,1.546.8,2.19s.468,1.189.666,1.631l.433,1.027A1.524,1.524,0,0,1,1148.7,1080.367Z" transform="translate(-1143.589 -1043.104)" fill="#fff"/>
      </g>
    </g>
    <g id="Grupo_1003570" data-name="Grupo 1003570" transform="translate(151.887 51.908)">
      <g id="Grupo_1003569" data-name="Grupo 1003569">
        <path id="Trazado_712335" data-name="Trazado 712335" d="M1164.557,1078.718a1.648,1.648,0,0,1-.269-.3l-.712-.92-.506-.672-.556-.832c-.4-.6-.859-1.275-1.3-2.063q-.345-.587-.719-1.224l-.711-1.364c-.513-.934-.951-1.983-1.458-3.067a58.41,58.41,0,0,1-2.55-7.347,55.026,55.026,0,0,1-1.421-7.649c-.081-1.194-.217-2.325-.209-3.391q-.015-.8-.03-1.539.031-.739.059-1.419c.017-.906.116-1.719.2-2.432q.06-.53.112-.994.083-.448.153-.828l.227-1.141a1.588,1.588,0,0,1,.1-.392,1.659,1.659,0,0,1-.029.407c-.041.3-.093.685-.155,1.149-.037.254-.077.53-.12.828q-.037.462-.081.992c-.061.712-.141,1.521-.14,2.421q-.016.676-.035,1.41.025.737.052,1.528c.006,1.058.153,2.18.243,3.364a58.018,58.018,0,0,0,1.44,7.588,61.725,61.725,0,0,0,2.5,7.308c.494,1.08.919,2.128,1.417,3.062l.687,1.367.693,1.229c.426.793.866,1.477,1.248,2.082l.528.846.476.688.652.96A1.607,1.607,0,0,1,1164.557,1078.718Z" transform="translate(-1154.116 -1041.138)" fill="#fff"/>
      </g>
    </g>
    <g id="Grupo_1003572" data-name="Grupo 1003572" transform="translate(158.06 53.667)" opacity="0.3">
      <g id="Grupo_1003571" data-name="Grupo 1003571">
        <path id="Trazado_712336" data-name="Trazado 712336" d="M1175.606,1073.124a8.216,8.216,0,0,1-.444-1.2c-.286-.836-.666-1.944-1.126-3.286-.967-2.767-2.4-6.558-4.2-10.649s-3.653-7.7-5.048-10.278l-1.672-3.044a8.142,8.142,0,0,1-.586-1.134,8.191,8.191,0,0,1,.714,1.058c.441.693,1.052,1.713,1.78,2.989,1.459,2.55,3.345,6.152,5.162,10.254s3.2,7.923,4.109,10.718c.453,1.4.8,2.536,1.012,3.329A8.02,8.02,0,0,1,1175.606,1073.124Z" transform="translate(-1162.527 -1043.536)" fill="#fff"/>
      </g>
    </g>
    <g id="Grupo_1003574" data-name="Grupo 1003574" transform="translate(40.647 5.596)" opacity="0.3">
      <g id="Grupo_1003573" data-name="Grupo 1003573">
        <path id="Trazado_712337" data-name="Trazado 712337" d="M1045.441,985.328c-.048.022-.245-.6-.9-1.529a9.654,9.654,0,0,0-3.748-2.945c-3.706-1.8-9.483-2.216-15.714-2.415a91.3,91.3,0,0,0-15.986,1.072c-2.03.309-3.662.633-4.789.854l-1.3.263a2.149,2.149,0,0,1-.459.066,2.067,2.067,0,0,1,.441-.142l1.283-.332c1.12-.266,2.746-.632,4.778-.975a85.179,85.179,0,0,1,24.875-.545,22.507,22.507,0,0,1,6.985,1.91,9.473,9.473,0,0,1,3.753,3.1,6.6,6.6,0,0,1,.623,1.178A2.056,2.056,0,0,1,1045.441,985.328Z" transform="translate(-1002.548 -978.036)" fill="#fff"/>
      </g>
    </g>
    <g id="Grupo_1003576" data-name="Grupo 1003576" transform="translate(6.058 61.142)">
      <g id="Grupo_1003575" data-name="Grupo 1003575">
        <path id="Trazado_712338" data-name="Trazado 712338" d="M960.31,1055.677a18.158,18.158,0,0,1-4.89-1.94,18.182,18.182,0,0,1,4.89,1.94Z" transform="translate(-955.419 -1053.721)" fill="#fff"/>
      </g>
    </g>
    <g id="Grupo_1003578" data-name="Grupo 1003578" transform="translate(3.729 78.289)" opacity="0.3">
      <g id="Grupo_1003577" data-name="Grupo 1003577">
        <path id="Trazado_712339" data-name="Trazado 712339" d="M960.69,1078.33a33.487,33.487,0,0,1-4.247-.421,18.731,18.731,0,0,1-4.2-.8,33.324,33.324,0,0,1,4.247.421A18.741,18.741,0,0,1,960.69,1078.33Z" transform="translate(-952.246 -1077.084)" fill="#fff"/>
      </g>
    </g>
    <g id="Grupo_1003580" data-name="Grupo 1003580" transform="translate(1.114 94.941)">
      <g id="Grupo_1003579" data-name="Grupo 1003579">
        <path id="Trazado_712340" data-name="Trazado 712340" d="M961.81,1100.749a10.753,10.753,0,0,1-1.935.108c-1.193.023-2.842.089-4.674.043a24.682,24.682,0,0,1-4.658-.558,8.041,8.041,0,0,1-1.862-.554,61.548,61.548,0,0,0,6.53.731c1.814.045,3.468.022,4.663.068A9.043,9.043,0,0,1,961.81,1100.749Z" transform="translate(-948.682 -1099.773)" fill="#fff"/>
      </g>
    </g>
    <g id="Grupo_1003582" data-name="Grupo 1003582" transform="translate(1.523 110.025)" opacity="0.3">
      <g id="Grupo_1003581" data-name="Grupo 1003581">
        <path id="Trazado_712341" data-name="Trazado 712341" d="M961.656,1120.332a7.205,7.205,0,0,1-1.667.89,24.225,24.225,0,0,1-8.861,2.008,7.176,7.176,0,0,1-1.888-.085,13.126,13.126,0,0,1,1.872-.184,32.324,32.324,0,0,0,8.775-1.989A13.039,13.039,0,0,1,961.656,1120.332Z" transform="translate(-949.24 -1120.325)" fill="#fff"/>
      </g>
    </g>
    <g id="Grupo_1003584" data-name="Grupo 1003584" transform="translate(10.15 64.043)" opacity="0.3">
      <g id="Grupo_1003583" data-name="Grupo 1003583">
        <path id="Trazado_712342" data-name="Trazado 712342" d="M967.358,1115.081c-7.622-17.85-6.72-38.026-5.686-57.408Z" transform="translate(-960.993 -1057.673)"/>
      </g>
    </g>
    <g id="Grupo_1003586" data-name="Grupo 1003586" transform="translate(9.823 54.411)">
      <g id="Grupo_1003585" data-name="Grupo 1003585">
        <path id="Trazado_712343" data-name="Trazado 712343" d="M960.552,1044.549a1.055,1.055,0,0,1,.04.225l.08.663c.065.61.156,1.466.271,2.555.222,2.247.54,5.452.931,9.4.774,7.94,1.832,18.91,3.093,31.016s2.527,23.059,3.537,30.972c.5,3.957.925,7.156,1.225,9.367.144,1.085.256,1.938.337,2.546l.078.664a.994.994,0,0,1,.013.228,1.128,1.128,0,0,1-.052-.222l-.115-.658c-.1-.605-.234-1.455-.407-2.536-.346-2.2-.815-5.4-1.346-9.354-1.079-7.907-2.384-18.855-3.649-30.966s-2.276-23.085-2.981-31.032c-.341-3.955-.617-7.165-.81-9.414l-.2-2.561c-.017-.276-.031-.5-.042-.667A1.029,1.029,0,0,1,960.552,1044.549Z" transform="translate(-960.548 -1044.549)" fill="#263238"/>
      </g>
    </g>
    <g id="Grupo_1003588" data-name="Grupo 1003588" transform="translate(14.137 44.668)">
      <g id="Grupo_1003587" data-name="Grupo 1003587">
        <path id="Trazado_712344" data-name="Trazado 712344" d="M1020.734,1031.439a3.032,3.032,0,0,1-.558.03l-1.6.011c-1.388-.005-3.4.015-5.876.073-4.96.112-11.81.476-19.328,1.366s-14.264,2.153-19.111,3.209c-2.424.526-4.381.977-5.729,1.308l-1.557.365a3.109,3.109,0,0,1-.55.1,3.008,3.008,0,0,1,.53-.176l1.539-.434c1.338-.376,3.287-.867,5.708-1.428a180.864,180.864,0,0,1,38.493-4.58c2.484-.023,4.5,0,5.884.049l1.6.061A3.08,3.08,0,0,1,1020.734,1031.439Z" transform="translate(-966.426 -1031.273)" fill="#263238"/>
      </g>
    </g>
    <g id="Grupo_1003590" data-name="Grupo 1003590" transform="translate(35.168 27.591)">
      <g id="Grupo_1003589" data-name="Grupo 1003589">
        <path id="Trazado_712345" data-name="Trazado 712345" d="M995.111,1044.2c-.106,0,.093-8.111.444-18.1s.721-18.1.826-18.094-.093,8.109-.444,18.107S995.216,1044.208,995.111,1044.2Z" transform="translate(-995.082 -1008.006)" fill="#263238"/>
      </g>
    </g>
    <g id="Grupo_1003592" data-name="Grupo 1003592" transform="translate(69.711 15.066)">
      <g id="Grupo_1003591" data-name="Grupo 1003591">
        <path id="Trazado_712346" data-name="Trazado 712346" d="M1051.883,1038.661a3.52,3.52,0,0,1-.325-.509l-.867-1.492-3.195-5.488a47.593,47.593,0,0,1-4.007-8.538,28.015,28.015,0,0,1-1.195-5.458,32.848,32.848,0,0,1-.017-6,31.853,31.853,0,0,1,2.858-11.176,18.442,18.442,0,0,1,2.818-4.205,16.012,16.012,0,0,1,3.386-2.826,12.9,12.9,0,0,1,6.006-2.012,8.44,8.44,0,0,1,2.328.13,21.739,21.739,0,0,0-2.316.019,13.107,13.107,0,0,0-5.874,2.092,15.953,15.953,0,0,0-3.294,2.809,18.313,18.313,0,0,0-2.738,4.149,31.961,31.961,0,0,0-2.794,11.055,32.971,32.971,0,0,0,.01,5.923,27.943,27.943,0,0,0,1.157,5.39,49.067,49.067,0,0,0,3.907,8.515l3.088,5.547q.506.958.806,1.528A3.481,3.481,0,0,1,1051.883,1038.661Z" transform="translate(-1042.148 -990.94)" fill="#263238"/>
      </g>
    </g>
    <g id="Grupo_1003594" data-name="Grupo 1003594" transform="translate(74.792 54.353)" opacity="0.3">
      <g id="Grupo_1003593" data-name="Grupo 1003593">
        <path id="Trazado_712347" data-name="Trazado 712347" d="M1049.207,1044.47c-1.067,7.457,4.338,12.4,10.538,16.678a89.217,89.217,0,0,0,20.635,10.793l.1-6.839s-9.077-3.744-17.376-7.979c-4.515-2.3-9.679-4.775-11.173-7.437Z" transform="translate(-1049.072 -1044.47)"/>
      </g>
    </g>
    <g id="Grupo_1003596" data-name="Grupo 1003596" transform="translate(15.603 32.594)">
      <g id="Grupo_1003595" data-name="Grupo 1003595">
        <path id="Trazado_712348" data-name="Trazado 712348" d="M978.617,1140.13a2.056,2.056,0,0,1-.059-.32c-.033-.229-.078-.542-.137-.943-.115-.849-.279-2.069-.49-3.631-.422-3.154-.993-7.724-1.662-13.375-1.339-11.3-3-26.938-4.409-44.246s-2.291-33.016-2.794-44.385c-.252-5.684-.427-10.286-.52-13.467-.044-1.576-.078-2.806-.1-3.662-.006-.405-.012-.721-.017-.953a2.081,2.081,0,0,1,.007-.325,1.991,1.991,0,0,1,.032.324c.014.232.031.547.055.952.041.856.1,2.085.175,3.659.152,3.2.371,7.791.641,13.46.573,11.363,1.5,27.058,2.9,44.367s3.027,32.939,4.3,44.246c.65,5.639,1.176,10.207,1.541,13.387.181,1.566.322,2.789.419,3.64.043.4.076.717.1.948A2.069,2.069,0,0,1,978.617,1140.13Z" transform="translate(-968.424 -1014.822)" fill="#fff"/>
      </g>
    </g>
    <g id="Grupo_1003598" data-name="Grupo 1003598" transform="translate(27.714 20.805)" opacity="0.3">
      <g id="Grupo_1003597" data-name="Grupo 1003597">
        <path id="Trazado_712349" data-name="Trazado 712349" d="M997.62,1135.856c-.1.01-3.032-30.675-6.536-68.528s-6.26-68.56-6.155-68.569,3.031,30.669,6.536,68.534S997.725,1135.847,997.62,1135.856Z" transform="translate(-984.926 -998.759)" fill="#fff"/>
      </g>
    </g>
    <g id="Grupo_1003600" data-name="Grupo 1003600" transform="translate(46.195 12.185)">
      <g id="Grupo_1003599" data-name="Grupo 1003599">
        <path id="Trazado_712350" data-name="Trazado 712350" d="M1019.239,1132.5c-.106.006-2.234-32.559-4.754-72.729s-4.479-72.753-4.374-72.76,2.234,32.553,4.755,72.736S1019.344,1132.5,1019.239,1132.5Z" transform="translate(-1010.106 -987.014)" fill="#fff"/>
      </g>
    </g>
    <g id="Grupo_1003602" data-name="Grupo 1003602" transform="translate(65.162 11.581)" opacity="0.3">
      <g id="Grupo_1003601" data-name="Grupo 1003601">
        <path id="Trazado_712351" data-name="Trazado 712351" d="M1041.17,1132.512s-.018-.128-.035-.377c-.015-.265-.037-.633-.064-1.107l-.208-4.262c-.187-3.717-.455-9.067-.787-15.672-.686-13.232-1.8-31.5-2.781-51.7-.481-10.1-.836-19.729-1.072-28.488-.091-4.381-.2-8.542-.222-12.439q-.027-2.922-.052-5.637.008-2.713.013-5.2c-.01-3.313.062-6.31.107-8.941q.037-1.973.069-3.667c.04-1.125.077-2.154.11-3.082.072-1.839.127-3.272.166-4.263.022-.475.04-.843.052-1.108.014-.25.031-.377.031-.377s.009.129.008.379-.008.634-.015,1.11c-.021.992-.053,2.426-.093,4.265-.023.927-.048,1.956-.076,3.081q-.018,1.692-.038,3.667c-.026,2.63-.077,5.626-.051,8.938q.005,2.485.012,5.2.036,2.713.074,5.636c.035,3.895.157,8.055.258,12.433.255,8.756.62,18.38,1.1,28.479,1.042,20.183,1.985,38.456,2.669,51.7.315,6.619.545,11.975.665,15.68.059,1.838.1,3.273.136,4.265q.017.712.026,1.109C1041.178,1132.384,1041.17,1132.512,1041.17,1132.512Z" transform="translate(-1035.95 -986.191)" fill="#fff"/>
      </g>
    </g>
    <g id="Grupo_1003604" data-name="Grupo 1003604" transform="translate(80.519 63.468)">
      <g id="Grupo_1003603" data-name="Grupo 1003603">
        <path id="Trazado_712352" data-name="Trazado 712352" d="M1059.086,1151.1a1.248,1.248,0,0,1-.034-.242c-.015-.181-.035-.415-.061-.712-.046-.651-.113-1.569-.2-2.739-.167-2.379-.374-5.824-.6-10.083-.457-8.517-.939-20.292-1.171-33.3s-.162-24.8-.008-33.33c.076-4.263.162-7.714.245-10.1.043-1.173.076-2.092.1-2.745.015-.3.027-.532.036-.713a1.207,1.207,0,0,1,.025-.243,1.1,1.1,0,0,1,.014.244c0,.181,0,.417,0,.714-.007.653-.016,1.573-.029,2.746-.029,2.409-.07,5.852-.123,10.1-.085,8.527-.107,20.308.12,33.319s.671,24.779,1.058,33.3l.48,10.087c.054,1.172.1,2.092.125,2.743.01.3.018.533.024.714A1.117,1.117,0,0,1,1059.086,1151.1Z" transform="translate(-1056.874 -1056.89)" fill="#fff"/>
      </g>
    </g>
    <g id="Grupo_1003606" data-name="Grupo 1003606" transform="translate(93.95 73.016)" opacity="0.3">
      <g id="Grupo_1003605" data-name="Grupo 1003605">
        <path id="Trazado_712353" data-name="Trazado 712353" d="M1077.657,1154.556a.918.918,0,0,1-.015-.219c0-.166,0-.378-.006-.642,0-.592.01-1.418.016-2.469.018-2.172.043-5.267.075-9.079.042-7.666-.006-18.256-.345-29.946s-.917-22.27-1.407-29.92c-.254-3.8-.46-6.892-.605-9.058-.068-1.049-.122-1.874-.16-2.464-.013-.264-.024-.476-.032-.641a.928.928,0,0,1,0-.219.9.9,0,0,1,.037.216c.018.165.041.375.07.638l.233,2.459c.2,2.135.447,5.227.727,9.052.559,7.647,1.174,18.227,1.519,29.927s.344,22.292.233,29.959c-.055,3.834-.124,6.936-.2,9.079-.037,1.05-.067,1.877-.088,2.468-.013.264-.024.476-.032.641A.927.927,0,0,1,1077.657,1154.556Z" transform="translate(-1075.174 -1069.899)" fill="#fff"/>
      </g>
    </g>
    <g id="Grupo_1003608" data-name="Grupo 1003608" transform="translate(77.519 56.662)">
      <g id="Grupo_1003607" data-name="Grupo 1003607">
        <path id="Trazado_712354" data-name="Trazado 712354" d="M1133.329,1081.567a.948.948,0,0,1-.219-.057l-.63-.2-2.413-.82c-2.095-.715-5.11-1.791-8.825-3.156-7.429-2.729-17.621-6.7-28.731-11.43s-21.047-9.311-28.2-12.689c-3.577-1.69-6.464-3.076-8.451-4.049l-2.285-1.127-.59-.3a.982.982,0,0,1-.2-.115,1.016,1.016,0,0,1,.212.079l.606.268,2.316,1.063,8.5,3.939c7.184,3.315,17.132,7.845,28.238,12.582s21.274,8.736,28.675,11.529l8.781,3.27,2.388.887.619.24A1.1,1.1,0,0,1,1133.329,1081.567Z" transform="translate(-1052.787 -1047.616)" fill="#fff"/>
      </g>
    </g>
    <g id="Grupo_1003610" data-name="Grupo 1003610" transform="translate(71.521 44.726)" opacity="0.3">
      <g id="Grupo_1003609" data-name="Grupo 1003609">
        <path id="Trazado_712355" data-name="Trazado 712355" d="M1155.539,1049.954a1.861,1.861,0,0,1-.22.223l-.673.627c-.6.545-1.495,1.332-2.674,2.318a81.276,81.276,0,0,1-10.61,7.529c-.6.338-1.2.7-1.853,1.017-.639.333-1.3.667-1.991.958a20.419,20.419,0,0,1-4.461,1.466l-1.225.178-1.266-.007c-.839-.058-1.68-.179-2.534-.31a50.091,50.091,0,0,1-5.2-1.127,101.238,101.238,0,0,1-10.779-3.726c-3.675-1.453-7.448-3.027-11.33-4.6l-39.706-16.292L1049,1033.228l-3.26-1.371-.844-.365a1.816,1.816,0,0,1-.282-.137,2.01,2.01,0,0,1,.3.1l.858.33,3.286,1.3,12.061,4.865,39.747,16.188c3.881,1.576,7.656,3.155,11.327,4.611a102.251,102.251,0,0,0,10.733,3.734,49.884,49.884,0,0,0,5.161,1.135,13.005,13.005,0,0,0,4.915.16,20.19,20.19,0,0,0,4.4-1.425c.69-.285,1.344-.613,1.981-.94.646-.31,1.249-.668,1.847-1a85.182,85.182,0,0,0,10.651-7.41c1.192-.967,2.1-1.735,2.717-2.26l.7-.6A1.852,1.852,0,0,1,1155.539,1049.954Z" transform="translate(-1044.614 -1031.353)" fill="#fff"/>
      </g>
    </g>
    <g id="Grupo_1003612" data-name="Grupo 1003612" transform="translate(71.738 27.723)">
      <g id="Grupo_1003611" data-name="Grupo 1003611">
        <path id="Trazado_712356" data-name="Trazado 712356" d="M1121.264,1045.53a1,1,0,0,1-.217-.044l-.626-.166-2.4-.671c-1.043-.289-2.312-.662-3.774-1.133s-3.138-.972-4.962-1.615l-2.872-.984-3.089-1.132c-2.142-.766-4.391-1.685-6.771-2.622-4.73-1.943-9.879-4.208-15.186-6.79-5.3-2.6-10.249-5.278-14.687-7.82-2.2-1.3-4.307-2.515-6.227-3.736l-2.791-1.743-2.539-1.662c-1.627-1.045-3.057-2.054-4.321-2.925s-2.343-1.637-3.211-2.283l-2-1.48-.514-.393a.979.979,0,0,1-.168-.144.952.952,0,0,1,.191.112l.537.362,2.043,1.421c.88.627,1.965,1.38,3.245,2.227s2.713,1.847,4.348,2.876l2.55,1.64,2.8,1.722c1.924,1.207,4.034,2.407,6.236,3.7,4.442,2.521,9.389,5.181,14.679,7.783,5.3,2.578,10.434,4.85,15.151,6.807,2.372.944,4.614,1.872,6.748,2.65l3.077,1.152,2.859,1.006c1.816.658,3.483,1.185,4.94,1.667s2.716.885,3.751,1.195l2.376.741.616.2A.958.958,0,0,1,1121.264,1045.53Z" transform="translate(-1044.91 -1008.185)" fill="#fff"/>
      </g>
    </g>
    <g id="Grupo_1003614" data-name="Grupo 1003614" transform="translate(80.708 16.734)" opacity="0.3">
      <g id="Grupo_1003613" data-name="Grupo 1003613">
        <path id="Trazado_712357" data-name="Trazado 712357" d="M1124.624,1035.336c-.056.089-15.211-9.268-33.846-20.9s-33.7-21.135-33.647-21.224,15.208,9.266,33.849,20.9S1124.68,1035.246,1124.624,1035.336Z" transform="translate(-1057.132 -993.213)" fill="#fff"/>
      </g>
    </g>
    <g id="Grupo_1003616" data-name="Grupo 1003616" transform="translate(147.869 62.23)">
      <g id="Grupo_1003615" data-name="Grupo 1003615">
        <path id="Trazado_712358" data-name="Trazado 712358" d="M1154.459,1055.5a8.319,8.319,0,0,0-5.814,1.713c-.034-.031.172-.333.621-.71a5.8,5.8,0,0,1,4.286-1.262C1154.133,1055.314,1154.47,1055.455,1154.459,1055.5Z" transform="translate(-1148.641 -1055.203)" fill="#fff"/>
      </g>
    </g>
    <g id="Grupo_1003618" data-name="Grupo 1003618" transform="translate(154.743 51.105)">
      <g id="Grupo_1003617" data-name="Grupo 1003617">
        <path id="Trazado_712359" data-name="Trazado 712359" d="M1173.179,1040.047a3.111,3.111,0,0,1-.594.465c-.386.291-.942.716-1.618,1.255l-5.253,4.269c-2.053,1.669-3.929,3.16-5.33,4.187-.7.514-1.284.908-1.7,1.164a2.726,2.726,0,0,1-.677.341,3.105,3.105,0,0,1,.594-.464c.385-.292.941-.716,1.617-1.256l5.254-4.268c2.051-1.669,3.928-3.16,5.329-4.186.7-.515,1.284-.908,1.7-1.164A2.724,2.724,0,0,1,1173.179,1040.047Z" transform="translate(-1158.007 -1040.045)" fill="#fff"/>
      </g>
    </g>
    <g id="Grupo_1003620" data-name="Grupo 1003620" transform="translate(148.343 54.53)">
      <g id="Grupo_1003619" data-name="Grupo 1003619">
        <path id="Trazado_712360" data-name="Trazado 712360" d="M1155.521,1045.683c-.037.053-.364-.153-.937-.344a5.162,5.162,0,0,0-4.486.624c-.5.34-.758.628-.807.587-.034-.023.155-.382.645-.8a4.623,4.623,0,0,1,4.747-.66C1155.268,1045.359,1155.547,1045.652,1155.521,1045.683Z" transform="translate(-1149.287 -1044.71)" fill="#fff"/>
      </g>
    </g>
    <g id="Grupo_1003622" data-name="Grupo 1003622" transform="translate(6.787 47.088)">
      <g id="Grupo_1003621" data-name="Grupo 1003621">
        <path id="Trazado_712361" data-name="Trazado 712361" d="M958.984,1034.571a.729.729,0,0,1,0,.192c-.011.148-.026.332-.043.56-.048.521-.116,1.238-.2,2.147-.189,1.863-.436,4.561-.71,7.9-.551,6.671-1.113,15.907-1.22,26.12s.278,19.463.7,26.144c.208,3.341.4,6.044.552,7.91.067.91.119,1.629.157,2.15l.032.56a.722.722,0,0,1,0,.192.7.7,0,0,1-.037-.189c-.018-.148-.041-.33-.069-.556-.056-.52-.132-1.237-.229-2.145-.2-1.863-.431-4.563-.673-7.9-.486-6.682-.906-15.937-.808-26.166s.713-19.469,1.333-26.14c.31-3.336.6-6.031.832-7.89l.272-2.14c.032-.225.059-.408.08-.556A.73.73,0,0,1,958.984,1034.571Z" transform="translate(-956.412 -1034.571)" fill="#fff"/>
      </g>
    </g>
    <g id="Grupo_1003624" data-name="Grupo 1003624" transform="translate(147.535 52.987)">
      <g id="Grupo_1003623" data-name="Grupo 1003623">
        <path id="Trazado_712362" data-name="Trazado 712362" d="M1148.726,1056.656a8.45,8.45,0,0,1-.384-2.056,26.377,26.377,0,0,1,.832-10.025,8.538,8.538,0,0,1,.718-1.965,16.82,16.82,0,0,1-.456,2.032,33.956,33.956,0,0,0-.826,9.934A17.13,17.13,0,0,1,1148.726,1056.656Z" transform="translate(-1148.187 -1042.609)" fill="#263238"/>
      </g>
    </g>
    <g id="Grupo_1003626" data-name="Grupo 1003626" transform="translate(159.382 51.741)">
      <g id="Grupo_1003625" data-name="Grupo 1003625">
        <path id="Trazado_712363" data-name="Trazado 712363" d="M1185.393,1067.833a1.267,1.267,0,0,1-.137-.331l-.318-.968c-.126-.424-.3-.937-.528-1.52s-.454-1.262-.786-1.979l-.493-1.135-.6-1.2c-.393-.841-.906-1.689-1.411-2.6a51.965,51.965,0,0,0-3.867-5.565,56.471,56.471,0,0,0-4.594-4.989,55.271,55.271,0,0,0-4.2-3.617c-.612-.5-1.2-.906-1.7-1.279s-.947-.684-1.316-.928l-.837-.581c-.189-.136-.285-.214-.278-.225a1.28,1.28,0,0,1,.319.16l.877.522c.382.226.841.515,1.357.878s1.121.751,1.746,1.239a49.647,49.647,0,0,1,4.278,3.576,52.83,52.83,0,0,1,4.649,5.005,48.964,48.964,0,0,1,3.874,5.626c.5.924,1.008,1.786,1.391,2.639.2.423.4.826.58,1.221l.474,1.154c.318.728.533,1.415.738,2.012a15.131,15.131,0,0,1,.468,1.548c.1.394.182.721.25.99A1.279,1.279,0,0,1,1185.393,1067.833Z" transform="translate(-1164.328 -1040.911)" fill="#263238"/>
      </g>
    </g>
    <g id="Grupo_1003628" data-name="Grupo 1003628" transform="translate(154.617 53.755)" opacity="0.3">
      <g id="Grupo_1003627" data-name="Grupo 1003627">
        <path id="Trazado_712364" data-name="Trazado 712364" d="M1160.839,1054.515a18.016,18.016,0,0,0-.827-3.24,24.51,24.51,0,0,1-.881-7.62,16.262,16.262,0,0,0,.512,13.814A3.156,3.156,0,0,0,1160.839,1054.515Z" transform="translate(-1157.836 -1043.655)"/>
      </g>
    </g>
    <g id="Grupo_1003630" data-name="Grupo 1003630" transform="translate(15.214 45.004)" opacity="0.3">
      <g id="Grupo_1003629" data-name="Grupo 1003629">
        <path id="Trazado_712365" data-name="Trazado 712365" d="M968.218,1037.979a103,103,0,0,0,16.27-2.146,24.808,24.808,0,0,0-.911,7.278,16.685,16.685,0,0,0,3.617-6.657,10.076,10.076,0,0,0,4.1,6.735,22.005,22.005,0,0,0,.365-7.417q12.143-1.463,24.126-3.993a163.55,163.55,0,0,0-47.9,5.963" transform="translate(-967.894 -1031.732)"/>
      </g>
    </g>
    <g id="Grupo_1003632" data-name="Grupo 1003632" transform="translate(45.695 2.498)">
      <g id="Grupo_1003631" data-name="Grupo 1003631">
        <path id="Trazado_712366" data-name="Trazado 712366" d="M1009.856,981.309a17.3,17.3,0,0,1-.039-7.493c.11.013-.023,1.685-.009,3.747S1009.966,981.295,1009.856,981.309Z" transform="translate(-1009.425 -973.816)" fill="#fff"/>
      </g>
    </g>
    <g id="Grupo_1003634" data-name="Grupo 1003634" transform="translate(60.659 0.319)" opacity="0.3">
      <g id="Grupo_1003633" data-name="Grupo 1003633">
        <path id="Trazado_712367" data-name="Trazado 712367" d="M1030.081,980.5a61.052,61.052,0,0,1-.13-9.656,61.052,61.052,0,0,1,.13,9.656Z" transform="translate(-1029.815 -970.846)" fill="#fff"/>
      </g>
    </g>
    <g id="Grupo_1003636" data-name="Grupo 1003636" transform="translate(73.946 3.902)">
      <g id="Grupo_1003635" data-name="Grupo 1003635">
        <path id="Trazado_712368" data-name="Trazado 712368" d="M1047.957,983.828c-.113-.019.156-1.819.147-4.05s-.271-4.029-.159-4.049a15.609,15.609,0,0,1,.012,8.1Z" transform="translate(-1047.918 -975.729)" fill="#fff"/>
      </g>
    </g>
  </g>
  <g id="Grupo_1003639" data-name="Grupo 1003639" transform="translate(181.449 80.334)">
    <g id="Grupo_1003638" data-name="Grupo 1003638">
      <path id="Trazado_712369" data-name="Trazado 712369" d="M1197.594,966.27a9.973,9.973,0,0,0-3.161,5.027,5.7,5.7,0,0,1,3.161-5.027Z" transform="translate(-1194.396 -966.262)" fill="#664d49"/>
    </g>
  </g>
  <g id="Grupo_1003641" data-name="Grupo 1003641" transform="translate(186.786 83.339)">
    <g id="Grupo_1003640" data-name="Grupo 1003640">
      <path id="Trazado_712370" data-name="Trazado 712370" d="M1204.882,970.365a9.758,9.758,0,0,0-3.185,4.531,5.285,5.285,0,0,1,3.185-4.531Z" transform="translate(-1201.667 -970.356)" fill="#664d49"/>
    </g>
  </g>
  <g id="Grupo_1003643" data-name="Grupo 1003643" transform="translate(191.448 85.896)">
    <g id="Grupo_1003642" data-name="Grupo 1003642">
      <path id="Trazado_712371" data-name="Trazado 712371" d="M1210.858,973.846c.071.089-.767.821-1.535,1.932s-1.177,2.142-1.284,2.106a5.937,5.937,0,0,1,2.819-4.038Z" transform="translate(-1208.02 -973.839)" fill="#664d49"/>
    </g>
  </g>
  <g id="Grupo_1003645" data-name="Grupo 1003645" transform="translate(174.814 86.164)">
    <g id="Grupo_1003644" data-name="Grupo 1003644">
      <path id="Trazado_712372" data-name="Trazado 712372" d="M1189.034,974.911a4.031,4.031,0,0,0-3.674.25c-.033-.032.09-.238.4-.464a2.757,2.757,0,0,1,2.824-.192C1188.914,974.688,1189.063,974.875,1189.034,974.911Z" transform="translate(-1185.355 -974.204)" fill="#664d49"/>
    </g>
  </g>
  <g id="Grupo_1003647" data-name="Grupo 1003647" transform="translate(181.841 88.43)">
    <g id="Grupo_1003646" data-name="Grupo 1003646">
      <path id="Trazado_712373" data-name="Trazado 712373" d="M1198.288,979.926a4.888,4.888,0,0,0-3.358-2.561c0-.046.259-.106.682-.052a3.355,3.355,0,0,1,2.545,1.94C1198.322,979.648,1198.333,979.915,1198.288,979.926Z" transform="translate(-1194.93 -977.292)" fill="#664d49"/>
    </g>
  </g>
  <g id="Grupo_1003649" data-name="Grupo 1003649" transform="translate(187.463 90.91)">
    <g id="Grupo_1003648" data-name="Grupo 1003648">
      <path id="Trazado_712374" data-name="Trazado 712374" d="M1206.986,982.248a5.469,5.469,0,0,0-4.4-1.19c-.017-.043.223-.2.665-.3a3.754,3.754,0,0,1,3.309.9C1206.893,981.966,1207.023,982.219,1206.986,982.248Z" transform="translate(-1202.59 -980.672)" fill="#664d49"/>
    </g>
  </g>
</svg>
