<svg xmlns="http://www.w3.org/2000/svg" width="152" height="152" viewBox="0 0 152 152">
  <g id="Grupo_1013247" data-name="Grupo 1013247" transform="translate(2948 9271)">
    <g id="Trazado_715973" data-name="Trazado 715973" transform="translate(-2948 -9271)" fill="#fff">
      <path d="M 76 149 C 66.14373779296875 149 56.58391189575195 147.0702972412109 47.58602142333984 143.2645263671875 C 43.26113128662109 141.4352416992188 39.08952331542969 139.1709594726562 35.18710708618164 136.5345153808594 C 31.32097816467285 133.9226379394531 27.68534851074219 130.9229278564453 24.38121795654297 127.618782043457 C 21.07706451416016 124.3146514892578 18.07736968994141 120.6790237426758 15.46547794342041 116.8128890991211 C 12.8290433883667 112.9104766845703 10.5647611618042 108.7388687133789 8.735478401184082 104.4139785766602 C 4.929695606231689 95.41608428955078 3 85.85626220703125 3 76 C 3 66.14373779296875 4.929695606231689 56.58391189575195 8.735478401184082 47.58602142333984 C 10.5647611618042 43.26113128662109 12.8290433883667 39.08952331542969 15.46547794342041 35.18710708618164 C 18.07736968994141 31.32097816467285 21.07706451416016 27.68534851074219 24.38121795654297 24.38121795654297 C 27.68534851074219 21.07706451416016 31.32097816467285 18.07736968994141 35.18710708618164 15.46547794342041 C 39.08952331542969 12.8290433883667 43.26113128662109 10.5647611618042 47.58602142333984 8.735478401184082 C 56.58391189575195 4.929695606231689 66.14373779296875 3 76 3 C 85.85626220703125 3 95.41608428955078 4.929695606231689 104.4139785766602 8.735478401184082 C 108.7388687133789 10.5647611618042 112.9104766845703 12.8290433883667 116.8128890991211 15.46547794342041 C 120.6790237426758 18.07736968994141 124.3146514892578 21.07706451416016 127.618782043457 24.38121795654297 C 130.9229278564453 27.68534851074219 133.9226379394531 31.32097816467285 136.5345153808594 35.18710708618164 C 139.1709594726562 39.08952331542969 141.4352416992188 43.26113128662109 143.2645263671875 47.58602142333984 C 147.0702972412109 56.58391189575195 149 66.14373779296875 149 76 C 149 85.85626220703125 147.0702972412109 95.41608428955078 143.2645263671875 104.4139785766602 C 141.4352416992188 108.7388687133789 139.1709594726562 112.9104766845703 136.5345153808594 116.8128890991211 C 133.9226379394531 120.6790237426758 130.9229278564453 124.3146514892578 127.618782043457 127.618782043457 C 124.3146514892578 130.9229278564453 120.6790237426758 133.9226379394531 116.8128890991211 136.5345153808594 C 112.9104766845703 139.1709594726562 108.7388687133789 141.4352416992188 104.4139785766602 143.2645263671875 C 95.41608428955078 147.0702972412109 85.85626220703125 149 76 149 Z" stroke="none"/>
      <path d="M 76 6 C 37.40187835693359 6 6 37.40187835693359 6 76 C 6 114.5981292724609 37.40187835693359 146 76 146 C 114.5981292724609 146 146 114.5981292724609 146 76 C 146 37.40187835693359 114.5981292724609 6 76 6 M 76 0 C 117.9736251831055 0 152 34.02637481689453 152 76 C 152 117.9736251831055 117.9736251831055 152 76 152 C 34.02637481689453 152 0 117.9736251831055 0 76 C 0 34.02637481689453 34.02637481689453 0 76 0 Z" stroke="none" fill="#4db1f0"/>
    </g>
    <g id="lever_scales" data-name="lever scales" transform="translate(-2939 -9232)">
      <g id="lever_scales-2" data-name="lever scales" transform="translate(0 0)">
        <g id="Grupo_1007908" data-name="Grupo 1007908">
          <g id="Grupo_1007899" data-name="Grupo 1007899" transform="translate(59.73)">
            <path id="Trazado_713752" data-name="Trazado 713752" d="M1311.44,438.432h-.1a6.7,6.7,0,0,1-6.586-6.783,6.709,6.709,0,0,1,2.808-5.344,3.25,3.25,0,0,0,1.222-3.5,5.229,5.229,0,0,0-2.383-3.223,1.293,1.293,0,0,1-.625-1.206,1.311,1.311,0,0,1,.8-1.119l.3-.125a7.1,7.1,0,0,0,2.024-1.093,5.679,5.679,0,0,0,1.072-1.628c.1-.208.2-.4.312-.6a1.309,1.309,0,0,1,2.336.112l.007.015a7.377,7.377,0,0,0,1.309,2.183,4.441,4.441,0,0,0,1.932.955c.182.056.37.113.55.175a1.261,1.261,0,0,1,.841,1.024,1.34,1.34,0,0,1-.572,1.288,6.791,6.791,0,0,0-2.376,3.111,3.248,3.248,0,0,0,1.111,3.716,6.716,6.716,0,0,1,2.69,5.359,6.682,6.682,0,0,1-6.681,6.682Zm-4.378-19.954.005,0a6.474,6.474,0,0,1,2.959,3.984,4.538,4.538,0,0,1-1.715,4.885,5.421,5.421,0,0,0-2.27,4.318,5.4,5.4,0,1,0,8.622-4.248,4.539,4.539,0,0,1-1.546-5.193,8.006,8.006,0,0,1,2.848-3.717.066.066,0,0,0,.031-.048c-.157-.054-.321-.1-.494-.158a5.592,5.592,0,0,1-2.464-1.275,8.52,8.52,0,0,1-1.573-2.567l-.006-.015a.024.024,0,0,0-.025-.017c-.014,0-.016,0-.021.011-.094.166-.186.35-.283.544a6.78,6.78,0,0,1-1.33,1.977,7.847,7.847,0,0,1-2.426,1.354l-.293.121c-.013.005-.015.01-.018.016A.037.037,0,0,0,1307.062,418.478Z" transform="translate(-1304.758 -413.148)" fill="#3076b6"/>
            <path id="Trazado_713753" data-name="Trazado 713753" d="M1314.168,440.966h-.093a6.51,6.51,0,0,1-6.4-6.587,6.516,6.516,0,0,1,2.728-5.19,3.443,3.443,0,0,0,1.3-3.708,5.416,5.416,0,0,0-2.469-3.337,1.1,1.1,0,0,1-.532-1.027,1.119,1.119,0,0,1,.686-.956l.3-.125a7.094,7.094,0,0,0,2.084-1.132,5.818,5.818,0,0,0,1.111-1.68c.1-.206.2-.4.308-.59a1.117,1.117,0,0,1,1.992.1l.007.015a7.536,7.536,0,0,0,1.348,2.24,4.588,4.588,0,0,0,2.012,1c.189.058.367.113.543.173a1.055,1.055,0,0,1,.713.868,1.148,1.148,0,0,1-.491,1.1,7,7,0,0,0-2.447,3.2,3.442,3.442,0,0,0,1.176,3.938,6.49,6.49,0,0,1-3.876,11.694Zm-.008-24a.2.2,0,0,0-.186.109c-.1.17-.189.356-.288.552a6.624,6.624,0,0,1-1.292,1.925,7.71,7.71,0,0,1-2.365,1.315l-.295.122a.221.221,0,0,0-.138.192.2.2,0,0,0,.1.193,6.287,6.287,0,0,1,2.873,3.869,4.345,4.345,0,0,1-1.641,4.677,5.615,5.615,0,0,0-2.351,4.472,5.591,5.591,0,1,0,8.93-4.4,4.345,4.345,0,0,1-1.48-4.972l.421.157-.421-.157a7.808,7.808,0,0,1,2.777-3.626.254.254,0,0,0,.113-.243.162.162,0,0,0-.117-.141c-.16-.055-.331-.108-.512-.163a5.36,5.36,0,0,1-2.384-1.227,8.369,8.369,0,0,1-1.533-2.509l-.007-.015a.216.216,0,0,0-.192-.131Z" transform="translate(-1307.485 -415.875)" fill="#3076b6" opacity="0.2" style="mix-blend-mode: screen;isolation: isolate"/>
            <path id="Trazado_713754" data-name="Trazado 713754" d="M1317.35,443.923h-.09a6.286,6.286,0,0,1-6.175-6.359,6.291,6.291,0,0,1,2.634-5.011,3.669,3.669,0,0,0,1.382-3.951,5.634,5.634,0,0,0-2.57-3.47.877.877,0,0,1-.424-.818.9.9,0,0,1,.549-.765l.3-.124a7.236,7.236,0,0,0,2.154-1.178,6,6,0,0,0,1.156-1.741c.1-.2.2-.4.3-.58a.893.893,0,0,1,1.592.078l.006.015a7.7,7.7,0,0,0,1.395,2.307,4.827,4.827,0,0,0,2.105,1.059c.187.057.363.111.535.171a.834.834,0,0,1,.564.686.925.925,0,0,1-.4.888,7.231,7.231,0,0,0-2.53,3.308h0a3.668,3.668,0,0,0,1.252,4.2,6.265,6.265,0,0,1-3.742,11.289Zm-.008-24a.431.431,0,0,0-.381.223c-.1.175-.193.363-.293.562a6.448,6.448,0,0,1-1.246,1.864,7.549,7.549,0,0,1-2.3,1.269l-.3.123a.444.444,0,0,0-.275.383.425.425,0,0,0,.207.4,6.069,6.069,0,0,1,2.772,3.736,4.12,4.12,0,0,1-1.555,4.435,5.84,5.84,0,0,0-2.445,4.652,5.816,5.816,0,1,0,9.289-4.576,4.119,4.119,0,0,1-1.4-4.713,7.577,7.577,0,0,1,2.694-3.52.478.478,0,0,0,.207-.458.388.388,0,0,0-.266-.323c-.164-.057-.337-.11-.52-.166a5.18,5.18,0,0,1-2.291-1.171,8.186,8.186,0,0,1-1.487-2.442l-.007-.015a.439.439,0,0,0-.387-.264Z" transform="translate(-1310.667 -419.056)" fill="#3076b6" opacity="0.2" style="mix-blend-mode: screen;isolation: isolate"/>
          </g>
          <g id="Grupo_1007900" data-name="Grupo 1007900" transform="translate(23.916 29.83)">
            <path id="Trazado_713755" data-name="Trazado 713755" d="M801.513,865.567q-.2,4.092-.4,8.182c-13.045,4.308-26.17-6.813-39.372-2.471q-.07-1.42-.14-2.84c-.007-.133-.013-.266-.02-.4,13.015-5.93,26.107,3.282,39.276-2.189Q801.186,865.715,801.513,865.567Z" transform="translate(-761.584 -865.567)" fill="#343a51"/>
            <path id="Trazado_713756" data-name="Trazado 713756" d="M801.445,866.881l.064-1.312c-13.388,6.063-26.7-3.555-39.929,2.472q.031.628.062,1.256C774.831,863.338,788.1,872.876,801.445,866.881Z" transform="translate(-761.58 -865.57)" fill="#343a51" opacity="0.3" style="mix-blend-mode: screen;isolation: isolate"/>
            <path id="Trazado_713757" data-name="Trazado 713757" d="M800.86,869.859c-.007.14-.013.28-.02.42-13.154,5.908-26.233-3.273-39.236,2.17-.007-.134-.013-.266-.02-.4C774.6,866.119,787.691,875.331,800.86,869.859Z" transform="translate(-761.584 -869.576)" fill="#343a51" opacity="0.3" style="mix-blend-mode: screen;isolation: isolate"/>
            <path id="Trazado_713758" data-name="Trazado 713758" d="M801.112,872.533c-13.045,4.307-26.169-6.813-39.372-2.471q-.05-1.023-.1-2.046l-.059.026q.08,1.62.16,3.239c13.2-4.342,26.327,6.778,39.372,2.471q.2-4.091.4-8.182l-.06.027Q801.28,869.065,801.112,872.533Z" transform="translate(-761.58 -865.57)" fill="#343a51" opacity="0.3" style="mix-blend-mode: multiply;isolation: isolate"/>
            <path id="Trazado_713759" data-name="Trazado 713759" d="M773.018,897.108a15.6,15.6,0,0,1,2.243-.889c.384-.124.772-.234,1.162-.334l.293-.075.295-.069.3-.068.3-.062a25.913,25.913,0,0,1,4.819-.514c.81-.009,1.621.014,2.429.077.2.016.4.037.605.056l.3.029.3.038c.2.026.4.048.6.078l.6.094c.2.029.4.068.6.107s.4.075.6.118l.593.135c.1.023.2.043.3.069l.295.077,1.165.3.288.075c.1.025.193.044.29.067l.581.13a40.267,40.267,0,0,0,9.5.775c.4-.008.8-.028,1.2-.046s.8-.046,1.2-.075q1.2-.083,2.389-.223c1.591-.181,3.177-.423,4.749-.751-.768.237-1.55.429-2.334.605s-1.577.323-2.371.458a45.514,45.514,0,0,1-4.8.533c-.4.027-.806.039-1.209.057-.2.006-.4.007-.606.011l-.3,0h-.3l-.606,0-.606-.016-.3-.008-.3-.015-.606-.029-.605-.045-.3-.024-.3-.031-.6-.063c-.2-.024-.4-.052-.6-.077-.4-.048-.8-.118-1.2-.181-.1-.015-.2-.033-.3-.053l-.3-.057c-.2-.04-.4-.072-.6-.117l-.593-.136c-.1-.023-.2-.044-.3-.07l-.294-.078-1.164-.31-.288-.077c-.1-.026-.193-.046-.289-.069l-.58-.135c-.193-.044-.389-.08-.584-.12s-.388-.082-.584-.114l-.587-.1c-.2-.032-.393-.057-.589-.087l-.295-.043-.3-.034c-.2-.022-.395-.046-.592-.066l-.594-.05c-.2-.02-.4-.024-.595-.039l-.3-.019c-.1-.006-.2-.007-.3-.012-.2-.006-.4-.016-.6-.018-.8-.016-1.592.013-2.386.062s-1.588.139-2.376.261-1.573.276-2.349.47c-.389.095-.774.2-1.156.322S773.39,896.958,773.018,897.108Z" transform="translate(-772.264 -893.148)" fill="#5d6174"/>
          </g>
          <g id="Grupo_1007901" data-name="Grupo 1007901" transform="translate(69.516 29.83)">
            <path id="Trazado_713760" data-name="Trazado 713760" d="M1453.173,865.567q.2,4.092.4,8.182c13.045,4.308,26.169-6.813,39.372-2.471q.07-1.42.14-2.84c.007-.133.014-.266.02-.4-13.015-5.93-26.108,3.282-39.276-2.189Q1453.5,865.715,1453.173,865.567Z" transform="translate(-1453.173 -865.567)" fill="#343a51"/>
            <path id="Trazado_713761" data-name="Trazado 713761" d="M1453.242,866.881l-.064-1.312c13.388,6.063,26.7-3.555,39.929,2.472q-.031.628-.062,1.256C1479.855,863.338,1466.588,872.876,1453.242,866.881Z" transform="translate(-1453.178 -865.57)" fill="#343a51" opacity="0.3" style="mix-blend-mode: screen;isolation: isolate"/>
            <path id="Trazado_713762" data-name="Trazado 713762" d="M1463.071,869.859c.007.14.014.28.021.42,13.155,5.908,26.233-3.273,39.236,2.17.007-.134.014-.266.02-.4C1489.332,866.119,1476.24,875.331,1463.071,869.859Z" transform="translate(-1462.418 -869.576)" fill="#343a51" opacity="0.3" style="mix-blend-mode: screen;isolation: isolate"/>
            <path id="Trazado_713763" data-name="Trazado 713763" d="M1453.574,872.533c13.045,4.307,26.169-6.813,39.372-2.471q.051-1.023.1-2.046l.059.026q-.08,1.62-.16,3.239c-13.2-4.342-26.327,6.778-39.372,2.471l-.4-8.182.06.027Q1453.407,869.065,1453.574,872.533Z" transform="translate(-1453.178 -865.57)" fill="#343a51" opacity="0.3" style="mix-blend-mode: multiply;isolation: isolate"/>
            <path id="Trazado_713764" data-name="Trazado 713764" d="M1509.247,897.108c-.372-.15-.752-.279-1.135-.4s-.768-.228-1.156-.322q-1.164-.291-2.349-.47t-2.376-.261c-.795-.05-1.591-.079-2.386-.062-.2,0-.4.012-.6.018-.1,0-.2.006-.3.012l-.3.019c-.2.015-.4.019-.595.039l-.594.05c-.2.02-.4.044-.592.066l-.3.034-.295.043c-.2.029-.393.055-.589.087l-.587.1c-.2.031-.39.075-.585.114s-.39.076-.583.12l-.58.135c-.1.023-.194.043-.289.069l-.288.077-1.164.31-.294.078c-.1.026-.2.047-.3.07l-.593.136c-.2.046-.4.078-.6.117l-.3.057c-.1.02-.2.038-.3.053-.4.063-.8.133-1.2.181-.2.026-.4.054-.6.077l-.6.063-.3.031-.3.024-.6.045-.606.029-.3.015-.3.008-.606.016-.606,0h-.3l-.3,0c-.2,0-.4-.005-.606-.011-.4-.018-.807-.029-1.209-.057a45.512,45.512,0,0,1-4.8-.533c-.794-.134-1.586-.283-2.371-.458s-1.566-.368-2.334-.605c1.572.328,3.158.57,4.748.751q1.193.14,2.389.223c.4.03.8.052,1.2.075s.8.038,1.2.046a40.269,40.269,0,0,0,9.5-.775l.581-.13c.1-.022.194-.041.29-.067l.288-.075,1.165-.3.294-.077c.1-.026.2-.046.3-.069l.593-.135c.2-.044.4-.079.6-.118s.4-.078.6-.107l.6-.094c.2-.029.4-.052.6-.078l.3-.038.3-.029c.2-.019.4-.04.605-.056.809-.063,1.619-.086,2.429-.077a25.908,25.908,0,0,1,4.819.514l.3.062.3.068.295.069.293.075c.391.1.779.21,1.163.334A15.587,15.587,0,0,1,1509.247,897.108Z" transform="translate(-1470.072 -893.148)" fill="#5d6174"/>
          </g>
          <path id="Trazado_713765" data-name="Trazado 713765" d="M1396.912,443.336h-1.6l.8-25.366.045,1.418.016.509Z" transform="translate(-1329.607 -417.652)" fill="#343a51"/>
          <path id="Trazado_713766" data-name="Trazado 713766" d="M1408.912,463.427h-.42l-.326-23.122-.011-.826.016.509Z" transform="translate(-1341.607 -437.743)" fill="#343a51" opacity="0.3" style="mix-blend-mode: multiply;isolation: isolate"/>
          <path id="Trazado_713767" data-name="Trazado 713767" d="M1396.155,419.388l.016.509,0,.317-.325,23.122h-.533l.8-25.366Z" transform="translate(-1329.607 -417.652)" fill="#343a51" opacity="0.3" style="mix-blend-mode: screen;isolation: isolate"/>
          <path id="Trazado_713768" data-name="Trazado 713768" d="M734.719,1243.424H632.528l2.212-4.348a1.492,1.492,0,0,1,1.33-.815h95.106a1.493,1.493,0,0,1,1.33.815Z" transform="translate(-617.12 -1183.857)" fill="#3076b6"/>
          <path id="Trazado_713769" data-name="Trazado 713769" d="M794.171,1165.1h-92.95l2.18-4.711a.781.781,0,0,1,.709-.453h87.173a.782.782,0,0,1,.709.453Z" transform="translate(-681.284 -1110.702)" fill="#3076b6"/>
          <path id="Trazado_713770" data-name="Trazado 713770" d="M676.176,1321.743H565.2l2.4-4.348a1.577,1.577,0,0,1,1.382-.816H672.391a1.579,1.579,0,0,1,1.382.816Z" transform="translate(-554.23 -1257.012)" fill="#3076b6"/>
          <path id="Trazado_713771" data-name="Trazado 713771" d="M801.913,1243.424H778.857l.5-4.348a2.713,2.713,0,0,1,.124-.6c.052-.141.113-.22.176-.22h21.458c.127,0,.243.315.3.815Z" transform="translate(-753.801 -1183.857)" fill="#a3b988" opacity="0.2" style="mix-blend-mode: screen;isolation: isolate"/>
          <path id="Trazado_713772" data-name="Trazado 713772" d="M841.548,1243.424H830.383l.242-4.348a5.25,5.25,0,0,1,.06-.6c.025-.141.054-.22.085-.22h10.391c.061,0,.118.315.145.815Z" transform="translate(-801.93 -1183.857)" fill="#a3b988" opacity="0.2" style="mix-blend-mode: screen;isolation: isolate"/>
          <path id="Trazado_713773" data-name="Trazado 713773" d="M867.63,1165.1H845.915l.509-4.711a1.47,1.47,0,0,1,.067-.33c.029-.079.063-.123.1-.123h20.366c.071,0,.136.177.165.453Z" transform="translate(-816.438 -1110.702)" fill="#a3b988" opacity="0.2" style="mix-blend-mode: screen;isolation: isolate"/>
          <path id="Trazado_713774" data-name="Trazado 713774" d="M906.015,1165.1h-9.678l.227-4.711a3.147,3.147,0,0,1,.03-.33c.013-.079.028-.123.044-.123h9.077c.032,0,.061.177.074.453Z" transform="translate(-863.535 -1110.702)" fill="#a3b988" opacity="0.2" style="mix-blend-mode: screen;isolation: isolate"/>
          <path id="Trazado_713775" data-name="Trazado 713775" d="M740.706,1321.743h-24.37l.528-4.348a2.749,2.749,0,0,1,.127-.6c.053-.141.113-.219.176-.219h22.707c.126,0,.243.313.3.816Z" transform="translate(-695.402 -1257.012)" fill="#a3b988" opacity="0.2" style="mix-blend-mode: screen;isolation: isolate"/>
          <path id="Trazado_713776" data-name="Trazado 713776" d="M788.659,1321.743h-8.7l.188-4.348c.011-.251.027-.455.045-.6s.04-.219.063-.219h8.1a2.038,2.038,0,0,1,.108.816Z" transform="translate(-754.833 -1257.012)" fill="#a3b988" opacity="0.2" style="mix-blend-mode: screen;isolation: isolate"/>
          <path id="Trazado_713777" data-name="Trazado 713777" d="M1699.486,1243.424h-26.138l.566-4.348a2.437,2.437,0,0,1,.14-.6c.059-.141.128-.22.2-.22h24.325c.144,0,.275.315.34.815Z" transform="translate(-1589.316 -1183.857)" fill="#a3b988" opacity="0.2" style="mix-blend-mode: multiply;isolation: isolate"/>
          <path id="Trazado_713778" data-name="Trazado 713778" d="M1858.575,1243.424h-11.413l.247-4.348a5.306,5.306,0,0,1,.061-.6c.026-.141.056-.22.087-.22h10.622c.063,0,.12.315.149.815Z" transform="translate(-1751.669 -1183.857)" fill="#a3b988" opacity="0.2" style="mix-blend-mode: multiply;isolation: isolate"/>
          <path id="Trazado_713779" data-name="Trazado 713779" d="M1664.258,1165.1h-24.573l.576-4.711a1.322,1.322,0,0,1,.076-.33c.033-.079.071-.123.111-.123h23.046c.081,0,.154.177.188.453Z" transform="translate(-1557.872 -1110.702)" fill="#a3b988" opacity="0.2" style="mix-blend-mode: multiply;isolation: isolate"/>
          <path id="Trazado_713780" data-name="Trazado 713780" d="M1829.9,1165.1h-10.214l.239-4.711a3.067,3.067,0,0,1,.032-.33c.014-.079.03-.123.046-.123h9.58c.033,0,.064.177.078.453Z" transform="translate(-1726.001 -1110.702)" fill="#a3b988" opacity="0.2" style="mix-blend-mode: multiply;isolation: isolate"/>
          <path id="Trazado_713781" data-name="Trazado 713781" d="M1739.823,1321.743h-27.315l.591-4.348a2.508,2.508,0,0,1,.143-.6c.059-.141.127-.219.2-.219h25.452c.141,0,.272.313.34.816Z" transform="translate(-1625.893 -1257.012)" fill="#a3b988" opacity="0.2" style="mix-blend-mode: multiply;isolation: isolate"/>
          <path id="Trazado_713782" data-name="Trazado 713782" d="M1885.174,1321.743h-13.615l.295-4.348a4.689,4.689,0,0,1,.071-.6c.029-.141.063-.219.1-.219h12.687c.071,0,.136.313.17.816Z" transform="translate(-1774.458 -1257.012)" fill="#a3b988" opacity="0.2" style="mix-blend-mode: multiply;isolation: isolate"/>
          <path id="Trazado_713783" data-name="Trazado 713783" d="M544.648,1394.9l-.577,1.178-3.952,8.063H533.6v-8.153a1.087,1.087,0,0,1,1.087-1.087Z" transform="translate(-524.711 -1330.168)" fill="#a3b988"/>
          <path id="Trazado_713784" data-name="Trazado 713784" d="M1328.157,801.484a3.764,3.764,0,0,1-1.186-1.67,2.942,2.942,0,0,1,1.374-3.7c3-1.626,5.084-16.767-3.126-17.119v0l-.034,0-.034,0v0c-8.21.352-6.124,15.493-3.126,17.119a2.942,2.942,0,0,1,1.374,3.7,3.761,3.761,0,0,1-1.186,1.67,4.018,4.018,0,0,0-.913,2.624h7.769A4.019,4.019,0,0,0,1328.157,801.484Z" transform="translate(-1258.683 -754.87)" fill="#343a51"/>
          <path id="Trazado_713785" data-name="Trazado 713785" d="M1361.392,801.484a4.381,4.381,0,0,1-.693-1.67,4.117,4.117,0,0,1,.8-3.7c1.751-1.626,2.97-16.767-1.826-17.119v0l-.02,0-.02,0v0c-4.8.352-3.577,15.493-1.826,17.119a4.116,4.116,0,0,1,.8,3.7,4.376,4.376,0,0,1-.693,1.67,6.157,6.157,0,0,0-.533,2.624h4.538A6.157,6.157,0,0,0,1361.392,801.484Z" transform="translate(-1293.137 -754.87)" fill="#343a51" opacity="0.2" style="mix-blend-mode: screen;isolation: isolate"/>
          <path id="Trazado_713786" data-name="Trazado 713786" d="M1385.361,801.484a7.139,7.139,0,0,1-.354-1.67,7.33,7.33,0,0,1,.41-3.7c.894-1.626,1.516-16.767-.932-17.119v0l-.01,0-.01,0v0c-2.449.352-1.827,15.493-.932,17.119a7.331,7.331,0,0,1,.41,3.7,7.126,7.126,0,0,1-.354,1.67,11.518,11.518,0,0,0-.272,2.624h2.317A11.5,11.5,0,0,0,1385.361,801.484Z" transform="translate(-1317.87 -754.87)" fill="#343a51" opacity="0.2" style="mix-blend-mode: screen;isolation: isolate"/>
          <g id="Grupo_1007902" data-name="Grupo 1007902" transform="translate(20.933 26.693)">
            <path id="Trazado_713787" data-name="Trazado 713787" d="M719.772,819.074V826.9a1.081,1.081,0,0,1-1.081,1.081h-1.274a1.069,1.069,0,0,1-.356-.061,1.044,1.044,0,0,1-.317-.174,1.076,1.076,0,0,1-.408-.846v-7.825a1.082,1.082,0,0,1,1.081-1.081h1.274A1.082,1.082,0,0,1,719.772,819.074Z" transform="translate(-716.336 -817.993)" fill="#343a51"/>
            <path id="Trazado_713788" data-name="Trazado 713788" d="M752.155,819.074V826.9a1.081,1.081,0,0,1-1.081,1.081H751v-9.987h.069A1.082,1.082,0,0,1,752.155,819.074Z" transform="translate(-748.718 -817.993)" fill="#343a51" opacity="0.3" style="mix-blend-mode: multiply;isolation: isolate"/>
            <path id="Trazado_713789" data-name="Trazado 713789" d="M723.884,817.993v9.987H723.2a1.069,1.069,0,0,1-.356-.061,1.046,1.046,0,0,1-.317-.174v-9.516a1.079,1.079,0,0,1,.673-.236Z" transform="translate(-722.118 -817.993)" fill="#343a51" opacity="0.2" style="mix-blend-mode: screen;isolation: isolate"/>
            <path id="Trazado_713790" data-name="Trazado 713790" d="M728.058,817.993v9.987h-.368a1.07,1.07,0,0,1-.356-.061v-9.866a1.07,1.07,0,0,1,.356-.06Z" transform="translate(-726.609 -817.993)" fill="#343a51" opacity="0.2" style="mix-blend-mode: screen;isolation: isolate"/>
          </g>
          <g id="Grupo_1007903" data-name="Grupo 1007903" transform="translate(109.268 26.693)">
            <path id="Trazado_713791" data-name="Trazado 713791" d="M2059.516,819.074V826.9a1.082,1.082,0,0,1-1.082,1.081h-1.274a1.064,1.064,0,0,1-.356-.061,1.045,1.045,0,0,1-.317-.174,1.076,1.076,0,0,1-.408-.846v-7.825a1.082,1.082,0,0,1,.725-1.021,1.064,1.064,0,0,1,.356-.06h1.274A1.082,1.082,0,0,1,2059.516,819.074Z" transform="translate(-2056.08 -817.993)" fill="#343a51"/>
            <path id="Trazado_713792" data-name="Trazado 713792" d="M2091.9,819.074V826.9a1.082,1.082,0,0,1-1.081,1.081h-.069v-9.987h.069A1.082,1.082,0,0,1,2091.9,819.074Z" transform="translate(-2088.462 -817.993)" fill="#343a51" opacity="0.3" style="mix-blend-mode: multiply;isolation: isolate"/>
            <path id="Trazado_713793" data-name="Trazado 713793" d="M2063.628,817.993v9.987h-.685a1.064,1.064,0,0,1-.356-.061,1.047,1.047,0,0,1-.317-.174v-9.516a1.081,1.081,0,0,1,.673-.236Z" transform="translate(-2061.862 -817.993)" fill="#343a51" opacity="0.2" style="mix-blend-mode: screen;isolation: isolate"/>
            <path id="Trazado_713794" data-name="Trazado 713794" d="M2067.8,817.993v9.987h-.369a1.07,1.07,0,0,1-.356-.061v-9.866a1.07,1.07,0,0,1,.356-.06Z" transform="translate(-2066.353 -817.993)" fill="#343a51" opacity="0.2" style="mix-blend-mode: screen;isolation: isolate"/>
          </g>
          <g id="Grupo_1007904" data-name="Grupo 1007904" transform="translate(0 17.519)">
            <path id="Trazado_713795" data-name="Trazado 713795" d="M444.148,702.769c0,3.2-4.071,6.015-10.235,7.649h0q-.4.107-.82.207l-4.355.81c-1.4.19-2.861.327-4.369.4q-1.409.072-2.869.073c-1.419,0-2.807-.053-4.154-.153q-.971-.072-1.912-.178c-1.286-.144-2.525-.332-3.708-.561q-.818-.158-1.6-.342h0q-.586-.138-1.149-.289c-6.105-1.638-10.129-4.439-10.129-7.62Z" transform="translate(-398.845 -701.192)" fill="#cacccf"/>
            <path id="Trazado_713796" data-name="Trazado 713796" d="M805.7,702.769c0,3.2-4.071,6.015-10.235,7.649h0a47.016,47.016,0,0,1-9.544,1.421c5.315-3.378,6.841-6.72,7.123-9.071Z" transform="translate(-760.397 -701.192)" fill="#cacccf" opacity="0.2" style="mix-blend-mode: multiply;isolation: isolate"/>
            <path id="Trazado_713797" data-name="Trazado 713797" d="M841.777,702.769a16.026,16.026,0,0,1-5.357,8.711q.524-.009,1.039-.044h0a18.71,18.71,0,0,0,4.355-.81h0q.3-.094.587-.2h0c3.949-1.411,6.761-4.117,7.137-7.386l-3.95-.272Z" transform="translate(-807.569 -701.192)" fill="#cacccf" opacity="0.2" style="mix-blend-mode: multiply;isolation: isolate"/>
            <path id="Trazado_713798" data-name="Trazado 713798" d="M526.828,711.581a45.307,45.307,0,0,1-5.307-.9h0q-.586-.138-1.149-.289c-2.108-3.487-2.409-6.008-2.216-7.62h8.068C525.224,705.721,525.847,708.941,526.828,711.581Z" transform="translate(-510.243 -701.192)" fill="#cacccf" opacity="0.2" style="mix-blend-mode: screen;isolation: isolate"/>
            <path id="Trazado_713799" data-name="Trazado 713799" d="M568.384,711.759q-.971-.072-1.912-.178c-1.286-.144-2.525-.332-3.708-.561a17.662,17.662,0,0,1-2.214-8.106l3.35-.145h3.544A19.954,19.954,0,0,0,568.384,711.759Z" transform="translate(-549.886 -701.192)" fill="#cacccf" opacity="0.2" style="mix-blend-mode: screen;isolation: isolate"/>
            <path id="Trazado_713800" data-name="Trazado 713800" d="M593.7,818.772h0a49.244,49.244,0,0,1-12.413,1.494,50.369,50.369,0,0,1-11.372-1.234A82.205,82.205,0,0,0,593.7,818.772Z" transform="translate(-558.634 -809.546)" fill="#343a51"/>
            <path id="Trazado_713801" data-name="Trazado 713801" d="M444.148,680.371c0,.232-.768.451-2.142.648a180.16,180.16,0,0,1-20.509.876,180.168,180.168,0,0,1-20.51-.876c-1.374-.2-2.142-.416-2.142-.648,0-.842,10.142-1.524,22.652-1.524S444.148,679.529,444.148,680.371Z" transform="translate(-398.845 -678.847)" fill="#cacccf"/>
            <path id="Trazado_713802" data-name="Trazado 713802" d="M421.5,679.063c11.972,0,21.773.625,22.6,1.416a.154.154,0,0,0,.056-.108c0-.842-10.141-1.524-22.651-1.524s-22.652.682-22.652,1.524a.153.153,0,0,0,.056.108C399.723,679.688,409.525,679.063,421.5,679.063Z" transform="translate(-398.845 -678.847)" fill="#cacccf" opacity="0.5" style="mix-blend-mode: screen;isolation: isolate"/>
            <path id="Trazado_713803" data-name="Trazado 713803" d="M472.35,699.369a180.153,180.153,0,0,1-20.509.876,180.162,180.162,0,0,1-20.51-.876,180.1,180.1,0,0,1,20.51-.876A180.087,180.087,0,0,1,472.35,699.369Z" transform="translate(-429.189 -697.198)" fill="#cacccf" opacity="0.2" style="mix-blend-mode: multiply;isolation: isolate"/>
            <path id="Trazado_713804" data-name="Trazado 713804" d="M442.006,700.865a180.123,180.123,0,0,1-20.509.876,180.131,180.131,0,0,1-20.51-.876,5.3,5.3,0,0,1-2.086-.539.153.153,0,0,0-.056.108c0,.232.768.451,2.142.648a180.168,180.168,0,0,0,20.51.876,180.16,180.16,0,0,0,20.509-.876c1.374-.2,2.142-.416,2.142-.648a.153.153,0,0,0-.056-.108A5.3,5.3,0,0,1,442.006,700.865Z" transform="translate(-398.845 -698.91)" fill="#cacccf" opacity="0.7" style="mix-blend-mode: screen;isolation: isolate"/>
            <path id="Trazado_713805" data-name="Trazado 713805" d="M410.573,714.551c.106.042.215.078.324.114s.22.07.33.1c.222.065.444.129.669.187q.674.176,1.359.323c.457.1.915.19,1.378.271l.346.062.347.059c.231.041.464.075.7.112s.465.069.7.1c.117.016.233.035.349.05l.35.047.35.047.351.043c.234.028.468.058.7.082.938.109,1.879.2,2.822.273l.708.057c.118.01.236.018.354.026l.354.024.354.024.177.012.177.01.71.042c.118.007.236.015.355.021l.355.018.71.036,1.422.059c1.9.069,3.8.1,5.7.128q-2.849.1-5.7.041c-.475-.011-.951-.023-1.426-.039l-.713-.028-.356-.014c-.119,0-.237-.012-.356-.017l-.712-.038-.178-.01-.178-.012-.356-.023-.356-.023c-.119-.008-.237-.015-.355-.025l-.711-.054c-.237-.018-.473-.042-.71-.063s-.473-.042-.709-.068l-.708-.073-.706-.082c-.236-.027-.47-.06-.7-.09l-.352-.046-.351-.051c-.234-.034-.469-.067-.7-.105s-.467-.074-.7-.116c-.93-.159-1.853-.346-2.761-.567l-.34-.086c-.113-.028-.225-.06-.338-.09s-.224-.062-.336-.093l-.167-.048-.166-.051-.166-.051-.165-.053c-.11-.035-.219-.073-.328-.109s-.216-.077-.322-.118S410.676,714.6,410.573,714.551Z" transform="translate(-409.8 -712.197)" fill="#fff" style="mix-blend-mode: screen;isolation: isolate"/>
            <path id="Trazado_713806" data-name="Trazado 713806" d="M771.983,719.628a6.377,6.377,0,0,1-.808.954c-.038.037-.074.076-.113.113l-.118.11-.118.11-.122.107-.123.107-.061.054-.063.052-.255.208a16.183,16.183,0,0,1-2.264,1.474c-.05.028-.1.056-.151.083l-.155.079-.309.158c-.052.026-.1.053-.155.078l-.159.074-.318.148-.159.074c-.053.024-.108.046-.162.069l-.325.138-.162.069-.081.034-.083.032-.332.128-.332.128c-.111.041-.225.078-.338.118l-.338.117-.169.059c-.057.019-.115.036-.172.054l-.688.213c-.057.019-.116.033-.174.05l-.175.048-.349.1-.175.048c-.058.015-.116.033-.175.046l-.354.084-.354.085c-.118.027-.235.058-.355.081l-.715.148c-.237.052-.479.092-.72.134l-.361.062-.181.031c-.06.01-.12.021-.181.029l-.728.1-.364.052c-.121.016-.244.029-.366.042l-.732.081a47.457,47.457,0,0,1-5.893.223c1.965-.047,3.926-.158,5.863-.39l.725-.093c.121-.016.242-.029.362-.046l.36-.055.72-.111c.06-.009.12-.02.179-.031l.179-.033.357-.066c.478-.081.948-.187,1.42-.285.119-.023.234-.054.351-.082l.35-.085.35-.085c.059-.013.115-.031.173-.046l.173-.047.346-.094.173-.047c.057-.016.116-.03.172-.048l.681-.209c.057-.018.114-.034.17-.053l.168-.057.335-.114c.111-.039.224-.075.334-.116l.33-.124.33-.123.082-.031.081-.033.162-.067.323-.133c.054-.023.108-.044.161-.067l.158-.071q.636-.282,1.246-.6l.3-.16c.05-.027.1-.053.151-.081l.147-.084.294-.169c.05-.028.1-.057.145-.087l.143-.088c.1-.059.192-.116.286-.177l.279-.184c.046-.031.094-.061.139-.093l.135-.1c.09-.064.181-.127.269-.193a12.827,12.827,0,0,0,1.01-.823l.119-.108c.039-.036.077-.074.115-.111s.077-.074.114-.111l.11-.114A5.1,5.1,0,0,0,771.983,719.628Z" transform="translate(-727.782 -716.939)" fill="#98999b"/>
          </g>
          <g id="Grupo_1007905" data-name="Grupo 1007905" transform="translate(88.409 17.519)">
            <path id="Trazado_713807" data-name="Trazado 713807" d="M1785.019,702.769c0,3.2-4.071,6.015-10.236,7.649h0q-.4.107-.82.207l-4.355.81c-1.4.19-2.861.327-4.369.4-.939.048-1.9.073-2.869.073-1.419,0-2.807-.053-4.154-.153q-.972-.072-1.912-.178c-1.286-.144-2.525-.332-3.708-.561q-.818-.158-1.6-.342h0q-.586-.138-1.149-.289c-6.1-1.638-10.129-4.439-10.129-7.62Z" transform="translate(-1739.716 -701.192)" fill="#cacccf"/>
            <path id="Trazado_713808" data-name="Trazado 713808" d="M2146.571,702.769c0,3.2-4.071,6.015-10.236,7.649h0a47.016,47.016,0,0,1-9.544,1.421c5.315-3.378,6.841-6.72,7.123-9.071Z" transform="translate(-2101.268 -701.192)" fill="#cacccf" opacity="0.2" style="mix-blend-mode: multiply;isolation: isolate"/>
            <path id="Trazado_713809" data-name="Trazado 713809" d="M2182.647,702.769a16.027,16.027,0,0,1-5.356,8.711c.349-.006.7-.021,1.039-.044h0a18.712,18.712,0,0,0,4.355-.81h0q.3-.094.587-.2h0c3.949-1.411,6.761-4.117,7.137-7.386l-3.949-.272Z" transform="translate(-2148.44 -701.192)" fill="#cacccf" opacity="0.2" style="mix-blend-mode: multiply;isolation: isolate"/>
            <path id="Trazado_713810" data-name="Trazado 713810" d="M1867.7,711.581a45.3,45.3,0,0,1-5.306-.9h0q-.586-.138-1.149-.289c-2.108-3.487-2.409-6.008-2.216-7.62h8.068C1866.1,705.721,1866.719,708.941,1867.7,711.581Z" transform="translate(-1851.115 -701.192)" fill="#cacccf" opacity="0.2" style="mix-blend-mode: screen;isolation: isolate"/>
            <path id="Trazado_713811" data-name="Trazado 713811" d="M1909.255,711.759q-.971-.072-1.912-.178c-1.286-.144-2.525-.332-3.708-.561a17.67,17.67,0,0,1-2.214-8.106l3.351-.145h3.544A19.954,19.954,0,0,0,1909.255,711.759Z" transform="translate(-1890.757 -701.192)" fill="#cacccf" opacity="0.2" style="mix-blend-mode: screen;isolation: isolate"/>
            <path id="Trazado_713812" data-name="Trazado 713812" d="M1934.573,818.772h0a49.242,49.242,0,0,1-12.413,1.494,50.369,50.369,0,0,1-11.372-1.234A82.2,82.2,0,0,0,1934.573,818.772Z" transform="translate(-1899.505 -809.546)" fill="#343a51"/>
            <path id="Trazado_713813" data-name="Trazado 713813" d="M1785.019,680.371c0,.232-.768.451-2.142.648a240.537,240.537,0,0,1-41.019,0c-1.374-.2-2.142-.416-2.142-.648,0-.842,10.141-1.524,22.651-1.524S1785.019,679.529,1785.019,680.371Z" transform="translate(-1739.716 -678.847)" fill="#cacccf"/>
            <path id="Trazado_713814" data-name="Trazado 713814" d="M1762.368,679.063c11.971,0,21.773.625,22.6,1.416a.154.154,0,0,0,.056-.108c0-.842-10.141-1.524-22.651-1.524s-22.651.682-22.651,1.524a.153.153,0,0,0,.056.108C1740.594,679.688,1750.4,679.063,1762.368,679.063Z" transform="translate(-1739.716 -678.847)" fill="#cacccf" opacity="0.5" style="mix-blend-mode: screen;isolation: isolate"/>
            <path id="Trazado_713815" data-name="Trazado 713815" d="M1813.222,699.369a240.505,240.505,0,0,1-41.019,0,240.472,240.472,0,0,1,41.019,0Z" transform="translate(-1770.061 -697.198)" fill="#cacccf" opacity="0.2" style="mix-blend-mode: multiply;isolation: isolate"/>
            <path id="Trazado_713816" data-name="Trazado 713816" d="M1782.877,700.865a240.5,240.5,0,0,1-41.019,0,5.3,5.3,0,0,1-2.086-.539.153.153,0,0,0-.056.108c0,.232.768.451,2.142.648a240.537,240.537,0,0,0,41.019,0c1.374-.2,2.142-.416,2.142-.648a.152.152,0,0,0-.056-.108A5.293,5.293,0,0,1,1782.877,700.865Z" transform="translate(-1739.716 -698.91)" fill="#cacccf" opacity="0.7" style="mix-blend-mode: screen;isolation: isolate"/>
            <path id="Trazado_713817" data-name="Trazado 713817" d="M1751.445,714.551c.106.042.215.078.324.114s.219.07.33.1c.222.065.444.129.669.187q.674.176,1.36.323c.457.1.916.19,1.378.271l.346.062.347.059c.231.041.464.075.7.112s.465.069.7.1c.117.016.233.035.35.05l.35.047.35.047.351.043c.235.028.468.058.7.082.937.109,1.879.2,2.822.273l.707.057c.118.01.236.018.354.026l.354.024.355.024.177.012.177.01.709.042c.119.007.237.015.355.021l.355.018.71.036,1.422.059c1.9.069,3.8.1,5.7.128q-2.849.1-5.7.041c-.475-.011-.951-.023-1.426-.039l-.712-.028-.357-.014c-.119,0-.237-.012-.356-.017l-.712-.038-.178-.01-.178-.012-.355-.023-.355-.023c-.119-.008-.237-.015-.356-.025l-.71-.054c-.237-.018-.473-.042-.709-.063s-.473-.042-.709-.068l-.707-.073-.706-.082c-.236-.027-.47-.06-.705-.09l-.352-.046-.351-.051c-.234-.034-.469-.067-.7-.105s-.467-.074-.7-.116c-.93-.159-1.853-.346-2.762-.567l-.339-.086c-.114-.028-.225-.06-.338-.09s-.224-.062-.336-.093l-.167-.048-.166-.051-.166-.051-.165-.053c-.11-.035-.219-.073-.328-.109s-.216-.077-.323-.118S1751.547,714.6,1751.445,714.551Z" transform="translate(-1750.672 -712.197)" fill="#fff" style="mix-blend-mode: screen;isolation: isolate"/>
            <path id="Trazado_713818" data-name="Trazado 713818" d="M2112.854,719.628a6.371,6.371,0,0,1-.808.954c-.038.037-.074.076-.113.113l-.118.11-.118.11-.122.107-.123.107-.061.054-.064.052-.254.208a16.215,16.215,0,0,1-2.264,1.474c-.051.028-.1.056-.151.083l-.155.079-.309.158c-.052.026-.1.053-.155.078l-.159.074-.317.148-.159.074c-.053.024-.108.046-.162.069l-.324.138-.163.069-.081.034-.083.032-.331.128-.333.128c-.111.041-.225.078-.337.118l-.338.117-.169.059c-.057.019-.114.036-.171.054l-.688.213c-.056.019-.116.033-.174.05l-.175.048-.349.1-.174.048c-.059.015-.117.033-.176.046l-.354.084-.354.085c-.118.027-.235.058-.355.081l-.715.148c-.238.052-.479.092-.72.134l-.361.062-.181.031c-.06.01-.12.021-.181.029l-.727.1-.364.052c-.122.016-.244.029-.365.042l-.733.081a47.453,47.453,0,0,1-5.893.223c1.965-.047,3.926-.158,5.863-.39l.725-.093c.12-.016.242-.029.362-.046l.36-.055.72-.111c.06-.009.12-.02.179-.031l.178-.033.357-.066c.478-.081.948-.187,1.42-.285.119-.023.234-.054.351-.082l.35-.085.35-.085c.059-.013.115-.031.173-.046l.173-.047.346-.094.173-.047c.057-.016.116-.03.172-.048l.681-.209c.057-.018.114-.034.17-.053l.168-.057.335-.114c.111-.039.224-.075.335-.116l.329-.124.33-.123.083-.031.08-.033.162-.067.323-.133c.053-.023.108-.044.161-.067l.158-.071q.636-.282,1.246-.6l.3-.16c.05-.027.1-.053.151-.081l.147-.084.295-.169c.05-.028.1-.057.145-.087l.143-.088c.1-.059.193-.116.286-.177l.278-.184c.046-.031.094-.061.139-.093l.135-.1c.09-.064.181-.127.269-.193a12.781,12.781,0,0,0,1.01-.823l.119-.108c.04-.036.077-.074.115-.111s.076-.074.113-.111l.111-.114A5.157,5.157,0,0,0,2112.854,719.628Z" transform="translate(-2068.653 -716.939)" fill="#98999b"/>
          </g>
          <path id="Trazado_713819" data-name="Trazado 713819" d="M763.843,1239.075H666.077a1.491,1.491,0,0,1,1.33-.815h95.105A1.493,1.493,0,0,1,763.843,1239.075Z" transform="translate(-648.457 -1183.857)" fill="#a3b988" opacity="0.3" style="mix-blend-mode: multiply;isolation: isolate"/>
          <path id="Trazado_713820" data-name="Trazado 713820" d="M707.81,1317.395H601.637a1.577,1.577,0,0,1,1.382-.816H706.428A1.579,1.579,0,0,1,707.81,1317.395Z" transform="translate(-588.266 -1257.012)" fill="#a3b988" opacity="0.3" style="mix-blend-mode: multiply;isolation: isolate"/>
          <g id="Grupo_1007906" data-name="Grupo 1007906" transform="translate(8.885 64.73)">
            <path id="Trazado_713821" data-name="Trazado 713821" d="M544.648,1394.9l-.577,1.178-3.952,8.063H533.6v-8.153a1.087,1.087,0,0,1,1.087-1.087Z" transform="translate(-533.596 -1394.898)" fill="#3076b6"/>
            <path id="Trazado_713822" data-name="Trazado 713822" d="M617.066,1394.9l-.577,1.178-3.952,8.063h-1.411l3.06-9.241Z" transform="translate(-606.014 -1394.898)" fill="#3076b6" opacity="0.2" style="mix-blend-mode: multiply;isolation: isolate"/>
            <path id="Trazado_713823" data-name="Trazado 713823" d="M564.808,1394.9l-1.095,9.241h-3.168V1394.9Z" transform="translate(-558.768 -1394.898)" fill="#3076b6" opacity="0.2" style="mix-blend-mode: screen;isolation: isolate"/>
            <path id="Trazado_713824" data-name="Trazado 713824" d="M534.683,1394.9h9.965l-.577,1.178H533.6v-.09A1.087,1.087,0,0,1,534.683,1394.9Z" transform="translate(-533.596 -1394.898)" fill="#3076b6" opacity="0.2" style="mix-blend-mode: multiply;isolation: isolate"/>
          </g>
          <g id="Grupo_1007907" data-name="Grupo 1007907" transform="translate(112.887 64.73)">
            <path id="Trazado_713825" data-name="Trazado 713825" d="M2110.971,1394.9l.577,1.178,3.952,8.063h6.523v-8.153a1.087,1.087,0,0,0-1.087-1.087Z" transform="translate(-2110.971 -1394.898)" fill="#3076b6"/>
            <path id="Trazado_713826" data-name="Trazado 713826" d="M2110.971,1394.9l.577,1.178,3.953,8.063h1.411l-.414-9.241Z" transform="translate(-2110.971 -1394.898)" fill="#3076b6" opacity="0.2" style="mix-blend-mode: multiply;isolation: isolate"/>
            <path id="Trazado_713827" data-name="Trazado 713827" d="M2120.936,1394.9h-9.965l.577,1.178h10.475v-.09A1.087,1.087,0,0,0,2120.936,1394.9Z" transform="translate(-2110.971 -1394.898)" fill="#3076b6" opacity="0.2" style="mix-blend-mode: multiply;isolation: isolate"/>
          </g>
          <path id="Trazado_713828" data-name="Trazado 713828" d="M1329.539,429.773a5.1,5.1,0,0,0,.7-.168,5.638,5.638,0,0,0,.666-.251,5.1,5.1,0,0,0,1.2-.746,4.409,4.409,0,0,0,.505-.49,5,5,0,0,0,.432-.559,6.784,6.784,0,0,0,.645-1.273,4.565,4.565,0,0,1-.518,1.353,4.274,4.274,0,0,1-.942,1.117,4.677,4.677,0,0,1-.6.422,4.563,4.563,0,0,1-1.36.519A3.493,3.493,0,0,1,1329.539,429.773Z" transform="translate(-1268.175 -425.42)" fill="#dae3cf"/>
          <path id="Trazado_713829" data-name="Trazado 713829" d="M1335.142,564.223a5.047,5.047,0,0,0,.6-.386,5.617,5.617,0,0,0,.547-.454,5.1,5.1,0,0,0,.887-1.094,4.38,4.38,0,0,0,.318-.628,5.02,5.02,0,0,0,.227-.669,6.8,6.8,0,0,0,.2-1.414,4.567,4.567,0,0,1-.049,1.447,4.275,4.275,0,0,1-.526,1.363,4.649,4.649,0,0,1-.43.594,4.552,4.552,0,0,1-1.117.933A3.478,3.478,0,0,1,1335.142,564.223Z" transform="translate(-1273.408 -549.922)" fill="#dae3cf"/>
          <path id="Trazado_713830" data-name="Trazado 713830" d="M1308.536,676.905a8.869,8.869,0,0,0,.067,1.944,7.807,7.807,0,0,0,.2.947,5.924,5.924,0,0,0,.326.907,5.373,5.373,0,0,0,1.072,1.587,5.32,5.32,0,0,0,.736.626,7.064,7.064,0,0,0,.832.509,5.278,5.278,0,0,1-.885-.43l-.1-.065a1.022,1.022,0,0,1-.1-.068l-.2-.144c-.069-.046-.128-.1-.193-.156s-.128-.105-.186-.165l-.179-.173c-.056-.061-.11-.124-.166-.185s-.107-.127-.158-.192-.1-.129-.149-.2l-.14-.207-.126-.215c-.044-.07-.078-.146-.117-.22l-.057-.111-.051-.114a6.188,6.188,0,0,1-.5-1.913A6.623,6.623,0,0,1,1308.536,676.905Z" transform="translate(-1248.447 -659.515)" fill="#dae3cf"/>
          <path id="Trazado_713831" data-name="Trazado 713831" d="M1454.32,675.634a6.6,6.6,0,0,1,.081,1.962,6.182,6.182,0,0,1-.5,1.913l-.051.114-.057.111c-.039.073-.073.149-.117.22l-.126.215-.139.207c-.045.07-.1.133-.15.2s-.1.132-.158.192-.11.125-.166.185l-.179.173c-.058.059-.123.111-.186.164s-.124.11-.193.156l-.2.144a1.112,1.112,0,0,1-.1.068l-.106.065a5.264,5.264,0,0,1-.884.43,7.115,7.115,0,0,0,.832-.509,5.309,5.309,0,0,0,.736-.626,5.379,5.379,0,0,0,1.072-1.587,5.938,5.938,0,0,0,.326-.906,7.787,7.787,0,0,0,.2-.947A8.875,8.875,0,0,0,1454.32,675.634Z" transform="translate(-1381.71 -658.327)" fill="#7a8b66"/>
          <path id="Trazado_713832" data-name="Trazado 713832" d="M1443.874,510.121a4.226,4.226,0,0,1,.326-.969,5.339,5.339,0,0,1,.522-.885c.1-.14.211-.271.322-.4.058-.063.12-.124.179-.186l.09-.092.1-.085c.065-.056.128-.114.2-.167l.208-.151c.036-.024.069-.05.106-.073l.111-.065q.111-.064.223-.124-.1.086-.192.168l-.1.081c-.032.028-.061.058-.091.087l-.184.172-.174.181a7.083,7.083,0,0,0-.637.769c-.05.067-.1.133-.145.2s-.094.138-.138.209l-.134.212c-.041.073-.084.144-.128.216C1444.167,509.512,1444.014,509.812,1443.874,510.121Z" transform="translate(-1374.971 -500.74)" fill="#7a8b66"/>
          <path id="Trazado_713833" data-name="Trazado 713833" d="M759.729,1176.005c2.857-.133,5.714-.2,8.571-.249s5.714-.072,8.571-.072,5.714.024,8.571.07,5.714.117,8.571.25c-2.857.134-5.714.2-8.571.25s-5.714.072-8.571.07-5.714-.024-8.571-.071S762.586,1176.138,759.729,1176.005Z" transform="translate(-735.935 -1125.408)" fill="#dae3cf"/>
          <path id="Trazado_713834" data-name="Trazado 713834" d="M1646.555,1176.558c2.2-.117,4.409-.177,6.613-.219s4.409-.063,6.614-.063,4.409.021,6.613.062,4.409.1,6.613.22c-2.2.117-4.409.179-6.613.22s-4.409.063-6.613.062-4.409-.021-6.614-.063S1648.759,1176.675,1646.555,1176.558Z" transform="translate(-1564.288 -1125.961)" fill="#7a8b66"/>
          <path id="Trazado_713835" data-name="Trazado 713835" d="M1751.445,1272.47c2.2-.117,4.409-.178,6.613-.219s4.409-.063,6.614-.062,4.409.021,6.613.062,4.409.1,6.613.22c-2.2.117-4.409.178-6.613.22s-4.409.063-6.613.062-4.409-.021-6.614-.062S1753.649,1272.586,1751.445,1272.47Z" transform="translate(-1662.263 -1215.548)" fill="#7a8b66"/>
          <path id="Trazado_713836" data-name="Trazado 713836" d="M1774.2,1351.745c2.2-.117,4.409-.178,6.613-.219s4.409-.063,6.614-.063,4.409.021,6.613.062,4.409.1,6.613.22c-2.2.117-4.409.179-6.613.22s-4.409.063-6.613.062-4.409-.021-6.614-.063S1776.409,1351.862,1774.2,1351.745Z" transform="translate(-1683.522 -1289.597)" fill="#7a8b66"/>
          <path id="Trazado_713837" data-name="Trazado 713837" d="M693.722,1265.317c2.857-.133,5.714-.2,8.571-.249s5.714-.072,8.571-.072,5.714.024,8.571.071,5.714.117,8.571.25c-2.857.134-5.714.2-8.571.25s-5.714.072-8.571.071-5.714-.025-8.571-.072S696.579,1265.45,693.722,1265.317Z" transform="translate(-674.28 -1208.831)" fill="#dae3cf"/>
          <path id="Trazado_713838" data-name="Trazado 713838" d="M611.126,1351.193c2.857-.133,5.714-.2,8.571-.249s5.714-.072,8.571-.072,5.714.024,8.571.071,5.714.117,8.571.25c-2.857.134-5.714.2-8.571.251s-5.714.072-8.571.07-5.714-.025-8.571-.072S613.983,1351.326,611.126,1351.193Z" transform="translate(-597.13 -1289.045)" fill="#dae3cf"/>
          <path id="Trazado_713839" data-name="Trazado 713839" d="M1333.031,825.312a16.386,16.386,0,0,1-.51-1.6c-.144-.541-.269-1.087-.371-1.638a20.031,20.031,0,0,1-.344-3.347c0-.141,0-.281,0-.422s0-.281.01-.422l.02-.422.035-.421c.01-.141.032-.28.049-.42s.034-.28.06-.418.045-.278.072-.417l.092-.413a9.971,9.971,0,0,1,.526-1.6,7.991,7.991,0,0,1,.833-1.458,10.276,10.276,0,0,0-.687,1.516l-.13.394c-.023.065-.04.132-.058.2l-.054.2-.054.2-.046.2-.046.2c-.016.067-.03.134-.041.2a14.433,14.433,0,0,0-.215,1.641c-.047.55-.055,1.1-.048,1.656s.036,1.106.083,1.658.112,1.1.187,1.653.17,1.1.278,1.644S1332.9,824.77,1333.031,825.312Z" transform="translate(-1270.29 -785.993)" fill="#858997"/>
          <path id="Trazado_713840" data-name="Trazado 713840" d="M1456.068,825.312q.2-.813.357-1.633c.107-.546.2-1.094.277-1.644s.144-1.1.187-1.653.08-1.1.082-1.658,0-1.106-.048-1.656a14.488,14.488,0,0,0-.214-1.641c-.011-.068-.026-.136-.041-.2l-.046-.2-.045-.2-.054-.2-.054-.2c-.018-.067-.035-.134-.058-.2l-.13-.394a10.252,10.252,0,0,0-.687-1.516,7.972,7.972,0,0,1,.834,1.458,9.995,9.995,0,0,1,.526,1.6l.092.413c.027.138.048.277.072.417s.042.278.06.418.039.279.049.42l.035.421.02.422c.009.141.007.281.01.422s.005.281,0,.422a20.044,20.044,0,0,1-.344,3.347c-.1.551-.227,1.1-.371,1.638A16.387,16.387,0,0,1,1456.068,825.312Z" transform="translate(-1385.918 -785.993)" fill="#272c3d"/>
          <path id="Trazado_713841" data-name="Trazado 713841" d="M541.88,1412.133c-.067-.488-.1-.977-.126-1.465q-.018-.366-.026-.732l-.006-.366v-.046l0-.052a.8.8,0,0,1,.009-.106,1.105,1.105,0,0,1,.585-.839,1.087,1.087,0,0,1,.4-.118,3.028,3.028,0,0,1,.384.005c.488.026.977.059,1.465.126-.488.067-.977.1-1.465.126-.12.007-.252.007-.348.023a.855.855,0,0,0-.671.571.8.8,0,0,0-.035.149.494.494,0,0,0-.007.077l0,.039v.046l-.006.366c-.006.244-.014.488-.026.732C541.98,1411.156,541.947,1411.645,541.88,1412.133Z" transform="translate(-532.301 -1342.782)" fill="#dae3cf"/>
        </g>
      </g>
    </g>
  </g>
</svg>
