<svg xmlns="http://www.w3.org/2000/svg" width="488.809" height="148.333" viewBox="0 0 488.809 148.333">
  <g id="Grupo_1013273" data-name="Grupo 1013273" transform="translate(-923.808 -5948.866)">
    <g id="Grupo_1011375" data-name="Grupo 1011375" transform="translate(1210 5948.866)">
      <path id="Trazado_715550" data-name="Trazado 715550" d="M50.583,527.267H22.668a11.906,11.906,0,0,0-11.891,11.891v77.173a3.338,3.338,0,0,0,3.335,3.332H33.782a3.336,3.336,0,0,0,3.335-3.332,12.05,12.05,0,0,1,8.623-11.509,11.9,11.9,0,0,1,3.448-.563H50.9v-65.1a11.9,11.9,0,0,1,11.889-11.891Z" transform="translate(-5.615 -480.311)" fill="#989898"/>
      <path id="Trazado_715551" data-name="Trazado 715551" d="M62.444,527.267H22.32A11.871,11.871,0,0,0,11,535.717H51.12A11.871,11.871,0,0,1,62.444,527.267Z" transform="translate(-5.267 -480.311)" fill="#a8a8a8" opacity="0.5" style="mix-blend-mode: multiply;isolation: isolate"/>
      <path id="Trazado_715552" data-name="Trazado 715552" d="M54.85,557.1a11.481,11.481,0,0,1,1.231.127l-.1-.127Z" transform="translate(64.07 -433.148)" fill="#e0e0e0"/>
      <path id="Trazado_715553" data-name="Trazado 715553" d="M55.326,557.146l.1.126a12.043,12.043,0,0,1,10.841,11.945,3.338,3.338,0,0,0,3.335,3.332H89.268a3.336,3.336,0,0,0,3.335-3.332V557.064H55.267Z" transform="translate(64.729 -433.199)" fill="#989898"/>
      <g id="Grupo_1011362" data-name="Grupo 1011362" transform="translate(10.247)">
        <path id="Trazado_715554" data-name="Trazado 715554" d="M13.761,509.6V610.445a7.265,7.265,0,0,0,14.529,0V509.6ZM25.709,610.445a4.683,4.683,0,0,1-9.367,0V512.179h9.367Z" transform="translate(-11.144 -508.248)" fill="#e0e0e0"/>
        <g id="Grupo_1011361" data-name="Grupo 1011361" transform="translate(5.198 3.93)">
          <rect id="Rectángulo_347212" data-name="Rectángulo 347212" width="9.367" height="56.485" transform="translate(0)" fill="#e0e0e0" opacity="0.58"/>
          <path id="Trazado_715555" data-name="Trazado 715555" d="M14.761,532.481v41.783a4.683,4.683,0,0,0,9.367,0V532.481Z" transform="translate(-14.761 -475.997)" fill="#6cd5da" opacity="0.87"/>
        </g>
        <path id="Trazado_715556" data-name="Trazado 715556" d="M30.593,509.075H14.714a1.965,1.965,0,1,0,0,3.931H30.593a1.965,1.965,0,0,0,0-3.931Z" transform="translate(-12.747 -509.075)" fill="#e0e0e0"/>
        <rect id="Rectángulo_347213" data-name="Rectángulo 347213" width="14.529" height="2.251" transform="translate(2.618 3.93)" fill="#a8a8a8" opacity="0.5" style="mix-blend-mode: multiply;isolation: isolate"/>
        <path id="Trazado_715557" data-name="Trazado 715557" d="M17.905,569.2h0a1.446,1.446,0,0,1-1.448-1.443V519.887a1.447,1.447,0,0,1,1.448-1.448h0a1.447,1.447,0,0,1,1.445,1.448v47.872A1.446,1.446,0,0,1,17.905,569.2Z" transform="translate(-6.881 -494.269)" fill="#fff" opacity="0.37" style="mix-blend-mode: overlay;isolation: isolate"/>
        <rect id="Rectángulo_347214" data-name="Rectángulo 347214" width="14.529" height="8.449" transform="translate(2.618 46.957)" fill="#a8a8a8" opacity="0.5" style="mix-blend-mode: multiply;isolation: isolate"/>
      </g>
      <g id="Grupo_1011364" data-name="Grupo 1011364" transform="translate(37.026)">
        <path id="Trazado_715558" data-name="Trazado 715558" d="M24.136,509.6V610.445a7.265,7.265,0,0,0,14.529,0V509.6ZM36.084,610.445a4.683,4.683,0,0,1-9.367,0V512.179h9.367Z" transform="translate(-21.519 -508.248)" fill="#e0e0e0"/>
        <g id="Grupo_1011363" data-name="Grupo 1011363" transform="translate(5.198 3.93)">
          <rect id="Rectángulo_347215" data-name="Rectángulo 347215" width="9.367" height="56.485" transform="translate(0)" fill="#e0e0e0" opacity="0.58"/>
          <path id="Trazado_715559" data-name="Trazado 715559" d="M25.136,532.481v41.783a4.683,4.683,0,0,0,9.367,0V532.481Z" transform="translate(-25.136 -475.997)" fill="#0ab9c1" opacity="0.87"/>
        </g>
        <path id="Trazado_715560" data-name="Trazado 715560" d="M40.968,509.075H25.089a1.965,1.965,0,1,0,0,3.931H40.968a1.965,1.965,0,0,0,0-3.931Z" transform="translate(-23.122 -509.075)" fill="#e0e0e0"/>
        <rect id="Rectángulo_347216" data-name="Rectángulo 347216" width="14.529" height="2.251" transform="translate(2.618 3.93)" fill="#a8a8a8" opacity="0.5" style="mix-blend-mode: multiply;isolation: isolate"/>
        <path id="Trazado_715561" data-name="Trazado 715561" d="M28.28,569.2h0a1.446,1.446,0,0,1-1.448-1.443V519.887a1.447,1.447,0,0,1,1.448-1.448h0a1.447,1.447,0,0,1,1.445,1.448v47.872A1.446,1.446,0,0,1,28.28,569.2Z" transform="translate(-17.256 -494.269)" fill="#fff" opacity="0.37" style="mix-blend-mode: overlay;isolation: isolate"/>
        <rect id="Rectángulo_347217" data-name="Rectángulo 347217" width="14.529" height="8.449" transform="translate(2.618 46.957)" fill="#a8a8a8" opacity="0.5" style="mix-blend-mode: multiply;isolation: isolate"/>
      </g>
      <g id="Grupo_1011366" data-name="Grupo 1011366" transform="translate(63.821)">
        <path id="Trazado_715562" data-name="Trazado 715562" d="M34.517,509.6V610.445a7.265,7.265,0,0,0,14.529,0V509.6ZM46.465,610.445a4.683,4.683,0,0,1-9.367,0V512.179h9.367Z" transform="translate(-31.9 -508.248)" fill="#e0e0e0"/>
        <g id="Grupo_1011365" data-name="Grupo 1011365" transform="translate(5.198 3.93)">
          <rect id="Rectángulo_347218" data-name="Rectángulo 347218" width="9.367" height="56.485" fill="#e0e0e0" opacity="0.58"/>
          <path id="Trazado_715563" data-name="Trazado 715563" d="M35.517,532.481v41.783a4.683,4.683,0,0,0,9.367,0V532.481Z" transform="translate(-35.517 -475.997)" fill="#b3211b" opacity="0.87"/>
        </g>
        <path id="Trazado_715564" data-name="Trazado 715564" d="M51.349,509.075H35.47a1.965,1.965,0,1,0,0,3.931H51.349a1.965,1.965,0,0,0,0-3.931Z" transform="translate(-33.503 -509.075)" fill="#e0e0e0"/>
        <rect id="Rectángulo_347219" data-name="Rectángulo 347219" width="14.529" height="2.251" transform="translate(2.617 3.93)" fill="#a8a8a8" opacity="0.5" style="mix-blend-mode: multiply;isolation: isolate"/>
        <path id="Trazado_715565" data-name="Trazado 715565" d="M38.659,569.2h0a1.444,1.444,0,0,1-1.445-1.443V519.887a1.445,1.445,0,0,1,1.445-1.448h0a1.445,1.445,0,0,1,1.443,1.448v47.872A1.444,1.444,0,0,1,38.659,569.2Z" transform="translate(-27.635 -494.269)" fill="#fff" opacity="0.37" style="mix-blend-mode: overlay;isolation: isolate"/>
        <rect id="Rectángulo_347220" data-name="Rectángulo 347220" width="14.529" height="8.449" transform="translate(2.617 46.957)" fill="#a8a8a8" opacity="0.5" style="mix-blend-mode: multiply;isolation: isolate"/>
      </g>
      <g id="Grupo_1011368" data-name="Grupo 1011368" transform="translate(90.6)">
        <path id="Trazado_715566" data-name="Trazado 715566" d="M44.892,509.6V610.445a7.265,7.265,0,0,0,14.529,0V509.6ZM56.84,610.445a4.683,4.683,0,0,1-9.367,0V512.179H56.84Z" transform="translate(-42.275 -508.248)" fill="#e0e0e0"/>
        <g id="Grupo_1011367" data-name="Grupo 1011367" transform="translate(5.198 3.93)">
          <rect id="Rectángulo_347221" data-name="Rectángulo 347221" width="9.367" height="56.485" fill="#e0e0e0" opacity="0.58"/>
          <path id="Trazado_715567" data-name="Trazado 715567" d="M45.892,532.481v41.783a4.683,4.683,0,0,0,9.367,0V532.481Z" transform="translate(-45.892 -475.997)" fill="#f28400" opacity="0.87"/>
        </g>
        <path id="Trazado_715568" data-name="Trazado 715568" d="M61.724,509.075H45.845a1.965,1.965,0,1,0,0,3.931H61.724a1.965,1.965,0,0,0,0-3.931Z" transform="translate(-43.878 -509.075)" fill="#e0e0e0"/>
        <rect id="Rectángulo_347222" data-name="Rectángulo 347222" width="14.529" height="2.251" transform="translate(2.617 3.93)" fill="#a8a8a8" opacity="0.5" style="mix-blend-mode: multiply;isolation: isolate"/>
        <path id="Trazado_715569" data-name="Trazado 715569" d="M49.034,569.2h0a1.444,1.444,0,0,1-1.445-1.443V519.887a1.445,1.445,0,0,1,1.445-1.448h0a1.445,1.445,0,0,1,1.443,1.448v47.872A1.444,1.444,0,0,1,49.034,569.2Z" transform="translate(-38.01 -494.269)" fill="#fff" opacity="0.37" style="mix-blend-mode: overlay;isolation: isolate"/>
        <rect id="Rectángulo_347223" data-name="Rectángulo 347223" width="14.529" height="8.449" transform="translate(2.617 46.957)" fill="#a8a8a8" opacity="0.5" style="mix-blend-mode: multiply;isolation: isolate"/>
      </g>
      <g id="Grupo_1011370" data-name="Grupo 1011370" transform="translate(117.273)">
        <path id="Trazado_715570" data-name="Trazado 715570" d="M55.225,509.6V610.445a7.266,7.266,0,0,0,14.532,0V509.6ZM67.176,610.445a4.685,4.685,0,0,1-9.369,0V512.179h9.369Z" transform="translate(-52.61 -508.248)" fill="#e0e0e0"/>
        <g id="Grupo_1011369" data-name="Grupo 1011369" transform="translate(5.196 3.93)">
          <rect id="Rectángulo_347224" data-name="Rectángulo 347224" width="9.367" height="56.485" fill="#e0e0e0" opacity="0.58"/>
          <path id="Trazado_715571" data-name="Trazado 715571" d="M56.225,532.481v41.783a4.683,4.683,0,0,0,9.367,0V532.481Z" transform="translate(-56.225 -475.997)" fill="#6cd5da" opacity="0.87"/>
        </g>
        <path id="Trazado_715572" data-name="Trazado 715572" d="M72.055,509.075H56.179a1.965,1.965,0,1,0,0,3.931H72.055a1.965,1.965,0,1,0,0-3.931Z" transform="translate(-54.212 -509.075)" fill="#e0e0e0"/>
        <rect id="Rectángulo_347225" data-name="Rectángulo 347225" width="14.531" height="2.251" transform="translate(2.614 3.93)" fill="#a8a8a8" opacity="0.5" style="mix-blend-mode: multiply;isolation: isolate"/>
        <path id="Trazado_715573" data-name="Trazado 715573" d="M59.367,569.2h0a1.446,1.446,0,0,1-1.445-1.443V519.887a1.447,1.447,0,0,1,1.445-1.448h0a1.445,1.445,0,0,1,1.443,1.448v47.872A1.444,1.444,0,0,1,59.367,569.2Z" transform="translate(-48.346 -494.269)" fill="#fff" opacity="0.37" style="mix-blend-mode: overlay;isolation: isolate"/>
        <rect id="Rectángulo_347226" data-name="Rectángulo 347226" width="14.531" height="8.449" transform="translate(2.614 46.957)" fill="#a8a8a8" opacity="0.5" style="mix-blend-mode: multiply;isolation: isolate"/>
      </g>
      <g id="Grupo_1011372" data-name="Grupo 1011372" transform="translate(144.052)">
        <path id="Trazado_715574" data-name="Trazado 715574" d="M65.6,509.6V610.445a7.266,7.266,0,0,0,14.532,0V509.6ZM77.551,610.445a4.685,4.685,0,0,1-9.369,0V512.179h9.369Z" transform="translate(-62.985 -508.248)" fill="#e0e0e0"/>
        <g id="Grupo_1011371" data-name="Grupo 1011371" transform="translate(5.196 3.93)">
          <rect id="Rectángulo_347227" data-name="Rectángulo 347227" width="9.367" height="56.485" fill="#e0e0e0" opacity="0.58"/>
          <path id="Trazado_715575" data-name="Trazado 715575" d="M66.6,532.481v41.783a4.683,4.683,0,0,0,9.367,0V532.481Z" transform="translate(-66.6 -475.997)" fill="#fdb34d" opacity="0.87"/>
        </g>
        <path id="Trazado_715576" data-name="Trazado 715576" d="M82.43,509.075H66.554a1.965,1.965,0,1,0,0,3.931H82.43a1.965,1.965,0,1,0,0-3.931Z" transform="translate(-64.587 -509.075)" fill="#e0e0e0"/>
        <rect id="Rectángulo_347228" data-name="Rectángulo 347228" width="14.531" height="2.251" transform="translate(2.614 3.93)" fill="#a8a8a8" opacity="0.5" style="mix-blend-mode: multiply;isolation: isolate"/>
        <path id="Trazado_715577" data-name="Trazado 715577" d="M69.742,569.2h0a1.446,1.446,0,0,1-1.445-1.443V519.887a1.447,1.447,0,0,1,1.445-1.448h0a1.445,1.445,0,0,1,1.443,1.448v47.872A1.444,1.444,0,0,1,69.742,569.2Z" transform="translate(-58.721 -494.269)" fill="#fff" opacity="0.37" style="mix-blend-mode: overlay;isolation: isolate"/>
        <rect id="Rectángulo_347229" data-name="Rectángulo 347229" width="14.531" height="8.449" transform="translate(2.614 46.957)" fill="#a8a8a8" opacity="0.5" style="mix-blend-mode: multiply;isolation: isolate"/>
      </g>
      <g id="Grupo_1011374" data-name="Grupo 1011374" transform="translate(168.294)">
        <path id="Trazado_715578" data-name="Trazado 715578" d="M74.992,509.6V610.445a7.265,7.265,0,0,0,14.529,0V509.6ZM86.94,610.445a4.683,4.683,0,0,1-9.367,0V512.179H86.94Z" transform="translate(-72.377 -508.248)" fill="#e0e0e0"/>
        <g id="Grupo_1011373" data-name="Grupo 1011373" transform="translate(5.195 3.93)">
          <rect id="Rectángulo_347230" data-name="Rectángulo 347230" width="9.369" height="56.485" fill="#e0e0e0" opacity="0.58"/>
          <path id="Trazado_715579" data-name="Trazado 715579" d="M75.992,532.481v41.783a4.683,4.683,0,0,0,9.367,0V532.481Z" transform="translate(-75.991 -475.997)" fill="#6cd5da" opacity="0.87"/>
        </g>
        <path id="Trazado_715580" data-name="Trazado 715580" d="M91.822,509.075H75.946a1.965,1.965,0,1,0,0,3.931H91.822a1.965,1.965,0,1,0,0-3.931Z" transform="translate(-73.979 -509.075)" fill="#e0e0e0"/>
        <rect id="Rectángulo_347231" data-name="Rectángulo 347231" width="14.531" height="2.251" transform="translate(2.614 3.93)" fill="#a8a8a8" opacity="0.5" style="mix-blend-mode: multiply;isolation: isolate"/>
        <path id="Trazado_715581" data-name="Trazado 715581" d="M79.132,569.2h0a1.445,1.445,0,0,1-1.443-1.443V519.887a1.446,1.446,0,0,1,1.443-1.448h0a1.447,1.447,0,0,1,1.448,1.448v47.872A1.446,1.446,0,0,1,79.132,569.2Z" transform="translate(-68.113 -494.269)" fill="#fff" opacity="0.37" style="mix-blend-mode: overlay;isolation: isolate"/>
        <rect id="Rectángulo_347232" data-name="Rectángulo 347232" width="14.531" height="8.449" transform="translate(2.614 46.957)" fill="#a8a8a8" opacity="0.5" style="mix-blend-mode: multiply;isolation: isolate"/>
      </g>
      <path id="Trazado_715582" data-name="Trazado 715582" d="M171.271,619.493V542.32a17.055,17.055,0,0,0-17.056-17.053H25.83A17.057,17.057,0,0,0,8.777,542.32v77.173a8.5,8.5,0,0,0,8.5,8.494H36.945a8.6,8.6,0,0,0,1.722-.173,8.5,8.5,0,0,0,6.775-8.322,6.91,6.91,0,0,1,6.91-6.91H127.7a6.911,6.911,0,0,1,6.91,6.91,8.5,8.5,0,0,0,8.5,8.494h19.671a8.13,8.13,0,0,0,1.205-.121A8.468,8.468,0,0,0,171.271,619.493Zm-78.8-12.072H52.351a11.9,11.9,0,0,0-3.448.563,12.05,12.05,0,0,0-8.623,11.509,3.336,3.336,0,0,1-3.335,3.332H17.274a3.338,3.338,0,0,1-3.335-3.332V542.32A11.906,11.906,0,0,1,25.83,530.429H154.215a11.906,11.906,0,0,1,11.894,11.891v77.173a3.336,3.336,0,0,1-3.335,3.332H143.1a3.338,3.338,0,0,1-3.335-3.332,12.042,12.042,0,0,0-10.841-11.945,11.481,11.481,0,0,0-1.231-.127Z" transform="translate(-8.777 -483.474)" fill="#b9b9b9"/>
      <path id="Trazado_715583" data-name="Trazado 715583" d="M105.25,525.267H65.124A17.055,17.055,0,0,1,82.18,542.32v77.173a8.468,8.468,0,0,1-7.292,8.373l-.021.031H93.222a8.216,8.216,0,0,0,.916.09h19.671a8.495,8.495,0,0,0,8.494-8.494V542.32A17.055,17.055,0,0,0,105.25,525.267Z" transform="translate(80.314 -483.474)" fill="#e0e0e0"/>
      <path id="Trazado_715584" data-name="Trazado 715584" d="M20.39,570.094l-.054.082H38.208a8.216,8.216,0,0,0,.916.091H58.795a8.495,8.495,0,0,0,8.494-8.494H27.166A8.5,8.5,0,0,1,20.39,570.094Z" transform="translate(9.499 -425.754)" fill="#e0e0e0"/>
      <path id="Trazado_715585" data-name="Trazado 715585" d="M70.015,559.1H29.892a6.91,6.91,0,0,0-6.91,6.91H63.105A6.911,6.911,0,0,1,70.015,559.1Z" transform="translate(13.683 -429.986)" fill="#e0e0e0"/>
      <path id="Trazado_715586" data-name="Trazado 715586" d="M70.015,559.1H29.892a6.91,6.91,0,0,0-6.91,6.91H63.105A6.911,6.911,0,0,1,70.015,559.1Z" transform="translate(13.683 -429.986)" fill="#a8a8a8" opacity="0.26" style="mix-blend-mode: multiply;isolation: isolate"/>
    </g>
    <g id="Grupo_1011417" data-name="Grupo 1011417" transform="translate(923.808 5892.24)">
      <g id="Grupo_1011386" data-name="Grupo 1011386" transform="translate(181.192 64.534)">
        <path id="Trazado_715587" data-name="Trazado 715587" d="M-4.957,518.458V473.229H-27.268v45.229a45.951,45.951,0,0,0-34.82,44.555,45.975,45.975,0,0,0,45.976,45.976,45.975,45.975,0,0,0,45.976-45.976A45.951,45.951,0,0,0-4.957,518.458ZM-57.77,563.013a41.555,41.555,0,0,1,31.549-40.367l3.271-.816V477.547H-9.275V521.83l3.271.816a41.555,41.555,0,0,1,31.549,40.367A41.706,41.706,0,0,1-16.112,604.67,41.706,41.706,0,0,1-57.77,563.013Z" transform="translate(62.088 -470.36)" fill="#e0e0e0"/>
        <g id="Grupo_1011376" data-name="Grupo 1011376" transform="translate(4.318 7.187)">
          <path id="Trazado_715588" data-name="Trazado 715588" d="M-10.465,520.328l-3.271-.816V475.229H-27.411v44.283l-3.271.816a41.546,41.546,0,0,0-27.557,22.618H17.09A41.548,41.548,0,0,0-10.465,520.328Z" transform="translate(62.231 -475.229)" fill="#e0e0e0" opacity="0.58"/>
          <path id="Trazado_715589" data-name="Trazado 715589" d="M-56.1,506.594a41.523,41.523,0,0,0-3.992,17.749A41.706,41.706,0,0,0-18.43,566a41.706,41.706,0,0,0,41.658-41.658,41.493,41.493,0,0,0-3.994-17.749Z" transform="translate(60.088 -438.877)" fill="#f28400" opacity="0.87"/>
        </g>
        <path id="Trazado_715590" data-name="Trazado 715590" d="M-19.174,479.055H-44.81a3.578,3.578,0,0,1-3.577-3.577h0A3.578,3.578,0,0,1-44.81,471.9h25.636a3.576,3.576,0,0,1,3.575,3.578h0A3.576,3.576,0,0,1-19.174,479.055Z" transform="translate(77.967 -471.9)" fill="#e0e0e0"/>
        <path id="Trazado_715591" data-name="Trazado 715591" d="M-4.717,521.728a18.666,18.666,0,0,1-18.667,18.664,18.666,18.666,0,0,1-18.664-18.664,18.666,18.666,0,0,1,18.664-18.667A18.667,18.667,0,0,1-4.717,521.728Z" transform="translate(85.314 -435.785)" fill="#fff" opacity="0.37" style="mix-blend-mode: overlay;isolation: isolate"/>
        <rect id="Rectángulo_347233" data-name="Rectángulo 347233" width="22.27" height="9.443" transform="translate(34.861 7.154)" fill="#a8a8a8" opacity="0.5" style="mix-blend-mode: multiply;isolation: isolate"/>
        <g id="Grupo_1011385" data-name="Grupo 1011385" transform="translate(25.744 59.051)">
          <g id="Grupo_1011377" data-name="Grupo 1011377" transform="translate(0 55.695)">
            <rect id="Rectángulo_347234" data-name="Rectángulo 347234" width="3.938" height="1.079" transform="translate(5.51 4.936)" fill="#e0e0e0"/>
            <rect id="Rectángulo_347235" data-name="Rectángulo 347235" width="9.449" height="1.079" transform="translate(0 0.652)" fill="#e0e0e0"/>
            <path id="Trazado_715592" data-name="Trazado 715592" d="M-42.653,528.223a1.192,1.192,0,0,1-1.192,1.194,1.192,1.192,0,0,1-1.192-1.194,1.191,1.191,0,0,1,1.192-1.19A1.191,1.191,0,0,1-42.653,528.223Z" transform="translate(56.106 -522.747)" fill="#e0e0e0"/>
            <path id="Trazado_715593" data-name="Trazado 715593" d="M-42.653,526.24a1.191,1.191,0,0,1-1.192,1.192,1.191,1.191,0,0,1-1.192-1.192,1.191,1.191,0,0,1,1.192-1.192A1.191,1.191,0,0,1-42.653,526.24Z" transform="translate(56.106 -525.048)" fill="#e0e0e0"/>
          </g>
          <g id="Grupo_1011378" data-name="Grupo 1011378" transform="translate(0 47.126)">
            <rect id="Rectángulo_347236" data-name="Rectángulo 347236" width="3.938" height="1.079" transform="translate(5.51 4.938)" fill="#e0e0e0"/>
            <rect id="Rectángulo_347237" data-name="Rectángulo 347237" width="9.449" height="1.079" transform="translate(0 0.653)" fill="#e0e0e0"/>
            <path id="Trazado_715594" data-name="Trazado 715594" d="M-42.653,524.256a1.191,1.191,0,0,1-1.192,1.192,1.191,1.191,0,0,1-1.192-1.192,1.191,1.191,0,0,1,1.192-1.192A1.191,1.191,0,0,1-42.653,524.256Z" transform="translate(56.106 -518.778)" fill="#e0e0e0"/>
            <path id="Trazado_715595" data-name="Trazado 715595" d="M-42.653,522.271a1.191,1.191,0,0,1-1.192,1.192,1.191,1.191,0,0,1-1.192-1.192,1.193,1.193,0,0,1,1.192-1.192A1.193,1.193,0,0,1-42.653,522.271Z" transform="translate(56.106 -521.079)" fill="#e0e0e0"/>
          </g>
          <g id="Grupo_1011379" data-name="Grupo 1011379" transform="translate(0 38.56)">
            <rect id="Rectángulo_347238" data-name="Rectángulo 347238" width="3.938" height="1.079" transform="translate(5.51 4.935)" fill="#e0e0e0"/>
            <rect id="Rectángulo_347239" data-name="Rectángulo 347239" width="9.449" height="1.079" transform="translate(0 0.651)" fill="#e0e0e0"/>
            <path id="Trazado_715596" data-name="Trazado 715596" d="M-42.653,520.287a1.191,1.191,0,0,1-1.192,1.192,1.191,1.191,0,0,1-1.192-1.192,1.191,1.191,0,0,1,1.192-1.192A1.191,1.191,0,0,1-42.653,520.287Z" transform="translate(56.106 -514.812)" fill="#e0e0e0"/>
            <path id="Trazado_715597" data-name="Trazado 715597" d="M-42.653,518.3a1.192,1.192,0,0,1-1.192,1.194,1.192,1.192,0,0,1-1.192-1.194,1.191,1.191,0,0,1,1.192-1.189A1.191,1.191,0,0,1-42.653,518.3Z" transform="translate(56.106 -517.111)" fill="#e0e0e0"/>
          </g>
          <g id="Grupo_1011380" data-name="Grupo 1011380" transform="translate(0 29.991)">
            <rect id="Rectángulo_347240" data-name="Rectángulo 347240" width="3.938" height="1.079" transform="translate(5.51 4.937)" fill="#e0e0e0"/>
            <rect id="Rectángulo_347241" data-name="Rectángulo 347241" width="9.449" height="1.079" transform="translate(0 0.651)" fill="#e0e0e0"/>
            <path id="Trazado_715598" data-name="Trazado 715598" d="M-42.653,516.32a1.191,1.191,0,0,1-1.192,1.189,1.191,1.191,0,0,1-1.192-1.189,1.192,1.192,0,0,1,1.192-1.194A1.192,1.192,0,0,1-42.653,516.32Z" transform="translate(56.106 -510.843)" fill="#e0e0e0"/>
            <path id="Trazado_715599" data-name="Trazado 715599" d="M-42.653,514.334a1.191,1.191,0,0,1-1.192,1.192,1.191,1.191,0,0,1-1.192-1.192,1.191,1.191,0,0,1,1.192-1.192A1.191,1.191,0,0,1-42.653,514.334Z" transform="translate(56.106 -513.142)" fill="#e0e0e0"/>
          </g>
          <g id="Grupo_1011381" data-name="Grupo 1011381" transform="translate(0 21.421)">
            <rect id="Rectángulo_347242" data-name="Rectángulo 347242" width="3.938" height="1.079" transform="translate(5.51 4.936)" fill="#e0e0e0"/>
            <rect id="Rectángulo_347243" data-name="Rectángulo 347243" width="9.449" height="1.079" transform="translate(0 0.652)" fill="#e0e0e0"/>
            <path id="Trazado_715600" data-name="Trazado 715600" d="M-42.653,512.348a1.192,1.192,0,0,1-1.192,1.194,1.192,1.192,0,0,1-1.192-1.194,1.191,1.191,0,0,1,1.192-1.19A1.191,1.191,0,0,1-42.653,512.348Z" transform="translate(56.106 -506.872)" fill="#e0e0e0"/>
            <path id="Trazado_715601" data-name="Trazado 715601" d="M-42.653,510.365a1.191,1.191,0,0,1-1.192,1.192,1.191,1.191,0,0,1-1.192-1.192,1.191,1.191,0,0,1,1.192-1.192A1.191,1.191,0,0,1-42.653,510.365Z" transform="translate(56.106 -509.173)" fill="#e0e0e0"/>
          </g>
          <g id="Grupo_1011382" data-name="Grupo 1011382" transform="translate(0 12.852)">
            <rect id="Rectángulo_347244" data-name="Rectángulo 347244" width="3.938" height="1.079" transform="translate(5.51 4.938)" fill="#e0e0e0"/>
            <rect id="Rectángulo_347245" data-name="Rectángulo 347245" width="9.449" height="1.079" transform="translate(0 0.652)" fill="#e0e0e0"/>
            <path id="Trazado_715602" data-name="Trazado 715602" d="M-42.653,508.381a1.191,1.191,0,0,1-1.192,1.192,1.191,1.191,0,0,1-1.192-1.192,1.191,1.191,0,0,1,1.192-1.192A1.191,1.191,0,0,1-42.653,508.381Z" transform="translate(56.106 -502.903)" fill="#e0e0e0"/>
            <path id="Trazado_715603" data-name="Trazado 715603" d="M-42.653,506.4a1.191,1.191,0,0,1-1.192,1.192,1.191,1.191,0,0,1-1.192-1.192,1.193,1.193,0,0,1,1.192-1.192A1.193,1.193,0,0,1-42.653,506.4Z" transform="translate(56.106 -505.204)" fill="#e0e0e0"/>
          </g>
          <g id="Grupo_1011383" data-name="Grupo 1011383" transform="translate(0 4.286)">
            <rect id="Rectángulo_347246" data-name="Rectángulo 347246" width="3.938" height="1.079" transform="translate(5.51 4.935)" fill="#e0e0e0"/>
            <rect id="Rectángulo_347247" data-name="Rectángulo 347247" width="9.449" height="1.079" transform="translate(0 0.651)" fill="#e0e0e0"/>
            <path id="Trazado_715604" data-name="Trazado 715604" d="M-42.653,504.412a1.191,1.191,0,0,1-1.192,1.192,1.191,1.191,0,0,1-1.192-1.192,1.191,1.191,0,0,1,1.192-1.192A1.191,1.191,0,0,1-42.653,504.412Z" transform="translate(56.106 -498.937)" fill="#e0e0e0"/>
            <path id="Trazado_715605" data-name="Trazado 715605" d="M-42.653,502.426a1.192,1.192,0,0,1-1.192,1.194,1.192,1.192,0,0,1-1.192-1.194,1.191,1.191,0,0,1,1.192-1.19A1.191,1.191,0,0,1-42.653,502.426Z" transform="translate(56.106 -501.236)" fill="#e0e0e0"/>
          </g>
          <g id="Grupo_1011384" data-name="Grupo 1011384" transform="translate(5.51)">
            <rect id="Rectángulo_347248" data-name="Rectángulo 347248" width="3.938" height="1.079" transform="translate(0 0.653)" fill="#e0e0e0"/>
            <path id="Trazado_715606" data-name="Trazado 715606" d="M-42.653,500.445a1.191,1.191,0,0,1-1.192,1.19,1.191,1.191,0,0,1-1.192-1.19,1.192,1.192,0,0,1,1.192-1.194A1.192,1.192,0,0,1-42.653,500.445Z" transform="translate(50.596 -499.251)" fill="#e0e0e0"/>
          </g>
        </g>
      </g>
      <g id="Grupo_1011399" data-name="Grupo 1011399" transform="translate(0 172.923)">
        <g id="Grupo_1011389" data-name="Grupo 1011389" transform="translate(24.889 21.253)">
          <rect id="Rectángulo_347249" data-name="Rectángulo 347249" width="4.805" height="4.47" transform="translate(8.871)" fill="#d3d3d3"/>
          <g id="Grupo_1011387" data-name="Grupo 1011387">
            <rect id="Rectángulo_347250" data-name="Rectángulo 347250" width="8.871" height="4.47" fill="#a8a8a8"/>
          </g>
          <g id="Grupo_1011388" data-name="Grupo 1011388" transform="translate(2.31 4.47)">
            <rect id="Rectángulo_347251" data-name="Rectángulo 347251" width="3.419" height="2.095" transform="translate(2.773)" fill="#979797"/>
            <path id="Trazado_715607" data-name="Trazado 715607" d="M-72.353,569.1h-8.964l2.773-4.22h3.419Z" transform="translate(81.317 -562.784)" fill="#c9c9c9"/>
            <rect id="Rectángulo_347252" data-name="Rectángulo 347252" width="3.419" height="1.078" transform="translate(2.773)" fill="#a8a8a8" opacity="0.5" style="mix-blend-mode: multiply;isolation: isolate"/>
          </g>
        </g>
        <g id="Grupo_1011392" data-name="Grupo 1011392" transform="translate(187.606 21.253)">
          <rect id="Rectángulo_347253" data-name="Rectángulo 347253" width="4.806" height="4.47" transform="translate(8.871)" fill="#d3d3d3"/>
          <g id="Grupo_1011390" data-name="Grupo 1011390" transform="translate(0)">
            <rect id="Rectángulo_347254" data-name="Rectángulo 347254" width="8.871" height="4.47" fill="#a8a8a8"/>
          </g>
          <g id="Grupo_1011391" data-name="Grupo 1011391" transform="translate(2.311 4.47)">
            <rect id="Rectángulo_347255" data-name="Rectángulo 347255" width="3.419" height="2.095" transform="translate(2.773)" fill="#979797"/>
            <path id="Trazado_715608" data-name="Trazado 715608" d="M3.014,569.1H-5.95l2.773-4.22H.242Z" transform="translate(5.95 -562.784)" fill="#c9c9c9"/>
            <rect id="Rectángulo_347256" data-name="Rectángulo 347256" width="3.419" height="1.078" transform="translate(2.773)" fill="#a8a8a8" opacity="0.5" style="mix-blend-mode: multiply;isolation: isolate"/>
          </g>
        </g>
        <rect id="Rectángulo_347257" data-name="Rectángulo 347257" width="171.594" height="21.253" fill="#a8a8a8"/>
        <g id="Grupo_1011395" data-name="Grupo 1011395" transform="translate(0 21.253)">
          <rect id="Rectángulo_347258" data-name="Rectángulo 347258" width="4.806" height="4.47" transform="translate(8.871)" fill="#d3d3d3"/>
          <g id="Grupo_1011393" data-name="Grupo 1011393">
            <rect id="Rectángulo_347259" data-name="Rectángulo 347259" width="8.871" height="4.47" fill="#a8a8a8"/>
          </g>
          <g id="Grupo_1011394" data-name="Grupo 1011394" transform="translate(2.311 4.47)">
            <rect id="Rectángulo_347260" data-name="Rectángulo 347260" width="3.42" height="2.095" transform="translate(2.771)" fill="#979797"/>
            <path id="Trazado_715609" data-name="Trazado 715609" d="M-83.881,569.1h-8.964l2.771-4.22h3.42Z" transform="translate(92.845 -562.784)" fill="#c9c9c9"/>
            <rect id="Rectángulo_347261" data-name="Rectángulo 347261" width="3.42" height="1.078" transform="translate(2.771)" fill="#a8a8a8" opacity="0.5" style="mix-blend-mode: multiply;isolation: isolate"/>
          </g>
        </g>
        <g id="Grupo_1011398" data-name="Grupo 1011398" transform="translate(162.718 21.253)">
          <rect id="Rectángulo_347262" data-name="Rectángulo 347262" width="4.805" height="4.47" transform="translate(8.871)" fill="#d3d3d3"/>
          <g id="Grupo_1011396" data-name="Grupo 1011396" transform="translate(0)">
            <rect id="Rectángulo_347263" data-name="Rectángulo 347263" width="8.871" height="4.47" fill="#a8a8a8"/>
          </g>
          <g id="Grupo_1011397" data-name="Grupo 1011397" transform="translate(2.31 4.47)">
            <rect id="Rectángulo_347264" data-name="Rectángulo 347264" width="3.42" height="2.095" transform="translate(2.772)" fill="#979797"/>
            <path id="Trazado_715610" data-name="Trazado 715610" d="M-8.514,569.1h-8.964l2.772-4.22h3.42Z" transform="translate(17.478 -562.784)" fill="#c9c9c9"/>
            <rect id="Rectángulo_347265" data-name="Rectángulo 347265" width="3.42" height="1.078" transform="translate(2.772)" fill="#a8a8a8" opacity="0.5" style="mix-blend-mode: multiply;isolation: isolate"/>
          </g>
        </g>
        <rect id="Rectángulo_347266" data-name="Rectángulo 347266" width="29.689" height="21.253" transform="translate(171.594)" fill="#d3d3d3"/>
        <rect id="Rectángulo_347267" data-name="Rectángulo 347267" width="13.676" height="2.985" transform="translate(24.889 21.253)" fill="#a8a8a8" opacity="0.5" style="mix-blend-mode: multiply;isolation: isolate"/>
        <rect id="Rectángulo_347268" data-name="Rectángulo 347268" width="13.631" height="2.985" transform="translate(187.606 21.253)" fill="#a8a8a8" opacity="0.5" style="mix-blend-mode: multiply;isolation: isolate"/>
      </g>
      <path id="Trazado_715611" data-name="Trazado 715611" d="M91.937,539.167H-79.657l-14.258,27.695H77.679Z" transform="translate(93.915 -393.939)" fill="#0ab9c1"/>
      <path id="Trazado_715612" data-name="Trazado 715612" d="M15.253,566.862V539.167H-.178l-14.258,27.695Z" transform="translate(186.031 -393.939)" fill="#d3d3d3"/>
      <rect id="Rectángulo_347269" data-name="Rectángulo 347269" width="171.594" height="4.139" transform="translate(14.258 141.089)" fill="#a8a8a8"/>
      <rect id="Rectángulo_347270" data-name="Rectángulo 347270" width="126.634" height="7.241" transform="translate(36.738 133.848)" fill="#7e7e7e"/>
      <rect id="Rectángulo_347271" data-name="Rectángulo 347271" width="31.05" height="7.241" transform="translate(163.371 133.848)" fill="#989898"/>
      <rect id="Rectángulo_347272" data-name="Rectángulo 347272" width="15.385" height="4.139" transform="translate(185.852 141.089)" fill="#d3d3d3"/>
      <path id="Trazado_715613" data-name="Trazado 715613" d="M15.114,555.905H-8.708v-3.238H15.114a1.618,1.618,0,0,1,1.619,1.619h0A1.62,1.62,0,0,1,15.114,555.905Z" transform="translate(192.67 -378.292)" fill="#a4a4a4"/>
      <path id="Trazado_715614" data-name="Trazado 715614" d="M-2.621,555.905h-9.592v-3.238h9.592A1.617,1.617,0,0,1-1,554.286h0A1.618,1.618,0,0,1-2.621,555.905Z" transform="translate(188.607 -378.292)" fill="#707070"/>
      <path id="Trazado_715615" data-name="Trazado 715615" d="M74.308,526.167H-70.422L-76.9,542.854H80.785Z" transform="translate(113.637 -409.005)" fill="#b2b2b2"/>
      <path id="Trazado_715616" data-name="Trazado 715616" d="M-18.245,542.854l4.429-16.687H6.328l6.477,16.687Z" transform="translate(181.616 -409.005)" fill="#c1c1c1"/>
      <g id="Grupo_1011400" data-name="Grupo 1011400" transform="translate(197.995 159.074)">
        <path id="Trazado_715617" data-name="Trazado 715617" d="M-1.786,545.58c-.086,0-.145.063-.22.093a.617.617,0,0,1,.436.566v8.049a.621.621,0,0,1-.436.566c.076.03.134.091.22.091a.657.657,0,0,0,.656-.656v-8.049A.659.659,0,0,0-1.786,545.58Z" transform="translate(2.442 -545.58)" fill="#707070"/>
        <path id="Trazado_715618" data-name="Trazado 715618" d="M-1.336,554.237v-8.049a.617.617,0,0,0-.436-.566.617.617,0,0,0-.436.566v8.049a.621.621,0,0,0,.436.566A.621.621,0,0,0-1.336,554.237Z" transform="translate(2.208 -545.53)" fill="#383838"/>
      </g>
      <g id="Grupo_1011401" data-name="Grupo 1011401" transform="translate(195.566 159.074)">
        <path id="Trazado_715619" data-name="Trazado 715619" d="M-2.911,545.58c-.086,0-.145.063-.22.093a.617.617,0,0,1,.436.566v8.049a.621.621,0,0,1-.436.566c.076.03.134.091.22.091a.657.657,0,0,0,.656-.656v-8.049A.659.659,0,0,0-2.911,545.58Z" transform="translate(3.567 -545.58)" fill="#707070"/>
        <path id="Trazado_715620" data-name="Trazado 715620" d="M-2.461,554.237v-8.049a.617.617,0,0,0-.436-.566.617.617,0,0,0-.436.566v8.049a.621.621,0,0,0,.436.566A.621.621,0,0,0-2.461,554.237Z" transform="translate(3.333 -545.53)" fill="#383838"/>
      </g>
      <g id="Grupo_1011402" data-name="Grupo 1011402" transform="translate(193.137 159.074)">
        <path id="Trazado_715621" data-name="Trazado 715621" d="M-4.036,545.58c-.086,0-.145.063-.22.093a.617.617,0,0,1,.436.566v8.049a.621.621,0,0,1-.436.566c.076.03.134.091.22.091a.657.657,0,0,0,.656-.656v-8.049A.659.659,0,0,0-4.036,545.58Z" transform="translate(4.692 -545.58)" fill="#707070"/>
        <path id="Trazado_715622" data-name="Trazado 715622" d="M-3.586,554.237v-8.049a.617.617,0,0,0-.436-.566.617.617,0,0,0-.436.566v8.049a.621.621,0,0,0,.436.566A.621.621,0,0,0-3.586,554.237Z" transform="translate(4.458 -545.53)" fill="#383838"/>
      </g>
      <g id="Grupo_1011403" data-name="Grupo 1011403" transform="translate(190.708 159.074)">
        <path id="Trazado_715623" data-name="Trazado 715623" d="M-5.161,545.58c-.086,0-.145.063-.22.093a.617.617,0,0,1,.436.566v8.049a.621.621,0,0,1-.436.566c.076.03.134.091.22.091a.657.657,0,0,0,.656-.656v-8.049A.659.659,0,0,0-5.161,545.58Z" transform="translate(5.817 -545.58)" fill="#707070"/>
        <path id="Trazado_715624" data-name="Trazado 715624" d="M-4.711,554.237v-8.049a.617.617,0,0,0-.436-.566.617.617,0,0,0-.436.566v8.049a.621.621,0,0,0,.436.566A.621.621,0,0,0-4.711,554.237Z" transform="translate(5.583 -545.53)" fill="#383838"/>
      </g>
      <g id="Grupo_1011404" data-name="Grupo 1011404" transform="translate(188.28 159.074)">
        <path id="Trazado_715625" data-name="Trazado 715625" d="M-6.286,545.58c-.086,0-.145.063-.22.093a.617.617,0,0,1,.436.566v8.049a.621.621,0,0,1-.436.566c.076.03.134.091.22.091a.657.657,0,0,0,.656-.656v-8.049A.659.659,0,0,0-6.286,545.58Z" transform="translate(6.942 -545.58)" fill="#707070"/>
        <path id="Trazado_715626" data-name="Trazado 715626" d="M-5.836,554.237v-8.049a.617.617,0,0,0-.436-.566.617.617,0,0,0-.436.566v8.049a.621.621,0,0,0,.436.566A.621.621,0,0,0-5.836,554.237Z" transform="translate(6.708 -545.53)" fill="#383838"/>
      </g>
      <g id="Grupo_1011405" data-name="Grupo 1011405" transform="translate(185.851 159.074)">
        <path id="Trazado_715627" data-name="Trazado 715627" d="M-7.411,545.58c-.086,0-.145.063-.22.093a.617.617,0,0,1,.436.566v8.049a.621.621,0,0,1-.436.566c.076.03.134.091.22.091a.657.657,0,0,0,.656-.656v-8.049A.659.659,0,0,0-7.411,545.58Z" transform="translate(8.067 -545.58)" fill="#707070"/>
        <path id="Trazado_715628" data-name="Trazado 715628" d="M-6.961,554.237v-8.049a.617.617,0,0,0-.436-.566.617.617,0,0,0-.436.566v8.049a.621.621,0,0,0,.436.566A.621.621,0,0,0-6.961,554.237Z" transform="translate(7.833 -545.53)" fill="#383838"/>
      </g>
      <g id="Grupo_1011406" data-name="Grupo 1011406" transform="translate(183.422 159.074)">
        <path id="Trazado_715629" data-name="Trazado 715629" d="M-8.536,545.58c-.086,0-.145.063-.22.093a.617.617,0,0,1,.436.566v8.049a.621.621,0,0,1-.436.566c.076.03.134.091.22.091a.657.657,0,0,0,.656-.656v-8.049A.659.659,0,0,0-8.536,545.58Z" transform="translate(9.192 -545.58)" fill="#707070"/>
        <path id="Trazado_715630" data-name="Trazado 715630" d="M-8.086,554.237v-8.049a.617.617,0,0,0-.436-.566.617.617,0,0,0-.436.566v8.049a.621.621,0,0,0,.436.566A.621.621,0,0,0-8.086,554.237Z" transform="translate(8.958 -545.53)" fill="#383838"/>
      </g>
      <g id="Grupo_1011407" data-name="Grupo 1011407" transform="translate(180.993 159.074)">
        <path id="Trazado_715631" data-name="Trazado 715631" d="M-9.661,545.58c-.086,0-.145.063-.22.093a.617.617,0,0,1,.436.566v8.049a.621.621,0,0,1-.436.566c.076.03.134.091.22.091A.657.657,0,0,0-9,554.287v-8.049A.659.659,0,0,0-9.661,545.58Z" transform="translate(10.317 -545.58)" fill="#707070"/>
        <path id="Trazado_715632" data-name="Trazado 715632" d="M-9.211,554.237v-8.049a.617.617,0,0,0-.436-.566.617.617,0,0,0-.436.566v8.049a.621.621,0,0,0,.436.566A.621.621,0,0,0-9.211,554.237Z" transform="translate(10.083 -545.53)" fill="#383838"/>
      </g>
      <path id="Trazado_715633" data-name="Trazado 715633" d="M-44.072,544.55l-5.689-2.6h0a7.919,7.919,0,0,0-10.488,3.919,7.919,7.919,0,0,0,3.919,10.488l5.689,2.593a17.341,17.341,0,0,0,5.739.7c1.14-.076,1.641-.13,1.641-.13,1.464-.79,2.364-2.856,3.109-4.486A7.916,7.916,0,0,0-44.072,544.55Z" transform="translate(132.105 -391.536)" fill="#707070" opacity="0.5" style="mix-blend-mode: multiply;isolation: isolate"/>
      <g id="Grupo_1011409" data-name="Grupo 1011409" transform="translate(142.895 147.962)">
        <path id="Trazado_715634" data-name="Trazado 715634" d="M-25.39,562.843h-2.339l2.092-3.8.044-4.585,4.34-4.386,4.723-8.276,1.545-1.359Z" transform="translate(27.729 -540.433)" fill="#707070" opacity="0.5" style="mix-blend-mode: multiply;isolation: isolate"/>
        <g id="Grupo_1011408" data-name="Grupo 1011408" transform="translate(2.339)">
          <path id="Trazado_715635" data-name="Trazado 715635" d="M-26.646,562.843h12.313l10.406-22.41H-16.24l-10.406,20.172Z" transform="translate(26.646 -540.433)" fill="#484848"/>
          <rect id="Rectángulo_347273" data-name="Rectángulo 347273" width="12.313" height="2.238" transform="translate(0 20.172)" fill="#303030"/>
          <path id="Trazado_715636" data-name="Trazado 715636" d="M-20.943,562.843l10.406-20.214v-2.2l-10.406,20.172Z" transform="translate(33.256 -540.433)" fill="#606060"/>
          <path id="Trazado_715637" data-name="Trazado 715637" d="M-7.665,540.729l-3.913,8.231-4.273,4.543-9.941,4.812v-5.037l4.093-4.746,4.093-7.8Z" transform="translate(27.636 -540.089)" fill="#b3211b"/>
          <rect id="Rectángulo_347274" data-name="Rectángulo 347274" width="9.941" height="5.037" transform="translate(1.844 13.189)" fill="#65130f"/>
          <path id="Trazado_715638" data-name="Trazado 715638" d="M-13,542.663l-8.186,15.653v-5.037l4.092-4.746,4.093-7.8Z" transform="translate(32.972 -540.089)" fill="#f23333"/>
          <path id="Trazado_715639" data-name="Trazado 715639" d="M-25.792,549.089h9.941l4.092-4.746H-21.7Z" transform="translate(27.636 -535.9)" fill="#861914"/>
        </g>
      </g>
      <g id="Grupo_1011411" data-name="Grupo 1011411" transform="translate(126.99 147.962)">
        <path id="Trazado_715640" data-name="Trazado 715640" d="M-32.757,562.843H-35.1l2.092-3.8.044-4.585,4.34-4.386,4.723-8.276,1.545-1.359Z" transform="translate(35.096 -540.433)" fill="#707070" opacity="0.5" style="mix-blend-mode: multiply;isolation: isolate"/>
        <g id="Grupo_1011410" data-name="Grupo 1011410" transform="translate(2.339)">
          <path id="Trazado_715641" data-name="Trazado 715641" d="M-34.013,562.843H-21.7l10.406-22.41H-23.607l-10.406,20.172Z" transform="translate(34.013 -540.433)" fill="#484848"/>
          <rect id="Rectángulo_347275" data-name="Rectángulo 347275" width="12.313" height="2.238" transform="translate(0 20.172)" fill="#303030"/>
          <path id="Trazado_715642" data-name="Trazado 715642" d="M-28.309,562.843-17.9,542.629v-2.2l-10.406,20.172Z" transform="translate(40.622 -540.433)" fill="#606060"/>
          <path id="Trazado_715643" data-name="Trazado 715643" d="M-15.032,540.729l-3.913,8.231-4.273,4.543-9.941,4.812v-5.037l4.093-4.746,4.093-7.8Z" transform="translate(35.002 -540.089)" fill="#b3211b"/>
          <rect id="Rectángulo_347276" data-name="Rectángulo 347276" width="9.941" height="5.037" transform="translate(1.844 13.189)" fill="#65130f"/>
          <path id="Trazado_715644" data-name="Trazado 715644" d="M-20.368,542.663l-8.186,15.653v-5.037l4.092-4.746,4.093-7.8Z" transform="translate(40.339 -540.089)" fill="#f23333"/>
          <path id="Trazado_715645" data-name="Trazado 715645" d="M-33.159,549.089h9.941l4.092-4.746h-9.94Z" transform="translate(35.002 -535.9)" fill="#861914"/>
        </g>
      </g>
      <g id="Grupo_1011413" data-name="Grupo 1011413" transform="translate(111.125 147.962)">
        <path id="Trazado_715646" data-name="Trazado 715646" d="M-40.105,562.843h-2.339l2.092-3.8.044-4.585,4.34-4.386,4.723-8.276,1.546-1.359Z" transform="translate(42.445 -540.433)" fill="#707070" opacity="0.5" style="mix-blend-mode: multiply;isolation: isolate"/>
        <g id="Grupo_1011412" data-name="Grupo 1011412" transform="translate(2.339)">
          <path id="Trazado_715647" data-name="Trazado 715647" d="M-41.361,562.843h12.313l10.406-22.41H-30.954l-10.407,20.172Z" transform="translate(41.361 -540.433)" fill="#484848"/>
          <rect id="Rectángulo_347277" data-name="Rectángulo 347277" width="12.313" height="2.238" transform="translate(0 20.172)" fill="#303030"/>
          <path id="Trazado_715648" data-name="Trazado 715648" d="M-35.658,562.843l10.406-20.214v-2.2l-10.406,20.172Z" transform="translate(47.971 -540.433)" fill="#606060"/>
          <path id="Trazado_715649" data-name="Trazado 715649" d="M-22.38,540.729l-3.913,8.231-4.273,4.543-9.941,4.812v-5.037l4.093-4.746,4.093-7.8Z" transform="translate(42.351 -540.089)" fill="#b3211b"/>
          <rect id="Rectángulo_347278" data-name="Rectángulo 347278" width="9.941" height="5.037" transform="translate(1.844 13.189)" fill="#65130f"/>
          <path id="Trazado_715650" data-name="Trazado 715650" d="M-27.717,542.663-35.9,558.315v-5.037l4.092-4.746,4.093-7.8Z" transform="translate(47.687 -540.089)" fill="#f23333"/>
          <path id="Trazado_715651" data-name="Trazado 715651" d="M-40.507,549.089h9.941l4.092-4.746h-9.94Z" transform="translate(42.351 -535.9)" fill="#861914"/>
        </g>
      </g>
      <g id="Grupo_1011415" data-name="Grupo 1011415" transform="translate(9.054 147.962)">
        <g id="Grupo_1011414" data-name="Grupo 1011414" transform="translate(0.001 0)">
          <path id="Trazado_715652" data-name="Trazado 715652" d="M-79.9,541.433l-8.18,15.854h46.822l8.18-15.854Z" transform="translate(91.622 -539.274)" fill="#1f1f1f"/>
          <path id="Trazado_715653" data-name="Trazado 715653" d="M-79.315,540.433-89.721,560.6h51.68l10.406-20.172Zm-6.863,18.012L-78,542.592h46.822l-8.178,15.854Z" transform="translate(89.721 -540.433)" fill="#484848"/>
        </g>
        <rect id="Rectángulo_347279" data-name="Rectángulo 347279" width="51.681" height="2.238" transform="translate(0 20.172)" fill="#303030"/>
        <path id="Trazado_715654" data-name="Trazado 715654" d="M-65.784,562.843l10.407-20.214v-2.2l-10.407,20.172Z" transform="translate(117.465 -540.433)" fill="#606060"/>
      </g>
      <g id="Grupo_1011416" data-name="Grupo 1011416" transform="translate(75.179 149.686)">
        <path id="Trazado_715655" data-name="Trazado 715655" d="M-44.69,544.158l-5.689-2.6-6.568,14.407,5.689,2.593a7.915,7.915,0,0,0,10.486-3.919A7.917,7.917,0,0,0-44.69,544.158Z" transform="translate(61.582 -540.848)" fill="#606060"/>
        <path id="Trazado_715656" data-name="Trazado 715656" d="M-43.973,552.435a7.919,7.919,0,0,1-10.488,3.919,7.921,7.921,0,0,1-3.919-10.488,7.918,7.918,0,0,1,10.488-3.919A7.917,7.917,0,0,1-43.973,552.435Z" transform="translate(59.094 -541.232)" fill="#383838"/>
      </g>
      <path id="Trazado_715657" data-name="Trazado 715657" d="M-11.18,555.905v-3.238H-13.1v5.162H13.663v-1.924Z" transform="translate(187.574 -378.292)" fill="#a9a9a9" opacity="0.5" style="mix-blend-mode: multiply;isolation: isolate"/>
      <path id="Trazado_715658" data-name="Trazado 715658" d="M-88.08,557.287l8.18-15.854v1.674l-7.106,14.18Z" transform="translate(100.678 -391.312)" fill="#606060"/>
      <path id="Trazado_715659" data-name="Trazado 715659" d="M-84.292,543.107h45.958l.864-1.674H-84.292Z" transform="translate(105.069 -391.312)" fill="#303030"/>
      <path id="Trazado_715660" data-name="Trazado 715660" d="M-80.832,543.083l-5.532,10.863h42.505l5.8-10.863Z" transform="translate(102.667 -389.399)" fill="#799b9b"/>
    </g>
  </g>
</svg>
