<svg xmlns="http://www.w3.org/2000/svg" width="400" height="367.783" viewBox="0 0 400 367.783">
  <g id="Grupo_1005026" data-name="Grupo 1005026" transform="translate(-1020 -4087.717)">
    <g id="Grupo_1005024" data-name="Grupo 1005024" transform="translate(635.855 4002.65)">
      <g id="Grupo_1004788" data-name="Grupo 1004788" transform="translate(384.145 348.975)">
        <g id="Grupo_1004778" data-name="Grupo 1004778">
          <g id="Grupo_1004777" data-name="Grupo 1004777">
            <g id="Grupo_1004776" data-name="Grupo 1004776">
              <path id="Trazado_712655" data-name="Trazado 712655" d="M449.282,262.033s-5.091-6.3-11.879-7.759-15.03,2.424-18.182,0-13.333-3.825-14.546-.337.484,7.61,7.273,8.1a78.731,78.731,0,0,1,13.091,2.181s-36.122,22.3-38.062,24.728-3.878,4.849-2.182,6.789,8.243-2.91,8.243-2.91l16.486-1.938s8.485,1.938,15.758,1.212,15.031-6.061,15.031-6.061l16.97-2.666S460.919,266.153,449.282,262.033Z" transform="translate(-384.145 -251.842)" fill="#e7ada7"/>
            </g>
          </g>
        </g>
        <g id="Grupo_1004781" data-name="Grupo 1004781" transform="translate(9.297 31.912)">
          <g id="Grupo_1004780" data-name="Grupo 1004780">
            <g id="Grupo_1004779" data-name="Grupo 1004779">
              <path id="Trazado_712656" data-name="Trazado 712656" d="M390.395,280.8c.079-.025-.021-.4.04-1.054a4.487,4.487,0,0,1,1.089-2.465c1.525-1.749,4.706-3.239,8.3-3.875a39.828,39.828,0,0,1,9.485-.269c2.453.163,3.984.253,4,.106s-1.473-.481-3.929-.834a31.5,31.5,0,0,0-9.738-.022c-3.782.684-7.089,2.318-8.7,4.443a4.438,4.438,0,0,0-.916,2.913C390.1,280.477,390.341,280.82,390.395,280.8Z" transform="translate(-390.02 -272.009)" fill="#8b4a41"/>
            </g>
          </g>
        </g>
        <g id="Grupo_1004784" data-name="Grupo 1004784" transform="translate(20.963 24.912)">
          <g id="Grupo_1004783" data-name="Grupo 1004783">
            <g id="Grupo_1004782" data-name="Grupo 1004782">
              <path id="Trazado_712657" data-name="Trazado 712657" d="M397.4,274.043c.139.248,2.806-.987,5.953-2.763s5.588-3.413,5.447-3.663-2.806.987-5.955,2.763S397.257,273.794,397.4,274.043Z" transform="translate(-397.392 -267.585)" fill="#8b4a41"/>
            </g>
          </g>
        </g>
        <g id="Grupo_1004787" data-name="Grupo 1004787" transform="translate(34.908 18.543)">
          <g id="Grupo_1004786" data-name="Grupo 1004786">
            <g id="Grupo_1004785" data-name="Grupo 1004785">
              <path id="Trazado_712658" data-name="Trazado 712658" d="M409.75,263.577c-.146-.228-2.532,1.8-3.291,5.407-.8,3.6.53,6.432.758,6.285.3-.082-.487-2.8.253-6.065C408.147,265.924,409.987,263.775,409.75,263.577Z" transform="translate(-406.205 -263.56)" fill="#8b4a41"/>
            </g>
          </g>
        </g>
      </g>
      <g id="Grupo_1004829" data-name="Grupo 1004829" transform="translate(444.714 226.187)">
        <g id="Grupo_1004792" data-name="Grupo 1004792" transform="translate(130.877 1.618)">
          <g id="Grupo_1004791" data-name="Grupo 1004791">
            <g id="Grupo_1004790" data-name="Grupo 1004790">
              <g id="Grupo_1004789" data-name="Grupo 1004789">
                <path id="Trazado_712659" data-name="Trazado 712659" d="M661.684,195.849l-52.2-12.263-4.929-8.317L552.2,176.1l-12.166,13.02-34.9,17.129,29.293,122.976,98.28,5.052Z" transform="translate(-505.128 -175.269)" fill="#263238"/>
              </g>
            </g>
          </g>
        </g>
        <g id="Grupo_1004795" data-name="Grupo 1004795" transform="translate(0 28.699)">
          <g id="Grupo_1004794" data-name="Grupo 1004794">
            <g id="Grupo_1004793" data-name="Grupo 1004793">
              <path id="Trazado_712660" data-name="Trazado 712660" d="M434.132,285.022l39.535,3.779s7.918-2.465,15.5,0,19.793-6.44,19.793-6.44l17.155-25.732s7.586-52.78,16.494-58.388,9.7-5.858,9.7-5.858l15.655,97.179L547.231,323.6s-18.473,17.153-26.059,16.493-98.75-13.079-98.75-13.079Z" transform="translate(-422.421 -192.383)" fill="#afafaf"/>
            </g>
          </g>
        </g>
        <g id="Grupo_1004798" data-name="Grupo 1004798" transform="translate(207.614)">
          <g id="Grupo_1004797" data-name="Grupo 1004797">
            <g id="Grupo_1004796" data-name="Grupo 1004796">
              <path id="Trazado_712661" data-name="Trazado 712661" d="M593.242,186.376l-17.394-12.129,4.5,18.872-26.729,99.83s2.571,74.761,1.541,107.951h90.063l-23.936-40.828,13-164.78Z" transform="translate(-553.622 -174.247)" fill="#afafaf"/>
            </g>
          </g>
        </g>
        <g id="Grupo_1004801" data-name="Grupo 1004801" transform="translate(128.193 0.94)">
          <g id="Grupo_1004800" data-name="Grupo 1004800">
            <g id="Grupo_1004799" data-name="Grupo 1004799">
              <path id="Trazado_712662" data-name="Trazado 712662" d="M587.67,400.553l-4-111.161s-24.615-29.059-28.711-58.293-5.434-45.005-5.434-45.005l3.654-11.253-13.634,13.727s-8.089,2.807-9.82,3.453a283.335,283.335,0,0,0-26.29,11.558l19.739,153.13s-11.678,24.412-19.739,43.844Z" transform="translate(-503.432 -174.841)" fill="#afafaf"/>
            </g>
          </g>
        </g>
        <g id="Grupo_1004804" data-name="Grupo 1004804" transform="translate(130.877 75.37)">
          <g id="Grupo_1004803" data-name="Grupo 1004803">
            <g id="Grupo_1004802" data-name="Grupo 1004802">
              <path id="Trazado_712663" data-name="Trazado 712663" d="M520.851,314.581c.913,4.9,1.676,8.862,2.234,11.593.272,1.287.492,2.328.665,3.141a5.112,5.112,0,0,0,.293,1.084,5.114,5.114,0,0,0-.111-1.117c-.127-.823-.291-1.874-.492-3.173-.48-2.864-1.139-6.812-1.947-11.642-1.668-9.931-3.938-23.459-6.448-38.408-2.521-15-4.887-28.564-6.714-38.364-.911-4.9-1.674-8.862-2.234-11.593-.272-1.286-.492-2.328-.665-3.141a5.071,5.071,0,0,0-.293-1.084,5.129,5.129,0,0,0,.111,1.117c.127.821.291,1.874.494,3.173.478,2.864,1.138,6.812,1.945,11.642,1.668,9.931,3.939,23.458,6.447,38.4" transform="translate(-505.128 -221.877)" fill="#263238"/>
            </g>
          </g>
        </g>
        <g id="Grupo_1004807" data-name="Grupo 1004807" transform="translate(209.687 12.129)">
          <g id="Grupo_1004806" data-name="Grupo 1004806">
            <g id="Grupo_1004805" data-name="Grupo 1004805">
              <path id="Trazado_712664" data-name="Trazado 712664" d="M554.933,308.393a6.471,6.471,0,0,0,.908-.888l2.483-2.685,9.123-10.12c7.771-8.749,18.543-20.875,30.866-34.751l.19-.212-.078-.277c-1.568-5.651-3.215-11.585-4.907-17.676q-1.1-3.957-2.177-7.814l-.5.679,20.475-.788.7-.027-.242-.652-13.721-36.934c-1.693-4.453-3.052-8.023-4.027-10.586-.459-1.157-.828-2.084-1.112-2.8a4.809,4.809,0,0,0-.437-.946,4.762,4.762,0,0,0,.277,1c.247.734.563,1.681.961,2.861.908,2.586,2.176,6.19,3.755,10.684,3.32,9.216,7.952,22.068,13.357,37.066l.454-.677-20.476.728-.677.024.182.655q1.071,3.85,2.171,7.814c1.7,6.089,3.356,12.02,4.932,17.669l.112-.487c-12.213,13.976-22.886,26.187-30.586,35-3.733,4.334-6.74,7.828-8.89,10.325l-2.352,2.8A6.591,6.591,0,0,0,554.933,308.393Z" transform="translate(-554.932 -181.912)" fill="#263238"/>
            </g>
          </g>
        </g>
        <g id="Grupo_1004810" data-name="Grupo 1004810" transform="translate(208.606 113.844)">
          <g id="Grupo_1004809" data-name="Grupo 1004809">
            <g id="Grupo_1004808" data-name="Grupo 1004808">
              <path id="Trazado_712665" data-name="Trazado 712665" d="M557.819,359.008c.3-.011-.244-25.276-1.206-56.426s-1.986-56.4-2.283-56.392.244,25.271,1.207,56.43S557.523,359.019,557.819,359.008Z" transform="translate(-554.249 -246.19)" fill="#263238"/>
            </g>
          </g>
        </g>
        <g id="Grupo_1004813" data-name="Grupo 1004813" transform="translate(156.577 14.121)">
          <g id="Grupo_1004812" data-name="Grupo 1004812">
            <g id="Grupo_1004811" data-name="Grupo 1004811">
              <path id="Trazado_712666" data-name="Trazado 712666" d="M529.226,183.171a5.716,5.716,0,0,0-.234,1.174c-.127.87-.291,2-.5,3.407-.407,3.089-.972,7.388-1.673,12.719-1.353,10.952-3.225,26.111-5.367,43.47l-.087.7.7-.12,11.347-1.953-.581-.749c-.688,1.537-1.423,3.181-2.165,4.837-1.456,3.263-2.889,6.474-4.252,9.525l-.138.309.22.256c12.452,14.436,23.469,27.21,31.463,36.476l9.415,10.751,2.578,2.867c.6.646,4.5,3.578,4.524,3.556s-3.825-3-4.372-3.685c-.619-.758-1.426-1.75-2.435-2.989-2.226-2.66-5.333-6.374-9.17-10.961l-31.194-36.709.082.565c1.366-3.049,2.8-6.258,4.261-9.52l2.162-4.839.411-.921-.994.172-11.343,1.976.611.581c2-17.378,3.738-32.552,5-43.515.571-5.347,1.032-9.659,1.362-12.757.131-1.416.237-2.551.32-3.428A5.835,5.835,0,0,0,529.226,183.171Z" transform="translate(-521.369 -183.171)" fill="#263238"/>
            </g>
          </g>
        </g>
        <g id="Grupo_1004816" data-name="Grupo 1004816" transform="translate(209.689 63.463)" opacity="0.3">
          <g id="Grupo_1004815" data-name="Grupo 1004815">
            <g id="Grupo_1004814" data-name="Grupo 1004814">
              <path id="Trazado_712667" data-name="Trazado 712667" d="M611.3,214.463c-.348,1.119-7.7,2.241-8.98,5.345s-.655,6.648.258,9.882,2.1,6.493,1.872,9.844c-.407,6.013-5.149,10.705-9.585,14.784-12.4,11.4-27.536,23.777-39.934,35.18,10.984-14.009,25.308-28.518,37.449-41.537,1.8-1.924,3.66-3.935,4.421-6.455.954-3.162.013-6.55-.927-9.716q-1.866-6.29-3.731-12.582c-.321-1.078-1.014-2.894-1.18-3.491a26.662,26.662,0,0,1,4.61-.559s10.925-1.165,15.728-.7" transform="translate(-554.933 -214.352)"/>
            </g>
          </g>
        </g>
        <g id="Grupo_1004819" data-name="Grupo 1004819" transform="translate(271.031 21.045)">
          <g id="Grupo_1004818" data-name="Grupo 1004818">
            <g id="Grupo_1004817" data-name="Grupo 1004817">
              <path id="Trazado_712668" data-name="Trazado 712668" d="M610.946,187.546s17.194,6.054,22.565,24.448,9.547,44.051,14.916,60.16,1.193,17.3,4.178,23.868,15.512,26.306,5.966,40.9-19.093,22.945-36.994,15.785S593.7,334.367,593.7,334.367Z" transform="translate(-593.698 -187.546)" fill="#afafaf"/>
            </g>
          </g>
        </g>
        <g id="Grupo_1004822" data-name="Grupo 1004822" transform="translate(276.174 54.734)">
          <g id="Grupo_1004821" data-name="Grupo 1004821">
            <g id="Grupo_1004820" data-name="Grupo 1004820">
              <path id="Trazado_712669" data-name="Trazado 712669" d="M619.722,208.836a7.148,7.148,0,0,0-.1,1.385c-.021,1-.048,2.315-.082,3.958q-.017,1.3-.035,2.856c-.047,1.043-.166,2.173-.253,3.39-.212,2.429-.324,5.2-.817,8.241q-.311,2.286-.649,4.774c-.247,1.658-.609,3.367-.926,5.146-.6,3.562-1.508,7.32-2.389,11.289-1.91,7.909-4.29,16.543-6.852,25.6s-4.866,17.733-6.657,25.694c-.806,4-1.658,7.784-2.157,11.379-.271,1.793-.587,3.518-.79,5.189q-.256,2.509-.492,4.815c-.392,3.062-.386,5.858-.487,8.3-.032,1.223-.095,2.361-.09,3.409.049,1.04.092,2,.133,2.867.09,1.643.161,2.958.217,3.959a6.983,6.983,0,0,0,.144,1.375,7.078,7.078,0,0,0,.06-1.386c-.006-1-.014-2.315-.025-3.956q-.019-1.3-.043-2.856c.024-1.043.114-2.176.174-3.394.154-2.432.2-5.209.635-8.254q.266-2.291.555-4.785c.222-1.66.555-3.374.843-5.157.532-3.572,1.413-7.338,2.241-11.317,1.836-7.925,4.165-16.571,6.724-25.627s4.918-17.71,6.784-25.652c.859-3.988,1.744-7.763,2.306-11.349.3-1.788.644-3.507.872-5.174q.3-2.5.587-4.806c.446-3.052.509-5.847.668-8.29.062-1.222.152-2.358.171-3.405q-.031-1.559-.054-2.869c-.046-1.644-.082-2.962-.109-3.966A7.05,7.05,0,0,0,619.722,208.836Z" transform="translate(-596.948 -208.836)" fill="#263238"/>
            </g>
          </g>
        </g>
        <g id="Grupo_1004825" data-name="Grupo 1004825" transform="translate(283.483 119.224)">
          <g id="Grupo_1004824" data-name="Grupo 1004824">
            <g id="Grupo_1004823" data-name="Grupo 1004823">
              <path id="Trazado_712670" data-name="Trazado 712670" d="M601.567,251.652c.047.182,2.552-.479,6.676-.894a52.135,52.135,0,0,1,31.1,6.652c3.592,2.065,5.606,3.695,5.724,3.546.046-.055-.424-.5-1.318-1.261a33.726,33.726,0,0,0-4.03-2.913,47.495,47.495,0,0,0-31.558-6.751,33.884,33.884,0,0,0-4.869,1.006A6.223,6.223,0,0,0,601.567,251.652Z" transform="translate(-601.567 -249.59)" fill="#263238"/>
            </g>
          </g>
        </g>
        <g id="Grupo_1004828" data-name="Grupo 1004828" transform="translate(83.737 121.05)">
          <g id="Grupo_1004827" data-name="Grupo 1004827">
            <g id="Grupo_1004826" data-name="Grupo 1004826">
              <path id="Trazado_712671" data-name="Trazado 712671" d="M475.341,250.755c-.084.154,1.774,1.2,4.518,3.231A51.186,51.186,0,0,1,496.3,274.536c1.38,3.124,1.994,5.165,2.162,5.118a4.319,4.319,0,0,0-.245-1.489,30.188,30.188,0,0,0-1.241-3.907,44.543,44.543,0,0,0-16.7-20.869,30.332,30.332,0,0,0-3.54-2.068C475.868,250.9,475.374,250.692,475.341,250.755Z" transform="translate(-475.338 -250.744)" fill="#263238"/>
            </g>
          </g>
        </g>
      </g>
      <g id="Grupo_1005010" data-name="Grupo 1005010" transform="translate(555.755 85.066)">
        <g id="Grupo_1004832" data-name="Grupo 1004832">
          <g id="Grupo_1004831" data-name="Grupo 1004831">
            <g id="Grupo_1004830" data-name="Grupo 1004830">
              <path id="Trazado_712672" data-name="Trazado 712672" d="M599.42,112.543c5.38-3.416,6.679-11.338,3.765-17s-9.1-9.108-15.394-10.123a29.333,29.333,0,0,0-25.27,8.374c-3.472,3.575-6.285,8.24-10.993,9.877-4.138,1.44-8.716.141-13.061.7-5.825.753-10.817,4.894-13.805,9.952s-4.217,10.955-4.909,16.788c-.633,5.355-1.051,11.229-4.765,15.136-3.622,3.81-9.342,4.617-13.848,7.328-8.474,5.1-11.219,17.729-5.629,25.888,1.783,2.6,4.342,4.985,4.549,8.132.188,2.872-1.668,5.431-2.538,8.175-2.239,7.067,3.546,15.462,10.945,15.886,3.736.215,7.74-1.241,11.088.429,3.326,1.66,4.564,5.671,6.692,8.719a16,16,0,0,0,19.5,5.038c2.747-1.348,5.342-3.573,8.4-3.367s5.447,2.807,8.445,3.388c3.924.76,7.653-2.133,9.987-5.379s3.961-7.07,6.948-9.729c3.912-3.478,9.407-4.339,14.357-6.043a40.5,40.5,0,0,0,22.871-56.733" transform="translate(-492.593 -85.066)" fill="#263238"/>
            </g>
          </g>
        </g>
        <g id="Grupo_1004839" data-name="Grupo 1004839" transform="translate(43.007 27.395)">
          <g id="Grupo_1004838" data-name="Grupo 1004838">
            <g id="Grupo_1004837" data-name="Grupo 1004837">
              <g id="Grupo_1004836" data-name="Grupo 1004836">
                <g id="Grupo_1004835" data-name="Grupo 1004835">
                  <g id="Grupo_1004834" data-name="Grupo 1004834">
                    <g id="Grupo_1004833" data-name="Grupo 1004833">
                      <path id="Trazado_712673" data-name="Trazado 712673" d="M595.32,228.232l.771-38.4,7.287-64.757a8.911,8.911,0,0,0-7.713-9.259l-46.92-13.288c-15.09-2.032-25.683,16.319-27.07,31.482-1.543,16.845-2.763,37.472-1.12,50.12,3.3,25.434,22.614,29.207,22.614,29.207.009-.085-.669,16.125-.669,16.125l29.194,23.415Z" transform="translate(-519.771 -102.378)" fill="#e7ada7"/>
                    </g>
                  </g>
                </g>
              </g>
            </g>
          </g>
        </g>
        <g id="Grupo_1004971" data-name="Grupo 1004971" transform="translate(49.035 54.459)">
          <g id="Grupo_1004970" data-name="Grupo 1004970">
            <g id="Grupo_1004969" data-name="Grupo 1004969">
              <g id="Grupo_1004968" data-name="Grupo 1004968">
                <g id="Grupo_1004937" data-name="Grupo 1004937" transform="translate(0 12.203)">
                  <g id="Grupo_1004936" data-name="Grupo 1004936">
                    <g id="Grupo_1004935" data-name="Grupo 1004935">
                      <g id="Grupo_1004871" data-name="Grupo 1004871">
                        <g id="Grupo_1004854" data-name="Grupo 1004854" transform="translate(1.538 8.415)">
                          <g id="Grupo_1004853" data-name="Grupo 1004853">
                            <g id="Grupo_1004852" data-name="Grupo 1004852">
                              <g id="Grupo_1004851" data-name="Grupo 1004851">
                                <g id="Grupo_1004850" data-name="Grupo 1004850">
                                  <g id="Grupo_1004849" data-name="Grupo 1004849">
                                    <g id="Grupo_1004848" data-name="Grupo 1004848">
                                      <g id="Grupo_1004847" data-name="Grupo 1004847">
                                        <g id="Grupo_1004846" data-name="Grupo 1004846">
                                          <g id="Grupo_1004845" data-name="Grupo 1004845">
                                            <g id="Grupo_1004844" data-name="Grupo 1004844">
                                              <g id="Grupo_1004843" data-name="Grupo 1004843">
                                                <g id="Grupo_1004842" data-name="Grupo 1004842">
                                                  <g id="Grupo_1004841" data-name="Grupo 1004841">
                                                    <g id="Grupo_1004840" data-name="Grupo 1004840">
                                                      <path id="Trazado_712674" data-name="Trazado 712674" d="M524.559,135.356a3.248,3.248,0,0,0,3.038,3.366,3.108,3.108,0,0,0,3.431-2.833,3.25,3.25,0,0,0-3.035-3.367A3.11,3.11,0,0,0,524.559,135.356Z" transform="translate(-524.553 -132.511)" fill="#263238"/>
                                                    </g>
                                                  </g>
                                                </g>
                                              </g>
                                            </g>
                                          </g>
                                        </g>
                                      </g>
                                    </g>
                                  </g>
                                </g>
                              </g>
                            </g>
                          </g>
                        </g>
                        <g id="Grupo_1004870" data-name="Grupo 1004870">
                          <g id="Grupo_1004869" data-name="Grupo 1004869">
                            <g id="Grupo_1004868" data-name="Grupo 1004868">
                              <g id="Grupo_1004867" data-name="Grupo 1004867">
                                <g id="Grupo_1004866" data-name="Grupo 1004866">
                                  <g id="Grupo_1004865" data-name="Grupo 1004865">
                                    <g id="Grupo_1004864" data-name="Grupo 1004864">
                                      <g id="Grupo_1004863" data-name="Grupo 1004863">
                                        <g id="Grupo_1004862" data-name="Grupo 1004862">
                                          <g id="Grupo_1004861" data-name="Grupo 1004861">
                                            <g id="Grupo_1004860" data-name="Grupo 1004860">
                                              <g id="Grupo_1004859" data-name="Grupo 1004859">
                                                <g id="Grupo_1004858" data-name="Grupo 1004858">
                                                  <g id="Grupo_1004857" data-name="Grupo 1004857">
                                                    <g id="Grupo_1004856" data-name="Grupo 1004856">
                                                      <g id="Grupo_1004855" data-name="Grupo 1004855">
                                                        <path id="Trazado_712675" data-name="Trazado 712675" d="M523.629,130.429c.391.435,2.9-1.315,6.4-1.207,3.492.059,6.005,1.929,6.4,1.511.191-.184-.2-.959-1.29-1.8a8.915,8.915,0,0,0-5.106-1.734,8.554,8.554,0,0,0-5.1,1.491C523.822,129.478,523.435,130.235,523.629,130.429Z" transform="translate(-523.581 -127.193)" fill="#263238"/>
                                                      </g>
                                                    </g>
                                                  </g>
                                                </g>
                                              </g>
                                            </g>
                                          </g>
                                        </g>
                                      </g>
                                    </g>
                                  </g>
                                </g>
                              </g>
                            </g>
                          </g>
                        </g>
                      </g>
                      <g id="Grupo_1004903" data-name="Grupo 1004903" transform="translate(34.328 1.628)">
                        <g id="Grupo_1004886" data-name="Grupo 1004886" transform="translate(0.125 7.561)">
                          <g id="Grupo_1004885" data-name="Grupo 1004885">
                            <g id="Grupo_1004884" data-name="Grupo 1004884">
                              <g id="Grupo_1004883" data-name="Grupo 1004883">
                                <g id="Grupo_1004882" data-name="Grupo 1004882">
                                  <g id="Grupo_1004881" data-name="Grupo 1004881">
                                    <g id="Grupo_1004880" data-name="Grupo 1004880">
                                      <g id="Grupo_1004879" data-name="Grupo 1004879">
                                        <g id="Grupo_1004878" data-name="Grupo 1004878">
                                          <g id="Grupo_1004877" data-name="Grupo 1004877">
                                            <g id="Grupo_1004876" data-name="Grupo 1004876">
                                              <g id="Grupo_1004875" data-name="Grupo 1004875">
                                                <g id="Grupo_1004874" data-name="Grupo 1004874">
                                                  <g id="Grupo_1004873" data-name="Grupo 1004873">
                                                    <g id="Grupo_1004872" data-name="Grupo 1004872">
                                                      <path id="Trazado_712676" data-name="Trazado 712676" d="M545.359,135.845a3.249,3.249,0,0,0,3.038,3.364,3.106,3.106,0,0,0,3.429-2.832,3.25,3.25,0,0,0-3.035-3.366A3.107,3.107,0,0,0,545.359,135.845Z" transform="translate(-545.353 -133)" fill="#263238"/>
                                                    </g>
                                                  </g>
                                                </g>
                                              </g>
                                            </g>
                                          </g>
                                        </g>
                                      </g>
                                    </g>
                                  </g>
                                </g>
                              </g>
                            </g>
                          </g>
                        </g>
                        <g id="Grupo_1004902" data-name="Grupo 1004902">
                          <g id="Grupo_1004901" data-name="Grupo 1004901">
                            <g id="Grupo_1004900" data-name="Grupo 1004900">
                              <g id="Grupo_1004899" data-name="Grupo 1004899">
                                <g id="Grupo_1004898" data-name="Grupo 1004898">
                                  <g id="Grupo_1004897" data-name="Grupo 1004897">
                                    <g id="Grupo_1004896" data-name="Grupo 1004896">
                                      <g id="Grupo_1004895" data-name="Grupo 1004895">
                                        <g id="Grupo_1004894" data-name="Grupo 1004894">
                                          <g id="Grupo_1004893" data-name="Grupo 1004893">
                                            <g id="Grupo_1004892" data-name="Grupo 1004892">
                                              <g id="Grupo_1004891" data-name="Grupo 1004891">
                                                <g id="Grupo_1004890" data-name="Grupo 1004890">
                                                  <g id="Grupo_1004889" data-name="Grupo 1004889">
                                                    <g id="Grupo_1004888" data-name="Grupo 1004888">
                                                      <g id="Grupo_1004887" data-name="Grupo 1004887">
                                                        <path id="Trazado_712677" data-name="Trazado 712677" d="M545.321,131.458c.391.434,2.907-1.315,6.4-1.207,3.491.059,6.005,1.929,6.4,1.511.192-.184-.193-.959-1.291-1.8a8.9,8.9,0,0,0-5.1-1.734,8.563,8.563,0,0,0-5.106,1.489C545.517,130.507,545.13,131.262,545.321,131.458Z" transform="translate(-545.274 -128.221)" fill="#263238"/>
                                                      </g>
                                                    </g>
                                                  </g>
                                                </g>
                                              </g>
                                            </g>
                                          </g>
                                        </g>
                                      </g>
                                    </g>
                                  </g>
                                </g>
                              </g>
                            </g>
                          </g>
                        </g>
                      </g>
                      <g id="Grupo_1004919" data-name="Grupo 1004919" transform="translate(12.127 1.348)">
                        <g id="Grupo_1004918" data-name="Grupo 1004918">
                          <g id="Grupo_1004917" data-name="Grupo 1004917">
                            <g id="Grupo_1004916" data-name="Grupo 1004916">
                              <g id="Grupo_1004915" data-name="Grupo 1004915">
                                <g id="Grupo_1004914" data-name="Grupo 1004914">
                                  <g id="Grupo_1004913" data-name="Grupo 1004913">
                                    <g id="Grupo_1004912" data-name="Grupo 1004912">
                                      <g id="Grupo_1004911" data-name="Grupo 1004911">
                                        <g id="Grupo_1004910" data-name="Grupo 1004910">
                                          <g id="Grupo_1004909" data-name="Grupo 1004909">
                                            <g id="Grupo_1004908" data-name="Grupo 1004908">
                                              <g id="Grupo_1004907" data-name="Grupo 1004907">
                                                <g id="Grupo_1004906" data-name="Grupo 1004906">
                                                  <g id="Grupo_1004905" data-name="Grupo 1004905">
                                                    <g id="Grupo_1004904" data-name="Grupo 1004904">
                                                      <path id="Trazado_712678" data-name="Trazado 712678" d="M540.077,157.114c.021-.2-2.139-.636-5.648-1.185-.889-.119-1.728-.32-1.861-.932a4.532,4.532,0,0,1,.669-2.628q1.35-3.2,2.832-6.719c3.939-9.569,6.817-17.448,6.431-17.6s-3.894,7.475-7.833,17.044c-.95,2.361-1.858,4.61-2.722,6.763a5.16,5.16,0,0,0-.562,3.489,2.24,2.24,0,0,0,1.429,1.345,5.99,5.99,0,0,0,1.51.253C537.86,157.233,540.056,157.312,540.077,157.114Z" transform="translate(-531.244 -128.045)" fill="#263238"/>
                                                    </g>
                                                  </g>
                                                </g>
                                              </g>
                                            </g>
                                          </g>
                                        </g>
                                      </g>
                                    </g>
                                  </g>
                                </g>
                              </g>
                            </g>
                          </g>
                        </g>
                      </g>
                      <g id="Grupo_1004934" data-name="Grupo 1004934" transform="translate(17.369 63.615)">
                        <g id="Grupo_1004933" data-name="Grupo 1004933">
                          <g id="Grupo_1004932" data-name="Grupo 1004932">
                            <g id="Grupo_1004931" data-name="Grupo 1004931">
                              <g id="Grupo_1004930" data-name="Grupo 1004930">
                                <g id="Grupo_1004929" data-name="Grupo 1004929">
                                  <g id="Grupo_1004928" data-name="Grupo 1004928">
                                    <g id="Grupo_1004927" data-name="Grupo 1004927">
                                      <g id="Grupo_1004926" data-name="Grupo 1004926">
                                        <g id="Grupo_1004925" data-name="Grupo 1004925">
                                          <g id="Grupo_1004924" data-name="Grupo 1004924">
                                            <g id="Grupo_1004923" data-name="Grupo 1004923">
                                              <g id="Grupo_1004922" data-name="Grupo 1004922">
                                                <g id="Grupo_1004921" data-name="Grupo 1004921">
                                                  <g id="Grupo_1004920" data-name="Grupo 1004920">
                                                    <path id="Trazado_712679" data-name="Trazado 712679" d="M534.557,175.475a64.444,64.444,0,0,0,34.167-8.081s-8.722,17.16-33.995,14.069Z" transform="translate(-534.557 -167.394)" fill="#8b4a41"/>
                                                  </g>
                                                </g>
                                              </g>
                                            </g>
                                          </g>
                                        </g>
                                      </g>
                                    </g>
                                  </g>
                                </g>
                              </g>
                            </g>
                          </g>
                        </g>
                      </g>
                    </g>
                  </g>
                </g>
                <g id="Grupo_1004952" data-name="Grupo 1004952" transform="translate(33.225 0.204)">
                  <g id="Grupo_1004951" data-name="Grupo 1004951">
                    <g id="Grupo_1004950" data-name="Grupo 1004950">
                      <g id="Grupo_1004949" data-name="Grupo 1004949">
                        <g id="Grupo_1004948" data-name="Grupo 1004948">
                          <g id="Grupo_1004947" data-name="Grupo 1004947">
                            <g id="Grupo_1004946" data-name="Grupo 1004946">
                              <g id="Grupo_1004945" data-name="Grupo 1004945">
                                <g id="Grupo_1004944" data-name="Grupo 1004944">
                                  <g id="Grupo_1004943" data-name="Grupo 1004943">
                                    <g id="Grupo_1004942" data-name="Grupo 1004942">
                                      <g id="Grupo_1004941" data-name="Grupo 1004941">
                                        <g id="Grupo_1004940" data-name="Grupo 1004940">
                                          <g id="Grupo_1004939" data-name="Grupo 1004939">
                                            <g id="Grupo_1004938" data-name="Grupo 1004938">
                                              <path id="Trazado_712680" data-name="Trazado 712680" d="M544.593,122.044c.318.961,3.818.609,7.9,1.22,4.1.529,7.369,1.821,7.938.986.255-.4-.3-1.312-1.608-2.269a13.9,13.9,0,0,0-12.069-1.681C545.235,120.865,544.457,121.59,544.593,122.044Z" transform="translate(-544.577 -119.61)" fill="#263238"/>
                                            </g>
                                          </g>
                                        </g>
                                      </g>
                                    </g>
                                  </g>
                                </g>
                              </g>
                            </g>
                          </g>
                        </g>
                      </g>
                    </g>
                  </g>
                </g>
                <g id="Grupo_1004967" data-name="Grupo 1004967" transform="translate(1.538)">
                  <g id="Grupo_1004966" data-name="Grupo 1004966">
                    <g id="Grupo_1004965" data-name="Grupo 1004965">
                      <g id="Grupo_1004964" data-name="Grupo 1004964">
                        <g id="Grupo_1004963" data-name="Grupo 1004963">
                          <g id="Grupo_1004962" data-name="Grupo 1004962">
                            <g id="Grupo_1004961" data-name="Grupo 1004961">
                              <g id="Grupo_1004960" data-name="Grupo 1004960">
                                <g id="Grupo_1004959" data-name="Grupo 1004959">
                                  <g id="Grupo_1004958" data-name="Grupo 1004958">
                                    <g id="Grupo_1004957" data-name="Grupo 1004957">
                                      <g id="Grupo_1004956" data-name="Grupo 1004956">
                                        <g id="Grupo_1004955" data-name="Grupo 1004955">
                                          <g id="Grupo_1004954" data-name="Grupo 1004954">
                                            <g id="Grupo_1004953" data-name="Grupo 1004953">
                                              <path id="Trazado_712681" data-name="Trazado 712681" d="M524.634,122.931c.593.81,3.022.055,5.918.1,2.9-.059,5.331.685,5.918-.13.26-.4-.1-1.2-1.154-1.983a8.573,8.573,0,0,0-9.537.024C524.734,121.728,524.374,122.535,524.634,122.931Z" transform="translate(-524.553 -119.481)" fill="#263238"/>
                                            </g>
                                          </g>
                                        </g>
                                      </g>
                                    </g>
                                  </g>
                                </g>
                              </g>
                            </g>
                          </g>
                        </g>
                      </g>
                    </g>
                  </g>
                </g>
              </g>
            </g>
          </g>
        </g>
        <g id="Grupo_1004974" data-name="Grupo 1004974" transform="translate(70.847 103.773)">
          <g id="Grupo_1004973" data-name="Grupo 1004973">
            <g id="Grupo_1004972" data-name="Grupo 1004972">
              <path id="Trazado_712682" data-name="Trazado 712682" d="M547.45,151.109a6.648,6.648,0,0,1-3.32,10.387,3.889,3.889,0,0,1-2.5.04c-1.4-.53-2.1-2.07-2.66-3.462q-.7-1.737-1.389-3.477a1.165,1.165,0,0,1,1-1.875l8.616-2.076" transform="translate(-537.365 -150.645)" fill="#8b4a41"/>
            </g>
          </g>
        </g>
        <g id="Grupo_1004977" data-name="Grupo 1004977" transform="translate(68.97 102.444)">
          <g id="Grupo_1004976" data-name="Grupo 1004976">
            <g id="Grupo_1004975" data-name="Grupo 1004975">
              <path id="Trazado_712683" data-name="Trazado 712683" d="M541.721,162c.008.093,1.668.288,4.283-.538a6.72,6.72,0,0,0,3.752-3.048,5.046,5.046,0,0,0,.574-2.918,8.512,8.512,0,0,0-.747-3.015,7.857,7.857,0,0,0-1.772-2.451l-.249-.229-.313.109c-6.241,2.2-11.123,3.317-11.071,3.584s5.073-.4,11.433-2.535l-.56-.119a6.993,6.993,0,0,1,1.5,2.114c.717,1.685,1,3.635.277,4.978a6.187,6.187,0,0,1-3.124,2.785C543.366,161.675,541.678,161.8,541.721,162Z" transform="translate(-536.179 -149.805)" fill="#263238"/>
            </g>
          </g>
        </g>
        <g id="Grupo_1004980" data-name="Grupo 1004980" transform="translate(26.09 14.552)">
          <g id="Grupo_1004979" data-name="Grupo 1004979">
            <g id="Grupo_1004978" data-name="Grupo 1004978">
              <path id="Trazado_712684" data-name="Trazado 712684" d="M510.831,133.422a17.392,17.392,0,0,1,6.678-9.582c1.824-1.188,3.943-1.912,5.637-3.28,3.66-2.953,4.507-8.094,6.766-12.218a19.126,19.126,0,0,1,14.568-9.665c5.018-.513,10.188.994,15.077-.239,3.616-.911,6.773-3.258,10.436-3.954,7.132-1.356,13.762,3.763,18.934,8.858.019,5.1-4.048,8.52-7.964,11.8a17.708,17.708,0,0,1-14.337,3.784c-3.9-.712-8.167-2.682-11.539-.606-3.548,2.184-3.695,7.531-6.841,10.262-4.5,3.9-11.645.241-17.353,1.934-4.407,1.307-7.16,5.519-10.089,9.064s-7.314,6.914-11.723,5.607A51.733,51.733,0,0,1,510.831,133.422Z" transform="translate(-509.081 -94.262)" fill="#263238"/>
            </g>
          </g>
        </g>
        <g id="Grupo_1004983" data-name="Grupo 1004983" transform="translate(81.29 16.582)">
          <g id="Grupo_1004982" data-name="Grupo 1004982">
            <g id="Grupo_1004981" data-name="Grupo 1004981">
              <path id="Trazado_712685" data-name="Trazado 712685" d="M544.068,111.1c3.2-.915,9.74-2.984,11.455-5.758,3.724-6.023,10.29-10.135,17-9.77a16.131,16.131,0,0,1,14.523,12.751c8.118.06,16.039,5.16,19.935,12.832a24.338,24.338,0,0,1,1.266,2.977,17.645,17.645,0,0,1,1.18,14.815c-1.106,2.888-2.991,6.1-1.5,8.812,1.511,2.76,5.333,2.847,8.308,3.872a11.718,11.718,0,0,1,7.382,13.087c-.415,1.923-1.332,3.841-.932,5.765.416,2,2.131,3.416,3.447,4.981a14.582,14.582,0,0,1-8.552,23.735c-2.274.413-4.739.318-6.709,1.53-2.256,1.389-3.245,4.1-4.838,6.224a12.582,12.582,0,0,1-13.631,4.269,11.582,11.582,0,0,1-2.739-1.378c-1.524,2.112-3.913,3.543-8,3.543l.938-53.387a4.418,4.418,0,0,1-3.236,2.537c-8.567,1.938-9.82-15.72-7.909-20.507a49.872,49.872,0,0,1-8.6-9.04c-2.364-3.5-4.447-13.03-3.943-17.323C555.821,115.843,542.665,111.5,544.068,111.1Z" transform="translate(-543.964 -95.545)" fill="#263238"/>
            </g>
          </g>
        </g>
        <g id="Grupo_1004994" data-name="Grupo 1004994" transform="translate(117.419 80.092)">
          <g id="Grupo_1004993" data-name="Grupo 1004993">
            <g id="Grupo_1004992" data-name="Grupo 1004992">
              <g id="Grupo_1004991" data-name="Grupo 1004991">
                <g id="Grupo_1004990" data-name="Grupo 1004990">
                  <g id="Grupo_1004989" data-name="Grupo 1004989">
                    <g id="Grupo_1004988" data-name="Grupo 1004988">
                      <g id="Grupo_1004987" data-name="Grupo 1004987">
                        <g id="Grupo_1004986" data-name="Grupo 1004986">
                          <g id="Grupo_1004985" data-name="Grupo 1004985">
                            <g id="Grupo_1004984" data-name="Grupo 1004984">
                              <path id="Trazado_712686" data-name="Trazado 712686" d="M566.938,140.96c.271-5.426,6.911-6.586,11.615-3.867,2.582,1.492,4.557,4.494,4.32,10.256-.633,15.362-15.925,11.558-15.935,11.116C566.934,158.191,566.62,147.315,566.938,140.96Z" transform="translate(-566.796 -135.68)" fill="#e7ada7"/>
                            </g>
                          </g>
                        </g>
                      </g>
                    </g>
                  </g>
                </g>
              </g>
            </g>
          </g>
        </g>
        <g id="Grupo_1005006" data-name="Grupo 1005006" transform="translate(122.478 85.212)">
          <g id="Grupo_1005005" data-name="Grupo 1005005">
            <g id="Grupo_1005004" data-name="Grupo 1005004">
              <g id="Grupo_1005003" data-name="Grupo 1005003">
                <g id="Grupo_1005002" data-name="Grupo 1005002">
                  <g id="Grupo_1005001" data-name="Grupo 1005001">
                    <g id="Grupo_1005000" data-name="Grupo 1005000">
                      <g id="Grupo_1004999" data-name="Grupo 1004999">
                        <g id="Grupo_1004998" data-name="Grupo 1004998">
                          <g id="Grupo_1004997" data-name="Grupo 1004997">
                            <g id="Grupo_1004996" data-name="Grupo 1004996">
                              <g id="Grupo_1004995" data-name="Grupo 1004995">
                                <path id="Trazado_712687" data-name="Trazado 712687" d="M570.009,150.954c.07-.046.261.2.7.424a2.676,2.676,0,0,0,2,.123c1.647-.529,3.12-3.049,3.309-5.815a8.827,8.827,0,0,0-.592-3.861,3.091,3.091,0,0,0-1.927-2.138,1.363,1.363,0,0,0-1.609.668c-.225.421-.139.733-.222.755-.044.036-.32-.271-.169-.9a1.7,1.7,0,0,1,.644-.937,2.018,2.018,0,0,1,1.5-.331,3.765,3.765,0,0,1,2.7,2.5,9.08,9.08,0,0,1,.752,4.32c-.226,3.092-1.931,5.923-4.178,6.474a2.87,2.87,0,0,1-2.431-.506C570.021,151.325,569.955,150.979,570.009,150.954Z" transform="translate(-569.993 -138.916)" fill="#8b4a41"/>
                              </g>
                            </g>
                          </g>
                        </g>
                      </g>
                    </g>
                  </g>
                </g>
              </g>
            </g>
          </g>
        </g>
        <g id="Grupo_1005009" data-name="Grupo 1005009" transform="translate(102.542 27.978)">
          <g id="Grupo_1005008" data-name="Grupo 1005008">
            <g id="Grupo_1005007" data-name="Grupo 1005007">
              <path id="Trazado_712688" data-name="Trazado 712688" d="M557.4,102.754c-.114.163,1.548.44,3.063,2.567,1.522,2.092,2.094,6.1,1.13,10.623l-.082.389.378.093a14.854,14.854,0,0,1,9.9,8.719,11.578,11.578,0,0,1,.8,3.749,22.621,22.621,0,0,1-.481,4.059,30.567,30.567,0,0,0-.586,4.372,7.224,7.224,0,0,0,1.217,4.532c1.911,2.908,4.983,4.339,7.622,5.727a25.848,25.848,0,0,1,7.134,4.673,19.19,19.19,0,0,1,5.736,12.873,20.026,20.026,0,0,1-2.024,9.493c-1.021,2.1-1.877,3.1-1.79,3.162.028.024.253-.214.657-.69a16.328,16.328,0,0,0,1.508-2.277,19.5,19.5,0,0,0,2.416-9.708,19.76,19.76,0,0,0-5.8-13.561,26.422,26.422,0,0,0-7.353-4.909c-2.639-1.388-5.534-2.806-7.2-5.371-1.7-2.332-.94-5.379-.492-8.13a23.2,23.2,0,0,0,.473-4.263,12.491,12.491,0,0,0-.9-4.1,15.57,15.57,0,0,0-10.646-9.129l.3.483c.91-4.738.19-8.892-1.549-11.071a6.46,6.46,0,0,0-2.4-1.959A3.685,3.685,0,0,0,557.4,102.754Z" transform="translate(-557.394 -102.747)" fill="#455a64"/>
            </g>
          </g>
        </g>
      </g>
      <g id="Grupo_1005023" data-name="Grupo 1005023" transform="translate(691.895 323.51)">
        <g id="Grupo_1005013" data-name="Grupo 1005013" transform="translate(0 0)">
          <g id="Grupo_1005012" data-name="Grupo 1005012">
            <g id="Grupo_1005011" data-name="Grupo 1005011">
              <path id="Trazado_712689" data-name="Trazado 712689" d="M618.213,246.734s-8.482,6.186-10.955,7.246-9.012,6.891-10.6,12.9-5.833,9.012-7.246,11.84-1.413,14.49-1.237,17.316-8.482,9.542-9.012,10.779-1.236,4.241,1.06,4.948,4.771.353,6.009-.883,6.361-5.656,6.361-5.656-.53,5.478,1.237,5.831a18.259,18.259,0,0,0,4.592,0l6.54-9.719s1.59,6.891,4.418,6.186,4.594-1.415,4.948-5.656a41.636,41.636,0,0,1,2.3-9.365v-3.535s3.711,4.6,6.539,3.888,4.064-2.12,4.241-3.181-.883-7.952-1.768-11.132a78.084,78.084,0,0,0-3.534-8.836s-1.59-7.774.177-10.778,11.662-11.487,12.9-14.314,3-7.067-1.237-8.659S624.315,242.45,618.213,246.734Z" transform="translate(-578.627 -235.75)" fill="#e7ada7"/>
            </g>
          </g>
        </g>
        <g id="Grupo_1005016" data-name="Grupo 1005016" transform="translate(18.855 35.02)">
          <g id="Grupo_1005015" data-name="Grupo 1005015">
            <g id="Grupo_1005014" data-name="Grupo 1005014">
              <path id="Trazado_712690" data-name="Trazado 712690" d="M590.547,257.908c-.07.1.59.736,1.891,1.419a14.17,14.17,0,0,0,11.161.661c1.373-.524,2.1-1.075,2.044-1.185-.119-.293-3.369,1.261-7.632.97C593.745,259.56,590.7,257.631,590.547,257.908Z" transform="translate(-590.542 -257.881)" fill="#8b4a41"/>
            </g>
          </g>
        </g>
        <g id="Grupo_1005019" data-name="Grupo 1005019" transform="translate(14.515 61.336)">
          <g id="Grupo_1005018" data-name="Grupo 1005018">
            <g id="Grupo_1005017" data-name="Grupo 1005017">
              <path id="Trazado_712691" data-name="Trazado 712691" d="M587.838,283.357c.223.158,1.646-1.541,2.571-4.075s.957-4.747.684-4.771c-.294-.036-.763,2.013-1.655,4.413C588.563,281.33,587.59,283.194,587.838,283.357Z" transform="translate(-587.799 -274.511)" fill="#8b4a41"/>
            </g>
          </g>
        </g>
        <g id="Grupo_1005022" data-name="Grupo 1005022" transform="translate(26.078 56.796)">
          <g id="Grupo_1005021" data-name="Grupo 1005021">
            <g id="Grupo_1005020" data-name="Grupo 1005020">
              <path id="Trazado_712692" data-name="Trazado 712692" d="M595.172,280.725c.247.119,1.343-1.756,1.842-4.355s.2-4.746-.076-4.728c-.3.006-.451,2.065-.94,4.53C595.527,278.641,594.9,280.608,595.172,280.725Z" transform="translate(-595.106 -271.642)" fill="#8b4a41"/>
            </g>
          </g>
        </g>
      </g>
    </g>
    <rect id="Rectángulo_346813" data-name="Rectángulo 346813" width="400" height="14" transform="translate(1020 4441)" fill="#4db1f0"/>
  </g>
</svg>
