<svg xmlns="http://www.w3.org/2000/svg" width="172" height="172" viewBox="0 0 172 172">
  <g id="Grupo_1013246" data-name="Grupo 1013246" transform="translate(3493 9505)">
    <g id="Elipse_8413" data-name="Elipse 8413" transform="translate(-3493 -9505)" fill="#fff" stroke="#4db1f0" stroke-width="6">
      <circle cx="86" cy="86" r="86" stroke="none"/>
      <circle cx="86" cy="86" r="83" fill="none"/>
    </g>
    <g id="manual_scales_1" data-name="manual scales 1" transform="translate(-3473.172 -9414.307) rotate(-47)">
      <g id="manual_scales_1-2" data-name="manual scales 1" transform="translate(0 0)">
        <g id="Grupo_1007909" data-name="Grupo 1007909" transform="translate(73.35)">
          <path id="Trazado_713842" data-name="Trazado 713842" d="M.082,12.889A14.407,14.407,0,0,1,25.615,5.354,14.407,14.407,0,0,1,12.889,28.736,14.407,14.407,0,0,1,.082,12.889ZM6.525,4.653a12.544,12.544,0,1,0,17.64,1.872A12.558,12.558,0,0,0,6.525,4.653Z" fill="gray"/>
          <path id="Trazado_713843" data-name="Trazado 713843" d="M.08,12.5A13.972,13.972,0,0,1,24.842,5.192,13.973,13.973,0,0,1,12.5,27.869,13.972,13.972,0,0,1,.08,12.5ZM5.817,3.88A12.979,12.979,0,1,0,24.069,5.817,12.993,12.993,0,0,0,5.817,3.88Z" transform="translate(0.435 0.435)" fill="gray" opacity="0.2" style="mix-blend-mode: screen;isolation: isolate"/>
          <path id="Trazado_713844" data-name="Trazado 713844" d="M.078,12.278A13.724,13.724,0,0,1,24.4,5.1,13.724,13.724,0,0,1,12.277,27.373a13.725,13.725,0,0,1-12.2-15.1Zm5.334-8.84a13.227,13.227,0,1,0,18.6,1.974A13.242,13.242,0,0,0,5.412,3.438Z" transform="translate(0.684 0.684)" fill="gray" opacity="0.2" style="mix-blend-mode: screen;isolation: isolate"/>
        </g>
        <g id="Grupo_1007911" data-name="Grupo 1007911" transform="translate(11.403 65.902)">
          <g id="Grupo_1007910" data-name="Grupo 1007910">
            <path id="Trazado_713845" data-name="Trazado 713845" d="M8.737.208.346,6.988A.932.932,0,0,0,1.518,8.438l8.391-6.78A.932.932,0,0,0,8.737.208Z" fill="#7a7a7a"/>
            <path id="Trazado_713846" data-name="Trazado 713846" d="M.138,7.793a.621.621,0,0,0,.874.092L9.4,1.1A.621.621,0,0,0,8.622.138L.231,6.919A.622.622,0,0,0,.138,7.793Z" transform="translate(0.311 0.311)" fill="gray" opacity="0.2" style="mix-blend-mode: multiply;isolation: isolate"/>
            <path id="Trazado_713847" data-name="Trazado 713847" d="M.069,7.287a.311.311,0,0,0,.437.046L8.9.553a.311.311,0,1,0-.39-.483L.115,6.85A.311.311,0,0,0,.069,7.287Z" transform="translate(0.621 0.621)" fill="gray" opacity="0.2" style="mix-blend-mode: multiply;isolation: isolate"/>
          </g>
          <path id="Trazado_713848" data-name="Trazado 713848" d="M5.517,0c-.472.332-.933.678-1.389,1.029-.229.175-.454.354-.682.531L2.771,2.1,2.1,2.646c-.221.185-.444.367-.662.555l-.329.281a1.067,1.067,0,0,1-.355.2.668.668,0,0,1-.4.02A.8.8,0,0,1,0,3.477a.769.769,0,0,0,.337.274.734.734,0,0,0,.445.02,1.175,1.175,0,0,0,.407-.194l.343-.263c.229-.174.454-.354.681-.531l.675-.539L3.557,1.7c.221-.185.443-.368.662-.556C4.658.77,5.093.392,5.517,0Z" transform="translate(0.376 4.535)" fill="#606060"/>
          <path id="Trazado_713849" data-name="Trazado 713849" d="M.551.208,0,.653a2.114,2.114,0,0,0,.034.372,2.027,2.027,0,0,0,.088.328A1.984,1.984,0,0,0,.431,1.9a2.258,2.258,0,0,0,.21.23,2.121,2.121,0,0,0,.246.2l.837-.676A.932.932,0,0,0,.551.208Z" transform="translate(8.186)" fill="#7a7a7a" opacity="0.2" style="mix-blend-mode: multiply;isolation: isolate"/>
        </g>
        <g id="Grupo_1007912" data-name="Grupo 1007912" transform="translate(23.984 60.884)">
          <rect id="Rectángulo_346992" data-name="Rectángulo 346992" width="6.488" height="0.994" transform="translate(0 4.078) rotate(-38.943)" fill="#59719c"/>
          <rect id="Rectángulo_346993" data-name="Rectángulo 346993" width="6.488" height="0.497" transform="matrix(0.778, -0.629, 0.629, 0.778, 0.195, 4.32)" fill="#59719c" opacity="0.2" style="mix-blend-mode: screen;isolation: isolate"/>
          <rect id="Rectángulo_346994" data-name="Rectángulo 346994" width="6.488" height="0.249" transform="translate(0.299 4.478) rotate(-38.941)" fill="#59719c" opacity="0.2" style="mix-blend-mode: screen;isolation: isolate"/>
        </g>
        <path id="Trazado_713850" data-name="Trazado 713850" d="M47.208.578.965,37.948a2.6,2.6,0,0,0-.7,3.159l.333.685a2.606,2.606,0,0,1,.254.932,2.6,2.6,0,0,1-.1.96,2.6,2.6,0,0,0,.465,2.388l.567.7a2.6,2.6,0,0,1,.569,1.417L2.5,49.976a3.106,3.106,0,0,0,2.193,2.713L6.4,53.21a2.6,2.6,0,0,1,1.266.854l.567.7a2.6,2.6,0,0,0,2.238.956,2.6,2.6,0,0,1,1.818.544l.6.469a2.6,2.6,0,0,0,3.236-.024L62.37,19.34a2.6,2.6,0,0,0,.735-3.092l-.343-.759a2.6,2.6,0,0,1-.219-1.311l.081-.87a2.6,2.6,0,0,0-.566-1.874l-.291-.36A2.6,2.6,0,0,1,61.19,9.5l-.054-2.24A3.107,3.107,0,0,0,58.75,4.314L56.579,3.8A2.6,2.6,0,0,1,55.163,2.9l-.29-.36A2.6,2.6,0,0,0,53.159,1.6l-.867-.1A2.6,2.6,0,0,1,51.056,1L50.385.508A2.6,2.6,0,0,0,47.208.578Z" transform="translate(23.379 11.975)" fill="#cacccf"/>
        <path id="Trazado_713851" data-name="Trazado 713851" d="M47.208.578.965,37.948a2.6,2.6,0,0,0-.7,3.159l.333.685a2.606,2.606,0,0,1,.254.932,2.6,2.6,0,0,1-.1.96,2.6,2.6,0,0,0,.465,2.388l.567.7a2.6,2.6,0,0,1,.569,1.417L2.5,49.976a3.106,3.106,0,0,0,2.193,2.713L6.4,53.21a2.6,2.6,0,0,1,1.266.854l.567.7a2.6,2.6,0,0,0,2.238.956,2.6,2.6,0,0,1,1.818.544l.6.469a2.6,2.6,0,0,0,3.236-.024L62.37,19.34a2.6,2.6,0,0,0,.735-3.092l-.343-.759a2.6,2.6,0,0,1-.219-1.311l.081-.87a2.6,2.6,0,0,0-.566-1.874l-.291-.36A2.6,2.6,0,0,1,61.19,9.5l-.054-2.24A3.107,3.107,0,0,0,58.75,4.314L56.579,3.8A2.6,2.6,0,0,1,55.163,2.9l-.29-.36A2.6,2.6,0,0,0,53.159,1.6l-.867-.1A2.6,2.6,0,0,1,51.056,1L50.385.508A2.6,2.6,0,0,0,47.208.578ZM47.4,1.3c.48-.388,1.3-.836,1.793-.47l.965.4c.535.395.736,1.168,1.4,1.247l.868.1c.353.042.88-.345,1.1-.069l.642.515c.53.656.747,1.3,1.567,1.5l2.138.749A1.866,1.866,0,0,1,59.3,7.052l.053,2.241a3.868,3.868,0,0,0,.853,2.323l.291.36a1.349,1.349,0,0,1,.3.979l-.081.87a3.849,3.849,0,0,0,.324,1.937l.343.759A1.357,1.357,0,0,1,61,18.134L14.753,55.5c-.494.4-.9-.015-1.4-.407l-.772-.56a3.622,3.622,0,0,0-2.665-.553c-.448.037-.8-.544-1.08-.895l-.521-.575A4,4,0,0,0,6.267,51.46L4.3,50.836c-.735-.224-1.1-.439-1.164-1.2l-.149-1.786a3.834,3.834,0,0,0-.841-2.094l-.567-.7A1.355,1.355,0,0,1,1.341,43.8a3.833,3.833,0,0,0-.222-2.8l-.333-.685a1.35,1.35,0,0,1,.367-1.649Z" transform="translate(23.379 11.975)" fill="#cacccf" opacity="0.4" style="mix-blend-mode: multiply;isolation: isolate"/>
        <path id="Trazado_713852" data-name="Trazado 713852" d="M47.208.578.965,37.948a2.6,2.6,0,0,0-.7,3.159l.333.685a2.606,2.606,0,0,1,.254.932,2.6,2.6,0,0,1-.1.96,2.6,2.6,0,0,0,.465,2.388l.567.7a2.6,2.6,0,0,1,.569,1.417L2.5,49.976a3.106,3.106,0,0,0,2.193,2.713L6.4,53.21a2.6,2.6,0,0,1,1.266.854l.567.7a2.6,2.6,0,0,0,2.238.956,2.6,2.6,0,0,1,1.818.544l.6.469a2.6,2.6,0,0,0,3.236-.024L62.37,19.34a2.6,2.6,0,0,0,.735-3.092l-.343-.759a2.6,2.6,0,0,1-.219-1.311l.081-.87a2.6,2.6,0,0,0-.566-1.874l-.291-.36A2.6,2.6,0,0,1,61.19,9.5l-.054-2.24A3.107,3.107,0,0,0,58.75,4.314L56.579,3.8A2.6,2.6,0,0,1,55.163,2.9l-.29-.36A2.6,2.6,0,0,0,53.159,1.6l-.867-.1A2.6,2.6,0,0,1,51.056,1L50.385.508A2.6,2.6,0,0,0,47.208.578Zm1.017,1.654A1.357,1.357,0,0,1,49.884,2.2l.67.495a3.849,3.849,0,0,0,1.826.723l.868.1a1.349,1.349,0,0,1,.895.494l.29.36a3.861,3.861,0,0,0,2.093,1.321L58.7,6.21A1.867,1.867,0,0,1,60.13,7.979l.053,2.241c.021.842.681,1.015,1.211,1.671l.27.684c.224.277-.009.952-.041,1.307l-.081.87c-.061.661.433,1.256.707,1.862l-.041.835a1.357,1.357,0,0,1-.384,1.614L15.583,56.431a1.35,1.35,0,0,1-1.689.012l-.6-.469a3.829,3.829,0,0,0-2.688-.8,1.356,1.356,0,0,1-1.168-.5l-.567-.7A3.831,3.831,0,0,0,7,52.709l-1.715-.521A1.755,1.755,0,0,1,4.1,50.54L4,48.651a4.563,4.563,0,0,0-.584-2.385l-.538-.639c-.263-.361-.637-.535-.595-.889A5.414,5.414,0,0,0,2.265,41.8l-.22-.574C1.767,40.654,1.489,40,1.983,39.6Z" transform="translate(23.379 11.975)" fill="#cacccf" opacity="0.3" style="mix-blend-mode: screen;isolation: isolate"/>
        <path id="Trazado_713853" data-name="Trazado 713853" d="M2.5,51.321l-.15-1.786a1.351,1.351,0,0,0-.3-.74l-.567-.7A3.838,3.838,0,0,1,.8,44.564a1.353,1.353,0,0,0-.078-.988l-.333-.685a3.824,3.824,0,0,1,1.04-4.669L47.674.853a3.843,3.843,0,0,1,4.7-.1l.67.495a1.358,1.358,0,0,0,.645.255l.867.1A3.822,3.822,0,0,1,57.085,3l.291.36a1.362,1.362,0,0,0,.737.466l2.171.517a4.353,4.353,0,0,1,3.341,4.127l.054,2.241a1.364,1.364,0,0,0,.3.82l.291.36a3.822,3.822,0,0,1,.837,2.771l-.081.87a1.362,1.362,0,0,0,.115.684l.343.759a3.843,3.843,0,0,1-1.087,4.57L18.155,58.917a3.824,3.824,0,0,1-4.783.036l-.6-.469a1.354,1.354,0,0,0-.949-.284,3.839,3.839,0,0,1-3.307-1.414l-.567-.7a1.353,1.353,0,0,0-.661-.445L5.573,55.12a4.328,4.328,0,0,1-3.07-3.8ZM62.047,13.1a3.861,3.861,0,0,1-.853-2.323l-.054-2.241a1.867,1.867,0,0,0-1.432-1.769l-2.173-.517a3.862,3.862,0,0,1-2.092-1.322l-.291-.36a1.349,1.349,0,0,0-.894-.494l-.867-.1h0a3.847,3.847,0,0,1-1.826-.723l-.67-.495a1.358,1.358,0,0,0-1.658.036L2.993,40.156A1.351,1.351,0,0,0,2.626,41.8l.333.685a3.831,3.831,0,0,1,.222,2.8,1.355,1.355,0,0,0,.243,1.247l.567.7a3.829,3.829,0,0,1,.84,2.094l.15,1.786A1.856,1.856,0,0,0,6.3,52.742l1.715.521a3.829,3.829,0,0,1,1.871,1.26l.567.7a1.355,1.355,0,0,0,1.168.5,3.831,3.831,0,0,1,2.688.8l.6.469a1.351,1.351,0,0,0,1.689-.013l46.243-37.37A1.358,1.358,0,0,0,63.219,18l-.343-.759a3.85,3.85,0,0,1-.324-1.937l.081-.87a1.349,1.349,0,0,0-.3-.979Z" transform="translate(22.132 10.733)" fill="#59719c"/>
        <path id="Trazado_713854" data-name="Trazado 713854" d="M2.5,50.648l-.15-1.786a1.972,1.972,0,0,0-.433-1.078l-.567-.7a3.218,3.218,0,0,1-.577-2.96,1.972,1.972,0,0,0-.114-1.44L.328,42A3.206,3.206,0,0,1,1.2,38.085L47.443.716A3.221,3.221,0,0,1,51.379.629l.67.494a1.979,1.979,0,0,0,.94.372l.867.1A3.2,3.2,0,0,1,55.98,2.773l.291.36a1.987,1.987,0,0,0,1.076.68l2.171.517a3.731,3.731,0,0,1,2.863,3.538l.054,2.241a1.987,1.987,0,0,0,.439,1.2l.291.36a3.2,3.2,0,0,1,.7,2.322l-.081.87a1.983,1.983,0,0,0,.167,1l.343.759a3.221,3.221,0,0,1-.911,3.831L17.142,57.813a3.205,3.205,0,0,1-4.01.031l-.6-.469a1.971,1.971,0,0,0-1.384-.414,3.218,3.218,0,0,1-2.773-1.185l-.567-.7a1.971,1.971,0,0,0-.963-.649L5.132,53.9A3.71,3.71,0,0,1,2.5,50.648ZM61.908,12.085a3.236,3.236,0,0,1-.715-1.947L61.14,7.9A2.489,2.489,0,0,0,59.23,5.539l-2.172-.517A3.24,3.24,0,0,1,55.3,3.914l-.291-.36a1.967,1.967,0,0,0-1.3-.721l-.868-.1a3.229,3.229,0,0,1-1.531-.606l-.67-.495a1.979,1.979,0,0,0-2.418.053L1.981,39.052a1.969,1.969,0,0,0-.535,2.4l.333.685a3.213,3.213,0,0,1,.186,2.344A1.976,1.976,0,0,0,2.318,46.3l.567.7a3.209,3.209,0,0,1,.7,1.755l.15,1.786a2.474,2.474,0,0,0,1.754,2.171l1.715.521a3.209,3.209,0,0,1,1.568,1.057l.567.7a1.977,1.977,0,0,0,1.7.728A3.211,3.211,0,0,1,13.3,56.4l.6.469a1.969,1.969,0,0,0,2.463-.019L62.6,19.478a1.979,1.979,0,0,0,.559-2.353l-.343-.759a3.228,3.228,0,0,1-.272-1.624l.081-.87a1.968,1.968,0,0,0-.431-1.427Z" transform="translate(22.754 11.354)" fill="#59719c" opacity="0.2" style="mix-blend-mode: screen;isolation: isolate"/>
        <path id="Trazado_713855" data-name="Trazado 713855" d="M2.5,50.311l-.15-1.786a2.282,2.282,0,0,0-.5-1.248l-.567-.7A2.908,2.908,0,0,1,.762,43.9,2.282,2.282,0,0,0,.63,42.237L.3,41.552a2.9,2.9,0,0,1,.788-3.536L47.327.646A2.911,2.911,0,0,1,50.884.568l.67.494a2.291,2.291,0,0,0,1.088.431h0l.868.1a2.9,2.9,0,0,1,1.918,1.061l.291.36a2.3,2.3,0,0,0,1.246.787l2.171.517A3.42,3.42,0,0,1,61.76,7.565l.054,2.24a2.3,2.3,0,0,0,.508,1.384l.291.36a2.9,2.9,0,0,1,.634,2.1l-.081.87a2.294,2.294,0,0,0,.193,1.154l.343.759a2.911,2.911,0,0,1-.823,3.461L16.636,57.261a2.9,2.9,0,0,1-3.623.028l-.6-.469a2.282,2.282,0,0,0-1.6-.479A2.908,2.908,0,0,1,8.307,55.27l-.567-.7a2.284,2.284,0,0,0-1.114-.751L4.911,53.3A3.4,3.4,0,0,1,2.5,50.311ZM61.839,11.579a2.926,2.926,0,0,1-.646-1.759l-.054-2.241a2.8,2.8,0,0,0-2.148-2.653L56.82,4.409a2.925,2.925,0,0,1-1.584-1l-.291-.36a2.278,2.278,0,0,0-1.509-.834l-.868-.1h0a2.917,2.917,0,0,1-1.383-.548l-.67-.494a2.29,2.29,0,0,0-2.8.062L1.474,38.5a2.278,2.278,0,0,0-.62,2.781l.333.684a2.9,2.9,0,0,1,.168,2.118,2.287,2.287,0,0,0,.41,2.1l.567.7a2.9,2.9,0,0,1,.636,1.586l.15,1.786A2.783,2.783,0,0,0,5.092,52.7l1.715.521a2.9,2.9,0,0,1,1.417.955l.567.7a2.287,2.287,0,0,0,1.97.842,2.9,2.9,0,0,1,2.036.609l.6.469a2.279,2.279,0,0,0,2.85-.022L62.489,19.408a2.29,2.29,0,0,0,.647-2.722l-.343-.759a2.915,2.915,0,0,1-.245-1.468l.081-.87a2.275,2.275,0,0,0-.5-1.65Z" transform="translate(23.065 11.664)" fill="#59719c" opacity="0.2" style="mix-blend-mode: screen;isolation: isolate"/>
        <g id="Grupo_1007933" data-name="Grupo 1007933" transform="translate(33.159 22.591)">
          <g id="Grupo_1007914" data-name="Grupo 1007914" transform="translate(0 0)">
            <g id="Grupo_1007913" data-name="Grupo 1007913">
              <rect id="Rectángulo_346995" data-name="Rectángulo 346995" width="0.321" height="11.771" transform="translate(34.581 0.202) rotate(-38.943)" fill="#666"/>
              <rect id="Rectángulo_346996" data-name="Rectángulo 346996" width="0.321" height="11.771" transform="translate(33.328 1.215) rotate(-38.941)" fill="#666"/>
              <rect id="Rectángulo_346997" data-name="Rectángulo 346997" width="0.321" height="11.771" transform="translate(31.741 2.497) rotate(-38.944)" fill="#666"/>
              <rect id="Rectángulo_346998" data-name="Rectángulo 346998" width="0.321" height="11.771" transform="matrix(0.778, -0.629, 0.629, 0.778, 30.154, 3.78)" fill="#666"/>
              <rect id="Rectángulo_346999" data-name="Rectángulo 346999" width="0.321" height="11.771" transform="translate(28.567 5.062) rotate(-38.942)" fill="#666"/>
              <rect id="Rectángulo_347000" data-name="Rectángulo 347000" width="0.321" height="11.771" transform="matrix(0.778, -0.629, 0.629, 0.778, 26.98, 6.345)" fill="#666"/>
              <rect id="Rectángulo_347001" data-name="Rectángulo 347001" width="0.321" height="11.771" transform="matrix(0.778, -0.629, 0.629, 0.778, 25.393, 7.627)" fill="#666"/>
              <rect id="Rectángulo_347002" data-name="Rectángulo 347002" width="0.321" height="11.771" transform="translate(23.806 8.91) rotate(-38.942)" fill="#666"/>
              <rect id="Rectángulo_347003" data-name="Rectángulo 347003" width="0.321" height="11.771" transform="translate(22.219 10.192) rotate(-38.942)" fill="#666"/>
              <rect id="Rectángulo_347004" data-name="Rectángulo 347004" width="0.321" height="11.771" transform="matrix(0.778, -0.629, 0.629, 0.778, 20.631, 11.475)" fill="#666"/>
              <rect id="Rectángulo_347005" data-name="Rectángulo 347005" width="0.321" height="11.771" transform="matrix(0.778, -0.629, 0.629, 0.778, 19.045, 12.757)" fill="#666"/>
              <rect id="Rectángulo_347006" data-name="Rectángulo 347006" width="0.321" height="11.771" transform="matrix(0.778, -0.629, 0.629, 0.778, 17.458, 14.04)" fill="#666"/>
              <rect id="Rectángulo_347007" data-name="Rectángulo 347007" width="0.321" height="11.771" transform="translate(15.87 15.322) rotate(-38.941)" fill="#666"/>
              <rect id="Rectángulo_347008" data-name="Rectángulo 347008" width="0.321" height="11.771" transform="matrix(0.778, -0.629, 0.629, 0.778, 14.284, 16.605)" fill="#666"/>
              <rect id="Rectángulo_347009" data-name="Rectángulo 347009" width="0.321" height="11.771" transform="matrix(0.778, -0.629, 0.629, 0.778, 12.697, 17.887)" fill="#666"/>
              <rect id="Rectángulo_347010" data-name="Rectángulo 347010" width="0.321" height="11.771" transform="matrix(0.778, -0.629, 0.629, 0.778, 11.109, 19.17)" fill="#666"/>
              <rect id="Rectángulo_347011" data-name="Rectángulo 347011" width="0.321" height="11.771" transform="translate(9.522 20.452) rotate(-38.94)" fill="#666"/>
              <rect id="Rectángulo_347012" data-name="Rectángulo 347012" width="0.321" height="11.771" transform="translate(7.935 21.735) rotate(-38.942)" fill="#666"/>
              <rect id="Rectángulo_347013" data-name="Rectángulo 347013" width="0.321" height="11.771" transform="translate(6.348 23.018) rotate(-38.942)" fill="#666"/>
              <rect id="Rectángulo_347014" data-name="Rectángulo 347014" width="0.321" height="11.771" transform="translate(4.761 24.3) rotate(-38.942)" fill="#666"/>
              <rect id="Rectángulo_347015" data-name="Rectángulo 347015" width="0.321" height="11.771" transform="translate(3.174 25.583) rotate(-38.942)" fill="#666"/>
              <rect id="Rectángulo_347016" data-name="Rectángulo 347016" width="0.321" height="11.771" transform="matrix(0.778, -0.629, 0.629, 0.778, 1.587, 26.865)" fill="#666"/>
              <rect id="Rectángulo_347017" data-name="Rectángulo 347017" width="0.321" height="11.771" transform="translate(0 28.148) rotate(-38.942)" fill="#666"/>
              <path id="Trazado_713856" data-name="Trazado 713856" d="M4.957,6.223l-.078-.1L.078.186,0,.089.11,0,.188.1l4.8,5.941.078.1Z" transform="translate(35.249 2.045)" fill="#666"/>
              <path id="Trazado_713857" data-name="Trazado 713857" d="M4.958,6.224l-.078-.1L.078.186,0,.09.111,0,.189.1l4.8,5.941.078.1Z" transform="translate(33.813 3.206)" fill="#666"/>
              <path id="Trazado_713858" data-name="Trazado 713858" d="M4.958,6.223l-.078-.1L.078.186,0,.089.11,0,.188.1l4.8,5.941.078.1Z" transform="translate(32.189 4.518)" fill="#666"/>
              <path id="Trazado_713859" data-name="Trazado 713859" d="M4.957,6.223l-.078-.1L.078.186,0,.089.11,0,.188.1l4.8,5.941.078.1Z" transform="translate(30.628 5.78)" fill="#666"/>
              <path id="Trazado_713860" data-name="Trazado 713860" d="M4.957,6.223l-.078-.1L.078.186,0,.089.11,0,.188.1l4.8,5.941.078.1Z" transform="translate(29.067 7.042)" fill="#666"/>
              <path id="Trazado_713861" data-name="Trazado 713861" d="M4.958,6.223l-.078-.1L.078.186,0,.089.11,0,.188.1l4.8,5.941.078.1Z" transform="translate(27.465 8.336)" fill="#666"/>
              <path id="Trazado_713862" data-name="Trazado 713862" d="M4.957,6.224l-.078-.1L.078.186,0,.09.111,0,.189.1l4.8,5.941.078.1Z" transform="translate(25.863 9.63)" fill="#666"/>
              <path id="Trazado_713863" data-name="Trazado 713863" d="M4.957,6.224l-.078-.1L.078.186,0,.089.111,0,.189.1l4.8,5.941.078.1Z" transform="translate(24.261 10.925)" fill="#666"/>
              <path id="Trazado_713864" data-name="Trazado 713864" d="M4.957,6.224l-.078-.1L.078.186,0,.09.111,0,.189.1l4.8,5.941.078.1Z" transform="translate(22.659 12.219)" fill="#666"/>
              <rect id="Rectángulo_347018" data-name="Rectángulo 347018" width="0.142" height="7.887" transform="translate(21.058 13.603) rotate(-38.939)" fill="#666"/>
              <path id="Trazado_713865" data-name="Trazado 713865" d="M4.957,6.224l-.078-.1L.078.186,0,.089.111,0,.189.1l4.8,5.941.078.1Z" transform="translate(19.518 14.757)" fill="#666"/>
              <path id="Trazado_713866" data-name="Trazado 713866" d="M4.957,6.224l-.078-.1L.078.186,0,.09.111,0,.189.1l4.8,5.941.078.1Z" transform="translate(17.916 16.052)" fill="#666"/>
              <path id="Trazado_713867" data-name="Trazado 713867" d="M4.957,6.223l-.078-.1L.078.186,0,.089.11,0,.188.1l4.8,5.941.078.1Z" transform="translate(16.315 17.347)" fill="#666"/>
              <path id="Trazado_713868" data-name="Trazado 713868" d="M4.957,6.224l-.078-.1L.078.186,0,.089.111,0,.189.1l4.8,5.941.078.1Z" transform="translate(14.775 18.59)" fill="#666"/>
              <path id="Trazado_713869" data-name="Trazado 713869" d="M4.957,6.224l-.078-.1L.078.186,0,.089.111,0,.189.1l4.8,5.941.078.1Z" transform="translate(13.174 19.885)" fill="#666"/>
              <path id="Trazado_713870" data-name="Trazado 713870" d="M4.957,6.223l-.078-.1L.078.186,0,.089.11,0,.188.1l4.8,5.94.078.1Z" transform="translate(11.572 21.179)" fill="#666"/>
              <path id="Trazado_713871" data-name="Trazado 713871" d="M4.957,6.224l-.078-.1L.078.186,0,.089.11,0,.188.1l4.8,5.941.078.1Z" transform="translate(9.97 22.474)" fill="#666"/>
              <path id="Trazado_713872" data-name="Trazado 713872" d="M4.957,6.224l-.078-.1L.078.186,0,.09.111,0,.189.1l4.8,5.941.078.1Z" transform="translate(8.368 23.768)" fill="#666"/>
              <path id="Trazado_713873" data-name="Trazado 713873" d="M4.957,6.224l-.078-.1L.078.186,0,.089.111,0,.189.1l4.8,5.941.078.1Z" transform="translate(6.767 25.062)" fill="#666"/>
              <path id="Trazado_713874" data-name="Trazado 713874" d="M4.957,6.224l-.078-.1L.078.186,0,.089.11,0,.188.1l4.8,5.941.078.1Z" transform="translate(5.228 26.306)" fill="#666"/>
              <path id="Trazado_713875" data-name="Trazado 713875" d="M4.957,6.224l-.078-.1L.078.186,0,.089.111,0,.189.1l4.8,5.941.078.1Z" transform="translate(3.626 27.601)" fill="#666"/>
              <rect id="Rectángulo_347019" data-name="Rectángulo 347019" width="0.142" height="7.887" transform="translate(2.024 28.984) rotate(-38.945)" fill="#666"/>
            </g>
            <rect id="Rectángulo_347020" data-name="Rectángulo 347020" width="51.166" height="3.401" transform="translate(1.044 32.642) rotate(-38.942)" fill="#666"/>
            <path id="Trazado_713876" data-name="Trazado 713876" d="M39.952.193.35,32.2l1.981,2.452-.193.156L0,32.16,39.8,0Z" transform="translate(1.044 0.482)" fill="#666" opacity="0.2" style="mix-blend-mode: screen;isolation: isolate"/>
            <path id="Trazado_713877" data-name="Trazado 713877" d="M39.651,2.617,37.63.117,37.776,0l2.138,2.645L.117,34.8,0,34.66Z" transform="translate(3.065 0.482)" fill="#666" opacity="0.2" style="mix-blend-mode: multiply;isolation: isolate"/>
          </g>
          <g id="Grupo_1007931" data-name="Grupo 1007931" transform="translate(1.822 1.444)">
            <rect id="Rectángulo_347021" data-name="Rectángulo 347021" width="51.166" height="0.994" transform="translate(0 32.16) rotate(-38.942)" fill="gray"/>
            <rect id="Rectángulo_347022" data-name="Rectángulo 347022" width="51.166" height="0.621" transform="translate(0.156 32.353) rotate(-38.942)" fill="gray" opacity="0.2" style="mix-blend-mode: screen;isolation: isolate"/>
            <rect id="Rectángulo_347023" data-name="Rectángulo 347023" width="51.166" height="0.311" transform="translate(0.293 32.522) rotate(-38.942)" fill="gray" opacity="0.4" style="mix-blend-mode: screen;isolation: isolate"/>
            <g id="Grupo_1007915" data-name="Grupo 1007915" transform="translate(35.415 1.113)">
              <path id="Trazado_713878" data-name="Trazado 713878" d="M1.035,0,0,.836A4.91,4.91,0,0,0,.252,2.223c.029.085.059.167.091.246s.058.141.088.208c.046.1.093.194.142.285.015.028.03.056.046.083s.041.074.063.109a4.805,4.805,0,0,0,.392.562,4.651,4.651,0,0,0,.325.362l.779-.629a3.639,3.639,0,0,1-.714-.927c-.02-.036-.04-.073-.058-.113s-.029-.056-.042-.086c-.045-.094-.087-.194-.125-.3-.027-.071-.052-.144-.074-.219s-.049-.172-.071-.262A4.281,4.281,0,0,1,1.035,0Z" fill="gray"/>
              <path id="Trazado_713879" data-name="Trazado 713879" d="M.645,0,0,.521a4.774,4.774,0,0,0,.223,1.41c.028.086.057.169.088.249s.056.142.087.21c.044.1.091.2.139.287.015.029.03.056.045.083s.041.074.062.11a4.584,4.584,0,0,0,.388.561,4.262,4.262,0,0,0,.329.364L1.848,3.4a3.822,3.822,0,0,1-.715-.926c-.021-.037-.04-.074-.06-.112s-.028-.056-.043-.085C.985,2.185.941,2.086.9,1.982.874,1.913.848,1.84.823,1.765S.771,1.6.749,1.506A4.388,4.388,0,0,1,.645,0Z" transform="translate(0.279 0.089)" fill="gray" opacity="0.2" style="mix-blend-mode: screen;isolation: isolate"/>
              <path id="Trazado_713880" data-name="Trazado 713880" d="M.322,0,0,.26A4.673,4.673,0,0,0,.2,1.691c.026.087.055.17.085.251s.055.143.085.211c.042.1.088.2.136.289l.044.084c.02.038.041.074.062.11A4.453,4.453,0,0,0,1,3.2a4.216,4.216,0,0,0,.332.365l.246-.2a4.129,4.129,0,0,1-.711-.93C.841,2.4.822,2.359.8,2.322s-.03-.056-.043-.085c-.046-.093-.091-.19-.132-.292C.6,1.875.571,1.8.546,1.729S.49,1.563.466,1.474A4.432,4.432,0,0,1,.322,0Z" transform="translate(0.483 0.185)" fill="gray" opacity="0.4" style="mix-blend-mode: screen;isolation: isolate"/>
            </g>
            <g id="Grupo_1007916" data-name="Grupo 1007916" transform="translate(33.115 2.972)">
              <path id="Trazado_713881" data-name="Trazado 713881" d="M1.035,0,0,.836A4.93,4.93,0,0,0,.252,2.223c.029.084.058.167.091.246s.058.141.088.208c.045.1.092.194.142.285.015.028.03.056.045.083s.042.073.063.109a4.9,4.9,0,0,0,.392.562,4.457,4.457,0,0,0,.326.362l.778-.629a3.645,3.645,0,0,1-.714-.927c-.02-.036-.039-.073-.058-.113s-.028-.056-.042-.086c-.045-.094-.087-.193-.125-.3-.027-.071-.052-.144-.074-.219s-.049-.172-.071-.263A4.269,4.269,0,0,1,1.035,0Z" fill="gray"/>
              <path id="Trazado_713882" data-name="Trazado 713882" d="M.645,0,0,.521a4.776,4.776,0,0,0,.223,1.41c.028.086.057.169.088.248s.056.143.087.21c.044.1.091.2.138.287.015.028.03.056.045.083s.041.074.062.109a4.588,4.588,0,0,0,.388.561,4.177,4.177,0,0,0,.329.364L1.848,3.4a3.845,3.845,0,0,1-.715-.926c-.02-.036-.04-.073-.059-.112L1.03,2.278C.985,2.184.941,2.086.9,1.982q-.041-.1-.078-.217C.8,1.682.771,1.6.749,1.506A4.357,4.357,0,0,1,.645,0Z" transform="translate(0.279 0.089)" fill="gray" opacity="0.2" style="mix-blend-mode: screen;isolation: isolate"/>
              <path id="Trazado_713883" data-name="Trazado 713883" d="M.323,0,0,.26A4.658,4.658,0,0,0,.2,1.691c.026.087.055.171.084.251s.055.143.085.211c.043.1.088.2.136.289l.045.084c.02.038.041.074.062.11A4.467,4.467,0,0,0,1,3.2a4.166,4.166,0,0,0,.332.365l.246-.2a4.137,4.137,0,0,1-.711-.93L.8,2.322.758,2.237c-.046-.092-.091-.19-.132-.293C.6,1.875.571,1.8.546,1.73S.491,1.562.466,1.474A4.43,4.43,0,0,1,.323,0Z" transform="translate(0.483 0.185)" fill="gray" opacity="0.4" style="mix-blend-mode: screen;isolation: isolate"/>
            </g>
            <g id="Grupo_1007917" data-name="Grupo 1007917" transform="translate(30.816 4.831)">
              <path id="Trazado_713884" data-name="Trazado 713884" d="M1.034,0,0,.836A4.9,4.9,0,0,0,.252,2.223q.042.127.091.246c.028.071.058.141.088.208.046.1.093.195.142.285.014.028.03.056.045.083s.042.073.063.109a4.9,4.9,0,0,0,.392.562,4.448,4.448,0,0,0,.326.362l.778-.628a3.656,3.656,0,0,1-.714-.927c-.019-.036-.039-.074-.058-.113s-.028-.056-.042-.086c-.045-.094-.087-.194-.125-.3-.027-.071-.052-.144-.075-.219s-.049-.172-.07-.262A4.261,4.261,0,0,1,1.034,0Z" fill="gray"/>
              <path id="Trazado_713885" data-name="Trazado 713885" d="M.645,0,0,.521a4.784,4.784,0,0,0,.223,1.41c.027.086.057.169.088.248s.056.143.086.21c.044.1.091.2.139.288.015.028.03.056.045.083s.041.074.062.109a4.6,4.6,0,0,0,.388.561,4.262,4.262,0,0,0,.329.364L1.848,3.4a3.845,3.845,0,0,1-.715-.926c-.02-.036-.04-.073-.059-.112L1.03,2.278C.985,2.184.941,2.086.9,1.982.874,1.913.848,1.84.823,1.765S.771,1.6.749,1.506A4.35,4.35,0,0,1,.645,0Z" transform="translate(0.279 0.09)" fill="gray" opacity="0.2" style="mix-blend-mode: screen;isolation: isolate"/>
              <path id="Trazado_713886" data-name="Trazado 713886" d="M.323,0,0,.261a4.664,4.664,0,0,0,.2,1.43c.026.087.055.171.085.251s.055.143.084.211c.043.1.089.2.137.289.014.029.029.057.044.084s.041.074.062.109A4.439,4.439,0,0,0,1,3.2a4.134,4.134,0,0,0,.332.365l.245-.2a4.169,4.169,0,0,1-.711-.93C.841,2.4.822,2.36.8,2.322L.758,2.237c-.046-.092-.091-.19-.132-.293C.6,1.875.571,1.8.546,1.73S.491,1.563.466,1.474A4.428,4.428,0,0,1,.323,0Z" transform="translate(0.482 0.185)" fill="gray" opacity="0.4" style="mix-blend-mode: screen;isolation: isolate"/>
            </g>
            <g id="Grupo_1007918" data-name="Grupo 1007918" transform="translate(28.516 6.689)">
              <path id="Trazado_713887" data-name="Trazado 713887" d="M1.034,0,0,.836A4.914,4.914,0,0,0,.252,2.223c.029.084.058.167.091.246s.058.141.088.208c.045.1.093.195.141.285.015.028.03.056.046.083s.042.073.063.109a4.835,4.835,0,0,0,.392.562,4.374,4.374,0,0,0,.326.362l.778-.629a3.637,3.637,0,0,1-.713-.927c-.02-.036-.039-.074-.058-.113s-.028-.056-.042-.086c-.045-.094-.087-.193-.125-.3-.027-.071-.052-.144-.074-.219s-.05-.172-.07-.263A4.279,4.279,0,0,1,1.034,0Z" fill="gray"/>
              <path id="Trazado_713888" data-name="Trazado 713888" d="M.645,0,0,.521a4.782,4.782,0,0,0,.223,1.41c.028.085.056.168.088.249s.056.142.086.21c.044.1.091.2.139.287.015.029.03.057.045.083s.041.074.062.11a4.675,4.675,0,0,0,.388.561,4.324,4.324,0,0,0,.329.363L1.847,3.4a3.85,3.85,0,0,1-.715-.927c-.02-.036-.04-.074-.06-.112s-.029-.056-.043-.085C.985,2.184.942,2.086.9,1.982.874,1.912.848,1.84.823,1.765S.771,1.6.749,1.506A4.351,4.351,0,0,1,.645,0Z" transform="translate(0.279 0.089)" fill="gray" opacity="0.2" style="mix-blend-mode: screen;isolation: isolate"/>
              <path id="Trazado_713889" data-name="Trazado 713889" d="M.323,0,0,.26a4.656,4.656,0,0,0,.2,1.43q.039.13.084.251c.027.073.055.143.085.211.043.1.089.2.137.289.014.029.029.057.044.084s.041.074.062.11A4.475,4.475,0,0,0,1,3.2a4.2,4.2,0,0,0,.332.365l.246-.2a4.131,4.131,0,0,1-.711-.93L.8,2.322C.788,2.294.772,2.265.759,2.237c-.046-.093-.091-.19-.133-.292C.6,1.875.572,1.8.546,1.729s-.055-.167-.08-.255A4.431,4.431,0,0,1,.323,0Z" transform="translate(0.482 0.185)" fill="gray" opacity="0.4" style="mix-blend-mode: screen;isolation: isolate"/>
            </g>
            <g id="Grupo_1007919" data-name="Grupo 1007919" transform="translate(26.215 8.548)">
              <path id="Trazado_713890" data-name="Trazado 713890" d="M1.035,0,0,.836A4.915,4.915,0,0,0,.252,2.223c.029.085.059.167.091.246s.057.142.088.209c.046.1.093.194.142.285.015.028.03.056.045.083s.042.074.063.109a4.843,4.843,0,0,0,.392.562,4.507,4.507,0,0,0,.325.362l.779-.629a3.621,3.621,0,0,1-.714-.927c-.02-.035-.04-.073-.058-.112s-.029-.056-.042-.086c-.045-.094-.087-.194-.125-.3-.027-.071-.052-.144-.074-.219s-.049-.172-.071-.262A4.269,4.269,0,0,1,1.035,0Z" fill="gray"/>
              <path id="Trazado_713891" data-name="Trazado 713891" d="M.645,0,0,.521a4.77,4.77,0,0,0,.223,1.41c.028.085.057.168.088.248s.056.142.087.209c.044.1.091.2.138.287.015.029.03.057.045.083l.062.11a4.58,4.58,0,0,0,.388.56,4.145,4.145,0,0,0,.329.364L1.847,3.4a3.842,3.842,0,0,1-.715-.927c-.021-.036-.041-.074-.06-.112L1.03,2.277C.985,2.185.941,2.086.9,1.982.874,1.913.848,1.84.823,1.766S.771,1.6.749,1.506A4.356,4.356,0,0,1,.645,0Z" transform="translate(0.279 0.09)" fill="gray" opacity="0.2" style="mix-blend-mode: screen;isolation: isolate"/>
              <path id="Trazado_713892" data-name="Trazado 713892" d="M.323,0,0,.26a4.674,4.674,0,0,0,.2,1.43c.026.087.055.171.085.251s.055.143.084.211c.043.1.089.2.136.289.014.029.03.057.044.084s.041.074.062.11A4.435,4.435,0,0,0,1,3.2a4.18,4.18,0,0,0,.332.365l.246-.2a4.131,4.131,0,0,1-.711-.93C.842,2.4.822,2.36.8,2.322S.772,2.266.759,2.237c-.046-.093-.091-.19-.133-.292C.6,1.875.571,1.8.546,1.73S.491,1.562.467,1.474A4.434,4.434,0,0,1,.323,0Z" transform="translate(0.483 0.186)" fill="gray" opacity="0.4" style="mix-blend-mode: screen;isolation: isolate"/>
            </g>
            <g id="Grupo_1007920" data-name="Grupo 1007920" transform="translate(23.915 10.407)">
              <path id="Trazado_713893" data-name="Trazado 713893" d="M1.035,0,0,.836A4.914,4.914,0,0,0,.252,2.223c.029.084.059.166.091.245s.058.142.088.209c.046.1.093.194.142.285.015.028.03.055.046.083s.041.073.063.109a4.943,4.943,0,0,0,.392.562,4.525,4.525,0,0,0,.326.362l.778-.629a3.648,3.648,0,0,1-.713-.927c-.02-.036-.039-.073-.058-.113s-.028-.056-.042-.086c-.045-.094-.087-.194-.125-.3-.027-.071-.052-.144-.074-.219s-.049-.172-.071-.263A4.275,4.275,0,0,1,1.035,0Z" fill="gray"/>
              <path id="Trazado_713894" data-name="Trazado 713894" d="M.645,0,0,.521a4.785,4.785,0,0,0,.223,1.41c.028.085.057.168.088.248s.056.142.087.209c.044.1.091.2.139.287.015.029.03.057.045.083s.041.074.062.11a4.644,4.644,0,0,0,.388.561,4.209,4.209,0,0,0,.329.363L1.847,3.4a3.852,3.852,0,0,1-.714-.927c-.021-.036-.04-.074-.06-.112L1.03,2.278C.985,2.185.941,2.087.9,1.982q-.041-.1-.078-.216C.8,1.682.771,1.6.749,1.506A4.353,4.353,0,0,1,.645,0Z" transform="translate(0.279 0.09)" fill="gray" opacity="0.2" style="mix-blend-mode: screen;isolation: isolate"/>
              <path id="Trazado_713895" data-name="Trazado 713895" d="M.322,0,0,.26A4.667,4.667,0,0,0,.2,1.691c.026.087.055.171.085.251s.055.143.084.211c.043.1.089.2.137.289.014.029.029.057.044.084s.041.074.062.11A4.419,4.419,0,0,0,1,3.2a4.154,4.154,0,0,0,.331.365l.246-.2a4.132,4.132,0,0,1-.711-.93C.841,2.4.822,2.36.8,2.322S.772,2.265.758,2.236c-.046-.092-.091-.19-.133-.292C.6,1.875.571,1.8.545,1.73S.49,1.563.466,1.474A4.44,4.44,0,0,1,.322,0Z" transform="translate(0.483 0.186)" fill="gray" opacity="0.4" style="mix-blend-mode: screen;isolation: isolate"/>
            </g>
            <g id="Grupo_1007921" data-name="Grupo 1007921" transform="translate(21.615 12.265)">
              <path id="Trazado_713896" data-name="Trazado 713896" d="M1.034,0,0,.836A4.9,4.9,0,0,0,.252,2.223q.043.127.091.246c.028.072.057.141.088.208q.068.149.142.284c.015.029.03.056.046.083s.041.074.063.109a4.869,4.869,0,0,0,.392.562,4.533,4.533,0,0,0,.326.362l.778-.629a3.634,3.634,0,0,1-.713-.927c-.02-.036-.04-.074-.058-.113s-.028-.056-.042-.086c-.045-.094-.087-.193-.125-.3-.027-.071-.052-.144-.074-.219s-.05-.172-.071-.263A4.27,4.27,0,0,1,1.034,0Z" fill="gray"/>
              <path id="Trazado_713897" data-name="Trazado 713897" d="M.645,0,0,.521a4.781,4.781,0,0,0,.223,1.41c.027.086.057.169.088.249s.056.142.087.209c.044.1.091.2.139.287.015.029.03.057.045.083l.062.11a4.621,4.621,0,0,0,.388.56,4.279,4.279,0,0,0,.329.364L1.848,3.4a3.817,3.817,0,0,1-.715-.927c-.02-.036-.04-.074-.06-.111L1.03,2.278C.985,2.185.942,2.086.9,1.982q-.041-.1-.078-.217C.8,1.682.771,1.595.749,1.506A4.373,4.373,0,0,1,.645,0Z" transform="translate(0.279 0.09)" fill="gray" opacity="0.2" style="mix-blend-mode: screen;isolation: isolate"/>
              <path id="Trazado_713898" data-name="Trazado 713898" d="M.322,0,0,.26A4.639,4.639,0,0,0,.2,1.691c.026.086.055.17.085.251s.055.143.084.211c.043.1.089.2.136.289l.045.083c.02.038.041.074.062.11a4.458,4.458,0,0,0,.385.56,4.229,4.229,0,0,0,.332.365l.246-.2a4.136,4.136,0,0,1-.711-.93C.841,2.4.821,2.36.8,2.321S.771,2.265.758,2.237C.712,2.144.667,2.046.625,1.944.6,1.875.571,1.8.545,1.73S.49,1.563.466,1.474A4.434,4.434,0,0,1,.322,0Z" transform="translate(0.483 0.186)" fill="gray" opacity="0.4" style="mix-blend-mode: screen;isolation: isolate"/>
            </g>
            <g id="Grupo_1007922" data-name="Grupo 1007922" transform="translate(19.315 14.124)">
              <path id="Trazado_713899" data-name="Trazado 713899" d="M1.035,0,0,.836A4.909,4.909,0,0,0,.252,2.223c.029.084.059.167.091.246s.057.141.088.208c.046.1.093.194.142.285.015.028.03.055.046.083s.041.073.063.109a4.87,4.87,0,0,0,.392.562,4.478,4.478,0,0,0,.326.362l.778-.628a3.655,3.655,0,0,1-.714-.927c-.02-.036-.04-.074-.058-.113s-.029-.056-.042-.086c-.045-.094-.087-.193-.125-.3-.027-.071-.052-.144-.074-.22s-.049-.172-.071-.263A4.271,4.271,0,0,1,1.035,0Z" fill="gray"/>
              <path id="Trazado_713900" data-name="Trazado 713900" d="M.645,0,0,.521a4.781,4.781,0,0,0,.223,1.41c.028.085.057.168.088.248s.056.142.087.209c.044.1.091.2.139.287.015.029.03.056.045.083s.041.074.062.109a4.582,4.582,0,0,0,.388.561,4.2,4.2,0,0,0,.329.364L1.848,3.4a3.833,3.833,0,0,1-.715-.926c-.02-.036-.039-.073-.059-.112L1.03,2.278C.984,2.184.941,2.086.9,1.982.874,1.913.848,1.84.823,1.766S.771,1.6.749,1.506A4.353,4.353,0,0,1,.645,0Z" transform="translate(0.279 0.09)" fill="gray" opacity="0.2" style="mix-blend-mode: screen;isolation: isolate"/>
              <path id="Trazado_713901" data-name="Trazado 713901" d="M.322,0,0,.26A4.632,4.632,0,0,0,.2,1.691c.026.087.055.171.085.251s.055.143.084.211c.043.1.089.2.136.289l.045.083c.02.038.041.074.062.11a4.457,4.457,0,0,0,.385.56,4.153,4.153,0,0,0,.332.365l.246-.2a4.125,4.125,0,0,1-.711-.93C.841,2.4.821,2.36.8,2.322S.771,2.266.758,2.237c-.046-.093-.09-.19-.132-.292C.6,1.875.571,1.8.545,1.73S.49,1.562.466,1.475A4.434,4.434,0,0,1,.322,0Z" transform="translate(0.483 0.186)" fill="gray" opacity="0.4" style="mix-blend-mode: screen;isolation: isolate"/>
            </g>
            <g id="Grupo_1007923" data-name="Grupo 1007923" transform="translate(17.016 15.983)">
              <path id="Trazado_713902" data-name="Trazado 713902" d="M1.034,0,0,.835A4.9,4.9,0,0,0,.252,2.222c.028.085.058.167.09.247s.058.14.088.208c.046.1.092.195.142.286.015.028.03.055.046.083s.042.073.063.109a4.85,4.85,0,0,0,.392.562,4.45,4.45,0,0,0,.326.362l.778-.629a3.631,3.631,0,0,1-.714-.927c-.02-.036-.039-.074-.058-.113s-.028-.056-.042-.086c-.045-.094-.087-.193-.125-.3q-.04-.106-.074-.219c-.026-.085-.049-.172-.071-.263A4.269,4.269,0,0,1,1.034,0Z" fill="gray"/>
              <path id="Trazado_713903" data-name="Trazado 713903" d="M.645,0,0,.521a4.78,4.78,0,0,0,.224,1.41c.028.085.056.168.088.249s.056.142.086.209c.044.1.091.2.139.288l.045.083c.02.037.041.074.062.109a4.573,4.573,0,0,0,.388.561,4.261,4.261,0,0,0,.329.364L1.848,3.4a3.862,3.862,0,0,1-.714-.927c-.021-.037-.04-.073-.06-.111L1.03,2.277C.985,2.184.942,2.085.9,1.981q-.041-.1-.078-.217C.8,1.681.772,1.6.749,1.506A4.378,4.378,0,0,1,.645,0Z" transform="translate(0.279 0.09)" fill="gray" opacity="0.2" style="mix-blend-mode: screen;isolation: isolate"/>
              <path id="Trazado_713904" data-name="Trazado 713904" d="M.323,0,0,.26A4.666,4.666,0,0,0,.2,1.692c.026.086.055.17.085.251s.055.144.084.211c.043.1.089.2.137.289.014.029.03.057.045.084s.041.074.062.11A4.457,4.457,0,0,0,1,3.2a4.276,4.276,0,0,0,.332.365l.245-.2a4.146,4.146,0,0,1-.71-.93Q.832,2.379.8,2.322C.787,2.295.772,2.266.758,2.237c-.045-.092-.09-.19-.131-.293C.6,1.875.571,1.8.545,1.73S.491,1.563.466,1.475A4.417,4.417,0,0,1,.323,0Z" transform="translate(0.483 0.185)" fill="gray" opacity="0.4" style="mix-blend-mode: screen;isolation: isolate"/>
            </g>
            <g id="Grupo_1007924" data-name="Grupo 1007924" transform="translate(14.715 17.842)">
              <path id="Trazado_713905" data-name="Trazado 713905" d="M1.034,0,0,.836A4.914,4.914,0,0,0,.252,2.223c.029.084.058.167.091.247s.058.141.088.208c.046.1.092.195.142.285.015.028.03.056.046.083s.042.073.063.109a4.826,4.826,0,0,0,.392.562,4.488,4.488,0,0,0,.326.362l.778-.629a3.637,3.637,0,0,1-.713-.928c-.02-.036-.039-.074-.059-.112l-.042-.085c-.044-.094-.086-.193-.125-.3q-.04-.105-.074-.219c-.026-.084-.049-.172-.07-.263A4.268,4.268,0,0,1,1.034,0Z" fill="gray"/>
              <path id="Trazado_713906" data-name="Trazado 713906" d="M.645,0,0,.521A4.764,4.764,0,0,0,.223,1.931c.028.085.057.169.088.249s.056.143.086.209c.044.1.091.2.139.288.015.028.03.057.045.083s.041.074.062.109a4.625,4.625,0,0,0,.388.561,4.207,4.207,0,0,0,.329.364L1.847,3.4a3.856,3.856,0,0,1-.714-.927c-.02-.036-.04-.073-.06-.111L1.03,2.278C.985,2.185.941,2.086.9,1.982q-.041-.1-.078-.216C.8,1.682.771,1.6.749,1.506A4.351,4.351,0,0,1,.645,0Z" transform="translate(0.279 0.089)" fill="gray" opacity="0.2" style="mix-blend-mode: screen;isolation: isolate"/>
              <path id="Trazado_713907" data-name="Trazado 713907" d="M.323,0,0,.26A4.669,4.669,0,0,0,.2,1.691c.026.087.055.17.085.251s.055.143.085.211c.043.1.089.2.137.289.014.029.03.057.045.084s.041.074.062.11A4.423,4.423,0,0,0,1,3.2a4.279,4.279,0,0,0,.331.365l.246-.2a4.135,4.135,0,0,1-.71-.93C.842,2.4.822,2.359.8,2.322S.772,2.265.758,2.236c-.046-.092-.091-.19-.132-.292q-.042-.1-.08-.215T.466,1.474A4.432,4.432,0,0,1,.323,0Z" transform="translate(0.483 0.185)" fill="gray" opacity="0.4" style="mix-blend-mode: screen;isolation: isolate"/>
            </g>
            <g id="Grupo_1007925" data-name="Grupo 1007925" transform="translate(12.415 19.7)">
              <path id="Trazado_713908" data-name="Trazado 713908" d="M1.035,0,0,.836A4.913,4.913,0,0,0,.252,2.223c.029.085.058.167.09.247s.058.141.088.208c.046.1.092.195.142.285.015.029.03.056.046.083s.042.073.063.109a4.923,4.923,0,0,0,.392.562,4.463,4.463,0,0,0,.326.362l.778-.629a3.647,3.647,0,0,1-.714-.928c-.02-.036-.039-.073-.058-.112s-.028-.056-.042-.086c-.045-.094-.087-.193-.125-.3-.027-.071-.052-.144-.074-.22s-.049-.171-.071-.262A4.271,4.271,0,0,1,1.035,0Z" fill="gray"/>
              <path id="Trazado_713909" data-name="Trazado 713909" d="M.645,0,0,.521a4.788,4.788,0,0,0,.223,1.41c.028.085.057.169.088.249s.056.143.086.21c.044.1.091.2.139.287.015.029.03.057.045.083s.041.074.062.109a4.681,4.681,0,0,0,.388.562,4.322,4.322,0,0,0,.329.363L1.847,3.4a3.84,3.84,0,0,1-.715-.926c-.02-.037-.04-.074-.06-.112s-.028-.056-.043-.085C.985,2.185.942,2.086.9,1.982q-.041-.1-.078-.217C.8,1.682.771,1.6.749,1.506A4.354,4.354,0,0,1,.645,0Z" transform="translate(0.279 0.09)" fill="gray" opacity="0.2" style="mix-blend-mode: screen;isolation: isolate"/>
              <path id="Trazado_713910" data-name="Trazado 713910" d="M.322,0,0,.26A4.662,4.662,0,0,0,.2,1.691c.026.087.055.171.085.251s.055.144.084.211c.043.1.089.2.137.289.014.029.03.057.045.084s.041.074.062.11a4.493,4.493,0,0,0,.385.56,4.241,4.241,0,0,0,.332.365l.246-.2a4.129,4.129,0,0,1-.711-.93L.8,2.322C.787,2.294.772,2.266.758,2.236c-.046-.093-.091-.19-.133-.292C.6,1.875.571,1.8.546,1.729S.49,1.563.466,1.474A4.442,4.442,0,0,1,.322,0Z" transform="translate(0.483 0.186)" fill="gray" opacity="0.4" style="mix-blend-mode: screen;isolation: isolate"/>
            </g>
            <g id="Grupo_1007926" data-name="Grupo 1007926" transform="translate(10.115 21.559)">
              <path id="Trazado_713911" data-name="Trazado 713911" d="M1.035,0,0,.836A4.91,4.91,0,0,0,.252,2.223c.029.085.059.166.091.246s.057.141.088.208c.046.1.093.194.142.285.015.028.03.056.046.083s.041.074.063.109a4.856,4.856,0,0,0,.392.562,4.562,4.562,0,0,0,.326.362l.778-.629a3.619,3.619,0,0,1-.714-.927c-.02-.036-.039-.073-.058-.112s-.029-.056-.042-.086c-.045-.094-.087-.193-.125-.3-.027-.071-.052-.144-.074-.219s-.049-.172-.071-.263A4.271,4.271,0,0,1,1.035,0Z" fill="gray"/>
              <path id="Trazado_713912" data-name="Trazado 713912" d="M.644,0,0,.521a4.784,4.784,0,0,0,.223,1.41c.028.085.057.168.088.248s.056.143.086.209c.044.1.091.2.139.288l.045.083c.021.037.041.074.062.109a4.557,4.557,0,0,0,.388.561,4.261,4.261,0,0,0,.329.364L1.847,3.4a3.868,3.868,0,0,1-.715-.927c-.02-.037-.04-.074-.06-.112L1.03,2.277C.985,2.185.941,2.086.9,1.982.874,1.913.848,1.839.823,1.766S.771,1.6.749,1.506A4.356,4.356,0,0,1,.644,0Z" transform="translate(0.279 0.09)" fill="gray" opacity="0.2" style="mix-blend-mode: screen;isolation: isolate"/>
              <path id="Trazado_713913" data-name="Trazado 713913" d="M.322,0,0,.26A4.676,4.676,0,0,0,.2,1.691c.026.086.055.17.085.251s.055.143.084.211c.043.1.089.2.137.289.014.029.03.057.045.084s.041.074.062.11A4.411,4.411,0,0,0,1,3.2a4.185,4.185,0,0,0,.332.365l.246-.2a4.135,4.135,0,0,1-.711-.93C.842,2.4.822,2.359.8,2.322S.772,2.265.758,2.237c-.046-.093-.091-.19-.133-.292C.6,1.875.571,1.8.546,1.729S.49,1.562.466,1.474A4.43,4.43,0,0,1,.322,0Z" transform="translate(0.483 0.186)" fill="gray" opacity="0.4" style="mix-blend-mode: screen;isolation: isolate"/>
            </g>
            <g id="Grupo_1007927" data-name="Grupo 1007927" transform="translate(7.815 23.418)">
              <path id="Trazado_713914" data-name="Trazado 713914" d="M1.035,0,0,.836A4.917,4.917,0,0,0,.252,2.224c.029.084.059.167.091.246s.057.142.088.208c.046.1.093.194.142.285.015.028.03.056.046.083s.041.074.063.109a4.871,4.871,0,0,0,.392.562,4.642,4.642,0,0,0,.326.363l.779-.629a3.628,3.628,0,0,1-.714-.927c-.02-.036-.04-.074-.058-.113s-.028-.056-.042-.085c-.045-.094-.087-.194-.125-.3-.027-.071-.052-.144-.074-.219s-.049-.171-.071-.262A4.277,4.277,0,0,1,1.035,0Z" fill="gray"/>
              <path id="Trazado_713915" data-name="Trazado 713915" d="M.645,0,0,.521a4.781,4.781,0,0,0,.223,1.41c.027.085.057.168.088.249s.056.142.086.209c.044.1.091.2.139.287.015.029.03.057.045.083s.041.074.062.11a4.741,4.741,0,0,0,.388.561,4.177,4.177,0,0,0,.329.363L1.848,3.4a3.811,3.811,0,0,1-.715-.926q-.031-.054-.06-.111c-.015-.028-.028-.056-.043-.085C.985,2.185.942,2.087.9,1.982q-.041-.1-.078-.216C.8,1.682.771,1.6.749,1.506A4.382,4.382,0,0,1,.645,0Z" transform="translate(0.279 0.09)" fill="gray" opacity="0.2" style="mix-blend-mode: screen;isolation: isolate"/>
              <path id="Trazado_713916" data-name="Trazado 713916" d="M.322,0,0,.26A4.667,4.667,0,0,0,.2,1.691c.026.087.055.17.085.251s.055.144.084.211c.043.1.089.2.136.29l.044.084c.02.038.041.074.062.109A4.457,4.457,0,0,0,1,3.2a4.283,4.283,0,0,0,.332.365l.246-.2a4.137,4.137,0,0,1-.711-.93C.842,2.4.822,2.36.8,2.322S.772,2.266.758,2.237c-.046-.093-.091-.19-.132-.292C.6,1.875.571,1.8.546,1.73S.491,1.563.466,1.475A4.431,4.431,0,0,1,.322,0Z" transform="translate(0.483 0.186)" fill="gray" opacity="0.4" style="mix-blend-mode: screen;isolation: isolate"/>
            </g>
            <g id="Grupo_1007928" data-name="Grupo 1007928" transform="translate(5.515 25.276)">
              <path id="Trazado_713917" data-name="Trazado 713917" d="M1.035,0,0,.836A4.9,4.9,0,0,0,.252,2.223q.043.127.091.247c.028.072.058.141.088.208.046.1.093.194.142.284.015.028.03.056.046.083s.041.074.063.109a4.923,4.923,0,0,0,.392.562,4.585,4.585,0,0,0,.326.362l.778-.629a3.644,3.644,0,0,1-.714-.927c-.02-.037-.039-.074-.058-.113s-.028-.056-.042-.085c-.045-.094-.087-.193-.125-.3-.027-.071-.051-.144-.074-.22s-.049-.172-.071-.262A4.271,4.271,0,0,1,1.035,0Z" fill="gray"/>
              <path id="Trazado_713918" data-name="Trazado 713918" d="M.645,0,0,.521a4.777,4.777,0,0,0,.224,1.41c.027.086.056.168.088.248s.056.143.086.21c.044.1.091.2.139.288.015.028.03.056.045.083s.041.074.062.109a4.531,4.531,0,0,0,.388.561,4.173,4.173,0,0,0,.329.363L1.848,3.4a3.829,3.829,0,0,1-.715-.927q-.031-.054-.06-.111L1.03,2.277C.985,2.185.941,2.086.9,1.982c-.027-.07-.053-.143-.078-.217s-.052-.17-.075-.259A4.38,4.38,0,0,1,.645,0Z" transform="translate(0.279 0.09)" fill="gray" opacity="0.2" style="mix-blend-mode: screen;isolation: isolate"/>
              <path id="Trazado_713919" data-name="Trazado 713919" d="M.322,0,0,.26A4.665,4.665,0,0,0,.2,1.691c.026.086.055.171.085.251s.055.143.084.211c.043.1.089.2.136.289l.045.084c.021.038.041.074.062.11A4.462,4.462,0,0,0,1,3.2a4.2,4.2,0,0,0,.331.365l.246-.2a4.131,4.131,0,0,1-.711-.93C.842,2.4.822,2.359.8,2.322S.772,2.265.758,2.237c-.046-.093-.091-.19-.132-.292q-.042-.1-.08-.215C.517,1.647.49,1.563.466,1.474A4.43,4.43,0,0,1,.322,0Z" transform="translate(0.483 0.186)" fill="gray" opacity="0.4" style="mix-blend-mode: screen;isolation: isolate"/>
            </g>
            <g id="Grupo_1007929" data-name="Grupo 1007929" transform="translate(3.215 27.135)">
              <path id="Trazado_713920" data-name="Trazado 713920" d="M1.035,0,0,.836A4.929,4.929,0,0,0,.252,2.223c.029.085.058.167.091.246s.058.141.088.208c.046.1.092.195.142.285.015.028.03.056.046.083s.042.073.063.109a4.9,4.9,0,0,0,.392.562,4.384,4.384,0,0,0,.326.362l.778-.628a3.642,3.642,0,0,1-.714-.928c-.02-.036-.039-.074-.058-.113s-.029-.056-.042-.086c-.045-.094-.087-.193-.125-.3-.027-.071-.051-.144-.074-.219s-.049-.172-.071-.263A4.274,4.274,0,0,1,1.035,0Z" fill="gray"/>
              <path id="Trazado_713921" data-name="Trazado 713921" d="M.645,0,0,.521A4.781,4.781,0,0,0,.223,1.931c.027.086.057.169.088.249s.056.142.086.209c.044.1.091.2.139.287.015.029.03.057.045.083l.062.11a4.664,4.664,0,0,0,.388.561,4.315,4.315,0,0,0,.329.364L1.848,3.4a3.843,3.843,0,0,1-.715-.926l-.059-.112c-.014-.027-.029-.056-.043-.085C.984,2.184.941,2.086.9,1.982.874,1.913.848,1.84.823,1.765S.771,1.6.749,1.506A4.352,4.352,0,0,1,.645,0Z" transform="translate(0.279 0.09)" fill="gray" opacity="0.2" style="mix-blend-mode: screen;isolation: isolate"/>
              <path id="Trazado_713922" data-name="Trazado 713922" d="M.323,0,0,.26A4.662,4.662,0,0,0,.2,1.691c.026.086.055.17.085.251s.055.144.085.211c.043.1.089.2.137.289.014.028.029.057.044.084s.041.074.062.109A4.48,4.48,0,0,0,1,3.2a4.1,4.1,0,0,0,.332.365l.245-.2a4.161,4.161,0,0,1-.711-.93L.8,2.322.758,2.237C.712,2.145.668,2.046.626,1.944.6,1.876.571,1.8.546,1.73S.491,1.562.466,1.475A4.429,4.429,0,0,1,.323,0Z" transform="translate(0.483 0.185)" fill="gray" opacity="0.4" style="mix-blend-mode: screen;isolation: isolate"/>
            </g>
            <g id="Grupo_1007930" data-name="Grupo 1007930" transform="translate(0.915 28.994)">
              <path id="Trazado_713923" data-name="Trazado 713923" d="M1.034,0,0,.835A4.909,4.909,0,0,0,.252,2.223c.028.084.058.167.09.247s.058.14.088.208c.046.1.093.194.142.285.015.028.03.055.045.083l.063.109a4.823,4.823,0,0,0,.392.562,4.45,4.45,0,0,0,.326.362l.778-.629a3.628,3.628,0,0,1-.714-.927c-.02-.036-.039-.073-.058-.113s-.029-.056-.042-.086c-.045-.094-.087-.193-.125-.3-.027-.071-.051-.144-.074-.219s-.049-.172-.071-.263A4.268,4.268,0,0,1,1.034,0Z" fill="gray"/>
              <path id="Trazado_713924" data-name="Trazado 713924" d="M.645,0,0,.521a4.785,4.785,0,0,0,.223,1.41c.028.085.057.169.088.249s.056.142.086.209c.044.1.091.2.139.288.015.028.03.056.045.083s.041.074.062.109a4.633,4.633,0,0,0,.388.561,4.262,4.262,0,0,0,.329.364L1.847,3.4a3.855,3.855,0,0,1-.715-.927c-.02-.036-.04-.074-.06-.111L1.03,2.278C.985,2.184.942,2.086.9,1.982c-.027-.07-.053-.143-.078-.217S.771,1.6.749,1.506A4.353,4.353,0,0,1,.645,0Z" transform="translate(0.279 0.089)" fill="gray" opacity="0.2" style="mix-blend-mode: screen;isolation: isolate"/>
              <path id="Trazado_713925" data-name="Trazado 713925" d="M.323,0,0,.261a4.656,4.656,0,0,0,.2,1.43c.026.087.055.171.085.251s.055.144.084.211c.043.1.089.2.137.289.014.029.029.057.044.084s.041.074.062.109A4.4,4.4,0,0,0,1,3.2a4.1,4.1,0,0,0,.332.364l.245-.2a4.139,4.139,0,0,1-.71-.93C.842,2.4.822,2.36.8,2.321s-.03-.055-.044-.084c-.046-.092-.09-.19-.132-.293C.6,1.875.571,1.8.546,1.73S.491,1.563.467,1.475A4.419,4.419,0,0,1,.323,0Z" transform="translate(0.482 0.185)" fill="gray" opacity="0.4" style="mix-blend-mode: screen;isolation: isolate"/>
            </g>
          </g>
          <g id="Grupo_1007932" data-name="Grupo 1007932" transform="translate(38.557 0.299)">
            <path id="Trazado_713926" data-name="Trazado 713926" d="M.11.81,3.4,4.885a.5.5,0,1,0,.773-.625L.884.185A.5.5,0,0,0,.11.81Z" fill="#59719c"/>
            <path id="Trazado_713927" data-name="Trazado 713927" d="M.069.506,3.363,4.582a.31.31,0,1,0,.483-.39L.552.115a.311.311,0,1,0-.483.39Z" transform="translate(0.186 0.186)" fill="#59719c" opacity="0.2" style="mix-blend-mode: screen;isolation: isolate"/>
            <path id="Trazado_713928" data-name="Trazado 713928" d="M.035.253,3.328,4.329a.155.155,0,0,0,.242-.2L.276.058a.155.155,0,0,0-.241.2Z" transform="translate(0.342 0.342)" fill="#59719c" opacity="0.2" style="mix-blend-mode: screen;isolation: isolate"/>
          </g>
          <rect id="Rectángulo_347024" data-name="Rectángulo 347024" width="0.672" height="3.401" transform="matrix(0.778, -0.629, 0.629, 0.778, 38.705, 2.207)" fill="#59719c"/>
          <rect id="Rectángulo_347025" data-name="Rectángulo 347025" width="0.373" height="3.401" transform="translate(38.918 2.036) rotate(-38.943)" fill="#59719c" opacity="0.15" style="mix-blend-mode: multiply;isolation: isolate"/>
          <rect id="Rectángulo_347026" data-name="Rectángulo 347026" width="0.186" height="3.401" transform="translate(39.039 1.938) rotate(-38.94)" fill="#59719c" opacity="0.2" style="mix-blend-mode: multiply;isolation: isolate"/>
        </g>
        <g id="Grupo_1007934" data-name="Grupo 1007934" transform="translate(19.926 64.362)">
          <path id="Trazado_713929" data-name="Trazado 713929" d="M.927.555A2.5,2.5,0,1,1,.554,4.07,2.5,2.5,0,0,1,.927.555Zm.625.772a1.506,1.506,0,1,0,2.117.225A1.508,1.508,0,0,0,1.552,1.328Z" fill="#59719c"/>
          <path id="Trazado_713930" data-name="Trazado 713930" d="M.858.513A2.313,2.313,0,1,1,.513,3.766,2.316,2.316,0,0,1,.858.513ZM1.249,1a1.692,1.692,0,1,0,2.38.252A1.694,1.694,0,0,0,1.249,1Z" transform="translate(0.186 0.186)" fill="#59719c" opacity="0.2" style="mix-blend-mode: screen;isolation: isolate"/>
          <path id="Trazado_713931" data-name="Trazado 713931" d="M.8.479A2.158,2.158,0,1,1,.479,3.514,2.161,2.161,0,0,1,.8.479ZM1,.72A1.848,1.848,0,1,0,3.594,1,1.849,1.849,0,0,0,1,.72Z" transform="translate(0.342 0.342)" fill="#59719c" opacity="0.2" style="mix-blend-mode: screen;isolation: isolate"/>
        </g>
        <g id="Grupo_1007935" data-name="Grupo 1007935" transform="translate(0 65.499)">
          <path id="Trazado_713932" data-name="Trazado 713932" d="M.662,21.97a3.625,3.625,0,0,0,.253.28,3.766,3.766,0,0,0,3.511.992L14.1,21.064a.932.932,0,0,0-.409-1.819L4.016,21.423a1.935,1.935,0,0,1-1.785-.493,1.048,1.048,0,0,1-.365-.863c.075-1.024,1.442-2.26,1.922-2.618C4.566,16.891,20.83,5.18,22.618,3.734a2.2,2.2,0,0,0,.928-1.757A1.917,1.917,0,0,0,22.567.134c-1.216-.549-1.9.719-1.143,1.5.176.18.259.263.259.361,0,.035-.049.139-.235.29C19.693,3.7,2.864,15.819,2.694,15.941l-.009.006c-.258.19-2.523,1.918-2.677,3.979A2.852,2.852,0,0,0,.662,21.97Z" fill="gray"/>
          <path id="Trazado_713933" data-name="Trazado 713933" d="M.547,21.218a3.168,3.168,0,0,0,.222.246,3.272,3.272,0,0,0,3.05.859L13.5,20.145a.435.435,0,1,0-.191-.848L3.628,21.475a2.441,2.441,0,0,1-2.245-.626,1.544,1.544,0,0,1-.509-1.253C.966,18.368,2.44,17.027,3,16.614c.69-.5,17.026-12.26,18.809-13.7a1.73,1.73,0,0,0,.743-1.366A2.054,2.054,0,0,0,21.765.092a.435.435,0,0,0-.535.685,1.205,1.205,0,0,1,.453.781.922.922,0,0,1-.42.679C19.5,3.662,2.657,15.788,2.488,15.911c-.1.073-2.341,1.747-2.481,3.619A2.334,2.334,0,0,0,.547,21.218Z" transform="translate(0.497 0.434)" fill="gray" opacity="0.2" style="mix-blend-mode: screen;isolation: isolate"/>
          <path id="Trazado_713934" data-name="Trazado 713934" d="M.5,20.865a2.878,2.878,0,0,0,.2.228,3.057,3.057,0,0,0,2.849.8l9.677-2.178a.218.218,0,0,0-.1-.425L3.459,21.469a2.657,2.657,0,0,1-2.446-.684A1.749,1.749,0,0,1,.44,19.361c.117-1.574,2.192-3.125,2.213-3.141.168-.121,17.023-12.257,18.8-13.694a1.524,1.524,0,0,0,.662-1.195,1.868,1.868,0,0,0-.7-1.286.217.217,0,1,0-.267.343,1.446,1.446,0,0,1,.536.949,1.119,1.119,0,0,1-.5.851C19.413,3.617,2.567,15.747,2.4,15.869,2.3,15.939.139,17.555.006,19.329A2.124,2.124,0,0,0,.5,20.865Z" transform="translate(0.714 0.652)" fill="gray" opacity="0.2" style="mix-blend-mode: screen;isolation: isolate"/>
          <path id="Trazado_713935" data-name="Trazado 713935" d="M0,3.6a3.614,3.614,0,0,0,.949-.618,2.912,2.912,0,0,0,.707-.917,1.8,1.8,0,0,0,.166-.578,1.465,1.465,0,0,0-.066-.6A1.586,1.586,0,0,0,1.635.612,1.82,1.82,0,0,0,1.464.374,1.947,1.947,0,0,0,1.033,0a3.55,3.55,0,0,1,.3.46A2.188,2.188,0,0,1,1.451.7,1.8,1.8,0,0,1,1.52.95a1.443,1.443,0,0,1,.009.5c-.009.041-.017.083-.025.124L1.469,1.7a2.042,2.042,0,0,1-.095.239,3.823,3.823,0,0,1-.6.876A10.678,10.678,0,0,1,0,3.6Z" transform="translate(21.601 0.611)" fill="#ccc"/>
          <path id="Trazado_713936" data-name="Trazado 713936" d="M19.858,0c-.911.633-1.815,1.278-2.722,1.918L14.427,3.854l-1.354.97L11.724,5.8,9.029,7.756,6.341,9.721,3.659,11.695q-.671.492-1.337.991l-.167.125-.083.062L2.03,12.9c-.014.011-.027.02-.044.034-.108.094-.209.19-.308.291a7.574,7.574,0,0,0-.559.629A5.8,5.8,0,0,0,.264,15.3a3.445,3.445,0,0,0-.244,1.655v0a1.739,1.739,0,0,0,.141.578,2.458,2.458,0,0,0,.295.509,2.632,2.632,0,0,0,.192.222c.035.035.066.072.1.1l.11.1a1.2,1.2,0,0,0,.114.091l.117.089c.08.055.163.105.245.159-.079-.057-.16-.111-.237-.169l-.112-.092c-.037-.031-.075-.061-.109-.1l-.1-.1c-.036-.033-.065-.072-.1-.107a2.872,2.872,0,0,1-.182-.224,2.413,2.413,0,0,1-.272-.506A1.679,1.679,0,0,1,.1,16.956v0h0a3.045,3.045,0,0,1,.045-.816,3.956,3.956,0,0,1,.239-.783,5.655,5.655,0,0,1,.861-1.393,7.389,7.389,0,0,1,.557-.6c.1-.095.2-.189.3-.275l.335-.241q.677-.485,1.352-.972l2.7-1.954L9.177,7.951l2.683-1.97L13.2,4.993,14.534,4,17.2,2.008C18.088,1.339,18.977.675,19.858,0Z" transform="translate(0.137 3.65)" fill="#606060"/>
          <path id="Trazado_713937" data-name="Trazado 713937" d="M4.776,1.476A1.062,1.062,0,0,0,5.1,1.417.723.723,0,0,0,5.4,1.239.572.572,0,0,0,5.554.925.376.376,0,0,0,5.563.837c0-.029,0-.059,0-.088C5.558.69,5.555.632,5.542.575A.77.77,0,0,0,5.4.248a.626.626,0,0,0-.3-.209A.939.939,0,0,0,4.732,0a1.364,1.364,0,0,0-.348.074l.015,0C4.03.147,3.661.221,3.294.3s-.735.156-1.1.24c-.184.04-.367.083-.55.126S1.276.751,1.093.8C.728.885.363.977,0,1.078.373,1.026.744.965,1.115.9Q1.393.854,1.67.8c.185-.034.37-.067.554-.1C2.594.629,2.963.555,3.331.48s.736-.155,1.1-.235h.007l.008,0a1.023,1.023,0,0,1,.6-.054.485.485,0,0,1,.243.15A.68.68,0,0,1,5.425.6c.015.049.02.1.031.153,0,.026,0,.051,0,.077a.3.3,0,0,1,0,.077.5.5,0,0,1-.114.281A.925.925,0,0,1,4.776,1.476Z" transform="translate(9.106 19.378)" fill="#ccc"/>
        </g>
        <path id="Trazado_713938" data-name="Trazado 713938" d="M0,14.385a11.824,11.824,0,0,0,1.26-.26c.416-.106.828-.231,1.236-.37A17.06,17.06,0,0,0,4.87,12.738a15.312,15.312,0,0,0,2.189-1.384c.345-.261.675-.541.994-.834A12.844,12.844,0,0,0,8.966,9.6q.431-.487.813-1.015a12.934,12.934,0,0,0,.7-1.095c.213-.377.4-.767.579-1.163a12.787,12.787,0,0,0,.452-1.216,13.418,13.418,0,0,0,.522-2.532A15.377,15.377,0,0,0,12.089,0a18.735,18.735,0,0,1-.207,2.554l-.024.158-.028.157-.056.314-.067.312c-.022.1-.044.208-.072.311-.1.414-.221.821-.355,1.224-.073.2-.14.4-.223.6-.04.1-.076.2-.12.294l-.128.291c-.178.385-.37.762-.585,1.127S9.78,8.06,9.532,8.4s-.517.67-.8.986a13.79,13.79,0,0,1-1.855,1.733,16.4,16.4,0,0,1-2.124,1.4,19,19,0,0,1-2.311,1.088c-.4.158-.8.3-1.207.43q-.305.1-.615.184C.417,14.286.209,14.34,0,14.385Z" transform="translate(89.577 14.099)" fill="#ccc"/>
        <path id="Trazado_713939" data-name="Trazado 713939" d="M17.906,4.63a9.868,9.868,0,0,0-.838-.935c-.3-.3-.61-.576-.933-.844a13.541,13.541,0,0,0-2.086-1.416A11.925,11.925,0,0,0,11.717.455a11.121,11.121,0,0,0-2.5-.44,11.665,11.665,0,0,0-1.27,0,11.5,11.5,0,0,0-1.26.151c-.417.074-.827.177-1.234.292a12.573,12.573,0,0,0-1.194.42,14.454,14.454,0,0,0-2.24,1.156A17.238,17.238,0,0,0,0,3.528,18.694,18.694,0,0,1,4.35,1.108L4.642,1c.1-.035.2-.065.295-.1.2-.068.4-.121.593-.18.4-.105.8-.2,1.209-.264A12.144,12.144,0,0,1,7.968.323,11.452,11.452,0,0,1,9.2.325a11.032,11.032,0,0,1,2.432.412,12.517,12.517,0,0,1,2.3.911A14.811,14.811,0,0,1,16.042,2.97c.333.248.656.512.968.788q.234.207.459.425C17.619,4.327,17.767,4.475,17.906,4.63Z" transform="translate(79.352 1.143)" fill="#ccc"/>
        <path id="Trazado_713940" data-name="Trazado 713940" d="M0,6.855c.113-.179.236-.351.363-.521s.255-.337.389-.5q.4-.491.837-.95A16.077,16.077,0,0,1,3.465,3.2,14.179,14.179,0,0,1,7.905.885Q8.506.7,9.12.568c.41-.086.824-.149,1.241-.2S11.2.287,11.616.272c.1,0,.21,0,.315,0s.21,0,.315,0l.315,0,.315.014A17.434,17.434,0,0,1,15.382.6a23.2,23.2,0,0,1,2.46.621A18.186,18.186,0,0,0,15.414.446a15.811,15.811,0,0,0-2.523-.4C12.465.006,12.038,0,11.61,0s-.855.031-1.281.074-.849.112-1.27.2S8.224.463,7.813.588a13.594,13.594,0,0,0-2.367.995A14,14,0,0,0,3.316,3.006c-.332.269-.653.551-.959.847s-.6.607-.88.927-.545.655-.793,1A10.04,10.04,0,0,0,0,6.855Z" transform="translate(75.724 0.297)" fill="#606060"/>
        <path id="Trazado_713941" data-name="Trazado 713941" d="M0,9.038c.46-.323.91-.657,1.359-.992l.67-.507L2.7,7.025l.662-.518q.331-.258.659-.522l.656-.525c.219-.175.434-.354.652-.53l-.01.007c.055-.039.1-.074.142-.113s.087-.078.128-.118c.083-.081.161-.166.235-.254A3.529,3.529,0,0,0,6.2,3.877a3.306,3.306,0,0,0,.259-.637,3.65,3.65,0,0,0,.123-.673,3.878,3.878,0,0,0-.011-.68L6.55,1.72l-.011-.083-.017-.083-.033-.165-.043-.163A5.177,5.177,0,0,0,5.927,0a6.382,6.382,0,0,1,.384,1.257l.029.16.021.161.01.081.006.081.011.161a4.392,4.392,0,0,1-.028.642,3.358,3.358,0,0,1-.4,1.2,3.331,3.331,0,0,1-.364.516c-.069.08-.141.157-.216.229-.038.036-.077.072-.116.1s-.082.067-.117.092l-.006,0,0,0c-.218.175-.438.349-.656.526l-.651.531q-.327.264-.649.535l-.646.539-.641.544-.637.549C.833,8.286.412,8.656,0,9.038Z" transform="translate(81.065 27.147)" fill="#9baac4"/>
        <path id="Trazado_713942" data-name="Trazado 713942" d="M1.325,4.795a6.275,6.275,0,0,0,.1-1.289,6.7,6.7,0,0,0-.146-1.292A5.608,5.608,0,0,0,1.1,1.585a4.327,4.327,0,0,0-.264-.6A3.524,3.524,0,0,0,.473.444,2.826,2.826,0,0,0,0,0,4.083,4.083,0,0,1,.4.5a4.419,4.419,0,0,1,.307.553,5.841,5.841,0,0,1,.39,1.2c.048.206.082.415.112.625s.052.421.071.633Q1.331,4.149,1.325,4.795Z" transform="translate(84.153 16.222)" fill="#9baac4"/>
        <path id="Trazado_713943" data-name="Trazado 713943" d="M34.005,0q-3.579,2.791-7.126,5.622t-7.088,5.67Q16.255,14.137,12.735,17t-7.023,5.75l-.005,0,0,0a3.456,3.456,0,0,1-.29.269c-.1.086-.209.166-.319.242a4.452,4.452,0,0,1-.695.4,3.477,3.477,0,0,1-1.556.324,3.167,3.167,0,0,1-.793-.124l-.1-.026-.1-.034c-.063-.023-.127-.043-.19-.069-.123-.055-.249-.1-.366-.172A5.561,5.561,0,0,1,0,22.6a5.5,5.5,0,0,0,1.276,1.013c.117.071.244.125.367.184.063.027.128.05.192.075l.1.037.1.029a3.211,3.211,0,0,0,.81.147A3.591,3.591,0,0,0,4.455,23.8a4.478,4.478,0,0,0,.729-.393c.115-.077.227-.158.335-.245a3.489,3.489,0,0,0,.313-.279l-.009.009q3.559-2.817,7.1-5.66t7.063-5.7q3.525-2.858,7.031-5.74T34.005,0Z" transform="translate(34.857 46.224)" fill="#9baac4"/>
        <path id="Trazado_713944" data-name="Trazado 713944" d="M14.053,1.542A4.139,4.139,0,0,0,13.281.8a4.221,4.221,0,0,0-.941-.531A3.7,3.7,0,0,0,11.281.013a3.765,3.765,0,0,0-1.094.07c-.089.022-.179.039-.267.065L9.658.229,9.4.329c-.085.033-.166.076-.249.114a5.943,5.943,0,0,0-.932.567c-.15.105-.287.217-.428.326l-.421.329-.839.662Q5.7,3,4.872,3.669c-.549.453-1.1.9-1.644,1.364C2.138,5.949,1.057,6.877,0,7.832,1.139,6.976,2.263,6.1,3.381,5.221,3.943,4.784,4.5,4.338,5.057,3.9l1.67-1.329L7.56,1.9l.418-.332c.139-.11.279-.223.417-.326A5.678,5.678,0,0,1,9.274.686a4.3,4.3,0,0,1,.967-.367,3.677,3.677,0,0,1,1.027-.1,3.553,3.553,0,0,1,1.02.2,4.285,4.285,0,0,1,.944.459,4.777,4.777,0,0,1,.429.312A3.618,3.618,0,0,1,14.053,1.542Z" transform="translate(61.393 11.038)" fill="#435575"/>
        <path id="Trazado_713945" data-name="Trazado 713945" d="M23.931,0l-.762.586-.759.591L20.892,2.358q-1.513,1.188-3.02,2.383c-1.006.795-2.005,1.6-3.008,2.4l-3,2.411L8.882,11.972c-.992.812-1.987,1.62-2.975,2.437s-1.977,1.633-2.963,2.452L1.47,18.1l-.737.618L0,19.339l.763-.586.759-.591,1.518-1.181q1.513-1.188,3.02-2.382C7.065,13.8,8.064,13,9.067,12.2l3-2.411,2.986-2.425c.992-.812,1.987-1.62,2.975-2.437S20,3.3,20.987,2.476L22.461,1.24,23.2.622Z" transform="translate(31.928 23.385)" fill="#435575"/>
        <path id="Trazado_713946" data-name="Trazado 713946" d="M.221,0a2.472,2.472,0,0,0-.17.581A3.552,3.552,0,0,0,0,1.188a3.976,3.976,0,0,0,.195,1.2,4.8,4.8,0,0,0,.232.565,4.4,4.4,0,0,0,.308.526,4.638,4.638,0,0,0,.8.905,8.762,8.762,0,0,1-.676-.983A5.525,5.525,0,0,1,.372,2.334a4.542,4.542,0,0,1-.148-.568,4.65,4.65,0,0,1-.079-.583A4.238,4.238,0,0,1,.221,0Z" transform="translate(23.038 55.119)" fill="#435575"/>
        <path id="Trazado_713947" data-name="Trazado 713947" d="M1.006,0A2.157,2.157,0,0,0,.724.166C.635.227.548.29.464.358S.3.5.221.572A2.111,2.111,0,0,0,0,.813,2.141,2.141,0,0,0,.282.647Q.416.557.542.455C.626.387.707.315.785.241A2.154,2.154,0,0,0,1.006,0Z" transform="translate(24.205 64.118)" fill="#435575"/>
        <path id="Trazado_713948" data-name="Trazado 713948" d="M1.956,0a2.562,2.562,0,0,0-.893.326A2.26,2.26,0,0,0,.352.974,2.109,2.109,0,0,0,.128,1.4a2.036,2.036,0,0,0-.113.471,2.513,2.513,0,0,0,.079.948A3.409,3.409,0,0,1,.111,1.89a2.15,2.15,0,0,1,.343-.846A2.492,2.492,0,0,1,1.115.408,3.479,3.479,0,0,1,1.956,0Z" transform="translate(20.026 64.5)" fill="#435575"/>
        <path id="Trazado_713949" data-name="Trazado 713949" d="M0,3.036A2.147,2.147,0,0,0,.62,2.45a2.206,2.206,0,0,0,.218-.375,2.237,2.237,0,0,0,.139-.412A2.134,2.134,0,0,0,.991.8a2.534,2.534,0,0,0-.3-.8A3.816,3.816,0,0,1,.9.815C.9.849.9.884.905.918s.006.069.007.1c0,.069,0,.138,0,.207a2.064,2.064,0,0,1-.054.408A2.432,2.432,0,0,1,.54,2.4,2.978,2.978,0,0,1,0,3.036Z" transform="translate(23.842 65.743)" fill="#9baac4"/>
      </g>
    </g>
  </g>
</svg>
