<svg id="Grupo_1002678" data-name="Grupo 1002678" xmlns="http://www.w3.org/2000/svg" width="150.682" height="150.682" viewBox="0 0 150.682 150.682">
  <g id="Grupo_1002676" data-name="Grupo 1002676" transform="translate(2.207 2.207)">
    <path id="Trazado_712124" data-name="Trazado 712124" d="M185.4,121.516a67.954,67.954,0,0,0-24.2-52.064C149.341,59.446,116.038,58.3,116.038,58.3L91.9,58.439c-.18.076-.4.023-.575.1C67.671,68.806,52.319,93.129,52.319,121.4c0,37.611,28.042,63.2,65.653,63.2,11.308,0,21.295,2.253,30.68-2.624A68.1,68.1,0,0,0,185.4,121.516Z" transform="translate(-39.129 -43.35)" fill="#94ccd4"/>
    <path id="Trazado_712125" data-name="Trazado 712125" d="M253.834,57.736c-6.925,4.529-14.359,9.023-17.146,9.632-7.649,2.237-17.605-2.5-19.65,8.779a44.322,44.322,0,0,1-.577,6.177,15.931,15.931,0,0,1-2.328,5.983c-1.162,1.8-4.256,2.327-6.058,3.563-4.959,3.408-8.988,3.612-14.327.831l-.412-.218c-8.894-4.359-14.119-14.382-4.9-21.708,6.06-5,5.143-13.828.908-19.344L186.8,48.485c1.979-.817,1.173-3.2,3.24-3.832a68.224,68.224,0,0,1,63.8,13.084Z" transform="translate(-131.767 -31.635)" fill="#008b8a"/>
    <path id="Trazado_712126" data-name="Trazado 712126" d="M386.274,169.8a21.205,21.205,0,0,0-6.311-14.951c-3.415-3.908-4.6-6.236-9.291-1.922-4.449,5.534-.061,12.4-9.518,21.841a8.734,8.734,0,0,0-2.52,6.431s0-.423-.005-.423c.34,5.926,4.387,10.7,10.156,10.7,7.411,0,17.489-8.7,17.489-21.679Z" transform="translate(-255.291 -108.494)" fill="#008b8a"/>
    <path id="Trazado_712127" data-name="Trazado 712127" d="M359.943,172.739a8.746,8.746,0,0,0-2.522,6.433s0-.006-.006-.006c.283,4.906,4.535,9.035,9.265,10.312a11.062,11.062,0,0,1-2.9.409c-5.768,0-11.9-4.794-12.246-10.721,0,0,0,0,.006.006a8.746,8.746,0,0,1,2.522-6.433c9.456-9.435,3.976-16.808,8.426-22.34,2.681-2.466,5.256-2.454,7.6-1.263a9,9,0,0,0-1.719,1.263c-4.45,5.533,1.03,12.905-8.426,22.34Z" transform="translate(-250.28 -106.901)" fill="#14c1c0"/>
    <path id="Trazado_712128" data-name="Trazado 712128" d="M346.061,12.651V46.644L343.894,48.7c0,2.844-3.234,3.273-6.078,3.273l-15.548-.117a3.433,3.433,0,0,0-2.014.653l-12.83,8.909a1.717,1.717,0,0,1-2.724-1.39l1.2-4.285a3.434,3.434,0,0,0-3.434-3.434h-4.12a5.151,5.151,0,0,1-5.151-5.151l-.621-31.89c0-2.844,1.13-5.845,3.974-5.845L297.989,7.5H340.91a5.15,5.15,0,0,1,5.151,5.151Z" transform="translate(-208.68 -7.5)" fill="#4db1f0"/>
    <path id="Trazado_712129" data-name="Trazado 712129" d="M342.565,46.644v1.717a5.15,5.15,0,0,1-5.151,5.151H318.983a3.433,3.433,0,0,0-2.012.652L303.054,64.242a1.715,1.715,0,0,1-2.723-1.391V56.945a3.434,3.434,0,0,0-3.434-3.434h-4.12a5.151,5.151,0,0,1-5.151-5.151V12.651A5.151,5.151,0,0,1,292.777,7.5h1.717V45.957a.687.687,0,0,0,.687.687H296.9a10.306,10.306,0,0,1,9.117,5.511,1.032,1.032,0,0,0,1.519.364l5.406-3.918a10.242,10.242,0,0,1,6.043-1.957Z" transform="translate(-205.185 -7.5)" fill="#8acdf7"/>
    <path id="Trazado_712130" data-name="Trazado 712130" d="M125.988,184.241A69.635,69.635,0,0,1,56.253,114.71c0-22.87,10.485-42.922,27.581-55.595a68.154,68.154,0,0,0-34.146,95.008s16.183,12.817,24.367,18.839c11.289,8.308,33.224,13.667,33.224,13.667s24.407.828,33.766-4.016a70.085,70.085,0,0,1-15.057,1.628Z" transform="translate(-31.635 -43.925)" fill="#6fbbc6"/>
    <path id="Trazado_712131" data-name="Trazado 712131" d="M160.326,341.4c-5.473-7.622-15.537-16.025-15.1-26.146a27.387,27.387,0,0,0-1.444-10.175c-.018-.044-.032-.087-.047-.13a15.226,15.226,0,0,0-2.512-4.444c-2.966-3.685-9.295-13.3-12.389-14.646-5.909-3.655-13.91-.933-17.071,5.068-2.744,6.942-3.5,16.453-10.669,20.2-4.285,2.324-10.461,1.8-13.721-2.046-5.656-7.346-13.574-.243-18.5,3.89,1.958,3.658,9.948,6.34,12.532,9.585,10.721,13.467,20.264,18.659,35.974,21.478,14.613,2.652,29.607,4.3,42.794-2.55Z" transform="translate(-50.807 -202.769)" fill="#008b8a"/>
    <path id="Trazado_712132" data-name="Trazado 712132" d="M160.192,393.464a68.18,68.18,0,0,1-38.342,7.2v0a68.314,68.314,0,0,1-52.98-35.7c3.9-3.27,9.668-8.4,14.709-6.76a69.947,69.947,0,0,0,76.612,35.26Z" transform="translate(-50.809 -254.769)" fill="#14c1c0"/>
    <path id="Trazado_712133" data-name="Trazado 712133" d="M302.532,266.077v33.994l-2.166,2.057c0,2.844-3.234,3.273-6.078,3.273l-15.548-.117a3.433,3.433,0,0,0-2.014.653l-12.83,8.909a1.717,1.717,0,0,1-2.724-1.39l1.2-4.285a3.434,3.434,0,0,0-3.434-3.434h-4.12a5.151,5.151,0,0,1-5.151-5.151L249.05,268.7c0-2.844,1.13-5.845,3.974-5.845l1.436-1.925h42.921a5.15,5.15,0,0,1,5.151,5.15Z" transform="translate(-177.962 -186.343)" fill="#ffa031"/>
    <path id="Trazado_712134" data-name="Trazado 712134" d="M299.037,300.07v1.717a5.151,5.151,0,0,1-5.151,5.151H275.455a3.433,3.433,0,0,0-2.012.652l-13.917,10.078a1.715,1.715,0,0,1-2.723-1.391v-5.906a3.434,3.434,0,0,0-3.434-3.434h-4.121a5.151,5.151,0,0,1-5.151-5.151v-35.71a5.151,5.151,0,0,1,5.151-5.151h1.717v38.457a.687.687,0,0,0,.687.687h1.717a10.306,10.306,0,0,1,9.117,5.511,1.032,1.032,0,0,0,1.519.364l5.406-3.918a10.242,10.242,0,0,1,6.043-1.957Z" transform="translate(-174.467 -186.343)" fill="#fbb66c"/>
    <path id="Trazado_712135" data-name="Trazado 712135" d="M187.542,81.657l-.085.071a91.291,91.291,0,0,0-7.875,7.611A11.224,11.224,0,0,1,183.8,77.119c6.06-5,3.823-14.75-.412-20.266l-2.55-2.95q2.967-1.227,6.073-2.173c1.831,2.781,3.458,5.124,3.458,5.124,4.388,8.173,4.585,18.691-2.822,24.8Z" transform="translate(-128.635 -38.713)" fill="#14c1c0"/>
    <path id="Trazado_712136" data-name="Trazado 712136" d="M211.252,159.092c-.079.135-.162.268-.247.4a16.287,16.287,0,0,1-21.21,5.618l-.412-.218c-8.37-4.1-14.094-14.953-7.057-22.323-2.24,6.763,3.049,14.571,10.168,17.908l.43.218a17.649,17.649,0,0,0,17.484-1.009c.288-.188.571-.386.845-.594Z" transform="translate(-128.639 -102.819)" fill="#14c1c0"/>
    <g id="Grupo_1002675" data-name="Grupo 1002675" transform="translate(49.188 138.689)">
      <path id="Trazado_712137" data-name="Trazado 712137" d="M246.362,502.945l.057.006Z" transform="translate(-225.253 -495.824)" fill="#94ccd4"/>
      <path id="Trazado_712138" data-name="Trazado 712138" d="M174.635,482.535l.2.093Z" transform="translate(-174.635 -481.421)" fill="#94ccd4"/>
      <path id="Trazado_712139" data-name="Trazado 712139" d="M370.375,478.75q-1.823.945-3.705,1.775,1.854-.821,3.655-1.757c.009,0,.015-.009.024-.012S370.366,478.753,370.375,478.75Z" transform="translate(-310.154 -478.75)" fill="#94ccd4"/>
    </g>
    <path id="Trazado_712140" data-name="Trazado 712140" d="M15.553,122.492l.432,29.618a5.265,5.265,0,0,0,5.279,5.251l16.571.542a3.532,3.532,0,0,1,2.064.666l11.309,9.561A1.76,1.76,0,0,0,54,166.711l.715-4.622a3.51,3.51,0,0,1,3.519-3.5l5.469-.02c2.915,0,5.786-.692,5.786-3.593V118.564a5.265,5.265,0,0,0-5.279-5.251H18.462c-2.915,0-2.909,6.279-2.909,9.179Z" transform="translate(-13.183 -82.172)" fill="#faf8f8"/>
    <path id="Trazado_712141" data-name="Trazado 712141" d="M63.806,154.338v.636a5.265,5.265,0,0,1-5.28,5.25H54.3a3.51,3.51,0,0,0-3.517,3.5v6.024a1.761,1.761,0,0,1-2.793,1.416L33.734,160.89a3.536,3.536,0,0,0-2.066-.665H12.78a5.265,5.265,0,0,1-5.28-5.25V118.563a5.266,5.266,0,0,1,5.28-5.253h.606v39.557a1.472,1.472,0,0,0,1.472,1.472h16.81a9.423,9.423,0,0,1,5.506,1.778l6.578,4.741a1.182,1.182,0,0,0,1.789-.544,9.422,9.422,0,0,1,8.761-5.974Z" transform="translate(-7.5 -82.17)" fill="#f0e9e6"/>
  </g>
  <g id="Grupo_1002677" data-name="Grupo 1002677" transform="translate(0 0)">
    <path id="Trazado_712142" data-name="Trazado 712142" d="M141.82,46.179a7.4,7.4,0,0,0,.369-2.309V7.459A7.481,7.481,0,0,0,134.7,0H88.955A7.481,7.481,0,0,0,81.47,7.459v2.62A70.053,70.053,0,0,0,30.188,31.141H22.367a2.207,2.207,0,1,0,0,4.415H53.234A3.062,3.062,0,0,1,56.305,38.6V75.011a3.062,3.062,0,0,1-3.071,3.045H49.011a5.724,5.724,0,0,0-5.727,5.708V88.9L29.731,79.137a5.7,5.7,0,0,0-3.355-1.082H7.486a3.062,3.062,0,0,1-3.071-3.045V38.6a3.061,3.061,0,0,1,3.071-3.044h4.58a2.207,2.207,0,0,0,0-4.415H7.486A7.481,7.481,0,0,0,0,38.6V75.011A7.481,7.481,0,0,0,7.486,82.47H10.1a70.286,70.286,0,0,0,121.078,46.507,2.207,2.207,0,1,0-3.189-3.052,66.2,66.2,0,0,1-16.323,12.484c-2.805-3.733-6.922-8.226-9.674-12.531l.526-.379a1.314,1.314,0,0,1,.773-.249h18.89a7.481,7.481,0,0,0,7.486-7.459V81.379a7.426,7.426,0,0,0-.142-1.441A25.538,25.538,0,0,0,135.4,63.5a23.356,23.356,0,0,0-3.51-12.172H134.7a7.463,7.463,0,0,0,4.186-1.278,65.956,65.956,0,0,1-4.542,68.133,2.207,2.207,0,0,0,.539,3.075,2.306,2.306,0,0,0,3.075-.539,70.368,70.368,0,0,0,3.86-74.541ZM53.234,31.141H36.573a65.446,65.446,0,0,1,17.195-11.1l1.476,1.7A17.226,17.226,0,0,1,58.76,33.574,7.48,7.48,0,0,0,53.234,31.141Zm51.407,105.541c1.055,1.285,2.07,2.523,3,3.731a66.014,66.014,0,0,1-84.812-27.965c3.112-2.567,7.121-5.686,10.323-5.315a5.231,5.231,0,0,1,3.537,2.336c2.686,3.55,7.218,4.242,10.393,4.454a15.018,15.018,0,0,0,11.6-6.62,2.207,2.207,0,1,0-3.64-2.5,10.508,10.508,0,0,1-7.871,4.7c-3.6-.265-5.756-1.1-6.965-2.7a9.516,9.516,0,0,0-6.549-4.058c-4.675-.542-9.273,2.743-12.9,5.688A65.448,65.448,0,0,1,14.517,82.47H26.376a1.314,1.314,0,0,1,.774.249l14.26,10.276a3.967,3.967,0,0,0,6.29-3.208V83.763a1.3,1.3,0,0,1,1.312-1.294h4.223a7.481,7.481,0,0,0,7.486-7.459v-9.42A20.513,20.513,0,0,0,70.9,68.557,18.472,18.472,0,0,0,89.077,53.266c.107-.629.2-1.276.28-1.937h3.822a1.3,1.3,0,0,1,1.312,1.294v6.023a3.941,3.941,0,0,0,2.156,3.521,4.063,4.063,0,0,0,4.133-.313l9.086-6.548A16.866,16.866,0,0,1,104.408,66.5a10.98,10.98,0,0,0-3.155,7.42H76.433a7.481,7.481,0,0,0-7.486,7.459v.954A15.181,15.181,0,0,0,60.1,91.686c-.32.947-.822,2.56-1.288,4.1a2.207,2.207,0,0,0,1.465,2.756,2.312,2.312,0,0,0,2.756-1.465c.313-1.024.742-2.451,1.249-3.976a10.939,10.939,0,0,1,4.668-5.879V117.79a7.481,7.481,0,0,0,7.486,7.459h4.223a1.3,1.3,0,0,1,1.312,1.294v6.023a3.966,3.966,0,0,0,6.29,3.208l10.15-7.314a90,90,0,0,0,6.233,8.222Zm20.612-18.891a3.061,3.061,0,0,1-3.071,3.044h-18.89a5.7,5.7,0,0,0-3.355,1.082l-13.554,9.768v-5.142a5.724,5.724,0,0,0-5.726-5.708H76.434a3.062,3.062,0,0,1-3.071-3.044V81.379a3.062,3.062,0,0,1,3.071-3.045h45.748a3.062,3.062,0,0,1,3.071,3.045V117.79Zm5.73-54.274A21.231,21.231,0,0,1,127.141,75.8a7.469,7.469,0,0,0-4.959-1.878H105.67a6.535,6.535,0,0,1,1.872-4.311c6.217-6.2,6.594-11.7,6.9-16.118.037-.543.074-1.064.12-1.568l.479-.345a1.316,1.316,0,0,1,.774-.249h10.622a18.936,18.936,0,0,1,4.548,12.187Zm3.72-16.6h-18.89A5.7,5.7,0,0,0,112.459,48l-1.319.95-.015.011L98.9,57.764V52.622a5.724,5.724,0,0,0-5.726-5.708H88.955a3.062,3.062,0,0,1-3.071-3.044V35.61a2.207,2.207,0,1,0-4.415,0v8.26a7.454,7.454,0,0,0,3.568,6.352c-.084.793-.187,1.566-.313,2.306a14.017,14.017,0,0,1-5.882,9.143c-5.5,3.869-12.9,2.892-18.122-1.428V40.285c4.736-6.246,2.366-16.181-2.611-21.975a66.609,66.609,0,0,1,23.361-3.817V25.31a2.207,2.207,0,1,0,4.415,0V7.459a3.061,3.061,0,0,1,3.071-3.044H134.7a3.062,3.062,0,0,1,3.071,3.044V43.87a3.061,3.061,0,0,1-3.071,3.045Z" transform="translate(0 0)"/>
    <path id="Trazado_712143" data-name="Trazado 712143" d="M355.632,35.46H344.206V31.707a2.207,2.207,0,0,0-4.415,0V35.46H328.365a2.207,2.207,0,0,0,0,4.415h4.577a31.535,31.535,0,0,0,6.076,12.691,27.358,27.358,0,0,1-7.762,5.2l-3.041,1.355a2.207,2.207,0,1,0,1.8,4.032l3.041-1.355A31.778,31.778,0,0,0,342,55.826a31.778,31.778,0,0,0,8.947,5.972l3.041,1.355a2.315,2.315,0,0,0,2.914-1.118,2.207,2.207,0,0,0-1.118-2.914l-3.041-1.355a27.348,27.348,0,0,1-7.762-5.2,31.535,31.535,0,0,0,6.075-12.691h4.577a2.207,2.207,0,0,0,0-4.415ZM342,49.2a27.127,27.127,0,0,1-4.513-9.327h9.026A27.126,27.126,0,0,1,342,49.2Z" transform="translate(-230.169 -20.818)"/>
    <path id="Trazado_712144" data-name="Trazado 712144" d="M61.557,171.261a2.207,2.207,0,0,0,2.844-1.286l1.916-5.076H79.25l1.936,5.082a2.207,2.207,0,1,0,4.125-1.571L75.366,142.3l-.02-.05a2.8,2.8,0,0,0-2.6-1.744h0a2.8,2.8,0,0,0-2.6,1.739l-.024.061-9.855,26.115A2.207,2.207,0,0,0,61.557,171.261Zm11.2-23.418,4.815,12.642H67.983Z" transform="translate(-42.433 -99.152)"/>
    <path id="Trazado_712145" data-name="Trazado 712145" d="M308.509,293H298.241a2.207,2.207,0,0,0,0,4.415h2.927v6.916h-8.78A7.87,7.87,0,0,0,285.317,293h-6.373a2.207,2.207,0,1,0,0,4.415h6.373a3.458,3.458,0,0,1,0,6.916h-7.082a2.207,2.207,0,0,0,0,4.415h7.082a3.462,3.462,0,0,1,3.458,3.458,3.421,3.421,0,0,1-3.458,3.458c-3.05,0-6.511-.344-9.062-2.894a2.207,2.207,0,0,0-3.121,3.121c3.711,3.711,8.461,4.187,12.183,4.187a7.87,7.87,0,0,0,7.071-11.331h8.78v9.123a2.207,2.207,0,0,0,4.415,0V297.415h2.927a2.207,2.207,0,0,0,0-4.415Z" transform="translate(-192.294 -206.77)"/>
  </g>
</svg>
