<svg id="Grupo_1002700" data-name="Grupo 1002700" xmlns="http://www.w3.org/2000/svg" width="164.297" height="161.764" viewBox="0 0 164.297 161.764">
  <g id="_03-warm_hot" data-name=" 03-warm hot" transform="translate(0 0)">
    <path id="Trazado_712146" data-name="Trazado 712146" d="M48.209,65.972v-40.7a14.6,14.6,0,0,0-29.2,0v40.7a22.944,22.944,0,1,0,29.2,0Z" transform="translate(-8.574 -8.581)" fill="#e9edf5"/>
    <path id="Trazado_712147" data-name="Trazado 712147" d="M67.685,94.977V51.01A8.343,8.343,0,0,0,51,51.01V94.977a16.687,16.687,0,1,0,16.687,0Z" transform="translate(-34.308 -34.324)" fill="#cdd2e1"/>
    <path id="Trazado_712148" data-name="Trazado 712148" d="M59.461,381.867a16.686,16.686,0,0,1-16.372-13.483,16.687,16.687,0,1,0,32.743,0,16.686,16.686,0,0,1-16.372,13.483Z" transform="translate(-34.427 -296.349)" fill="#9da3b5"/>
    <path id="Trazado_712149" data-name="Trazado 712149" d="M150.944,83.67a22.892,22.892,0,0,0-8.343-17.7v-40.7a14.6,14.6,0,0,0-14.6-14.6v6.257a8.343,8.343,0,0,1,8.343,8.343V69.234a16.665,16.665,0,0,1,8.224,12.684,14.227,14.227,0,0,1,.119,1.752A16.686,16.686,0,0,1,128,100.357v6.257A22.944,22.944,0,0,0,150.944,83.67Z" transform="translate(-102.966 -8.581)" fill="#f7faff"/>
    <path id="Trazado_712150" data-name="Trazado 712150" d="M144.372,106.359c.079.43.142.864.2,1.3a16.665,16.665,0,0,0-8.224-12.684V51.01A8.343,8.343,0,0,0,128,42.667v77.175a16.686,16.686,0,0,0,16.372-13.483Z" transform="translate(-102.966 -34.324)" fill="#dce1eb"/>
    <path id="Trazado_712151" data-name="Trazado 712151" d="M128,381.867v6.257a16.452,16.452,0,0,0,16.568-18.439c-.054-.438-.117-.872-.2-1.3A16.686,16.686,0,0,1,128,381.867Z" transform="translate(-102.966 -296.349)" fill="#afb4c8"/>
    <path id="Trazado_712152" data-name="Trazado 712152" d="M128,381.867v6.257a16.452,16.452,0,0,0,16.568-18.439c-.054-.438-.117-.872-.2-1.3A16.686,16.686,0,0,1,128,381.867Z" transform="translate(-102.966 -296.349)" fill="#ffa031"/>
    <path id="Trazado_712153" data-name="Trazado 712153" d="M136.343,172.2V138.667H128v58.4a16.686,16.686,0,0,0,16.359-13.43A16.651,16.651,0,0,0,136.343,172.2Z" transform="translate(-102.966 -111.551)" fill="#ffa031"/>
    <path id="Trazado_712154" data-name="Trazado 712154" d="M59.347,381.867v6.257a16.452,16.452,0,0,1-16.568-18.439c.054-.438.117-.872.2-1.3A16.686,16.686,0,0,0,59.347,381.867Z" transform="translate(-34.313 -296.349)" fill="#ffa031"/>
    <path id="Trazado_712155" data-name="Trazado 712155" d="M52.357,172.2V138.667H60.7v58.4a16.686,16.686,0,0,1-16.359-13.43A16.651,16.651,0,0,1,52.357,172.2Z" transform="translate(-35.666 -111.551)" fill="#ffa031"/>
    <ellipse id="Elipse_8383" data-name="Elipse 8383" cx="3.424" cy="4.767" rx="3.424" ry="4.767" transform="translate(26.905 73.526) rotate(-45)" fill="#f6fafd"/>
    <ellipse id="Elipse_8384" data-name="Elipse 8384" cx="1.721" cy="2.394" rx="1.721" ry="2.394" transform="translate(31.871 67.768) rotate(-45)" fill="#f6fafd"/>
    <ellipse id="Elipse_8385" data-name="Elipse 8385" cx="12.515" cy="12.515" rx="12.515" ry="12.515" transform="translate(60.493 20.858)" fill="#ffd747"/>
    <path id="Trazado_712156" data-name="Trazado 712156" d="M313.448,123.839c0-.342.025-.678.052-1.012a12.515,12.515,0,1,0,20.754,10.366,12.5,12.5,0,0,1-20.806-9.355Z" transform="translate(-248.784 -98.809)" fill="#ffb13b"/>
    <path id="Trazado_712157" data-name="Trazado 712157" d="M302.839,110.529a10.429,10.429,0,0,1,20.264-3.481l3.934-1.391a14.6,14.6,0,0,0-28.369,4.873Z" transform="translate(-240.26 -77.156)"/>
    <path id="Trazado_712158" data-name="Trazado 712158" d="M327.112,170.667a10.429,10.429,0,0,1-20.266,3.473l-3.934,1.389a14.6,14.6,0,0,0,28.371-4.862Z" transform="translate(-243.675 -137.294)"/>
    <path id="Trazado_712159" data-name="Trazado 712159" d="M362.667,42.667h4.172V51.01h-4.172Z" transform="translate(-291.745 -34.324)"/>
    <path id="Trazado_712160" data-name="Trazado 712160" d="M362.667,256h4.172v8.343h-4.172Z" transform="translate(-291.745 -205.941)"/>
    <path id="Trazado_712161" data-name="Trazado 712161" d="M458.667,160h8.343v4.172h-8.343Z" transform="translate(-368.973 -128.713)"/>
    <path id="Trazado_712162" data-name="Trazado 712162" d="M245.333,160h8.343v4.172h-8.343Z" transform="translate(-197.355 -128.713)"/>
    <path id="Trazado_712163" data-name="Trazado 712163" d="M426.08,78.556l5.9-5.9,2.949,2.949-5.9,5.9Z" transform="translate(-342.758 -58.449)"/>
    <path id="Trazado_712164" data-name="Trazado 712164" d="M275.232,229.37l5.9-5.9,2.949,2.949-5.9,5.9Z" transform="translate(-221.408 -179.772)"/>
    <path id="Trazado_712165" data-name="Trazado 712165" d="M426.063,226.437l2.949-2.949,5.9,5.9-2.949,2.949Z" transform="translate(-342.744 -179.786)"/>
    <path id="Trazado_712166" data-name="Trazado 712166" d="M275.238,75.589l2.949-2.949,5.9,5.9-2.949,2.949Z" transform="translate(-221.412 -58.436)"/>
    <path id="Trazado_712167" data-name="Trazado 712167" d="M42.667,234.667h4.172v4.172H42.667Z" transform="translate(-34.319 -188.779)"/>
    <path id="Trazado_712168" data-name="Trazado 712168" d="M41.7,56.434V16.686a16.686,16.686,0,0,0-33.373,0v25.03H12.5V16.686a12.515,12.515,0,0,1,25.03,0H27.1v4.172H37.527V25.03H18.755V16.686A6.257,6.257,0,0,1,31.073,15.12l4.038-1.043a10.429,10.429,0,0,0-20.528,2.609V59.5a18.773,18.773,0,1,0,20.858,0V56.317H31.27v4.336a2.086,2.086,0,0,0,1.043,1.8,14.6,14.6,0,1,1-14.6,0,2.086,2.086,0,0,0,1.043-1.8V29.2H37.527v4.172H27.1v4.172H37.527v4.172H27.1v4.172H37.527v4.172H27.1v4.172H37.527v3.16A2.086,2.086,0,0,0,38.284,59,20.862,20.862,0,1,1,11.74,59a2.086,2.086,0,0,0,.757-1.608v-3.16H8.326v2.2a25.03,25.03,0,1,0,33.373,0Z" transform="translate(0.022)"/>
  </g>
  <g id="Grupo_1002699" data-name="Grupo 1002699" transform="translate(57.47 50.062)">
    <g id="Grupo_1002690" data-name="Grupo 1002690" transform="translate(0 0)">
      <g id="Colors" transform="translate(1.651 1.651)">
        <g id="Grupo_1002683" data-name="Grupo 1002683">
          <g id="Grupo_1002679" data-name="Grupo 1002679">
            <path id="Trazado_712169" data-name="Trazado 712169" d="M18.738,20.443v95.524H122.263V20.443l-16.14.057a60.7,60.7,0,0,0-74.837-.057Z" transform="translate(-18.738 -7.566)" fill="#cbdcfb"/>
          </g>
          <g id="Grupo_1002680" data-name="Grupo 1002680" transform="translate(7.635 19.468)">
            <path id="Trazado_712170" data-name="Trazado 712170" d="M136.695,96.8v75.922H53.735v5.061h88.021V96.8Z" transform="translate(-53.735 -96.802)" fill="#94b7f7"/>
          </g>
          <g id="Grupo_1002681" data-name="Grupo 1002681" transform="translate(22.619 10.097)">
            <path id="Trazado_712171" data-name="Trazado 712171" d="M148.622,53.861a59.827,59.827,0,0,0-26.207,6.715l10.466,21.6a56.677,56.677,0,0,1,34.289.03l10.243-21.631a59.941,59.941,0,0,0-28.791-6.714Z" transform="translate(-122.415 -53.847)" fill="#ffc277"/>
          </g>
          <g id="Grupo_1002682" data-name="Grupo 1002682" transform="translate(30.286 29.243)">
            <path id="Trazado_712172" data-name="Trazado 712172" d="M177.382,141.6c-.425,0-.852,0-1.283.014a59.552,59.552,0,0,0-18.54,3.393l2.8,5.777a56.677,56.677,0,0,1,34.289.03l2.723-5.75A59.662,59.662,0,0,0,177.382,141.6Z" transform="translate(-157.559 -141.604)" fill="#fcad42"/>
          </g>
        </g>
      </g>
      <g id="Grupo_1002689" data-name="Grupo 1002689" transform="translate(0 0)">
        <g id="Grupo_1002684" data-name="Grupo 1002684">
          <path id="Trazado_712173" data-name="Trazado 712173" d="M100.767,12.931A64.489,64.489,0,0,0,87.535,5.209,61.816,61.816,0,0,0,60.759.031a63.229,63.229,0,0,0-35.95,12.845H11.172V111.7H118V12.87ZM114.7,108.4H14.473V16.177H25.936l.447-.347a59.912,59.912,0,0,1,34.481-12.5A58.574,58.574,0,0,1,86.22,8.237a60.927,60.927,0,0,1,12.974,7.65l.449.35,15.054-.053Z" transform="translate(-11.172 0)"/>
        </g>
        <g id="Grupo_1002685" data-name="Grupo 1002685" transform="translate(7.635 19.469)">
          <path id="Trazado_712174" data-name="Trazado 712174" d="M134.19,170.221H49.47V92.538h8.546v-3.3H46.169v84.285h91.322V124.729h-3.3Z" transform="translate(-46.169 -89.237)"/>
        </g>
        <g id="Grupo_1002686" data-name="Grupo 1002686" transform="translate(95.657 47.065)">
          <path id="Trazado_712175" data-name="Trazado 712175" d="M449.628,215.73h3.3v3.948h-3.3Z" transform="translate(-449.628 -215.73)"/>
        </g>
        <g id="Grupo_1002687" data-name="Grupo 1002687" transform="translate(22.084 10.097)">
          <path id="Trazado_712176" data-name="Trazado 712176" d="M125.546,77.834a55.024,55.024,0,0,1,33.292.029l1.374.437,11.541-24.373-1.413-.733a61.207,61.207,0,0,0-56.519,0l-1.425.74,11.788,24.329Zm-3.976-24.4,2.531,5.335,2.982-1.415-2.408-5.075a58.7,58.7,0,0,1,6.189-1.584l.682,5.67,3.277-.394-.7-5.827a57.367,57.367,0,0,1,6.331-.534v7.784h3.3V49.607a57.538,57.538,0,0,1,6.029.494l-.706,5.868,3.277.394.689-5.724a58.462,58.462,0,0,1,6.218,1.564l-2.443,5.149,2.982,1.415,2.531-5.335s3.16,1.058,5.066,1.98L158.457,74.3a52.859,52.859,0,0,0-11.942-2.1l-.234-.317-5.515-9.857-2.881,1.612,4.665,8.337c-.135,0-.27,0-.406,0a58.3,58.3,0,0,0-16.223,2.3L116.779,55.4c1.82-.881,4.791-1.973,4.791-1.973Z" transform="translate(-112.398 -46.28)"/>
        </g>
        <g id="Grupo_1002688" data-name="Grupo 1002688" transform="translate(84.103 19.469)">
          <path id="Trazado_712177" data-name="Trazado 712177" d="M396.671,92.538h11.553v20.348h3.3V89.237H396.671Z" transform="translate(-396.671 -89.237)"/>
        </g>
      </g>
    </g>
    <g id="Grupo_1002695" data-name="Grupo 1002695" transform="translate(14.284 82.702)">
      <g id="Grupo_1002691" data-name="Grupo 1002691" transform="translate(5.512)">
        <path id="Trazado_712178" data-name="Trazado 712178" d="M101.913,379.076h3.307v3.307h-3.307Z" transform="translate(-101.913 -379.076)" fill="#fff"/>
      </g>
      <g id="Grupo_1002692" data-name="Grupo 1002692" transform="translate(5.512 11.025)">
        <path id="Trazado_712179" data-name="Trazado 712179" d="M101.913,429.61h3.307v3.307h-3.307Z" transform="translate(-101.913 -429.61)" fill="#fff"/>
      </g>
      <g id="Grupo_1002693" data-name="Grupo 1002693" transform="translate(11.025 5.512)">
        <path id="Trazado_712180" data-name="Trazado 712180" d="M127.179,404.343h3.307v3.307h-3.307Z" transform="translate(-127.179 -404.343)" fill="#fff"/>
      </g>
      <g id="Grupo_1002694" data-name="Grupo 1002694" transform="translate(0 5.512)">
        <path id="Trazado_712181" data-name="Trazado 712181" d="M76.646,404.343h3.307v3.307H76.646Z" transform="translate(-76.646 -404.343)" fill="#fff"/>
      </g>
    </g>
    <g id="Grupo_1002698" data-name="Grupo 1002698" transform="translate(85.573 26.396)">
      <g id="Grupo_1002696" data-name="Grupo 1002696" transform="translate(0 6.486)">
        <path id="Trazado_712182" data-name="Trazado 712182" d="M403.409,150.722h3.307v3.307h-3.307Z" transform="translate(-403.409 -150.722)" fill="#fff"/>
      </g>
      <g id="Grupo_1002697" data-name="Grupo 1002697">
        <path id="Trazado_712183" data-name="Trazado 712183" d="M403.409,120.991h3.307V124.3h-3.307Z" transform="translate(-403.409 -120.991)" fill="#fff"/>
      </g>
    </g>
  </g>
</svg>
