<svg xmlns="http://www.w3.org/2000/svg" xmlns:xlink="http://www.w3.org/1999/xlink" width="283" height="124" viewBox="0 0 283 124">
  <defs>
    <clipPath id="clip-path">
      <rect id="Rectángulo_346653" data-name="Rectángulo 346653" width="283" height="79" transform="translate(0.049 -0.394)" fill="none"/>
    </clipPath>
  </defs>
  <g id="Grupo_1002706" data-name="Grupo 1002706" transform="translate(-822 -2201)">
    <g id="Grupo_1002705" data-name="Grupo 1002705" transform="translate(821.951 2246.394)">
      <g id="Grupo_1002704" data-name="Grupo 1002704" transform="translate(0 0)" clip-path="url(#clip-path)">
        <path id="Trazado_712199" data-name="Trazado 712199" d="M220.435,200.544l-.078,18.228-.08,18.116a11.171,11.171,0,0,1-11.19,11.091L-32.741,246.91a11.176,11.176,0,0,1-11.094-11.193l.08-18.116.08-18.186A11.176,11.176,0,0,1-32.482,188.32l241.826,1.066A11.171,11.171,0,0,1,220.435,200.544Z" transform="translate(53.387 -177.244)" fill="#f89e00"/>
        <path id="Trazado_712200" data-name="Trazado 712200" d="M220.537,200.543l-.078,18.228L-43.653,217.6l.081-18.186A11.175,11.175,0,0,1-32.38,188.319l241.826,1.066A11.172,11.172,0,0,1,220.537,200.543Z" transform="translate(53.285 -177.244)" fill="#fcba4f"/>
        <path id="Trazado_712201" data-name="Trazado 712201" d="M204.84,181.942l-241.521-1.067a14.525,14.525,0,0,0-14.572,14.444l-.16,36.277a14.525,14.525,0,0,0,14.444,14.572l27.471.121a3.351,3.351,0,0,0,3.366-3.336h0a3.351,3.351,0,0,0-3.336-3.366l-27.471-.122a7.814,7.814,0,0,1-7.771-7.84l.16-36.278a7.813,7.813,0,0,1,7.84-7.771l.816,0-.117,26.4a3.351,3.351,0,0,0,3.336,3.366,3.342,3.342,0,0,0,2.374-.971A3.34,3.34,0,0,0-29.309,214l.116-26.4,8.846.039-.052,11.83a3.466,3.466,0,0,0,3.419,3.508,3.343,3.343,0,0,0,2.291-.971,3.34,3.34,0,0,0,.992-2.365l.053-11.973,8.846.039L-4.85,199.69a3.351,3.351,0,0,0,3.337,3.366,3.342,3.342,0,0,0,2.374-.971,3.34,3.34,0,0,0,.992-2.365l.053-11.973,8.846.039L10.7,199.759a3.351,3.351,0,1,0,6.7.029l.053-11.973,8.847.039-.117,26.4a3.351,3.351,0,0,0,6.7.03l.117-26.4,8.846.039-.052,11.83a3.465,3.465,0,0,0,3.419,3.508,3.352,3.352,0,0,0,3.283-3.336l.053-11.973,8.846.039-.052,11.83a3.466,3.466,0,0,0,3.419,3.508,3.352,3.352,0,0,0,3.284-3.336l.053-11.972,8.846.039L72.9,200.033a3.352,3.352,0,0,0,6.7.029l.053-11.973,8.846.039-.117,26.4a3.352,3.352,0,0,0,6.7.029l.117-26.4,8.846.039-.053,11.972a3.351,3.351,0,1,0,6.7.029l.053-11.972,8.846.039-.053,11.973a3.352,3.352,0,0,0,6.7.029l.053-11.973,8.846.039-.053,11.972a3.351,3.351,0,1,0,6.7.029l.053-11.973,8.846.039-.117,26.4a3.352,3.352,0,0,0,6.7.029l.116-26.4,8.847.039-.053,11.973a3.352,3.352,0,0,0,6.7.029l.053-11.972,8.846.039-.053,11.973a3.352,3.352,0,0,0,6.7.029l.053-11.973,8.846.039-.053,11.973a3.352,3.352,0,0,0,6.7.029l.053-11.973.864,0a8.038,8.038,0,0,1,5.337,1.979,7.765,7.765,0,0,1,2.611,5.862l-.16,36.278a7.812,7.812,0,0,1-7.84,7.77L6.171,239.656A3.351,3.351,0,0,0,2.8,242.993h0a3.351,3.351,0,0,0,3.336,3.366l198.688.878A14.525,14.525,0,0,0,219.4,232.793l.16-36.278a14.421,14.421,0,0,0-4.38-10.452A14.871,14.871,0,0,0,204.84,181.942Z" transform="translate(57.626 -173.08)"/>
      </g>
    </g>
    <rect id="Rectángulo_346663" data-name="Rectángulo 346663" width="6" height="47" transform="translate(844 2220)"/>
    <rect id="Rectángulo_346664" data-name="Rectángulo 346664" width="6" height="47" transform="translate(906 2220)"/>
    <rect id="Rectángulo_346665" data-name="Rectángulo 346665" width="8" height="33" transform="translate(874 2260)"/>
    <text id="_1" data-name="1" transform="translate(841 2216)" fill="#12263f" font-size="16" font-family="Roboto-Bold, Roboto" font-weight="700"><tspan x="0" y="0">1</tspan></text>
    <text id="_1_8" data-name="1/8" transform="translate(865 2248)" fill="#12263f" font-size="14" font-family="Roboto-Regular, Roboto"><tspan x="0" y="0">1/8</tspan></text>
    <text id="_1_16" data-name="1/16" transform="translate(852 2285)" fill="#12263f" font-size="8" font-family="Roboto-Regular, Roboto"><tspan x="0" y="0">1/16</tspan></text>
    <text id="_3_16" data-name="3/16" transform="translate(885 2285)" fill="#12263f" font-size="8" font-family="Roboto-Regular, Roboto"><tspan x="0" y="0">3/16</tspan></text>
    <text id="_2" data-name="2" transform="translate(902 2216)" fill="#12263f" font-size="16" font-family="Roboto-Bold, Roboto" font-weight="700"><tspan x="0" y="0">2</tspan></text>
  </g>
</svg>
