<svg xmlns="http://www.w3.org/2000/svg" xmlns:xlink="http://www.w3.org/1999/xlink" width="461" height="631" viewBox="0 0 461 631">
  <defs>
    <clipPath id="clip-path">
      <path id="Trazado_714001" data-name="Trazado 714001" d="M903,8508.6s25.8-8.4,34.2-40.8c0,0,1.4-24,16.4-18.4,0,0,9,4.6,11.6.6,0,0,14.4-13.4,17.8-3.2,0,0-.8,5,4.6,8.4,0,0,12.6,5.4,6.8,9.8,0,0-4.6,1.8-.8,4.6,0,0,8.6,2.6,7.4,10.4a12.786,12.786,0,0,0,3.6,7s6.6,4.2,2,9c0,0-.2,5.6,8.6,11.2Z" fill="none" stroke="#000" stroke-miterlimit="10" stroke-width="1"/>
    </clipPath>
  </defs>
  <g id="Grupo_1013246" data-name="Grupo 1013246" transform="translate(2796 8898)">
    <g id="Trazado_715973" data-name="Trazado 715973" transform="translate(-2796 -8898)" fill="#fff">
      <path d="M 434 629.5 L 27 629.5 C 23.55683326721191 629.5 20.21750068664551 628.8259887695312 17.07475090026855 627.4966430664062 C 14.03841686248779 626.21240234375 11.31116676330566 624.3735961914062 8.96875 622.03125 C 6.626416683197021 619.6888427734375 4.787583351135254 616.9616088867188 3.503333330154419 613.9252319335938 C 2.174000024795532 610.782470703125 1.5 607.4431762695312 1.5 604 L 1.5 27 C 1.5 23.55683326721191 2.174000024795532 20.21750068664551 3.503333330154419 17.07475090026855 C 4.787583351135254 14.03841686248779 6.626416683197021 11.31116676330566 8.96875 8.96875 C 11.31116676330566 6.626416683197021 14.03841686248779 4.787583351135254 17.07475090026855 3.503333330154419 C 20.21750068664551 2.174000024795532 23.55683326721191 1.5 27 1.5 L 434 1.5 C 437.4431762695312 1.5 440.7825012207031 2.174000024795532 443.9252624511719 3.503333330154419 C 446.9615783691406 4.787583351135254 449.6888427734375 6.626416683197021 452.03125 8.96875 C 454.3735961914062 11.31116676330566 456.21240234375 14.03841686248779 457.4966735839844 17.07475090026855 C 458.8259887695312 20.21750068664551 459.5 23.55683326721191 459.5 27 L 459.5 604 C 459.5 607.4431762695312 458.8259887695312 610.782470703125 457.4966735839844 613.9252319335938 C 456.21240234375 616.9616088867188 454.3735961914062 619.6888427734375 452.03125 622.03125 C 449.6888427734375 624.3735961914062 446.9615783691406 626.21240234375 443.9252624511719 627.4966430664062 C 440.7825012207031 628.8259887695312 437.4431762695312 629.5 434 629.5 Z" stroke="none"/>
      <path d="M 27 3 C 23.7586669921875 3 20.61590576171875 3.6341552734375 17.65908813476562 4.88482666015625 C 14.801513671875 6.09344482421875 12.2344970703125 7.8243408203125 10.0294189453125 10.0294189453125 C 7.8243408203125 12.2344970703125 6.093414306640625 14.801513671875 4.88482666015625 17.6590576171875 C 3.6341552734375 20.61590576171875 3 23.7586669921875 3 27 L 3 604 C 3 607.2413330078125 3.6341552734375 610.3840942382812 4.88482666015625 613.3409423828125 C 6.093414306640625 616.198486328125 7.8243408203125 618.7655029296875 10.0294189453125 620.9705810546875 C 12.2344970703125 623.1756591796875 14.801513671875 624.9065551757812 17.65908813476562 626.1151733398438 C 20.61590576171875 627.3658447265625 23.7586669921875 628 27 628 L 434 628 C 437.2413330078125 628 440.3840942382812 627.3658447265625 443.3409118652344 626.1151733398438 C 446.198486328125 624.9065551757812 448.7655029296875 623.1756591796875 450.9705810546875 620.9705810546875 C 453.1756591796875 618.7655029296875 454.9065856933594 616.198486328125 456.1151733398438 613.3409423828125 C 457.3658447265625 610.3840942382812 458 607.2413330078125 458 604 L 458 27 C 458 23.7586669921875 457.3658447265625 20.61590576171875 456.1151733398438 17.6590576171875 C 454.9065856933594 14.801513671875 453.1756591796875 12.2344970703125 450.9705810546875 10.0294189453125 C 448.7655029296875 7.8243408203125 446.198486328125 6.09344482421875 443.3409118652344 4.88482666015625 C 440.3840942382812 3.6341552734375 437.2413330078125 3 434 3 L 27 3 M 27 0 L 434 0 C 448.9116821289062 0 461 12.08831787109375 461 27 L 461 604 C 461 618.9116821289062 448.9116821289062 631 434 631 L 27 631 C 12.08834838867188 631 0 618.9116821289062 0 604 L 0 27 C 0 12.08831787109375 12.08834838867188 0 27 0 Z" stroke="none" fill="#e8e8e8"/>
    </g>
    <g id="Grupo_1007949" data-name="Grupo 1007949" transform="translate(-2648.511 -8297.752)">
      <path id="Trazado_713950" data-name="Trazado 713950" d="M2872.786,4532.667v7.113a4.509,4.509,0,0,1-4.508,4.51h-10.741a4.511,4.511,0,0,1-4.51-4.51v-7.113Z" transform="translate(-2853.027 -4532.667)" fill="#b8b3b3"/>
      <rect id="Rectángulo_347031" data-name="Rectángulo 347031" width="19.759" height="2.247" transform="translate(0 0)" fill="#b8b3b3" opacity="0.2" style="mix-blend-mode: multiply;isolation: isolate"/>
    </g>
    <g id="Grupo_1007950" data-name="Grupo 1007950" transform="translate(-2500.288 -8297.752)">
      <path id="Trazado_713951" data-name="Trazado 713951" d="M3795.917,4532.667v7.113a4.509,4.509,0,0,1-4.508,4.51h-10.741a4.511,4.511,0,0,1-4.51-4.51v-7.113Z" transform="translate(-3776.157 -4532.667)" fill="#b8b3b3"/>
      <rect id="Rectángulo_347032" data-name="Rectángulo 347032" width="19.759" height="2.247" transform="translate(0 0)" fill="#b8b3b3" opacity="0.2" style="mix-blend-mode: multiply;isolation: isolate"/>
    </g>
    <g id="Grupo_1007951" data-name="Grupo 1007951" transform="translate(-2703.007 -8393.913)">
      <path id="Trazado_713952" data-name="Trazado 713952" d="M2787.422,3964.525v46.363a19.039,19.039,0,0,1-19.049,19.049h-235.69c-.132,0-.262,0-.392-.005a19.041,19.041,0,0,1-18.658-19.044v-46.363a19.049,19.049,0,0,1,19.05-19.049h45.326v-11.7h138.344v11.7h52.02a19.047,19.047,0,0,1,19.049,19.049Z" transform="translate(-2513.633 -3933.776)" fill="#b8b3b3"/>
      <path id="Trazado_713953" data-name="Trazado 713953" d="M3052.9,3933.776v5.174c-19.441,2.031-40.587,3.613-61.989,4.135a554.319,554.319,0,0,1-76.355-3.74v-5.569Z" transform="translate(-2850.182 -3933.776)" fill="#ccc" opacity="0.3" style="mix-blend-mode: multiply;isolation: isolate"/>
      <path id="Trazado_713954" data-name="Trazado 713954" d="M2824.8,4065.088v14.62a19.043,19.043,0,0,1-19.05,19.05h-235.69c-.132,0-.261,0-.391-.005a19.064,19.064,0,0,1-11.508-14.836c3.855-37.982,63.583-68.157,136.7-68.157C2755.373,4015.759,2806.716,4036.429,2824.8,4065.088Z" transform="translate(-2551.012 -4002.595)" fill="#b8b3b3" opacity="0.2" style="mix-blend-mode: multiply;isolation: isolate"/>
      <path id="Trazado_713955" data-name="Trazado 713955" d="M4000.563,4022.138c2.721-.2,5.442-.322,8.164-.447l4.082-.15,1.02-.035c.341-.008.7,0,1.05,0s.7.032,1.055.048c.351.033.7.067,1.052.106a18.79,18.79,0,0,1,7.923,2.917,18.376,18.376,0,0,1,3.279,2.743,18.685,18.685,0,0,1,2.55,3.436,19.24,19.24,0,0,1,1.7,3.922,21.985,21.985,0,0,1,.818,4.166c.074.7.1,1.413.124,2.1l.053,2.039.048,2.039.034,2.041c.1,5.439.132,10.883-.016,16.342-.613-5.417-1.044-10.848-1.411-16.282l-.14-2.038-.126-2.039L4031.7,4041c-.043-.672-.083-1.317-.169-1.971a19.259,19.259,0,0,0-2.375-7.366,17.3,17.3,0,0,0-5.209-5.655,18.17,18.17,0,0,0-3.419-1.849,19.243,19.243,0,0,0-3.753-1.1l-.972-.149c-.326-.031-.652-.071-.98-.1s-.651-.038-.991-.047l-1.02-.035-4.082-.149C4006.005,4022.46,4003.284,4022.34,4000.563,4022.138Z" transform="translate(-3761.811 -4007.416)" fill="#8a8686"/>
      <path id="Trazado_713956" data-name="Trazado 713956" d="M2564.2,4022.138c-2.721.2-5.442.322-8.163.447l-4.082.149-1.02.035c-.34.009-.66.032-.991.047s-.654.064-.98.1l-.972.149a19.235,19.235,0,0,0-3.753,1.1,18.172,18.172,0,0,0-3.42,1.849,17.3,17.3,0,0,0-5.209,5.655,19.255,19.255,0,0,0-2.375,7.366c-.087.653-.126,1.3-.169,1.971l-.121,2.039-.126,2.039-.141,2.038c-.366,5.435-.8,10.866-1.41,16.282-.148-5.459-.114-10.9-.016-16.342l.034-2.041.048-2.039.053-2.039c.025-.686.05-1.4.124-2.1a21.985,21.985,0,0,1,.818-4.166,19.227,19.227,0,0,1,1.7-3.922,18.684,18.684,0,0,1,2.55-3.436,18.383,18.383,0,0,1,3.278-2.743,18.794,18.794,0,0,1,7.923-2.917c.351-.039.7-.073,1.053-.106.352-.016.7-.041,1.055-.048s.709,0,1.05,0l1.02.035,4.082.15C2558.757,4021.816,2561.478,4021.936,2564.2,4022.138Z" transform="translate(-2528.352 -4007.416)" fill="#e3e1e1"/>
    </g>
    <path id="Trazado_713957" data-name="Trazado 713957" d="M2788.257,4074.8a19.051,19.051,0,0,1-18.852,16.3h-235.69a19.052,19.052,0,0,1-18.852-16.3c3.855-37.982,63.583-68.157,136.7-68.157S2784.4,4036.818,2788.257,4074.8Z" transform="translate(-5217.672 -12388.856)" fill="#94b89d"/>
    <g id="Grupo_1007956" data-name="Grupo 1007956" transform="translate(-2702.81 -8382.213)">
      <path id="Trazado_713958" data-name="Trazado 713958" d="M2788.257,4074.8a19.051,19.051,0,0,1-18.852,16.3h-235.69a19.052,19.052,0,0,1-18.852-16.3c3.855-37.982,63.583-68.157,136.7-68.157S2784.4,4036.818,2788.257,4074.8Z" transform="translate(-2514.863 -4006.643)" fill="#94b89d"/>
      <path id="Trazado_713959" data-name="Trazado 713959" d="M2518.339,4077.544c3.855-37.982,63.583-68.157,136.7-68.157,46.43,0,87.459,12.169,112.212,30.777-24.272-20.147-67.012-33.522-115.688-33.522-73.115,0-132.843,30.175-136.7,68.157a19.049,19.049,0,0,0,8.882,13.487A18.987,18.987,0,0,1,2518.339,4077.544Z" transform="translate(-2514.863 -4006.643)" fill="#94b89d" opacity="0.2" style="mix-blend-mode: screen;isolation: isolate"/>
      <path id="Trazado_713960" data-name="Trazado 713960" d="M2784.97,4234.608c6.873,7.959,11.076,16.691,12.009,25.882a19.05,19.05,0,0,1-18.852,16.3h-235.69a18.957,18.957,0,0,1-10.645-3.252,19.032,19.032,0,0,0,16.134,8.924h235.69a19.051,19.051,0,0,0,18.852-16.3C2801.308,4254.733,2795.088,4244.013,2784.97,4234.608Z" transform="translate(-2529.074 -4198.004)" fill="#94b89d" opacity="0.2" style="mix-blend-mode: multiply;isolation: isolate"/>
      <g id="Grupo_1007952" data-name="Grupo 1007952" transform="translate(47.719 24.818)">
        <path id="Trazado_713961" data-name="Trazado 713961" d="M2873.01,4174.666v7.181a13.457,13.457,0,0,1-13.456,13.457h-34.043c-.247,0-.492-.008-.736-.021h0a13.443,13.443,0,0,1-12.721-13.436v-7.181A13.456,13.456,0,0,1,2825,4161.22c.17-.007.341-.011.512-.011h34.043a13.446,13.446,0,0,1,13.456,13.457Z" transform="translate(-2812.053 -4161.209)" fill="#b8b3b3" opacity="0.3" style="mix-blend-mode: screen;isolation: isolate"/>
        <path id="Trazado_713962" data-name="Trazado 713962" d="M2880.987,4180.362v7.181A13.456,13.456,0,0,1,2867.53,4201h-34.043q-.37,0-.736-.02h0a13.443,13.443,0,0,1-12.721-13.437v-7.181a13.455,13.455,0,0,1,12.946-13.445c.17-.007.34-.011.512-.011h34.043a13.445,13.445,0,0,1,13.457,13.457Z" transform="translate(-2818.748 -4165.991)" fill="#94b89d" opacity="0.2" style="mix-blend-mode: multiply;isolation: isolate"/>
        <path id="Trazado_713963" data-name="Trazado 713963" d="M2877.568,4176.944v7.181a13.457,13.457,0,0,1-13.456,13.457h-34.043c-.247,0-.492-.007-.736-.021h0a13.444,13.444,0,0,1-12.721-13.436v-7.181a13.455,13.455,0,0,1,12.946-13.445c.17-.008.34-.011.512-.011h34.043a13.445,13.445,0,0,1,13.456,13.457Z" transform="translate(-2815.878 -4163.122)" fill="#b8b3b3"/>
        <path id="Trazado_713964" data-name="Trazado 713964" d="M2876.012,4193.616v2.318a4.478,4.478,0,0,1-4.6,4.343h-11.638c-.084,0-.168,0-.251-.007h0a4.81,4.81,0,0,1-1.509-.323,4.5,4.5,0,0,1-2.482-2.332,4.124,4.124,0,0,1-.358-1.682v-2.318a4.466,4.466,0,0,1,4.426-4.34c.058,0,.116,0,.175,0h11.638a4.813,4.813,0,0,1,1.792.342A4.347,4.347,0,0,1,2876.012,4193.616Z" transform="translate(-2848.249 -4184.767)" fill="#b8b3b3" opacity="0.3" style="mix-blend-mode: screen;isolation: isolate"/>
        <path id="Trazado_713965" data-name="Trazado 713965" d="M2843.708,4163.488l-13.319,33.073a13.508,13.508,0,0,1-7.261-7.223l11.9-25.839c.17-.008.34-.011.512-.011Z" transform="translate(-2821.35 -4163.122)" fill="#b8b3b3" opacity="0.3" style="mix-blend-mode: screen;isolation: isolate"/>
        <path id="Trazado_713966" data-name="Trazado 713966" d="M3027.958,4164.547l-13.3,33.035h-9.1l13.345-34.094h3.818A13.407,13.407,0,0,1,3027.958,4164.547Z" transform="translate(-2974.483 -4163.122)" fill="#b8b3b3" opacity="0.3" style="mix-blend-mode: screen;isolation: isolate"/>
        <path id="Trazado_713967" data-name="Trazado 713967" d="M2921.067,4163.488l-13.626,34.094h-10.858c-.247,0-.492-.007-.736-.021l13.476-34.074Z" transform="translate(-2882.392 -4163.122)" fill="#b8b3b3" opacity="0.3" style="mix-blend-mode: screen;isolation: isolate"/>
        <path id="Trazado_713968" data-name="Trazado 713968" d="M2823.128,4179.684a11.791,11.791,0,0,1,.948-3.953,12.881,12.881,0,0,1,2.178-3.494,12.256,12.256,0,0,1,1.506-1.429,11.334,11.334,0,0,1,1.743-1.121,10.4,10.4,0,0,1,3.916-1.121,18.2,18.2,0,0,0-3.555,1.743,15.269,15.269,0,0,0-1.552,1.168,15.472,15.472,0,0,0-1.373,1.365,17.62,17.62,0,0,0-2.218,3.2c-.313.576-.608,1.166-.869,1.774S2823.346,4179.044,2823.128,4179.684Z" transform="translate(-2821.35 -4167.385)" fill="#e3e1e1"/>
        <path id="Trazado_713969" data-name="Trazado 713969" d="M3127.863,4306.168c.6-.311,1.18-.636,1.739-1s1.1-.729,1.625-1.124a17.612,17.612,0,0,0,2.832-2.67,15.518,15.518,0,0,0,1.145-1.561,15.25,15.25,0,0,0,.923-1.708,18.177,18.177,0,0,0,1.193-3.775,10.391,10.391,0,0,1-.524,4.039,11.34,11.34,0,0,1-.848,1.891,12.233,12.233,0,0,1-1.188,1.7,12.87,12.87,0,0,1-3.129,2.674A11.788,11.788,0,0,1,3127.863,4306.168Z" transform="translate(-3077.155 -4272.958)" fill="#e3e1e1"/>
      </g>
      <g id="Grupo_1007953" data-name="Grupo 1007953" transform="translate(127.336 29.035)">
        <circle id="Elipse_8415" data-name="Elipse 8415" cx="9.331" cy="9.331" r="9.331" transform="translate(1.736 18.794) rotate(-67.5)" fill="#94b89d" opacity="0.2" style="mix-blend-mode: multiply;isolation: isolate"/>
        <circle id="Elipse_8416" data-name="Elipse 8416" cx="9.331" cy="9.331" r="9.331" transform="translate(0 13.196) rotate(-45)" fill="#8c8c9d"/>
        <circle id="Elipse_8417" data-name="Elipse 8417" cx="7.405" cy="7.405" r="7.405" transform="translate(2.724 13.196) rotate(-45)" fill="#8c8c9d" opacity="0.2" style="mix-blend-mode: multiply;isolation: isolate"/>
        <circle id="Elipse_8418" data-name="Elipse 8418" cx="5.683" cy="5.683" r="5.683" transform="translate(5.159 13.196) rotate(-45)" fill="#8c8c9d" opacity="0.2" style="mix-blend-mode: multiply;isolation: isolate"/>
        <path id="Trazado_713970" data-name="Trazado 713970" d="M3335.941,4231.986a7.555,7.555,0,0,1-.09-2.5,8.429,8.429,0,0,1,.67-2.441,7.138,7.138,0,0,1,1.433-2.1,6.36,6.36,0,0,1,2.076-1.406,11.145,11.145,0,0,0-1.758,1.693,9.3,9.3,0,0,0-1.252,2.036,9.139,9.139,0,0,0-.432,1.121c-.129.38-.225.772-.317,1.166A15.524,15.524,0,0,0,3335.941,4231.986Z" transform="translate(-3331.312 -4217.749)" fill="#babac4"/>
        <path id="Trazado_713971" data-name="Trazado 713971" d="M3415.96,4272.57a7.548,7.548,0,0,1-.359,2.477,8.417,8.417,0,0,1-1.1,2.282,7.122,7.122,0,0,1-1.786,1.807,6.357,6.357,0,0,1-2.294,1.012,11.142,11.142,0,0,0,2.033-1.351,9.3,9.3,0,0,0,1.6-1.78,9.037,9.037,0,0,0,.625-1.025c.195-.352.359-.719.521-1.091A15.534,15.534,0,0,0,3415.96,4272.57Z" transform="translate(-3393.964 -4258.906)" fill="#696976"/>
        <circle id="Elipse_8419" data-name="Elipse 8419" cx="3.225" cy="3.225" r="3.225" transform="translate(7.495 7.346)" fill="#8c8c9d" opacity="0.2" style="mix-blend-mode: screen;isolation: isolate"/>
      </g>
      <g id="Grupo_1007954" data-name="Grupo 1007954" transform="translate(153.295 29.584)">
        <circle id="Elipse_8420" data-name="Elipse 8420" cx="9.331" cy="9.331" r="9.331" transform="translate(0 13.196) rotate(-45)" fill="#94b89d" opacity="0.2" style="mix-blend-mode: multiply;isolation: isolate"/>
        <circle id="Elipse_8421" data-name="Elipse 8421" cx="9.331" cy="9.331" r="9.331" transform="matrix(0.23, -0.973, 0.973, 0.23, 1.056, 19.584)" fill="#8c8c9d"/>
        <circle id="Elipse_8422" data-name="Elipse 8422" cx="7.405" cy="7.405" r="7.405" transform="matrix(0.23, -0.973, 0.973, 0.23, 3.373, 18.152)" fill="#8c8c9d" opacity="0.2" style="mix-blend-mode: multiply;isolation: isolate"/>
        <circle id="Elipse_8423" data-name="Elipse 8423" cx="5.683" cy="5.683" r="5.683" transform="translate(4.856 15.722) rotate(-67.5)" fill="#8c8c9d" opacity="0.2" style="mix-blend-mode: multiply;isolation: isolate"/>
        <path id="Trazado_713972" data-name="Trazado 713972" d="M3572.523,4272.57a7.542,7.542,0,0,1-.359,2.477,8.41,8.41,0,0,1-1.1,2.282,7.121,7.121,0,0,1-1.785,1.807,6.36,6.36,0,0,1-2.294,1.012,11.133,11.133,0,0,0,2.033-1.351,9.3,9.3,0,0,0,1.6-1.78,9.037,9.037,0,0,0,.625-1.025c.195-.352.359-.719.521-1.091A15.534,15.534,0,0,0,3572.523,4272.57Z" transform="translate(-3551.347 -4259.455)" fill="#696976"/>
        <path id="Trazado_713973" data-name="Trazado 713973" d="M3492.5,4231.986a7.542,7.542,0,0,1-.09-2.5,8.4,8.4,0,0,1,.67-2.441,7.12,7.12,0,0,1,1.433-2.1,6.36,6.36,0,0,1,2.076-1.406,11.128,11.128,0,0,0-1.758,1.693,9.294,9.294,0,0,0-1.251,2.036,9.141,9.141,0,0,0-.432,1.121c-.128.38-.225.772-.317,1.166A15.582,15.582,0,0,0,3492.5,4231.986Z" transform="translate(-3488.695 -4218.298)" fill="#babac4"/>
        <circle id="Elipse_8424" data-name="Elipse 8424" cx="3.225" cy="3.225" r="3.225" transform="translate(6.598 6.797)" fill="#8c8c9d" opacity="0.2" style="mix-blend-mode: screen;isolation: isolate"/>
      </g>
      <g id="Grupo_1007955" data-name="Grupo 1007955" transform="translate(179.353 30.04)">
        <circle id="Elipse_8425" data-name="Elipse 8425" cx="9.331" cy="9.331" r="9.331" transform="translate(3.592 3.226)" fill="#94b89d" opacity="0.2" style="mix-blend-mode: multiply;isolation: isolate"/>
        <circle id="Elipse_8426" data-name="Elipse 8426" cx="9.331" cy="9.331" r="9.331" transform="translate(0 7.141) rotate(-22.5)" fill="#8c8c9d"/>
        <circle id="Elipse_8427" data-name="Elipse 8427" cx="7.405" cy="7.405" r="7.405" transform="matrix(0.23, -0.973, 0.973, 0.23, 3.284, 17.697)" fill="#8c8c9d" opacity="0.2" style="mix-blend-mode: multiply;isolation: isolate"/>
        <circle id="Elipse_8428" data-name="Elipse 8428" cx="5.683" cy="5.683" r="5.683" transform="translate(5.355 16.416) rotate(-76.717)" fill="#8c8c9d" opacity="0.2" style="mix-blend-mode: multiply;isolation: isolate"/>
        <path id="Trazado_713974" data-name="Trazado 713974" d="M3733.708,4273.073a7.544,7.544,0,0,1-.359,2.477,8.4,8.4,0,0,1-1.1,2.282,7.128,7.128,0,0,1-1.786,1.808,6.364,6.364,0,0,1-2.294,1.011,11.216,11.216,0,0,0,2.033-1.35,9.327,9.327,0,0,0,1.6-1.78,9.078,9.078,0,0,0,.625-1.025c.195-.351.36-.719.521-1.09A15.587,15.587,0,0,0,3733.708,4273.073Z" transform="translate(-3712.708 -4260.333)" fill="#696976"/>
        <path id="Trazado_713975" data-name="Trazado 713975" d="M3653.625,4231.986a7.548,7.548,0,0,1-.09-2.5,8.413,8.413,0,0,1,.67-2.441,7.144,7.144,0,0,1,1.433-2.1,6.362,6.362,0,0,1,2.076-1.406,11.135,11.135,0,0,0-1.758,1.693,9.276,9.276,0,0,0-1.252,2.036,9.1,9.1,0,0,0-.432,1.121c-.129.38-.225.772-.317,1.166A15.553,15.553,0,0,0,3653.625,4231.986Z" transform="translate(-3650.003 -4218.753)" fill="#babac4"/>
        <circle id="Elipse_8429" data-name="Elipse 8429" cx="3.225" cy="3.225" r="3.225" transform="translate(6.858 6.341)" fill="#8c8c9d" opacity="0.2" style="mix-blend-mode: screen;isolation: isolate"/>
      </g>
      <path id="Trazado_713976" data-name="Trazado 713976" d="M2610.915,4326.675q-.992,1.65-1.82,3.377c-.138.287-.275.575-.4.867s-.258.583-.376.877l-.185.439-.173.444-.173.443-.161.448c-.431,1.194-.786,2.412-1.1,3.637a37.28,37.28,0,0,0-.729,3.716l.006-.047c0,.047,0,.132,0,.2s.006.151.011.228c.011.153.028.307.048.461a6.658,6.658,0,0,0,.193.911,6.255,6.255,0,0,0,1.951,3.062,7.742,7.742,0,0,0,1.543,1.015,10.063,10.063,0,0,0,1.765.67c.312.074.615.167.935.217l.474.09.481.066c.319.051.644.075.969.1s.652.037.979.049.656.007.985,0l1.01-.017c2.742-.071,5.469-.062,8.2-.053s5.457.059,8.184.119,5.453.136,8.178.23,5.45.219,8.175.332c5.448.271,10.9.574,16.336,1.033-5.458.166-10.912.2-16.364.231h-4.089c-1.363,0-2.726,0-4.088,0l-4.088-.021-4.086-.028c-5.446-.039-10.9-.109-16.325-.082l-.509,0-.525,0c-.353,0-.7,0-1.059-.027s-.707-.033-1.062-.077-.708-.071-1.062-.134l-.53-.085-.528-.116c-.353-.068-.7-.182-1.048-.277a11.643,11.643,0,0,1-2.027-.843,8.8,8.8,0,0,1-1.813-1.3,7.662,7.662,0,0,1-1.4-1.757,7.585,7.585,0,0,1-.825-2.074,7.944,7.944,0,0,1-.184-1.1c-.017-.185-.028-.371-.03-.558,0-.094,0-.187,0-.283s.007-.184.02-.307l0-.03,0-.016a38.352,38.352,0,0,1,.974-3.777,33.02,33.02,0,0,1,1.38-3.636l.2-.443.209-.438.21-.437.222-.431c.147-.288.3-.571.461-.853s.318-.562.483-.838A31.378,31.378,0,0,1,2610.915,4326.675Z" transform="translate(-2590.175 -4275.288)" fill="#bfd4c4"/>
      <path id="Trazado_713977" data-name="Trazado 713977" d="M3764.492,4326.675a31.256,31.256,0,0,1,2.169,3.19c.165.277.329.555.483.838s.314.565.461.853l.222.431.21.438.209.438.2.443a33.118,33.118,0,0,1,1.38,3.636,38.56,38.56,0,0,1,.974,3.777l0,.016,0,.03c.012.124.016.208.019.307s0,.189,0,.283c0,.188-.013.373-.03.558a7.907,7.907,0,0,1-.183,1.1,7.643,7.643,0,0,1-2.224,3.831,8.787,8.787,0,0,1-1.812,1.3,11.667,11.667,0,0,1-2.027.843c-.348.1-.7.208-1.048.277l-.528.116-.53.085c-.354.063-.707.1-1.061.134s-.708.055-1.062.077-.706.022-1.059.027l-.525,0-.509,0c-5.426-.028-10.879.043-16.325.082l-4.087.028-4.087.021c-1.363.01-2.726.007-4.088,0h-4.089c-5.452-.029-10.906-.066-16.364-.231,5.441-.459,10.888-.763,16.336-1.033,2.725-.113,5.449-.241,8.175-.332s5.452-.171,8.178-.23,5.455-.1,8.184-.119,5.458-.019,8.2.053l1.01.017c.328,0,.658.014.985,0s.656-.015.979-.049.65-.051.969-.1l.481-.066.474-.09c.319-.05.623-.143.935-.217a10.055,10.055,0,0,0,1.765-.67,7.73,7.73,0,0,0,1.544-1.015,6.255,6.255,0,0,0,1.951-3.062,6.657,6.657,0,0,0,.193-.911c.02-.154.037-.308.048-.461,0-.077.01-.153.011-.228s0-.157,0-.2l.006.047a37.42,37.42,0,0,0-.729-3.716c-.312-1.225-.666-2.443-1.1-3.637l-.161-.448-.173-.443-.173-.444-.185-.439c-.119-.295-.245-.587-.376-.877s-.263-.58-.4-.867Q3765.483,4328.328,3764.492,4326.675Z" transform="translate(-3517.418 -4275.288)" fill="#6f8a76"/>
    </g>
    <path id="Trazado_713978" data-name="Trazado 713978" d="M2878.485,3945.476c-3.9.595-8,1.195-12.264,1.789a857.131,857.131,0,0,1-95.732,8.261c-38.856.946-75.49-3.052-102.542-7.32-5.787-.913-11.137-1.838-15.976-2.729h42.163v-11.7h138.344v11.7Z" transform="translate(-5332.766 -12327.689)" fill="#b8b3b3" opacity="0.2" style="mix-blend-mode: multiply;isolation: isolate"/>
    <g id="Grupo_1007957" data-name="Grupo 1007957" transform="translate(-2757 -8455)">
      <path id="Trazado_713979" data-name="Trazado 713979" d="M2772.191,3677.983s-12.479,2.7-32.588,6.032c-7.516,1.244-16.1,2.578-25.491,3.89a857.081,857.081,0,0,1-95.732,8.26c-38.856.946-75.49-3.052-102.542-7.32-9.582-1.511-17.963-3.057-24.814-4.429-12.794-2.561-20.257-4.519-20.257-4.519a75,75,0,0,1,8.3-5.551c17.11-10.218,61.393-31.088,139.314-32.5,63.568-1.149,119.692,20.5,142.711,30.821C2768.236,3675.872,2772.191,3677.983,2772.191,3677.983Z" transform="translate(-2423.656 -3627.599)" fill="#ccc"/>
      <path id="Trazado_713980" data-name="Trazado 713980" d="M2772.191,3677.983s-12.479,2.7-32.588,6.032c-11.708-.811-20.1-1.643-20.1-1.643s-84.072-8.222-101.12-8.222-101.122,8.222-101.122,8.222-11.44,1.134-26.234,2.044c-12.794-2.561-20.257-4.519-20.257-4.519a75,75,0,0,1,8.3-5.551c17.11-10.218,61.393-31.088,139.314-32.5,63.568-1.149,119.692,20.5,142.711,30.821C2768.236,3675.872,2772.191,3677.983,2772.191,3677.983Z" transform="translate(-2423.656 -3627.599)" fill="#ccc" opacity="0.3" style="mix-blend-mode: multiply;isolation: isolate"/>
      <path id="Trazado_713981" data-name="Trazado 713981" d="M2566.729,3599.9a3.894,3.894,0,0,1-.721,1.471,6.8,6.8,0,0,1-1.26,1.233,15.418,15.418,0,0,1-3.3,1.846c-16.557,7.11-88.234,0-88.234,0s-30.566-2.99-58.575-5.363c-18.442-1.564-35.775-2.86-42.545-2.86-7.375,0-27.3,1.539-47.529,3.286l-.124.011c-26.49,2.287-53.469,4.925-53.469,4.925s-71.675,7.11-88.233,0a15.478,15.478,0,0,1-3.3-1.846,6.744,6.744,0,0,1-1.259-1.233,3.853,3.853,0,0,1-.721-1.469c-.684-2.873,2.559-6.034,7.647-9.278,6.625-4.222,16.375-8.583,24.646-12.62.229-.11.456-.221.682-.329,12.494-5.987,27.756-9.761,43.9-10.975,14.637-1.1,42.973-3.647,58.866-7.807,22.083-5.778,58.89-5.554,58.89-5.554s36.807-.223,58.89,5.554c15.894,4.16,44.23,6.707,58.866,7.807,16.142,1.214,31.4,4.989,43.9,10.975.229.108.455.219.682.329,6.42,3.134,13.729,6.462,19.776,9.768C2561.941,3591.994,2567.611,3596.185,2566.729,3599.9Z" transform="translate(-2177.375 -3553.332)" fill="#d3d1d1"/>
      <path id="Trazado_713982" data-name="Trazado 713982" d="M2561.444,3674.306c-16.557,7.111-88.234,0-88.234,0s-84.072-8.222-101.12-8.222c-2.719,0-7.143.209-12.659.561-29.068,1.852-88.463,7.661-88.463,7.661s-71.675,7.111-88.233,0,8.81-17.555,27.017-26.445q.343-.167.682-.329a99.542,99.542,0,0,1,10.193-4.186,133.185,133.185,0,0,1,33.706-6.79c107.167,12.194,174.323,11.6,235.513,0,16.142,1.214,31.4,4.988,43.9,10.976.229.108.455.218.682.329C2552.635,3656.75,2578,3667.2,2561.444,3674.306Z" transform="translate(-2177.366 -3623.193)" fill="#e6e9ec" opacity="0.5" style="mix-blend-mode: multiply;isolation: isolate"/>
      <path id="Trazado_713983" data-name="Trazado 713983" d="M2402.2,3723.934l-3.084,3.719c-27.591,1.545-83.968,6.391-83.968,6.391s-66.439,4.229-83.749,0c-15.686-3.833,15.908-21.373,22.813-22.908,5.5-1.224-22.1,13.372-3.372,16.485C2268.166,3730.5,2374.252,3724.893,2402.2,3723.934Z" transform="translate(-2219.101 -3685.737)" fill="#e6e9ec" opacity="0.5" style="mix-blend-mode: multiply;isolation: isolate"/>
      <path id="Trazado_713984" data-name="Trazado 713984" d="M3463.283,3702.445l3.084,3.719c27.591,1.545,83.968,6.391,83.968,6.391s68.033,5.932,83.749,0-8.362-14.646-25.644-22.063c-.217-.093-.433-.185-.648-.275-3.06-1.289-4.489-2.819-7.868-3.856,8.419,4.444,24.792,12.435,14.719,19.771C3605.017,3713.141,3491.231,3703.405,3463.283,3702.445Z" transform="translate(-3256.808 -3665.001)" fill="#e6e9ec" opacity="0.5" style="mix-blend-mode: multiply;isolation: isolate"/>
      <path id="Trazado_713985" data-name="Trazado 713985" d="M2717.587,3571.558c-14.637-1.1-42.868-2.99-58.761-7.148-22.083-5.778-60.247-5.556-60.247-5.556s-36.807.111-58.89,5.889c-15.893,4.159-42.051,5.155-56.695,6.222-26.112,1.9-35.815,5.362-35.815,5.362a129.523,129.523,0,0,1,33.644-6.365c14.692-.825,42.973-3.648,58.866-7.806,22.083-5.778,58.89-5.555,58.89-5.555s36.807-.222,58.89,5.555c15.894,4.159,44.241,6.657,58.866,7.806,12.817,1.007,19.525,2.188,25.967,4.051C2742.568,3574.091,2733.729,3572.772,2717.587,3571.558Z" transform="translate(-2403.856 -3556.075)" fill="#e6e9ec" opacity="0.7" style="mix-blend-mode: screen;isolation: isolate"/>
      <path id="Trazado_713986" data-name="Trazado 713986" d="M2554.209,3678.091c-6.047-3.306-13.356-6.634-19.776-9.768-.227-.11-.454-.221-.682-.329a107.848,107.848,0,0,0-19.734-7.061q3.115,1.2,6.031,2.579c.211.1.421.2.63.3,5.927,2.856,12.675,5.889,18.257,8.9,7.138,3.852,12.373,7.671,11.558,11.053a3.536,3.536,0,0,1-.665,1.341,6.257,6.257,0,0,1-1.164,1.124,14.3,14.3,0,0,1-3.042,1.682c-15.286,6.48-81.46,0-81.46,0s-28.219-2.724-54.078-4.887c-17.026-1.426-33.028-2.606-39.278-2.606-6.809,0-25.2,1.4-43.879,2.995l-.115.01c-24.456,2.084-49.364,4.488-49.364,4.488s-66.172,6.48-81.458,0a14.342,14.342,0,0,1-3.044-1.682,6.183,6.183,0,0,1-1.162-1.124,3.5,3.5,0,0,1-.666-1.339c-.632-2.618,2.363-5.5,7.061-8.455,6.116-3.848,15.117-7.822,22.754-11.5.211-.1.421-.2.63-.3l.184-.086a100.756,100.756,0,0,0-11.3,4.568c-.227.108-.454.219-.682.329-8.272,4.038-18.021,8.4-24.646,12.62-5.088,3.244-8.332,6.405-7.647,9.278a3.854,3.854,0,0,0,.721,1.469,6.759,6.759,0,0,0,1.259,1.233,15.478,15.478,0,0,0,3.3,1.846c16.558,7.11,88.233,0,88.233,0s26.979-2.638,53.469-4.925l.124-.011c20.232-1.747,40.154-3.286,47.529-3.286,6.769,0,24.1,1.3,42.545,2.859,28.009,2.373,58.575,5.363,58.575,5.363s71.677,7.11,88.234,0a15.429,15.429,0,0,0,3.3-1.846,6.818,6.818,0,0,0,1.26-1.233,3.9,3.9,0,0,0,.721-1.471C2567.611,3686.508,2561.941,3682.317,2554.209,3678.091Z" transform="translate(-2177.375 -3643.655)" fill="#d8d6d6"/>
      <path id="Trazado_713987" data-name="Trazado 713987" d="M2936.458,3919.294c10.667.412,21.3.862,31.927,1.24l7.969.272,7.967.23,3.982.1c1.328.032,2.655.07,3.983.088l3.982.083,3.981.056c1.327.028,2.654.032,3.981.049l1.991.021,1.99,0c1.327.006,2.654.022,3.981.021s2.653-.015,3.98-.009c5.306-.029,10.613-.089,15.918-.238l1-.024.994-.035,1.989-.066,1.99-.066,1.989-.085,3.979-.177,3.978-.221,1-.053.993-.07,1.989-.136,1.991-.129,1.988-.162c2.656-.188,5.3-.473,7.965-.7-1.3.317-2.6.6-3.9.909l-.979.215-.983.193-1.967.385-1.969.38-1.977.329-1.98.322-.99.16-.992.143-3.974.544c-1.326.17-2.656.307-3.984.463-.664.073-1.329.158-1.994.218l-2,.185-2,.185-1,.09-1,.073-4,.292c-1.334.086-2.669.148-4,.224l-2,.106-2,.076c-1.335.045-2.671.108-4.007.138s-2.672.058-4.007.087-2.672.03-4.008.045l-2,.009-2-.01c-1.336-.011-2.672,0-4.007-.03l-4.006-.078-4-.113c-1.334-.04-2.668-.1-4-.153s-2.668-.105-4-.184q-8-.406-15.977-1.1t-15.922-1.686c-2.647-.343-5.292-.69-7.931-1.1-1.319-.2-2.638-.405-3.955-.62S2937.769,3919.55,2936.458,3919.294Z" transform="translate(-2814.573 -3860.532)" fill="#ededed"/>
      <path id="Trazado_713988" data-name="Trazado 713988" d="M3006.433,3601.777c1.2-.318,2.416-.591,3.626-.875s2.429-.528,3.646-.786c2.434-.511,4.878-.966,7.326-1.4q7.346-1.3,14.755-2.217l3.706-.442c1.235-.146,2.474-.262,3.711-.394s2.477-.247,3.716-.355l1.859-.164,1.861-.145c2.481-.206,4.968-.337,7.454-.491,2.488-.112,4.977-.226,7.468-.287,1.245-.034,2.491-.063,3.738-.069s2.492-.03,3.739-.029l3.74.042.935.012.935.026,1.87.059c4.985.172,9.971.476,14.934,1.037a143.353,143.353,0,0,1,14.793,2.33l.916.192.458.1.455.111,1.819.446,1.815.452q.454.108.9.246l.9.266,1.793.531c.6.179,1.2.344,1.782.558,1.175.419,2.352.822,3.517,1.252-1.226-.226-2.44-.479-3.656-.716-.6-.134-1.217-.228-1.828-.331l-1.831-.305-.914-.152-.456-.078-.459-.065-1.836-.252-1.832-.259-.458-.065-.46-.051-.92-.1c-4.9-.6-9.814-.968-14.732-1.236l-1.844-.1-.922-.048c-.307-.015-.616-.021-.923-.031l-3.693-.134c-1.231-.037-2.464-.043-3.695-.078-.616-.012-1.231-.032-1.847-.038l-1.849-.008-1.848-.013-.924-.01-.925,0-3.7.023-3.7.053c-.617.011-1.233.014-1.849.033l-1.849.054c-4.931.113-9.863.32-14.795.576l-1.85.091-1.849.109c-1.232.078-2.467.131-3.7.215q-3.7.229-7.4.484-7.4.511-14.8,1.138l-7.409.627Z" transform="translate(-2873.313 -3587.571)" fill="#ededed"/>
      <path id="Trazado_713989" data-name="Trazado 713989" d="M2208.273,3781.22c-.711.684-1.389,1.377-2.028,2.088a19.048,19.048,0,0,0-1.729,2.2,6.9,6.9,0,0,0-1.052,2.266,2.668,2.668,0,0,0-.037.981,1.979,1.979,0,0,0,.325.775,3.372,3.372,0,0,0,.664.693c.155.1.282.221.453.319.082.051.158.1.242.154l.262.144a13.913,13.913,0,0,0,2.361.96c.848.26,1.72.5,2.62.694.449.1.9.2,1.354.286s.911.176,1.375.246l.69.121.7.11.7.108.7.1c.466.073.934.137,1.4.2l.7.093c.236.026.472.056.707.088,1.886.24,3.784.456,5.692.677,3.816.456,7.661.869,11.535,1.6a55.3,55.3,0,0,1-5.812.9c-1.944.209-3.9.324-5.852.379l-1.468.026-1.47-.012c-.981-.011-1.962-.054-2.945-.11-.492-.021-.982-.065-1.474-.108s-.984-.085-1.477-.14l-.738-.087-.739-.1c-.492-.065-.985-.142-1.478-.226-.983-.176-1.97-.381-2.954-.629l-.737-.2c-.245-.068-.491-.149-.737-.224l-.368-.115-.368-.128c-.246-.086-.489-.17-.733-.274a14.372,14.372,0,0,1-2.887-1.486l-.35-.246c-.116-.086-.23-.182-.344-.273a7.769,7.769,0,0,1-.665-.6,6.164,6.164,0,0,1-1.1-1.589,4.484,4.484,0,0,1-.428-2,4.876,4.876,0,0,1,.416-1.865,8.074,8.074,0,0,1,1.958-2.653,14.643,14.643,0,0,1,2.442-1.82A15.753,15.753,0,0,1,2208.273,3781.22Z" transform="translate(-2197.023 -3744.629)" fill="#ededed"/>
      <path id="Trazado_713990" data-name="Trazado 713990" d="M4383.793,3781.22a15.76,15.76,0,0,1,2.672,1.3,14.663,14.663,0,0,1,2.442,1.82,8.081,8.081,0,0,1,1.958,2.653,4.885,4.885,0,0,1,.416,1.865,4.481,4.481,0,0,1-.428,2,6.163,6.163,0,0,1-1.1,1.589,7.841,7.841,0,0,1-.665.6c-.114.091-.229.187-.344.273l-.35.246a14.365,14.365,0,0,1-2.887,1.486c-.244.1-.487.188-.733.274l-.368.128-.368.115c-.245.074-.491.156-.736.224l-.737.2c-.984.248-1.971.453-2.954.629-.493.084-.986.16-1.478.226l-.738.1-.738.087c-.493.054-.984.1-1.476.14s-.983.088-1.475.108c-.983.056-1.964.1-2.945.11l-1.47.012-1.468-.026c-1.956-.055-3.908-.169-5.852-.379a55.307,55.307,0,0,1-5.812-.9c3.875-.73,7.72-1.144,11.536-1.6,1.908-.221,3.807-.437,5.692-.677.236-.031.471-.061.708-.088l.7-.093c.47-.06.938-.124,1.4-.2l.7-.1.7-.108.7-.11.691-.121c.463-.07.917-.163,1.375-.246s.905-.189,1.354-.286c.9-.19,1.772-.434,2.62-.694a13.919,13.919,0,0,0,2.36-.96l.263-.144c.084-.05.16-.1.242-.154.171-.1.3-.217.453-.319a3.359,3.359,0,0,0,.664-.693,1.983,1.983,0,0,0,.325-.775,2.668,2.668,0,0,0-.037-.981,6.9,6.9,0,0,0-1.052-2.266,19.075,19.075,0,0,0-1.729-2.2C4385.182,3782.6,4384.5,3781.9,4383.793,3781.22Z" transform="translate(-4006.315 -3744.629)" fill="#ededed"/>
      <path id="Trazado_713991" data-name="Trazado 713991" d="M2963.8,3798.329c1.339-.292,2.684-.542,4.029-.805s2.694-.487,4.043-.725q4.046-.7,8.11-1.3,8.125-1.2,16.3-2.075l2.042-.218,2.044-.2c1.363-.134,2.726-.263,4.091-.379s2.728-.246,4.094-.346l4.1-.3c1.366-.1,2.735-.174,4.1-.258s2.736-.153,4.1-.224c2.737-.144,5.478-.223,8.218-.323,2.742-.055,5.483-.122,8.227-.128,1.371,0,2.743-.011,4.115.01s2.744.02,4.116.053l4.116.122,1.029.031,1.029.05,2.057.1,2.056.1c.686.04,1.371.09,2.056.138l2.054.151c.685.053,1.37.093,2.054.163l4.1.4c1.366.144,2.731.321,4.094.491s2.724.373,4.082.584l2.036.319c.678.109,1.354.245,2.029.37l2.025.387,1.012.194,1.006.229,2.009.463,1,.233.5.119.5.137c1.324.372,2.65.729,3.966,1.112,1.3.442,2.6.869,3.895,1.322-1.35-.249-2.687-.524-4.025-.784-1.346-.228-2.694-.437-4.037-.656-2.7-.367-5.395-.73-8.1-.977-.677-.064-1.349-.151-2.028-.206l-2.033-.158-2.031-.165c-.676-.064-1.356-.088-2.034-.131l-2.035-.121c-.678-.038-1.354-.1-2.034-.117l-4.073-.173q-8.15-.272-16.308-.266c-2.72.026-5.439.012-8.16.081-2.72.025-5.441.1-8.162.17-2.721.082-5.442.156-8.163.271-2.722.083-5.442.226-8.164.334-5.443.247-10.886.542-16.332.85s-10.892.649-16.343,1Z" transform="translate(-2837.529 -3752.87)" fill="#ededed"/>
    </g>
    <path id="Trazado_713992" data-name="Trazado 713992" d="M903,8508.6s25.8-8.4,34.2-40.8c0,0,1.4-24,16.4-18.4,0,0,9,4.6,11.6.6,0,0,14.4-13.4,17.8-3.2,0,0-.8,5,4.6,8.4,0,0,12.6,5.4,6.8,9.8,0,0-4.6,1.8-.8,4.6,0,0,8.6,2.6,7.4,10.4a12.786,12.786,0,0,0,3.6,7s6.6,4.2,2,9c0,0-.2,5.6,8.6,11.2Z" transform="translate(-3584.712 -17286.785)" fill="#fff" stroke="#000" stroke-miterlimit="10" stroke-width="1"/>
    <path id="Trazado_715983" data-name="Trazado 715983" d="M0,0H18V9.4H0Z" transform="translate(-2635.312 -8767.385)" fill="#fff" stroke="#000" stroke-width="1"/>
    <path id="Trazado_715981" data-name="Trazado 715981" d="M0,0H77.4V65.8H0Z" transform="translate(-2665.112 -8757.985)" fill="#fff" stroke="#000" stroke-width="1"/>
    <path id="Trazado_715977" data-name="Trazado 715977" d="M0,0H77.4V46H0Z" transform="translate(-2665.112 -8645.985)" fill="#fff" stroke="#000" stroke-width="1"/>
    <path id="Trazado_715974" data-name="Trazado 715974" d="M0,0H77.4V46H0Z" transform="translate(-2665.112 -8570.186)" fill="#fff" stroke="#000" stroke-width="1"/>
    <path id="Trazado_713993" data-name="Trazado 713993" d="M958.075,8715.8l-2.651-5.2h5.3Z" transform="translate(-3584.712 -17286.785)"/>
    <path id="Trazado_715976" data-name="Trazado 715976" d="M0,0V25.2" transform="translate(-2626.637 -8600.186)" fill="none" stroke="#000" stroke-width="1"/>
    <path id="Trazado_713994" data-name="Trazado 713994" d="M958.075,8640.2l-2.651-5.2h5.3Z" transform="translate(-3584.712 -17286.785)"/>
    <path id="Trazado_715979" data-name="Trazado 715979" d="M0,0V41.6" transform="translate(-2626.637 -8692.186)" fill="none" stroke="#000" stroke-width="1"/>
    <g id="Grupo_1007966" data-name="Grupo 1007966" transform="translate(-3584.712 -17286.785)" clip-path="url(#clip-path)">
      <g id="Grupo_1007965" data-name="Grupo 1007965">
        <g id="Grupo_1007959" data-name="Grupo 1007959">
          <path id="Trazado_713995" data-name="Trazado 713995" d="M967.075,8506.2l-2.651-5.2h5.3Z"/>
          <line id="Línea_2448" data-name="Línea 2448" y2="63.2" transform="translate(967.075 8439)" fill="none" stroke="#000" stroke-miterlimit="10" stroke-width="1"/>
        </g>
        <g id="Grupo_1007960" data-name="Grupo 1007960">
          <path id="Trazado_713996" data-name="Trazado 713996" d="M982.675,8506.2l-2.651-5.2h5.3Z"/>
          <line id="Línea_2449" data-name="Línea 2449" y2="63.2" transform="translate(982.675 8439)" fill="none" stroke="#000" stroke-miterlimit="10" stroke-width="1"/>
        </g>
        <g id="Grupo_1007961" data-name="Grupo 1007961">
          <path id="Trazado_713997" data-name="Trazado 713997" d="M998.4,8506.2l-2.651-5.2h5.3Z"/>
          <line id="Línea_2450" data-name="Línea 2450" y2="63.2" transform="translate(998.4 8439)" fill="none" stroke="#000" stroke-miterlimit="10" stroke-width="1"/>
        </g>
        <g id="Grupo_1007962" data-name="Grupo 1007962">
          <path id="Trazado_713998" data-name="Trazado 713998" d="M918.475,8506.2l-2.651-5.2h5.3Z"/>
          <line id="Línea_2451" data-name="Línea 2451" y2="63.2" transform="translate(918.475 8439)" fill="none" stroke="#000" stroke-miterlimit="10" stroke-width="1"/>
        </g>
        <g id="Grupo_1007963" data-name="Grupo 1007963">
          <path id="Trazado_713999" data-name="Trazado 713999" d="M934.075,8506.2l-2.651-5.2h5.3Z"/>
          <line id="Línea_2452" data-name="Línea 2452" y2="63.2" transform="translate(934.075 8439)" fill="none" stroke="#000" stroke-miterlimit="10" stroke-width="1"/>
        </g>
        <g id="Grupo_1007964" data-name="Grupo 1007964">
          <path id="Trazado_714000" data-name="Trazado 714000" d="M949.8,8506.2l-2.651-5.2h5.3Z"/>
          <line id="Línea_2453" data-name="Línea 2453" y2="63.2" transform="translate(949.8 8439)" fill="none" stroke="#000" stroke-miterlimit="10" stroke-width="1"/>
        </g>
      </g>
    </g>
    <path id="Trazado_714002" data-name="Trazado 714002" d="M903,8508.6s25.8-8.4,34.2-40.8c0,0,1.4-24,16.4-18.4,0,0,9,4.6,11.6.6,0,0,14.4-13.4,17.8-3.2,0,0-.8,5,4.6,8.4,0,0,12.6,5.4,6.8,9.8,0,0-4.6,1.8-.8,4.6,0,0,8.6,2.6,7.4,10.4a12.786,12.786,0,0,0,3.6,7s6.6,4.2,2,9c0,0-.2,5.6,8.6,11.2Z" transform="translate(-3584.712 -17286.785)" fill="none" stroke="#000" stroke-miterlimit="10" stroke-width="1"/>
    <path id="Trazado_715982" data-name="Trazado 715982" d="M3.258-11.375,6.977-2.094,10.7-11.375h1.945V0h-1.5V-4.43l.141-4.781L7.547,0H6.4L2.672-9.187,2.82-4.43V0H1.32V-11.375ZM18.57.156a3.693,3.693,0,0,1-2.8-1.129A4.19,4.19,0,0,1,14.7-3.992v-.266a5.073,5.073,0,0,1,.48-2.246A3.748,3.748,0,0,1,16.52-8.051a3.378,3.378,0,0,1,1.871-.559,3.166,3.166,0,0,1,2.563,1.086,4.7,4.7,0,0,1,.914,3.109v.6H16.141a3,3,0,0,0,.73,2.02,2.3,2.3,0,0,0,1.777.77,2.517,2.517,0,0,0,1.3-.312,3.259,3.259,0,0,0,.93-.828l.883.688A3.55,3.55,0,0,1,18.57.156Zm-.18-7.578a1.928,1.928,0,0,0-1.469.637A3.1,3.1,0,0,0,16.188-5h4.234v-.109a2.753,2.753,0,0,0-.594-1.707A1.815,1.815,0,0,0,18.391-7.422Zm8.539,6.4a2.082,2.082,0,0,0,1.352-.469,1.649,1.649,0,0,0,.641-1.172h1.367a2.621,2.621,0,0,1-.5,1.383,3.293,3.293,0,0,1-1.23,1.047A3.55,3.55,0,0,1,26.93.156,3.482,3.482,0,0,1,24.184-1a4.59,4.59,0,0,1-1.02-3.152v-.242a5.089,5.089,0,0,1,.453-2.2,3.451,3.451,0,0,1,1.3-1.492,3.7,3.7,0,0,1,2-.531,3.39,3.39,0,0,1,2.363.852,3.043,3.043,0,0,1,1,2.211H28.922A1.992,1.992,0,0,0,28.3-6.895a1.932,1.932,0,0,0-1.379-.527,2.023,2.023,0,0,0-1.707.793,3.724,3.724,0,0,0-.605,2.293v.273a3.65,3.65,0,0,0,.6,2.25A2.033,2.033,0,0,0,26.93-1.023ZM37.133,0a3.036,3.036,0,0,1-.2-.891A3.225,3.225,0,0,1,34.523.156a2.984,2.984,0,0,1-2.051-.707,2.287,2.287,0,0,1-.8-1.793,2.39,2.39,0,0,1,1-2.051,4.733,4.733,0,0,1,2.824-.73h1.406v-.664A1.623,1.623,0,0,0,36.453-7a1.821,1.821,0,0,0-1.336-.449,2.107,2.107,0,0,0-1.3.391,1.151,1.151,0,0,0-.523.945H31.844a2,2,0,0,1,.449-1.223,3.066,3.066,0,0,1,1.219-.934A4.1,4.1,0,0,1,35.2-8.609a3.342,3.342,0,0,1,2.289.73,2.635,2.635,0,0,1,.859,2.012v3.891a4.757,4.757,0,0,0,.3,1.852V0Zm-2.4-1.1a2.54,2.54,0,0,0,1.289-.352,2.127,2.127,0,0,0,.883-.914V-4.1H35.773q-2.656,0-2.656,1.555a1.316,1.316,0,0,0,.453,1.063A1.742,1.742,0,0,0,34.734-1.1Zm7.25-7.352.047,1.063a3.08,3.08,0,0,1,2.531-1.219q2.68,0,2.7,3.023V0H45.82V-5.594A1.946,1.946,0,0,0,45.4-6.945a1.675,1.675,0,0,0-1.277-.437,2.086,2.086,0,0,0-1.234.375,2.546,2.546,0,0,0-.828.984V0H40.617V-8.453ZM51.016,0H49.57V-8.453h1.445ZM49.453-10.7a.863.863,0,0,1,.215-.594.807.807,0,0,1,.637-.242.819.819,0,0,1,.641.242.854.854,0,0,1,.219.594.826.826,0,0,1-.219.586.834.834,0,0,1-.641.234.821.821,0,0,1-.637-.234A.834.834,0,0,1,49.453-10.7Zm8.8,8.453a1.064,1.064,0,0,0-.441-.91,4.249,4.249,0,0,0-1.539-.559,7.277,7.277,0,0,1-1.742-.562,2.479,2.479,0,0,1-.953-.781,1.869,1.869,0,0,1-.309-1.078,2.193,2.193,0,0,1,.879-1.758,3.432,3.432,0,0,1,2.246-.719,3.532,3.532,0,0,1,2.332.742,2.357,2.357,0,0,1,.895,1.9H58.164a1.3,1.3,0,0,0-.5-1.023,1.888,1.888,0,0,0-1.27-.43,1.976,1.976,0,0,0-1.234.344,1.082,1.082,0,0,0-.445.9.877.877,0,0,0,.414.789,5.1,5.1,0,0,0,1.5.508,7.8,7.8,0,0,1,1.754.578,2.558,2.558,0,0,1,1,.809A1.988,1.988,0,0,1,59.7-2.344a2.163,2.163,0,0,1-.906,1.816,3.8,3.8,0,0,1-2.352.684,4.257,4.257,0,0,1-1.8-.359,2.922,2.922,0,0,1-1.223-1A2.42,2.42,0,0,1,52.977-2.6h1.445A1.5,1.5,0,0,0,55-1.449a2.258,2.258,0,0,0,1.434.426,2.331,2.331,0,0,0,1.316-.332A1.02,1.02,0,0,0,58.25-2.242Zm4.688-6.211.039.938a3.122,3.122,0,0,1,2.508-1.094A2.417,2.417,0,0,1,67.9-7.25,3.2,3.2,0,0,1,69-8.234a3.242,3.242,0,0,1,1.6-.375q2.781,0,2.828,2.945V0H71.977V-5.578a1.941,1.941,0,0,0-.414-1.355,1.823,1.823,0,0,0-1.391-.449,1.916,1.916,0,0,0-1.336.48,1.949,1.949,0,0,0-.617,1.293V0H66.766V-5.539a1.613,1.613,0,0,0-1.8-1.844,1.934,1.934,0,0,0-1.945,1.211V0H61.57V-8.453ZM75.219-4.3a4.993,4.993,0,0,1,.488-2.234A3.643,3.643,0,0,1,77.066-8.07a3.7,3.7,0,0,1,1.988-.539,3.565,3.565,0,0,1,2.793,1.2,4.6,4.6,0,0,1,1.066,3.18v.1a5.036,5.036,0,0,1-.473,2.215A3.589,3.589,0,0,1,81.09-.391a3.743,3.743,0,0,1-2.02.547,3.556,3.556,0,0,1-2.785-1.2A4.575,4.575,0,0,1,75.219-4.2Zm1.453.172a3.616,3.616,0,0,0,.652,2.258,2.088,2.088,0,0,0,1.746.852,2.075,2.075,0,0,0,1.75-.863A3.955,3.955,0,0,0,81.469-4.3a3.61,3.61,0,0,0-.66-2.254,2.1,2.1,0,0,0-1.754-.863,2.075,2.075,0,0,0-1.727.852A3.925,3.925,0,0,0,76.672-4.133ZM88.336-4.3a4.952,4.952,0,0,1,.922-3.129,2.915,2.915,0,0,1,2.414-1.184,2.932,2.932,0,0,1,2.352,1.016V-12h1.445V0H94.141l-.07-.906A2.943,2.943,0,0,1,91.656.156a2.887,2.887,0,0,1-2.395-1.2,5.008,5.008,0,0,1-.926-3.141Zm1.445.164a3.749,3.749,0,0,0,.594,2.25,1.92,1.92,0,0,0,1.641.813A2.109,2.109,0,0,0,94.023-2.3V-6.187a2.125,2.125,0,0,0-1.992-1.2,1.929,1.929,0,0,0-1.656.82A4.128,4.128,0,0,0,89.781-4.133ZM101.219.156a3.693,3.693,0,0,1-2.8-1.129,4.19,4.19,0,0,1-1.078-3.02v-.266a5.073,5.073,0,0,1,.48-2.246,3.748,3.748,0,0,1,1.344-1.547,3.378,3.378,0,0,1,1.871-.559A3.166,3.166,0,0,1,103.6-7.523a4.7,4.7,0,0,1,.914,3.109v.6H98.789a3,3,0,0,0,.73,2.02,2.3,2.3,0,0,0,1.777.77,2.517,2.517,0,0,0,1.3-.312,3.259,3.259,0,0,0,.93-.828l.883.688A3.55,3.55,0,0,1,101.219.156Zm-.18-7.578a1.928,1.928,0,0,0-1.469.637A3.1,3.1,0,0,0,98.836-5h4.234v-.109a2.753,2.753,0,0,0-.594-1.707A1.815,1.815,0,0,0,101.039-7.422ZM3.055,13.5v2.047H4.633v1.117H3.055v5.249a1.173,1.173,0,0,0,.211.763.888.888,0,0,0,.719.254,3.5,3.5,0,0,0,.688-.094V24a4.215,4.215,0,0,1-1.109.155A1.8,1.8,0,0,1,2.1,23.57a2.517,2.517,0,0,1-.492-1.664V16.664H.07V15.547H1.609V13.5Zm7.352,3.344a4.331,4.331,0,0,0-.711-.055A1.9,1.9,0,0,0,7.766,18v6H6.32V15.547H7.727l.023.977a2.251,2.251,0,0,1,2.016-1.133,1.477,1.477,0,0,1,.641.109ZM16.641,24a3.036,3.036,0,0,1-.2-.891,3.225,3.225,0,0,1-2.406,1.047,2.984,2.984,0,0,1-2.051-.707,2.287,2.287,0,0,1-.8-1.793,2.39,2.39,0,0,1,1-2.051,4.733,4.733,0,0,1,2.824-.73h1.406v-.664A1.623,1.623,0,0,0,15.961,17a1.821,1.821,0,0,0-1.336-.449,2.108,2.108,0,0,0-1.3.391,1.151,1.151,0,0,0-.523.945H11.352a2,2,0,0,1,.449-1.223,3.066,3.066,0,0,1,1.219-.934,4.1,4.1,0,0,1,1.691-.344,3.342,3.342,0,0,1,2.289.73,2.635,2.635,0,0,1,.859,2.012v3.891a4.757,4.757,0,0,0,.3,1.852V24Zm-2.4-1.1a2.54,2.54,0,0,0,1.289-.352,2.127,2.127,0,0,0,.883-.914V19.9H15.281q-2.656,0-2.656,1.555a1.316,1.316,0,0,0,.453,1.063A1.742,1.742,0,0,0,14.242,22.9Zm7.25-7.352.047,1.063a3.08,3.08,0,0,1,2.531-1.219q2.68,0,2.7,3.023V24H25.328V18.406a1.946,1.946,0,0,0-.418-1.352,1.675,1.675,0,0,0-1.277-.437,2.086,2.086,0,0,0-1.234.375,2.546,2.546,0,0,0-.828.984V24H20.125V15.547Zm12.383,6.211a1.064,1.064,0,0,0-.441-.91,4.249,4.249,0,0,0-1.539-.559,7.277,7.277,0,0,1-1.742-.562,2.479,2.479,0,0,1-.953-.781,1.869,1.869,0,0,1-.309-1.078,2.193,2.193,0,0,1,.879-1.758,3.432,3.432,0,0,1,2.246-.719,3.532,3.532,0,0,1,2.332.742,2.357,2.357,0,0,1,.895,1.9H33.789a1.3,1.3,0,0,0-.5-1.023,1.888,1.888,0,0,0-1.27-.43,1.976,1.976,0,0,0-1.234.344,1.082,1.082,0,0,0-.445.9.877.877,0,0,0,.414.789,5.1,5.1,0,0,0,1.5.508A7.8,7.8,0,0,1,34,19.7a2.558,2.558,0,0,1,1,.809,1.988,1.988,0,0,1,.324,1.152,2.163,2.163,0,0,1-.906,1.816,3.8,3.8,0,0,1-2.352.684,4.257,4.257,0,0,1-1.8-.359,2.922,2.922,0,0,1-1.223-1A2.42,2.42,0,0,1,28.6,21.4h1.445a1.5,1.5,0,0,0,.582,1.152,2.258,2.258,0,0,0,1.434.426,2.331,2.331,0,0,0,1.316-.332A1.02,1.02,0,0,0,33.875,21.758ZM37.914,24V16.664H36.578V15.547h1.336V14.68a2.878,2.878,0,0,1,.727-2.1,2.745,2.745,0,0,1,2.055-.742,3.816,3.816,0,0,1,.992.132l-.078,1.165a4.151,4.151,0,0,0-.781-.07,1.41,1.41,0,0,0-1.086.411,1.669,1.669,0,0,0-.383,1.18v.893h1.8v1.117h-1.8V24Zm8.164.156a3.693,3.693,0,0,1-2.8-1.129,4.19,4.19,0,0,1-1.078-3.02v-.266a5.073,5.073,0,0,1,.48-2.246,3.748,3.748,0,0,1,1.344-1.547,3.378,3.378,0,0,1,1.871-.559,3.166,3.166,0,0,1,2.563,1.086,4.7,4.7,0,0,1,.914,3.109v.6H43.648a3,3,0,0,0,.73,2.02,2.3,2.3,0,0,0,1.777.77,2.517,2.517,0,0,0,1.3-.312,3.259,3.259,0,0,0,.93-.828l.883.688A3.55,3.55,0,0,1,46.078,24.156Zm-.18-7.578a1.928,1.928,0,0,0-1.469.637A3.1,3.1,0,0,0,43.7,19H47.93v-.109a2.753,2.753,0,0,0-.594-1.707A1.815,1.815,0,0,0,45.9,16.578Zm9.234.266a4.331,4.331,0,0,0-.711-.055A1.9,1.9,0,0,0,52.492,18v6H51.047V15.547h1.406l.023.977a2.251,2.251,0,0,1,2.016-1.133,1.477,1.477,0,0,1,.641.109Zm4.688,7.313a3.693,3.693,0,0,1-2.8-1.129,4.19,4.19,0,0,1-1.078-3.02v-.266a5.073,5.073,0,0,1,.48-2.246,3.748,3.748,0,0,1,1.344-1.547,3.378,3.378,0,0,1,1.871-.559A3.166,3.166,0,0,1,62.2,16.477a4.7,4.7,0,0,1,.914,3.109v.6H57.391a3,3,0,0,0,.73,2.02,2.3,2.3,0,0,0,1.777.77,2.517,2.517,0,0,0,1.3-.312,3.259,3.259,0,0,0,.93-.828l.883.688A3.55,3.55,0,0,1,59.82,24.156Zm-.18-7.578a1.928,1.928,0,0,0-1.469.637A3.1,3.1,0,0,0,57.438,19h4.234v-.109a2.753,2.753,0,0,0-.594-1.707A1.815,1.815,0,0,0,59.641,16.578Zm6.516-1.031.047,1.063a3.08,3.08,0,0,1,2.531-1.219q2.68,0,2.7,3.023V24H69.992V18.406a1.946,1.946,0,0,0-.418-1.352,1.675,1.675,0,0,0-1.277-.437,2.086,2.086,0,0,0-1.234.375,2.546,2.546,0,0,0-.828.984V24H64.789V15.547Zm10.852,7.43a2.082,2.082,0,0,0,1.352-.469A1.649,1.649,0,0,0,79,21.336h1.367a2.621,2.621,0,0,1-.5,1.383,3.293,3.293,0,0,1-1.23,1.047,3.55,3.55,0,0,1-1.629.391A3.482,3.482,0,0,1,74.262,23a4.59,4.59,0,0,1-1.02-3.152v-.242a5.089,5.089,0,0,1,.453-2.2A3.451,3.451,0,0,1,75,15.922a3.7,3.7,0,0,1,2-.531,3.39,3.39,0,0,1,2.363.852,3.043,3.043,0,0,1,1,2.211H79a1.992,1.992,0,0,0-.621-1.348A1.932,1.932,0,0,0,77,16.578a2.023,2.023,0,0,0-1.707.793,3.724,3.724,0,0,0-.605,2.293v.273a3.65,3.65,0,0,0,.6,2.25A2.033,2.033,0,0,0,77.008,22.977ZM83.563,24H82.117V15.547h1.445ZM82,13.3a.863.863,0,0,1,.215-.594.807.807,0,0,1,.637-.242.819.819,0,0,1,.641.242.854.854,0,0,1,.219.594.826.826,0,0,1-.219.586.834.834,0,0,1-.641.234.821.821,0,0,1-.637-.234A.834.834,0,0,1,82,13.3ZM91.094,24a3.036,3.036,0,0,1-.2-.891,3.225,3.225,0,0,1-2.406,1.047,2.984,2.984,0,0,1-2.051-.707,2.288,2.288,0,0,1-.8-1.793,2.39,2.39,0,0,1,1-2.051,4.733,4.733,0,0,1,2.824-.73h1.406v-.664A1.623,1.623,0,0,0,90.414,17a1.821,1.821,0,0,0-1.336-.449,2.108,2.108,0,0,0-1.3.391,1.151,1.151,0,0,0-.523.945H85.8a2,2,0,0,1,.449-1.223,3.066,3.066,0,0,1,1.219-.934,4.1,4.1,0,0,1,1.691-.344,3.342,3.342,0,0,1,2.289.73,2.635,2.635,0,0,1,.859,2.012v3.891a4.757,4.757,0,0,0,.3,1.852V24Zm-2.4-1.1a2.54,2.54,0,0,0,1.289-.352,2.127,2.127,0,0,0,.883-.914V19.9H89.734q-2.656,0-2.656,1.555a1.316,1.316,0,0,0,.453,1.063A1.742,1.742,0,0,0,88.7,22.9Z" transform="translate(-2569.512 -8732.978)" fill="#12263f"/>
    <path id="Trazado_715980" data-name="Trazado 715980" d="M7.594-5.023H2.82V0H1.32V-11.375H8.367v1.227H2.82v3.9H7.594ZM20.508-6.359H13.992V-7.617h6.516Zm0,3.242H13.992v-1.25h6.516ZM40.25-4.453V0h-1.5V-11.375h4.2a4.215,4.215,0,0,1,2.926.953A3.231,3.231,0,0,1,46.93-7.9a3.189,3.189,0,0,1-1.035,2.551,4.4,4.4,0,0,1-2.965.895Zm0-1.227h2.7a2.7,2.7,0,0,0,1.844-.567,2.075,2.075,0,0,0,.641-1.64,2.143,2.143,0,0,0-.641-1.628,2.525,2.525,0,0,0-1.758-.634H40.25ZM65.719,0a3.036,3.036,0,0,1-.2-.891A3.225,3.225,0,0,1,63.109.156a2.984,2.984,0,0,1-2.051-.707,2.287,2.287,0,0,1-.8-1.793,2.39,2.39,0,0,1,1-2.051,4.733,4.733,0,0,1,2.824-.73h1.406v-.664A1.623,1.623,0,0,0,65.039-7,1.821,1.821,0,0,0,63.7-7.445a2.107,2.107,0,0,0-1.3.391,1.151,1.151,0,0,0-.523.945H60.43a2,2,0,0,1,.449-1.223A3.066,3.066,0,0,1,62.1-8.266a4.1,4.1,0,0,1,1.691-.344,3.342,3.342,0,0,1,2.289.73,2.635,2.635,0,0,1,.859,2.012v3.891a4.757,4.757,0,0,0,.3,1.852V0Zm-2.4-1.1a2.54,2.54,0,0,0,1.289-.352,2.127,2.127,0,0,0,.883-.914V-4.1H64.359Q61.7-4.1,61.7-2.547a1.316,1.316,0,0,0,.453,1.063A1.742,1.742,0,0,0,63.32-1.1Z" transform="translate(-2599.399 -8659.241)" fill="#12263f"/>
    <path id="Trazado_715984" data-name="Trazado 715984" d="M4.052-4.342V0H.967V-12.8H6.073a5.948,5.948,0,0,1,2.6.541,4.074,4.074,0,0,1,1.749,1.538,4.2,4.2,0,0,1,.62,2.263A3.7,3.7,0,0,1,9.7-5.462,5.561,5.561,0,0,1,6.021-4.342Zm0-2.382H6.073A1.906,1.906,0,0,0,7.44-7.172a1.665,1.665,0,0,0,.47-1.266A2.059,2.059,0,0,0,7.427-9.87a1.712,1.712,0,0,0-1.318-.545H4.052Z" transform="translate(-2631.406 -8807.419)" fill="#12263f"/>
    <path id="Trazado_715978" data-name="Trazado 715978" d="M9.688-3.609A4.185,4.185,0,0,1,8.355-.824a4.365,4.365,0,0,1-2.98.98,4.008,4.008,0,0,1-3.23-1.445A5.815,5.815,0,0,1,.93-5.156V-6.25A6.481,6.481,0,0,1,1.5-9.039,4.231,4.231,0,0,1,3.1-10.887a4.47,4.47,0,0,1,2.406-.645A4.11,4.11,0,0,1,8.414-10.52a4.235,4.235,0,0,1,1.273,2.8H8.18a3.268,3.268,0,0,0-.848-1.975A2.565,2.565,0,0,0,5.508-10.3,2.684,2.684,0,0,0,3.254-9.241a4.882,4.882,0,0,0-.816,3.026v1.1a5.018,5.018,0,0,0,.773,2.948A2.5,2.5,0,0,0,5.375-1.07a2.887,2.887,0,0,0,1.918-.566A3.143,3.143,0,0,0,8.18-3.609ZM15.016.156a3.693,3.693,0,0,1-2.8-1.129,4.19,4.19,0,0,1-1.078-3.02v-.266a5.073,5.073,0,0,1,.48-2.246,3.748,3.748,0,0,1,1.344-1.547,3.378,3.378,0,0,1,1.871-.559A3.166,3.166,0,0,1,17.4-7.523a4.7,4.7,0,0,1,.914,3.109v.6H12.586a3,3,0,0,0,.73,2.02,2.3,2.3,0,0,0,1.777.77,2.517,2.517,0,0,0,1.3-.312,3.259,3.259,0,0,0,.93-.828l.883.688A3.55,3.55,0,0,1,15.016.156Zm-.18-7.578a1.928,1.928,0,0,0-1.469.637A3.1,3.1,0,0,0,12.633-5h4.234v-.109a2.753,2.753,0,0,0-.594-1.707A1.815,1.815,0,0,0,14.836-7.422ZM21.555,0H20.109V-12h1.445Zm1.961-4.3a4.952,4.952,0,0,1,.922-3.129,2.915,2.915,0,0,1,2.414-1.184A2.932,2.932,0,0,1,29.2-7.594V-12h1.445V0H29.32l-.07-.906A2.943,2.943,0,0,1,26.836.156a2.887,2.887,0,0,1-2.395-1.2,5.008,5.008,0,0,1-.926-3.141Zm1.445.164a3.749,3.749,0,0,0,.594,2.25A1.92,1.92,0,0,0,27.2-1.07,2.108,2.108,0,0,0,29.2-2.3V-6.187a2.125,2.125,0,0,0-1.992-1.2,1.929,1.929,0,0,0-1.656.82A4.128,4.128,0,0,0,24.961-4.133ZM38.109,0a3.036,3.036,0,0,1-.2-.891A3.225,3.225,0,0,1,35.5.156a2.984,2.984,0,0,1-2.051-.707,2.287,2.287,0,0,1-.8-1.793,2.39,2.39,0,0,1,1-2.051,4.733,4.733,0,0,1,2.824-.73h1.406v-.664A1.623,1.623,0,0,0,37.43-7a1.821,1.821,0,0,0-1.336-.449,2.107,2.107,0,0,0-1.3.391,1.151,1.151,0,0,0-.523.945H32.82a2,2,0,0,1,.449-1.223,3.066,3.066,0,0,1,1.219-.934,4.1,4.1,0,0,1,1.691-.344,3.342,3.342,0,0,1,2.289.73,2.635,2.635,0,0,1,.859,2.012v3.891a4.757,4.757,0,0,0,.3,1.852V0Zm-2.4-1.1A2.54,2.54,0,0,0,37-1.453a2.127,2.127,0,0,0,.883-.914V-4.1H36.75q-2.656,0-2.656,1.555a1.316,1.316,0,0,0,.453,1.063A1.742,1.742,0,0,0,35.711-1.1ZM45.2-4.3a4.952,4.952,0,0,1,.922-3.129,2.915,2.915,0,0,1,2.414-1.184,2.932,2.932,0,0,1,2.352,1.016V-12h1.445V0H51.008l-.07-.906A2.943,2.943,0,0,1,48.523.156a2.887,2.887,0,0,1-2.395-1.2A5.008,5.008,0,0,1,45.2-4.187Zm1.445.164a3.749,3.749,0,0,0,.594,2.25,1.92,1.92,0,0,0,1.641.813A2.108,2.108,0,0,0,50.891-2.3V-6.187a2.125,2.125,0,0,0-1.992-1.2,1.929,1.929,0,0,0-1.656.82A4.128,4.128,0,0,0,46.648-4.133ZM58.086.156a3.693,3.693,0,0,1-2.8-1.129,4.19,4.19,0,0,1-1.078-3.02v-.266a5.073,5.073,0,0,1,.48-2.246,3.748,3.748,0,0,1,1.344-1.547,3.378,3.378,0,0,1,1.871-.559,3.166,3.166,0,0,1,2.563,1.086,4.7,4.7,0,0,1,.914,3.109v.6H55.656a3,3,0,0,0,.73,2.02,2.3,2.3,0,0,0,1.777.77,2.517,2.517,0,0,0,1.3-.312,3.259,3.259,0,0,0,.93-.828l.883.688A3.55,3.55,0,0,1,58.086.156Zm-.18-7.578a1.928,1.928,0,0,0-1.469.637A3.1,3.1,0,0,0,55.7-5h4.234v-.109a2.753,2.753,0,0,0-.594-1.707A1.815,1.815,0,0,0,57.906-7.422ZM4.484,22.977a2.082,2.082,0,0,0,1.352-.469,1.649,1.649,0,0,0,.641-1.172H7.844a2.621,2.621,0,0,1-.5,1.383,3.293,3.293,0,0,1-1.23,1.047,3.55,3.55,0,0,1-1.629.391A3.482,3.482,0,0,1,1.738,23a4.59,4.59,0,0,1-1.02-3.152v-.242a5.089,5.089,0,0,1,.453-2.2,3.451,3.451,0,0,1,1.3-1.492,3.7,3.7,0,0,1,2-.531,3.39,3.39,0,0,1,2.363.852,3.043,3.043,0,0,1,1,2.211H6.477a1.992,1.992,0,0,0-.621-1.348,1.932,1.932,0,0,0-1.379-.527,2.023,2.023,0,0,0-1.707.793,3.724,3.724,0,0,0-.605,2.293v.273a3.65,3.65,0,0,0,.6,2.25A2.033,2.033,0,0,0,4.484,22.977ZM14.688,24a3.036,3.036,0,0,1-.2-.891,3.225,3.225,0,0,1-2.406,1.047,2.984,2.984,0,0,1-2.051-.707,2.287,2.287,0,0,1-.8-1.793,2.39,2.39,0,0,1,1-2.051,4.733,4.733,0,0,1,2.824-.73h1.406v-.664A1.623,1.623,0,0,0,14.008,17a1.821,1.821,0,0,0-1.336-.449,2.108,2.108,0,0,0-1.3.391,1.151,1.151,0,0,0-.523.945H9.4a2,2,0,0,1,.449-1.223,3.066,3.066,0,0,1,1.219-.934,4.1,4.1,0,0,1,1.691-.344,3.342,3.342,0,0,1,2.289.73,2.635,2.635,0,0,1,.859,2.012v3.891a4.757,4.757,0,0,0,.3,1.852V24Zm-2.4-1.1a2.54,2.54,0,0,0,1.289-.352,2.127,2.127,0,0,0,.883-.914V19.9H13.328q-2.656,0-2.656,1.555a1.316,1.316,0,0,0,.453,1.063A1.742,1.742,0,0,0,12.289,22.9Zm9.969-6.055a4.331,4.331,0,0,0-.711-.055A1.9,1.9,0,0,0,19.617,18v6H18.172V15.547h1.406l.023.977a2.251,2.251,0,0,1,2.016-1.133,1.477,1.477,0,0,1,.641.109Zm.836,2.859a4.968,4.968,0,0,1,.914-3.145,3.151,3.151,0,0,1,4.836-.074l.07-.937h1.32V23.8a3.439,3.439,0,0,1-.973,2.586,3.589,3.589,0,0,1-2.613.945,4.348,4.348,0,0,1-1.789-.391,3.08,3.08,0,0,1-1.336-1.07l.75-.867a2.826,2.826,0,0,0,2.273,1.148,2.214,2.214,0,0,0,1.645-.594,2.269,2.269,0,0,0,.59-1.672v-.727a2.971,2.971,0,0,1-2.367,1,2.887,2.887,0,0,1-2.4-1.2A5.224,5.224,0,0,1,23.094,19.7Zm1.453.164a3.79,3.79,0,0,0,.586,2.246,1.9,1.9,0,0,0,1.641.816,2.117,2.117,0,0,0,2.008-1.242V17.828a2.142,2.142,0,0,0-1.992-1.211,1.921,1.921,0,0,0-1.648.82A4.128,4.128,0,0,0,24.547,19.867ZM37.633,24a3.036,3.036,0,0,1-.2-.891,3.225,3.225,0,0,1-2.406,1.047,2.984,2.984,0,0,1-2.051-.707,2.287,2.287,0,0,1-.8-1.793,2.39,2.39,0,0,1,1-2.051A4.733,4.733,0,0,1,36,18.875h1.406v-.664A1.623,1.623,0,0,0,36.953,17a1.821,1.821,0,0,0-1.336-.449,2.107,2.107,0,0,0-1.3.391,1.151,1.151,0,0,0-.523.945H32.344a2,2,0,0,1,.449-1.223,3.066,3.066,0,0,1,1.219-.934,4.1,4.1,0,0,1,1.691-.344,3.342,3.342,0,0,1,2.289.73,2.635,2.635,0,0,1,.859,2.012v3.891a4.757,4.757,0,0,0,.3,1.852V24Zm-2.4-1.1a2.54,2.54,0,0,0,1.289-.352,2.127,2.127,0,0,0,.883-.914V19.9H36.273q-2.656,0-2.656,1.555a1.316,1.316,0,0,0,.453,1.063A1.742,1.742,0,0,0,35.234,22.9Z" transform="translate(-2568.912 -8628.98)" fill="#12263f"/>
    <path id="Trazado_715975" data-name="Trazado 715975" d="M2.82-4.453V0H1.32V-11.375h4.2a4.215,4.215,0,0,1,2.926.953A3.231,3.231,0,0,1,9.5-7.9,3.189,3.189,0,0,1,8.465-5.348,4.4,4.4,0,0,1,5.5-4.453Zm0-1.227h2.7a2.7,2.7,0,0,0,1.844-.567A2.075,2.075,0,0,0,8-7.887a2.143,2.143,0,0,0-.641-1.628A2.525,2.525,0,0,0,5.6-10.148H2.82ZM15.273-7.156a4.331,4.331,0,0,0-.711-.055A1.9,1.9,0,0,0,12.633-6V0H11.188V-8.453h1.406l.023.977a2.251,2.251,0,0,1,2.016-1.133,1.477,1.477,0,0,1,.641.109ZM16.063-4.3a4.993,4.993,0,0,1,.488-2.234A3.643,3.643,0,0,1,17.91-8.07,3.7,3.7,0,0,1,19.9-8.609a3.565,3.565,0,0,1,2.793,1.2,4.6,4.6,0,0,1,1.066,3.18v.1a5.036,5.036,0,0,1-.473,2.215A3.589,3.589,0,0,1,21.934-.391a3.743,3.743,0,0,1-2.02.547,3.556,3.556,0,0,1-2.785-1.2A4.575,4.575,0,0,1,16.063-4.2Zm1.453.172a3.616,3.616,0,0,0,.652,2.258,2.088,2.088,0,0,0,1.746.852,2.075,2.075,0,0,0,1.75-.863A3.955,3.955,0,0,0,22.313-4.3a3.61,3.61,0,0,0-.66-2.254A2.1,2.1,0,0,0,19.9-7.422a2.075,2.075,0,0,0-1.727.852A3.925,3.925,0,0,0,17.516-4.133ZM28.961-1.023a2.082,2.082,0,0,0,1.352-.469,1.649,1.649,0,0,0,.641-1.172H32.32a2.621,2.621,0,0,1-.5,1.383A3.293,3.293,0,0,1,30.59-.234a3.55,3.55,0,0,1-1.629.391A3.482,3.482,0,0,1,26.215-1,4.59,4.59,0,0,1,25.2-4.148v-.242a5.089,5.089,0,0,1,.453-2.2,3.451,3.451,0,0,1,1.3-1.492,3.7,3.7,0,0,1,2-.531,3.39,3.39,0,0,1,2.363.852,3.043,3.043,0,0,1,1,2.211H30.953a1.992,1.992,0,0,0-.621-1.348,1.932,1.932,0,0,0-1.379-.527,2.023,2.023,0,0,0-1.707.793,3.724,3.724,0,0,0-.605,2.293v.273a3.65,3.65,0,0,0,.6,2.25A2.033,2.033,0,0,0,28.961-1.023ZM37.453.156a3.693,3.693,0,0,1-2.8-1.129,4.19,4.19,0,0,1-1.078-3.02v-.266a5.073,5.073,0,0,1,.48-2.246A3.748,3.748,0,0,1,35.4-8.051a3.378,3.378,0,0,1,1.871-.559,3.166,3.166,0,0,1,2.563,1.086,4.7,4.7,0,0,1,.914,3.109v.6H35.023a3,3,0,0,0,.73,2.02,2.3,2.3,0,0,0,1.777.77,2.517,2.517,0,0,0,1.3-.312,3.259,3.259,0,0,0,.93-.828l.883.688A3.55,3.55,0,0,1,37.453.156Zm-.18-7.578a1.928,1.928,0,0,0-1.469.637A3.1,3.1,0,0,0,35.07-5H39.3v-.109a2.753,2.753,0,0,0-.594-1.707A1.815,1.815,0,0,0,37.273-7.422Zm10.07,5.18a1.064,1.064,0,0,0-.441-.91,4.249,4.249,0,0,0-1.539-.559,7.277,7.277,0,0,1-1.742-.562,2.479,2.479,0,0,1-.953-.781,1.869,1.869,0,0,1-.309-1.078,2.193,2.193,0,0,1,.879-1.758,3.432,3.432,0,0,1,2.246-.719,3.532,3.532,0,0,1,2.332.742,2.357,2.357,0,0,1,.895,1.9H47.258a1.3,1.3,0,0,0-.5-1.023,1.888,1.888,0,0,0-1.27-.43,1.976,1.976,0,0,0-1.234.344,1.082,1.082,0,0,0-.445.9.877.877,0,0,0,.414.789,5.1,5.1,0,0,0,1.5.508,7.8,7.8,0,0,1,1.754.578,2.558,2.558,0,0,1,1,.809,1.988,1.988,0,0,1,.324,1.152,2.163,2.163,0,0,1-.906,1.816,3.8,3.8,0,0,1-2.352.684,4.257,4.257,0,0,1-1.8-.359,2.922,2.922,0,0,1-1.223-1A2.42,2.42,0,0,1,42.07-2.6h1.445A1.5,1.5,0,0,0,44.1-1.449a2.258,2.258,0,0,0,1.434.426,2.331,2.331,0,0,0,1.316-.332A1.02,1.02,0,0,0,47.344-2.242ZM55.891,0a3.036,3.036,0,0,1-.2-.891A3.225,3.225,0,0,1,53.281.156,2.984,2.984,0,0,1,51.23-.551a2.287,2.287,0,0,1-.8-1.793,2.39,2.39,0,0,1,1-2.051,4.733,4.733,0,0,1,2.824-.73h1.406v-.664A1.623,1.623,0,0,0,55.211-7a1.821,1.821,0,0,0-1.336-.449,2.107,2.107,0,0,0-1.3.391,1.151,1.151,0,0,0-.523.945H50.6a2,2,0,0,1,.449-1.223,3.066,3.066,0,0,1,1.219-.934,4.1,4.1,0,0,1,1.691-.344,3.342,3.342,0,0,1,2.289.73,2.635,2.635,0,0,1,.859,2.012v3.891a4.757,4.757,0,0,0,.3,1.852V0Zm-2.4-1.1a2.54,2.54,0,0,0,1.289-.352,2.127,2.127,0,0,0,.883-.914V-4.1H54.531q-2.656,0-2.656,1.555a1.316,1.316,0,0,0,.453,1.063A1.742,1.742,0,0,0,53.492-1.1Zm5.531-3.2a4.952,4.952,0,0,1,.922-3.129,2.915,2.915,0,0,1,2.414-1.184,2.932,2.932,0,0,1,2.352,1.016V-12h1.445V0H64.828l-.07-.906A2.943,2.943,0,0,1,62.344.156a2.887,2.887,0,0,1-2.395-1.2,5.008,5.008,0,0,1-.926-3.141Zm1.445.164a3.749,3.749,0,0,0,.594,2.25A1.92,1.92,0,0,0,62.7-1.07,2.108,2.108,0,0,0,64.711-2.3V-6.187a2.125,2.125,0,0,0-1.992-1.2,1.929,1.929,0,0,0-1.656.82A4.128,4.128,0,0,0,60.469-4.133ZM68.016-4.3A4.993,4.993,0,0,1,68.5-6.539,3.643,3.643,0,0,1,69.863-8.07a3.7,3.7,0,0,1,1.988-.539,3.565,3.565,0,0,1,2.793,1.2,4.6,4.6,0,0,1,1.066,3.18v.1a5.036,5.036,0,0,1-.473,2.215A3.589,3.589,0,0,1,73.887-.391a3.743,3.743,0,0,1-2.02.547,3.556,3.556,0,0,1-2.785-1.2A4.575,4.575,0,0,1,68.016-4.2Zm1.453.172a3.616,3.616,0,0,0,.652,2.258,2.088,2.088,0,0,0,1.746.852,2.075,2.075,0,0,0,1.75-.863A3.955,3.955,0,0,0,74.266-4.3a3.61,3.61,0,0,0-.66-2.254,2.1,2.1,0,0,0-1.754-.863,2.075,2.075,0,0,0-1.727.852A3.925,3.925,0,0,0,69.469-4.133ZM81.609-7.156a4.331,4.331,0,0,0-.711-.055A1.9,1.9,0,0,0,78.969-6V0H77.523V-8.453H78.93l.023.977a2.251,2.251,0,0,1,2.016-1.133,1.477,1.477,0,0,1,.641.109ZM86.547-4.3a4.952,4.952,0,0,1,.922-3.129,2.915,2.915,0,0,1,2.414-1.184,2.932,2.932,0,0,1,2.352,1.016V-12H93.68V0H92.352l-.07-.906A2.943,2.943,0,0,1,89.867.156a2.887,2.887,0,0,1-2.395-1.2,5.008,5.008,0,0,1-.926-3.141Zm1.445.164a3.749,3.749,0,0,0,.594,2.25,1.92,1.92,0,0,0,1.641.813A2.109,2.109,0,0,0,92.234-2.3V-6.187a2.125,2.125,0,0,0-1.992-1.2,1.929,1.929,0,0,0-1.656.82A4.128,4.128,0,0,0,87.992-4.133ZM99.43.156a3.693,3.693,0,0,1-2.8-1.129,4.19,4.19,0,0,1-1.078-3.02v-.266a5.073,5.073,0,0,1,.48-2.246,3.748,3.748,0,0,1,1.344-1.547,3.378,3.378,0,0,1,1.871-.559,3.166,3.166,0,0,1,2.563,1.086,4.7,4.7,0,0,1,.914,3.109v.6H97a3,3,0,0,0,.73,2.02,2.3,2.3,0,0,0,1.777.77,2.517,2.517,0,0,0,1.3-.312,3.259,3.259,0,0,0,.93-.828l.883.688A3.55,3.55,0,0,1,99.43.156Zm-.18-7.578a1.928,1.928,0,0,0-1.469.637A3.1,3.1,0,0,0,97.047-5h4.234v-.109a2.753,2.753,0,0,0-.594-1.707A1.815,1.815,0,0,0,99.25-7.422ZM6.016,21.758a1.064,1.064,0,0,0-.441-.91,4.249,4.249,0,0,0-1.539-.559,7.277,7.277,0,0,1-1.742-.562,2.479,2.479,0,0,1-.953-.781,1.869,1.869,0,0,1-.309-1.078,2.193,2.193,0,0,1,.879-1.758,3.432,3.432,0,0,1,2.246-.719,3.532,3.532,0,0,1,2.332.742,2.357,2.357,0,0,1,.895,1.9H5.93a1.3,1.3,0,0,0-.5-1.023,1.888,1.888,0,0,0-1.27-.43,1.976,1.976,0,0,0-1.234.344,1.082,1.082,0,0,0-.445.9.877.877,0,0,0,.414.789,5.1,5.1,0,0,0,1.5.508,7.8,7.8,0,0,1,1.754.578,2.558,2.558,0,0,1,1,.809,1.988,1.988,0,0,1,.324,1.152,2.163,2.163,0,0,1-.906,1.816,3.8,3.8,0,0,1-2.352.684,4.257,4.257,0,0,1-1.8-.359,2.922,2.922,0,0,1-1.223-1A2.42,2.42,0,0,1,.742,21.4H2.188a1.5,1.5,0,0,0,.582,1.152,2.258,2.258,0,0,0,1.434.426,2.331,2.331,0,0,0,1.316-.332A1.02,1.02,0,0,0,6.016,21.758Zm6.836,2.4a3.693,3.693,0,0,1-2.8-1.129,4.19,4.19,0,0,1-1.078-3.02v-.266a5.073,5.073,0,0,1,.48-2.246A3.748,3.748,0,0,1,10.8,15.949a3.378,3.378,0,0,1,1.871-.559,3.166,3.166,0,0,1,2.563,1.086,4.7,4.7,0,0,1,.914,3.109v.6H10.422a3,3,0,0,0,.73,2.02,2.3,2.3,0,0,0,1.777.77,2.517,2.517,0,0,0,1.3-.312,3.259,3.259,0,0,0,.93-.828l.883.688A3.55,3.55,0,0,1,12.852,24.156Zm-.18-7.578a1.928,1.928,0,0,0-1.469.637A3.1,3.1,0,0,0,10.469,19H14.7v-.109a2.753,2.753,0,0,0-.594-1.707A1.815,1.815,0,0,0,12.672,16.578Zm6.516-1.031.047,1.063a3.08,3.08,0,0,1,2.531-1.219q2.68,0,2.7,3.023V24H23.023V18.406a1.946,1.946,0,0,0-.418-1.352,1.675,1.675,0,0,0-1.277-.437,2.086,2.086,0,0,0-1.234.375,2.546,2.546,0,0,0-.828.984V24H17.82V15.547Zm4.781-3.3a1.942,1.942,0,0,1-.48,1.367,1.561,1.561,0,0,1-1.2.523,1.76,1.76,0,0,1-.555-.078,2.993,2.993,0,0,1-.613-.32,2.656,2.656,0,0,0-.547-.293,1.338,1.338,0,0,0-.387-.051.717.717,0,0,0-.547.246.892.892,0,0,0-.227.629l-.969-.055a2.039,2.039,0,0,1,.473-1.383,1.516,1.516,0,0,1,1.2-.547,1.457,1.457,0,0,1,.492.078,3.587,3.587,0,0,1,.594.3,3.494,3.494,0,0,0,.574.3,1.319,1.319,0,0,0,.441.07.7.7,0,0,0,.559-.266A.932.932,0,0,0,23,12.156ZM31.867,24a3.036,3.036,0,0,1-.2-.891,3.225,3.225,0,0,1-2.406,1.047,2.984,2.984,0,0,1-2.051-.707,2.287,2.287,0,0,1-.8-1.793,2.39,2.39,0,0,1,1-2.051,4.733,4.733,0,0,1,2.824-.73h1.406v-.664A1.623,1.623,0,0,0,31.188,17a1.821,1.821,0,0,0-1.336-.449,2.108,2.108,0,0,0-1.3.391,1.151,1.151,0,0,0-.523.945H26.578a2,2,0,0,1,.449-1.223,3.066,3.066,0,0,1,1.219-.934,4.1,4.1,0,0,1,1.691-.344,3.342,3.342,0,0,1,2.289.73,2.635,2.635,0,0,1,.859,2.012v3.891a4.757,4.757,0,0,0,.3,1.852V24Zm-2.4-1.1a2.54,2.54,0,0,0,1.289-.352,2.127,2.127,0,0,0,.883-.914V19.9H30.508q-2.656,0-2.656,1.555a1.316,1.316,0,0,0,.453,1.063A1.742,1.742,0,0,0,29.469,22.9ZM36.922,24H35.477V12h1.445Zm9.039-2.117,1.969-6.336h1.547l-3.4,9.758q-.789,2.109-2.508,2.109l-.273-.023-.539-.1V26.117l.391.031a1.923,1.923,0,0,0,1.145-.3,2.148,2.148,0,0,0,.676-1.086l.32-.859-3.016-8.359h1.578Zm15.906-2.016a5.062,5.062,0,0,1-.883,3.109,2.829,2.829,0,0,1-2.391,1.18,3.1,3.1,0,0,1-2.422-.977v4.07H54.727v-11.7h1.32l.07.938a2.977,2.977,0,0,1,2.453-1.094,2.882,2.882,0,0,1,2.41,1.148,5.117,5.117,0,0,1,.887,3.2ZM60.422,19.7a3.735,3.735,0,0,0-.609-2.258,1.963,1.963,0,0,0-1.672-.828,2.125,2.125,0,0,0-1.969,1.164V21.82a2.129,2.129,0,0,0,1.984,1.156,1.954,1.954,0,0,0,1.652-.824A4.077,4.077,0,0,0,60.422,19.7Zm8.5,4.3a3.036,3.036,0,0,1-.2-.891,3.225,3.225,0,0,1-2.406,1.047,2.984,2.984,0,0,1-2.051-.707,2.287,2.287,0,0,1-.8-1.793,2.39,2.39,0,0,1,1-2.051,4.733,4.733,0,0,1,2.824-.73H68.7v-.664A1.623,1.623,0,0,0,68.242,17a1.821,1.821,0,0,0-1.336-.449,2.108,2.108,0,0,0-1.3.391,1.151,1.151,0,0,0-.523.945H63.633a2,2,0,0,1,.449-1.223,3.066,3.066,0,0,1,1.219-.934,4.1,4.1,0,0,1,1.691-.344,3.342,3.342,0,0,1,2.289.73,2.635,2.635,0,0,1,.859,2.012v3.891a4.757,4.757,0,0,0,.3,1.852V24Zm-2.4-1.1a2.54,2.54,0,0,0,1.289-.352,2.127,2.127,0,0,0,.883-.914V19.9H67.563q-2.656,0-2.656,1.555a1.316,1.316,0,0,0,.453,1.063A1.742,1.742,0,0,0,66.523,22.9Zm7.25-7.352.047,1.063a3.08,3.08,0,0,1,2.531-1.219q2.68,0,2.7,3.023V24H77.609V18.406a1.946,1.946,0,0,0-.418-1.352,1.675,1.675,0,0,0-1.277-.437,2.086,2.086,0,0,0-1.234.375,2.546,2.546,0,0,0-.828.984V24H72.406V15.547ZM83.2,13.5v2.047h1.578v1.117H83.2v5.249a1.173,1.173,0,0,0,.211.763.888.888,0,0,0,.719.254,3.5,3.5,0,0,0,.688-.094V24a4.215,4.215,0,0,1-1.109.155,1.8,1.8,0,0,1-1.461-.586,2.517,2.517,0,0,1-.492-1.664V16.664H80.211V15.547H81.75V13.5ZM91.68,24a3.036,3.036,0,0,1-.2-.891,3.225,3.225,0,0,1-2.406,1.047,2.984,2.984,0,0,1-2.051-.707,2.288,2.288,0,0,1-.8-1.793,2.39,2.39,0,0,1,1-2.051,4.733,4.733,0,0,1,2.824-.73h1.406v-.664A1.623,1.623,0,0,0,91,17a1.821,1.821,0,0,0-1.336-.449,2.108,2.108,0,0,0-1.3.391,1.151,1.151,0,0,0-.523.945H86.391a2,2,0,0,1,.449-1.223,3.066,3.066,0,0,1,1.219-.934,4.1,4.1,0,0,1,1.691-.344,3.342,3.342,0,0,1,2.289.73,2.635,2.635,0,0,1,.859,2.012v3.891a4.757,4.757,0,0,0,.3,1.852V24Zm-2.4-1.1a2.54,2.54,0,0,0,1.289-.352,2.127,2.127,0,0,0,.883-.914V19.9H90.32q-2.656,0-2.656,1.555a1.316,1.316,0,0,0,.453,1.063A1.742,1.742,0,0,0,89.281,22.9ZM96.734,24H95.289V12h1.445Zm3.883,0H99.172V12h1.445Zm7.531,0a3.036,3.036,0,0,1-.2-.891,3.225,3.225,0,0,1-2.406,1.047,2.984,2.984,0,0,1-2.051-.707,2.288,2.288,0,0,1-.8-1.793,2.39,2.39,0,0,1,1-2.051,4.733,4.733,0,0,1,2.824-.73h1.406v-.664A1.623,1.623,0,0,0,107.469,17a1.821,1.821,0,0,0-1.336-.449,2.108,2.108,0,0,0-1.3.391,1.151,1.151,0,0,0-.523.945h-1.453a2,2,0,0,1,.449-1.223,3.066,3.066,0,0,1,1.219-.934,4.1,4.1,0,0,1,1.691-.344,3.342,3.342,0,0,1,2.289.73,2.635,2.635,0,0,1,.859,2.012v3.891a4.757,4.757,0,0,0,.3,1.852V24Zm-2.4-1.1a2.54,2.54,0,0,0,1.289-.352,2.127,2.127,0,0,0,.883-.914V19.9h-1.133q-2.656,0-2.656,1.555a1.316,1.316,0,0,0,.453,1.063A1.742,1.742,0,0,0,105.75,22.9Z" transform="translate(-2568.912 -8553.581)" fill="#12263f"/>
    <path id="Trazado_714003" data-name="Trazado 714003" d="M1009,8605s-6.25-4.15-6.4,3.8l.4,14.4s-.288,6-4.4,3.8" transform="translate(-3571.277 -17285.086)" fill="none" stroke="#12263f" stroke-miterlimit="10" stroke-width="1.5"/>
    <path id="Trazado_714004" data-name="Trazado 714004" d="M1017.6,8612.65s7.15-1.7,4.45,8.5a3.224,3.224,0,0,1-4.75,2.05s-2.2-.8-.95-4.351c0,0,1.65-3.85,5.95-.85" transform="translate(-3565.712 -17281.93)" fill="none" stroke="#12263f" stroke-miterlimit="10" stroke-width="1.5"/>
    <path id="Trazado_714005" data-name="Trazado 714005" d="M895.4,8507.6l128.2-1.4-8.8,14-111.6.8Z" transform="translate(-3584.712 -17286.785)" fill="#fff" stroke="#000" stroke-miterlimit="10" stroke-width="1"/>
  </g>
</svg>
